<?xml version="1.0" standalone="no"?>
<!DOCTYPE svg PUBLIC "-//W3C//DTD SVG 20010904//EN"
 "http://www.w3.org/TR/2001/REC-SVG-20010904/DTD/svg10.dtd">
<svg version="1.0" xmlns="http://www.w3.org/2000/svg"
 width="154.000000pt" height="167.000000pt" viewBox="0 0 154.000000 167.000000"
 preserveAspectRatio="xMidYMid meet">
<metadata>
Created by potrace 1.16, written by Peter Selinger 2001-2019
</metadata>
<g transform="translate(0.000000,167.000000) scale(0.100000,-0.100000)"
fill="#000000" stroke="none">
<path d="M744 1250 c-27 0 -55 -9 -86 -29 -25 -16 -59 -49 -75 -73 -17 -23
-37 -56 -45 -73 -9 -16 -21 -54 -28 -83 -9 -40 -9 -67 0 -119 6 -36 18 -79 26
-94 8 -16 29 -36 47 -46 21 -11 53 -17 93 -16 49 0 71 7 120 34 32 18 79 54
104 79 25 25 53 61 63 82 12 25 17 61 17 122 0 85 0 85 38 92 20 4 49 13 65
21 16 8 27 22 27 34 0 17 -4 20 -22 15 -13 -4 -44 -9 -70 -13 -38 -5 -51 -2
-74 16 -16 13 -41 21 -64 21 -21 0 -51 7 -66 15 -16 8 -47 15 -70 15z m6 -51
c14 0 35 -7 47 -17 12 -9 26 -35 31 -56 4 -22 13 -41 19 -43 7 -3 19 10 29 28
17 33 17 33 35 10 14 -18 19 -39 19 -90 0 -43 -7 -80 -19 -108 -12 -24 -40
-58 -72 -83 -28 -22 -68 -48 -87 -56 -19 -7 -54 -14 -79 -14 -24 0 -54 7 -68
16 -13 8 -28 29 -34 46 -6 17 -11 54 -11 83 0 28 6 73 14 99 8 25 29 69 46 97
19 28 48 58 69 69 20 11 47 19 61 19z"/>
</g>
</svg>
