<?xml version="1.0" standalone="no"?>
<!DOCTYPE svg PUBLIC "-//W3C//DTD SVG 20010904//EN"
 "http://www.w3.org/TR/2001/REC-SVG-20010904/DTD/svg10.dtd">
<svg version="1.0" xmlns="http://www.w3.org/2000/svg"
 width="158.000000pt" height="174.000000pt" viewBox="0 0 158.000000 174.000000"
 preserveAspectRatio="xMidYMid meet">
<metadata>
Created by potrace 1.16, written by Peter Selinger 2001-2019
</metadata>
<g transform="translate(0.000000,174.000000) scale(0.100000,-0.100000)"
fill="#000000" stroke="none">
<path d="M451 920 c-10 0 -52 -35 -93 -78 -41 -44 -92 -107 -112 -142 -20 -34
-36 -70 -34 -79 2 -9 15 -17 29 -19 20 -2 32 7 62 51 20 29 50 68 65 85 16 18
32 32 37 32 4 0 4 -26 0 -57 -4 -32 -9 -65 -10 -75 -2 -10 -4 -42 -5 -71 0
-28 0 -60 1 -69 2 -11 11 -18 24 -18 12 0 37 10 56 23 19 12 52 49 74 81 40
58 40 58 46 15 4 -24 2 -50 -3 -56 -7 -9 -5 -15 7 -20 11 -4 35 3 61 17 24 12
56 39 71 59 15 20 54 64 87 99 32 34 65 62 72 62 9 0 12 -23 11 -90 -1 -50 1
-90 6 -90 4 0 7 -11 7 -24 0 -13 3 -38 6 -56 4 -17 13 -34 21 -37 8 -3 25 0
37 7 23 12 23 12 18 193 -2 100 -8 192 -13 205 -5 12 -16 22 -25 22 -9 0 -32
-7 -51 -17 -19 -9 -73 -52 -119 -96 -84 -79 -84 -79 -84 -30 0 36 -5 55 -18
66 -10 10 -25 17 -32 17 -7 0 -40 -27 -72 -61 -32 -34 -65 -73 -73 -88 -12
-23 -13 -14 -8 89 5 101 4 118 -11 133 -10 9 -26 17 -35 17z"/>
</g>
</svg>
