<?xml version="1.0" standalone="no"?>
<!DOCTYPE svg PUBLIC "-//W3C//DTD SVG 20010904//EN"
 "http://www.w3.org/TR/2001/REC-SVG-20010904/DTD/svg10.dtd">
<svg version="1.0" xmlns="http://www.w3.org/2000/svg"
 width="153.000000pt" height="167.000000pt" viewBox="0 0 153.000000 167.000000"
 preserveAspectRatio="xMidYMid meet">
<metadata>
Created by potrace 1.16, written by Peter Selinger 2001-2019
</metadata>
<g transform="translate(0.000000,167.000000) scale(0.100000,-0.100000)"
fill="#000000" stroke="none">
<path d="M879 1400 c-11 0 -21 -6 -24 -12 -2 -7 -7 -31 -12 -53 -7 -30 -14
-41 -30 -43 -19 -3 -22 2 -25 45 -2 33 -7 48 -17 48 -8 0 -18 -11 -22 -25 -4
-14 -15 -41 -26 -62 -11 -23 -41 -51 -79 -77 -38 -26 -68 -54 -78 -75 -9 -19
-16 -56 -16 -84 0 -37 9 -68 36 -121 36 -72 36 -72 -4 -229 -23 -86 -44 -182
-47 -213 -4 -31 -11 -62 -15 -69 -7 -11 -14 -11 -41 0 -18 8 -48 27 -66 43
-19 17 -40 45 -48 63 -8 19 -18 34 -23 34 -5 0 -15 -6 -21 -14 -8 -9 -8 -22
-2 -37 5 -14 28 -43 51 -66 23 -23 66 -54 96 -69 45 -22 53 -30 49 -48 -3 -11
-9 -41 -15 -66 -5 -25 -10 -51 -10 -57 0 -7 11 -13 25 -13 18 0 31 9 43 30 15
28 20 30 54 25 32 -6 39 -3 53 19 10 14 15 33 11 41 -4 10 2 19 17 24 12 5 43
15 69 21 26 7 64 27 83 44 25 21 39 44 46 73 5 26 5 68 0 108 -6 37 -20 84
-34 108 -14 24 -41 60 -61 82 -20 21 -36 41 -36 44 0 3 13 46 29 95 16 50 39
125 51 166 12 41 27 93 34 114 7 22 20 44 29 50 12 8 21 5 37 -9 14 -13 24
-15 31 -8 6 6 9 21 7 34 -2 17 -13 26 -36 33 -31 8 -33 12 -28 39 3 16 1 37
-4 48 -6 10 -20 19 -31 19z m-76 -160 c4 0 7 -12 7 -26 0 -14 -12 -71 -26
-127 -14 -56 -33 -127 -43 -157 -11 -32 -24 -55 -32 -55 -10 0 -14 12 -13 40
0 22 9 74 21 115 11 41 26 101 32 132 7 33 20 62 29 68 9 5 20 10 25 10z
m-120 -60 c5 0 6 -15 2 -32 -4 -18 -14 -64 -22 -101 -9 -41 -19 -67 -26 -64
-6 2 -15 21 -20 43 -4 21 -6 52 -2 69 3 16 17 42 32 57 15 15 31 28 36 28z
m-9 -373 c6 -2 12 -14 14 -26 2 -12 -12 -68 -32 -124 -19 -56 -41 -122 -47
-147 -8 -28 -14 -38 -17 -27 -2 10 1 49 8 85 6 37 23 107 37 155 15 49 31 86
37 84z m71 -77 c8 0 25 -15 38 -32 13 -18 32 -55 41 -82 9 -27 16 -65 16 -83
0 -19 -7 -47 -15 -63 -9 -17 -32 -38 -53 -48 -20 -11 -56 -22 -79 -26 -23 -3
-44 -2 -47 3 -4 5 1 40 9 78 9 37 30 110 46 161 19 56 36 92 44 92z"/>
</g>
</svg>
