<?xml version="1.0" standalone="no"?>
<!DOCTYPE svg PUBLIC "-//W3C//DTD SVG 20010904//EN"
 "http://www.w3.org/TR/2001/REC-SVG-20010904/DTD/svg10.dtd">
<svg version="1.0" xmlns="http://www.w3.org/2000/svg"
 width="153.000000pt" height="168.000000pt" viewBox="0 0 153.000000 168.000000"
 preserveAspectRatio="xMidYMid meet">
<metadata>
Created by potrace 1.16, written by Peter Selinger 2001-2019
</metadata>
<g transform="translate(0.000000,168.000000) scale(0.100000,-0.100000)"
fill="#000000" stroke="none">
<path d="M693 1250 c-4 0 -22 -9 -39 -19 -18 -11 -48 -41 -68 -67 -20 -26 -43
-70 -51 -97 -8 -28 -15 -64 -15 -79 0 -17 10 -39 25 -53 17 -18 35 -25 63 -25
28 0 52 9 83 31 24 17 55 43 68 58 13 14 35 49 48 78 13 29 25 65 26 80 2 22
-2 28 -18 28 -12 0 -22 -9 -27 -25 -4 -14 -10 -38 -13 -54 -4 -17 -32 -55 -70
-92 -42 -43 -71 -64 -87 -64 -13 0 -29 5 -36 12 -7 7 -12 23 -12 38 0 14 13
52 29 85 15 33 40 71 55 84 14 14 29 21 33 17 4 -4 2 -16 -5 -26 -7 -11 -12
-24 -12 -30 0 -5 7 -10 15 -10 9 0 27 11 40 25 14 13 25 31 25 40 0 9 -11 27
-25 40 -13 14 -28 25 -32 25z M1066 1250 c-8 0 -20 -7 -27 -16 -8 -9 -63 -92
-124 -184 -60 -92 -144 -218 -186 -281 -42 -63 -107 -167 -144 -232 -37 -65
-65 -124 -61 -132 3 -8 12 -15 21 -15 9 0 27 11 40 25 14 13 25 36 25 50 0 14
9 44 21 66 11 22 47 85 79 139 33 55 82 130 108 167 27 38 99 142 160 232 61
90 109 168 106 173 -3 4 -11 8 -18 8z M1132 700 c-14 0 -17 -10 -17 -67 -1
-53 -6 -79 -27 -118 -14 -28 -38 -62 -53 -78 -17 -17 -38 -27 -56 -27 -22 0
-32 7 -45 32 -12 22 -15 48 -12 91 4 50 9 64 32 84 15 12 35 23 45 23 11 0 21
-6 24 -13 3 -7 3 -25 0 -40 -4 -22 -2 -27 15 -27 12 0 23 9 27 20 4 11 4 34 0
50 -4 19 -17 36 -34 44 -14 8 -40 12 -56 9 -17 -3 -41 -15 -54 -27 -13 -11
-30 -35 -37 -53 -8 -18 -14 -57 -14 -88 0 -31 7 -69 14 -84 8 -15 26 -35 40
-45 14 -9 41 -16 61 -16 26 0 45 9 74 35 21 19 50 61 65 94 14 32 29 79 32
104 4 25 4 57 0 71 -4 16 -13 26 -24 26z"/>
</g>
</svg>
