<?xml version="1.0" standalone="no"?>
<!DOCTYPE svg PUBLIC "-//W3C//DTD SVG 20010904//EN"
 "http://www.w3.org/TR/2001/REC-SVG-20010904/DTD/svg10.dtd">
<svg version="1.0" xmlns="http://www.w3.org/2000/svg"
 width="153.000000pt" height="166.000000pt" viewBox="0 0 153.000000 166.000000"
 preserveAspectRatio="xMidYMid meet">
<metadata>
Created by potrace 1.16, written by Peter Selinger 2001-2019
</metadata>
<g transform="translate(0.000000,166.000000) scale(0.100000,-0.100000)"
fill="#000000" stroke="none">
<path d="M666 1130 c-9 0 -19 -8 -22 -17 -3 -10 -10 -28 -15 -41 -6 -15 -6
-30 0 -40 8 -13 25 -17 80 -18 71 0 71 0 71 41 0 22 -5 46 -11 52 -8 8 -19 9
-37 2 -21 -8 -29 -7 -38 5 -6 9 -19 16 -28 16z M668 880 c-25 0 -46 -8 -68
-26 -17 -15 -39 -43 -50 -64 -10 -20 -24 -66 -31 -102 -7 -36 -9 -77 -5 -91 3
-15 19 -33 36 -42 16 -8 40 -15 54 -15 14 0 37 5 53 11 15 5 47 26 70 45 24
20 54 57 68 84 21 41 29 48 62 52 21 3 55 13 76 21 26 11 37 22 37 36 0 13 -7
21 -16 21 -9 0 -35 -5 -57 -12 -35 -11 -41 -10 -53 6 -7 11 -15 24 -17 30 -2
6 -16 10 -30 8 -15 -1 -42 7 -59 18 -18 11 -50 20 -70 20z m7 -50 c7 0 18 -7
25 -15 10 -12 10 -21 0 -46 -11 -25 -11 -32 0 -39 6 -4 21 -5 31 -3 12 3 19 0
19 -8 0 -7 -12 -30 -26 -51 -15 -20 -46 -47 -70 -59 -25 -11 -51 -18 -59 -15
-8 3 -18 17 -21 33 -5 18 1 50 16 96 14 41 33 76 48 88 14 10 30 19 37 19z"/>
</g>
</svg>
