<?xml version="1.0" standalone="no"?>
<!DOCTYPE svg PUBLIC "-//W3C//DTD SVG 20010904//EN"
 "http://www.w3.org/TR/2001/REC-SVG-20010904/DTD/svg10.dtd">
<svg version="1.0" xmlns="http://www.w3.org/2000/svg"
 width="157.000000pt" height="172.000000pt" viewBox="0 0 157.000000 172.000000"
 preserveAspectRatio="xMidYMid meet">
<metadata>
Created by potrace 1.16, written by Peter Selinger 2001-2019
</metadata>
<g transform="translate(0.000000,172.000000) scale(0.100000,-0.100000)"
fill="#000000" stroke="none">
<path d="M935 1314 c-16 5 -32 -6 -67 -42 -29 -29 -58 -75 -79 -122 -18 -41
-48 -131 -66 -200 -26 -95 -35 -150 -37 -230 -2 -58 -7 -112 -10 -121 -4 -8
-20 -23 -37 -33 -17 -10 -46 -32 -65 -48 -19 -17 -34 -38 -34 -48 0 -11 24
-36 62 -62 33 -24 69 -54 80 -68 10 -14 22 -47 27 -74 5 -26 16 -55 24 -64 14
-14 18 -13 41 2 18 11 26 25 26 45 0 16 -7 46 -16 67 -10 23 -19 81 -22 141
-4 79 -2 106 9 119 8 9 30 27 50 40 20 12 65 35 100 49 35 15 67 32 71 38 4 6
4 15 2 19 -3 4 -13 8 -23 8 -10 0 -45 -11 -77 -25 -33 -14 -72 -32 -87 -41
-15 -9 -35 -13 -44 -10 -12 5 -14 15 -9 47 5 32 21 57 66 106 41 45 68 87 90
140 17 41 40 109 51 150 10 42 19 99 19 128 0 28 -6 58 -12 67 -7 9 -22 19
-33 22z m-17 -106 c2 -15 -6 -63 -18 -105 -12 -43 -38 -114 -59 -159 -21 -45
-44 -85 -50 -89 -7 -4 -15 -4 -18 -1 -4 3 1 41 10 84 9 42 31 111 48 152 17
41 43 91 58 110 l26 35 3 -27z m-240 -698 c7 0 12 -14 12 -35 0 -19 -5 -35
-11 -35 -6 0 -19 5 -30 10 -10 6 -19 17 -19 25 0 8 8 19 18 24 9 6 23 11 30
11z"/>
</g>
</svg>
