<?xml version="1.0" standalone="no"?>
<!DOCTYPE svg PUBLIC "-//W3C//DTD SVG 20010904//EN"
 "http://www.w3.org/TR/2001/REC-SVG-20010904/DTD/svg10.dtd">
<svg version="1.0" xmlns="http://www.w3.org/2000/svg"
 width="157.000000pt" height="172.000000pt" viewBox="0 0 157.000000 172.000000"
 preserveAspectRatio="xMidYMid meet">
<metadata>
Created by potrace 1.16, written by Peter Selinger 2001-2019
</metadata>
<g transform="translate(0.000000,172.000000) scale(0.100000,-0.100000)"
fill="#000000" stroke="none">
<path d="M967 1280 c-8 0 -40 -29 -69 -65 -30 -35 -82 -120 -117 -187 -35 -68
-84 -172 -109 -233 -36 -88 -46 -125 -50 -187 -2 -42 -2 -88 2 -101 3 -13 18
-36 33 -51 15 -15 43 -34 63 -43 23 -9 56 -13 95 -11 45 3 81 14 145 46 47 23
117 64 155 91 39 27 78 57 88 67 9 10 17 24 17 31 0 8 -7 16 -16 20 -9 3 -24
1 -33 -5 -9 -6 -61 -39 -116 -74 -55 -34 -127 -73 -159 -86 -48 -19 -71 -23
-114 -19 -29 3 -60 11 -68 18 -7 6 -19 29 -25 49 -9 29 -9 50 0 87 7 26 19 62
27 79 11 22 26 34 53 43 24 7 58 31 89 64 28 28 59 63 70 77 11 14 28 43 39
65 11 22 28 65 37 97 9 31 16 87 16 125 0 55 -4 73 -18 86 -10 10 -26 17 -35
17z m-29 -161 c2 -12 -4 -44 -13 -72 -9 -28 -32 -74 -50 -102 -19 -27 -47 -63
-64 -79 -17 -17 -31 -24 -31 -18 0 7 18 49 41 95 23 45 57 108 77 139 30 46
38 54 40 37z"/>
</g>
</svg>
