<?xml version="1.0" standalone="no"?>
<!DOCTYPE svg PUBLIC "-//W3C//DTD SVG 20010904//EN"
 "http://www.w3.org/TR/2001/REC-SVG-20010904/DTD/svg10.dtd">
<svg version="1.0" xmlns="http://www.w3.org/2000/svg"
 width="154.000000pt" height="168.000000pt" viewBox="0 0 154.000000 168.000000"
 preserveAspectRatio="xMidYMid meet">
<metadata>
Created by potrace 1.16, written by Peter Selinger 2001-2019
</metadata>
<g transform="translate(0.000000,168.000000) scale(0.100000,-0.100000)"
fill="#000000" stroke="none">
<path d="M706 1360 c-34 -1 -77 -7 -97 -14 -20 -7 -53 -23 -72 -35 -20 -12
-48 -36 -62 -52 -14 -18 -25 -43 -25 -60 0 -19 5 -29 14 -29 8 0 23 14 33 30
10 17 33 41 53 55 19 13 55 31 79 40 24 8 59 15 77 15 32 0 34 -2 34 -32 0
-18 -11 -55 -24 -83 -13 -27 -49 -81 -80 -120 -31 -38 -68 -86 -84 -105 -16
-19 -45 -59 -65 -87 -20 -29 -37 -65 -37 -79 0 -16 13 -39 33 -59 22 -22 54
-39 92 -50 42 -13 82 -16 146 -13 52 2 94 9 103 17 9 8 16 19 16 25 0 7 -37
11 -117 11 -100 0 -124 3 -158 21 -22 12 -42 29 -43 38 -2 10 -1 28 2 41 3 13
56 86 117 162 61 76 122 161 136 188 15 28 26 68 27 91 1 28 -5 49 -18 63 -16
17 -30 21 -80 21z M667 459 c-12 0 -28 -3 -34 -6 -7 -2 -13 -15 -13 -28 0 -14
9 -33 21 -44 12 -11 34 -25 50 -31 23 -10 32 -10 44 0 8 7 15 23 15 35 0 14
-13 34 -31 49 -17 14 -40 26 -52 25z"/>
</g>
</svg>
