<?xml version="1.0" standalone="no"?>
<!DOCTYPE svg PUBLIC "-//W3C//DTD SVG 20010904//EN"
 "http://www.w3.org/TR/2001/REC-SVG-20010904/DTD/svg10.dtd">
<svg version="1.0" xmlns="http://www.w3.org/2000/svg"
 width="166.000000pt" height="180.000000pt" viewBox="0 0 166.000000 180.000000"
 preserveAspectRatio="xMidYMid meet">
<metadata>
Created by potrace 1.16, written by Peter Selinger 2001-2019
</metadata>
<g transform="translate(0.000000,180.000000) scale(0.100000,-0.100000)"
fill="#000000" stroke="none">
<path d="M707 1430 c-37 0 -47 -6 -98 -59 -47 -48 -61 -71 -78 -126 -12 -37
-24 -86 -27 -109 -4 -23 -13 -51 -20 -63 -9 -14 -24 -23 -38 -23 -14 0 -26 5
-28 12 -2 6 -10 8 -16 4 -7 -4 -12 -15 -12 -25 0 -9 5 -22 12 -29 7 -7 27 -12
46 -12 33 0 34 -1 29 -32 -3 -18 -9 -59 -13 -91 -4 -41 -12 -60 -25 -67 -10
-6 -33 -10 -53 -10 -19 0 -41 -3 -50 -6 -9 -3 -16 -14 -16 -23 0 -10 9 -35 19
-57 11 -22 26 -78 35 -125 8 -46 18 -128 21 -183 4 -54 13 -113 21 -132 8 -18
22 -38 32 -43 10 -5 24 -6 31 -2 9 6 13 70 16 260 2 138 7 256 10 261 3 5 36
29 73 53 37 24 90 63 117 86 28 24 82 74 122 112 39 38 74 69 76 69 3 0 5 -52
4 -116 l-2 -115 32 -29 c18 -16 50 -34 72 -40 28 -7 54 -7 92 1 30 6 72 23 94
37 22 14 45 32 52 41 6 9 9 19 7 23 -3 5 -18 8 -34 8 -16 0 -48 -10 -71 -22
-23 -12 -66 -24 -96 -26 -46 -4 -58 -1 -77 17 -13 13 -26 36 -30 52 -3 16 1
66 10 110 8 45 30 111 48 147 18 37 51 100 74 141 23 41 42 79 42 86 0 6 -8
19 -19 29 -10 9 -25 14 -33 11 -8 -3 -20 -22 -27 -43 -8 -20 -29 -63 -48 -94
-19 -31 -63 -93 -98 -136 -35 -44 -108 -119 -162 -167 -54 -48 -121 -99 -150
-113 -29 -14 -54 -24 -57 -21 -2 2 2 42 10 89 7 47 14 85 14 85 0 0 27 20 60
44 33 24 78 68 101 99 23 30 50 76 59 101 10 25 20 60 23 78 5 23 1 38 -14 57
-16 20 -29 26 -62 26z m8 -53 c5 -2 11 -13 13 -24 2 -11 -8 -46 -22 -77 -14
-31 -48 -81 -77 -111 -29 -30 -58 -55 -65 -55 -8 0 -14 3 -14 6 0 3 7 31 16
62 9 32 27 78 40 104 14 27 40 58 61 73 21 14 42 24 48 22z m-281 -647 c8 0
16 -16 19 -38 4 -20 3 -51 -2 -67 l-8 -30 -12 45 c-7 25 -14 51 -17 58 -2 8
-2 18 2 23 3 5 11 9 18 9z"/>
</g>
</svg>
