<?xml version="1.0" standalone="no"?>
<!DOCTYPE svg PUBLIC "-//W3C//DTD SVG 20010904//EN"
 "http://www.w3.org/TR/2001/REC-SVG-20010904/DTD/svg10.dtd">
<svg version="1.0" xmlns="http://www.w3.org/2000/svg"
 width="152.000000pt" height="167.000000pt" viewBox="0 0 152.000000 167.000000"
 preserveAspectRatio="xMidYMid meet">
<metadata>
Created by potrace 1.16, written by Peter Selinger 2001-2019
</metadata>
<g transform="translate(0.000000,167.000000) scale(0.100000,-0.100000)"
fill="#000000" stroke="none">
<path d="M918 1569 c-2 -1 -20 -5 -40 -10 -21 -5 -56 -20 -78 -34 -22 -14 -56
-47 -75 -73 -19 -26 -44 -75 -55 -110 -11 -34 -22 -91 -26 -126 -4 -42 -1 -99
11 -168 9 -57 15 -115 13 -128 -2 -17 -13 -28 -38 -36 -19 -7 -66 -21 -105
-32 -62 -17 -70 -22 -73 -46 -3 -21 1 -26 18 -26 12 0 45 6 73 14 29 8 68 17
89 19 21 3 43 0 53 -7 13 -9 17 -26 16 -67 0 -30 -5 -70 -11 -89 -5 -19 -13
-105 -16 -190 -6 -147 -6 -158 16 -208 12 -29 36 -63 52 -77 16 -13 45 -29 66
-35 20 -5 71 -10 112 -10 41 0 97 7 124 15 28 8 60 22 73 30 13 9 23 22 23 29
0 8 -6 16 -12 18 -7 3 -37 -6 -67 -20 -46 -21 -64 -24 -130 -20 -42 2 -89 11
-106 19 -16 8 -43 34 -59 59 -30 45 -31 46 -28 164 1 66 12 164 23 224 11 59
18 119 15 135 -3 16 -15 41 -26 57 -16 22 -19 37 -14 73 4 28 0 74 -11 123
-13 57 -16 106 -13 174 4 76 10 108 30 151 15 30 43 71 63 92 21 21 49 43 62
48 14 5 29 7 34 3 5 -3 9 -11 9 -19 0 -8 5 -17 10 -20 6 -4 17 -1 25 5 8 7 15
27 15 46 0 23 -6 37 -19 44 -11 5 -21 10 -23 9z"/>
</g>
</svg>
