<?xml version="1.0" standalone="no"?>
<!DOCTYPE svg PUBLIC "-//W3C//DTD SVG 20010904//EN"
 "http://www.w3.org/TR/2001/REC-SVG-20010904/DTD/svg10.dtd">
<svg version="1.0" xmlns="http://www.w3.org/2000/svg"
 width="156.000000pt" height="173.000000pt" viewBox="0 0 156.000000 173.000000"
 preserveAspectRatio="xMidYMid meet">
<metadata>
Created by potrace 1.16, written by Peter Selinger 2001-2019
</metadata>
<g transform="translate(0.000000,173.000000) scale(0.100000,-0.100000)"
fill="#000000" stroke="none">
<path d="M774 900 c-29 0 -74 -11 -108 -25 -33 -13 -84 -41 -114 -61 -29 -21
-69 -56 -89 -78 -19 -23 -42 -55 -50 -72 -9 -19 -13 -42 -9 -57 3 -14 18 -40
32 -57 15 -17 45 -41 68 -52 33 -18 63 -23 155 -26 92 -3 136 0 223 18 59 13
122 31 139 42 17 10 29 24 26 31 -2 7 -20 12 -43 11 -21 -1 -83 -11 -137 -23
-61 -13 -134 -21 -190 -21 -68 0 -101 5 -126 18 -19 9 -43 29 -54 44 -13 18
-18 34 -13 51 3 14 29 50 56 80 39 43 67 62 125 86 40 17 90 31 109 31 20 0
36 -3 36 -7 0 -4 -9 -17 -21 -29 -12 -12 -18 -27 -14 -33 3 -6 17 -11 31 -11
13 0 24 3 24 8 0 4 16 16 35 26 23 13 35 26 35 41 0 14 -12 28 -39 43 -25 14
-56 22 -87 22z"/>
</g>
</svg>
