<?xml version="1.0" standalone="no"?>
<!DOCTYPE svg PUBLIC "-//W3C//DTD SVG 20010904//EN"
 "http://www.w3.org/TR/2001/REC-SVG-20010904/DTD/svg10.dtd">
<svg version="1.0" xmlns="http://www.w3.org/2000/svg"
 width="165.000000pt" height="180.000000pt" viewBox="0 0 165.000000 180.000000"
 preserveAspectRatio="xMidYMid meet">
<metadata>
Created by potrace 1.16, written by Peter Selinger 2001-2019
</metadata>
<g transform="translate(0.000000,180.000000) scale(0.100000,-0.100000)"
fill="#000000" stroke="none">
<path d="M1059 1354 c-8 7 -21 11 -29 9 -8 -3 -33 -26 -55 -53 -23 -28 -52
-81 -67 -124 -15 -42 -37 -120 -48 -175 -11 -54 -20 -122 -20 -150 0 -28 -3
-51 -7 -51 -5 1 -19 7 -33 15 -14 8 -45 14 -70 14 -25 1 -64 -8 -87 -18 -24
-12 -55 -37 -73 -63 -18 -24 -40 -60 -51 -80 -11 -22 -19 -58 -19 -86 0 -35 6
-57 21 -76 11 -14 34 -33 49 -41 16 -8 53 -15 82 -15 35 0 71 8 104 24 32 15
68 44 99 79 l47 55 47 -20 c36 -17 68 -21 146 -22 81 -1 106 3 128 17 15 10
25 22 21 28 -4 7 -37 8 -93 4 -54 -5 -102 -3 -128 4 -22 6 -52 20 -64 30 l-23
19 28 78 c15 44 32 93 36 109 5 17 16 59 24 94 9 35 23 102 31 149 9 47 16
119 17 160 1 52 -3 77 -13 86z m-48 -94 c5 0 9 -19 8 -42 0 -24 -6 -74 -13
-113 -7 -38 -27 -119 -44 -180 -17 -60 -36 -123 -42 -139 -8 -22 -14 -26 -22
-18 -8 8 -8 39 0 120 7 59 21 142 33 183 11 40 32 100 46 132 14 31 30 57 34
57z m-289 -470 c14 0 34 -3 43 -6 8 -4 22 -19 30 -34 11 -22 13 -40 5 -78 -5
-27 -7 -58 -4 -68 3 -13 -4 -29 -20 -45 -14 -14 -43 -31 -64 -37 -22 -7 -53
-12 -70 -12 -21 0 -38 9 -56 31 -16 19 -26 43 -26 62 0 18 14 54 30 82 16 27
46 62 67 77 21 15 50 27 65 28z"/>
</g>
</svg>
