<?xml version="1.0" standalone="no"?>
<!DOCTYPE svg PUBLIC "-//W3C//DTD SVG 20010904//EN"
 "http://www.w3.org/TR/2001/REC-SVG-20010904/DTD/svg10.dtd">
<svg version="1.0" xmlns="http://www.w3.org/2000/svg"
 width="157.000000pt" height="173.000000pt" viewBox="0 0 157.000000 173.000000"
 preserveAspectRatio="xMidYMid meet">
<metadata>
Created by potrace 1.16, written by Peter Selinger 2001-2019
</metadata>
<g transform="translate(0.000000,173.000000) scale(0.100000,-0.100000)"
fill="#000000" stroke="none">
<path d="M819 1150 c-14 0 -29 -3 -32 -7 -4 -3 -7 -23 -7 -44 0 -32 6 -42 40
-69 23 -18 47 -29 55 -26 9 3 15 19 15 41 0 20 -10 51 -22 70 -17 25 -30 35
-49 35z M805 910 c-20 0 -30 -11 -54 -58 -16 -32 -39 -90 -51 -130 -14 -47
-20 -84 -16 -106 4 -18 14 -40 24 -48 9 -9 27 -21 40 -27 19 -10 34 -9 79 5
40 13 71 32 114 73 37 36 59 65 59 79 0 17 -6 22 -24 22 -14 0 -44 -18 -72
-43 -27 -24 -64 -49 -83 -55 -19 -7 -36 -12 -39 -12 -3 0 -2 21 2 48 3 26 18
81 32 123 17 50 24 86 20 103 -5 19 -13 26 -31 26z"/>
</g>
</svg>
