<?xml version="1.0" standalone="no"?>
<!DOCTYPE svg PUBLIC "-//W3C//DTD SVG 20010904//EN"
 "http://www.w3.org/TR/2001/REC-SVG-20010904/DTD/svg10.dtd">
<svg version="1.0" xmlns="http://www.w3.org/2000/svg"
 width="158.000000pt" height="171.000000pt" viewBox="0 0 158.000000 171.000000"
 preserveAspectRatio="xMidYMid meet">
<metadata>
Created by potrace 1.16, written by Peter Selinger 2001-2019
</metadata>
<g transform="translate(0.000000,171.000000) scale(0.100000,-0.100000)"
fill="#000000" stroke="none">
<path d="M1075 1186 c-5 1 -19 -1 -30 -6 -11 -4 -46 -33 -77 -65 -31 -31 -84
-97 -118 -146 -34 -49 -70 -110 -82 -137 -11 -26 -35 -80 -54 -119 -18 -40
-37 -73 -42 -73 -5 0 -20 24 -35 53 -14 29 -37 93 -50 142 -14 50 -35 135 -47
190 -13 55 -29 110 -36 123 -8 12 -23 22 -33 22 -10 0 -24 -6 -30 -14 -9 -10
-8 -24 3 -57 7 -24 21 -66 29 -94 9 -27 23 -79 32 -115 9 -36 27 -100 40 -142
14 -43 38 -104 54 -135 16 -32 38 -67 50 -77 17 -15 26 -17 44 -9 14 7 35 35
52 70 15 32 45 100 66 151 20 51 47 107 58 125 11 18 32 54 46 80 14 27 60 83
101 125 41 41 73 82 72 90 -2 9 -7 17 -13 18z"/>
</g>
</svg>
