<?xml version="1.0" standalone="no"?>
<!DOCTYPE svg PUBLIC "-//W3C//DTD SVG 20010904//EN"
 "http://www.w3.org/TR/2001/REC-SVG-20010904/DTD/svg10.dtd">
<svg version="1.0" xmlns="http://www.w3.org/2000/svg"
 width="155.000000pt" height="171.000000pt" viewBox="0 0 155.000000 171.000000"
 preserveAspectRatio="xMidYMid meet">
<metadata>
Created by potrace 1.16, written by Peter Selinger 2001-2019
</metadata>
<g transform="translate(0.000000,171.000000) scale(0.100000,-0.100000)"
fill="#000000" stroke="none">
<path d="M723 1379 c-26 0 -67 -6 -90 -14 -23 -7 -62 -24 -87 -39 -24 -14 -61
-45 -81 -68 -23 -27 -43 -68 -57 -111 -17 -58 -20 -86 -15 -170 3 -56 12 -125
21 -154 11 -33 35 -74 69 -112 28 -34 58 -61 65 -61 6 0 13 3 13 8 1 4 3 53 4
109 1 57 3 105 6 107 2 3 41 6 86 7 l81 3 152 -148 c84 -81 169 -159 190 -172
22 -14 44 -23 49 -19 6 3 11 14 11 23 0 9 -22 33 -47 52 -26 19 -102 89 -170
156 -68 66 -123 127 -123 135 0 8 22 33 50 57 38 33 53 54 65 94 8 28 15 64
15 80 0 16 -9 53 -19 83 -11 30 -29 68 -41 85 -12 17 -39 39 -60 50 -24 12
-58 20 -87 19z m3 -49 c47 0 55 -4 93 -41 22 -23 45 -57 51 -77 5 -21 10 -50
10 -66 0 -16 -5 -46 -12 -67 -6 -22 -26 -55 -45 -74 -18 -19 -42 -39 -53 -45
-16 -8 -27 -2 -68 40 -30 30 -62 52 -81 56 l-31 7 0 114 0 114 43 19 c23 11
64 20 93 20z m-195 -80 c7 0 9 -34 5 -102 -3 -57 -8 -155 -11 -218 -3 -63 -8
-121 -11 -129 -4 -11 -8 -10 -24 4 -10 9 -24 40 -29 69 -6 28 -13 78 -17 111
-4 40 -1 79 9 118 8 31 27 77 41 102 15 25 32 45 37 45z m75 -250 c7 0 26 -12
43 -26 17 -14 31 -32 31 -40 0 -9 -11 -14 -31 -14 -17 0 -39 5 -50 10 -10 6
-19 21 -19 34 0 12 3 26 7 29 3 4 12 7 19 7z"/>
</g>
</svg>
