<?xml version="1.0" standalone="no"?>
<!DOCTYPE svg PUBLIC "-//W3C//DTD SVG 20010904//EN"
 "http://www.w3.org/TR/2001/REC-SVG-20010904/DTD/svg10.dtd">
<svg version="1.0" xmlns="http://www.w3.org/2000/svg"
 width="157.000000pt" height="174.000000pt" viewBox="0 0 157.000000 174.000000"
 preserveAspectRatio="xMidYMid meet">
<metadata>
Created by potrace 1.16, written by Peter Selinger 2001-2019
</metadata>
<g transform="translate(0.000000,174.000000) scale(0.100000,-0.100000)"
fill="#000000" stroke="none">
<path d="M571 1240 c-4 0 -11 -3 -14 -7 -4 -3 -7 -31 -7 -62 0 -31 -5 -94 -10
-141 -5 -47 -16 -141 -25 -210 -8 -69 -15 -164 -15 -211 0 -55 5 -92 13 -103
7 -10 22 -17 32 -15 12 3 44 45 82 109 35 58 83 122 106 143 23 21 55 45 71
53 24 13 31 14 42 2 8 -8 23 -59 33 -113 11 -55 25 -112 32 -127 7 -16 18 -28
26 -28 7 0 16 7 20 16 3 9 -2 58 -11 109 -9 52 -23 113 -32 136 -8 24 -22 51
-31 61 -9 10 -28 18 -43 18 -16 0 -54 -18 -87 -40 -32 -21 -77 -61 -99 -87
-22 -26 -51 -67 -64 -90 -13 -24 -28 -43 -33 -43 -6 0 -7 28 -3 68 4 37 16
137 26 222 10 85 22 185 26 222 5 54 3 73 -10 93 -9 14 -20 25 -25 25z"/>
</g>
</svg>
