<?xml version="1.0" standalone="no"?>
<!DOCTYPE svg PUBLIC "-//W3C//DTD SVG 20010904//EN"
 "http://www.w3.org/TR/2001/REC-SVG-20010904/DTD/svg10.dtd">
<svg version="1.0" xmlns="http://www.w3.org/2000/svg"
 width="155.000000pt" height="170.000000pt" viewBox="0 0 155.000000 170.000000"
 preserveAspectRatio="xMidYMid meet">
<metadata>
Created by potrace 1.16, written by Peter Selinger 2001-2019
</metadata>
<g transform="translate(0.000000,170.000000) scale(0.100000,-0.100000)"
fill="#000000" stroke="none">
<path d="M510 1330 c-12 0 -20 -7 -20 -16 0 -9 14 -42 31 -74 17 -32 68 -98
113 -147 44 -48 99 -110 120 -136 38 -47 39 -49 27 -85 -7 -20 -60 -133 -118
-249 -57 -117 -103 -221 -101 -230 2 -10 11 -19 22 -21 10 -2 29 7 43 20 18
16 23 30 19 48 -3 18 30 97 121 290 70 146 137 282 150 303 13 21 42 79 64
129 22 50 39 103 37 117 -2 20 -9 26 -26 26 -21 0 -29 -14 -68 -115 -24 -63
-53 -134 -64 -157 -12 -27 -26 -43 -37 -43 -10 0 -55 39 -101 88 -46 48 -96
103 -111 122 -15 19 -40 56 -55 83 -17 31 -34 47 -46 47z"/>
</g>
</svg>
