<?xml version="1.0" standalone="no"?>
<!DOCTYPE svg PUBLIC "-//W3C//DTD SVG 20010904//EN"
 "http://www.w3.org/TR/2001/REC-SVG-20010904/DTD/svg10.dtd">
<svg version="1.0" xmlns="http://www.w3.org/2000/svg"
 width="153.000000pt" height="167.000000pt" viewBox="0 0 153.000000 167.000000"
 preserveAspectRatio="xMidYMid meet">
<metadata>
Created by potrace 1.16, written by Peter Selinger 2001-2019
</metadata>
<g transform="translate(0.000000,167.000000) scale(0.100000,-0.100000)"
fill="#000000" stroke="none">
<path d="M1074 1248 c-11 2 -27 -5 -35 -15 -9 -10 -42 -58 -74 -108 -32 -49
-84 -128 -115 -175 -31 -47 -79 -116 -106 -155 -27 -38 -76 -115 -108 -170
-33 -55 -67 -114 -77 -130 -10 -17 -25 -44 -33 -59 -10 -21 -12 -35 -5 -48 5
-10 16 -18 23 -18 7 0 25 9 38 20 17 13 28 34 32 61 4 23 22 68 41 101 19 32
35 61 35 63 0 3 17 31 37 62 20 32 110 164 199 294 89 130 164 244 166 255 2
13 -4 20 -18 22z M691 1240 c-28 0 -43 -9 -79 -46 -24 -26 -55 -70 -68 -98
-16 -35 -24 -69 -24 -109 0 -54 2 -58 33 -77 17 -11 42 -20 55 -20 13 0 37 7
54 16 17 9 53 37 80 61 26 25 56 64 67 87 10 22 26 58 34 78 14 32 14 38 1 49
-11 9 -21 9 -39 1 -18 -8 -25 -22 -30 -55 -5 -30 -19 -60 -43 -89 -21 -25 -55
-57 -76 -71 -30 -19 -44 -23 -58 -16 -12 6 -18 21 -18 42 0 18 11 56 25 83 14
28 37 61 52 75 23 21 25 22 18 4 -4 -11 -10 -28 -12 -37 -4 -13 0 -18 14 -18
11 0 32 9 46 20 14 11 29 29 32 40 4 11 -1 33 -12 50 -14 24 -24 30 -52 30z
M1133 698 c-20 3 -22 0 -20 -60 1 -49 -4 -75 -25 -120 -15 -32 -38 -69 -52
-83 -14 -14 -36 -25 -50 -25 -16 0 -32 9 -42 25 -12 19 -15 41 -12 85 3 39 11
66 23 80 10 11 29 20 42 20 22 0 24 -4 21 -37 -2 -28 1 -38 13 -41 9 -2 24 5
34 14 12 13 15 27 11 52 -3 19 -13 43 -22 53 -12 13 -31 19 -60 19 -34 0 -51
-7 -77 -30 -23 -20 -38 -45 -46 -74 -6 -25 -11 -61 -11 -81 0 -20 6 -48 14
-63 8 -15 25 -37 38 -48 12 -12 37 -25 55 -29 20 -4 42 -1 60 8 15 9 40 28 54
44 15 15 36 46 47 69 11 22 26 68 33 102 9 42 10 70 3 89 -6 17 -18 29 -31 31z"/>
</g>
</svg>
