<?xml version="1.0" standalone="no"?>
<!DOCTYPE svg PUBLIC "-//W3C//DTD SVG 20010904//EN"
 "http://www.w3.org/TR/2001/REC-SVG-20010904/DTD/svg10.dtd">
<svg version="1.0" xmlns="http://www.w3.org/2000/svg"
 width="157.000000pt" height="171.000000pt" viewBox="0 0 157.000000 171.000000"
 preserveAspectRatio="xMidYMid meet">
<metadata>
Created by potrace 1.16, written by Peter Selinger 2001-2019
</metadata>
<g transform="translate(0.000000,171.000000) scale(0.100000,-0.100000)"
fill="#000000" stroke="none">
<path d="M660 1710 c-38 0 -70 -4 -70 -8 0 -4 5 -13 12 -20 9 -9 16 -8 30 5
10 9 21 13 25 9 4 -3 1 -12 -5 -18 -7 -7 -12 -16 -12 -21 0 -4 5 -5 10 -2 6 4
17 1 25 -5 8 -6 19 -9 25 -5 7 4 10 16 7 26 -3 12 0 19 9 19 8 0 14 5 14 10 0
6 -30 10 -70 10z M975 1710 c-42 0 -64 -4 -60 -10 4 -6 11 -8 16 -5 5 4 12 -1
15 -9 4 -9 1 -23 -6 -31 -7 -9 -10 -18 -7 -21 3 -3 15 -3 27 1 17 5 21 13 17
31 -2 13 0 24 4 24 5 0 9 -5 9 -11 0 -6 10 -9 22 -7 13 2 24 11 26 21 3 15 -5
17 -63 17z M1327 1710 c-5 0 -6 -13 -2 -30 4 -19 3 -30 -4 -30 -6 0 -11 8 -11
18 -1 15 -2 15 -15 -2 -8 -11 -15 -28 -15 -37 0 -10 -6 -20 -12 -22 -8 -3 -6
-6 5 -6 10 -1 29 11 42 25 13 14 29 23 34 19 7 -4 11 3 11 17 0 13 -5 29 -12
36 -7 7 -16 12 -21 12z M1494 1380 c-16 0 -28 -7 -31 -17 -2 -10 -19 -27 -36
-38 -18 -11 -33 -28 -35 -38 -2 -9 1 -17 7 -17 6 0 11 7 11 15 0 8 7 15 15 15
8 0 15 7 15 15 0 8 9 15 20 15 11 0 29 9 40 20 11 11 20 22 20 25 0 3 -12 5
-26 5z M1275 1320 c-8 0 -19 -9 -25 -19 -5 -11 -10 -22 -10 -25 0 -3 16 -12
35 -20 20 -9 42 -13 50 -10 8 4 15 1 15 -5 0 -6 7 -11 15 -11 8 0 15 6 15 13
0 6 -5 19 -10 27 -7 11 -12 12 -21 3 -8 -8 -18 -9 -31 -2 -10 5 -18 19 -18 29
0 11 -7 20 -15 20z M1483 1309 c-4 -1 -15 -3 -23 -5 -9 -3 -21 -14 -28 -25 -7
-11 -10 -24 -7 -29 4 -6 15 -10 26 -10 11 0 18 -4 14 -9 -3 -5 -1 -12 4 -15 5
-3 23 -3 40 0 17 4 31 10 31 15 0 5 -9 9 -20 9 -13 0 -20 7 -20 19 0 11 -5 23
-10 26 -6 4 -8 11 -5 16 4 5 3 8 -2 8z M817 1246 c-2 16 -5 24 -6 17 0 -6 -8
-19 -17 -27 -13 -14 -13 -16 0 -16 8 0 29 -15 47 -32 25 -25 29 -34 17 -36 -9
-2 -18 -9 -21 -15 -2 -7 -2 -27 0 -44 3 -18 9 -33 13 -33 4 0 11 7 14 16 5 13
9 14 20 5 11 -9 20 -6 41 15 28 28 28 28 47 1 11 -15 24 -25 29 -21 5 3 9 16
9 30 0 24 0 24 21 3 11 -11 18 -27 15 -35 -3 -8 -14 -14 -24 -14 -14 0 -19 -8
-20 -31 0 -17 -3 -34 -7 -37 -3 -3 -26 5 -50 18 -33 18 -47 22 -56 13 -6 -6
-17 -9 -24 -7 -7 3 -15 -4 -17 -14 -3 -11 -2 -26 3 -33 5 -9 1 -22 -13 -36
-16 -17 -18 -23 -7 -23 10 -1 8 -5 -6 -17 -18 -14 -18 -15 -2 -9 10 3 21 6 23
6 2 0 4 7 4 16 0 13 3 14 15 4 8 -6 19 -9 25 -5 5 3 10 4 10 2 0 -2 -26 -21
-57 -42 -32 -21 -68 -47 -80 -58 -23 -20 -23 -20 -23 26 0 25 -5 58 -10 73
-10 24 -14 26 -50 20 -25 -4 -40 -2 -40 4 0 5 5 10 10 10 6 0 10 5 10 10 0 6
-8 20 -18 31 -12 12 -25 17 -36 13 -13 -5 -14 -9 -5 -21 9 -10 9 -17 1 -25 -8
-8 -14 -4 -23 18 -13 29 -13 29 -17 5 -2 -16 2 -30 13 -37 13 -9 14 -17 7 -31
-6 -10 -25 -30 -43 -43 -18 -14 -36 -29 -41 -35 -5 -5 -31 -39 -57 -75 -27
-36 -51 -79 -55 -97 -6 -24 -3 -34 10 -41 12 -7 25 -1 53 27 21 20 55 58 76
85 21 26 52 56 68 67 17 10 34 16 39 13 5 -3 6 -22 3 -42 -3 -20 -11 -63 -17
-95 -6 -32 -15 -60 -19 -63 -5 -3 -9 -13 -9 -23 0 -9 6 -29 13 -44 6 -15 17
-27 23 -27 6 0 23 9 36 20 14 10 42 51 62 89 20 39 53 84 74 101 20 17 45 29
54 27 11 -3 15 0 11 9 -3 10 0 12 10 9 10 -5 16 -30 20 -98 3 -52 15 -116 26
-147 11 -30 24 -56 30 -58 5 -2 20 7 32 19 18 18 20 28 14 63 -4 22 -10 108
-13 190 -7 139 -8 149 -29 164 -13 8 -23 24 -23 35 0 20 1 20 13 2 13 -17 15
-17 30 5 10 15 21 20 33 16 11 -4 24 1 38 16 16 18 17 21 3 15 -9 -3 -17 -3
-17 1 0 4 9 22 20 40 14 22 27 32 45 32 14 0 29 8 35 20 9 16 8 22 -5 26 -8 3
-21 4 -29 1 -8 -3 -21 4 -30 18 -11 16 -22 22 -34 19 -13 -5 -14 -4 -3 4 7 5
22 7 33 4 14 -3 21 1 25 17 3 11 12 21 19 21 8 0 14 5 14 10 0 6 -6 10 -12 10
-7 0 -23 3 -36 6 -19 5 -23 3 -20 -11 2 -10 -3 -20 -10 -23 -8 -2 -12 2 -10
13 2 10 -3 20 -9 22 -7 3 -15 -1 -17 -9 -2 -7 -7 -22 -12 -33 -4 -11 -6 -27
-5 -34 2 -12 0 -13 -12 -2 -13 10 -22 9 -49 -5 -18 -10 -38 -19 -45 -20 -8 -1
-9 6 -1 29 9 25 8 32 -6 43 -11 8 -13 14 -7 19 6 3 11 10 11 15 0 5 -13 7 -29
4 -26 -6 -30 -3 -34 22z M911 1243 c-11 10 -13 9 -8 -5 3 -9 9 -33 13 -52 3
-20 9 -36 13 -36 3 0 13 10 21 23 8 12 18 30 22 40 6 14 2 17 -20 17 -16 0
-34 6 -41 13z M723 1149 c-4 0 -16 -10 -27 -21 -17 -19 -17 -22 -3 -30 13 -7
16 -20 12 -59 -5 -49 -5 -49 21 -43 20 5 25 4 19 -6 -5 -8 -2 -11 11 -8 10 2
20 11 22 21 2 12 -3 17 -17 17 -12 0 -21 5 -21 10 0 6 10 10 23 10 12 0 30 9
40 20 11 13 13 20 4 20 -6 0 -24 -6 -39 -14 -22 -12 -29 -12 -38 -1 -8 10 -8
19 1 33 7 11 9 27 6 36 -4 9 -10 16 -14 15z M313 1129 c-13 1 -24 -7 -28 -19
-3 -11 -11 -20 -16 -20 -6 0 -19 5 -30 10 -16 9 -19 7 -19 -10 0 -13 7 -20 19
-20 10 0 21 -9 24 -20 5 -18 7 -19 36 -4 17 9 31 22 31 30 0 8 -4 14 -10 14
-5 0 -10 6 -10 14 0 8 6 17 13 19 6 3 2 6 -10 6z M1502 1120 c-4 0 -15 -7 -24
-14 -11 -8 -18 -27 -18 -48 0 -19 -5 -39 -12 -46 -9 -9 -7 -12 10 -12 19 0 22
5 22 41 0 28 4 39 13 37 6 -3 13 -16 15 -31 2 -18 8 -24 18 -20 9 3 14 20 14
45 0 22 -4 37 -9 33 -5 -3 -12 -1 -16 5 -3 5 -9 10 -13 10z M1512 998 c-16 1
-32 -1 -35 -5 -4 -3 -7 -10 -7 -15 0 -4 6 -8 13 -8 7 0 18 -10 26 -22 12 -19
11 -23 -5 -36 -17 -13 -17 -14 -1 -9 9 4 17 2 17 -4 0 -6 4 -8 8 -5 5 3 9 27
11 53 2 47 1 49 -27 51z M1463 850 c-4 0 -12 -4 -18 -8 -5 -4 -11 -18 -13 -32
-1 -13 -8 -28 -15 -32 -8 -5 -8 -10 -2 -16 6 -6 20 -13 32 -17 18 -5 22 -3 17
9 -4 11 -1 16 10 16 9 0 16 7 16 15 0 9 -7 18 -15 21 -10 4 -13 13 -10 25 4
11 3 19 -2 19z M280 713 c-4 5 -11 4 -14 -2 -4 -6 -4 -16 -1 -21 3 -6 0 -17
-9 -25 -11 -11 -16 -12 -19 -2 -3 7 -6 5 -6 -5 -1 -10 4 -18 10 -18 7 0 9 -10
5 -26 -5 -18 -3 -24 5 -18 6 4 21 7 32 8 11 1 22 7 25 14 2 6 -3 12 -12 12 -9
0 -16 5 -16 10 0 6 5 10 11 10 7 0 9 10 4 28 -3 15 -10 31 -15 35z M1445 700
c-14 0 -25 -4 -25 -10 0 -5 5 -10 11 -10 8 0 7 -6 -2 -17 -11 -13 -11 -17 -1
-20 6 -3 12 -9 12 -14 0 -5 -11 -9 -24 -9 -13 0 -27 -7 -30 -16 -5 -13 -1 -15
21 -9 15 3 31 12 35 18 4 7 8 22 8 34 0 12 5 25 10 28 6 3 10 10 10 16 0 5
-11 9 -25 9z"/>
</g>
</svg>
