<?xml version="1.0" standalone="no"?>
<!DOCTYPE svg PUBLIC "-//W3C//DTD SVG 20010904//EN"
 "http://www.w3.org/TR/2001/REC-SVG-20010904/DTD/svg10.dtd">
<svg version="1.0" xmlns="http://www.w3.org/2000/svg"
 width="152.000000pt" height="166.000000pt" viewBox="0 0 152.000000 166.000000"
 preserveAspectRatio="xMidYMid meet">
<metadata>
Created by potrace 1.16, written by Peter Selinger 2001-2019
</metadata>
<g transform="translate(0.000000,166.000000) scale(0.100000,-0.100000)"
fill="#000000" stroke="none">
<path d="M893 1246 c-27 2 -67 -2 -90 -10 -22 -7 -55 -23 -72 -35 -17 -12 -44
-41 -60 -64 -16 -23 -40 -71 -54 -107 -14 -36 -28 -90 -32 -120 -4 -30 -11
-62 -16 -71 -5 -9 -29 -29 -54 -43 -24 -15 -49 -35 -55 -46 -5 -10 -10 -24
-10 -30 0 -6 6 -13 13 -16 8 -3 29 9 46 26 18 16 40 30 49 30 13 0 14 -21 7
-182 -4 -101 -8 -201 -9 -223 -1 -34 2 -40 21 -43 13 -2 25 4 31 15 5 10 13
79 17 153 4 74 9 196 11 271 2 75 10 168 19 207 9 38 30 94 48 123 18 29 50
65 72 81 25 16 57 28 84 30 33 2 46 -1 55 -15 9 -14 5 -28 -16 -70 -16 -29
-28 -59 -28 -68 0 -8 16 -38 35 -65 22 -31 35 -61 35 -80 0 -19 -11 -45 -29
-68 -16 -20 -42 -47 -58 -59 -15 -12 -31 -26 -35 -32 -4 -5 -8 -16 -8 -22 0
-7 9 -13 19 -13 10 0 37 15 58 33 22 17 55 51 73 75 25 32 33 54 34 86 1 31
-7 54 -26 84 -16 23 -28 51 -28 62 0 12 9 38 20 60 11 22 20 54 20 73 0 21 -7
41 -20 52 -11 10 -40 19 -67 21z"/>
</g>
</svg>
