<?xml version="1.0" standalone="no"?>
<!DOCTYPE svg PUBLIC "-//W3C//DTD SVG 20010904//EN"
 "http://www.w3.org/TR/2001/REC-SVG-20010904/DTD/svg10.dtd">
<svg version="1.0" xmlns="http://www.w3.org/2000/svg"
 width="159.000000pt" height="172.000000pt" viewBox="0 0 159.000000 172.000000"
 preserveAspectRatio="xMidYMid meet">
<metadata>
Created by potrace 1.16, written by Peter Selinger 2001-2019
</metadata>
<g transform="translate(0.000000,172.000000) scale(0.100000,-0.100000)"
fill="#000000" stroke="none">
<path d="M925 1570 c-9 0 -17 -6 -20 -12 -2 -7 -7 -26 -10 -43 -4 -16 -8 -55
-9 -85 -1 -52 0 -55 24 -55 24 0 25 3 33 85 4 46 5 90 2 97 -2 7 -11 13 -20
13z M760 1560 c-10 0 -21 -7 -24 -16 -3 -8 -3 -26 0 -39 3 -12 1 -26 -5 -29
-6 -4 -11 -25 -11 -46 0 -29 6 -43 22 -54 20 -14 24 -14 37 -1 10 10 15 38 16
87 1 40 -3 79 -8 86 -5 6 -17 12 -27 12z M855 1297 c-75 4 -84 2 -150 -30 -38
-19 -97 -57 -129 -83 -33 -27 -72 -70 -87 -96 -18 -30 -32 -74 -39 -125 -7
-43 -9 -106 -6 -141 4 -35 13 -88 20 -117 8 -29 23 -70 34 -91 11 -22 31 -51
44 -65 14 -14 36 -34 50 -43 14 -9 55 -19 91 -23 38 -3 100 0 144 7 43 7 100
20 127 31 27 10 65 30 86 44 20 14 47 44 61 68 23 39 24 51 23 187 -1 109 -5
156 -18 189 -9 25 -27 59 -40 76 -20 26 -23 39 -19 78 5 38 2 52 -13 68 -11
12 -37 30 -59 42 -28 14 -65 22 -120 24z m10 -54 c11 -2 39 -11 63 -19 23 -9
42 -20 42 -25 0 -5 -3 -9 -6 -9 -3 0 -34 7 -67 16 -41 10 -80 14 -117 10 -42
-5 -51 -4 -37 4 9 6 36 15 60 19 23 5 51 7 62 4z m-54 -77 c31 -2 77 -13 103
-24 40 -18 46 -25 46 -51 0 -27 3 -31 29 -31 24 0 31 -6 44 -39 9 -22 21 -69
28 -106 6 -37 9 -100 7 -140 -3 -44 -13 -88 -24 -111 -16 -31 -34 -46 -84 -70
-36 -18 -89 -37 -119 -43 -30 -6 -74 -11 -99 -11 -25 0 -62 5 -83 11 -21 7
-48 22 -59 34 -11 12 -36 59 -55 106 -29 71 -35 96 -35 161 0 42 5 100 11 127
6 28 23 68 38 91 15 22 38 48 51 57 13 10 52 23 85 30 33 7 85 11 116 9z"/>
</g>
</svg>
