<?xml version="1.0" standalone="no"?>
<!DOCTYPE svg PUBLIC "-//W3C//DTD SVG 20010904//EN"
 "http://www.w3.org/TR/2001/REC-SVG-20010904/DTD/svg10.dtd">
<svg version="1.0" xmlns="http://www.w3.org/2000/svg"
 width="164.000000pt" height="179.000000pt" viewBox="0 0 164.000000 179.000000"
 preserveAspectRatio="xMidYMid meet">
<metadata>
Created by potrace 1.16, written by Peter Selinger 2001-2019
</metadata>
<g transform="translate(0.000000,179.000000) scale(0.100000,-0.100000)"
fill="#000000" stroke="none">
<path d="M940 1173 c-14 3 -29 -2 -41 -14 -13 -13 -19 -33 -19 -61 0 -29 7
-49 21 -64 21 -22 21 -22 -18 -61 -23 -23 -48 -64 -63 -103 -18 -47 -41 -80
-85 -125 -33 -34 -93 -85 -132 -114 -40 -30 -73 -58 -73 -63 0 -4 11 -13 25
-20 20 -9 29 -7 52 7 15 10 49 35 74 57 26 21 50 38 53 38 3 0 6 -15 6 -34 0
-25 8 -43 32 -67 31 -31 34 -31 99 -26 37 3 82 13 101 23 18 9 67 40 109 68
42 28 84 56 95 62 15 10 17 16 8 30 -6 11 -18 20 -26 22 -9 2 -45 -17 -81 -42
-36 -25 -83 -54 -105 -65 -22 -11 -59 -23 -81 -27 -27 -4 -46 -2 -56 6 -9 7
-15 29 -15 51 0 27 16 69 54 142 29 57 61 116 71 130 10 16 15 36 12 49 -4 13
2 31 14 46 12 15 19 40 19 66 0 23 -7 51 -15 63 -8 11 -24 23 -35 26z"/>
</g>
</svg>
