<?xml version="1.0" standalone="no"?>
<!DOCTYPE svg PUBLIC "-//W3C//DTD SVG 20010904//EN"
 "http://www.w3.org/TR/2001/REC-SVG-20010904/DTD/svg10.dtd">
<svg version="1.0" xmlns="http://www.w3.org/2000/svg"
 width="158.000000pt" height="170.000000pt" viewBox="0 0 158.000000 170.000000"
 preserveAspectRatio="xMidYMid meet">
<metadata>
Created by potrace 1.16, written by Peter Selinger 2001-2019
</metadata>
<g transform="translate(0.000000,170.000000) scale(0.100000,-0.100000)"
fill="#000000" stroke="none">
<path d="M60 1400 c-5 0 -10 -1 -11 -2 0 -2 -3 -12 -6 -23 -2 -11 -4 -31 -4
-45 1 -13 8 -28 16 -33 8 -4 15 -12 15 -17 0 -6 -7 -10 -15 -10 -10 0 -15 -11
-15 -35 0 -30 3 -35 24 -35 14 0 27 -4 31 -9 3 -5 17 1 32 15 20 19 29 22 36
12 6 -10 8 -9 4 2 -2 8 -16 16 -30 18 -15 2 -27 10 -27 18 0 8 -6 14 -13 14
-8 0 -14 12 -14 30 0 16 6 31 14 34 7 3 13 12 13 21 0 8 -9 15 -20 15 -11 0
-20 7 -20 15 0 8 -4 15 -10 15z M647 1313 c-10 4 -18 -7 -26 -33 -6 -22 -16
-42 -22 -45 -5 -4 -16 -1 -24 5 -12 10 -15 9 -15 -3 0 -8 7 -17 15 -21 8 -3
22 -3 30 0 8 3 17 15 21 26 5 16 8 17 14 7 7 -10 11 -10 24 0 8 7 20 10 26 6
6 -4 17 -1 25 5 8 7 15 19 15 26 0 8 -7 14 -15 14 -9 0 -27 -7 -41 -16 -13 -9
-27 -14 -31 -11 -3 4 -1 13 6 21 9 10 8 15 -2 19z M825 1310 c-7 0 -14 -3 -18
-6 -3 -3 -1 -20 5 -37 6 -18 14 -36 18 -41 5 -4 13 -5 20 -1 8 5 6 11 -7 20
-15 11 -16 16 -5 27 10 10 17 10 32 0 11 -6 23 -12 27 -12 4 0 -8 11 -27 25
-19 14 -39 25 -45 25z M726 1170 c-8 0 -19 -7 -27 -16 -7 -9 -22 -14 -35 -11
-16 3 -21 0 -17 -10 3 -8 13 -11 24 -8 15 5 19 1 19 -15 0 -13 -8 -24 -20 -27
-11 -3 -20 -9 -20 -12 0 -4 -8 -9 -17 -10 -10 -1 -29 -2 -43 -2 -13 -1 -26 4
-28 10 -2 6 -10 11 -18 11 -8 0 -14 -4 -14 -10 0 -5 7 -10 15 -10 9 0 15 -6
14 -12 -1 -7 -1 -19 0 -26 1 -8 9 -10 26 -6 18 4 32 1 45 -11 11 -10 22 -16
25 -13 3 2 -4 14 -15 25 -16 18 -17 22 -5 27 9 3 15 -1 15 -9 0 -8 4 -15 10
-15 5 0 13 6 17 13 4 8 16 17 27 20 15 6 16 10 5 23 -10 13 -10 17 1 24 8 5
18 6 22 4 4 -3 8 -12 8 -21 0 -9 -9 -24 -20 -33 -21 -18 -21 -18 1 -34 13 -8
20 -19 16 -23 -4 -3 -13 -1 -19 5 -7 7 -18 12 -26 12 -7 0 -12 -5 -10 -12 2
-6 21 -17 41 -24 21 -7 43 -11 51 -8 7 3 13 12 13 21 0 9 -9 18 -19 21 -10 2
-18 6 -18 8 0 2 7 22 16 44 9 22 20 40 25 40 5 0 9 11 9 25 0 20 -5 25 -24 25
-14 0 -28 5 -31 10 -3 6 -12 10 -19 10z M915 1160 c-8 0 -16 -3 -16 -7 -1 -5
-1 -11 0 -15 0 -4 -8 -12 -19 -18 -14 -7 -26 -8 -39 0 -11 5 -22 10 -25 10 -3
0 -6 -8 -6 -18 0 -10 10 -28 23 -40 13 -12 26 -22 30 -22 4 0 6 3 5 8 -2 4 2
8 7 9 6 0 9 -3 8 -8 -2 -5 4 -9 13 -9 11 0 14 -6 9 -20 -3 -11 -2 -20 4 -20 5
0 12 4 15 9 3 5 -1 25 -9 45 -14 33 -14 39 0 59 8 12 15 25 15 29 0 5 -7 8
-15 8z M1028 1060 c-10 0 -18 -7 -18 -14 0 -8 -11 -27 -25 -42 -25 -27 -25
-27 -25 0 0 14 -4 26 -9 26 -5 0 -11 -10 -13 -23 -2 -13 1 -28 8 -34 6 -7 15
-9 18 -5 4 3 4 -2 0 -12 -5 -14 -3 -17 7 -14 8 3 13 13 12 22 0 11 4 15 12 12
9 -3 12 0 8 10 -3 8 1 14 10 14 8 0 17 -6 20 -12 2 -7 6 6 8 30 4 35 2 42 -13
42z M112 1027 c-15 1 -33 -1 -39 -4 -7 -2 -13 -11 -13 -19 0 -8 -6 -14 -12
-15 -7 0 -3 -5 10 -11 12 -6 22 -15 22 -19 0 -4 -9 -11 -20 -14 -11 -3 -20
-10 -20 -15 0 -5 19 3 43 16 23 13 50 27 59 30 10 4 15 11 12 16 -3 5 -12 7
-20 4 -8 -3 -14 -2 -14 2 0 5 4 12 10 18 6 6 0 10 -18 11z M1116 1000 c-6 0
-25 -12 -42 -27 -17 -16 -49 -42 -70 -59 -22 -17 -53 -34 -70 -38 -27 -6 -34
-3 -57 27 -14 19 -35 37 -47 40 -13 3 -28 -2 -40 -16 -20 -21 -20 -21 -44 2
-15 14 -42 25 -69 28 -39 5 -46 2 -65 -22 -12 -15 -22 -35 -22 -45 0 -9 16
-31 35 -48 19 -18 40 -32 46 -32 7 0 10 12 7 29 -4 25 -2 28 13 21 9 -5 19
-21 22 -35 2 -15 -2 -85 -11 -156 -14 -123 -14 -130 3 -149 11 -12 31 -20 50
-20 32 0 32 0 39 103 3 56 11 119 17 140 10 37 10 37 67 32 31 -3 62 -6 67 -6
6 0 23 2 40 4 20 3 32 12 38 30 5 17 13 24 23 20 9 -3 14 0 12 7 -2 7 8 14 21
16 13 2 36 14 52 25 17 12 26 25 22 32 -4 6 -6 24 -5 40 2 16 -3 36 -9 43 -6
8 -17 14 -23 14z M558 959 c-13 -1 -34 -12 -47 -25 -20 -19 -22 -26 -11 -39 7
-8 9 -22 6 -31 -4 -10 -1 -14 6 -12 7 3 13 19 13 36 0 17 8 39 18 49 11 11 17
13 17 5 0 -7 5 -10 10 -7 6 3 10 10 10 16 0 5 -10 9 -22 8z M186 510 c-6 0 -4
-5 4 -10 13 -9 12 -13 -7 -29 -20 -16 -21 -21 -8 -31 8 -7 15 -18 15 -25 0 -7
7 -16 16 -19 9 -3 18 -6 20 -6 2 0 4 6 4 14 0 8 -7 16 -15 20 -8 3 -15 12 -15
20 0 8 8 20 18 25 16 10 16 12 -2 26 -11 8 -25 15 -30 15z M198 354 c-15 3
-30 2 -33 -4 -3 -5 2 -10 12 -11 16 0 16 -1 -2 -8 -14 -6 -24 -3 -32 8 -12 14
-15 13 -34 -9 -13 -15 -30 -24 -43 -22 -20 3 -20 2 4 -17 14 -11 28 -21 31
-21 4 0 9 10 12 22 5 18 8 19 22 8 14 -12 18 -11 26 1 8 10 9 9 4 -8 -4 -17 1
-24 25 -36 19 -10 32 -12 36 -5 3 5 2 14 -3 19 -6 6 -8 21 -5 35 2 13 9 24 15
24 7 0 7 3 2 9 -6 4 -22 11 -37 15z M138 109 c-17 -1 -19 -2 -5 -6 12 -3 17
-14 17 -36 0 -32 0 -32 -20 -7 -11 14 -20 21 -20 16 0 -5 -6 -4 -13 2 -9 8
-15 4 -23 -13 -6 -13 -8 -28 -5 -33 4 -6 27 -13 53 -16 47 -6 47 -6 43 32 -1
20 -3 43 -4 50 -1 6 -11 11 -23 11z"/>
</g>
</svg>
