<?xml version="1.0" standalone="no"?>
<!DOCTYPE svg PUBLIC "-//W3C//DTD SVG 20010904//EN"
 "http://www.w3.org/TR/2001/REC-SVG-20010904/DTD/svg10.dtd">
<svg version="1.0" xmlns="http://www.w3.org/2000/svg"
 width="158.000000pt" height="172.000000pt" viewBox="0 0 158.000000 172.000000"
 preserveAspectRatio="xMidYMid meet">
<metadata>
Created by potrace 1.16, written by Peter Selinger 2001-2019
</metadata>
<g transform="translate(0.000000,172.000000) scale(0.100000,-0.100000)"
fill="#000000" stroke="none">
<path d="M1107 1559 c-12 -1 -39 -5 -60 -10 -22 -5 -74 -24 -117 -43 -42 -19
-108 -54 -146 -79 -38 -25 -87 -64 -110 -88 -22 -24 -55 -67 -72 -94 -17 -28
-45 -80 -61 -117 -17 -36 -42 -113 -55 -170 -14 -56 -32 -157 -41 -223 -8 -66
-15 -142 -15 -170 0 -27 5 -70 11 -95 6 -28 20 -53 37 -67 15 -12 33 -22 40
-23 6 0 12 4 12 10 0 5 -9 24 -20 42 -16 27 -20 51 -20 123 0 50 6 137 14 195
8 58 21 137 30 175 9 39 30 106 48 150 17 44 53 113 81 153 28 40 70 91 94
112 24 21 95 64 156 95 71 35 127 57 152 58 l40 2 -1 -75 c0 -52 -6 -87 -19
-115 -11 -21 -36 -56 -57 -76 -21 -20 -38 -40 -38 -44 0 -5 27 -39 60 -76 34
-38 72 -94 86 -126 19 -41 26 -75 26 -118 0 -45 -7 -76 -29 -125 -25 -55 -39
-71 -82 -99 -28 -19 -72 -38 -96 -43 -26 -5 -49 -17 -55 -28 -5 -9 -6 -20 -3
-24 3 -3 19 -6 35 -6 16 0 57 13 91 29 35 15 81 45 102 66 20 21 51 67 68 102
27 59 29 71 25 146 -3 59 -11 94 -28 127 -12 25 -42 71 -66 103 -24 31 -44 63
-44 71 0 7 8 24 19 37 10 13 29 44 41 69 18 33 25 67 28 130 4 76 2 88 -18
113 -12 15 -31 27 -43 26z"/>
</g>
</svg>
