<?xml version="1.0" standalone="no"?>
<!DOCTYPE svg PUBLIC "-//W3C//DTD SVG 20010904//EN"
 "http://www.w3.org/TR/2001/REC-SVG-20010904/DTD/svg10.dtd">
<svg version="1.0" xmlns="http://www.w3.org/2000/svg"
 width="152.000000pt" height="167.000000pt" viewBox="0 0 152.000000 167.000000"
 preserveAspectRatio="xMidYMid meet">
<metadata>
Created by potrace 1.16, written by Peter Selinger 2001-2019
</metadata>
<g transform="translate(0.000000,167.000000) scale(0.100000,-0.100000)"
fill="#000000" stroke="none">
<path d="M902 1109 c-9 0 -53 -21 -97 -45 -44 -25 -125 -76 -180 -113 -56 -38
-129 -83 -163 -100 -39 -20 -76 -31 -102 -31 -37 0 -42 -3 -54 -32 -8 -18 -12
-38 -9 -46 4 -9 22 -12 62 -10 53 2 62 -1 168 -65 62 -36 127 -73 145 -80 18
-8 65 -35 103 -60 39 -26 80 -54 92 -63 15 -11 32 -14 48 -10 21 5 26 12 23
34 -2 20 -11 29 -33 35 -16 5 -55 21 -85 36 -30 16 -91 47 -135 71 -44 24
-110 63 -147 87 -40 26 -68 52 -68 61 1 10 18 29 40 44 21 15 86 59 143 97 58
39 128 83 157 97 41 21 61 25 91 20 30 -5 41 -3 45 9 4 8 -1 26 -10 40 -9 14
-24 25 -34 24z"/>
</g>
</svg>
