<?xml version="1.0" standalone="no"?>
<!DOCTYPE svg PUBLIC "-//W3C//DTD SVG 20010904//EN"
 "http://www.w3.org/TR/2001/REC-SVG-20010904/DTD/svg10.dtd">
<svg version="1.0" xmlns="http://www.w3.org/2000/svg"
 width="154.000000pt" height="168.000000pt" viewBox="0 0 154.000000 168.000000"
 preserveAspectRatio="xMidYMid meet">
<metadata>
Created by potrace 1.16, written by Peter Selinger 2001-2019
</metadata>
<g transform="translate(0.000000,168.000000) scale(0.100000,-0.100000)"
fill="#000000" stroke="none">
<path d="M703 1359 c-15 -1 -45 -5 -66 -10 -20 -5 -55 -18 -77 -29 -22 -11
-55 -36 -75 -55 -21 -22 -35 -45 -35 -60 0 -14 2 -25 5 -25 3 0 29 24 58 53
41 42 65 57 112 71 34 10 72 16 85 14 21 -2 26 -9 28 -40 2 -20 -3 -51 -11
-70 -8 -18 -49 -79 -93 -136 -43 -56 -103 -135 -132 -175 -45 -60 -52 -77 -48
-101 4 -16 14 -38 22 -48 9 -10 41 -27 71 -38 39 -15 78 -20 144 -20 50 0 99
5 110 10 10 6 19 15 19 21 0 7 -17 9 -47 5 -27 -4 -83 -2 -125 3 -43 6 -89 18
-103 27 -14 9 -30 25 -36 35 -7 14 -4 29 10 57 11 21 50 75 88 121 37 46 91
116 120 157 29 40 56 90 62 110 6 20 7 50 4 66 -4 18 -16 34 -34 43 -15 8 -41
15 -56 14z M657 450 c-15 0 -30 -7 -33 -15 -4 -8 -4 -22 0 -30 3 -8 26 -25 51
-37 40 -19 47 -20 55 -8 5 8 10 20 10 27 0 7 -12 24 -27 38 -16 14 -40 25 -56
25z"/>
</g>
</svg>
