<?xml version="1.0" standalone="no"?>
<!DOCTYPE svg PUBLIC "-//W3C//DTD SVG 20010904//EN"
 "http://www.w3.org/TR/2001/REC-SVG-20010904/DTD/svg10.dtd">
<svg version="1.0" xmlns="http://www.w3.org/2000/svg"
 width="164.000000pt" height="180.000000pt" viewBox="0 0 164.000000 180.000000"
 preserveAspectRatio="xMidYMid meet">
<metadata>
Created by potrace 1.16, written by Peter Selinger 2001-2019
</metadata>
<g transform="translate(0.000000,180.000000) scale(0.100000,-0.100000)"
fill="#000000" stroke="none">
<path d="M786 1240 c-8 0 -19 -6 -25 -13 -6 -8 -22 -65 -36 -128 -14 -63 -32
-147 -40 -187 -8 -41 -18 -78 -21 -83 -3 -5 -25 -9 -48 -9 -25 0 -48 -6 -55
-14 -9 -11 -8 -18 4 -30 9 -9 32 -16 50 -16 l34 0 -6 -103 c-4 -69 -2 -115 6
-140 7 -20 22 -44 34 -52 13 -9 44 -15 75 -15 37 0 76 9 126 30 45 19 94 50
130 81 31 28 63 63 70 78 7 14 11 32 9 39 -3 6 -13 12 -22 12 -10 0 -37 -23
-60 -50 -24 -28 -64 -62 -91 -75 -27 -14 -68 -31 -92 -40 -24 -8 -55 -15 -69
-15 -15 0 -32 6 -38 13 -6 8 -14 28 -17 46 -5 26 -3 35 15 47 14 10 21 27 22
52 1 20 4 50 8 66 5 26 14 32 61 46 31 9 76 29 101 43 26 15 54 36 64 46 9 11
14 25 10 30 -3 6 -13 11 -22 11 -8 0 -27 -8 -41 -19 -15 -10 -44 -26 -64 -34
-20 -8 -49 -17 -65 -19 -27 -3 -28 -1 -31 43 -2 26 6 91 17 145 11 55 27 116
35 136 9 21 16 39 16 42 0 2 -7 12 -16 20 -8 9 -21 16 -28 16z"/>
</g>
</svg>
