<?xml version="1.0" standalone="no"?>
<!DOCTYPE svg PUBLIC "-//W3C//DTD SVG 20010904//EN"
 "http://www.w3.org/TR/2001/REC-SVG-20010904/DTD/svg10.dtd">
<svg version="1.0" xmlns="http://www.w3.org/2000/svg"
 width="154.000000pt" height="167.000000pt" viewBox="0 0 154.000000 167.000000"
 preserveAspectRatio="xMidYMid meet">
<metadata>
Created by potrace 1.16, written by Peter Selinger 2001-2019
</metadata>
<g transform="translate(0.000000,167.000000) scale(0.100000,-0.100000)"
fill="#000000" stroke="none">
<path d="M739 1250 c-22 0 -53 -11 -82 -30 -30 -19 -62 -52 -86 -90 -22 -33
-45 -83 -51 -111 -8 -31 -10 -78 -7 -117 4 -35 14 -81 24 -101 11 -21 32 -43
53 -53 19 -10 57 -18 84 -18 34 0 66 9 104 28 30 15 73 43 96 63 23 20 54 60
70 89 25 46 28 59 25 128 -2 42 0 83 4 90 5 6 22 12 39 12 16 0 43 8 59 17 16
10 29 24 29 31 0 9 -6 12 -17 7 -10 -4 -41 -9 -70 -12 -43 -5 -56 -2 -79 16
-16 13 -41 21 -64 21 -21 0 -51 7 -66 15 -16 8 -45 15 -65 15z m10 -41 c23 1
43 -7 58 -21 13 -12 23 -31 23 -42 0 -12 4 -27 9 -34 6 -11 10 -11 18 0 5 7
13 21 16 31 4 9 10 17 15 17 5 0 17 -9 27 -20 15 -16 19 -37 19 -98 0 -60 -5
-86 -22 -119 -12 -22 -38 -55 -58 -71 -20 -16 -58 -42 -85 -57 -32 -17 -66
-27 -97 -28 -33 0 -56 5 -75 19 -14 10 -31 31 -38 47 -7 17 -10 57 -7 105 3
47 13 95 25 123 11 26 38 66 59 89 21 23 48 46 59 50 11 5 35 9 54 9z"/>
</g>
</svg>
