<?xml version="1.0" standalone="no"?>
<!DOCTYPE svg PUBLIC "-//W3C//DTD SVG 20010904//EN"
 "http://www.w3.org/TR/2001/REC-SVG-20010904/DTD/svg10.dtd">
<svg version="1.0" xmlns="http://www.w3.org/2000/svg"
 width="158.000000pt" height="171.000000pt" viewBox="0 0 158.000000 171.000000"
 preserveAspectRatio="xMidYMid meet">
<metadata>
Created by potrace 1.16, written by Peter Selinger 2001-2019
</metadata>
<g transform="translate(0.000000,171.000000) scale(0.100000,-0.100000)"
fill="#000000" stroke="none">
<path d="M941 1320 c-10 0 -23 -6 -29 -12 -6 -7 -18 -58 -27 -113 -10 -55 -28
-136 -40 -180 -13 -44 -31 -97 -39 -117 -9 -21 -19 -38 -22 -38 -3 0 -30 25
-59 56 -45 47 -56 55 -76 49 -13 -4 -27 -13 -31 -19 -4 -6 -8 -31 -8 -56 0
-25 9 -64 19 -86 10 -23 35 -54 55 -70 20 -16 36 -36 36 -44 0 -8 -13 -38 -29
-66 -16 -28 -41 -58 -55 -67 -14 -10 -45 -17 -70 -17 -24 0 -52 3 -61 6 -8 4
-23 21 -32 38 -12 21 -16 51 -14 96 1 36 3 98 4 139 2 61 -1 76 -15 85 -13 8
-23 8 -35 0 -14 -9 -20 -33 -26 -105 -6 -64 -5 -115 3 -161 6 -37 22 -82 34
-100 13 -19 40 -40 67 -52 37 -15 58 -17 104 -11 46 5 64 14 97 43 22 20 54
61 71 90 16 30 37 56 45 60 10 3 38 -19 82 -66 37 -40 73 -72 79 -72 6 0 16
11 23 24 8 18 8 37 0 68 -7 25 -7 47 -2 53 5 6 46 30 92 54 46 24 101 54 123
66 22 12 40 28 40 36 0 8 -11 16 -25 17 -15 3 -66 -16 -133 -49 -88 -44 -110
-51 -117 -39 -5 7 -12 52 -16 99 -4 47 -4 142 0 211 3 69 11 144 16 168 7 29
7 49 0 62 -6 11 -19 20 -29 20z m-61 -466 c4 -5 10 -33 12 -62 3 -29 1 -55 -3
-58 -5 -2 -18 5 -29 16 -15 15 -19 27 -14 48 4 15 11 35 16 46 6 10 13 14 18
10z"/>
</g>
</svg>
