<?xml version="1.0" standalone="no"?>
<!DOCTYPE svg PUBLIC "-//W3C//DTD SVG 20010904//EN"
 "http://www.w3.org/TR/2001/REC-SVG-20010904/DTD/svg10.dtd">
<svg version="1.0" xmlns="http://www.w3.org/2000/svg"
 width="154.000000pt" height="168.000000pt" viewBox="0 0 154.000000 168.000000"
 preserveAspectRatio="xMidYMid meet">
<metadata>
Created by potrace 1.16, written by Peter Selinger 2001-2019
</metadata>
<g transform="translate(0.000000,168.000000) scale(0.100000,-0.100000)"
fill="#000000" stroke="none">
<path d="M521 1610 c-5 0 -14 -7 -21 -15 -8 -10 -10 -29 -6 -54 3 -21 1 -63
-5 -92 -5 -30 -10 -121 -10 -204 0 -92 -7 -204 -19 -290 -10 -77 -22 -202 -25
-278 -4 -76 -7 -211 -6 -299 0 -97 -4 -169 -11 -181 -9 -17 -7 -24 10 -38 17
-13 36 -16 89 -13 37 3 105 7 151 10 61 4 85 10 89 21 3 8 0 19 -7 23 -7 4
-27 4 -44 -1 -17 -5 -67 -9 -112 -9 -58 0 -85 4 -93 14 -7 8 -17 67 -23 133
-8 86 -8 179 0 343 6 126 20 282 32 355 12 72 25 202 29 290 5 88 12 168 16
179 7 15 15 17 49 11 23 -4 70 -11 106 -16 36 -4 101 -8 146 -9 54 0 86 5 100
14 16 12 17 17 6 28 -9 9 -37 12 -90 11 -42 -1 -120 4 -172 13 -52 8 -112 24
-133 34 -21 11 -41 20 -46 20z"/>
</g>
</svg>
