<?xml version="1.0" standalone="no"?>
<!DOCTYPE svg PUBLIC "-//W3C//DTD SVG 20010904//EN"
 "http://www.w3.org/TR/2001/REC-SVG-20010904/DTD/svg10.dtd">
<svg version="1.0" xmlns="http://www.w3.org/2000/svg"
 width="166.000000pt" height="179.000000pt" viewBox="0 0 166.000000 179.000000"
 preserveAspectRatio="xMidYMid meet">
<metadata>
Created by potrace 1.16, written by Peter Selinger 2001-2019
</metadata>
<g transform="translate(0.000000,179.000000) scale(0.100000,-0.100000)"
fill="#000000" stroke="none">
<path d="M985 1160 c-12 0 -28 -7 -35 -15 -7 -8 -10 -34 -8 -62 3 -47 3 -47
-67 -60 -38 -6 -129 -12 -202 -12 -73 -1 -155 4 -183 10 -39 8 -54 8 -65 -1
-8 -7 -15 -25 -15 -41 0 -19 7 -32 22 -40 16 -8 84 -10 247 -6 124 3 235 7
246 9 16 3 20 -5 26 -44 4 -26 10 -52 14 -57 3 -6 17 -11 30 -11 13 0 54 17
92 39 37 21 91 46 120 55 31 11 54 25 58 35 3 10 1 30 -4 43 -5 14 -25 35 -45
47 -19 12 -62 27 -96 33 -51 9 -65 16 -87 44 -15 21 -34 34 -48 34z"/>
</g>
</svg>
