<?xml version="1.0" standalone="no"?>
<!DOCTYPE svg PUBLIC "-//W3C//DTD SVG 20010904//EN"
 "http://www.w3.org/TR/2001/REC-SVG-20010904/DTD/svg10.dtd">
<svg version="1.0" xmlns="http://www.w3.org/2000/svg"
 width="153.000000pt" height="167.000000pt" viewBox="0 0 153.000000 167.000000"
 preserveAspectRatio="xMidYMid meet">
<metadata>
Created by potrace 1.16, written by Peter Selinger 2001-2019
</metadata>
<g transform="translate(0.000000,167.000000) scale(0.100000,-0.100000)"
fill="#000000" stroke="none">
<path d="M881 639 c-9 0 -26 -4 -37 -9 -12 -5 -25 -13 -29 -19 -3 -6 -4 -20 0
-31 3 -10 14 -22 24 -25 10 -3 30 0 45 6 14 7 28 21 32 31 3 10 0 25 -6 33 -7
8 -20 15 -29 14z M875 384 c-16 3 -35 3 -41 -2 -6 -4 -17 -17 -23 -30 -7 -13
-10 -29 -8 -36 3 -8 17 -11 36 -8 29 4 31 2 31 -27 0 -18 -9 -49 -20 -71 -15
-30 -29 -41 -56 -49 -24 -7 -43 -7 -55 -1 -10 6 -25 10 -33 10 -9 0 -16 -8
-16 -20 0 -10 9 -24 19 -30 11 -5 42 -10 70 -10 42 0 56 5 86 31 23 21 40 48
50 82 8 28 15 67 15 87 0 20 -6 43 -12 52 -7 9 -26 19 -43 22z"/>
</g>
</svg>
