<?xml version="1.0" standalone="no"?>
<!DOCTYPE svg PUBLIC "-//W3C//DTD SVG 20010904//EN"
 "http://www.w3.org/TR/2001/REC-SVG-20010904/DTD/svg10.dtd">
<svg version="1.0" xmlns="http://www.w3.org/2000/svg"
 width="152.000000pt" height="166.000000pt" viewBox="0 0 152.000000 166.000000"
 preserveAspectRatio="xMidYMid meet">
<metadata>
Created by potrace 1.16, written by Peter Selinger 2001-2019
</metadata>
<g transform="translate(0.000000,166.000000) scale(0.100000,-0.100000)"
fill="#000000" stroke="none">
<path d="M664 1120 c-8 0 -19 -12 -25 -27 -5 -15 -9 -36 -7 -47 3 -19 10 -21
71 -22 l67 -1 0 32 c0 17 -5 36 -11 42 -9 9 -19 8 -41 -3 -28 -14 -30 -14 -35
5 -3 12 -12 21 -19 21z M683 875 c-15 3 -42 -1 -60 -9 -18 -8 -42 -33 -57 -58
-14 -24 -33 -76 -42 -115 -14 -57 -15 -77 -6 -98 6 -14 23 -30 36 -36 15 -7
43 -9 70 -5 34 5 57 18 93 50 27 24 55 57 63 72 8 16 21 37 29 47 8 9 24 17
37 17 12 0 44 9 70 20 30 13 44 24 38 30 -6 6 -22 6 -44 0 -19 -6 -42 -10 -50
-10 -9 0 -24 14 -33 30 -14 23 -23 29 -41 24 -14 -3 -31 2 -48 16 -15 11 -39
22 -55 25z m2 -50 c11 -7 20 -23 19 -36 0 -13 -3 -31 -5 -39 -3 -11 4 -14 29
-11 25 2 32 -1 32 -16 0 -10 -20 -42 -45 -70 -26 -29 -60 -56 -79 -63 -18 -6
-40 -8 -50 -4 -9 3 -19 17 -22 30 -3 13 -3 41 1 62 3 20 17 61 30 90 15 32 33
56 47 61 16 6 30 5 43 -4z"/>
</g>
</svg>
