<?xml version="1.0" standalone="no"?>
<!DOCTYPE svg PUBLIC "-//W3C//DTD SVG 20010904//EN"
 "http://www.w3.org/TR/2001/REC-SVG-20010904/DTD/svg10.dtd">
<svg version="1.0" xmlns="http://www.w3.org/2000/svg"
 width="151.000000pt" height="167.000000pt" viewBox="0 0 151.000000 167.000000"
 preserveAspectRatio="xMidYMid meet">
<metadata>
Created by potrace 1.16, written by Peter Selinger 2001-2019
</metadata>
<g transform="translate(0.000000,167.000000) scale(0.100000,-0.100000)"
fill="#000000" stroke="none">
<path d="M472 900 c-4 0 -16 -6 -25 -13 -12 -8 -23 -41 -33 -97 -8 -47 -15
-123 -16 -170 -1 -60 3 -94 15 -116 9 -17 22 -35 29 -41 7 -6 29 -14 49 -18
27 -5 49 -1 82 13 25 11 53 31 62 45 9 14 23 28 31 31 9 4 18 -3 23 -17 5 -12
19 -32 30 -44 14 -15 34 -23 54 -23 18 0 42 7 54 15 13 9 29 39 38 68 9 29 22
92 30 142 8 49 18 91 22 93 5 1 23 11 41 22 19 11 32 26 29 33 -2 7 -27 18
-55 26 -42 11 -55 11 -67 1 -10 -8 -15 -30 -15 -61 0 -26 -10 -93 -21 -149
-12 -55 -28 -108 -35 -117 -13 -17 -15 -16 -33 7 -11 14 -25 44 -31 68 -6 26
-8 74 -4 118 6 64 5 74 -10 80 -10 4 -24 1 -32 -7 -7 -8 -19 -41 -25 -74 -6
-33 -24 -88 -39 -122 -25 -54 -35 -66 -74 -85 -46 -22 -46 -22 -67 -2 -13 14
-22 39 -26 75 -3 35 2 94 17 171 12 65 20 125 16 133 -3 8 -9 15 -14 15z"/>
</g>
</svg>
