<?xml version="1.0" standalone="no"?>
<!DOCTYPE svg PUBLIC "-//W3C//DTD SVG 20010904//EN"
 "http://www.w3.org/TR/2001/REC-SVG-20010904/DTD/svg10.dtd">
<svg version="1.0" xmlns="http://www.w3.org/2000/svg"
 width="155.000000pt" height="168.000000pt" viewBox="0 0 155.000000 168.000000"
 preserveAspectRatio="xMidYMid meet">
<metadata>
Created by potrace 1.16, written by Peter Selinger 2001-2019
</metadata>
<g transform="translate(0.000000,168.000000) scale(0.100000,-0.100000)"
fill="#000000" stroke="none">
<path d="M1153 1529 c-15 -1 -77 -12 -138 -25 -61 -14 -160 -27 -224 -29 -62
-3 -117 -8 -122 -11 -5 -3 -9 -13 -9 -24 0 -10 7 -21 16 -24 9 -3 33 -6 55 -6
22 0 112 12 200 26 88 14 167 23 175 20 13 -5 13 -9 0 -28 -8 -13 -22 -66 -31
-119 -8 -52 -19 -209 -25 -349 -5 -140 -14 -325 -20 -410 -6 -85 -17 -197 -25
-249 -8 -57 -20 -101 -30 -110 -13 -13 -37 -16 -123 -15 -59 1 -148 9 -197 19
-50 9 -101 24 -115 33 -14 8 -40 15 -59 13 -19 -1 -42 -6 -52 -12 -11 -5 -19
-16 -19 -23 0 -8 7 -17 16 -20 9 -3 33 -6 54 -6 21 0 76 -9 122 -19 46 -11
117 -24 158 -30 41 -6 119 -12 172 -14 80 -2 99 0 104 13 4 8 8 44 10 80 2 36
8 94 13 130 6 36 15 144 21 240 5 96 15 263 20 370 6 107 15 233 21 280 6 47
24 127 41 177 17 51 28 99 24 108 -3 9 -17 15 -33 14z"/>
</g>
</svg>
