<?xml version="1.0" standalone="no"?>
<!DOCTYPE svg PUBLIC "-//W3C//DTD SVG 20010904//EN"
 "http://www.w3.org/TR/2001/REC-SVG-20010904/DTD/svg10.dtd">
<svg version="1.0" xmlns="http://www.w3.org/2000/svg"
 width="166.000000pt" height="182.000000pt" viewBox="0 0 166.000000 182.000000"
 preserveAspectRatio="xMidYMid meet">
<metadata>
Created by potrace 1.16, written by Peter Selinger 2001-2019
</metadata>
<g transform="translate(0.000000,182.000000) scale(0.100000,-0.100000)"
fill="#000000" stroke="none">
<path d="M770 1478 c-22 4 -22 3 -14 -70 4 -40 8 -84 8 -98 0 -14 -4 -41 -8
-62 -7 -30 -4 -40 13 -57 13 -13 34 -21 56 -21 23 0 38 6 41 15 4 8 0 23 -7
32 -9 10 -16 53 -19 109 -5 73 -10 99 -26 121 -12 15 -31 30 -44 31z"/>
</g>
</svg>
