<?xml version="1.0" standalone="no"?>
<!DOCTYPE svg PUBLIC "-//W3C//DTD SVG 20010904//EN"
 "http://www.w3.org/TR/2001/REC-SVG-20010904/DTD/svg10.dtd">
<svg version="1.0" xmlns="http://www.w3.org/2000/svg"
 width="153.000000pt" height="165.000000pt" viewBox="0 0 153.000000 165.000000"
 preserveAspectRatio="xMidYMid meet">
<metadata>
Created by potrace 1.16, written by Peter Selinger 2001-2019
</metadata>
<g transform="translate(0.000000,165.000000) scale(0.100000,-0.100000)"
fill="#000000" stroke="none">
<path d="M670 1140 c-5 0 -20 -19 -32 -42 -13 -24 -25 -52 -29 -63 -3 -11 -1
-32 4 -48 5 -16 19 -30 34 -33 13 -4 30 -1 36 5 8 8 7 19 -6 40 -16 27 -16 33
-2 75 9 26 13 51 10 56 -3 6 -10 10 -15 10z M788 1067 c-7 6 -19 8 -25 6 -8
-3 -13 -23 -13 -52 0 -38 5 -52 25 -71 17 -16 29 -20 36 -13 6 6 6 18 -1 37
-5 15 -10 40 -10 55 0 16 -6 33 -12 38z M694 862 c-11 2 -34 1 -53 -4 -19 -5
-51 -24 -73 -41 -21 -18 -48 -49 -59 -70 -11 -21 -23 -59 -26 -85 -3 -26 0
-65 6 -87 7 -28 20 -46 42 -59 22 -13 43 -17 72 -13 22 3 61 20 85 37 29 21
52 30 66 26 12 -2 40 -11 64 -18 36 -10 47 -10 69 2 15 8 28 21 31 28 2 8 -7
12 -26 12 -16 0 -43 5 -61 11 -17 6 -31 17 -31 24 0 7 14 39 30 70 17 31 30
72 30 91 0 22 -6 37 -16 41 -9 3 -27 -6 -47 -27 -26 -27 -33 -29 -42 -17 -5 9
-17 29 -26 45 -9 16 -25 31 -35 34z m-40 -55 c12 -1 32 -23 48 -51 25 -41 28
-55 22 -92 -4 -32 -15 -51 -36 -69 -16 -13 -47 -30 -69 -36 -37 -11 -42 -11
-62 10 -17 17 -22 32 -21 70 1 26 10 63 19 82 9 19 31 46 48 61 18 16 41 27
51 25z"/>
</g>
</svg>
