<?xml version="1.0" standalone="no"?>
<!DOCTYPE svg PUBLIC "-//W3C//DTD SVG 20010904//EN"
 "http://www.w3.org/TR/2001/REC-SVG-20010904/DTD/svg10.dtd">
<svg version="1.0" xmlns="http://www.w3.org/2000/svg"
 width="157.000000pt" height="171.000000pt" viewBox="0 0 157.000000 171.000000"
 preserveAspectRatio="xMidYMid meet">
<metadata>
Created by potrace 1.16, written by Peter Selinger 2001-2019
</metadata>
<g transform="translate(0.000000,171.000000) scale(0.100000,-0.100000)"
fill="#000000" stroke="none">
<path d="M809 1245 c-41 3 -84 -1 -119 -10 -30 -9 -75 -29 -101 -46 -26 -16
-63 -53 -83 -82 -19 -29 -43 -72 -53 -97 -12 -34 -17 -79 -17 -185 -1 -121 2
-149 22 -207 13 -37 36 -85 52 -107 16 -22 42 -48 57 -58 21 -14 46 -18 110
-17 73 0 90 4 155 37 45 22 102 63 148 105 42 38 87 91 102 118 14 27 31 73
38 103 7 29 10 81 8 115 -3 34 -15 84 -27 112 -12 27 -34 62 -49 77 -15 16
-47 40 -72 55 -25 14 -59 38 -76 54 -25 23 -41 29 -95 33z m-59 -66 c35 1 35
1 -10 -20 -24 -11 -68 -38 -97 -61 -29 -22 -53 -46 -53 -54 0 -7 5 -16 11 -19
6 -4 36 11 68 34 32 22 88 50 125 62 61 20 69 21 83 7 11 -11 13 -25 8 -47 -4
-17 -16 -38 -28 -46 -12 -9 -43 -15 -73 -15 -28 0 -54 -3 -57 -7 -4 -3 0 -15
10 -25 12 -14 31 -18 79 -18 59 0 66 2 99 35 19 20 35 43 35 53 0 9 4 24 10
32 7 12 12 11 30 -5 12 -11 34 -40 48 -65 23 -39 27 -56 27 -130 0 -71 -4 -94
-26 -141 -16 -33 -53 -83 -90 -121 -41 -41 -88 -76 -130 -96 -36 -18 -89 -35
-117 -39 -32 -3 -63 -1 -82 7 -17 7 -39 25 -50 40 -10 14 -30 57 -44 95 -16
41 -29 100 -32 150 -4 53 -2 101 6 136 7 30 25 79 40 109 16 30 43 70 62 87
18 18 51 39 73 47 22 8 56 15 75 15z"/>
</g>
</svg>
