<?xml version="1.0" standalone="no"?>
<!DOCTYPE svg PUBLIC "-//W3C//DTD SVG 20010904//EN"
 "http://www.w3.org/TR/2001/REC-SVG-20010904/DTD/svg10.dtd">
<svg version="1.0" xmlns="http://www.w3.org/2000/svg"
 width="166.000000pt" height="181.000000pt" viewBox="0 0 166.000000 181.000000"
 preserveAspectRatio="xMidYMid meet">
<metadata>
Created by potrace 1.16, written by Peter Selinger 2001-2019
</metadata>
<g transform="translate(0.000000,181.000000) scale(0.100000,-0.100000)"
fill="#000000" stroke="none">
<path d="M854 1498 c-15 2 -30 -10 -53 -40 -18 -24 -54 -74 -81 -111 -27 -37
-54 -85 -61 -105 -6 -20 -17 -50 -24 -67 -7 -16 -20 -52 -28 -80 -8 -27 -20
-71 -27 -97 -12 -47 -12 -47 -69 -54 -31 -3 -62 -11 -68 -16 -7 -6 -13 -18
-13 -28 0 -10 6 -22 13 -28 7 -6 32 -13 55 -14 23 -2 44 -9 47 -16 3 -8 3 -17
1 -20 -2 -4 -9 -50 -16 -103 -9 -80 -8 -117 5 -219 9 -68 23 -139 31 -159 8
-19 22 -43 31 -53 9 -10 24 -18 35 -18 10 0 23 10 29 23 8 18 6 35 -10 77 -11
30 -26 99 -32 155 -7 64 -8 127 -3 175 8 67 11 75 33 80 15 3 28 16 32 30 4
14 10 42 14 63 5 31 12 40 42 52 19 8 42 15 49 15 8 0 34 9 59 21 34 16 45 27
45 44 0 12 -6 28 -14 34 -11 9 -27 8 -71 -4 -31 -9 -59 -14 -62 -11 -4 3 -1
36 6 72 7 39 33 107 65 172 29 59 61 122 72 139 17 30 18 35 4 60 -9 16 -25
29 -36 31z"/>
</g>
</svg>
