<?xml version="1.0" standalone="no"?>
<!DOCTYPE svg PUBLIC "-//W3C//DTD SVG 20010904//EN"
 "http://www.w3.org/TR/2001/REC-SVG-20010904/DTD/svg10.dtd">
<svg version="1.0" xmlns="http://www.w3.org/2000/svg"
 width="157.000000pt" height="172.000000pt" viewBox="0 0 157.000000 172.000000"
 preserveAspectRatio="xMidYMid meet">
<metadata>
Created by potrace 1.16, written by Peter Selinger 2001-2019
</metadata>
<g transform="translate(0.000000,172.000000) scale(0.100000,-0.100000)"
fill="#000000" stroke="none">
<path d="M934 1324 c-17 5 -32 -4 -70 -44 -31 -33 -63 -82 -86 -133 -20 -45
-47 -125 -59 -177 -11 -52 -30 -114 -40 -138 -12 -28 -16 -49 -11 -60 5 -9 7
-52 4 -95 -4 -78 -4 -78 -66 -124 -33 -26 -64 -52 -68 -58 -4 -5 -8 -21 -8
-35 0 -16 13 -36 37 -58 21 -18 47 -35 58 -38 11 -3 30 -19 43 -34 12 -16 26
-50 31 -75 5 -26 16 -54 25 -63 15 -15 19 -15 43 -2 14 8 31 23 37 32 7 12 4
42 -12 110 -12 51 -24 123 -27 159 -6 61 -4 69 17 89 13 12 61 39 108 61 47
22 92 43 100 48 8 4 15 17 15 27 0 10 -8 20 -19 22 -10 2 -51 -9 -90 -24 -39
-15 -80 -34 -91 -41 -11 -7 -26 -13 -34 -13 -10 0 -12 10 -8 41 4 31 16 53 50
88 24 25 53 60 64 76 11 17 34 66 52 110 17 44 38 113 46 153 8 40 15 91 15
112 0 22 -7 46 -17 58 -10 11 -28 23 -39 26z m-27 -121 c2 -6 -3 -42 -12 -79
-9 -37 -34 -110 -56 -161 -23 -51 -45 -93 -51 -93 -5 0 -6 16 -2 38 3 20 12
57 19 82 7 25 25 74 39 109 14 35 33 76 43 90 9 14 18 21 20 14z"/>
</g>
</svg>
