<?xml version="1.0" standalone="no"?>
<!DOCTYPE svg PUBLIC "-//W3C//DTD SVG 20010904//EN"
 "http://www.w3.org/TR/2001/REC-SVG-20010904/DTD/svg10.dtd">
<svg version="1.0" xmlns="http://www.w3.org/2000/svg"
 width="165.000000pt" height="180.000000pt" viewBox="0 0 165.000000 180.000000"
 preserveAspectRatio="xMidYMid meet">
<metadata>
Created by potrace 1.16, written by Peter Selinger 2001-2019
</metadata>
<g transform="translate(0.000000,180.000000) scale(0.100000,-0.100000)"
fill="#000000" stroke="none">
<path d="M755 1040 c-11 -1 -32 -7 -47 -15 -14 -8 -40 -37 -57 -65 -17 -28
-38 -79 -46 -113 -8 -34 -15 -85 -15 -114 0 -40 5 -58 23 -78 14 -17 36 -28
62 -32 34 -4 46 0 79 26 39 31 40 31 60 12 12 -10 35 -26 53 -35 19 -10 57
-16 95 -16 52 0 77 6 135 34 39 19 74 39 78 46 4 6 2 17 -4 23 -7 7 -28 3 -73
-16 -35 -15 -77 -30 -95 -33 -18 -4 -47 -4 -66 0 -18 3 -43 15 -55 27 -14 12
-22 32 -22 52 0 18 7 42 15 54 9 12 27 52 41 89 14 37 24 81 22 98 -2 20 -9
32 -20 34 -9 2 -25 -6 -35 -17 -9 -12 -23 -21 -30 -21 -7 0 -13 5 -13 10 0 6
-15 19 -32 30 -18 11 -42 20 -53 20z m1 -60 c7 0 20 -7 28 -16 9 -8 16 -30 15
-47 0 -18 -6 -66 -13 -107 -12 -62 -19 -79 -46 -103 -21 -19 -40 -27 -58 -25
-23 3 -28 9 -30 38 -2 19 2 62 8 95 7 33 19 73 27 90 8 16 25 40 36 53 11 12
26 22 33 22z"/>
</g>
</svg>
