<?xml version="1.0" standalone="no"?>
<!DOCTYPE svg PUBLIC "-//W3C//DTD SVG 20010904//EN"
 "http://www.w3.org/TR/2001/REC-SVG-20010904/DTD/svg10.dtd">
<svg version="1.0" xmlns="http://www.w3.org/2000/svg"
 width="156.000000pt" height="170.000000pt" viewBox="0 0 156.000000 170.000000"
 preserveAspectRatio="xMidYMid meet">
<metadata>
Created by potrace 1.16, written by Peter Selinger 2001-2019
</metadata>
<g transform="translate(0.000000,170.000000) scale(0.100000,-0.100000)"
fill="#000000" stroke="none">
<path d="M912 1379 c-20 -1 -48 -3 -62 -5 -14 -2 -48 -9 -77 -15 -29 -5 -78
-23 -110 -38 -32 -16 -82 -37 -110 -47 -29 -10 -55 -25 -58 -33 -3 -8 0 -21 8
-28 11 -12 26 -9 93 16 43 16 99 38 124 49 25 12 75 26 112 33 51 9 74 10 93
1 20 -10 25 -19 25 -51 0 -21 -7 -58 -15 -82 -9 -24 -39 -86 -67 -136 -51 -93
-51 -93 -93 -93 -23 0 -45 -3 -48 -6 -4 -4 3 -20 14 -36 21 -28 21 -28 -27
-96 -27 -37 -97 -116 -157 -175 -68 -68 -107 -115 -105 -125 2 -10 21 -23 43
-30 22 -8 65 -18 95 -23 35 -6 111 -5 210 2 85 6 213 14 285 18 113 5 130 8
133 23 2 11 -5 21 -20 26 -13 5 -108 6 -213 3 -104 -3 -240 -6 -302 -6 -61 0
-115 3 -119 7 -3 4 33 53 82 109 49 56 112 131 139 168 50 66 50 66 124 78 41
7 89 17 107 23 18 6 35 18 38 27 4 9 2 21 -3 26 -7 7 -34 5 -83 -5 -40 -9 -74
-15 -75 -14 -2 2 22 50 51 107 40 75 58 123 66 173 6 37 8 76 5 87 -3 10 -20
30 -36 44 -22 18 -41 25 -67 24z"/>
</g>
</svg>
