<?xml version="1.0" standalone="no"?>
<!DOCTYPE svg PUBLIC "-//W3C//DTD SVG 20010904//EN"
 "http://www.w3.org/TR/2001/REC-SVG-20010904/DTD/svg10.dtd">
<svg version="1.0" xmlns="http://www.w3.org/2000/svg"
 width="166.000000pt" height="181.000000pt" viewBox="0 0 166.000000 181.000000"
 preserveAspectRatio="xMidYMid meet">
<metadata>
Created by potrace 1.16, written by Peter Selinger 2001-2019
</metadata>
<g transform="translate(0.000000,181.000000) scale(0.100000,-0.100000)"
fill="#000000" stroke="none">
<path d="M813 1620 c-17 0 -43 -12 -64 -30 -27 -22 -43 -48 -62 -102 -14 -40
-36 -120 -49 -177 -20 -94 -26 -106 -53 -123 -16 -10 -46 -23 -64 -28 -27 -7
-39 -6 -51 5 -15 14 -20 13 -43 -6 -16 -12 -27 -30 -27 -45 0 -17 7 -25 26
-30 14 -4 46 -2 72 4 26 6 58 14 71 18 24 7 24 7 17 -87 -5 -65 -12 -98 -22
-106 -10 -7 -25 -8 -42 -3 -15 5 -42 14 -59 21 -29 12 -35 11 -50 -4 -17 -17
-17 -20 6 -60 13 -23 37 -67 52 -97 15 -31 37 -89 48 -130 12 -41 21 -104 21
-141 0 -52 4 -69 19 -83 11 -10 30 -16 43 -14 21 3 23 8 22 58 -1 30 -5 111
-9 180 -4 71 -3 140 2 159 8 32 14 36 98 66 50 17 115 44 145 61 30 17 71 40
91 52 36 22 36 22 42 -8 4 -19 16 -34 31 -41 14 -7 36 -9 50 -5 14 3 30 15 36
25 7 15 6 24 -6 36 -14 13 -16 29 -11 85 5 58 3 73 -13 92 -15 18 -22 21 -36
12 -10 -6 -27 -26 -37 -45 -10 -19 -28 -43 -38 -55 -11 -11 -53 -40 -95 -64
-41 -23 -104 -53 -140 -66 -36 -13 -71 -24 -79 -24 -10 0 -15 10 -15 28 0 15
7 67 16 116 16 88 16 88 90 170 50 54 89 110 119 170 26 51 45 102 45 121 0
18 -3 41 -6 50 -4 8 -19 22 -35 30 -15 8 -41 15 -56 15z m11 -82 c15 -2 20 -9
18 -23 -2 -11 -19 -51 -37 -90 -18 -38 -49 -88 -69 -110 -36 -40 -36 -40 -30
-10 3 17 19 68 35 114 16 46 36 92 46 103 9 10 26 18 37 16z M1070 1360 c-10
0 -23 -7 -30 -15 -7 -8 -10 -25 -6 -39 3 -14 13 -32 22 -41 9 -9 26 -15 38
-13 17 2 21 9 20 40 -1 21 -7 44 -14 53 -7 8 -20 15 -30 15z"/>
</g>
</svg>
