<?xml version="1.0" standalone="no"?>
<!DOCTYPE svg PUBLIC "-//W3C//DTD SVG 20010904//EN"
 "http://www.w3.org/TR/2001/REC-SVG-20010904/DTD/svg10.dtd">
<svg version="1.0" xmlns="http://www.w3.org/2000/svg"
 width="152.000000pt" height="166.000000pt" viewBox="0 0 152.000000 166.000000"
 preserveAspectRatio="xMidYMid meet">
<metadata>
Created by potrace 1.16, written by Peter Selinger 2001-2019
</metadata>
<g transform="translate(0.000000,166.000000) scale(0.100000,-0.100000)"
fill="#000000" stroke="none">
<path d="M894 1235 c-27 3 -67 -1 -90 -9 -22 -7 -55 -24 -73 -37 -17 -13 -45
-45 -62 -71 -17 -27 -42 -82 -55 -123 -13 -42 -24 -89 -24 -106 0 -17 -5 -39
-10 -50 -6 -11 -30 -31 -53 -46 -23 -14 -47 -33 -54 -42 -7 -9 -13 -22 -13
-28 0 -7 5 -13 11 -13 6 0 27 14 46 31 19 16 40 28 46 26 8 -2 12 -39 12 -113
0 -60 -4 -160 -9 -222 l-8 -114 23 4 c20 2 25 11 31 48 4 25 10 139 13 255 4
116 11 240 16 277 5 37 19 93 30 124 12 32 40 77 62 101 23 25 53 51 68 59 16
8 48 14 73 14 36 0 46 -4 51 -21 4 -13 -3 -40 -19 -73 -14 -29 -26 -59 -26
-67 0 -8 16 -36 35 -63 19 -27 35 -62 35 -76 0 -15 -12 -45 -26 -66 -14 -21
-45 -55 -67 -76 -31 -26 -39 -39 -31 -47 8 -9 24 -1 61 28 27 22 62 57 76 79
17 23 27 51 27 73 0 22 -11 53 -30 82 -16 26 -30 54 -30 63 0 8 9 33 21 56 12
23 21 56 22 75 1 18 -6 40 -14 48 -8 9 -37 18 -65 20z"/>
</g>
</svg>
