<?xml version="1.0" standalone="no"?>
<!DOCTYPE svg PUBLIC "-//W3C//DTD SVG 20010904//EN"
 "http://www.w3.org/TR/2001/REC-SVG-20010904/DTD/svg10.dtd">
<svg version="1.0" xmlns="http://www.w3.org/2000/svg"
 width="158.000000pt" height="170.000000pt" viewBox="0 0 158.000000 170.000000"
 preserveAspectRatio="xMidYMid meet">
<metadata>
Created by potrace 1.16, written by Peter Selinger 2001-2019
</metadata>
<g transform="translate(0.000000,170.000000) scale(0.100000,-0.100000)"
fill="#000000" stroke="none">
<path d="M1116 980 c-9 0 -30 -13 -48 -28 -18 -16 -53 -43 -77 -60 -24 -18
-57 -32 -72 -32 -21 0 -32 7 -44 30 -9 17 -27 33 -41 36 -19 5 -29 2 -36 -10
-5 -9 -14 -16 -20 -16 -7 0 -22 9 -34 21 -12 11 -39 23 -61 26 -31 4 -42 1
-61 -20 -13 -14 -22 -33 -20 -44 2 -10 13 -19 26 -21 13 -2 30 2 38 8 11 10
17 10 30 -1 9 -7 20 -24 25 -37 6 -16 4 -64 -7 -142 -9 -64 -14 -129 -10 -144
5 -19 13 -26 30 -26 13 0 28 6 34 13 5 6 13 46 16 88 4 41 13 100 20 130 9 38
16 53 27 50 8 -2 29 -6 47 -9 17 -2 47 -1 65 2 18 3 63 29 100 57 37 28 75 61
83 75 9 13 14 31 10 39 -3 8 -12 15 -20 15z"/>
</g>
</svg>
