<?xml version="1.0" standalone="no"?>
<!DOCTYPE svg PUBLIC "-//W3C//DTD SVG 20010904//EN"
 "http://www.w3.org/TR/2001/REC-SVG-20010904/DTD/svg10.dtd">
<svg version="1.0" xmlns="http://www.w3.org/2000/svg"
 width="155.000000pt" height="168.000000pt" viewBox="0 0 155.000000 168.000000"
 preserveAspectRatio="xMidYMid meet">
<metadata>
Created by potrace 1.16, written by Peter Selinger 2001-2019
</metadata>
<g transform="translate(0.000000,168.000000) scale(0.100000,-0.100000)"
fill="#000000" stroke="none">
<path d="M771 1309 c-36 0 -85 -6 -108 -13 -22 -8 -55 -23 -72 -35 -17 -12
-44 -50 -62 -86 -29 -59 -31 -73 -32 -167 -1 -72 5 -122 17 -165 18 -62 18
-62 -22 -122 -22 -33 -45 -83 -52 -112 -7 -30 -10 -73 -6 -106 3 -30 14 -66
23 -80 15 -23 21 -25 72 -21 40 3 84 18 154 52 99 47 99 47 145 23 26 -13 61
-27 77 -31 17 -4 40 -17 53 -29 18 -17 27 -19 40 -11 9 6 18 21 20 33 2 12 -2
29 -8 37 -7 7 -24 14 -39 14 -14 0 -45 9 -68 20 -24 10 -43 25 -43 32 0 7 28
32 63 55 34 23 96 74 137 112 59 54 72 72 63 82 -10 10 -26 0 -80 -46 -37 -32
-105 -82 -150 -112 -46 -29 -91 -53 -102 -53 -10 0 -39 18 -65 41 -26 23 -60
61 -76 84 -17 24 -30 52 -30 63 0 13 31 46 84 90 46 39 97 88 113 109 16 21
40 56 52 78 13 21 26 61 31 88 4 27 3 68 -2 93 -6 27 -19 51 -35 64 -20 16
-40 20 -92 19z m4 -55 c16 -2 36 -11 44 -19 10 -10 15 -33 14 -68 -1 -31 -10
-72 -22 -98 -12 -24 -41 -67 -65 -95 -24 -28 -70 -70 -101 -94 -43 -33 -59
-40 -68 -31 -6 6 -13 53 -15 110 -3 77 0 113 14 157 10 34 31 70 49 89 19 18
51 36 76 42 24 6 57 9 74 7z m-211 -544 c8 0 26 -20 40 -44 14 -24 47 -63 73
-85 46 -39 47 -41 28 -55 -11 -9 -56 -29 -100 -46 -80 -31 -80 -31 -97 -9 -10
12 -18 38 -18 59 0 20 6 58 14 84 8 26 22 58 30 71 9 14 23 25 30 25z"/>
</g>
</svg>
