<?xml version="1.0" standalone="no"?>
<!DOCTYPE svg PUBLIC "-//W3C//DTD SVG 20010904//EN"
 "http://www.w3.org/TR/2001/REC-SVG-20010904/DTD/svg10.dtd">
<svg version="1.0" xmlns="http://www.w3.org/2000/svg"
 width="154.000000pt" height="168.000000pt" viewBox="0 0 154.000000 168.000000"
 preserveAspectRatio="xMidYMid meet">
<metadata>
Created by potrace 1.16, written by Peter Selinger 2001-2019
</metadata>
<g transform="translate(0.000000,168.000000) scale(0.100000,-0.100000)"
fill="#000000" stroke="none">
<path d="M1033 1370 c-10 0 -33 -15 -51 -32 l-32 -33 -118 0 c-97 -1 -127 -5
-173 -23 -31 -12 -64 -31 -74 -42 -9 -10 -20 -39 -22 -63 -3 -25 0 -61 6 -80
7 -19 30 -56 51 -80 22 -25 40 -50 40 -55 0 -6 -24 -24 -54 -41 -30 -16 -61
-40 -70 -53 -9 -12 -16 -39 -16 -59 0 -20 11 -61 24 -91 13 -29 42 -70 64 -90
23 -21 60 -47 84 -60 31 -16 60 -22 103 -22 33 0 70 6 82 12 13 7 27 29 33 52
8 29 8 58 0 103 -7 34 -20 81 -30 103 -10 23 -34 60 -55 83 -22 24 -35 47 -32
55 4 9 24 24 47 36 22 11 58 37 80 56 21 19 51 55 65 80 l26 44 60 0 c33 0 69
5 80 11 11 5 17 14 14 20 -4 5 -33 9 -65 9 -32 0 -62 4 -65 10 -3 5 2 34 10
65 9 31 14 63 11 71 -3 7 -13 14 -23 14z m-227 -100 c60 0 85 -4 94 -15 7 -9
9 -26 5 -46 -7 -30 -6 -31 19 -25 19 5 28 2 32 -8 3 -9 -4 -30 -16 -48 -13
-18 -37 -46 -54 -61 -17 -15 -52 -39 -78 -52 -26 -14 -58 -25 -71 -25 -14 0
-39 17 -64 43 -23 23 -47 55 -52 70 -6 16 -11 43 -11 61 0 21 8 40 23 54 12
11 38 28 57 36 21 9 67 15 116 16z m-94 -350 c18 0 42 -13 67 -35 21 -19 49
-59 61 -88 13 -28 25 -82 28 -118 4 -61 3 -67 -19 -83 -13 -9 -41 -16 -62 -16
-21 0 -59 11 -85 24 -26 13 -61 39 -79 58 -18 18 -39 53 -48 77 -8 24 -15 54
-15 66 0 12 9 34 20 48 11 13 39 34 62 46 24 11 55 21 70 21z"/>
</g>
</svg>
