<?xml version="1.0" standalone="no"?>
<!DOCTYPE svg PUBLIC "-//W3C//DTD SVG 20010904//EN"
 "http://www.w3.org/TR/2001/REC-SVG-20010904/DTD/svg10.dtd">
<svg version="1.0" xmlns="http://www.w3.org/2000/svg"
 width="153.000000pt" height="167.000000pt" viewBox="0 0 153.000000 167.000000"
 preserveAspectRatio="xMidYMid meet">
<metadata>
Created by potrace 1.16, written by Peter Selinger 2001-2019
</metadata>
<g transform="translate(0.000000,167.000000) scale(0.100000,-0.100000)"
fill="#000000" stroke="none">
<path d="M920 1207 c-9 2 -32 -22 -55 -58 -22 -33 -81 -100 -132 -149 -50 -49
-113 -103 -139 -120 -35 -22 -60 -30 -92 -30 -29 0 -42 -4 -40 -12 2 -6 11
-16 19 -21 9 -6 32 -7 51 -3 19 3 57 21 84 38 27 18 93 76 147 130 55 54 101
98 104 98 3 0 3 -19 0 -42 -3 -24 -15 -86 -26 -138 -12 -52 -21 -125 -21 -162
0 -55 3 -69 18 -77 13 -7 22 -7 30 1 7 7 7 19 0 40 -6 17 -8 59 -5 97 3 36 22
130 42 209 20 79 35 155 33 170 -2 15 -10 28 -18 29z"/>
</g>
</svg>
