<?xml version="1.0" standalone="no"?>
<!DOCTYPE svg PUBLIC "-//W3C//DTD SVG 20010904//EN"
 "http://www.w3.org/TR/2001/REC-SVG-20010904/DTD/svg10.dtd">
<svg version="1.0" xmlns="http://www.w3.org/2000/svg"
 width="164.000000pt" height="179.000000pt" viewBox="0 0 164.000000 179.000000"
 preserveAspectRatio="xMidYMid meet">
<metadata>
Created by potrace 1.16, written by Peter Selinger 2001-2019
</metadata>
<g transform="translate(0.000000,179.000000) scale(0.100000,-0.100000)"
fill="#000000" stroke="none">
<path d="M750 845 c-22 4 -47 -1 -68 -11 -18 -10 -44 -31 -58 -49 -13 -17 -30
-51 -39 -74 -8 -24 -15 -63 -15 -86 0 -24 5 -67 12 -95 10 -44 18 -57 51 -78
27 -18 56 -27 97 -30 47 -3 66 0 98 18 22 12 55 44 75 70 19 26 43 69 52 95
13 40 14 57 4 104 -6 30 -18 65 -26 77 -8 12 -30 30 -48 38 -19 9 -49 16 -67
16 -18 0 -49 2 -68 5z m69 -85 c3 0 13 -6 22 -13 9 -7 21 -22 27 -34 7 -12 12
-37 12 -55 0 -18 -11 -53 -24 -78 -12 -25 -38 -55 -56 -68 -24 -16 -43 -21
-60 -17 -14 3 -37 19 -52 36 -20 20 -28 40 -28 65 0 25 7 42 28 60 15 14 42
32 59 40 18 8 40 25 49 39 9 14 19 25 23 25z"/>
</g>
</svg>
