<?xml version="1.0" standalone="no"?>
<!DOCTYPE svg PUBLIC "-//W3C//DTD SVG 20010904//EN"
 "http://www.w3.org/TR/2001/REC-SVG-20010904/DTD/svg10.dtd">
<svg version="1.0" xmlns="http://www.w3.org/2000/svg"
 width="152.000000pt" height="168.000000pt" viewBox="0 0 152.000000 168.000000"
 preserveAspectRatio="xMidYMid meet">
<metadata>
Created by potrace 1.16, written by Peter Selinger 2001-2019
</metadata>
<g transform="translate(0.000000,168.000000) scale(0.100000,-0.100000)"
fill="#000000" stroke="none">
<path d="M936 840 c-11 0 -26 -19 -41 -53 -13 -30 -38 -68 -56 -86 -18 -18
-43 -37 -56 -42 -13 -5 -33 -9 -44 -9 -11 0 -28 14 -39 33 -12 18 -20 50 -20
74 0 23 -4 44 -9 47 -5 3 -11 -8 -15 -25 -3 -18 -6 -42 -6 -55 0 -13 12 -37
28 -54 20 -22 39 -32 75 -36 41 -6 52 -3 87 21 22 15 43 25 47 22 3 -4 1 -45
-6 -93 -7 -47 -28 -140 -47 -207 -19 -66 -43 -139 -53 -162 -10 -23 -34 -58
-54 -77 -19 -20 -53 -40 -74 -46 l-38 -10 35 -1 c19 0 53 9 75 22 22 12 54 43
70 68 19 28 45 94 68 174 20 72 46 174 57 229 11 54 23 136 27 182 5 75 4 84
-11 84z"/>
</g>
</svg>
