<?xml version="1.0" standalone="no"?>
<!DOCTYPE svg PUBLIC "-//W3C//DTD SVG 20010904//EN"
 "http://www.w3.org/TR/2001/REC-SVG-20010904/DTD/svg10.dtd">
<svg version="1.0" xmlns="http://www.w3.org/2000/svg"
 width="153.000000pt" height="168.000000pt" viewBox="0 0 153.000000 168.000000"
 preserveAspectRatio="xMidYMid meet">
<metadata>
Created by potrace 1.16, written by Peter Selinger 2001-2019
</metadata>
<g transform="translate(0.000000,168.000000) scale(0.100000,-0.100000)"
fill="#000000" stroke="none">
<path d="M855 422 c-20 2 -44 -2 -54 -9 -10 -7 -24 -26 -31 -44 -11 -26 -11
-32 1 -40 8 -5 29 -9 47 -9 29 0 32 -3 32 -29 0 -16 -5 -42 -11 -58 -5 -15
-22 -40 -37 -56 -15 -16 -41 -30 -63 -33 -20 -3 -42 -10 -49 -14 -7 -5 -10
-15 -6 -25 5 -14 15 -17 56 -13 29 3 64 15 83 28 19 13 45 39 58 58 19 29 25
51 27 118 2 46 -1 90 -7 102 -7 12 -24 21 -46 24z"/>
</g>
</svg>
