<?xml version="1.0" standalone="no"?>
<!DOCTYPE svg PUBLIC "-//W3C//DTD SVG 20010904//EN"
 "http://www.w3.org/TR/2001/REC-SVG-20010904/DTD/svg10.dtd">
<svg version="1.0" xmlns="http://www.w3.org/2000/svg"
 width="156.000000pt" height="169.000000pt" viewBox="0 0 156.000000 169.000000"
 preserveAspectRatio="xMidYMid meet">
<metadata>
Created by potrace 1.16, written by Peter Selinger 2001-2019
</metadata>
<g transform="translate(0.000000,169.000000) scale(0.100000,-0.100000)"
fill="#000000" stroke="none">
<path d="M501 1300 c-11 0 -22 -4 -25 -8 -2 -4 -10 -71 -16 -147 -6 -77 -19
-178 -28 -225 l-17 -85 -65 0 c-52 -1 -65 -4 -68 -17 -2 -12 8 -20 35 -27 21
-6 43 -11 50 -11 6 0 18 -6 26 -14 8 -9 15 -39 16 -78 1 -38 9 -75 20 -93 11
-20 26 -31 45 -33 22 -3 38 5 67 34 22 21 39 44 39 51 0 7 -8 13 -18 13 -11 0
-27 -9 -37 -20 -10 -11 -26 -20 -36 -20 -10 0 -21 12 -28 31 -6 18 -11 45 -11
60 0 15 4 30 10 34 5 3 42 -11 81 -31 40 -19 105 -47 146 -61 59 -19 77 -22
89 -13 10 9 14 37 14 111 0 91 2 100 23 113 12 7 57 19 100 25 43 6 97 11 120
11 23 0 52 3 65 6 12 4 22 10 22 14 0 4 -12 11 -26 14 -14 4 -82 2 -151 -5
-68 -6 -127 -8 -130 -5 -4 3 0 85 7 181 11 139 11 178 1 188 -10 9 -15 8 -25
-6 -8 -9 -17 -41 -21 -70 -3 -28 -13 -110 -20 -181 -8 -70 -16 -130 -19 -133
-2 -2 -51 -15 -108 -29 -56 -13 -116 -24 -132 -24 -28 0 -28 1 -23 43 3 23 15
95 26 160 12 66 21 148 21 183 0 57 -2 64 -19 64z m197 -461 l32 1 0 -65 c0
-52 -3 -67 -17 -72 -9 -4 -39 2 -67 11 -28 10 -72 27 -98 38 -27 11 -48 26
-48 33 0 8 33 21 83 33 45 11 97 20 115 21z"/>
</g>
</svg>
