<?xml version="1.0" standalone="no"?>
<!DOCTYPE svg PUBLIC "-//W3C//DTD SVG 20010904//EN"
 "http://www.w3.org/TR/2001/REC-SVG-20010904/DTD/svg10.dtd">
<svg version="1.0" xmlns="http://www.w3.org/2000/svg"
 width="165.000000pt" height="180.000000pt" viewBox="0 0 165.000000 180.000000"
 preserveAspectRatio="xMidYMid meet">
<metadata>
Created by potrace 1.16, written by Peter Selinger 2001-2019
</metadata>
<g transform="translate(0.000000,180.000000) scale(0.100000,-0.100000)"
fill="#000000" stroke="none">
<path d="M913 1528 c-10 -1 -35 -3 -55 -5 -32 -4 -39 -9 -44 -31 -3 -15 -12
-49 -19 -77 -7 -27 -16 -68 -20 -90 -4 -22 -23 -67 -43 -100 -20 -33 -55 -87
-78 -120 -23 -33 -69 -85 -101 -116 -32 -30 -70 -63 -85 -73 -15 -10 -32 -15
-38 -11 -5 3 -8 16 -6 28 3 12 10 51 17 87 6 36 16 73 21 83 5 9 30 28 57 41
27 14 66 47 89 73 22 27 52 71 66 97 19 37 26 64 26 107 0 51 -3 61 -25 75
-16 10 -34 14 -51 10 -14 -4 -48 -29 -76 -57 -32 -32 -61 -76 -83 -123 -18
-41 -39 -94 -46 -118 -7 -23 -18 -46 -24 -50 -5 -4 -20 -8 -32 -8 -13 0 -23
-6 -23 -14 0 -8 11 -23 24 -33 23 -18 23 -19 14 -123 -5 -58 -14 -110 -20
-117 -5 -7 -29 -20 -54 -29 -28 -10 -44 -23 -44 -33 0 -10 4 -21 10 -27 5 -5
21 -40 35 -78 15 -39 35 -108 47 -155 11 -47 26 -98 34 -113 8 -16 23 -28 33
-28 12 0 20 9 24 28 3 16 -3 61 -14 102 -12 49 -19 107 -19 171 0 76 4 101 16
114 9 8 34 25 55 36 22 11 73 53 114 94 41 41 87 93 101 115 15 22 31 40 35
40 5 0 9 -29 9 -64 0 -35 -3 -77 -6 -94 -5 -23 -15 -34 -53 -50 -25 -11 -59
-24 -75 -28 -16 -5 -33 -16 -38 -24 -6 -11 17 -64 82 -189 50 -96 105 -192
122 -213 17 -22 37 -38 46 -36 9 2 19 15 23 30 4 14 1 59 -6 100 -7 40 -21
125 -31 189 -9 63 -14 126 -10 140 4 15 45 52 113 102 72 52 109 74 114 66 4
-7 5 -17 3 -24 -3 -6 0 -25 6 -41 6 -16 17 -32 23 -36 7 -4 27 -8 45 -8 27 0
32 4 32 24 0 13 -6 29 -14 35 -8 6 -16 26 -19 44 -3 18 0 56 6 85 8 44 7 56
-5 69 -11 11 -21 12 -33 6 -9 -5 -24 -21 -33 -36 -10 -14 -51 -52 -92 -84 -41
-32 -89 -69 -107 -81 -21 -15 -34 -19 -38 -11 -4 6 -4 43 0 82 3 40 15 107 25
150 13 54 37 111 76 179 49 87 55 103 45 124 -6 14 -18 23 -28 22z m-274 -88
c10 0 12 -8 7 -32 -4 -18 -16 -53 -28 -77 -12 -25 -43 -66 -68 -93 -25 -26
-52 -48 -58 -48 -7 0 -12 4 -12 9 0 5 7 28 15 52 9 24 34 72 57 107 22 34 48
67 57 72 9 5 22 10 30 10z m78 -610 c7 0 15 -17 18 -37 3 -21 13 -76 21 -121
9 -46 13 -87 10 -90 -4 -3 -13 3 -21 14 -8 10 -30 48 -49 84 -19 36 -40 78
-45 93 -10 26 -8 29 22 42 17 8 37 14 44 15z M1090 1370 c-10 0 -24 -9 -30
-19 -5 -11 -10 -31 -10 -44 0 -14 7 -28 16 -31 9 -3 25 -6 36 -6 16 0 19 5 14
23 -3 12 -6 34 -6 50 0 20 -5 27 -20 27z"/>
</g>
</svg>
