<?xml version="1.0" standalone="no"?>
<!DOCTYPE svg PUBLIC "-//W3C//DTD SVG 20010904//EN"
 "http://www.w3.org/TR/2001/REC-SVG-20010904/DTD/svg10.dtd">
<svg version="1.0" xmlns="http://www.w3.org/2000/svg"
 width="158.000000pt" height="173.000000pt" viewBox="0 0 158.000000 173.000000"
 preserveAspectRatio="xMidYMid meet">
<metadata>
Created by potrace 1.16, written by Peter Selinger 2001-2019
</metadata>
<g transform="translate(0.000000,173.000000) scale(0.100000,-0.100000)"
fill="#000000" stroke="none">
<path d="M692 970 c-15 -1 -44 -9 -66 -20 -21 -11 -62 -38 -92 -60 -29 -23
-64 -57 -78 -75 -14 -19 -31 -46 -37 -62 -6 -15 -8 -42 -5 -59 4 -17 24 -48
47 -71 31 -32 54 -45 102 -57 34 -9 117 -20 183 -26 67 -5 149 -7 183 -4 33 4
66 13 72 20 6 7 9 19 7 25 -3 9 -50 13 -169 14 -122 1 -181 6 -229 19 -36 10
-71 22 -77 28 -7 6 -13 14 -13 18 0 4 22 10 49 12 40 4 64 16 130 63 65 47 83
65 91 94 5 20 10 42 10 49 0 8 -7 27 -17 42 -9 16 -27 33 -40 39 -13 6 -36 11
-51 11z m4 -61 c5 0 15 -4 22 -11 7 -7 12 -21 12 -33 0 -12 -17 -37 -37 -57
-21 -20 -58 -46 -83 -57 -25 -11 -62 -21 -82 -21 -21 0 -38 5 -38 11 0 6 13
30 30 54 16 24 52 57 78 73 27 16 58 32 68 35 10 2 24 5 30 6z"/>
</g>
</svg>
