<?xml version="1.0" standalone="no"?>
<!DOCTYPE svg PUBLIC "-//W3C//DTD SVG 20010904//EN"
 "http://www.w3.org/TR/2001/REC-SVG-20010904/DTD/svg10.dtd">
<svg version="1.0" xmlns="http://www.w3.org/2000/svg"
 width="166.000000pt" height="180.000000pt" viewBox="0 0 166.000000 180.000000"
 preserveAspectRatio="xMidYMid meet">
<metadata>
Created by potrace 1.16, written by Peter Selinger 2001-2019
</metadata>
<g transform="translate(0.000000,180.000000) scale(0.100000,-0.100000)"
fill="#000000" stroke="none">
<path d="M568 879 c-7 0 -26 -5 -43 -11 -16 -6 -55 -29 -85 -51 -30 -22 -70
-54 -89 -71 -18 -17 -44 -48 -57 -68 -14 -22 -24 -53 -24 -73 0 -22 8 -43 20
-55 11 -11 27 -20 36 -20 11 0 14 5 9 18 -4 9 -9 24 -12 34 -3 9 3 32 12 52
10 20 43 60 75 89 32 30 77 63 101 75 33 17 46 19 57 10 10 -9 13 -29 10 -78
-3 -51 -13 -84 -47 -153 -23 -49 -40 -95 -37 -103 3 -8 16 -14 29 -14 14 0 29
6 35 13 6 6 26 44 45 82 22 42 57 90 89 121 29 28 64 58 78 68 13 9 35 16 47
16 12 0 27 -9 33 -19 5 -11 10 -34 10 -51 0 -17 -7 -63 -16 -102 l-16 -72 36
-33 c32 -30 41 -33 74 -27 20 3 41 10 46 14 4 5 5 13 2 19 -4 6 -18 11 -31 11
-13 0 -31 7 -40 17 -12 12 -15 26 -10 52 3 20 8 72 11 117 l6 81 -32 26 c-22
19 -43 27 -68 27 -23 0 -57 -12 -89 -30 -28 -16 -54 -34 -58 -40 -3 -5 -10
-10 -15 -10 -6 0 -13 19 -17 42 -4 27 -17 53 -34 70 -15 16 -33 28 -41 27z"/>
</g>
</svg>
