<?xml version="1.0" standalone="no"?>
<!DOCTYPE svg PUBLIC "-//W3C//DTD SVG 20010904//EN"
 "http://www.w3.org/TR/2001/REC-SVG-20010904/DTD/svg10.dtd">
<svg version="1.0" xmlns="http://www.w3.org/2000/svg"
 width="163.000000pt" height="181.000000pt" viewBox="0 0 163.000000 181.000000"
 preserveAspectRatio="xMidYMid meet">
<metadata>
Created by potrace 1.16, written by Peter Selinger 2001-2019
</metadata>
<g transform="translate(0.000000,181.000000) scale(0.100000,-0.100000)"
fill="#000000" stroke="none">
<path d="M762 1600 c-13 0 -46 -40 -107 -132 -49 -73 -115 -168 -148 -211 -32
-43 -65 -81 -72 -83 -7 -3 -16 -12 -19 -20 -3 -8 -3 -21 0 -29 4 -8 18 -15 33
-15 18 0 39 12 63 38 19 20 65 80 101 132 36 52 78 113 94 134 15 22 33 41 39
43 6 2 16 -9 22 -24 6 -15 22 -68 37 -118 15 -49 32 -105 37 -123 6 -18 17
-36 25 -39 8 -3 25 -1 39 5 14 7 24 20 24 32 0 12 -15 65 -34 118 -18 53 -42
131 -52 172 -11 46 -27 83 -40 97 -13 13 -32 23 -42 23z"/>
</g>
</svg>
