<?xml version="1.0" standalone="no"?>
<!DOCTYPE svg PUBLIC "-//W3C//DTD SVG 20010904//EN"
 "http://www.w3.org/TR/2001/REC-SVG-20010904/DTD/svg10.dtd">
<svg version="1.0" xmlns="http://www.w3.org/2000/svg"
 width="155.000000pt" height="171.000000pt" viewBox="0 0 155.000000 171.000000"
 preserveAspectRatio="xMidYMid meet">
<metadata>
Created by potrace 1.16, written by Peter Selinger 2001-2019
</metadata>
<g transform="translate(0.000000,171.000000) scale(0.100000,-0.100000)"
fill="#000000" stroke="none">
<path d="M730 1389 c-19 0 -59 -7 -88 -15 -29 -7 -66 -21 -82 -29 -16 -8 -51
-37 -79 -65 -33 -33 -57 -69 -71 -107 -12 -32 -25 -86 -27 -121 -3 -34 0 -97
7 -139 7 -43 20 -97 29 -119 9 -23 40 -68 69 -99 44 -48 54 -55 67 -45 11 9
15 35 15 105 0 52 2 99 5 107 4 9 28 13 85 13 79 0 79 0 202 -121 68 -66 148
-141 179 -167 31 -26 66 -47 77 -47 11 0 24 5 27 10 3 6 4 18 1 28 -3 9 -23
28 -43 42 -20 14 -98 85 -172 158 -136 132 -136 132 -84 180 29 26 60 64 68
84 8 21 15 66 15 101 0 51 -6 76 -31 126 -25 51 -40 67 -82 91 -32 18 -66 30
-87 29z m6 -60 c12 0 39 -12 61 -28 27 -20 47 -45 58 -75 12 -31 16 -63 13
-101 -3 -41 -13 -67 -34 -96 -16 -23 -41 -48 -55 -57 -27 -15 -28 -15 -76 35
-30 31 -60 52 -81 56 -32 7 -32 7 -32 96 0 49 4 101 9 114 5 13 22 29 38 35
15 6 39 13 53 15 14 2 34 5 46 6z m-208 -179 c2 -47 -2 -109 -8 -138 -6 -29
-9 -70 -6 -90 4 -20 3 -57 -2 -82 -8 -45 -8 -45 -24 -20 -9 14 -22 54 -27 90
-6 36 -11 87 -11 113 0 27 7 73 16 102 8 30 25 66 37 82 22 28 22 28 25 -57z
m103 -167 c17 -10 35 -26 40 -35 8 -16 5 -18 -28 -18 -21 0 -44 4 -52 9 -12 8
-13 14 -3 36 12 26 12 26 43 8z"/>
</g>
</svg>
