<?xml version="1.0" standalone="no"?>
<!DOCTYPE svg PUBLIC "-//W3C//DTD SVG 20010904//EN"
 "http://www.w3.org/TR/2001/REC-SVG-20010904/DTD/svg10.dtd">
<svg version="1.0" xmlns="http://www.w3.org/2000/svg"
 width="165.000000pt" height="179.000000pt" viewBox="0 0 165.000000 179.000000"
 preserveAspectRatio="xMidYMid meet">
<metadata>
Created by potrace 1.16, written by Peter Selinger 2001-2019
</metadata>
<g transform="translate(0.000000,179.000000) scale(0.100000,-0.100000)"
fill="#000000" stroke="none">
<path d="M917 1308 c-23 3 -30 -2 -42 -32 -8 -19 -15 -42 -15 -51 0 -9 -7 -51
-16 -93 -9 -43 -30 -102 -47 -132 -17 -30 -53 -88 -80 -128 -28 -42 -73 -92
-104 -117 -31 -24 -80 -53 -110 -64 -30 -12 -69 -21 -87 -21 -21 0 -40 8 -52
21 -13 14 -18 36 -18 72 0 34 7 64 19 85 11 18 49 53 85 77 39 26 82 46 108
50 28 5 48 3 57 -5 8 -7 15 -23 15 -35 0 -12 -10 -29 -22 -38 -17 -11 -20 -18
-12 -27 7 -7 25 -9 48 -4 27 5 40 13 47 31 5 13 9 36 9 49 0 15 -12 38 -29 55
-26 26 -36 29 -92 29 -42 0 -76 -7 -104 -20 -23 -11 -70 -45 -104 -76 -34 -31
-68 -69 -76 -85 -8 -15 -15 -52 -15 -81 0 -30 7 -68 18 -88 10 -20 32 -42 52
-52 19 -10 49 -18 67 -18 18 0 58 10 90 22 32 12 69 28 83 37 15 9 58 42 97
75 39 32 77 70 84 85 13 26 13 26 19 -19 3 -25 9 -51 13 -57 5 -7 16 -13 26
-13 10 0 35 11 55 25 20 14 40 25 44 25 4 0 17 -16 29 -35 13 -19 37 -42 55
-51 18 -9 60 -19 93 -22 48 -3 72 0 109 17 28 12 46 26 44 33 -3 7 -20 13 -39
14 -19 0 -46 -3 -60 -7 -15 -4 -48 -3 -73 3 -29 6 -53 19 -66 35 -11 14 -20
36 -20 49 0 12 15 42 33 66 19 24 39 52 44 63 8 13 8 26 2 37 -5 10 -18 18
-28 18 -10 0 -34 -18 -52 -41 -19 -22 -56 -63 -82 -91 -29 -31 -51 -48 -57
-42 -5 5 -3 37 5 79 7 39 27 112 45 164 20 60 32 117 33 160 2 65 2 66 -26 69z"/>
</g>
</svg>
