<?xml version="1.0" standalone="no"?>
<!DOCTYPE svg PUBLIC "-//W3C//DTD SVG 20010904//EN"
 "http://www.w3.org/TR/2001/REC-SVG-20010904/DTD/svg10.dtd">
<svg version="1.0" xmlns="http://www.w3.org/2000/svg"
 width="166.000000pt" height="179.000000pt" viewBox="0 0 166.000000 179.000000"
 preserveAspectRatio="xMidYMid meet">
<metadata>
Created by potrace 1.16, written by Peter Selinger 2001-2019
</metadata>
<g transform="translate(0.000000,179.000000) scale(0.100000,-0.100000)"
fill="#000000" stroke="none">
<path d="M982 1150 c-12 0 -25 -6 -27 -12 -2 -7 -6 -35 -7 -63 l-3 -50 -85
-13 c-54 -8 -138 -11 -230 -8 -80 2 -154 8 -166 11 -13 4 -27 1 -38 -10 -9 -9
-16 -20 -16 -25 0 -5 7 -16 16 -24 13 -14 45 -16 202 -15 103 0 214 4 247 9
33 4 64 4 68 0 5 -4 11 -29 15 -56 6 -41 11 -50 30 -52 13 -2 52 13 90 34 37
20 90 45 117 55 28 9 54 24 59 32 7 10 6 24 -1 40 -6 13 -31 33 -55 44 -23 11
-64 23 -91 27 -37 6 -53 14 -75 42 -16 21 -36 34 -50 34z"/>
</g>
</svg>
