<?xml version="1.0" standalone="no"?>
<!DOCTYPE svg PUBLIC "-//W3C//DTD SVG 20010904//EN"
 "http://www.w3.org/TR/2001/REC-SVG-20010904/DTD/svg10.dtd">
<svg version="1.0" xmlns="http://www.w3.org/2000/svg"
 width="152.000000pt" height="167.000000pt" viewBox="0 0 152.000000 167.000000"
 preserveAspectRatio="xMidYMid meet">
<metadata>
Created by potrace 1.16, written by Peter Selinger 2001-2019
</metadata>
<g transform="translate(0.000000,167.000000) scale(0.100000,-0.100000)"
fill="#000000" stroke="none">
<path d="M777 1270 c-8 0 -17 -3 -20 -7 -4 -3 -7 -18 -7 -33 0 -15 -7 -40 -15
-56 -8 -16 -26 -85 -40 -154 -15 -69 -28 -128 -31 -131 -2 -3 -33 -9 -70 -13
-37 -4 -94 -13 -127 -21 -33 -8 -64 -20 -69 -27 -4 -7 -7 -20 -5 -28 1 -8 13
-17 27 -19 14 -1 48 2 75 8 28 5 72 13 99 17 49 7 49 7 43 -31 -3 -21 -10 -42
-14 -46 -4 -4 -66 -11 -138 -16 -123 -8 -130 -9 -133 -30 -2 -14 4 -26 17 -33
14 -7 56 -8 128 -4 106 7 106 7 100 -27 -3 -19 -13 -74 -22 -123 -12 -67 -13
-92 -4 -102 6 -8 20 -14 30 -14 12 0 26 15 39 41 18 34 19 45 9 73 -7 21 -9
53 -5 89 4 30 13 60 20 66 7 6 47 14 90 17 65 6 76 5 76 -9 0 -9 -20 -98 -45
-199 -25 -101 -48 -203 -51 -228 -5 -35 -2 -49 10 -59 13 -11 19 -11 32 -1 8
8 20 23 26 34 6 11 17 42 24 68 9 35 9 56 2 76 -8 21 -4 54 22 160 17 72 40
142 49 153 16 20 30 22 144 27 124 5 126 5 132 30 4 16 1 30 -8 39 -12 13 -29
12 -123 -1 -60 -8 -113 -11 -118 -6 -4 4 -5 22 -1 40 4 19 15 34 28 39 12 5
71 11 130 14 104 5 109 4 137 -20 16 -13 38 -23 47 -21 10 2 19 11 21 20 2 9
-10 31 -27 50 -30 33 -30 33 -161 31 -132 -2 -132 -2 -125 40 4 23 16 69 27
102 11 33 31 86 45 117 14 32 23 65 19 73 -3 9 -14 15 -23 13 -9 -2 -32 -29
-51 -62 -20 -34 -46 -104 -63 -169 -16 -61 -34 -116 -39 -121 -4 -4 -40 -11
-79 -14 -59 -4 -72 -2 -77 11 -3 9 8 69 26 134 17 65 36 135 42 156 8 28 8 45
0 63 -7 13 -18 24 -25 24z m14 -450 c82 0 82 0 76 -36 -3 -20 -7 -38 -9 -39
-2 -2 -40 -6 -85 -10 -79 -7 -83 -6 -83 13 0 12 4 32 10 46 9 25 13 26 91 26z"/>
</g>
</svg>
