<?xml version="1.0" standalone="no"?>
<!DOCTYPE svg PUBLIC "-//W3C//DTD SVG 20010904//EN"
 "http://www.w3.org/TR/2001/REC-SVG-20010904/DTD/svg10.dtd">
<svg version="1.0" xmlns="http://www.w3.org/2000/svg"
 width="156.000000pt" height="168.000000pt" viewBox="0 0 156.000000 168.000000"
 preserveAspectRatio="xMidYMid meet">
<metadata>
Created by potrace 1.16, written by Peter Selinger 2001-2019
</metadata>
<g transform="translate(0.000000,168.000000) scale(0.100000,-0.100000)"
fill="#000000" stroke="none">
<path d="M856 1420 c-7 0 -51 -43 -97 -96 -46 -53 -102 -124 -125 -158 -22
-33 -59 -108 -81 -166 -22 -58 -45 -125 -51 -150 -6 -25 -14 -97 -18 -160 -4
-76 -2 -147 6 -205 7 -50 21 -118 32 -153 10 -34 28 -79 40 -100 12 -20 33
-50 47 -65 14 -16 41 -35 59 -42 18 -8 39 -12 47 -9 8 4 15 10 15 14 0 4 -13
13 -29 20 -16 6 -38 21 -49 33 -11 12 -34 49 -50 82 -17 33 -40 100 -52 148
-15 65 -20 122 -20 220 0 73 5 152 10 177 6 25 31 101 57 170 34 95 59 142 99
196 29 39 85 101 124 137 61 59 69 70 60 87 -6 11 -17 20 -24 20z"/>
</g>
</svg>
