<?xml version="1.0" standalone="no"?>
<!DOCTYPE svg PUBLIC "-//W3C//DTD SVG 20010904//EN"
 "http://www.w3.org/TR/2001/REC-SVG-20010904/DTD/svg10.dtd">
<svg version="1.0" xmlns="http://www.w3.org/2000/svg"
 width="153.000000pt" height="166.000000pt" viewBox="0 0 153.000000 166.000000"
 preserveAspectRatio="xMidYMid meet">
<metadata>
Created by potrace 1.16, written by Peter Selinger 2001-2019
</metadata>
<g transform="translate(0.000000,166.000000) scale(0.100000,-0.100000)"
fill="#000000" stroke="none">
<path d="M743 1158 c-7 2 -17 -8 -23 -23 -5 -14 -10 -39 -10 -55 0 -23 6 -31
24 -36 14 -3 30 -3 36 1 7 4 8 11 1 19 -5 6 -11 29 -13 50 -2 22 -9 41 -15 44z
M842 1150 c-5 0 -14 -11 -20 -25 -7 -14 -12 -36 -12 -48 0 -12 4 -28 9 -36 5
-7 14 -10 20 -7 6 4 11 32 11 62 0 30 -4 54 -8 54z M652 904 c-5 3 -14 0 -19
-7 -6 -6 -22 -37 -36 -67 -15 -30 -35 -91 -46 -134 -11 -44 -17 -92 -14 -108
3 -16 17 -36 30 -45 20 -13 31 -14 62 -4 21 6 59 30 86 53 39 35 50 40 64 30
9 -7 30 -19 48 -27 18 -8 43 -15 56 -15 13 0 32 9 42 20 19 21 19 21 -21 15
-31 -5 -43 -2 -61 15 -13 11 -23 31 -23 43 0 12 12 54 25 92 14 39 25 80 25
92 0 12 -5 25 -11 29 -6 3 -17 0 -24 -7 -6 -8 -24 -48 -39 -89 -15 -41 -39
-90 -52 -108 -14 -18 -37 -44 -52 -58 -15 -14 -40 -32 -56 -41 -27 -14 -31
-14 -43 3 -10 13 -12 32 -9 57 4 21 20 67 38 104 17 36 33 85 36 108 2 23 0
45 -6 49z"/>
</g>
</svg>
