<?xml version="1.0" standalone="no"?>
<!DOCTYPE svg PUBLIC "-//W3C//DTD SVG 20010904//EN"
 "http://www.w3.org/TR/2001/REC-SVG-20010904/DTD/svg10.dtd">
<svg version="1.0" xmlns="http://www.w3.org/2000/svg"
 width="157.000000pt" height="172.000000pt" viewBox="0 0 157.000000 172.000000"
 preserveAspectRatio="xMidYMid meet">
<metadata>
Created by potrace 1.16, written by Peter Selinger 2001-2019
</metadata>
<g transform="translate(0.000000,172.000000) scale(0.100000,-0.100000)"
fill="#000000" stroke="none">
<path d="M725 1170 c-17 0 -26 -7 -29 -22 -3 -13 -7 -39 -10 -58 -2 -19 -14
-102 -25 -185 -12 -82 -24 -202 -28 -266 -6 -117 -6 -117 20 -134 18 -11 36
-15 56 -10 18 4 51 28 80 58 49 51 49 51 65 16 8 -19 21 -41 28 -49 7 -9 24
-24 38 -33 16 -11 44 -17 80 -17 37 0 65 6 88 20 18 11 32 28 32 39 0 11 -8
22 -18 25 -11 4 -36 -1 -57 -10 -21 -8 -49 -13 -62 -9 -13 3 -32 20 -43 38
-13 21 -20 50 -20 83 0 27 9 78 21 113 20 60 21 63 3 82 -10 11 -27 19 -37 17
-13 -2 -25 -17 -33 -40 -7 -20 -36 -75 -64 -122 -29 -46 -63 -94 -75 -106 -24
-22 -24 -22 -30 14 -5 22 2 100 15 194 13 86 27 186 32 222 5 36 9 77 9 92 0
15 -2 32 -6 38 -3 5 -17 10 -30 10z"/>
</g>
</svg>
