<?xml version="1.0" standalone="no"?>
<!DOCTYPE svg PUBLIC "-//W3C//DTD SVG 20010904//EN"
 "http://www.w3.org/TR/2001/REC-SVG-20010904/DTD/svg10.dtd">
<svg version="1.0" xmlns="http://www.w3.org/2000/svg"
 width="156.000000pt" height="169.000000pt" viewBox="0 0 156.000000 169.000000"
 preserveAspectRatio="xMidYMid meet">
<metadata>
Created by potrace 1.16, written by Peter Selinger 2001-2019
</metadata>
<g transform="translate(0.000000,169.000000) scale(0.100000,-0.100000)"
fill="#000000" stroke="none">
<path d="M809 1180 c-11 0 -24 -10 -28 -22 -5 -13 -16 -52 -25 -88 -8 -36 -20
-103 -26 -150 -7 -47 -19 -137 -27 -200 -8 -63 -17 -132 -20 -153 -3 -21 -1
-43 5 -49 5 -5 18 -7 29 -4 10 3 25 16 32 28 11 17 14 50 12 123 -1 55 3 123
8 150 5 28 23 114 40 193 17 78 28 149 24 157 -3 8 -14 15 -24 15z"/>
</g>
</svg>
