<?xml version="1.0" standalone="no"?>
<!DOCTYPE svg PUBLIC "-//W3C//DTD SVG 20010904//EN"
 "http://www.w3.org/TR/2001/REC-SVG-20010904/DTD/svg10.dtd">
<svg version="1.0" xmlns="http://www.w3.org/2000/svg"
 width="153.000000pt" height="168.000000pt" viewBox="0 0 153.000000 168.000000"
 preserveAspectRatio="xMidYMid meet">
<metadata>
Created by potrace 1.16, written by Peter Selinger 2001-2019
</metadata>
<g transform="translate(0.000000,168.000000) scale(0.100000,-0.100000)"
fill="#000000" stroke="none">
<path d="M875 1280 c-7 0 -40 -29 -73 -65 -34 -36 -80 -92 -102 -125 -23 -34
-57 -91 -77 -128 -20 -37 -42 -89 -49 -117 -8 -27 -14 -85 -14 -127 0 -73 2
-78 33 -111 25 -27 43 -36 84 -42 29 -4 67 -4 85 0 18 4 51 16 74 26 23 9 61
34 83 54 25 23 45 52 51 75 7 25 7 47 1 64 -6 14 -28 37 -49 51 -22 14 -60 28
-88 31 -33 4 -61 1 -86 -9 -20 -9 -57 -34 -81 -56 -24 -23 -48 -41 -52 -41 -4
0 -5 19 -3 43 3 24 18 72 33 108 16 35 42 83 58 106 16 23 40 44 52 47 13 3
42 33 68 68 24 35 51 77 59 93 8 17 13 36 11 43 -3 6 -11 12 -18 12z m-55
-440 c22 0 50 -10 73 -25 33 -23 37 -30 37 -69 0 -38 -5 -48 -37 -76 -20 -18
-57 -42 -81 -53 -33 -14 -60 -18 -103 -15 -37 3 -65 11 -78 22 -10 9 -22 33
-26 52 -3 19 -3 44 0 54 4 11 15 20 27 20 11 0 36 14 56 31 19 17 49 37 66 45
17 7 47 13 66 14z"/>
</g>
</svg>
