<?xml version="1.0" standalone="no"?>
<!DOCTYPE svg PUBLIC "-//W3C//DTD SVG 20010904//EN"
 "http://www.w3.org/TR/2001/REC-SVG-20010904/DTD/svg10.dtd">
<svg version="1.0" xmlns="http://www.w3.org/2000/svg"
 width="157.000000pt" height="170.000000pt" viewBox="0 0 157.000000 170.000000"
 preserveAspectRatio="xMidYMid meet">
<metadata>
Created by potrace 1.16, written by Peter Selinger 2001-2019
</metadata>
<g transform="translate(0.000000,170.000000) scale(0.100000,-0.100000)"
fill="#000000" stroke="none">
<path d="M828 900 c-2 0 -25 -11 -53 -24 -27 -13 -71 -46 -97 -72 -25 -27 -58
-67 -72 -88 -15 -22 -26 -53 -26 -72 0 -20 8 -42 19 -53 11 -11 39 -25 63 -31
31 -9 52 -9 80 -1 20 6 50 23 66 36 17 14 32 25 35 25 3 0 8 -55 11 -122 3
-68 9 -166 12 -218 3 -52 11 -101 16 -107 6 -7 16 -13 24 -13 7 0 23 10 34 23
17 17 20 30 16 57 -2 19 -12 80 -21 135 -11 70 -14 127 -10 190 4 50 13 126
21 170 8 44 14 92 14 108 0 23 -4 27 -29 27 -16 0 -45 7 -64 15 -20 8 -38 15
-39 15z m-12 -80 c7 0 15 -25 19 -56 6 -53 5 -58 -22 -86 -15 -16 -45 -39 -66
-49 -21 -11 -46 -17 -57 -14 -10 3 -23 12 -30 20 -9 10 -8 21 5 44 8 17 30 47
48 68 17 20 45 45 62 55 16 10 35 18 41 18z"/>
</g>
</svg>
