<?xml version="1.0" standalone="no"?>
<!DOCTYPE svg PUBLIC "-//W3C//DTD SVG 20010904//EN"
 "http://www.w3.org/TR/2001/REC-SVG-20010904/DTD/svg10.dtd">
<svg version="1.0" xmlns="http://www.w3.org/2000/svg"
 width="156.000000pt" height="170.000000pt" viewBox="0 0 156.000000 170.000000"
 preserveAspectRatio="xMidYMid meet">
<metadata>
Created by potrace 1.16, written by Peter Selinger 2001-2019
</metadata>
<g transform="translate(0.000000,170.000000) scale(0.100000,-0.100000)"
fill="#000000" stroke="none">
<path d="M630 1110 c-13 7 -21 6 -29 -4 -8 -9 -8 -22 -2 -38 5 -13 15 -29 22
-35 8 -6 35 -13 60 -17 31 -5 61 -2 89 8 24 8 46 13 50 11 3 -2 3 -41 -1 -86
-4 -45 -5 -88 -2 -95 3 -8 0 -94 -7 -191 -6 -98 -18 -218 -27 -266 -11 -62
-21 -94 -36 -108 -11 -10 -35 -21 -53 -25 -18 -3 -81 2 -141 11 -63 9 -118 24
-133 34 -14 9 -33 20 -42 24 -9 3 -22 -1 -28 -9 -10 -11 -9 -19 4 -39 10 -16
34 -30 69 -39 28 -9 97 -22 152 -31 59 -10 119 -13 145 -10 25 4 53 11 62 16
10 5 24 22 32 38 8 15 24 75 36 132 16 79 23 171 31 389 6 156 8 294 5 306 -3
12 -13 25 -22 28 -9 4 -46 -5 -81 -19 -44 -18 -74 -24 -94 -20 -16 4 -31 11
-34 16 -4 5 -14 13 -25 19z"/>
</g>
</svg>
