<?xml version="1.0" standalone="no"?>
<!DOCTYPE svg PUBLIC "-//W3C//DTD SVG 20010904//EN"
 "http://www.w3.org/TR/2001/REC-SVG-20010904/DTD/svg10.dtd">
<svg version="1.0" xmlns="http://www.w3.org/2000/svg"
 width="154.000000pt" height="168.000000pt" viewBox="0 0 154.000000 168.000000"
 preserveAspectRatio="xMidYMid meet">
<metadata>
Created by potrace 1.16, written by Peter Selinger 2001-2019
</metadata>
<g transform="translate(0.000000,168.000000) scale(0.100000,-0.100000)"
fill="#000000" stroke="none">
<path d="M836 809 c-12 0 -39 -6 -61 -13 -26 -7 -47 -23 -62 -45 -15 -22 -21
-42 -17 -55 4 -12 11 -27 16 -33 6 -7 25 -15 43 -19 21 -4 43 0 62 10 17 8 38
31 47 50 9 19 16 45 16 58 0 13 -5 29 -12 36 -7 7 -21 12 -32 11z M798 466
c-43 5 -58 3 -71 -11 -9 -9 -17 -27 -17 -39 0 -13 9 -35 21 -50 15 -19 30 -26
55 -26 19 0 48 7 64 15 16 8 34 24 40 34 5 11 7 27 4 36 -4 8 -14 20 -24 25
-10 5 -42 12 -72 16z"/>
</g>
</svg>
