<?xml version="1.0" standalone="no"?>
<!DOCTYPE svg PUBLIC "-//W3C//DTD SVG 20010904//EN"
 "http://www.w3.org/TR/2001/REC-SVG-20010904/DTD/svg10.dtd">
<svg version="1.0" xmlns="http://www.w3.org/2000/svg"
 width="153.000000pt" height="167.000000pt" viewBox="0 0 153.000000 167.000000"
 preserveAspectRatio="xMidYMid meet">
<metadata>
Created by potrace 1.16, written by Peter Selinger 2001-2019
</metadata>
<g transform="translate(0.000000,167.000000) scale(0.100000,-0.100000)"
fill="#000000" stroke="none">
<path d="M917 1488 c-12 -1 -41 -3 -65 -5 -29 -3 -62 -17 -105 -47 -48 -32
-72 -59 -106 -114 -31 -51 -45 -86 -49 -121 -3 -32 1 -59 12 -82 10 -21 48
-57 97 -94 45 -33 94 -75 111 -93 21 -25 28 -42 26 -65 -2 -23 -13 -38 -38
-55 -29 -20 -43 -23 -83 -18 -26 3 -54 3 -62 -1 -8 -3 -15 -11 -15 -19 0 -7 9
-18 19 -24 11 -5 43 -10 71 -10 28 0 65 6 83 14 18 7 44 26 60 41 22 23 27 37
27 78 0 48 -2 53 -58 106 -32 31 -86 78 -121 105 -63 48 -63 48 -59 105 3 43
13 71 41 116 20 33 55 73 79 90 38 26 51 30 108 29 38 -1 68 3 72 10 4 6 8 14
8 18 0 4 -7 14 -16 22 -8 9 -25 15 -37 14z M746 949 c-17 -1 -48 -5 -68 -11
-25 -7 -49 -24 -74 -55 -25 -31 -38 -58 -41 -87 -4 -31 1 -54 17 -87 12 -24
67 -88 121 -142 82 -81 99 -102 99 -128 0 -17 -4 -39 -10 -49 -5 -10 -32 -26
-60 -35 -35 -12 -82 -16 -160 -16 -103 1 -110 0 -110 -18 0 -15 9 -22 36 -27
20 -4 84 -4 143 -2 60 3 121 12 142 21 20 8 45 27 57 42 17 21 22 41 22 83 0
55 0 55 -99 151 -55 53 -106 110 -115 128 -9 18 -16 49 -16 71 0 30 7 45 33
70 23 22 43 32 64 32 17 0 38 7 47 15 8 9 13 22 10 30 -4 9 -18 15 -38 14z"/>
</g>
</svg>
