<?xml version="1.0" standalone="no"?>
<!DOCTYPE svg PUBLIC "-//W3C//DTD SVG 20010904//EN"
 "http://www.w3.org/TR/2001/REC-SVG-20010904/DTD/svg10.dtd">
<svg version="1.0" xmlns="http://www.w3.org/2000/svg"
 width="153.000000pt" height="168.000000pt" viewBox="0 0 153.000000 168.000000"
 preserveAspectRatio="xMidYMid meet">
<metadata>
Created by potrace 1.16, written by Peter Selinger 2001-2019
</metadata>
<g transform="translate(0.000000,168.000000) scale(0.100000,-0.100000)"
fill="#000000" stroke="none">
<path d="M790 1330 c-4 0 -13 -6 -19 -14 -7 -8 -9 -29 -5 -54 3 -22 -1 -136
-10 -254 -8 -117 -20 -292 -26 -388 -6 -96 -11 -243 -11 -327 -1 -83 2 -156 5
-162 5 -8 13 -8 27 -1 18 10 19 23 19 212 0 111 5 299 10 418 6 118 15 259 20
313 6 54 17 111 25 127 8 16 15 40 15 53 0 13 -9 36 -21 51 -11 14 -24 26 -29
26z"/>
</g>
</svg>
