<?xml version="1.0" standalone="no"?>
<!DOCTYPE svg PUBLIC "-//W3C//DTD SVG 20010904//EN"
 "http://www.w3.org/TR/2001/REC-SVG-20010904/DTD/svg10.dtd">
<svg version="1.0" xmlns="http://www.w3.org/2000/svg"
 width="155.000000pt" height="170.000000pt" viewBox="0 0 155.000000 170.000000"
 preserveAspectRatio="xMidYMid meet">
<metadata>
Created by potrace 1.16, written by Peter Selinger 2001-2019
</metadata>
<g transform="translate(0.000000,170.000000) scale(0.100000,-0.100000)"
fill="#000000" stroke="none">
<path d="M508 1340 c-10 0 -21 -7 -25 -16 -3 -8 3 -34 13 -57 11 -23 44 -73
75 -112 31 -38 73 -86 94 -105 20 -19 57 -60 81 -91 43 -56 43 -56 -13 -180
-31 -68 -74 -158 -96 -199 -22 -41 -51 -95 -63 -119 -13 -24 -24 -51 -24 -60
0 -10 5 -22 12 -29 7 -7 19 -12 28 -12 9 0 29 13 44 29 21 22 26 34 20 55 -5
20 7 55 52 149 32 67 109 221 169 342 61 121 122 245 134 276 16 37 21 66 17
83 -5 19 -13 26 -32 26 -20 0 -29 -9 -45 -47 -12 -27 -32 -79 -46 -118 -14
-38 -36 -91 -50 -118 -20 -40 -26 -46 -41 -38 -10 5 -53 45 -94 88 -42 43 -90
97 -107 120 -17 24 -31 46 -31 50 0 4 -12 24 -26 45 -15 21 -35 38 -46 38z"/>
</g>
</svg>
