<?xml version="1.0" standalone="no"?>
<!DOCTYPE svg PUBLIC "-//W3C//DTD SVG 20010904//EN"
 "http://www.w3.org/TR/2001/REC-SVG-20010904/DTD/svg10.dtd">
<svg version="1.0" xmlns="http://www.w3.org/2000/svg"
 width="154.000000pt" height="168.000000pt" viewBox="0 0 154.000000 168.000000"
 preserveAspectRatio="xMidYMid meet">
<metadata>
Created by potrace 1.16, written by Peter Selinger 2001-2019
</metadata>
<g transform="translate(0.000000,168.000000) scale(0.100000,-0.100000)"
fill="#000000" stroke="none">
<path d="M755 1180 c-2 0 -19 -15 -38 -32 -19 -18 -51 -61 -72 -95 -33 -55
-37 -68 -32 -109 3 -34 13 -54 38 -81 19 -19 62 -50 97 -70 35 -19 71 -47 80
-61 9 -14 16 -42 16 -62 -1 -20 -9 -48 -18 -62 -9 -14 -34 -33 -56 -43 -26
-12 -51 -16 -76 -12 -20 3 -52 18 -71 33 -19 14 -43 40 -54 58 -12 19 -19 49
-19 79 0 26 -4 47 -8 47 -5 0 -17 -9 -26 -19 -13 -15 -16 -28 -10 -57 4 -22
13 -51 20 -65 7 -14 30 -41 50 -59 21 -18 56 -41 78 -51 23 -10 52 -19 66 -19
14 0 48 11 75 24 28 13 58 32 68 44 10 11 24 40 31 64 10 33 11 53 2 88 -10
40 -18 48 -91 96 -44 28 -93 63 -109 78 -25 24 -28 32 -23 72 3 28 13 55 27
69 17 18 43 27 114 39 50 9 136 20 190 26 54 5 103 13 109 19 5 5 7 17 4 25
-5 11 -19 16 -49 16 -23 0 -93 -5 -155 -12 -111 -11 -114 -10 -134 10 -11 12
-22 22 -24 22z"/>
</g>
</svg>
