<?xml version="1.0" standalone="no"?>
<!DOCTYPE svg PUBLIC "-//W3C//DTD SVG 20010904//EN"
 "http://www.w3.org/TR/2001/REC-SVG-20010904/DTD/svg10.dtd">
<svg version="1.0" xmlns="http://www.w3.org/2000/svg"
 width="156.000000pt" height="168.000000pt" viewBox="0 0 156.000000 168.000000"
 preserveAspectRatio="xMidYMid meet">
<metadata>
Created by potrace 1.16, written by Peter Selinger 2001-2019
</metadata>
<g transform="translate(0.000000,168.000000) scale(0.100000,-0.100000)"
fill="#000000" stroke="none">
<path d="M1255 969 c-5 -1 -30 -7 -54 -15 -24 -7 -113 -25 -196 -39 -83 -14
-194 -25 -246 -26 -52 -1 -105 -4 -119 -8 -15 -4 -26 -15 -28 -28 -2 -13 4
-26 16 -32 14 -7 55 -6 138 4 66 8 157 20 204 26 47 6 113 18 148 25 35 8 88
14 118 14 36 0 54 4 55 13 1 6 0 21 -1 32 -1 11 -7 23 -14 27 -6 4 -15 7 -21
7z M1155 826 c-44 1 -96 -1 -115 -3 -19 -2 -82 -12 -140 -23 -58 -11 -142 -24
-188 -30 -46 -6 -90 -14 -98 -17 -8 -3 -14 -13 -14 -23 0 -10 9 -21 20 -25 10
-3 36 -3 57 0 21 4 92 18 158 31 66 14 160 28 208 31 58 4 106 2 143 -7 39
-10 58 -10 65 -3 8 8 7 19 -3 40 -13 27 -16 28 -93 29z"/>
</g>
</svg>
