<?xml version="1.0" standalone="no"?>
<!DOCTYPE svg PUBLIC "-//W3C//DTD SVG 20010904//EN"
 "http://www.w3.org/TR/2001/REC-SVG-20010904/DTD/svg10.dtd">
<svg version="1.0" xmlns="http://www.w3.org/2000/svg"
 width="155.000000pt" height="170.000000pt" viewBox="0 0 155.000000 170.000000"
 preserveAspectRatio="xMidYMid meet">
<metadata>
Created by potrace 1.16, written by Peter Selinger 2001-2019
</metadata>
<g transform="translate(0.000000,170.000000) scale(0.100000,-0.100000)"
fill="#000000" stroke="none">
<path d="M682 1158 c-6 2 -21 -11 -32 -30 -11 -18 -39 -80 -61 -138 -23 -58
-52 -147 -65 -199 -20 -79 -23 -103 -15 -152 5 -32 15 -67 21 -78 6 -12 22
-29 37 -38 18 -12 44 -17 82 -16 31 1 124 16 208 33 84 16 164 35 178 42 14 6
25 17 25 25 0 7 -10 13 -22 13 -13 0 -97 -14 -188 -30 -91 -17 -183 -30 -206
-30 -28 0 -47 6 -59 20 -11 12 -19 42 -22 82 -4 47 0 82 17 138 12 41 47 131
78 199 41 92 53 127 45 139 -5 9 -15 18 -21 20z"/>
</g>
</svg>
