<?xml version="1.0" standalone="no"?>
<!DOCTYPE svg PUBLIC "-//W3C//DTD SVG 20010904//EN"
 "http://www.w3.org/TR/2001/REC-SVG-20010904/DTD/svg10.dtd">
<svg version="1.0" xmlns="http://www.w3.org/2000/svg"
 width="155.000000pt" height="168.000000pt" viewBox="0 0 155.000000 168.000000"
 preserveAspectRatio="xMidYMid meet">
<metadata>
Created by potrace 1.16, written by Peter Selinger 2001-2019
</metadata>
<g transform="translate(0.000000,168.000000) scale(0.100000,-0.100000)"
fill="#000000" stroke="none">
<path d="M1152 1519 c-15 -1 -52 -7 -82 -15 -30 -7 -108 -21 -173 -30 -65 -9
-135 -14 -157 -11 -23 3 -46 0 -56 -8 -9 -6 -14 -17 -10 -23 4 -7 36 -12 79
-12 40 0 137 11 216 25 100 18 148 22 155 15 7 -7 5 -19 -7 -39 -9 -16 -23
-75 -32 -132 -8 -57 -19 -219 -25 -359 -6 -140 -15 -320 -20 -400 -6 -80 -17
-188 -25 -240 -10 -66 -20 -99 -32 -107 -9 -7 -28 -13 -42 -14 -14 -1 -64 0
-111 1 -47 0 -123 8 -170 16 -47 9 -99 25 -117 35 -26 16 -38 18 -73 10 -23
-5 -45 -12 -48 -16 -4 -4 2 -13 12 -21 11 -8 40 -14 65 -14 25 0 83 -9 128
-20 45 -11 131 -24 190 -30 59 -5 131 -10 160 -10 29 0 55 5 59 12 4 6 9 41
10 77 2 36 8 102 13 146 6 44 16 157 21 250 6 94 15 258 20 365 5 107 14 227
20 265 6 39 15 88 21 110 6 22 20 66 31 97 11 32 17 62 13 68 -3 5 -18 10 -33
9z"/>
</g>
</svg>
