<?xml version="1.0" standalone="no"?>
<!DOCTYPE svg PUBLIC "-//W3C//DTD SVG 20010904//EN"
 "http://www.w3.org/TR/2001/REC-SVG-20010904/DTD/svg10.dtd">
<svg version="1.0" xmlns="http://www.w3.org/2000/svg"
 width="153.000000pt" height="167.000000pt" viewBox="0 0 153.000000 167.000000"
 preserveAspectRatio="xMidYMid meet">
<metadata>
Created by potrace 1.16, written by Peter Selinger 2001-2019
</metadata>
<g transform="translate(0.000000,167.000000) scale(0.100000,-0.100000)"
fill="#000000" stroke="none">
<path d="M573 1000 c-7 0 -16 -7 -20 -15 -3 -9 -3 -18 -1 -21 3 -2 52 -29 109
-59 57 -31 146 -76 197 -102 63 -33 92 -53 92 -65 0 -10 -38 -50 -87 -90 -49
-40 -121 -98 -161 -128 -40 -30 -95 -72 -123 -93 -27 -20 -49 -44 -49 -52 0
-9 9 -15 23 -15 13 0 50 18 81 40 32 23 106 82 164 133 59 51 131 112 160 135
30 23 65 42 78 42 16 0 28 8 36 25 7 15 24 29 42 33 26 7 31 13 31 38 0 23 -5
30 -23 32 -13 2 -37 -7 -57 -22 -18 -14 -44 -26 -57 -26 -13 0 -37 8 -54 19
-17 10 -41 22 -55 26 -13 4 -67 34 -120 65 -53 32 -117 67 -144 79 -26 11 -54
21 -62 21z"/>
</g>
</svg>
