<?xml version="1.0" standalone="no"?>
<!DOCTYPE svg PUBLIC "-//W3C//DTD SVG 20010904//EN"
 "http://www.w3.org/TR/2001/REC-SVG-20010904/DTD/svg10.dtd">
<svg version="1.0" xmlns="http://www.w3.org/2000/svg"
 width="152.000000pt" height="167.000000pt" viewBox="0 0 152.000000 167.000000"
 preserveAspectRatio="xMidYMid meet">
<metadata>
Created by potrace 1.16, written by Peter Selinger 2001-2019
</metadata>
<g transform="translate(0.000000,167.000000) scale(0.100000,-0.100000)"
fill="#000000" stroke="none">
<path d="M748 1108 c-9 2 -19 -1 -22 -6 -3 -5 -17 -65 -31 -133 -18 -88 -31
-129 -47 -146 -18 -19 -20 -27 -10 -45 6 -13 14 -62 17 -110 6 -82 9 -89 35
-108 19 -13 44 -20 77 -20 28 0 58 6 69 15 18 13 15 14 -31 15 -33 0 -58 7
-75 19 -21 17 -25 29 -28 90 -3 54 0 77 12 96 11 17 29 27 56 31 22 4 37 10
34 15 -3 5 -18 9 -34 9 -19 0 -31 6 -34 18 -4 10 1 54 10 98 9 43 17 97 18
119 1 29 -3 40 -16 43z"/>
</g>
</svg>
