<?xml version="1.0" standalone="no"?>
<!DOCTYPE svg PUBLIC "-//W3C//DTD SVG 20010904//EN"
 "http://www.w3.org/TR/2001/REC-SVG-20010904/DTD/svg10.dtd">
<svg version="1.0" xmlns="http://www.w3.org/2000/svg"
 width="165.000000pt" height="180.000000pt" viewBox="0 0 165.000000 180.000000"
 preserveAspectRatio="xMidYMid meet">
<metadata>
Created by potrace 1.16, written by Peter Selinger 2001-2019
</metadata>
<g transform="translate(0.000000,180.000000) scale(0.100000,-0.100000)"
fill="#000000" stroke="none">
<path d="M923 1719 c-5 0 -14 -3 -21 -6 -8 -3 -47 -50 -89 -106 -41 -55 -88
-126 -104 -158 -16 -32 -29 -72 -29 -89 0 -21 9 -41 29 -61 16 -16 35 -29 43
-29 7 0 28 14 47 31 18 17 36 43 41 57 4 15 3 37 -3 49 -5 12 -18 24 -29 26
-18 5 -18 7 -4 42 9 20 40 74 71 121 30 47 55 94 55 104 0 11 -3 20 -7 19z"/>
</g>
</svg>
