<?xml version="1.0" standalone="no"?>
<!DOCTYPE svg PUBLIC "-//W3C//DTD SVG 20010904//EN"
 "http://www.w3.org/TR/2001/REC-SVG-20010904/DTD/svg10.dtd">
<svg version="1.0" xmlns="http://www.w3.org/2000/svg"
 width="154.000000pt" height="168.000000pt" viewBox="0 0 154.000000 168.000000"
 preserveAspectRatio="xMidYMid meet">
<metadata>
Created by potrace 1.16, written by Peter Selinger 2001-2019
</metadata>
<g transform="translate(0.000000,168.000000) scale(0.100000,-0.100000)"
fill="#000000" stroke="none">
<path d="M647 908 c-10 10 -16 10 -29 0 -8 -7 -22 -31 -31 -54 -8 -22 -21 -78
-28 -123 -9 -65 -9 -95 0 -137 8 -34 20 -59 34 -69 12 -8 43 -15 70 -15 45 0
53 4 87 41 38 42 38 42 68 20 17 -11 39 -21 50 -21 11 0 30 8 42 18 13 11 20
24 16 30 -4 7 -20 12 -36 12 -19 0 -33 7 -40 19 -5 11 -10 34 -10 51 0 18 7
59 15 92 9 33 13 68 10 79 -4 10 -15 19 -25 19 -11 0 -23 -8 -29 -17 -5 -10
-16 -47 -25 -83 -9 -36 -32 -97 -51 -136 -24 -49 -42 -74 -57 -78 -17 -4 -29
1 -45 20 -18 20 -23 37 -23 82 0 32 7 82 15 112 9 30 20 71 25 90 7 25 6 39
-3 48z"/>
</g>
</svg>
