<?xml version="1.0" standalone="no"?>
<!DOCTYPE svg PUBLIC "-//W3C//DTD SVG 20010904//EN"
 "http://www.w3.org/TR/2001/REC-SVG-20010904/DTD/svg10.dtd">
<svg version="1.0" xmlns="http://www.w3.org/2000/svg"
 width="154.000000pt" height="168.000000pt" viewBox="0 0 154.000000 168.000000"
 preserveAspectRatio="xMidYMid meet">
<metadata>
Created by potrace 1.16, written by Peter Selinger 2001-2019
</metadata>
<g transform="translate(0.000000,168.000000) scale(0.100000,-0.100000)"
fill="#000000" stroke="none">
<path d="M780 1527 c-34 3 -53 -1 -78 -16 -18 -12 -37 -33 -42 -47 -6 -14 -7
-30 -4 -36 4 -5 20 3 38 20 17 16 41 33 53 36 12 4 31 3 41 -3 11 -6 25 -23
31 -39 10 -24 9 -54 -6 -158 -10 -71 -18 -169 -18 -218 l0 -88 55 -49 c48 -42
53 -51 43 -66 -7 -10 -24 -38 -37 -64 -14 -26 -29 -80 -36 -128 -9 -55 -10
-113 -5 -170 5 -47 8 -123 8 -168 0 -58 -5 -90 -16 -107 -9 -13 -32 -34 -51
-46 -23 -14 -43 -19 -57 -15 -12 4 -39 23 -61 43 -29 26 -42 32 -50 24 -9 -9
-5 -20 18 -43 16 -17 46 -39 66 -50 21 -10 49 -19 64 -19 16 0 45 15 72 37 24
20 50 51 58 68 7 18 14 63 15 101 1 38 -2 114 -6 169 -5 64 -3 127 4 175 8 49
21 91 39 120 15 24 47 57 70 73 24 16 42 36 42 47 0 10 -7 20 -15 24 -8 3 -26
1 -39 -5 -21 -10 -31 -7 -69 21 -25 18 -51 46 -58 63 -10 24 -10 51 1 141 7
61 16 145 19 186 4 41 5 87 3 101 -2 14 -14 38 -26 53 -16 21 -33 29 -66 33z"/>
</g>
</svg>
