<?xml version="1.0" standalone="no"?>
<!DOCTYPE svg PUBLIC "-//W3C//DTD SVG 20010904//EN"
 "http://www.w3.org/TR/2001/REC-SVG-20010904/DTD/svg10.dtd">
<svg version="1.0" xmlns="http://www.w3.org/2000/svg"
 width="158.000000pt" height="173.000000pt" viewBox="0 0 158.000000 173.000000"
 preserveAspectRatio="xMidYMid meet">
<metadata>
Created by potrace 1.16, written by Peter Selinger 2001-2019
</metadata>
<g transform="translate(0.000000,173.000000) scale(0.100000,-0.100000)"
fill="#000000" stroke="none">
<path d="M570 1240 c-4 0 -13 -7 -20 -15 -7 -8 -10 -26 -8 -40 3 -14 -1 -81
-8 -148 -7 -67 -20 -180 -28 -252 -9 -71 -15 -159 -15 -195 1 -36 4 -76 8 -90
5 -17 15 -26 32 -28 19 -2 32 5 51 30 13 18 42 64 63 103 21 38 63 93 94 122
30 29 63 56 74 59 10 3 24 1 29 -4 6 -6 19 -54 30 -108 10 -54 25 -112 33
-131 8 -18 20 -33 28 -33 8 0 20 7 27 16 11 12 11 28 1 82 -7 37 -19 98 -28
135 -9 40 -26 81 -40 98 -16 19 -34 29 -52 29 -16 0 -54 -18 -88 -41 -34 -22
-79 -62 -102 -89 -22 -26 -50 -64 -62 -84 -11 -20 -23 -36 -26 -36 -3 0 -3 37
1 83 4 45 13 123 21 172 9 50 18 143 22 208 5 104 4 119 -12 137 -10 11 -21
20 -25 20z"/>
</g>
</svg>
