<?xml version="1.0" standalone="no"?>
<!DOCTYPE svg PUBLIC "-//W3C//DTD SVG 20010904//EN"
 "http://www.w3.org/TR/2001/REC-SVG-20010904/DTD/svg10.dtd">
<svg version="1.0" xmlns="http://www.w3.org/2000/svg"
 width="157.000000pt" height="173.000000pt" viewBox="0 0 157.000000 173.000000"
 preserveAspectRatio="xMidYMid meet">
<metadata>
Created by potrace 1.16, written by Peter Selinger 2001-2019
</metadata>
<g transform="translate(0.000000,173.000000) scale(0.100000,-0.100000)"
fill="#000000" stroke="none">
<path d="M866 1159 c-28 0 -74 -9 -103 -19 -29 -10 -74 -33 -100 -51 -26 -18
-80 -65 -120 -104 -48 -48 -81 -91 -98 -128 -14 -30 -30 -80 -35 -109 -5 -31
-4 -74 1 -103 5 -30 17 -57 30 -67 13 -11 38 -18 66 -18 24 0 58 7 76 17 18 9
63 38 101 65 41 28 80 48 96 48 20 0 30 -8 42 -33 8 -17 19 -47 23 -66 7 -32
3 -37 -68 -110 -41 -42 -91 -98 -111 -125 -20 -27 -41 -65 -47 -85 -6 -20 -9
-50 -7 -66 2 -21 16 -39 48 -63 41 -31 49 -34 102 -30 47 3 64 10 88 33 16 16
39 54 51 84 16 42 22 88 26 186 6 130 6 130 52 175 26 25 93 75 150 110 57 36
109 73 115 82 6 9 7 21 2 25 -4 4 -37 -8 -73 -27 -37 -19 -109 -63 -160 -98
-52 -34 -98 -60 -102 -58 -4 3 -14 23 -21 46 -7 22 -24 52 -36 65 -15 16 -34
25 -53 25 -17 0 -43 -5 -58 -12 -15 -7 -59 -34 -96 -60 -38 -26 -84 -52 -104
-58 -29 -10 -37 -9 -55 6 -17 16 -19 28 -16 79 2 40 14 80 33 120 16 34 53 84
85 115 31 30 78 70 105 88 27 18 73 40 102 48 29 8 57 13 63 9 5 -3 10 -22 10
-41 0 -23 5 -34 14 -34 8 0 24 11 35 25 11 14 23 40 26 57 6 24 3 35 -11 45
-10 7 -41 13 -68 12z m-6 -689 c3 -5 5 -38 3 -73 -1 -34 -10 -90 -19 -125 -12
-45 -25 -69 -46 -87 -21 -18 -37 -24 -52 -19 -11 3 -31 12 -43 20 -16 10 -23
24 -23 48 0 20 12 51 32 81 18 26 57 75 87 107 31 34 57 55 61 48z"/>
</g>
</svg>
