<?xml version="1.0" standalone="no"?>
<!DOCTYPE svg PUBLIC "-//W3C//DTD SVG 20010904//EN"
 "http://www.w3.org/TR/2001/REC-SVG-20010904/DTD/svg10.dtd">
<svg version="1.0" xmlns="http://www.w3.org/2000/svg"
 width="153.000000pt" height="166.000000pt" viewBox="0 0 153.000000 166.000000"
 preserveAspectRatio="xMidYMid meet">
<metadata>
Created by potrace 1.16, written by Peter Selinger 2001-2019
</metadata>
<g transform="translate(0.000000,166.000000) scale(0.100000,-0.100000)"
fill="#000000" stroke="none">
<path d="M777 1230 c-12 -1 -35 -7 -52 -14 -16 -8 -45 -29 -62 -48 -18 -18
-35 -47 -38 -63 -3 -17 -1 -36 4 -44 5 -7 13 -11 19 -7 5 3 12 20 16 37 3 17
22 46 41 64 21 21 50 36 73 40 26 4 52 1 75 -8 19 -9 40 -24 46 -35 6 -12 11
-37 11 -57 0 -19 -7 -52 -15 -71 -8 -20 -29 -54 -46 -75 -17 -22 -49 -49 -71
-60 -22 -11 -38 -25 -35 -32 2 -6 17 -14 33 -18 16 -3 43 -13 59 -21 17 -9 41
-28 54 -42 16 -17 25 -41 29 -75 4 -46 2 -53 -26 -79 -18 -17 -51 -33 -82 -40
-28 -7 -66 -12 -83 -12 -18 0 -38 -4 -45 -9 -9 -5 -2 -10 22 -14 19 -3 62 -2
95 3 33 4 72 14 87 22 15 7 36 25 46 39 11 14 22 43 25 65 4 32 -1 47 -28 88
-18 27 -48 58 -66 68 -18 11 -33 24 -33 29 0 5 15 29 34 53 19 25 42 66 52 92
10 25 18 68 18 95 1 39 -4 53 -24 72 -14 13 -44 32 -68 41 -23 9 -52 16 -65
16z"/>
</g>
</svg>
