<?xml version="1.0" standalone="no"?>
<!DOCTYPE svg PUBLIC "-//W3C//DTD SVG 20010904//EN"
 "http://www.w3.org/TR/2001/REC-SVG-20010904/DTD/svg10.dtd">
<svg version="1.0" xmlns="http://www.w3.org/2000/svg"
 width="158.000000pt" height="173.000000pt" viewBox="0 0 158.000000 173.000000"
 preserveAspectRatio="xMidYMid meet">
<metadata>
Created by potrace 1.16, written by Peter Selinger 2001-2019
</metadata>
<g transform="translate(0.000000,173.000000) scale(0.100000,-0.100000)"
fill="#000000" stroke="none">
<path d="M878 979 c-13 -1 -39 -4 -58 -8 -20 -4 -56 -21 -81 -39 -25 -17 -53
-42 -62 -56 -10 -14 -17 -34 -17 -44 0 -10 10 -28 23 -39 12 -12 57 -38 100
-58 42 -20 82 -45 87 -55 6 -12 7 -28 1 -43 -6 -15 -25 -31 -50 -41 -23 -9
-56 -16 -74 -16 -17 0 -45 9 -62 20 -16 11 -40 20 -52 20 -19 0 -23 -6 -23
-30 0 -23 8 -35 38 -54 22 -14 60 -26 95 -30 33 -4 76 -2 99 4 22 6 54 27 74
46 19 20 37 47 40 60 4 14 4 41 1 61 -4 20 -16 47 -28 60 -13 13 -42 34 -65
48 -23 14 -49 25 -57 25 -8 0 -22 9 -31 19 -17 19 -17 20 16 37 22 12 53 17
91 16 57 -1 57 -1 57 28 0 17 -9 39 -20 50 -11 11 -30 19 -42 19z"/>
</g>
</svg>
