<?xml version="1.0" standalone="no"?>
<!DOCTYPE svg PUBLIC "-//W3C//DTD SVG 20010904//EN"
 "http://www.w3.org/TR/2001/REC-SVG-20010904/DTD/svg10.dtd">
<svg version="1.0" xmlns="http://www.w3.org/2000/svg"
 width="164.000000pt" height="180.000000pt" viewBox="0 0 164.000000 180.000000"
 preserveAspectRatio="xMidYMid meet">
<metadata>
Created by potrace 1.16, written by Peter Selinger 2001-2019
</metadata>
<g transform="translate(0.000000,180.000000) scale(0.100000,-0.100000)"
fill="#000000" stroke="none">
<path d="M1086 1620 c-2 0 -17 -17 -33 -37 -15 -21 -38 -51 -51 -68 -12 -16
-42 -68 -66 -115 -24 -47 -48 -101 -55 -121 -6 -20 -35 -70 -64 -112 -29 -42
-78 -106 -111 -142 -32 -37 -83 -82 -112 -102 -29 -19 -58 -32 -64 -28 -7 4
-8 29 -4 73 4 37 13 81 20 99 8 17 34 48 60 69 25 21 66 67 91 102 25 35 63
104 85 153 21 49 38 102 38 118 0 16 -7 37 -16 46 -12 11 -26 14 -52 9 -21 -4
-48 -12 -62 -19 -14 -7 -42 -30 -63 -51 -20 -21 -48 -60 -61 -88 -13 -28 -32
-87 -44 -131 -11 -44 -23 -97 -27 -117 -4 -29 -12 -39 -30 -44 -13 -3 -28 -3
-33 0 -5 3 -17 -1 -28 -8 -15 -12 -16 -16 -5 -30 7 -9 27 -16 43 -16 17 0 31
-6 35 -16 3 -9 2 -50 -3 -92 -8 -69 -11 -77 -33 -82 -13 -3 -29 -13 -35 -22
-8 -13 -6 -22 11 -40 11 -13 24 -37 28 -55 3 -18 1 -94 -6 -170 -8 -76 -14
-158 -14 -183 0 -39 3 -45 23 -48 17 -3 26 4 36 30 10 22 17 100 22 231 l7
198 66 34 c43 22 88 56 131 100 37 39 66 62 68 55 3 -7 -1 -36 -7 -65 -7 -29
-20 -59 -29 -67 -9 -9 -44 -30 -77 -47 -33 -18 -70 -42 -82 -54 -13 -11 -23
-23 -23 -27 0 -3 18 -31 41 -61 22 -30 63 -98 90 -151 27 -53 57 -101 67 -107
11 -6 24 -6 35 0 9 6 17 19 17 30 0 12 -10 34 -21 51 -20 27 -21 39 -17 146 3
74 10 128 19 147 8 17 30 38 49 47 19 9 74 35 122 57 48 23 90 41 94 41 4 0
22 12 41 26 18 14 31 30 28 35 -4 5 -13 9 -21 9 -8 0 -57 -20 -110 -45 -52
-25 -101 -45 -109 -45 -8 0 -26 -5 -40 -12 -14 -6 -28 -9 -31 -5 -3 3 3 42 15
86 12 49 43 125 77 189 31 59 80 143 109 187 29 44 67 107 84 140 17 33 31 67
31 77 0 9 -9 22 -19 28 -11 5 -22 10 -25 10z m-334 -116 c4 -3 8 -13 8 -24 0
-10 -20 -59 -45 -109 -25 -50 -68 -114 -95 -143 -26 -29 -51 -50 -55 -46 -3 3
1 37 11 75 9 37 25 86 34 108 9 22 30 55 46 74 15 19 42 42 58 52 16 10 33 16
38 13z m-24 -715 c9 1 11 -16 6 -71 -4 -40 -10 -77 -15 -82 -5 -5 -10 -8 -12
-5 -2 2 -18 23 -35 45 -18 23 -32 46 -32 52 0 5 17 21 38 35 20 14 43 26 50
26z"/>
</g>
</svg>
