<?xml version="1.0" standalone="no"?>
<!DOCTYPE svg PUBLIC "-//W3C//DTD SVG 20010904//EN"
 "http://www.w3.org/TR/2001/REC-SVG-20010904/DTD/svg10.dtd">
<svg version="1.0" xmlns="http://www.w3.org/2000/svg"
 width="153.000000pt" height="167.000000pt" viewBox="0 0 153.000000 167.000000"
 preserveAspectRatio="xMidYMid meet">
<metadata>
Created by potrace 1.16, written by Peter Selinger 2001-2019
</metadata>
<g transform="translate(0.000000,167.000000) scale(0.100000,-0.100000)"
fill="#000000" stroke="none">
<path d="M760 1180 c-3 0 -10 -3 -13 -7 -4 -3 -4 -37 0 -75 5 -59 4 -68 -11
-68 -9 0 -42 18 -74 39 -31 22 -69 42 -85 46 -22 6 -27 4 -27 -11 0 -13 26
-35 75 -66 51 -32 75 -54 75 -66 0 -11 -6 -24 -13 -30 -7 -6 -51 -17 -98 -24
-73 -11 -84 -16 -84 -33 0 -16 7 -20 37 -20 21 0 38 -3 38 -8 0 -4 -6 -20 -15
-36 -13 -26 -13 -30 1 -42 14 -11 24 -4 72 49 32 34 69 64 83 68 17 3 30 1 35
-8 5 -7 9 -42 9 -78 0 -58 2 -65 20 -65 18 0 20 8 23 78 3 69 5 77 23 77 11 0
53 -18 94 -41 41 -22 79 -38 85 -34 5 3 10 17 10 31 0 18 -8 27 -27 34 -16 6
-34 13 -41 17 -8 5 -13 13 -13 18 0 6 19 15 42 20 23 6 45 17 47 24 3 10 -6
12 -39 8 -24 -3 -69 -9 -99 -12 -45 -6 -58 -4 -69 9 -11 13 -11 20 2 40 9 13
37 41 62 62 25 20 51 46 56 57 8 15 7 23 -4 34 -10 10 -20 12 -30 7 -9 -5 -29
-28 -46 -51 -17 -24 -38 -43 -46 -43 -8 0 -17 15 -21 38 -4 20 -11 43 -17 50
-5 6 -13 12 -17 12z"/>
</g>
</svg>
