<?xml version="1.0" standalone="no"?>
<!DOCTYPE svg PUBLIC "-//W3C//DTD SVG 20010904//EN"
 "http://www.w3.org/TR/2001/REC-SVG-20010904/DTD/svg10.dtd">
<svg version="1.0" xmlns="http://www.w3.org/2000/svg"
 width="157.000000pt" height="171.000000pt" viewBox="0 0 157.000000 171.000000"
 preserveAspectRatio="xMidYMid meet">
<metadata>
Created by potrace 1.16, written by Peter Selinger 2001-2019
</metadata>
<g transform="translate(0.000000,171.000000) scale(0.100000,-0.100000)"
fill="#000000" stroke="none">
<path d="M455 1258 c-12 2 -24 0 -28 -4 -4 -4 -7 -22 -7 -39 0 -17 6 -54 14
-81 8 -27 22 -87 31 -134 9 -47 28 -139 41 -205 14 -66 30 -140 36 -164 6 -24
22 -56 36 -72 16 -20 33 -29 53 -29 19 0 34 8 43 23 9 12 23 51 32 87 9 36 19
69 24 73 4 5 13 -13 19 -41 7 -27 21 -63 31 -80 12 -19 28 -32 40 -32 12 0 32
16 49 40 19 27 54 117 101 261 40 121 85 245 101 276 16 30 29 66 29 79 0 13
-9 28 -21 35 -17 8 -24 8 -34 -3 -7 -7 -51 -129 -99 -272 -48 -142 -94 -272
-102 -288 -8 -16 -19 -26 -24 -23 -4 3 -11 44 -14 93 -4 48 -9 106 -12 130 -4
31 -12 47 -31 59 -24 16 -26 16 -39 -2 -8 -10 -14 -33 -14 -49 0 -17 -16 -87
-35 -155 -19 -68 -38 -128 -43 -133 -5 -5 -14 -3 -21 5 -6 8 -25 79 -42 158
-17 79 -40 205 -51 279 -11 74 -25 151 -32 170 -7 23 -18 36 -31 38z"/>
</g>
</svg>
