<?xml version="1.0" standalone="no"?>
<!DOCTYPE svg PUBLIC "-//W3C//DTD SVG 20010904//EN"
 "http://www.w3.org/TR/2001/REC-SVG-20010904/DTD/svg10.dtd">
<svg version="1.0" xmlns="http://www.w3.org/2000/svg"
 width="166.000000pt" height="180.000000pt" viewBox="0 0 166.000000 180.000000"
 preserveAspectRatio="xMidYMid meet">
<metadata>
Created by potrace 1.16, written by Peter Selinger 2001-2019
</metadata>
<g transform="translate(0.000000,180.000000) scale(0.100000,-0.100000)"
fill="#000000" stroke="none">
<path d="M716 1440 c-11 -1 -34 -7 -51 -14 -16 -7 -47 -32 -69 -56 -21 -23
-47 -62 -57 -85 -10 -23 -25 -73 -34 -111 -8 -38 -18 -79 -20 -91 -4 -15 -13
-23 -25 -23 -11 0 -29 6 -40 13 -17 10 -22 9 -30 -3 -5 -8 -10 -23 -10 -32 0
-9 7 -24 17 -33 11 -12 25 -15 46 -11 29 6 29 6 22 -67 -4 -39 -11 -82 -16
-94 -6 -16 -17 -23 -36 -24 -16 0 -39 -2 -52 -5 -14 -2 -30 -9 -38 -15 -7 -6
-13 -17 -13 -25 0 -7 9 -28 19 -46 11 -18 26 -67 35 -108 9 -41 21 -131 26
-200 8 -84 17 -135 29 -155 9 -17 27 -31 40 -33 13 -2 28 1 34 7 7 7 10 84 9
218 0 115 2 230 6 257 7 49 9 51 90 107 46 31 131 100 188 154 58 54 107 95
110 92 3 -3 0 -32 -7 -66 -6 -33 -8 -80 -5 -105 4 -26 18 -59 32 -76 14 -16
42 -34 62 -40 20 -5 53 -10 73 -10 19 0 56 7 81 16 25 8 63 30 84 48 26 23 36
38 31 49 -4 11 -17 17 -36 17 -16 0 -49 -11 -72 -25 -24 -13 -63 -27 -86 -31
-31 -4 -49 -1 -72 12 -21 13 -33 29 -37 52 -4 18 1 72 9 119 14 72 28 108 92
225 41 77 75 144 75 148 0 4 -9 15 -19 24 -11 10 -27 16 -37 14 -10 -2 -34
-37 -58 -84 -23 -44 -68 -116 -101 -159 -33 -43 -106 -121 -163 -174 -57 -53
-130 -111 -164 -129 -61 -34 -61 -34 -54 19 4 30 11 70 16 89 7 25 25 47 62
76 29 22 75 65 101 96 28 33 55 79 67 113 11 32 20 73 20 91 0 23 -7 38 -26
53 -15 12 -36 21 -48 21z m-9 -70 c7 0 13 -11 13 -25 0 -13 -6 -37 -12 -52 -7
-15 -25 -49 -40 -74 -16 -26 -44 -59 -64 -74 -19 -15 -38 -25 -41 -22 -3 3 0
23 7 44 6 21 21 62 32 91 13 32 34 64 57 82 19 17 41 30 48 30z"/>
</g>
</svg>
