<?xml version="1.0" standalone="no"?>
<!DOCTYPE svg PUBLIC "-//W3C//DTD SVG 20010904//EN"
 "http://www.w3.org/TR/2001/REC-SVG-20010904/DTD/svg10.dtd">
<svg version="1.0" xmlns="http://www.w3.org/2000/svg"
 width="165.000000pt" height="181.000000pt" viewBox="0 0 165.000000 181.000000"
 preserveAspectRatio="xMidYMid meet">
<metadata>
Created by potrace 1.16, written by Peter Selinger 2001-2019
</metadata>
<g transform="translate(0.000000,181.000000) scale(0.100000,-0.100000)"
fill="#000000" stroke="none">
<path d="M1113 1009 c-16 -1 -62 -5 -103 -9 -41 -5 -131 -23 -200 -42 -112
-30 -138 -33 -252 -32 -90 1 -128 -3 -132 -11 -2 -6 -1 -16 2 -22 4 -5 17 -15
29 -22 12 -6 64 -11 116 -11 77 0 122 7 248 39 85 22 178 43 206 47 44 5 54 4
59 -10 4 -9 -3 -81 -15 -159 -12 -78 -26 -161 -31 -185 -7 -29 -7 -49 1 -63 8
-15 19 -19 42 -17 l32 3 2 90 c1 54 13 145 31 229 29 135 29 139 11 157 -11
11 -31 18 -46 18z"/>
</g>
</svg>
