<?xml version="1.0" standalone="no"?>
<!DOCTYPE svg PUBLIC "-//W3C//DTD SVG 20010904//EN"
 "http://www.w3.org/TR/2001/REC-SVG-20010904/DTD/svg10.dtd">
<svg version="1.0" xmlns="http://www.w3.org/2000/svg"
 width="158.000000pt" height="172.000000pt" viewBox="0 0 158.000000 172.000000"
 preserveAspectRatio="xMidYMid meet">
<metadata>
Created by potrace 1.16, written by Peter Selinger 2001-2019
</metadata>
<g transform="translate(0.000000,172.000000) scale(0.100000,-0.100000)"
fill="#000000" stroke="none">
<path d="M1097 1560 c-23 0 -71 -11 -107 -24 -36 -12 -88 -34 -116 -49 -27
-14 -77 -43 -110 -65 -32 -22 -75 -57 -95 -79 -20 -21 -53 -64 -74 -96 -21
-32 -51 -90 -66 -129 -16 -39 -38 -107 -49 -152 -11 -45 -22 -99 -24 -121 -3
-22 -13 -96 -22 -165 -13 -106 -14 -135 -3 -193 11 -61 16 -71 48 -93 20 -13
41 -24 48 -24 6 0 15 5 18 11 4 6 -2 21 -14 33 -12 13 -26 38 -31 57 -6 19
-10 58 -10 87 0 29 5 86 10 125 6 40 18 115 27 167 8 52 29 133 44 180 16 46
50 120 76 163 27 44 71 100 99 126 28 25 90 67 137 93 48 26 109 55 136 64 27
9 58 14 68 12 15 -3 18 -13 17 -65 -1 -45 -8 -76 -28 -117 -15 -30 -39 -65
-54 -78 -16 -13 -31 -29 -36 -36 -5 -8 15 -38 57 -85 45 -50 73 -93 92 -140
22 -53 26 -79 23 -120 -3 -29 -18 -78 -33 -110 -19 -40 -41 -67 -70 -87 -23
-16 -66 -35 -95 -42 -29 -8 -58 -21 -63 -30 -6 -8 -7 -23 -4 -32 4 -9 16 -16
29 -16 12 0 49 10 82 23 35 13 80 41 112 70 32 29 65 71 81 105 24 50 28 68
27 142 -1 64 -6 96 -22 131 -12 25 -44 76 -71 113 -50 68 -50 68 -15 121 19
29 42 74 50 100 8 27 14 76 14 110 0 48 -5 68 -21 89 -16 21 -29 26 -62 26z"/>
</g>
</svg>
