<?xml version="1.0" standalone="no"?>
<!DOCTYPE svg PUBLIC "-//W3C//DTD SVG 20010904//EN"
 "http://www.w3.org/TR/2001/REC-SVG-20010904/DTD/svg10.dtd">
<svg version="1.0" xmlns="http://www.w3.org/2000/svg"
 width="155.000000pt" height="168.000000pt" viewBox="0 0 155.000000 168.000000"
 preserveAspectRatio="xMidYMid meet">
<metadata>
Created by potrace 1.16, written by Peter Selinger 2001-2019
</metadata>
<g transform="translate(0.000000,168.000000) scale(0.100000,-0.100000)"
fill="#000000" stroke="none">
<path d="M786 1260 c-8 0 -19 -15 -24 -32 -6 -18 -16 -71 -23 -118 -7 -46 -13
-130 -13 -186 -1 -87 2 -105 18 -123 11 -11 26 -21 34 -21 11 0 13 8 8 38 -4
20 -9 62 -12 92 -3 30 1 109 10 175 9 65 16 132 16 147 0 18 -5 28 -14 28z
M743 510 c-5 0 -17 -6 -26 -12 -9 -7 -19 -25 -22 -40 -6 -23 -3 -29 19 -39 20
-10 30 -9 51 5 15 10 25 26 25 41 0 14 -8 29 -19 35 -11 5 -24 10 -28 10z"/>
</g>
</svg>
