<?xml version="1.0" standalone="no"?>
<!DOCTYPE svg PUBLIC "-//W3C//DTD SVG 20010904//EN"
 "http://www.w3.org/TR/2001/REC-SVG-20010904/DTD/svg10.dtd">
<svg version="1.0" xmlns="http://www.w3.org/2000/svg"
 width="162.000000pt" height="178.000000pt" viewBox="0 0 162.000000 178.000000"
 preserveAspectRatio="xMidYMid meet">
<metadata>
Created by potrace 1.16, written by Peter Selinger 2001-2019
</metadata>
<g transform="translate(0.000000,178.000000) scale(0.100000,-0.100000)"
fill="#000000" stroke="none">
<path d="M989 1068 c-8 1 -31 -14 -51 -35 -20 -21 -65 -83 -101 -138 -35 -55
-74 -108 -85 -118 -11 -11 -25 -16 -31 -12 -6 3 -24 25 -40 49 -17 24 -33 55
-36 69 -5 17 -1 34 9 49 9 12 16 32 16 43 0 12 -5 26 -12 33 -7 7 -22 12 -35
12 -13 0 -29 -10 -38 -24 -9 -14 -25 -49 -37 -78 -11 -29 -38 -78 -61 -108
-23 -30 -81 -95 -130 -144 -79 -79 -87 -90 -74 -104 10 -9 24 -12 39 -9 14 4
51 35 84 70 32 35 82 91 109 125 28 33 55 61 62 61 6 1 25 -18 42 -41 17 -23
31 -54 31 -70 0 -20 -7 -32 -24 -40 -14 -6 -27 -17 -31 -26 -3 -8 -3 -23 0
-33 5 -13 16 -19 37 -19 24 0 44 14 95 63 35 34 84 87 107 117 24 30 50 69 59
85 15 30 15 30 27 0 6 -16 30 -55 54 -85 23 -30 46 -61 50 -68 5 -8 -2 -15
-18 -22 -16 -6 -26 -17 -26 -29 0 -13 12 -27 31 -36 20 -11 41 -14 62 -9 18 3
38 11 45 16 6 6 12 23 12 37 0 18 -23 59 -65 116 -36 49 -68 99 -71 112 -4 13
-4 38 -1 56 2 17 11 47 18 65 10 24 11 37 3 50 -6 9 -17 18 -25 20z"/>
</g>
</svg>
