<?xml version="1.0" standalone="no"?>
<!DOCTYPE svg PUBLIC "-//W3C//DTD SVG 20010904//EN"
 "http://www.w3.org/TR/2001/REC-SVG-20010904/DTD/svg10.dtd">
<svg version="1.0" xmlns="http://www.w3.org/2000/svg"
 width="154.000000pt" height="167.000000pt" viewBox="0 0 154.000000 167.000000"
 preserveAspectRatio="xMidYMid meet">
<metadata>
Created by potrace 1.16, written by Peter Selinger 2001-2019
</metadata>
<g transform="translate(0.000000,167.000000) scale(0.100000,-0.100000)"
fill="#000000" stroke="none">
<path d="M866 1230 c-22 0 -54 -7 -71 -16 -16 -8 -41 -25 -54 -37 -13 -12 -30
-36 -37 -54 -8 -18 -14 -55 -14 -82 0 -42 4 -53 26 -70 15 -12 37 -21 49 -21
12 0 40 12 61 26 21 14 46 35 55 46 9 11 24 18 34 16 14 -2 25 -21 38 -63 15
-49 18 -78 13 -155 -5 -69 -13 -107 -29 -139 -12 -25 -35 -54 -50 -65 -22 -16
-47 -22 -113 -25 -53 -2 -96 2 -115 9 -16 7 -41 26 -54 42 -19 22 -25 41 -25
76 0 26 -4 53 -9 61 -7 11 -11 9 -20 -7 -6 -12 -9 -33 -6 -47 3 -14 7 -36 10
-49 3 -14 17 -38 31 -56 15 -17 43 -37 62 -46 20 -8 61 -17 92 -20 37 -4 74
-1 113 11 31 9 70 27 86 41 16 13 37 46 46 72 9 26 19 88 22 137 4 64 1 113
-11 168 -9 44 -25 92 -37 108 -12 17 -23 49 -26 72 -3 23 -10 48 -16 55 -5 6
-28 12 -51 12z m-16 -40 c19 0 33 -7 40 -19 5 -11 10 -33 10 -49 0 -22 -13
-41 -54 -81 -30 -28 -63 -51 -73 -51 -11 0 -24 5 -31 12 -7 7 -12 27 -12 45 0
19 7 47 15 62 8 16 28 40 45 55 18 15 44 26 60 26z"/>
</g>
</svg>
