<?xml version="1.0" standalone="no"?>
<!DOCTYPE svg PUBLIC "-//W3C//DTD SVG 20010904//EN"
 "http://www.w3.org/TR/2001/REC-SVG-20010904/DTD/svg10.dtd">
<svg version="1.0" xmlns="http://www.w3.org/2000/svg"
 width="164.000000pt" height="177.000000pt" viewBox="0 0 164.000000 177.000000"
 preserveAspectRatio="xMidYMid meet">
<metadata>
Created by potrace 1.16, written by Peter Selinger 2001-2019
</metadata>
<g transform="translate(0.000000,177.000000) scale(0.100000,-0.100000)"
fill="#000000" stroke="none">
<path d="M583 1450 c-38 -1 -90 -9 -118 -18 -32 -11 -54 -26 -61 -41 -7 -13
-10 -30 -7 -37 3 -8 10 -14 16 -14 6 0 21 10 34 22 14 13 48 26 90 34 37 7 71
10 75 8 5 -3 8 -13 8 -22 0 -9 -16 -40 -36 -69 -25 -36 -34 -58 -29 -72 3 -11
22 -30 41 -41 27 -18 34 -28 34 -54 0 -19 -8 -40 -18 -49 -10 -10 -33 -17 -51
-17 -17 0 -42 7 -55 15 -22 14 -25 14 -40 0 -9 -9 -16 -23 -16 -31 0 -8 16
-22 35 -30 19 -7 54 -14 78 -14 32 0 53 7 80 28 19 15 40 37 46 50 6 13 11 38
11 57 0 27 -8 40 -42 68 l-42 35 20 27 c10 15 27 41 36 58 10 18 18 40 18 50
0 9 -9 26 -20 37 -16 16 -33 20 -87 20z M1090 1390 c-5 0 -69 -55 -142 -122
-73 -67 -193 -180 -266 -250 -73 -71 -164 -151 -203 -179 -38 -28 -68 -56 -66
-63 2 -6 13 -12 26 -14 14 -2 43 13 80 40 33 24 153 132 268 240 114 108 231
214 258 236 28 21 56 46 63 55 10 12 11 21 2 36 -6 12 -15 21 -20 21z M1030
1050 c-11 0 -36 -15 -55 -32 -19 -18 -57 -71 -86 -118 -28 -47 -62 -106 -75
-132 -13 -26 -24 -57 -24 -68 0 -15 11 -26 38 -37 29 -12 57 -14 124 -9 l87 6
-6 -134 c-6 -128 -5 -134 14 -145 16 -8 23 -7 31 2 5 6 12 69 13 139 3 102 7
131 21 144 9 9 67 30 129 46 62 16 121 36 131 45 10 9 18 20 18 25 0 5 -7 11
-16 15 -8 3 -25 1 -37 -6 -12 -6 -65 -22 -117 -35 -52 -13 -98 -21 -101 -17
-4 3 -2 34 4 69 8 44 8 65 0 73 -8 8 -17 8 -31 0 -11 -6 -23 -23 -26 -38 -2
-16 -7 -49 -11 -75 -6 -46 -7 -47 -48 -52 -23 -3 -64 -7 -92 -8 -43 -3 -50 0
-53 17 -1 11 21 60 50 109 28 49 71 110 95 134 24 25 43 54 43 64 0 11 -7 18
-20 18z"/>
</g>
</svg>
