<?xml version="1.0" standalone="no"?>
<!DOCTYPE svg PUBLIC "-//W3C//DTD SVG 20010904//EN"
 "http://www.w3.org/TR/2001/REC-SVG-20010904/DTD/svg10.dtd">
<svg version="1.0" xmlns="http://www.w3.org/2000/svg"
 width="152.000000pt" height="167.000000pt" viewBox="0 0 152.000000 167.000000"
 preserveAspectRatio="xMidYMid meet">
<metadata>
Created by potrace 1.16, written by Peter Selinger 2001-2019
</metadata>
<g transform="translate(0.000000,167.000000) scale(0.100000,-0.100000)"
fill="#000000" stroke="none">
<path d="M718 480 c-21 0 -40 -10 -64 -34 -21 -21 -34 -44 -34 -59 0 -14 5
-29 11 -33 6 -4 27 -10 47 -15 25 -5 44 -3 66 8 17 8 39 22 49 31 9 8 17 23
17 33 0 9 -14 29 -31 43 -18 15 -43 26 -61 26z"/>
</g>
</svg>
