<?xml version="1.0" standalone="no"?>
<!DOCTYPE svg PUBLIC "-//W3C//DTD SVG 20010904//EN"
 "http://www.w3.org/TR/2001/REC-SVG-20010904/DTD/svg10.dtd">
<svg version="1.0" xmlns="http://www.w3.org/2000/svg"
 width="152.000000pt" height="167.000000pt" viewBox="0 0 152.000000 167.000000"
 preserveAspectRatio="xMidYMid meet">
<metadata>
Created by potrace 1.16, written by Peter Selinger 2001-2019
</metadata>
<g transform="translate(0.000000,167.000000) scale(0.100000,-0.100000)"
fill="#000000" stroke="none">
<path d="M1036 860 c-7 0 -33 -24 -59 -54 -25 -29 -67 -66 -92 -80 -28 -17
-53 -25 -65 -21 -10 3 -29 22 -40 41 -12 19 -38 47 -58 62 -27 21 -45 26 -79
25 -24 -1 -58 -7 -77 -13 -19 -6 -55 -33 -80 -60 -36 -39 -46 -57 -46 -83 0
-19 7 -40 15 -47 8 -7 21 -10 29 -7 8 3 17 19 21 35 3 16 20 43 38 59 18 17
42 36 54 42 12 6 33 11 46 11 13 0 35 -10 49 -23 13 -12 32 -36 42 -53 10 -17
28 -37 40 -44 11 -7 38 -12 59 -12 21 1 57 13 80 27 23 13 58 39 76 57 19 18
43 52 53 76 11 23 16 47 13 52 -3 6 -12 10 -19 10z"/>
</g>
</svg>
