<?xml version="1.0" standalone="no"?>
<!DOCTYPE svg PUBLIC "-//W3C//DTD SVG 20010904//EN"
 "http://www.w3.org/TR/2001/REC-SVG-20010904/DTD/svg10.dtd">
<svg version="1.0" xmlns="http://www.w3.org/2000/svg"
 width="158.000000pt" height="173.000000pt" viewBox="0 0 158.000000 173.000000"
 preserveAspectRatio="xMidYMid meet">
<metadata>
Created by potrace 1.16, written by Peter Selinger 2001-2019
</metadata>
<g transform="translate(0.000000,173.000000) scale(0.100000,-0.100000)"
fill="#000000" stroke="none">
<path d="M980 1370 c-3 0 -13 -6 -21 -12 -9 -7 -26 -31 -38 -53 -13 -22 -31
-67 -41 -100 -10 -33 -28 -103 -40 -155 -12 -52 -23 -106 -26 -118 -5 -23 -6
-23 -27 -8 -12 9 -33 21 -46 26 -13 6 -40 7 -60 4 -20 -4 -47 -12 -61 -19 -14
-7 -42 -30 -64 -51 -21 -20 -47 -56 -57 -78 -12 -27 -19 -64 -19 -111 0 -38 5
-86 10 -107 6 -20 24 -50 41 -66 17 -17 44 -36 60 -42 17 -8 44 -9 66 -5 30 5
54 24 114 87 76 79 76 79 124 49 28 -18 67 -32 99 -36 32 -4 84 0 140 10 48 9
108 25 132 35 25 11 44 26 44 35 0 9 -6 18 -14 21 -8 3 -48 -4 -88 -15 -48
-14 -104 -21 -158 -21 -74 0 -87 3 -117 26 -18 14 -33 34 -33 45 0 11 10 36
23 57 13 20 33 60 44 87 12 28 29 79 39 115 12 46 17 107 18 211 1 131 -1 149
-18 168 -11 11 -22 21 -26 21z m-14 -140 c3 0 3 -44 -1 -97 -3 -54 -11 -116
-17 -138 -5 -22 -24 -75 -40 -117 -17 -43 -35 -78 -41 -78 -6 0 -7 22 -2 58 4
31 22 116 40 187 18 72 38 142 44 158 6 15 13 27 17 27z m-251 -336 c11 -3 25
-13 32 -21 7 -9 15 -36 19 -60 4 -26 2 -55 -4 -68 -6 -13 -25 -31 -42 -40 -18
-9 -30 -23 -30 -35 0 -13 10 -22 32 -28 32 -8 32 -8 -13 -55 -35 -36 -53 -47
-76 -47 -18 0 -38 9 -51 23 -12 13 -28 49 -34 80 -10 48 -9 64 5 110 10 30 27
67 39 82 12 15 40 36 62 46 23 10 50 16 61 13z"/>
</g>
</svg>
