<?xml version="1.0" standalone="no"?>
<!DOCTYPE svg PUBLIC "-//W3C//DTD SVG 20010904//EN"
 "http://www.w3.org/TR/2001/REC-SVG-20010904/DTD/svg10.dtd">
<svg version="1.0" xmlns="http://www.w3.org/2000/svg"
 width="153.000000pt" height="168.000000pt" viewBox="0 0 153.000000 168.000000"
 preserveAspectRatio="xMidYMid meet">
<metadata>
Created by potrace 1.16, written by Peter Selinger 2001-2019
</metadata>
<g transform="translate(0.000000,168.000000) scale(0.100000,-0.100000)"
fill="#000000" stroke="none">
<path d="M749 1170 c-2 0 -17 -12 -33 -26 -16 -15 -45 -52 -65 -83 -27 -44
-35 -66 -35 -104 0 -32 7 -57 21 -75 11 -15 49 -45 86 -67 36 -22 77 -51 91
-64 14 -13 28 -36 31 -52 4 -16 1 -45 -5 -64 -6 -19 -26 -46 -43 -59 -18 -13
-43 -27 -55 -31 -13 -4 -39 -4 -58 0 -20 3 -53 22 -75 42 -22 20 -47 49 -55
64 -8 16 -14 47 -14 69 0 29 -4 40 -12 38 -7 -3 -14 -22 -16 -43 -2 -22 4 -55
14 -78 10 -21 38 -54 63 -73 24 -19 62 -39 83 -46 31 -9 50 -9 85 1 25 6 58
20 73 31 15 11 35 35 44 54 9 19 16 50 16 69 0 20 -4 47 -10 61 -5 14 -41 47
-82 75 -40 27 -88 62 -105 76 -27 22 -33 34 -33 67 0 24 9 55 20 74 12 18 29
35 38 38 9 2 62 11 117 20 55 8 137 20 183 25 46 5 86 11 89 14 3 3 2 10 -2
16 -3 6 -32 11 -63 11 -31 0 -99 -5 -151 -10 -88 -10 -96 -9 -116 10 -12 11
-23 20 -26 20z"/>
</g>
</svg>
