<?xml version="1.0" standalone="no"?>
<!DOCTYPE svg PUBLIC "-//W3C//DTD SVG 20010904//EN"
 "http://www.w3.org/TR/2001/REC-SVG-20010904/DTD/svg10.dtd">
<svg version="1.0" xmlns="http://www.w3.org/2000/svg"
 width="152.000000pt" height="167.000000pt" viewBox="0 0 152.000000 167.000000"
 preserveAspectRatio="xMidYMid meet">
<metadata>
Created by potrace 1.16, written by Peter Selinger 2001-2019
</metadata>
<g transform="translate(0.000000,167.000000) scale(0.100000,-0.100000)"
fill="#000000" stroke="none">
<path d="M557 898 c-24 3 -27 0 -27 -25 0 -15 9 -72 20 -126 11 -55 20 -103
20 -108 0 -6 -29 -41 -65 -79 -45 -48 -65 -77 -65 -95 0 -14 5 -25 11 -25 6 0
41 33 79 73 68 72 68 72 102 42 18 -17 46 -38 62 -45 19 -10 61 -15 122 -15
74 0 97 3 110 17 9 9 14 23 11 32 -5 12 -13 13 -43 4 -21 -5 -66 -8 -100 -6
-48 3 -70 10 -97 31 -27 21 -34 32 -29 46 4 10 48 49 97 86 50 37 111 86 138
107 26 22 47 48 47 59 0 10 -5 19 -10 19 -6 0 -45 -29 -88 -63 -42 -35 -105
-83 -140 -106 -35 -24 -70 -40 -77 -37 -8 3 -17 20 -20 38 -3 18 -11 65 -18
103 -11 65 -14 70 -40 73z"/>
</g>
</svg>
