<?xml version="1.0" standalone="no"?>
<!DOCTYPE svg PUBLIC "-//W3C//DTD SVG 20010904//EN"
 "http://www.w3.org/TR/2001/REC-SVG-20010904/DTD/svg10.dtd">
<svg version="1.0" xmlns="http://www.w3.org/2000/svg"
 width="153.000000pt" height="165.000000pt" viewBox="0 0 153.000000 165.000000"
 preserveAspectRatio="xMidYMid meet">
<metadata>
Created by potrace 1.16, written by Peter Selinger 2001-2019
</metadata>
<g transform="translate(0.000000,165.000000) scale(0.100000,-0.100000)"
fill="#000000" stroke="none">
<path d="M640 1070 c-6 0 -15 -11 -21 -24 -7 -14 -9 -36 -5 -49 3 -14 13 -28
23 -31 9 -4 21 -2 26 3 5 5 5 17 -2 29 -6 11 -11 32 -11 46 0 14 -5 26 -10 26z
M774 1057 c-7 2 -14 -3 -18 -12 -3 -9 -6 -25 -6 -35 0 -10 9 -28 19 -41 11
-13 22 -21 26 -18 3 4 2 28 -2 54 -5 27 -13 50 -19 52z M668 860 c-7 0 -22 -6
-33 -11 -11 -6 -38 -23 -59 -38 -25 -17 -47 -44 -63 -76 -14 -32 -23 -69 -23
-102 0 -29 5 -63 11 -77 7 -13 24 -30 40 -36 16 -7 44 -9 63 -6 18 4 53 20 77
36 24 16 50 30 58 30 7 0 35 -8 60 -17 26 -9 55 -14 64 -10 9 3 17 11 17 16 0
5 -15 13 -32 16 -18 4 -39 12 -45 17 -7 6 -13 18 -13 28 0 10 14 44 30 75 17
31 30 68 30 80 0 13 -5 27 -11 31 -6 3 -25 -8 -43 -25 -18 -17 -35 -31 -39
-31 -4 0 -14 18 -23 40 -9 22 -25 45 -35 50 -10 6 -24 10 -31 10z m-19 -40
c10 0 25 -8 33 -17 8 -10 24 -34 35 -54 17 -29 19 -45 13 -85 -6 -39 -15 -55
-44 -80 -20 -18 -52 -35 -70 -38 -18 -4 -40 -4 -49 0 -8 3 -23 21 -32 40 -12
25 -15 47 -10 77 4 23 16 56 27 74 10 18 33 44 49 58 17 14 38 25 48 25z"/>
</g>
</svg>
