<?xml version="1.0" standalone="no"?>
<!DOCTYPE svg PUBLIC "-//W3C//DTD SVG 20010904//EN"
 "http://www.w3.org/TR/2001/REC-SVG-20010904/DTD/svg10.dtd">
<svg version="1.0" xmlns="http://www.w3.org/2000/svg"
 width="157.000000pt" height="171.000000pt" viewBox="0 0 157.000000 171.000000"
 preserveAspectRatio="xMidYMid meet">
<metadata>
Created by potrace 1.16, written by Peter Selinger 2001-2019
</metadata>
<g transform="translate(0.000000,171.000000) scale(0.100000,-0.100000)"
fill="#000000" stroke="none">
<path d="M1244 1578 c-11 2 -23 0 -27 -4 -4 -4 -7 -19 -7 -33 0 -14 -7 -35
-15 -45 -10 -13 -15 -44 -15 -92 0 -50 4 -75 15 -84 8 -6 22 -10 32 -8 14 2
20 17 25 63 3 33 12 84 19 113 10 38 10 58 3 70 -6 9 -20 18 -30 20z M873
1550 c-7 0 -20 -11 -28 -24 -9 -13 -18 -46 -22 -74 -3 -27 -2 -71 1 -97 7 -43
9 -46 34 -43 25 3 27 7 28 50 1 27 7 75 14 109 11 52 11 62 -1 70 -8 5 -20 9
-26 9z M1005 1436 c-5 1 -16 0 -23 -3 -7 -3 -21 -22 -32 -44 -11 -21 -20 -43
-20 -49 0 -6 -16 -55 -36 -108 -20 -53 -44 -115 -54 -137 -10 -22 -21 -51 -25
-65 -4 -14 -18 -46 -31 -72 -13 -26 -28 -49 -34 -53 -5 -3 -20 1 -32 9 -12 9
-32 16 -44 16 -12 0 -27 -7 -34 -15 -10 -12 -10 -22 1 -47 7 -18 24 -48 37
-66 24 -32 24 -32 -24 -135 -26 -56 -57 -114 -67 -130 -10 -15 -36 -36 -57
-47 -22 -11 -50 -20 -62 -20 -13 0 -30 6 -39 13 -9 7 -22 23 -29 37 -9 15 -14
58 -15 110 0 47 -3 85 -6 85 -3 0 -18 -14 -33 -31 -21 -26 -26 -42 -26 -85 0
-30 5 -71 10 -91 6 -20 26 -50 46 -67 30 -27 43 -31 90 -31 35 0 69 7 95 20
21 11 53 40 70 63 17 23 51 83 75 133 24 51 44 97 44 103 0 6 7 11 15 11 8 0
24 -10 36 -22 12 -13 48 -63 82 -113 33 -49 68 -109 79 -132 15 -33 24 -43 42
-43 18 0 27 8 35 31 9 26 7 43 -8 88 -11 31 -22 73 -25 93 -4 36 -4 36 42 41
26 3 62 6 81 6 19 1 46 7 60 14 14 7 26 19 26 27 0 12 -16 15 -95 12 -52 -1
-101 1 -108 6 -10 6 -13 44 -13 143 0 76 10 210 22 310 19 153 20 180 8 204
-8 16 -18 30 -24 31z m-61 -268 c2 -2 -1 -37 -5 -78 -4 -41 -8 -133 -8 -203
-1 -128 -1 -128 -23 -122 -13 3 -40 13 -61 22 -23 10 -40 25 -43 38 -3 13 3
40 15 63 11 22 41 91 67 153 25 63 48 117 51 122 3 5 6 7 7 5z"/>
</g>
</svg>
