<?xml version="1.0" standalone="no"?>
<!DOCTYPE svg PUBLIC "-//W3C//DTD SVG 20010904//EN"
 "http://www.w3.org/TR/2001/REC-SVG-20010904/DTD/svg10.dtd">
<svg version="1.0" xmlns="http://www.w3.org/2000/svg"
 width="159.000000pt" height="172.000000pt" viewBox="0 0 159.000000 172.000000"
 preserveAspectRatio="xMidYMid meet">
<metadata>
Created by potrace 1.16, written by Peter Selinger 2001-2019
</metadata>
<g transform="translate(0.000000,172.000000) scale(0.100000,-0.100000)"
fill="#000000" stroke="none">
<path d="M932 1564 c-5 3 -14 0 -20 -7 -5 -6 -12 -31 -16 -54 -3 -24 -9 -60
-12 -82 -5 -31 -3 -39 12 -45 9 -4 22 -2 27 3 6 6 12 48 14 94 3 49 0 87 -5
91z M768 1548 c-9 2 -18 -1 -21 -5 -3 -5 -8 -40 -12 -79 -6 -58 -4 -72 9 -83
12 -10 20 -10 29 -3 9 8 13 37 13 89 -1 64 -4 78 -18 81z M841 1300 c-20 -1
-59 -8 -86 -18 -28 -10 -71 -29 -96 -44 -25 -15 -69 -48 -97 -73 -30 -27 -62
-69 -79 -103 -26 -53 -28 -65 -28 -182 0 -94 5 -140 19 -185 10 -33 32 -81 48
-107 16 -26 44 -56 62 -67 17 -11 52 -25 78 -30 32 -7 72 -7 130 0 45 5 113
21 149 33 37 13 83 35 102 50 20 15 46 49 59 74 20 41 23 61 22 162 -1 74 -7
135 -17 171 -9 30 -28 73 -43 94 -22 33 -25 45 -19 82 6 40 4 46 -27 77 -21
21 -55 40 -88 50 -29 9 -70 16 -89 16z m-13 -51 c18 1 53 -4 77 -10 24 -6 52
-20 61 -30 9 -11 15 -22 12 -25 -3 -3 -32 2 -64 12 -40 11 -79 15 -126 12 -46
-4 -68 -2 -65 5 2 6 19 16 38 23 19 7 49 13 67 13z m-23 -83 c59 -2 91 -8 123
-25 36 -18 42 -26 40 -49 -3 -24 0 -27 23 -24 21 2 30 -4 42 -31 9 -18 21 -55
27 -82 7 -28 12 -93 12 -145 0 -52 -5 -108 -12 -125 -6 -16 -21 -41 -33 -53
-12 -13 -40 -33 -62 -44 -22 -12 -53 -25 -70 -30 -16 -5 -61 -13 -100 -18 -45
-6 -87 -5 -118 2 -26 5 -61 21 -77 34 -18 16 -40 54 -59 104 -17 44 -34 109
-37 148 -5 49 -2 92 11 147 14 64 24 85 57 121 22 24 54 47 71 53 18 5 43 12
57 15 14 2 61 3 105 2z"/>
</g>
</svg>
