<?xml version="1.0" standalone="no"?>
<!DOCTYPE svg PUBLIC "-//W3C//DTD SVG 20010904//EN"
 "http://www.w3.org/TR/2001/REC-SVG-20010904/DTD/svg10.dtd">
<svg version="1.0" xmlns="http://www.w3.org/2000/svg"
 width="155.000000pt" height="168.000000pt" viewBox="0 0 155.000000 168.000000"
 preserveAspectRatio="xMidYMid meet">
<metadata>
Created by potrace 1.16, written by Peter Selinger 2001-2019
</metadata>
<g transform="translate(0.000000,168.000000) scale(0.100000,-0.100000)"
fill="#000000" stroke="none">
<path d="M1246 959 c-6 -1 -42 -10 -81 -20 -38 -11 -131 -28 -205 -39 -74 -11
-172 -20 -217 -20 -45 0 -93 -4 -107 -10 -14 -5 -26 -16 -26 -24 0 -8 9 -18
21 -21 11 -4 76 -2 142 5 67 6 174 21 237 32 63 11 149 23 190 27 61 5 75 9
78 24 2 10 -2 24 -8 32 -7 8 -18 14 -24 14z M1131 819 c-48 -1 -99 -4 -116 -6
-16 -2 -75 -12 -130 -23 -55 -11 -138 -24 -185 -31 -47 -6 -89 -15 -94 -20 -6
-6 -5 -14 2 -21 7 -7 29 -11 50 -10 20 2 102 16 182 32 80 16 174 31 210 35
45 4 80 1 115 -9 28 -9 56 -16 63 -16 6 0 12 10 12 23 0 13 -5 28 -12 35 -8 8
-42 11 -97 11z"/>
</g>
</svg>
