<?xml version="1.0" standalone="no"?>
<!DOCTYPE svg PUBLIC "-//W3C//DTD SVG 20010904//EN"
 "http://www.w3.org/TR/2001/REC-SVG-20010904/DTD/svg10.dtd">
<svg version="1.0" xmlns="http://www.w3.org/2000/svg"
 width="166.000000pt" height="181.000000pt" viewBox="0 0 166.000000 181.000000"
 preserveAspectRatio="xMidYMid meet">
<metadata>
Created by potrace 1.16, written by Peter Selinger 2001-2019
</metadata>
<g transform="translate(0.000000,181.000000) scale(0.100000,-0.100000)"
fill="#000000" stroke="none">
<path d="M860 1497 c-47 2 -78 -2 -110 -15 -25 -10 -63 -30 -84 -45 -21 -14
-61 -47 -89 -74 -28 -26 -65 -70 -82 -98 -18 -27 -43 -77 -56 -110 -20 -52
-23 -78 -23 -185 -1 -94 3 -134 15 -161 9 -19 31 -52 49 -73 18 -20 51 -46 73
-57 24 -13 69 -23 111 -26 48 -4 100 0 157 11 49 10 120 34 169 58 63 31 102
58 151 107 44 44 72 82 84 115 17 43 17 56 7 120 -7 39 -27 100 -45 136 -17
36 -31 76 -29 89 2 13 -2 37 -9 53 -6 16 -30 42 -53 57 -23 16 -70 43 -106 61
-49 25 -81 34 -130 37z m-25 -49 c11 1 37 -5 58 -13 22 -7 46 -23 54 -34 8
-12 23 -21 33 -21 10 0 32 -14 49 -30 16 -17 33 -40 37 -53 4 -12 19 -36 34
-54 16 -17 38 -57 49 -88 12 -32 24 -83 27 -114 5 -46 2 -65 -14 -97 -11 -21
-40 -58 -64 -80 -24 -23 -61 -53 -83 -67 -22 -13 -74 -37 -115 -52 -55 -20
-100 -29 -170 -32 -89 -4 -98 -3 -150 24 -50 25 -57 34 -79 88 -13 33 -26 86
-29 118 -2 32 1 86 8 120 6 34 26 91 43 126 21 43 57 91 107 141 57 58 88 81
130 97 30 12 64 21 75 21z M820 1297 c-37 3 -52 0 -81 -21 -25 -17 -39 -22
-47 -14 -5 5 -19 7 -31 3 -17 -5 -21 -15 -21 -45 0 -21 -7 -67 -16 -101 -9
-35 -17 -95 -17 -134 -1 -56 4 -80 23 -120 22 -43 29 -50 55 -50 l30 0 3 68
c2 37 5 67 9 67 3 0 29 -22 58 -48 29 -27 74 -56 99 -66 41 -16 51 -16 89 -4
30 9 43 19 45 34 3 19 -3 22 -58 27 -45 4 -70 12 -96 32 -19 14 -32 31 -29 36
4 5 15 9 25 9 10 0 32 11 48 25 19 16 34 41 41 72 9 35 9 58 1 95 -7 29 -26
63 -48 89 -31 34 -45 42 -82 46z m4 -66 c11 -4 30 -25 41 -47 15 -28 19 -53
17 -87 -3 -40 -8 -50 -33 -62 -15 -8 -51 -15 -79 -15 l-50 0 0 65 c0 35 5 74
11 87 5 13 24 33 41 45 21 15 37 19 52 14z"/>
</g>
</svg>
