<?xml version="1.0" standalone="no"?>
<!DOCTYPE svg PUBLIC "-//W3C//DTD SVG 20010904//EN"
 "http://www.w3.org/TR/2001/REC-SVG-20010904/DTD/svg10.dtd">
<svg version="1.0" xmlns="http://www.w3.org/2000/svg"
 width="164.000000pt" height="177.000000pt" viewBox="0 0 164.000000 177.000000"
 preserveAspectRatio="xMidYMid meet">
<metadata>
Created by potrace 1.16, written by Peter Selinger 2001-2019
</metadata>
<g transform="translate(0.000000,177.000000) scale(0.100000,-0.100000)"
fill="#000000" stroke="none">
<path d="M655 1458 c-13 2 -54 -25 -114 -73 -51 -42 -117 -92 -145 -110 -29
-18 -65 -35 -81 -37 -15 -1 -33 -10 -38 -20 -8 -12 -7 -21 2 -32 8 -9 25 -16
40 -16 14 0 45 9 69 20 24 11 77 47 119 81 41 33 78 58 81 54 3 -3 -5 -48 -18
-100 -19 -76 -21 -100 -12 -120 6 -13 23 -27 38 -31 17 -4 31 -1 42 9 13 13
14 23 5 51 -7 21 -8 49 -3 68 5 18 16 57 25 86 9 31 15 77 13 110 -3 48 -6 57
-23 60z M1030 1398 c-9 1 -98 -79 -212 -190 -108 -106 -232 -224 -276 -263
-55 -48 -81 -77 -81 -93 -1 -12 6 -25 14 -28 8 -4 49 23 102 67 48 40 161 145
251 233 89 89 176 168 192 176 27 13 30 19 28 55 -2 26 -8 41 -18 43z M966
1070 c-16 0 -32 -11 -48 -32 -13 -18 -48 -76 -79 -130 -31 -53 -59 -107 -62
-120 -4 -13 -3 -28 1 -34 4 -6 18 -17 31 -24 13 -7 62 -15 109 -18 84 -5 84
-5 77 -126 -7 -115 -6 -122 14 -140 16 -15 24 -16 35 -7 10 8 15 46 18 136 2
69 9 130 15 136 5 5 56 13 113 17 82 6 105 11 114 24 8 13 7 21 -2 30 -9 9
-42 12 -113 10 -100 -3 -100 -3 -97 75 2 65 0 78 -13 81 -9 2 -23 -3 -31 -11
-8 -8 -20 -47 -28 -86 -13 -71 -13 -71 -86 -71 -49 0 -74 4 -77 13 -2 6 16 45
40 85 23 41 43 76 43 79 0 3 14 23 31 44 17 22 28 46 25 54 -3 8 -16 15 -30
15z"/>
</g>
</svg>
