<?xml version="1.0" standalone="no"?>
<!DOCTYPE svg PUBLIC "-//W3C//DTD SVG 20010904//EN"
 "http://www.w3.org/TR/2001/REC-SVG-20010904/DTD/svg10.dtd">
<svg version="1.0" xmlns="http://www.w3.org/2000/svg"
 width="152.000000pt" height="167.000000pt" viewBox="0 0 152.000000 167.000000"
 preserveAspectRatio="xMidYMid meet">
<metadata>
Created by potrace 1.16, written by Peter Selinger 2001-2019
</metadata>
<g transform="translate(0.000000,167.000000) scale(0.100000,-0.100000)"
fill="#000000" stroke="none">
<path d="M911 1560 c-15 0 -48 -11 -76 -24 -27 -13 -62 -36 -76 -52 -14 -16
-35 -42 -46 -59 -12 -16 -30 -61 -42 -99 -14 -45 -21 -95 -21 -147 0 -43 7
-115 16 -159 9 -44 14 -90 10 -104 -3 -13 -18 -28 -33 -34 -16 -6 -59 -19 -96
-28 -38 -9 -75 -23 -83 -31 -11 -11 -12 -19 -4 -28 9 -11 23 -10 78 6 37 10
86 19 110 19 37 0 44 -3 53 -27 6 -16 8 -48 5 -73 -3 -25 -10 -74 -16 -110 -5
-36 -12 -117 -16 -180 -6 -106 -5 -120 15 -165 12 -28 32 -60 44 -73 12 -13
34 -30 49 -38 15 -8 60 -17 100 -20 52 -5 91 -2 136 10 34 8 73 23 87 32 14 9
25 23 25 30 0 8 -4 14 -8 14 -5 0 -28 -10 -53 -22 -33 -16 -62 -21 -119 -21
-41 0 -93 6 -115 14 -26 9 -49 28 -70 57 -27 39 -30 53 -33 130 -2 48 4 137
13 197 9 61 19 131 22 157 4 37 0 59 -18 94 -16 35 -22 62 -20 103 1 31 -5 88
-14 126 -8 39 -15 93 -15 122 0 29 5 76 11 105 6 29 22 73 34 98 13 25 44 65
69 88 28 26 55 42 71 42 15 0 25 -6 25 -14 0 -8 5 -18 10 -21 6 -4 17 -1 25 5
8 7 15 22 15 34 0 12 -5 27 -12 34 -7 7 -23 12 -37 12z"/>
</g>
</svg>
