<?xml version="1.0" standalone="no"?>
<!DOCTYPE svg PUBLIC "-//W3C//DTD SVG 20010904//EN"
 "http://www.w3.org/TR/2001/REC-SVG-20010904/DTD/svg10.dtd">
<svg version="1.0" xmlns="http://www.w3.org/2000/svg"
 width="164.000000pt" height="179.000000pt" viewBox="0 0 164.000000 179.000000"
 preserveAspectRatio="xMidYMid meet">
<metadata>
Created by potrace 1.16, written by Peter Selinger 2001-2019
</metadata>
<g transform="translate(0.000000,179.000000) scale(0.100000,-0.100000)"
fill="#000000" stroke="none">
<path d="M764 990 c-16 0 -53 -14 -83 -31 -29 -17 -76 -54 -105 -82 -28 -29
-70 -74 -93 -101 -35 -39 -42 -53 -37 -75 3 -14 14 -42 23 -61 12 -24 32 -43
67 -60 37 -19 68 -26 129 -28 47 -2 115 3 165 12 46 9 104 26 127 37 28 14 43
27 43 40 0 12 -7 19 -18 19 -11 0 -45 -9 -78 -21 -46 -17 -85 -21 -179 -23
-99 -1 -126 2 -153 17 -24 13 -32 24 -30 39 2 16 16 24 57 35 30 7 80 27 112
44 32 17 74 47 93 67 31 30 36 42 36 82 0 36 -5 52 -23 68 -13 12 -36 22 -53
22z m-7 -70 c7 0 13 -9 13 -20 0 -12 -11 -32 -25 -46 -14 -14 -55 -39 -91 -55
-37 -17 -69 -28 -72 -25 -3 3 13 27 35 53 22 26 59 58 83 70 24 13 49 23 57
23z"/>
</g>
</svg>
