<?xml version="1.0" standalone="no"?>
<!DOCTYPE svg PUBLIC "-//W3C//DTD SVG 20010904//EN"
 "http://www.w3.org/TR/2001/REC-SVG-20010904/DTD/svg10.dtd">
<svg version="1.0" xmlns="http://www.w3.org/2000/svg"
 width="166.000000pt" height="179.000000pt" viewBox="0 0 166.000000 179.000000"
 preserveAspectRatio="xMidYMid meet">
<metadata>
Created by potrace 1.16, written by Peter Selinger 2001-2019
</metadata>
<g transform="translate(0.000000,179.000000) scale(0.100000,-0.100000)"
fill="#000000" stroke="none">
<path d="M985 1690 c-11 3 -27 5 -35 2 -8 -2 -36 -32 -62 -65 -26 -34 -77
-106 -113 -159 -36 -54 -75 -118 -87 -142 -22 -45 -22 -45 15 -81 33 -32 42
-36 70 -30 17 4 44 14 60 21 15 8 27 23 27 34 0 10 -5 31 -12 45 -6 14 -15 25
-19 25 -4 0 -10 9 -14 19 -3 12 3 37 15 61 12 23 40 68 63 100 23 32 59 68 80
80 33 19 38 26 35 52 -2 20 -10 33 -23 38z"/>
</g>
</svg>
