<?xml version="1.0" standalone="no"?>
<!DOCTYPE svg PUBLIC "-//W3C//DTD SVG 20010904//EN"
 "http://www.w3.org/TR/2001/REC-SVG-20010904/DTD/svg10.dtd">
<svg version="1.0" xmlns="http://www.w3.org/2000/svg"
 width="152.000000pt" height="167.000000pt" viewBox="0 0 152.000000 167.000000"
 preserveAspectRatio="xMidYMid meet">
<metadata>
Created by potrace 1.16, written by Peter Selinger 2001-2019
</metadata>
<g transform="translate(0.000000,167.000000) scale(0.100000,-0.100000)"
fill="#000000" stroke="none">
<path d="M949 1229 c-19 -1 -63 -7 -99 -15 -36 -7 -102 -13 -147 -14 -75 0
-83 -2 -83 -19 0 -10 7 -22 16 -25 9 -3 41 -6 72 -6 31 0 97 7 145 15 48 9 92
13 97 10 6 -3 10 -27 10 -53 0 -28 -14 -88 -35 -146 -19 -54 -41 -109 -50
-122 -13 -21 -23 -24 -71 -24 -30 0 -64 -5 -75 -10 -10 -6 -19 -20 -19 -30 0
-18 7 -20 65 -20 59 0 65 -2 65 -21 0 -11 -13 -51 -29 -87 -16 -37 -39 -98
-51 -135 -12 -37 -19 -74 -16 -82 3 -8 12 -15 21 -15 8 0 24 14 34 31 11 18
26 63 35 100 8 38 24 86 36 108 11 22 20 47 20 55 0 8 10 26 23 39 18 20 42
27 137 42 63 10 127 24 143 32 15 7 27 20 27 28 0 9 -9 15 -23 15 -12 0 -54
-7 -92 -15 -39 -8 -89 -15 -112 -15 -28 0 -43 4 -43 13 0 6 16 57 35 112 25
71 35 117 35 161 0 46 -4 65 -18 77 -11 10 -33 16 -53 16z"/>
</g>
</svg>
