<?xml version="1.0" standalone="no"?>
<!DOCTYPE svg PUBLIC "-//W3C//DTD SVG 20010904//EN"
 "http://www.w3.org/TR/2001/REC-SVG-20010904/DTD/svg10.dtd">
<svg version="1.0" xmlns="http://www.w3.org/2000/svg"
 width="155.000000pt" height="171.000000pt" viewBox="0 0 155.000000 171.000000"
 preserveAspectRatio="xMidYMid meet">
<metadata>
Created by potrace 1.16, written by Peter Selinger 2001-2019
</metadata>
<g transform="translate(0.000000,171.000000) scale(0.100000,-0.100000)"
fill="#000000" stroke="none">
<path d="M991 1300 c-11 0 -43 -39 -91 -112 -40 -62 -94 -147 -118 -188 -25
-41 -54 -100 -64 -130 -11 -30 -26 -67 -35 -83 -8 -16 -33 -49 -55 -73 -25
-28 -49 -44 -64 -44 -12 0 -30 8 -40 17 -14 14 -15 29 -10 86 3 39 18 130 31
204 14 74 25 158 25 188 0 29 -3 60 -6 69 -3 9 -12 16 -20 16 -7 0 -17 -8 -22
-17 -5 -10 -12 -68 -16 -128 -3 -61 -13 -142 -21 -180 -8 -39 -18 -104 -21
-145 -4 -45 -2 -86 5 -103 6 -15 26 -34 45 -43 23 -11 45 -14 69 -10 27 5 50
22 91 68 52 57 58 61 81 50 14 -6 67 -17 118 -23 50 -6 119 -20 152 -31 33
-11 79 -31 103 -44 23 -14 47 -22 52 -19 6 3 10 10 10 15 0 4 -21 21 -47 37
-27 17 -74 39 -106 51 -32 12 -96 29 -143 37 -46 8 -94 19 -104 25 -11 6 -20
19 -20 28 0 10 18 56 41 102 22 47 79 142 126 211 65 97 83 132 78 148 -3 12
-14 21 -24 21z"/>
</g>
</svg>
