<?xml version="1.0" standalone="no"?>
<!DOCTYPE svg PUBLIC "-//W3C//DTD SVG 20010904//EN"
 "http://www.w3.org/TR/2001/REC-SVG-20010904/DTD/svg10.dtd">
<svg version="1.0" xmlns="http://www.w3.org/2000/svg"
 width="158.000000pt" height="173.000000pt" viewBox="0 0 158.000000 173.000000"
 preserveAspectRatio="xMidYMid meet">
<metadata>
Created by potrace 1.16, written by Peter Selinger 2001-2019
</metadata>
<g transform="translate(0.000000,173.000000) scale(0.100000,-0.100000)"
fill="#000000" stroke="none">
<path d="M767 1480 c-7 0 -18 -15 -25 -33 -7 -18 -12 -63 -12 -99 0 -50 4 -69
18 -81 10 -10 26 -17 34 -17 9 0 18 6 21 13 3 7 -1 24 -9 38 -8 14 -13 56 -14
102 0 56 -3 77 -13 77z M890 1464 c-6 6 -12 2 -16 -10 -3 -10 -12 -35 -19 -54
-8 -19 -16 -58 -19 -86 -4 -29 -2 -64 4 -79 7 -17 16 -25 28 -23 15 3 18 20
24 123 4 70 3 124 -2 129z M595 1290 c-18 0 -30 -15 -63 -82 -22 -46 -47 -105
-55 -133 -9 -27 -22 -86 -30 -130 -9 -44 -18 -101 -22 -126 -3 -26 -1 -77 5
-115 6 -38 24 -97 41 -131 16 -35 43 -72 60 -84 26 -18 40 -21 98 -17 44 3 85
14 116 29 26 13 64 43 85 67 21 23 48 67 60 97 12 30 26 55 30 55 4 0 11 -19
16 -41 6 -28 19 -49 37 -63 21 -16 32 -18 45 -10 9 6 18 20 20 31 2 13 -4 22
-17 26 -13 3 -24 19 -32 48 -9 35 -9 64 1 139 7 52 15 142 17 200 3 84 1 109
-12 125 -12 15 -19 17 -33 9 -13 -8 -17 -28 -19 -85 -1 -41 -8 -105 -17 -144
-8 -38 -29 -113 -46 -165 -18 -52 -43 -116 -56 -143 -14 -26 -42 -60 -64 -76
-22 -16 -66 -34 -100 -41 -57 -12 -63 -12 -88 7 -15 11 -37 34 -49 52 -12 17
-26 54 -32 82 -6 27 -11 79 -11 114 0 35 7 94 15 132 9 37 27 104 42 148 14
44 36 91 48 105 13 14 27 41 32 60 6 19 8 41 6 48 -3 6 -15 12 -28 12z"/>
</g>
</svg>
