<?xml version="1.0" standalone="no"?>
<!DOCTYPE svg PUBLIC "-//W3C//DTD SVG 20010904//EN"
 "http://www.w3.org/TR/2001/REC-SVG-20010904/DTD/svg10.dtd">
<svg version="1.0" xmlns="http://www.w3.org/2000/svg"
 width="152.000000pt" height="167.000000pt" viewBox="0 0 152.000000 167.000000"
 preserveAspectRatio="xMidYMid meet">
<metadata>
Created by potrace 1.16, written by Peter Selinger 2001-2019
</metadata>
<g transform="translate(0.000000,167.000000) scale(0.100000,-0.100000)"
fill="#000000" stroke="none">
<path d="M625 930 c-7 0 -17 -6 -22 -12 -6 -7 -15 -34 -22 -61 -8 -35 -9 -71
0 -140 7 -65 18 -105 35 -134 23 -40 28 -43 66 -43 29 0 51 8 74 25 18 14 41
41 49 60 9 18 24 59 34 91 9 31 23 61 31 65 8 5 40 13 70 19 30 6 66 19 79 29
16 13 22 24 17 36 -4 12 -13 16 -29 12 -12 -3 -44 -12 -71 -18 -46 -12 -50
-12 -67 10 -10 12 -26 21 -36 19 -13 -2 -21 -25 -35 -93 -10 -50 -28 -110 -41
-134 -12 -25 -30 -50 -40 -55 -12 -8 -22 -8 -35 0 -9 6 -23 33 -30 60 -9 31
-12 83 -9 144 3 52 3 101 0 108 -3 6 -10 12 -18 12z"/>
</g>
</svg>
