<?xml version="1.0" standalone="no"?>
<!DOCTYPE svg PUBLIC "-//W3C//DTD SVG 20010904//EN"
 "http://www.w3.org/TR/2001/REC-SVG-20010904/DTD/svg10.dtd">
<svg version="1.0" xmlns="http://www.w3.org/2000/svg"
 width="157.000000pt" height="169.000000pt" viewBox="0 0 157.000000 169.000000"
 preserveAspectRatio="xMidYMid meet">
<metadata>
Created by potrace 1.16, written by Peter Selinger 2001-2019
</metadata>
<g transform="translate(0.000000,169.000000) scale(0.100000,-0.100000)"
fill="#000000" stroke="none">
<path d="M725 910 c-17 0 -46 -8 -65 -19 -19 -10 -43 -32 -53 -50 -11 -17 -25
-55 -33 -83 -7 -29 -14 -75 -14 -101 0 -37 5 -53 24 -72 13 -13 36 -27 51 -31
15 -4 46 -1 68 6 24 7 59 30 83 54 26 26 46 57 53 83 6 23 21 49 34 58 12 9
43 15 74 15 28 0 55 5 59 11 3 6 0 17 -7 23 -8 7 -38 18 -68 25 -33 7 -63 21
-76 35 -13 14 -40 29 -61 35 -22 6 -53 11 -69 11z m-15 -70 c4 0 15 -9 25 -20
10 -11 24 -20 31 -20 7 0 15 -4 18 -9 3 -4 0 -32 -8 -60 -7 -29 -24 -63 -36
-76 -13 -14 -39 -28 -58 -31 -24 -5 -37 -2 -43 7 -5 8 -6 39 -3 69 4 30 10 65
15 77 4 11 18 31 30 42 13 12 26 21 29 21z"/>
</g>
</svg>
