<?xml version="1.0" standalone="no"?>
<!DOCTYPE svg PUBLIC "-//W3C//DTD SVG 20010904//EN"
 "http://www.w3.org/TR/2001/REC-SVG-20010904/DTD/svg10.dtd">
<svg version="1.0" xmlns="http://www.w3.org/2000/svg"
 width="157.000000pt" height="171.000000pt" viewBox="0 0 157.000000 171.000000"
 preserveAspectRatio="xMidYMid meet">
<metadata>
Created by potrace 1.16, written by Peter Selinger 2001-2019
</metadata>
<g transform="translate(0.000000,171.000000) scale(0.100000,-0.100000)"
fill="#000000" stroke="none">
<path d="M1243 1568 c-19 3 -23 -1 -23 -25 0 -15 -7 -37 -15 -47 -10 -13 -15
-44 -15 -92 0 -46 5 -75 13 -82 7 -6 17 -8 23 -4 6 4 14 33 18 66 3 32 11 67
17 77 5 11 9 39 7 62 -2 35 -7 43 -25 45z M882 1540 c-11 0 -26 -7 -33 -16 -8
-10 -15 -52 -17 -110 l-4 -94 24 0 c24 0 26 4 32 73 3 39 9 89 12 110 5 32 4
37 -14 37z M996 1430 c-8 0 -20 -10 -28 -22 -8 -13 -29 -66 -46 -119 -17 -52
-45 -126 -62 -163 -16 -37 -30 -72 -30 -78 0 -5 -16 -43 -36 -84 -20 -41 -42
-74 -49 -74 -7 0 -18 7 -25 15 -7 8 -25 15 -41 15 -15 0 -31 -5 -34 -11 -4 -5
-1 -25 6 -42 7 -18 21 -43 31 -56 10 -13 18 -34 18 -46 0 -12 -20 -63 -45
-115 -25 -51 -55 -104 -66 -118 -11 -14 -32 -33 -47 -42 -15 -9 -40 -20 -55
-24 -19 -4 -37 -1 -57 11 -16 9 -34 30 -40 46 -5 17 -10 58 -10 92 0 34 -3 65
-7 68 -3 4 -15 0 -25 -10 -14 -12 -18 -31 -18 -80 0 -35 6 -78 14 -96 7 -18
28 -45 45 -60 24 -20 44 -27 74 -27 22 0 60 10 84 21 24 12 56 36 70 54 14 18
48 75 74 126 27 52 49 102 49 112 0 10 7 20 16 24 9 3 27 -6 45 -23 17 -16 60
-74 96 -129 36 -55 70 -112 75 -127 7 -20 17 -28 33 -28 18 0 25 7 30 29 4 18
-2 51 -14 89 -12 34 -21 77 -21 97 l0 35 68 1 c37 0 83 5 102 12 19 7 35 19
35 27 0 12 -18 15 -105 15 l-105 0 -3 129 c-2 87 4 177 18 281 11 84 20 172
20 195 0 23 -5 50 -10 61 -6 10 -17 19 -24 19z m-51 -242 c2 -2 1 -99 -2 -216
-6 -200 -7 -212 -25 -212 -11 0 -42 10 -69 21 -33 15 -51 29 -55 44 -4 14 6
45 27 86 17 35 42 91 55 124 12 33 32 82 44 108 12 27 23 47 25 45z"/>
</g>
</svg>
