<?xml version="1.0" standalone="no"?>
<!DOCTYPE svg PUBLIC "-//W3C//DTD SVG 20010904//EN"
 "http://www.w3.org/TR/2001/REC-SVG-20010904/DTD/svg10.dtd">
<svg version="1.0" xmlns="http://www.w3.org/2000/svg"
 width="158.000000pt" height="171.000000pt" viewBox="0 0 158.000000 171.000000"
 preserveAspectRatio="xMidYMid meet">
<metadata>
Created by potrace 1.16, written by Peter Selinger 2001-2019
</metadata>
<g transform="translate(0.000000,171.000000) scale(0.100000,-0.100000)"
fill="#000000" stroke="none">
<path d="M1061 1180 c-10 0 -47 -28 -82 -63 -35 -34 -88 -98 -118 -141 -30
-44 -77 -129 -105 -191 -28 -61 -59 -123 -68 -136 -17 -24 -18 -24 -33 -5 -8
11 -28 54 -44 95 -16 42 -43 139 -61 216 -17 77 -38 155 -46 173 -9 20 -21 32
-33 32 -11 0 -22 -4 -25 -9 -4 -5 23 -111 59 -236 36 -125 79 -255 96 -289 17
-33 38 -69 47 -79 9 -10 25 -17 36 -15 15 2 31 23 53 68 18 36 41 88 52 117
11 28 33 78 49 110 16 32 46 87 68 123 21 35 69 96 107 134 37 38 67 75 67 82
0 8 -8 14 -19 14z"/>
</g>
</svg>
