<?xml version="1.0" standalone="no"?>
<!DOCTYPE svg PUBLIC "-//W3C//DTD SVG 20010904//EN"
 "http://www.w3.org/TR/2001/REC-SVG-20010904/DTD/svg10.dtd">
<svg version="1.0" xmlns="http://www.w3.org/2000/svg"
 width="152.000000pt" height="168.000000pt" viewBox="0 0 152.000000 168.000000"
 preserveAspectRatio="xMidYMid meet">
<metadata>
Created by potrace 1.16, written by Peter Selinger 2001-2019
</metadata>
<g transform="translate(0.000000,168.000000) scale(0.100000,-0.100000)"
fill="#000000" stroke="none">
<path d="M928 860 c-5 0 -20 -26 -34 -57 -14 -32 -42 -75 -62 -95 -27 -29 -44
-38 -68 -38 -23 0 -39 8 -53 26 -15 19 -21 41 -21 80 0 29 -5 56 -11 60 -6 3
-15 0 -20 -7 -4 -8 -11 -37 -15 -65 -4 -37 -2 -60 10 -82 9 -17 26 -38 38 -46
13 -9 43 -16 69 -16 31 0 55 7 72 20 14 11 31 20 37 20 9 0 11 -16 6 -62 -4
-34 -14 -89 -23 -123 -8 -33 -26 -98 -40 -145 -14 -47 -34 -101 -44 -121 -10
-20 -34 -50 -55 -68 -33 -29 -41 -32 -83 -28 -25 3 -57 7 -71 9 -17 2 -25 -2
-25 -12 0 -8 13 -21 30 -29 16 -8 48 -14 72 -13 25 0 60 10 84 24 23 12 56 40
72 60 20 25 42 79 69 165 21 70 49 182 62 248 13 66 27 153 31 193 5 52 4 77
-5 87 -7 8 -17 15 -22 15z"/>
</g>
</svg>
