<?xml version="1.0" standalone="no"?>
<!DOCTYPE svg PUBLIC "-//W3C//DTD SVG 20010904//EN"
 "http://www.w3.org/TR/2001/REC-SVG-20010904/DTD/svg10.dtd">
<svg version="1.0" xmlns="http://www.w3.org/2000/svg"
 width="164.000000pt" height="180.000000pt" viewBox="0 0 164.000000 180.000000"
 preserveAspectRatio="xMidYMid meet">
<metadata>
Created by potrace 1.16, written by Peter Selinger 2001-2019
</metadata>
<g transform="translate(0.000000,180.000000) scale(0.100000,-0.100000)"
fill="#000000" stroke="none">
<path d="M782 1240 c-14 0 -26 -8 -31 -22 -5 -13 -23 -82 -40 -153 -17 -72
-34 -152 -37 -178 -4 -26 -12 -51 -18 -55 -6 -4 -14 -7 -18 -8 -5 -1 -26 -2
-49 -3 -38 -1 -40 -3 -37 -28 3 -25 7 -28 47 -31 43 -3 43 -3 37 -90 -4 -53
-3 -107 4 -139 6 -28 20 -59 31 -69 11 -10 41 -19 72 -22 41 -3 68 2 126 24
40 16 98 49 129 74 31 25 67 61 80 80 12 19 22 43 20 54 -2 12 -10 22 -20 24
-9 2 -42 -23 -80 -61 -50 -50 -77 -69 -133 -90 -39 -15 -87 -27 -107 -27 -23
0 -38 5 -42 16 -3 9 -6 27 -6 41 0 14 7 31 15 37 9 6 18 35 22 66 3 30 10 63
15 73 5 9 19 17 32 17 12 0 52 14 87 31 35 18 74 41 87 52 12 11 22 28 22 38
0 10 -5 21 -11 24 -6 4 -43 -9 -82 -28 -40 -20 -86 -39 -103 -42 -31 -6 -31
-6 -27 47 2 29 8 78 14 108 5 30 15 75 21 100 6 25 16 62 22 83 8 31 8 40 -4
47 -8 6 -25 10 -38 10z"/>
</g>
</svg>
