<?xml version="1.0" standalone="no"?>
<!DOCTYPE svg PUBLIC "-//W3C//DTD SVG 20010904//EN"
 "http://www.w3.org/TR/2001/REC-SVG-20010904/DTD/svg10.dtd">
<svg version="1.0" xmlns="http://www.w3.org/2000/svg"
 width="151.000000pt" height="168.000000pt" viewBox="0 0 151.000000 168.000000"
 preserveAspectRatio="xMidYMid meet">
<metadata>
Created by potrace 1.16, written by Peter Selinger 2001-2019
</metadata>
<g transform="translate(0.000000,168.000000) scale(0.100000,-0.100000)"
fill="#000000" stroke="none">
<path d="M532 1340 c-10 0 -23 -5 -30 -12 -7 -7 -12 -16 -12 -21 0 -6 25 -48
56 -95 31 -47 79 -124 106 -171 27 -47 53 -93 58 -101 6 -8 20 -35 33 -60 13
-25 50 -92 82 -150 32 -58 75 -132 95 -165 20 -33 48 -85 62 -115 14 -30 42
-103 62 -163 20 -59 36 -125 36 -147 0 -29 6 -43 22 -54 12 -9 28 -16 35 -16
7 0 20 11 29 24 15 23 14 27 -9 68 -13 24 -32 74 -41 113 -10 38 -32 106 -51
150 -18 45 -65 134 -104 198 -39 65 -107 186 -152 270 -44 83 -100 185 -122
225 -23 40 -63 107 -89 148 -31 48 -54 74 -66 74z"/>
</g>
</svg>
