<?xml version="1.0" standalone="no"?>
<!DOCTYPE svg PUBLIC "-//W3C//DTD SVG 20010904//EN"
 "http://www.w3.org/TR/2001/REC-SVG-20010904/DTD/svg10.dtd">
<svg version="1.0" xmlns="http://www.w3.org/2000/svg"
 width="155.000000pt" height="168.000000pt" viewBox="0 0 155.000000 168.000000"
 preserveAspectRatio="xMidYMid meet">
<metadata>
Created by potrace 1.16, written by Peter Selinger 2001-2019
</metadata>
<g transform="translate(0.000000,168.000000) scale(0.100000,-0.100000)"
fill="#000000" stroke="none">
<path d="M784 1528 c-53 3 -62 1 -91 -25 -17 -15 -34 -40 -37 -55 -4 -16 -1
-30 5 -34 7 -4 23 6 38 24 14 16 36 33 49 37 12 3 31 4 41 0 10 -3 24 -19 31
-35 10 -25 9 -54 -6 -163 -10 -72 -19 -170 -19 -216 0 -83 0 -83 54 -133 51
-46 54 -52 41 -71 -8 -12 -24 -40 -36 -62 -17 -29 -26 -70 -35 -153 -9 -86 -9
-131 0 -182 6 -38 11 -94 11 -125 0 -30 -6 -70 -14 -89 -7 -18 -26 -42 -41
-54 -15 -12 -40 -22 -55 -22 -16 0 -43 14 -67 35 -23 19 -46 35 -51 35 -6 0
-14 -5 -18 -11 -3 -6 9 -27 27 -46 19 -20 52 -44 74 -54 22 -10 50 -19 62 -19
12 0 45 22 77 50 48 45 56 58 67 108 7 37 9 81 3 127 -4 38 -8 113 -7 165 0
52 5 119 12 147 7 29 26 71 42 93 17 23 46 50 65 62 27 16 34 26 34 50 0 30 0
31 -44 25 -38 -6 -49 -2 -84 23 -25 18 -45 42 -52 64 -9 29 -7 68 11 209 13
98 19 187 15 207 -3 19 -15 46 -25 59 -15 20 -30 25 -77 29z"/>
</g>
</svg>
