<?xml version="1.0" standalone="no"?>
<!DOCTYPE svg PUBLIC "-//W3C//DTD SVG 20010904//EN"
 "http://www.w3.org/TR/2001/REC-SVG-20010904/DTD/svg10.dtd">
<svg version="1.0" xmlns="http://www.w3.org/2000/svg"
 width="157.000000pt" height="173.000000pt" viewBox="0 0 157.000000 173.000000"
 preserveAspectRatio="xMidYMid meet">
<metadata>
Created by potrace 1.16, written by Peter Selinger 2001-2019
</metadata>
<g transform="translate(0.000000,173.000000) scale(0.100000,-0.100000)"
fill="#000000" stroke="none">
<path d="M731 1180 c-5 0 -14 -7 -21 -15 -6 -8 -16 -43 -20 -77 -5 -35 -18
-133 -29 -218 -11 -85 -21 -196 -21 -246 0 -69 4 -95 15 -104 9 -7 28 -10 48
-6 21 4 50 24 82 56 27 28 52 50 56 50 4 0 12 -15 18 -33 7 -19 24 -45 39 -59
15 -14 38 -31 51 -38 14 -7 39 -10 63 -6 22 4 53 13 69 22 18 9 29 22 29 35 0
18 -4 20 -27 14 -16 -4 -50 -8 -77 -9 -42 -1 -51 3 -69 26 -11 15 -22 49 -25
76 -3 34 3 71 18 121 21 66 22 74 7 88 -8 9 -22 13 -30 10 -8 -3 -28 -35 -45
-71 -17 -36 -45 -87 -63 -113 -18 -27 -43 -60 -57 -75 -14 -15 -29 -25 -34
-22 -4 3 -8 36 -8 73 0 38 9 126 20 197 11 71 25 164 31 207 7 54 6 83 -1 97
-6 11 -14 20 -19 20z"/>
</g>
</svg>
