<?xml version="1.0" standalone="no"?>
<!DOCTYPE svg PUBLIC "-//W3C//DTD SVG 20010904//EN"
 "http://www.w3.org/TR/2001/REC-SVG-20010904/DTD/svg10.dtd">
<svg version="1.0" xmlns="http://www.w3.org/2000/svg"
 width="154.000000pt" height="168.000000pt" viewBox="0 0 154.000000 168.000000"
 preserveAspectRatio="xMidYMid meet">
<metadata>
Created by potrace 1.16, written by Peter Selinger 2001-2019
</metadata>
<g transform="translate(0.000000,168.000000) scale(0.100000,-0.100000)"
fill="#000000" stroke="none">
<path d="M625 900 c-9 0 -20 -12 -26 -27 -6 -16 -17 -55 -26 -87 -9 -38 -14
-90 -11 -143 3 -75 6 -87 27 -104 15 -12 39 -19 68 -19 40 0 49 5 84 42 35 38
41 41 59 30 11 -6 29 -17 39 -24 15 -9 25 -9 48 2 l28 14 -28 4 c-15 2 -34 14
-43 28 -13 18 -15 38 -10 87 3 34 9 83 12 110 5 38 3 47 -10 47 -8 0 -19 -8
-25 -17 -5 -10 -16 -47 -25 -83 -9 -36 -32 -97 -51 -137 -26 -57 -39 -74 -60
-79 -20 -5 -32 -1 -47 13 -11 11 -23 36 -27 55 -5 19 -4 65 1 103 5 38 16 84
24 103 8 19 14 45 14 58 0 15 -6 24 -15 24z"/>
</g>
</svg>
