<?xml version="1.0" standalone="no"?>
<!DOCTYPE svg PUBLIC "-//W3C//DTD SVG 20010904//EN"
 "http://www.w3.org/TR/2001/REC-SVG-20010904/DTD/svg10.dtd">
<svg version="1.0" xmlns="http://www.w3.org/2000/svg"
 width="158.000000pt" height="171.000000pt" viewBox="0 0 158.000000 171.000000"
 preserveAspectRatio="xMidYMid meet">
<metadata>
Created by potrace 1.16, written by Peter Selinger 2001-2019
</metadata>
<g transform="translate(0.000000,171.000000) scale(0.100000,-0.100000)"
fill="#000000" stroke="none">
<path d="M934 1310 c-8 0 -18 -10 -23 -22 -5 -13 -12 -48 -16 -78 -4 -30 -15
-91 -26 -135 -11 -44 -31 -113 -45 -152 -14 -40 -31 -73 -38 -73 -6 0 -29 21
-50 46 -21 25 -49 50 -62 56 -17 8 -27 8 -39 -2 -10 -8 -15 -30 -15 -62 0 -27
6 -63 14 -81 7 -18 32 -49 55 -69 22 -19 41 -41 41 -49 0 -8 -14 -37 -30 -66
-16 -28 -43 -61 -59 -72 -20 -15 -44 -21 -79 -21 -38 0 -55 5 -75 24 -14 13
-29 36 -33 50 -3 14 -4 59 0 99 3 39 8 91 12 113 3 24 1 51 -5 63 -7 12 -18
21 -25 21 -8 0 -19 -7 -26 -15 -7 -9 -14 -58 -17 -118 -4 -78 -2 -117 11 -158
8 -31 25 -68 36 -82 12 -15 38 -32 60 -38 23 -7 60 -9 93 -5 42 6 64 15 94 41
22 18 54 61 72 94 22 41 38 61 51 61 10 0 47 -32 84 -72 57 -62 67 -70 81 -58
13 11 15 25 10 71 l-7 58 43 26 c23 15 82 47 130 72 49 25 86 49 83 54 -3 5
-13 9 -23 9 -10 0 -66 -24 -124 -53 -80 -40 -110 -51 -117 -42 -5 6 -15 47
-21 91 -7 47 -9 132 -5 210 3 73 11 155 17 183 8 40 8 55 -1 66 -7 8 -19 15
-26 15z m-55 -420 c5 0 11 -14 15 -31 3 -17 6 -56 6 -85 0 -35 -4 -54 -12 -54
-6 0 -20 7 -30 17 -10 9 -18 30 -18 48 0 18 7 49 15 69 8 20 19 36 24 36z
m-192 -20 c5 0 24 -18 42 -41 21 -25 30 -46 26 -56 -5 -14 -10 -12 -35 13 -16
16 -32 41 -35 57 -4 15 -3 27 2 27z"/>
</g>
</svg>
