<?xml version="1.0" standalone="no"?>
<!DOCTYPE svg PUBLIC "-//W3C//DTD SVG 20010904//EN"
 "http://www.w3.org/TR/2001/REC-SVG-20010904/DTD/svg10.dtd">
<svg version="1.0" xmlns="http://www.w3.org/2000/svg"
 width="151.000000pt" height="167.000000pt" viewBox="0 0 151.000000 167.000000"
 preserveAspectRatio="xMidYMid meet">
<metadata>
Created by potrace 1.16, written by Peter Selinger 2001-2019
</metadata>
<g transform="translate(0.000000,167.000000) scale(0.100000,-0.100000)"
fill="#000000" stroke="none">
<path d="M470 890 c-5 0 -16 -10 -24 -22 -7 -13 -19 -52 -25 -88 -5 -36 -13
-93 -17 -127 -4 -43 -1 -78 10 -115 8 -29 24 -58 34 -65 11 -6 35 -15 54 -18
26 -5 46 -1 76 14 22 11 49 32 60 46 11 14 27 25 36 25 8 0 22 -13 31 -30 8
-16 24 -34 34 -40 11 -5 33 -10 49 -10 16 0 37 9 46 19 10 11 26 50 36 88 10
37 21 96 25 130 4 36 13 67 22 75 8 7 24 17 35 23 12 5 20 15 18 20 -1 6 -21
15 -43 22 -30 9 -45 9 -54 1 -7 -6 -13 -27 -13 -48 0 -21 -9 -82 -20 -135 -11
-54 -26 -109 -33 -124 -7 -14 -19 -26 -27 -26 -8 0 -24 18 -35 40 -15 30 -20
62 -22 130 -1 50 -2 96 -2 103 -1 6 -8 12 -16 12 -9 0 -19 -10 -24 -22 -5 -13
-16 -54 -25 -92 -9 -37 -26 -87 -38 -109 -13 -22 -34 -48 -48 -58 -14 -9 -34
-20 -46 -23 -13 -4 -30 1 -45 13 -20 16 -24 30 -27 94 -3 44 2 105 12 152 9
42 16 92 16 111 0 19 -4 34 -10 34z"/>
</g>
</svg>
