<?xml version="1.0" standalone="no"?>
<!DOCTYPE svg PUBLIC "-//W3C//DTD SVG 20010904//EN"
 "http://www.w3.org/TR/2001/REC-SVG-20010904/DTD/svg10.dtd">
<svg version="1.0" xmlns="http://www.w3.org/2000/svg"
 width="164.000000pt" height="177.000000pt" viewBox="0 0 164.000000 177.000000"
 preserveAspectRatio="xMidYMid meet">
<metadata>
Created by potrace 1.16, written by Peter Selinger 2001-2019
</metadata>
<g transform="translate(0.000000,177.000000) scale(0.100000,-0.100000)"
fill="#000000" stroke="none">
<path d="M870 1136 c-25 1 -76 -20 -180 -73 -80 -41 -179 -89 -220 -107 -41
-18 -92 -36 -112 -40 -21 -4 -40 -11 -43 -15 -3 -5 -2 -16 1 -25 3 -9 25 -20
48 -26 22 -6 68 -23 100 -38 33 -15 84 -44 114 -65 30 -21 77 -50 104 -64 28
-15 53 -22 58 -17 4 5 10 18 12 28 2 13 -8 27 -29 40 -17 12 -55 36 -85 54
-29 18 -71 49 -92 67 -32 29 -37 37 -26 49 6 9 71 44 143 80 73 35 143 67 157
70 14 3 40 15 58 26 21 13 32 27 30 38 -2 12 -14 17 -38 18z M1131 1079 c-14
0 -48 -8 -76 -18 -27 -10 -73 -30 -101 -44 -28 -14 -78 -42 -110 -61 -32 -20
-66 -36 -75 -36 -9 0 -22 -6 -28 -14 -6 -7 -8 -21 -5 -31 4 -10 34 -35 66 -55
32 -21 93 -53 134 -70 60 -25 78 -29 90 -19 8 6 14 20 14 30 0 13 -19 28 -60
49 -33 16 -66 30 -74 30 -7 0 -24 9 -37 19 l-24 20 20 20 c11 11 55 38 98 60
44 23 89 41 100 41 12 0 42 6 66 14 25 7 47 18 49 25 2 6 -2 18 -8 26 -7 8
-24 15 -39 14z"/>
</g>
</svg>
