<?xml version="1.0" standalone="no"?>
<!DOCTYPE svg PUBLIC "-//W3C//DTD SVG 20010904//EN"
 "http://www.w3.org/TR/2001/REC-SVG-20010904/DTD/svg10.dtd">
<svg version="1.0" xmlns="http://www.w3.org/2000/svg"
 width="152.000000pt" height="168.000000pt" viewBox="0 0 152.000000 168.000000"
 preserveAspectRatio="xMidYMid meet">
<metadata>
Created by potrace 1.16, written by Peter Selinger 2001-2019
</metadata>
<g transform="translate(0.000000,168.000000) scale(0.100000,-0.100000)"
fill="#000000" stroke="none">
<path d="M946 1229 c-22 -1 -70 -7 -106 -15 -36 -7 -96 -13 -133 -12 -39 1
-73 -4 -79 -10 -8 -8 -4 -14 18 -23 22 -8 52 -8 124 2 52 7 118 13 145 13 l50
1 3 -43 c2 -29 -7 -76 -29 -140 -17 -54 -38 -110 -47 -127 -8 -16 -20 -33 -26
-37 -6 -4 -36 -8 -66 -8 -30 0 -61 -4 -69 -9 -8 -5 -11 -16 -8 -25 5 -13 19
-16 64 -14 47 3 58 0 61 -14 2 -10 -17 -68 -43 -130 -25 -62 -48 -130 -52
-150 -5 -33 -3 -38 15 -38 14 0 24 12 35 38 9 21 19 56 23 78 3 21 22 77 41
124 19 47 40 90 46 97 7 7 59 19 117 29 58 9 120 21 139 28 19 6 36 17 39 25
3 10 -4 12 -29 9 -19 -3 -78 -11 -131 -19 -54 -7 -101 -10 -104 -6 -4 4 -2 22
4 40 6 17 23 66 37 107 16 45 27 99 28 136 1 39 -3 67 -12 77 -9 11 -28 17
-55 16z"/>
</g>
</svg>
