<?xml version="1.0" standalone="no"?>
<!DOCTYPE svg PUBLIC "-//W3C//DTD SVG 20010904//EN"
 "http://www.w3.org/TR/2001/REC-SVG-20010904/DTD/svg10.dtd">
<svg version="1.0" xmlns="http://www.w3.org/2000/svg"
 width="158.000000pt" height="173.000000pt" viewBox="0 0 158.000000 173.000000"
 preserveAspectRatio="xMidYMid meet">
<metadata>
Created by potrace 1.16, written by Peter Selinger 2001-2019
</metadata>
<g transform="translate(0.000000,173.000000) scale(0.100000,-0.100000)"
fill="#000000" stroke="none">
<path d="M976 1360 c-8 0 -27 -21 -42 -47 -16 -27 -37 -75 -46 -108 -10 -33
-30 -109 -43 -170 -14 -60 -28 -116 -30 -123 -3 -9 -16 -5 -45 14 -34 23 -47
26 -85 21 -25 -4 -63 -18 -85 -33 -21 -14 -50 -40 -63 -58 -13 -17 -30 -47
-38 -66 -8 -19 -14 -66 -14 -105 0 -38 7 -87 14 -108 8 -24 28 -49 53 -68 26
-18 53 -29 75 -29 19 0 44 5 56 11 12 5 54 44 93 86 l71 76 34 -25 c19 -14 49
-30 68 -37 19 -6 57 -11 85 -11 28 0 84 7 123 15 40 8 89 23 108 32 19 9 35
23 35 30 0 8 -11 13 -27 13 -16 -1 -46 -8 -68 -16 -22 -8 -79 -17 -126 -21
-70 -5 -92 -3 -123 12 -21 10 -45 29 -53 42 -15 23 -14 28 26 108 23 46 51
112 62 147 14 45 22 106 26 215 5 132 4 155 -11 177 -9 15 -23 26 -30 26z m-4
-121 c5 -8 6 -56 2 -109 -4 -52 -15 -122 -24 -156 -10 -34 -30 -90 -45 -123
-15 -34 -34 -61 -41 -61 -8 0 -14 6 -14 13 0 6 7 52 15 100 9 49 32 143 51
210 20 67 38 125 41 130 3 5 10 3 15 -4z m-271 -339 c27 0 41 -6 52 -23 8 -13
18 -44 21 -68 4 -28 2 -53 -7 -69 -7 -14 -25 -31 -40 -38 -16 -8 -27 -21 -27
-34 0 -18 4 -20 41 -14 l41 7 -46 -55 c-26 -29 -61 -60 -78 -67 -26 -10 -35
-10 -57 2 -14 8 -34 31 -44 51 -11 23 -18 60 -18 96 -1 45 6 72 25 110 15 30
41 62 63 77 23 15 52 25 74 25z"/>
</g>
</svg>
