<?xml version="1.0" standalone="no"?>
<!DOCTYPE svg PUBLIC "-//W3C//DTD SVG 20010904//EN"
 "http://www.w3.org/TR/2001/REC-SVG-20010904/DTD/svg10.dtd">
<svg version="1.0" xmlns="http://www.w3.org/2000/svg"
 width="155.000000pt" height="172.000000pt" viewBox="0 0 155.000000 172.000000"
 preserveAspectRatio="xMidYMid meet">
<metadata>
Created by potrace 1.16, written by Peter Selinger 2001-2019
</metadata>
<g transform="translate(0.000000,172.000000) scale(0.100000,-0.100000)"
fill="#000000" stroke="none">
<path d="M679 1120 c-8 0 -22 -12 -32 -25 -10 -14 -27 -24 -40 -23 -12 0 -28
0 -34 -1 -7 0 -13 -7 -13 -15 0 -8 11 -17 25 -20 14 -4 25 -13 25 -20 0 -8
-20 -61 -44 -118 -24 -56 -52 -129 -61 -161 -9 -32 -17 -83 -17 -113 -1 -40 5
-63 19 -82 11 -15 37 -37 59 -49 32 -18 55 -23 121 -23 45 0 111 7 147 15 36
9 103 30 148 47 46 17 91 38 101 46 9 8 17 23 17 33 0 10 -3 20 -8 23 -4 2
-32 -11 -62 -29 -30 -19 -95 -46 -145 -61 -65 -19 -115 -27 -180 -28 -72 -1
-96 3 -118 17 -15 10 -35 33 -44 51 -14 31 -14 40 1 107 9 41 28 99 42 129 14
30 36 64 49 75 13 11 30 43 40 72 9 28 22 57 30 63 8 6 73 13 157 16 78 3 153
7 166 10 12 2 22 11 22 19 0 7 -4 16 -9 19 -4 3 -75 1 -157 -4 -140 -8 -150
-7 -170 11 -11 10 -27 19 -35 19z M878 809 c-13 0 -32 -4 -43 -9 -11 -4 -54
-11 -95 -15 -41 -4 -91 -15 -110 -24 -22 -10 -36 -24 -38 -39 -2 -12 -1 -22 3
-22 3 0 22 8 43 19 23 12 77 23 146 29 60 6 113 15 119 21 5 5 7 17 4 25 -4 9
-17 16 -29 15z"/>
</g>
</svg>
