<?xml version="1.0" standalone="no"?>
<!DOCTYPE svg PUBLIC "-//W3C//DTD SVG 20010904//EN"
 "http://www.w3.org/TR/2001/REC-SVG-20010904/DTD/svg10.dtd">
<svg version="1.0" xmlns="http://www.w3.org/2000/svg"
 width="157.000000pt" height="169.000000pt" viewBox="0 0 157.000000 169.000000"
 preserveAspectRatio="xMidYMid meet">
<metadata>
Created by potrace 1.16, written by Peter Selinger 2001-2019
</metadata>
<g transform="translate(0.000000,169.000000) scale(0.100000,-0.100000)"
fill="#000000" stroke="none">
<path d="M420 1690 c-20 0 -33 -6 -37 -17 -3 -10 -15 -28 -26 -40 -11 -13 -15
-23 -9 -23 7 0 12 5 12 10 0 6 5 10 10 10 6 0 14 -10 19 -22 5 -14 10 -17 15
-10 4 7 14 12 22 12 8 0 14 -7 14 -15 0 -8 -5 -24 -12 -34 -9 -15 -9 -23 1
-35 8 -9 18 -16 23 -16 5 0 7 9 3 19 -4 14 0 23 15 31 17 9 22 7 29 -12 8 -22
8 -22 20 0 6 12 18 22 26 22 8 0 15 5 15 10 0 6 -4 10 -10 10 -5 0 -10 9 -10
20 0 13 -7 20 -18 20 -10 0 -23 5 -29 11 -6 6 -16 8 -23 4 -6 -4 -9 -13 -6
-21 3 -8 4 -14 2 -14 -2 0 -17 7 -34 16 -18 8 -32 17 -32 20 0 2 11 9 25 14
14 5 25 14 25 20 0 5 -14 10 -30 10z M107 1460 c-3 0 -8 -3 -10 -7 -3 -5 -1
-18 4 -30 5 -13 17 -23 28 -23 11 0 23 5 26 11 5 6 12 4 20 -7 7 -11 19 -15
29 -11 10 4 16 13 13 20 -2 7 -20 12 -41 12 -24 0 -42 6 -50 18 -7 9 -16 17
-19 17z M928 1350 c-4 0 -5 -7 -2 -15 4 -10 0 -15 -15 -15 -12 0 -21 -4 -21
-9 0 -5 12 -19 26 -30 15 -12 31 -21 35 -21 5 0 9 8 9 18 0 10 -6 30 -12 45
-7 15 -16 27 -20 27z M345 1300 c-6 0 -20 -6 -31 -14 -11 -8 -31 -16 -44 -18
-14 -2 -30 3 -37 12 -9 12 -14 13 -24 3 -10 -10 -10 -13 -1 -13 7 0 17 -11 22
-25 5 -14 16 -25 24 -25 7 0 16 9 19 20 3 11 10 20 16 20 6 0 11 -7 11 -15 0
-8 5 -15 10 -15 6 0 10 11 10 25 0 13 8 29 18 34 9 6 12 11 7 11z M803 1175
c-17 3 -34 2 -37 -4 -3 -5 -3 -16 0 -24 3 -8 21 -17 41 -19 19 -2 48 -2 64 0
16 2 29 8 29 13 0 5 -10 9 -23 9 -13 0 -27 4 -32 9 -6 5 -24 12 -42 16z M959
1176 c-5 3 -12 -2 -15 -10 -4 -9 -1 -23 5 -30 9 -10 9 -16 1 -21 -6 -4 -18 -1
-26 6 -11 9 -18 8 -32 -5 -10 -9 -26 -16 -35 -16 -9 0 -16 -6 -14 -12 1 -9
-15 -15 -48 -18 -43 -4 -50 -8 -47 -25 2 -11 5 -21 7 -23 2 -2 13 1 24 8 18 9
21 8 21 -9 0 -14 -16 -27 -54 -45 -30 -14 -60 -26 -65 -26 -6 0 -11 3 -11 8 0
4 -13 8 -30 9 -22 2 -28 -1 -23 -13 3 -8 0 -21 -7 -29 -7 -8 -8 -15 -2 -15 5
0 15 7 22 15 7 9 29 15 51 15 22 0 49 6 60 13 17 10 23 10 26 0 3 -7 8 -13 13
-13 5 0 12 9 15 20 5 15 12 19 31 14 14 -4 31 -1 39 6 13 11 13 14 -1 25 -13
9 -14 14 -5 19 7 5 20 1 30 -8 10 -9 21 -16 24 -16 4 0 7 7 7 15 0 8 -6 15
-14 15 -8 0 -17 7 -20 16 -3 9 -4 20 0 25 3 5 13 9 24 9 10 0 20 -7 24 -15 3
-8 10 -15 16 -15 5 0 10 8 10 19 0 10 7 24 15 31 8 7 15 16 15 21 0 5 -7 9
-16 9 -11 0 -15 6 -11 20 3 11 1 23 -4 26z M451 1147 c-9 11 -23 18 -31 15 -8
-2 -21 -10 -29 -16 -8 -6 -21 -11 -30 -12 -9 -1 -24 -2 -33 -3 -10 0 -18 -4
-18 -8 0 -5 13 -8 29 -8 16 0 33 3 37 8 4 4 11 7 16 7 4 0 7 -8 6 -17 -1 -10
0 -26 0 -35 1 -12 7 -15 18 -11 10 4 22 0 28 -8 6 -9 19 -18 29 -22 9 -3 17
-2 17 4 0 6 -10 19 -22 28 -13 11 -19 24 -15 34 4 10 18 17 34 17 21 0 24 3
13 9 -8 6 -18 7 -23 4 -6 -3 -17 3 -26 14z M55 1130 c-7 0 -16 -7 -19 -16 -3
-9 -6 -21 -6 -29 0 -7 9 -15 21 -18 14 -4 18 -10 13 -18 -5 -9 -2 -10 10 -6
10 4 22 7 27 7 5 0 9 12 9 26 0 23 -3 25 -26 20 -23 -6 -26 -4 -21 13 3 13 0
21 -8 21z M245 1108 c-14 0 -25 -6 -25 -13 0 -7 7 -15 15 -19 8 -3 15 -9 14
-13 -1 -4 2 -18 6 -30 4 -13 14 -23 22 -23 12 0 13 9 8 43 -4 23 -9 45 -11 48
-2 4 -15 7 -29 7z M473 1000 c-5 0 -15 -4 -23 -9 -8 -6 -18 -7 -22 -5 -4 3 -8
1 -8 -4 0 -5 10 -16 22 -24 13 -8 18 -19 14 -26 -4 -7 -20 -11 -34 -10 -15 1
-33 -1 -40 -6 -7 -4 -12 -11 -12 -15 0 -5 12 -16 26 -26 20 -13 28 -14 40 -4
11 9 18 9 26 1 7 -7 16 -12 20 -12 4 0 8 7 8 15 0 9 -9 15 -22 15 -21 1 -21 2
-5 11 9 5 17 16 17 24 0 7 6 16 13 18 7 4 6 6 -4 6 -9 1 -19 8 -23 16 -3 8 -1
15 4 15 6 0 10 5 10 10 0 6 -3 10 -7 10z M1442 956 c-4 6 -18 8 -32 4 -16 -4
-25 -13 -25 -25 0 -14 8 -21 28 -23 19 -2 27 -9 27 -23 0 -10 7 -19 15 -19 8
0 15 3 15 8 0 4 -11 19 -25 34 -19 20 -21 27 -10 30 8 2 11 8 7 14z M724 920
c-26 0 -53 -8 -74 -23 -19 -12 -42 -36 -52 -54 -10 -17 -26 -64 -34 -104 -9
-42 -13 -95 -10 -121 3 -27 2 -48 -2 -48 -4 0 -13 4 -20 9 -7 4 -17 24 -22 44
-4 22 -4 35 1 31 5 -3 9 4 9 16 0 12 -4 18 -10 15 -6 -4 -10 6 -10 22 0 19 -3
24 -9 15 -7 -11 -9 -11 -14 1 -3 8 0 14 6 13 7 -1 18 -5 25 -9 6 -5 12 -4 12
2 0 6 -8 15 -18 20 -10 5 -24 6 -32 1 -7 -4 -14 -20 -16 -34 -2 -19 2 -26 14
-26 12 0 13 -3 4 -12 -7 -7 -12 -16 -12 -20 0 -4 6 -8 14 -8 8 0 17 -14 21
-30 4 -17 17 -41 28 -54 12 -13 31 -26 42 -28 11 -2 19 -10 17 -17 -2 -10 6
-12 30 -8 18 4 48 9 65 13 18 3 30 10 27 15 -3 5 5 9 17 9 14 0 40 18 66 45
28 30 48 62 56 92 6 25 18 48 25 51 7 2 25 -1 39 -7 21 -10 29 -9 43 4 16 15
19 15 34 0 9 -9 17 -13 17 -8 1 4 2 13 3 18 1 6 6 18 11 29 5 11 4 25 -2 34
-5 9 -25 21 -44 28 -19 7 -46 13 -60 13 -14 1 -36 12 -49 26 -13 14 -40 29
-59 35 -20 5 -54 10 -77 10z m-14 -100 c6 0 8 -4 5 -10 -3 -5 -1 -10 5 -10 6
0 8 -5 4 -12 -5 -8 2 -9 23 -5 30 6 30 6 22 -39 -5 -24 -13 -53 -19 -64 -6
-11 -24 -27 -40 -35 -16 -8 -36 -15 -44 -15 -8 0 -18 5 -21 11 -4 5 -4 38 0
71 5 45 14 68 31 85 13 12 28 23 34 23z M188 788 c-1 4 -10 6 -19 4 -10 -2
-20 -11 -23 -20 -3 -9 -9 -23 -12 -31 -4 -8 -2 -12 7 -9 8 3 21 -4 30 -15 10
-13 21 -17 29 -12 10 6 7 12 -11 25 -19 15 -21 21 -10 34 7 8 11 19 9 24z
M1374 732 c-5 2 -19 2 -30 0 -16 -2 -20 -8 -17 -23 3 -12 0 -19 -8 -19 -8 0
-22 -11 -31 -24 -14 -20 -15 -25 -4 -29 9 -4 25 10 42 34 15 22 34 44 42 48 8
5 11 10 6 13z M426 718 c-9 9 -16 11 -16 5 0 -6 -6 -10 -12 -9 -7 0 -14 -2
-16 -7 -1 -4 0 -29 4 -57 4 -27 10 -47 15 -45 4 3 12 -3 18 -12 9 -17 10 -17
16 0 4 9 2 24 -5 32 -7 8 -16 12 -21 9 -5 -3 -9 2 -9 10 0 9 9 25 21 37 19 19
20 22 5 37z M1525 582 c-6 2 -18 -3 -27 -14 -10 -10 -29 -18 -43 -18 -14 0
-25 5 -25 10 0 6 -6 10 -14 10 -9 0 -12 -7 -9 -21 4 -12 15 -24 25 -27 15 -3
18 -10 14 -28 -5 -19 -2 -24 13 -24 11 0 35 14 53 31 18 18 25 29 16 26 -14
-5 -18 -1 -18 17 0 14 5 26 12 28 7 3 8 7 3 10z M1189 558 c-13 9 -20 8 -29
-3 -8 -9 -21 -13 -36 -9 -15 4 -24 2 -24 -6 0 -7 -8 -9 -20 -5 -14 4 -20 2
-20 -8 0 -8 9 -17 19 -20 10 -2 25 -1 32 4 9 5 18 -1 27 -22 8 -16 18 -29 23
-29 5 0 9 6 9 14 0 8 -6 16 -12 19 -10 4 -10 7 0 18 11 12 15 11 26 -3 7 -10
15 -18 17 -18 2 0 4 13 5 29 1 17 -6 32 -17 39z M1250 490 c-10 0 -25 -9 -33
-20 -8 -11 -17 -17 -20 -13 -4 3 -7 -6 -7 -20 0 -20 5 -27 19 -27 15 0 18 5
14 21 -5 19 -3 21 26 14 20 -4 31 -3 31 4 0 6 -5 11 -11 11 -6 0 -9 7 -5 15 3
10 -1 15 -14 15z M939 430 c-17 0 -19 -3 -10 -13 6 -8 8 -17 4 -20 -3 -4 -17
-7 -30 -7 -18 0 -23 -5 -23 -26 0 -19 4 -25 18 -22 9 2 17 10 17 18 0 9 11 16
28 18 15 2 27 7 27 12 0 5 -5 12 -10 15 -6 4 -8 11 -5 16 4 5 -4 9 -16 9z
M1273 419 c-5 0 -14 -3 -20 -6 -7 -2 -13 -9 -13 -14 0 -5 9 -9 20 -9 11 0 20
-4 20 -8 0 -5 12 -14 26 -21 15 -6 24 -15 20 -18 -3 -3 -1 -12 6 -20 6 -7 8
-16 5 -20 -4 -3 1 -12 10 -18 15 -11 16 -15 3 -31 -14 -16 -13 -17 20 -11 19
4 47 10 61 13 22 5 26 2 24 -16 -1 -12 -8 -26 -16 -31 -12 -8 -12 -10 1 -19 8
-6 25 -9 38 -7 13 3 26 -2 31 -11 7 -13 10 -13 19 4 5 10 10 38 10 61 1 27 -4
43 -13 47 -9 3 -19 -3 -25 -15 -6 -11 -16 -17 -21 -13 -6 3 -8 17 -5 29 3 13
2 27 -4 30 -5 3 -10 -3 -10 -14 0 -14 -11 -23 -36 -31 -24 -8 -39 -9 -46 -2
-6 6 -7 15 -4 21 4 6 14 11 22 11 9 0 21 6 27 13 7 6 13 24 15 40 1 15 -1 27
-6 27 -5 0 -15 -6 -21 -14 -6 -8 -23 -16 -37 -19 -20 -3 -27 1 -34 19 -7 17
-17 24 -35 24 -16 0 -25 6 -25 15 0 8 -3 15 -7 14z M736 383 c-6 7 -21 11 -33
9 -19 -3 -23 -10 -23 -38 0 -19 -3 -34 -7 -34 -5 0 -15 4 -23 9 -8 6 -18 7
-22 5 -5 -3 2 -14 14 -24 18 -15 20 -21 11 -31 -10 -10 -10 -16 3 -30 13 -14
13 -22 4 -39 -6 -12 -14 -33 -16 -47 -3 -15 1 -30 8 -34 7 -5 25 -9 41 -9 15
0 27 -4 27 -10 0 -5 8 -10 17 -10 16 0 16 1 1 16 -15 15 -15 19 -2 39 12 19
13 25 1 36 -7 8 -16 22 -20 32 -4 10 -2 27 3 38 6 10 17 19 24 19 8 0 16 -9
19 -20 3 -11 13 -20 24 -19 10 0 13 3 6 6 -7 2 -13 12 -13 22 0 9 5 22 12 29
7 7 23 12 36 12 18 0 23 4 18 16 -3 9 -6 18 -6 20 0 2 -9 4 -20 4 -11 0 -20 5
-20 10 0 6 -12 10 -26 10 -15 0 -32 6 -38 13z M1063 351 c-25 5 -33 3 -33 -7
0 -8 -8 -14 -17 -15 -12 -1 -9 -4 7 -8 14 -4 31 -3 38 2 9 7 12 2 12 -21 0
-24 4 -30 16 -25 10 4 14 16 12 36 -3 26 -8 32 -35 38z M287 350 c-2 0 -6 -3
-10 -6 -3 -4 -3 -19 0 -35 3 -19 1 -29 -6 -29 -7 0 -20 13 -29 30 -9 16 -24
30 -32 30 -8 0 -21 -9 -28 -20 -11 -18 -10 -20 8 -20 11 0 20 -4 20 -9 0 -5
-7 -12 -16 -15 -8 -3 -13 -10 -9 -16 3 -5 19 -7 36 -3 22 4 33 1 44 -13 14
-18 14 -18 15 4 0 17 6 22 27 22 14 0 34 -7 43 -15 9 -8 25 -12 38 -8 13 3 22
13 22 25 0 16 -5 19 -24 14 -14 -3 -36 -2 -50 4 -15 5 -31 21 -36 35 -5 14
-11 25 -13 25z M1136 310 c-3 0 -6 -4 -6 -9 0 -5 7 -11 15 -15 8 -3 15 -12 15
-21 0 -8 -6 -15 -13 -15 -7 0 -18 5 -25 12 -9 9 -12 9 -12 0 0 -7 -12 -12 -26
-12 -14 0 -23 -4 -19 -10 3 -5 25 -10 49 -10 23 0 53 5 67 12 25 12 25 12 -7
40 -17 15 -34 28 -38 28z M1401 229 c-7 11 -11 10 -19 -5 -9 -16 -15 -17 -63
-6 -42 10 -54 10 -61 0 -4 -7 -8 -17 -8 -23 0 -5 4 -15 8 -21 4 -7 29 -11 57
-10 39 1 50 5 53 19 2 9 12 17 23 17 10 0 19 3 19 8 0 4 -4 13 -9 21z M825
226 c-13 6 -16 0 -13 -35 1 -23 6 -45 11 -48 4 -3 16 2 26 11 10 9 20 14 23
11 2 -3 3 9 0 25 -2 17 -10 30 -17 30 -7 0 -21 3 -30 6z M1137 207 c-16 4 -17
-1 -13 -46 3 -28 2 -51 -1 -51 -4 0 -14 7 -24 16 -10 9 -22 13 -27 10 -5 -3
-7 -17 -4 -31 2 -14 11 -25 18 -25 8 0 14 5 14 10 0 6 11 8 25 4 15 -4 25 -2
25 5 0 6 6 11 14 11 8 0 20 -16 26 -35 6 -19 15 -35 20 -35 5 0 12 5 15 10 3
6 -1 10 -9 10 -9 0 -16 5 -16 10 0 6 7 13 15 16 9 4 31 -6 51 -22 20 -16 52
-37 71 -47 19 -10 43 -15 54 -12 15 5 17 10 9 26 -6 11 -8 24 -5 29 3 6 19 10
36 10 16 0 29 5 29 10 0 6 -6 10 -13 10 -7 0 -21 11 -31 25 -10 14 -25 25 -32
25 -8 0 -14 -3 -14 -6 0 -4 7 -12 15 -18 12 -9 12 -14 0 -30 -7 -10 -18 -15
-23 -12 -6 3 -8 15 -5 26 4 16 2 19 -11 14 -9 -3 -23 -1 -31 6 -8 6 -19 9 -24
6 -6 -4 -8 -13 -4 -21 3 -8 0 -15 -5 -15 -6 0 -13 4 -16 9 -3 5 -22 8 -42 6
-36 -4 -36 -4 -30 40 6 39 5 44 -16 50 -13 4 -31 9 -41 12z M233 199 c-5 -1
-21 -4 -38 -6 -16 -3 -34 -9 -40 -14 -5 -6 -3 -9 8 -9 9 0 17 -4 17 -10 0 -5
10 -10 23 -10 21 0 23 -5 23 -42 -1 -43 -1 -43 41 -42 24 0 46 3 49 7 4 3 4
13 0 22 -3 8 -17 20 -32 25 -18 7 -25 16 -21 29 3 15 -2 18 -31 19 -19 1 -37
4 -40 7 -3 3 7 5 21 5 15 0 27 5 27 10 0 6 -3 9 -7 9z M586 188 c-8 2 -20 -6
-26 -18 -6 -11 -8 -30 -5 -40 5 -15 3 -18 -9 -14 -10 4 -18 -1 -22 -11 -4 -9
-2 -21 3 -26 5 -5 31 -13 58 -18 28 -5 52 -8 54 -6 2 2 -4 11 -13 20 -9 9 -14
21 -10 26 3 5 -8 17 -25 27 -17 9 -31 20 -31 24 0 4 9 8 20 10 12 2 21 8 21
13 0 6 -7 11 -15 13z M361 180 c-5 0 -17 -7 -25 -16 -9 -8 -16 -24 -16 -34 0
-12 9 -19 31 -22 22 -3 33 0 40 13 5 10 9 21 9 25 0 3 -7 1 -15 -6 -8 -7 -16
-9 -16 -4 -1 5 -1 17 0 27 1 9 -2 17 -8 17z M453 154 c-18 6 -21 2 -25 -29 -2
-19 1 -40 6 -45 7 -7 6 -21 -2 -42 -6 -17 -10 -34 -7 -36 2 -3 11 1 19 7 8 7
16 25 18 39 2 15 8 26 14 25 7 -1 15 9 18 23 4 15 1 30 -7 38 -7 7 -22 16 -34
20z M906 150 c-13 0 -29 -6 -35 -14 -9 -10 -8 -15 3 -19 7 -3 19 0 25 6 8 8
15 6 28 -5 12 -11 28 -14 46 -11 15 3 27 12 27 20 0 12 -7 14 -30 10 -16 -4
-32 -2 -35 3 -3 6 -17 10 -29 10z M103 134 c-17 5 -29 1 -46 -17 -16 -18 -23
-39 -25 -71 -1 -25 3 -46 8 -46 6 0 10 8 10 19 0 10 7 24 15 31 8 6 23 9 35 5
14 -5 20 -2 20 9 0 9 -5 16 -12 16 -6 0 -3 9 7 20 10 11 16 22 14 24 -2 2 -14
7 -26 10z M1048 52 c-2 8 -14 12 -30 10 -14 -2 -32 -10 -38 -18 -10 -11 -10
-17 0 -29 7 -8 24 -15 39 -15 15 0 32 5 39 12 9 9 15 9 24 0 7 -7 20 -12 30
-12 10 0 18 4 18 9 0 5 -11 16 -24 25 -14 9 -32 13 -40 10 -8 -3 -16 0 -18 8z
M592 35 c-26 8 -44 9 -48 3 -3 -5 -12 -7 -20 -4 -8 3 -21 3 -29 0 -8 -4 -15
-12 -15 -20 0 -8 6 -14 14 -14 8 0 18 5 21 10 3 5 19 10 36 10 16 0 29 -4 29
-8 0 -4 11 -8 25 -7 14 0 26 4 28 9 1 5 -17 14 -41 21z"/>
</g>
</svg>
