<?xml version="1.0" standalone="no"?>
<!DOCTYPE svg PUBLIC "-//W3C//DTD SVG 20010904//EN"
 "http://www.w3.org/TR/2001/REC-SVG-20010904/DTD/svg10.dtd">
<svg version="1.0" xmlns="http://www.w3.org/2000/svg"
 width="152.000000pt" height="167.000000pt" viewBox="0 0 152.000000 167.000000"
 preserveAspectRatio="xMidYMid meet">
<metadata>
Created by potrace 1.16, written by Peter Selinger 2001-2019
</metadata>
<g transform="translate(0.000000,167.000000) scale(0.100000,-0.100000)"
fill="#000000" stroke="none">
<path d="M727 1010 c-12 0 -40 -9 -62 -19 -23 -10 -60 -40 -84 -67 -24 -27
-49 -61 -57 -76 -8 -15 -13 -49 -13 -75 1 -26 0 -55 -2 -63 -3 -12 8 -16 49
-18 28 -2 52 -7 52 -12 0 -5 -10 -29 -21 -53 -14 -29 -20 -53 -15 -70 4 -16
17 -29 35 -35 20 -7 52 -7 95 -1 36 5 84 16 108 25 24 9 51 25 62 34 10 10 15
23 12 29 -4 6 -14 11 -22 11 -8 0 -33 -9 -55 -20 -22 -12 -69 -24 -104 -27
-62 -6 -65 -5 -65 16 0 12 6 34 14 49 8 15 26 38 40 52 21 19 46 27 113 37 49
7 93 19 102 28 13 13 13 17 1 29 -12 12 -26 12 -73 4 -31 -5 -64 -8 -72 -4
-12 4 -11 14 5 62 11 31 20 69 20 84 0 15 -9 39 -21 54 -11 14 -30 26 -42 26z
m-23 -62 c14 -2 22 -12 24 -29 2 -14 -8 -50 -21 -80 -13 -30 -32 -62 -41 -72
-12 -11 -33 -17 -67 -17 -27 0 -49 4 -49 9 0 5 9 31 21 58 11 26 41 67 67 91
29 27 53 42 66 40z"/>
</g>
</svg>
