<?xml version="1.0" standalone="no"?>
<!DOCTYPE svg PUBLIC "-//W3C//DTD SVG 20010904//EN"
 "http://www.w3.org/TR/2001/REC-SVG-20010904/DTD/svg10.dtd">
<svg version="1.0" xmlns="http://www.w3.org/2000/svg"
 width="156.000000pt" height="170.000000pt" viewBox="0 0 156.000000 170.000000"
 preserveAspectRatio="xMidYMid meet">
<metadata>
Created by potrace 1.16, written by Peter Selinger 2001-2019
</metadata>
<g transform="translate(0.000000,170.000000) scale(0.100000,-0.100000)"
fill="#000000" stroke="none">
<path d="M773 1330 c-44 0 -82 -7 -108 -19 -22 -10 -55 -34 -72 -54 -18 -20
-39 -60 -47 -88 -9 -28 -18 -73 -22 -99 -3 -27 -1 -79 5 -117 7 -37 30 -138
53 -223 22 -85 48 -168 57 -183 8 -15 22 -26 31 -25 11 3 14 14 13 43 -2 22
-5 85 -8 140 -3 55 -2 127 2 160 l8 59 80 16 c44 8 107 29 140 45 37 19 69 43
83 64 12 19 22 48 22 65 0 17 -5 48 -11 69 -5 21 -23 53 -40 71 -16 19 -49 43
-74 55 -32 15 -64 21 -112 21z m22 -48 c22 -3 57 -13 77 -23 21 -11 49 -36 63
-56 14 -21 25 -50 25 -66 0 -15 -7 -41 -15 -57 -8 -16 -34 -40 -58 -54 -23
-14 -69 -32 -102 -40 -32 -9 -68 -16 -78 -16 -18 0 -19 6 -15 108 3 59 1 122
-4 140 -6 23 -6 38 2 47 6 8 24 16 38 18 15 2 45 2 67 -1z m-175 -92 c6 0 10
-43 10 -114 0 -95 -3 -115 -16 -120 -9 -3 -19 -6 -24 -6 -4 0 -10 22 -14 49
-4 27 -2 69 4 94 5 24 14 56 20 71 5 14 14 26 20 26z"/>
</g>
</svg>
