<?xml version="1.0" standalone="no"?>
<!DOCTYPE svg PUBLIC "-//W3C//DTD SVG 20010904//EN"
 "http://www.w3.org/TR/2001/REC-SVG-20010904/DTD/svg10.dtd">
<svg version="1.0" xmlns="http://www.w3.org/2000/svg"
 width="155.000000pt" height="170.000000pt" viewBox="0 0 155.000000 170.000000"
 preserveAspectRatio="xMidYMid meet">
<metadata>
Created by potrace 1.16, written by Peter Selinger 2001-2019
</metadata>
<g transform="translate(0.000000,170.000000) scale(0.100000,-0.100000)"
fill="#000000" stroke="none">
<path d="M482 1240 c-4 0 -12 -4 -19 -8 -6 -4 -16 -20 -22 -35 -7 -17 -18 -27
-30 -27 -11 0 -22 -4 -25 -9 -3 -5 -11 -130 -17 -277 -9 -197 -9 -276 -1 -297
7 -17 19 -27 32 -27 13 0 24 10 30 26 6 14 10 52 10 84 0 32 7 95 16 141 9 46
18 87 20 91 2 4 22 -12 43 -34 35 -38 43 -42 97 -46 54 -4 66 0 138 37 43 23
111 66 151 96 40 30 78 62 85 70 7 8 16 12 22 9 5 -3 6 -46 2 -102 -3 -54 -1
-135 5 -181 7 -55 22 -108 43 -153 17 -38 40 -74 51 -80 13 -7 22 -7 29 0 7 7
1 26 -19 59 -17 27 -38 78 -47 114 -9 39 -16 103 -15 160 0 52 5 119 10 149 5
30 12 83 15 116 5 45 3 63 -7 69 -9 6 -20 -1 -33 -21 -12 -16 -48 -57 -80 -92
-33 -34 -85 -79 -115 -99 -31 -21 -85 -52 -121 -70 -38 -19 -80 -33 -101 -33
-22 0 -47 8 -63 21 -16 12 -32 40 -41 72 -8 29 -17 98 -19 154 -2 56 -7 107
-11 112 -3 6 -9 11 -13 11z"/>
</g>
</svg>
