<?xml version="1.0" standalone="no"?>
<!DOCTYPE svg PUBLIC "-//W3C//DTD SVG 20010904//EN"
 "http://www.w3.org/TR/2001/REC-SVG-20010904/DTD/svg10.dtd">
<svg version="1.0" xmlns="http://www.w3.org/2000/svg"
 width="157.000000pt" height="171.000000pt" viewBox="0 0 157.000000 171.000000"
 preserveAspectRatio="xMidYMid meet">
<metadata>
Created by potrace 1.16, written by Peter Selinger 2001-2019
</metadata>
<g transform="translate(0.000000,171.000000) scale(0.100000,-0.100000)"
fill="#000000" stroke="none">
<path d="M684 919 c-5 0 -31 -9 -58 -20 -28 -11 -68 -37 -90 -57 -23 -20 -62
-64 -88 -99 -27 -34 -48 -71 -48 -83 0 -14 7 -20 21 -20 13 0 35 16 53 37 17
21 57 64 88 95 32 32 64 58 73 58 10 0 15 -10 15 -32 0 -18 -7 -64 -16 -103
-8 -38 -18 -86 -21 -106 -4 -31 -2 -38 14 -43 11 -4 27 -4 36 -1 8 4 29 33 47
66 18 34 46 76 63 95 16 20 49 48 73 65 23 16 45 29 47 29 2 0 7 -46 9 -102 4
-66 12 -121 24 -152 11 -27 24 -51 29 -53 6 -1 16 1 24 6 13 8 13 21 3 88 -7
43 -9 105 -6 138 4 35 1 78 -5 102 -7 24 -21 47 -32 54 -16 8 -29 6 -62 -11
-23 -12 -63 -37 -90 -56 -26 -19 -49 -34 -52 -34 -3 0 -5 24 -5 53 0 40 -5 58
-18 70 -10 10 -23 17 -28 16z"/>
</g>
</svg>
