<?xml version="1.0" standalone="no"?>
<!DOCTYPE svg PUBLIC "-//W3C//DTD SVG 20010904//EN"
 "http://www.w3.org/TR/2001/REC-SVG-20010904/DTD/svg10.dtd">
<svg version="1.0" xmlns="http://www.w3.org/2000/svg"
 width="165.000000pt" height="181.000000pt" viewBox="0 0 165.000000 181.000000"
 preserveAspectRatio="xMidYMid meet">
<metadata>
Created by potrace 1.16, written by Peter Selinger 2001-2019
</metadata>
<g transform="translate(0.000000,181.000000) scale(0.100000,-0.100000)"
fill="#000000" stroke="none">
<path d="M932 1419 c-9 4 -23 6 -30 4 -7 -3 -19 -20 -26 -38 -13 -30 -19 -33
-71 -40 -32 -4 -70 -14 -84 -23 -15 -10 -48 -41 -74 -70 -45 -51 -47 -55 -47
-116 0 -54 3 -66 26 -87 23 -21 36 -24 131 -27 l105 -4 -6 -97 c-3 -53 -9
-167 -12 -253 -6 -142 -5 -158 10 -164 10 -4 28 -2 42 4 20 10 24 19 24 54 0
24 5 70 10 103 6 39 6 63 0 69 -6 6 -10 55 -10 110 0 56 5 119 10 141 5 22 18
46 29 54 12 7 21 24 21 37 0 13 -9 28 -21 35 -18 9 -20 16 -14 56 4 25 14 61
23 79 8 19 19 34 23 34 4 0 6 -161 5 -357 -1 -197 0 -364 2 -371 2 -6 14 -12
27 -12 12 0 29 7 36 16 11 13 13 78 11 323 -2 224 1 329 11 390 8 47 12 93 9
103 -2 10 -13 18 -23 18 -10 0 -33 -20 -51 -45 -18 -24 -36 -44 -40 -45 -4 0
-9 8 -11 18 -3 9 -8 34 -12 54 -3 21 -14 42 -23 47z m-120 -139 c36 0 37 -1
44 -46 3 -25 4 -64 1 -86 -3 -22 -10 -45 -16 -51 -6 -6 -40 -10 -76 -9 -37 0
-73 6 -81 12 -8 7 -14 26 -14 43 0 17 12 48 27 70 15 21 38 45 52 52 14 8 43
14 63 15z"/>
</g>
</svg>
