<?xml version="1.0" standalone="no"?>
<!DOCTYPE svg PUBLIC "-//W3C//DTD SVG 20010904//EN"
 "http://www.w3.org/TR/2001/REC-SVG-20010904/DTD/svg10.dtd">
<svg version="1.0" xmlns="http://www.w3.org/2000/svg"
 width="165.000000pt" height="181.000000pt" viewBox="0 0 165.000000 181.000000"
 preserveAspectRatio="xMidYMid meet">
<metadata>
Created by potrace 1.16, written by Peter Selinger 2001-2019
</metadata>
<g transform="translate(0.000000,181.000000) scale(0.100000,-0.100000)"
fill="#000000" stroke="none">
<path d="M810 980 c-8 -1 -32 -7 -54 -15 -21 -7 -53 -28 -71 -45 -19 -18 -35
-46 -38 -64 -3 -18 2 -48 13 -71 12 -29 37 -56 89 -94 40 -30 71 -60 71 -70 0
-9 -5 -22 -12 -29 -7 -7 -31 -12 -54 -12 -23 0 -58 7 -79 15 -20 9 -45 13 -56
10 -10 -4 -19 -15 -19 -26 0 -12 16 -27 50 -44 35 -18 65 -25 105 -25 31 0 66
5 78 11 12 6 32 21 45 32 16 15 22 32 22 65 0 37 -5 49 -32 74 -18 17 -49 41
-68 53 -19 12 -43 32 -53 43 -12 13 -17 32 -15 54 2 27 10 36 42 52 36 18 40
18 51 3 7 -10 26 -17 42 -17 16 0 37 8 46 18 15 16 15 20 2 40 -9 12 -32 26
-53 32 -20 5 -44 10 -52 10z"/>
</g>
</svg>
