<?xml version="1.0" standalone="no"?>
<!DOCTYPE svg PUBLIC "-//W3C//DTD SVG 20010904//EN"
 "http://www.w3.org/TR/2001/REC-SVG-20010904/DTD/svg10.dtd">
<svg version="1.0" xmlns="http://www.w3.org/2000/svg"
 width="156.000000pt" height="172.000000pt" viewBox="0 0 156.000000 172.000000"
 preserveAspectRatio="xMidYMid meet">
<metadata>
Created by potrace 1.16, written by Peter Selinger 2001-2019
</metadata>
<g transform="translate(0.000000,172.000000) scale(0.100000,-0.100000)"
fill="#000000" stroke="none">
<path d="M585 1190 c-12 10 -18 6 -33 -20 -17 -28 -19 -46 -15 -158 4 -98 2
-131 -9 -145 -11 -15 -18 -16 -43 -7 -15 6 -34 9 -42 6 -7 -3 -13 -14 -13 -24
0 -11 7 -25 16 -33 8 -7 21 -24 29 -39 7 -14 23 -55 34 -90 11 -36 23 -90 26
-120 4 -30 11 -69 16 -87 6 -17 17 -34 25 -37 9 -3 20 -4 25 0 5 3 9 22 9 42
0 20 -7 62 -15 92 -8 30 -15 91 -15 136 0 65 3 84 18 96 9 8 49 22 87 31 39 9
93 21 120 27 28 6 74 16 104 23 30 7 59 20 65 30 7 11 7 20 0 27 -7 7 -27 5
-64 -5 -30 -8 -84 -21 -120 -29 -36 -8 -89 -20 -118 -25 -30 -6 -60 -11 -68
-11 -11 0 -14 21 -14 105 0 95 2 105 21 115 11 6 74 15 139 20 66 5 148 14
182 20 35 5 81 10 104 10 23 0 55 5 73 11 17 6 31 17 31 25 0 9 -11 14 -28 14
-15 0 -83 -6 -152 -14 -69 -8 -178 -17 -242 -21 -100 -5 -118 -4 -118 8 0 8
-7 20 -15 27z"/>
</g>
</svg>
