<?xml version="1.0" standalone="no"?>
<!DOCTYPE svg PUBLIC "-//W3C//DTD SVG 20010904//EN"
 "http://www.w3.org/TR/2001/REC-SVG-20010904/DTD/svg10.dtd">
<svg version="1.0" xmlns="http://www.w3.org/2000/svg"
 width="157.000000pt" height="170.000000pt" viewBox="0 0 157.000000 170.000000"
 preserveAspectRatio="xMidYMid meet">
<metadata>
Created by potrace 1.16, written by Peter Selinger 2001-2019
</metadata>
<g transform="translate(0.000000,170.000000) scale(0.100000,-0.100000)"
fill="#000000" stroke="none">
<path d="M750 1450 c-6 0 -10 -13 -10 -29 0 -21 6 -30 23 -35 12 -3 31 -6 41
-6 10 0 24 -7 31 -16 9 -13 16 -14 33 -5 18 9 21 9 16 -3 -3 -8 2 -17 14 -20
11 -4 25 -20 32 -37 7 -16 16 -32 20 -34 4 -3 10 6 12 19 4 18 1 23 -10 18
-10 -3 -13 -1 -8 6 4 6 -3 30 -16 52 -22 39 -25 40 -66 37 -29 -3 -45 0 -49 9
-2 7 -11 10 -18 8 -7 -3 -18 4 -25 15 -6 12 -15 21 -20 21z M1535 1440 c-2 0
-7 -17 -11 -37 -4 -21 -7 -46 -6 -55 0 -10 -6 -18 -14 -18 -9 0 -14 -6 -11
-12 2 -7 11 -12 19 -12 10 1 14 -5 10 -18 -3 -12 -10 -17 -22 -13 -10 3 -21 1
-25 -5 -3 -5 2 -10 12 -11 10 0 26 -2 36 -4 15 -3 17 7 17 91 0 52 -2 94 -5
94z M735 1332 c-20 4 -25 1 -25 -14 0 -16 -5 -19 -25 -14 -14 4 -25 4 -25 1 0
-2 14 -11 30 -20 17 -9 30 -22 30 -30 0 -8 6 -15 14 -15 7 0 16 -9 19 -20 3
-12 14 -20 26 -20 12 0 21 -5 21 -12 0 -9 3 -9 12 0 8 8 8 15 -3 28 -12 16
-12 17 4 11 9 -3 17 -2 17 3 0 5 -5 12 -10 15 -6 4 -9 14 -8 23 2 11 -5 18
-21 20 -13 2 -27 -2 -31 -9 -5 -7 -15 -9 -26 -5 -17 7 -16 9 9 22 15 8 25 19
22 23 -2 5 -16 11 -30 13z M877 1270 c-8 0 -16 -3 -20 -6 -3 -3 -2 -17 3 -30
7 -19 6 -24 -5 -24 -8 0 -15 -5 -15 -11 0 -7 10 -9 25 -7 14 3 25 1 25 -3 0
-5 7 -9 15 -9 8 0 15 6 15 14 0 7 -10 16 -22 19 -12 4 -20 9 -17 11 3 3 19 1
35 -6 16 -6 35 -22 41 -35 11 -22 10 -23 -9 -17 -21 6 -21 6 0 -17 19 -19 25
-21 47 -11 14 7 36 12 48 11 12 0 16 -3 10 -6 -7 -2 -13 -11 -13 -19 0 -9 11
-14 30 -14 27 0 29 2 24 30 -5 22 -3 30 8 30 8 0 19 5 25 11 9 9 8 15 -2 25
-7 8 -16 14 -20 14 -3 0 -3 -5 1 -11 5 -9 -7 -10 -42 -6 -41 6 -45 5 -26 -5
12 -6 22 -14 22 -18 0 -5 -11 -11 -25 -14 -14 -4 -30 -4 -35 -1 -5 3 -7 18 -5
33 2 15 6 34 10 43 3 10 2 20 -4 24 -6 3 -15 -5 -21 -19 -5 -14 -14 -26 -19
-26 -5 0 -13 5 -16 10 -3 6 -14 10 -25 10 -10 0 -20 7 -24 15 -3 8 -12 15 -19
15z M1525 1204 c-10 4 -14 -1 -12 -17 2 -18 -3 -22 -28 -22 -23 -1 -30 -5 -30
-20 0 -11 -8 -21 -17 -23 -9 -2 -19 -11 -23 -20 -4 -10 1 -21 10 -28 9 -7 18
-24 19 -38 2 -14 -1 -26 -5 -26 -5 0 -9 5 -9 10 0 6 -4 10 -10 10 -5 0 -10 -8
-10 -17 0 -10 4 -23 8 -30 5 -8 25 -10 65 -6 52 5 57 8 57 31 0 20 -3 22 -14
13 -12 -10 -17 -8 -25 7 -9 17 -7 21 13 26 19 5 25 14 27 43 2 21 3 52 1 70
-2 17 -10 34 -17 37z M733 1200 c-5 0 -15 -5 -23 -10 -8 -5 -27 -10 -42 -10
-16 0 -28 -5 -28 -11 0 -8 17 -10 50 -7 37 4 53 1 62 -10 11 -13 10 -15 -9
-10 -13 4 -23 2 -23 -4 0 -6 -10 -8 -24 -4 -21 5 -23 3 -18 -16 3 -13 -1 -26
-12 -34 -10 -7 -16 -20 -14 -30 1 -10 8 -19 15 -21 6 -2 14 10 18 26 4 17 11
33 16 36 5 4 15 3 22 -2 6 -4 37 -8 68 -8 55 0 55 0 35 40 -12 22 -25 43 -31
47 -5 4 -20 8 -32 8 -13 0 -23 5 -23 10 0 6 -3 10 -7 10z M588 1114 c-1 9 -8
12 -14 8 -6 -4 -13 -15 -17 -24 -4 -11 -2 -17 6 -15 7 1 12 -9 12 -23 0 -19
-6 -26 -25 -28 -13 -2 -30 -11 -37 -20 -7 -10 -13 -21 -13 -25 0 -5 10 -5 23
-2 18 5 17 3 -7 -14 -17 -11 -33 -18 -38 -15 -4 3 -18 -7 -31 -22 -13 -14 -34
-28 -48 -29 -13 -1 -28 -3 -32 -4 -5 0 -5 -6 -2 -11 4 -6 1 -18 -6 -26 -10
-13 -10 -17 2 -25 8 -5 20 -7 27 -4 6 2 12 -1 12 -8 1 -7 6 -5 14 6 7 9 16 17
20 17 3 0 6 -7 6 -16 0 -11 6 -14 23 -9 12 4 26 11 31 16 6 5 1 18 -14 34 -20
21 -21 27 -9 41 10 12 23 14 51 10 23 -4 38 -2 38 4 0 5 4 10 8 10 5 0 17 -7
28 -15 14 -11 16 -17 7 -23 -10 -6 -9 -14 2 -35 14 -27 13 -28 -6 -22 -18 6
-20 4 -14 -15 5 -16 4 -21 -6 -18 -8 3 -14 19 -14 39 0 24 -5 35 -17 37 -10 2
-18 10 -18 19 0 10 -6 13 -16 9 -9 -3 -20 -6 -26 -6 -5 0 -2 -7 6 -16 9 -8 16
-29 16 -45 0 -23 -4 -29 -21 -29 -14 0 -19 -5 -17 -17 2 -10 12 -19 22 -21 14
-3 17 0 13 12 -4 10 1 20 13 26 10 5 21 10 24 10 4 0 1 -10 -5 -22 -7 -13 -16
-31 -20 -40 -5 -9 -5 -20 0 -23 5 -3 16 -2 25 1 11 4 15 13 10 26 -5 16 -3 18
7 12 8 -4 22 -9 32 -9 13 -1 23 10 34 37 9 23 19 35 23 28 4 -6 14 8 23 32 17
42 17 43 -5 60 -17 12 -20 20 -12 28 8 8 18 3 37 -16 15 -15 27 -30 27 -34 0
-4 11 -5 25 -3 13 3 29 10 34 17 6 7 3 19 -10 34 -13 17 -24 22 -39 17 -15 -5
-18 -3 -14 9 4 11 1 16 -10 16 -9 0 -16 -4 -16 -10 0 -5 -9 -10 -21 -10 -14 0
-24 10 -32 30 -6 17 -17 30 -24 30 -7 0 -13 4 -13 9 0 6 5 13 10 16 6 3 10 15
10 25 0 13 -5 17 -14 14 -8 -3 -16 1 -18 10z M1335 1104 c-19 4 -35 2 -43 -6
-6 -6 -12 -22 -12 -35 0 -13 -4 -23 -10 -23 -5 0 -10 -6 -10 -14 0 -7 7 -19
16 -26 13 -11 16 -10 21 8 3 12 9 22 14 22 5 0 7 11 3 25 -5 21 -3 25 15 25
12 0 21 -6 21 -12 0 -7 5 -5 11 5 6 10 9 20 7 22 -1 1 -17 6 -33 9z M1120
1060 c-5 0 -10 -4 -10 -10 0 -5 5 -10 10 -10 6 0 10 -9 10 -21 0 -11 -5 -17
-10 -14 -6 3 -13 -1 -16 -9 -3 -9 -12 -16 -20 -16 -8 0 -14 -4 -14 -10 0 -5 7
-10 15 -10 8 0 15 4 15 8 0 4 19 8 42 9 23 1 45 8 49 15 5 7 9 21 9 31 0 13
-8 17 -35 17 -19 0 -35 5 -35 10 0 6 -4 10 -10 10z M821 1023 c-10 2 -26 0
-36 -6 -16 -9 -16 -11 -3 -21 8 -6 16 -14 16 -18 1 -5 2 -12 2 -18 0 -5 5 -10
11 -10 6 0 17 -7 25 -15 9 -8 26 -15 40 -15 13 0 24 2 24 5 0 3 -5 14 -12 24
-7 11 -18 16 -30 13 -13 -3 -17 0 -12 11 4 12 1 14 -15 10 -11 -3 -18 -10 -14
-16 3 -6 1 -7 -5 -3 -6 4 -9 13 -5 21 3 8 11 15 19 15 8 0 14 4 14 9 0 5 -8
11 -19 14z M1343 974 c-4 7 -14 11 -20 9 -7 -3 -13 -13 -13 -24 0 -13 -7 -19
-22 -19 -21 -1 -22 -2 -5 -14 9 -7 17 -21 17 -30 0 -9 8 -16 21 -16 11 0 18 4
15 9 -3 4 3 18 13 30 10 11 25 21 34 21 10 0 15 8 14 20 -1 12 -8 20 -20 20
-10 0 -15 -4 -12 -10 3 -5 2 -10 -4 -10 -5 0 -14 6 -18 14z M1003 967 c-6 2
-14 0 -17 -6 -3 -5 -3 -16 0 -24 4 -11 -4 -17 -26 -22 -17 -4 -34 -13 -37 -21
-4 -11 -10 -11 -40 1 -20 8 -49 15 -66 15 -17 0 -39 -7 -49 -17 -10 -9 -18
-11 -18 -5 0 6 -38 -31 -85 -83 -78 -86 -86 -99 -92 -145 -5 -47 -4 -51 30
-85 25 -25 44 -35 68 -36 28 0 31 -2 14 -9 -15 -6 -5 -9 35 -9 31 -1 61 -6 68
-13 6 -6 15 -9 18 -5 4 4 1 13 -5 21 -9 10 -9 16 -1 21 6 4 16 18 21 32 5 14
12 23 16 19 4 -3 6 -36 5 -72 -1 -36 3 -96 9 -133 6 -36 11 -97 10 -135 0 -44
6 -80 16 -100 8 -17 17 -32 18 -34 1 -1 9 0 18 4 9 3 25 24 37 46 18 35 20 47
11 92 -5 28 -15 83 -22 123 -8 45 -10 111 -6 175 4 57 14 139 23 182 9 46 13
95 10 119 -6 38 -6 39 19 35 16 -4 25 -1 26 8 1 8 2 24 2 36 1 12 -4 23 -10
25z m-284 -237 c4 0 11 -3 14 -7 4 -3 1 -13 -6 -21 -9 -12 -9 -16 1 -19 6 -3
12 -15 12 -28 0 -15 -7 -25 -22 -28 -12 -3 -30 -2 -40 4 -10 5 -18 14 -18 19
0 6 5 10 10 10 6 0 10 6 10 13 0 7 7 23 16 35 8 12 19 22 23 22z M99 890 c-5
0 -13 -9 -19 -20 -7 -14 -8 -26 0 -39 5 -11 10 -25 10 -32 0 -9 -3 -9 -15 1
-8 6 -19 9 -25 5 -5 -3 -10 -10 -10 -14 0 -5 18 -9 40 -9 22 0 40 3 40 8 0 5
3 15 6 23 3 9 -3 16 -17 20 -22 6 -22 7 -6 25 9 10 14 22 10 25 -3 4 -10 7
-14 7z M1336 862 c-39 2 -56 -1 -56 -9 0 -6 4 -14 10 -18 5 -3 7 -12 3 -20 -3
-10 1 -15 15 -15 11 0 27 -11 35 -24 15 -23 15 -24 -8 -30 -14 -4 -25 -13 -25
-21 0 -8 4 -15 9 -15 6 0 13 5 16 10 3 6 11 10 16 10 6 0 7 -9 4 -21 -4 -12
-4 -41 0 -65 6 -41 9 -44 36 -44 16 0 29 4 29 10 0 6 18 7 45 3 42 -5 45 -4
45 18 0 19 2 21 10 9 6 -9 10 -10 10 -3 0 7 -6 16 -13 20 -8 4 -16 18 -19 30
-4 13 -2 25 2 28 5 3 11 1 15 -5 3 -5 11 -10 16 -10 5 0 8 23 6 53 -1 28 -6
51 -10 50 -4 -2 -12 -3 -18 -3 -6 0 -8 -8 -5 -18 5 -13 -1 -23 -20 -32 -21
-12 -25 -19 -20 -44 4 -16 13 -37 22 -47 10 -11 12 -19 5 -24 -6 -3 -16 -3
-21 0 -6 4 -8 11 -5 16 4 5 2 9 -3 9 -6 0 -9 7 -8 16 0 9 -5 19 -11 21 -8 3
-13 -4 -13 -16 0 -11 5 -23 10 -26 6 -3 10 -11 10 -18 0 -6 -6 -3 -13 7 -12
16 -14 16 -26 2 -8 -9 -17 -16 -21 -16 -5 0 -14 16 -20 35 -9 27 -8 40 2 62 8
16 21 27 31 27 9 -1 17 2 17 6 0 4 -10 11 -22 14 -23 6 -23 6 -3 22 18 14 19
16 3 25 -9 5 -15 16 -12 23 4 11 -8 15 -50 18z M1127 820 c-1 -1 -22 -19 -46
-40 -36 -33 -40 -40 -23 -40 12 0 24 5 27 10 4 6 13 4 23 -6 15 -15 14 -18
-12 -40 -21 -19 -24 -25 -12 -30 8 -3 12 -12 9 -20 -3 -9 2 -14 17 -14 16 0
20 4 15 19 -3 11 -1 22 5 26 8 5 8 11 -1 21 -9 11 -8 15 6 20 16 6 15 9 -6 25
-13 10 -20 21 -16 25 4 4 19 2 33 -5 15 -6 29 -9 32 -6 3 2 -7 16 -22 30 -15
14 -28 25 -29 25z M425 810 c-6 0 -15 -3 -18 -7 -4 -3 -7 -12 -7 -20 0 -7 7
-13 15 -13 8 0 15 -7 15 -15 0 -8 9 -15 21 -15 16 0 19 4 13 23 -3 12 -11 28
-16 35 -6 6 -16 12 -23 12z M488 724 c-2 10 -9 11 -25 5 -16 -6 -23 -16 -23
-36 0 -17 -8 -33 -20 -41 -11 -7 -20 -19 -20 -27 0 -8 -7 -15 -15 -15 -8 0
-15 3 -15 6 0 4 8 13 17 20 10 7 15 15 11 19 -4 4 -25 8 -48 9 -38 2 -40 1
-24 -12 18 -12 17 -13 -7 -7 -22 6 -26 3 -24 -17 1 -20 9 -24 55 -32 43 -8 55
-7 64 6 6 9 20 17 31 20 13 2 19 11 18 23 -1 11 4 23 10 27 6 4 15 2 19 -5 6
-9 10 -9 16 1 5 7 15 12 22 10 8 -2 16 5 18 15 3 13 -2 18 -15 17 -10 -1 -23
-2 -30 -1 -6 0 -13 7 -15 15z M329 714 c-2 1 -18 0 -35 -4 -17 -4 -36 -10 -42
-13 -5 -4 -12 -4 -14 0 -1 5 -16 -5 -32 -20 -16 -15 -22 -25 -14 -22 9 4 18 0
21 -8 3 -8 18 -14 34 -13 15 1 26 3 24 6 -2 3 1 15 7 27 8 13 18 20 27 17 9
-4 18 1 21 10 4 9 5 18 3 20z M504 629 c-5 0 -19 -4 -31 -9 -13 -5 -23 -16
-23 -23 0 -8 18 -21 41 -30 41 -16 41 -16 25 8 -9 13 -13 31 -10 39 3 9 2 16
-2 15z M70 577 c-8 1 -21 -4 -27 -12 -7 -8 -13 -19 -13 -26 0 -9 3 -9 14 0 10
9 16 9 21 1 4 -6 2 -17 -5 -25 -8 -10 -8 -15 1 -20 6 -4 15 -1 20 6 5 8 8 27
7 44 -2 17 -9 31 -18 32z M550 540 c-10 0 -20 -9 -23 -21 -3 -11 -15 -23 -26
-26 -12 -3 -21 -7 -21 -10 0 -2 9 -13 19 -24 11 -12 24 -19 29 -15 5 3 7 17 4
31 -3 18 0 25 11 25 8 0 17 9 20 20 4 14 0 20 -13 20z M1018 500 c-4 0 -9 -3
-11 -7 -2 -5 -3 -25 -1 -46 1 -21 4 -40 6 -41 1 -1 13 2 24 8 21 11 21 13 5
49 -8 20 -19 37 -23 37z M259 490 c-6 0 -12 -7 -15 -15 -4 -8 -17 -15 -30 -15
-13 0 -24 -4 -24 -10 0 -5 9 -10 20 -10 11 0 20 -4 20 -10 0 -5 6 -10 13 -10
7 0 18 5 24 11 5 5 8 21 5 35 -2 13 -8 24 -13 24z M1490 454 c-29 14 -30 14
-36 -10 -4 -14 -13 -24 -24 -24 -10 0 -23 -6 -29 -14 -8 -10 -9 -16 -2 -21 6
-3 19 -1 29 4 10 5 28 8 40 5 14 -4 24 1 32 15 6 12 16 18 22 15 6 -4 8 -3 4
4 -3 6 -20 17 -36 26z M574 439 c-8 8 -17 3 -37 -19 -15 -16 -27 -34 -27 -39
0 -5 7 -11 15 -15 8 -3 15 -12 15 -21 0 -8 4 -15 9 -15 5 0 12 6 14 13 3 6 6
2 6 -10 1 -13 5 -23 11 -23 5 0 13 7 17 15 5 8 24 16 43 18 27 2 35 7 35 22 0
17 6 20 38 17 21 -2 37 2 37 8 0 5 -8 10 -17 11 -13 0 -11 3 6 10 25 10 25 10
2 26 -15 10 -26 12 -30 5 -3 -5 -15 -12 -26 -15 -18 -4 -17 -5 3 -6 13 0 20
-6 17 -11 -3 -6 -17 -7 -30 -4 -12 3 -26 1 -29 -4 -4 -6 -2 -14 4 -17 8 -5 7
-11 -1 -21 -6 -8 -20 -14 -30 -14 -11 0 -27 8 -38 19 -10 10 -25 21 -32 24
-12 5 -11 7 1 16 8 6 20 12 25 15 6 2 6 8 -1 15z M290 340 c-18 0 -31 -8 -40
-26 -12 -22 -12 -27 0 -34 10 -6 20 -4 31 6 10 9 32 16 51 17 24 2 34 7 37 22
3 17 1 18 -13 6 -13 -11 -20 -11 -28 -3 -7 7 -24 12 -38 12z M1401 340 c-9 0
-26 -6 -37 -14 -10 -8 -16 -17 -12 -21 4 -4 27 -8 52 -10 25 -1 46 1 46 5 0 5
-7 16 -16 24 -8 9 -23 16 -33 16z M41 290 c-5 0 -13 -5 -17 -12 -4 -6 -3 -13
2 -15 5 -2 8 -21 6 -43 -4 -40 -4 -40 31 -40 32 0 34 2 29 26 -3 15 -13 29
-23 31 -11 3 -20 10 -20 17 -1 6 -1 17 0 24 1 6 -3 12 -8 12z M1353 280 c-10
0 -26 -12 -36 -26 -10 -13 -22 -22 -28 -19 -5 4 -9 2 -9 -3 0 -6 8 -13 17 -16
10 -4 20 -1 26 9 8 15 10 15 28 -1 11 -9 22 -15 25 -11 3 3 2 12 -2 19 -5 7
-7 21 -6 31 2 11 -3 17 -15 17z M407 187 c-3 10 -6 14 -7 8 -1 -5 -2 -14 -1
-18 1 -5 -3 -6 -8 -2 -6 3 -17 -8 -26 -24 -8 -17 -15 -37 -15 -46 0 -8 -9 -15
-20 -15 -11 0 -20 5 -20 11 0 5 5 7 12 3 7 -5 8 -3 4 5 -5 7 -1 18 9 25 9 7
16 21 14 32 -3 12 -14 20 -32 22 -16 2 -36 1 -44 -2 -13 -5 -13 -9 -2 -23 11
-13 11 -17 2 -20 -7 -3 -13 -11 -13 -19 0 -8 -8 -14 -17 -14 -13 0 -14 -3 -5
-12 9 -9 15 -9 24 0 7 7 15 12 20 12 4 0 5 -6 2 -14 -3 -9 8 -19 33 -29 33
-14 35 -16 13 -17 -14 0 -32 -5 -40 -10 -13 -8 -13 -12 4 -27 13 -13 20 -15
23 -5 3 6 17 12 31 12 15 0 32 4 37 8 6 4 11 28 12 55 1 28 -3 47 -9 47 -6 0
-3 9 6 19 10 11 16 28 13 38z M535 200 c-1 0 -10 -11 -19 -25 -11 -16 -14 -34
-10 -51 5 -19 9 -22 15 -12 8 11 10 11 18 -1 5 -7 14 -10 21 -6 6 4 9 13 6 21
-3 8 -3 14 1 14 3 0 25 -19 47 -42 23 -23 40 -45 38 -50 -1 -4 5 -8 13 -8 8 0
15 5 15 10 0 6 9 10 20 10 11 0 20 5 20 10 0 6 -18 10 -40 10 -22 0 -39 3 -39
8 1 4 1 13 0 20 0 6 -10 12 -21 12 -11 0 -20 7 -20 15 0 8 -7 15 -15 15 -8 0
-15 9 -15 19 0 10 -7 22 -16 25 -9 3 -17 6 -19 6z M780 175 c-5 3 -10 -2 -10
-13 0 -10 -3 -22 -7 -25 -3 -4 -13 -2 -20 5 -9 7 -17 8 -21 2 -4 -5 -15 -13
-25 -19 -10 -5 -18 -14 -18 -20 1 -5 24 -10 53 -10 33 0 53 -5 56 -13 3 -9 7
-10 17 -2 7 6 11 20 8 30 -3 11 -9 20 -14 20 -5 0 -9 9 -9 19 0 11 -4 23 -10
26z M1210 160 c-4 0 -10 -13 -12 -29 -2 -17 -2 -28 2 -26 4 2 21 -5 39 -16 18
-11 34 -19 35 -17 0 2 7 13 14 25 12 22 11 23 -23 17 -31 -5 -35 -2 -41 20 -3
14 -10 26 -14 26z"/>
</g>
</svg>
