<?xml version="1.0" standalone="no"?>
<!DOCTYPE svg PUBLIC "-//W3C//DTD SVG 20010904//EN"
 "http://www.w3.org/TR/2001/REC-SVG-20010904/DTD/svg10.dtd">
<svg version="1.0" xmlns="http://www.w3.org/2000/svg"
 width="157.000000pt" height="173.000000pt" viewBox="0 0 157.000000 173.000000"
 preserveAspectRatio="xMidYMid meet">
<metadata>
Created by potrace 1.16, written by Peter Selinger 2001-2019
</metadata>
<g transform="translate(0.000000,173.000000) scale(0.100000,-0.100000)"
fill="#000000" stroke="none">
<path d="M815 1130 c-8 0 -20 -10 -26 -22 -7 -12 -12 -34 -11 -49 0 -15 6 -37
12 -48 6 -12 21 -21 34 -21 13 0 31 9 41 20 11 12 15 27 11 43 -3 13 -15 36
-27 50 -11 15 -27 27 -34 27z M830 827 c-8 1 -21 -1 -27 -4 -7 -2 -13 -13 -13
-23 0 -9 9 -53 20 -96 11 -44 20 -111 20 -151 0 -40 -5 -96 -11 -125 -6 -29
-20 -70 -31 -91 -10 -21 -33 -47 -51 -57 -18 -11 -49 -20 -70 -20 -21 0 -49 7
-63 17 -14 9 -36 38 -50 65 -13 26 -30 48 -38 48 -7 0 -19 -7 -26 -15 -10 -12
-10 -24 -1 -55 7 -25 29 -54 62 -84 48 -44 54 -46 109 -46 32 0 70 4 84 10 14
5 43 25 64 45 22 19 49 57 60 83 11 26 25 90 31 143 8 67 8 122 0 180 -5 47
-20 104 -32 129 -12 25 -29 46 -37 47z"/>
</g>
</svg>
