<?xml version="1.0" standalone="no"?>
<!DOCTYPE svg PUBLIC "-//W3C//DTD SVG 20010904//EN"
 "http://www.w3.org/TR/2001/REC-SVG-20010904/DTD/svg10.dtd">
<svg version="1.0" xmlns="http://www.w3.org/2000/svg"
 width="164.000000pt" height="179.000000pt" viewBox="0 0 164.000000 179.000000"
 preserveAspectRatio="xMidYMid meet">
<metadata>
Created by potrace 1.16, written by Peter Selinger 2001-2019
</metadata>
<g transform="translate(0.000000,179.000000) scale(0.100000,-0.100000)"
fill="#000000" stroke="none">
<path d="M770 780 c-8 0 -27 -7 -40 -16 -14 -10 -31 -24 -37 -32 -7 -9 -13
-23 -13 -32 0 -9 9 -26 20 -38 13 -14 33 -22 53 -22 18 0 42 6 52 14 14 10 20
26 20 56 0 30 -6 46 -20 56 -10 8 -26 14 -35 14z M529 770 c-13 0 -38 -9 -56
-19 -17 -11 -34 -29 -38 -41 -5 -15 0 -29 16 -46 14 -15 34 -24 53 -24 17 0
50 10 74 22 30 16 42 29 42 45 0 14 -12 29 -34 42 -18 12 -44 21 -57 21z
M1010 770 c-15 0 -36 -10 -49 -24 -18 -19 -22 -31 -17 -53 4 -15 14 -38 22
-50 8 -14 25 -23 39 -23 14 0 32 11 44 27 12 14 24 37 27 50 5 17 0 31 -17 49
-13 14 -34 24 -49 24z"/>
</g>
</svg>
