<?xml version="1.0" standalone="no"?>
<!DOCTYPE svg PUBLIC "-//W3C//DTD SVG 20010904//EN"
 "http://www.w3.org/TR/2001/REC-SVG-20010904/DTD/svg10.dtd">
<svg version="1.0" xmlns="http://www.w3.org/2000/svg"
 width="154.000000pt" height="167.000000pt" viewBox="0 0 154.000000 167.000000"
 preserveAspectRatio="xMidYMid meet">
<metadata>
Created by potrace 1.16, written by Peter Selinger 2001-2019
</metadata>
<g transform="translate(0.000000,167.000000) scale(0.100000,-0.100000)"
fill="#000000" stroke="none">
<path d="M806 1320 c-7 0 -35 -24 -62 -52 -27 -29 -70 -80 -95 -113 -24 -33
-56 -78 -70 -100 -15 -22 -36 -59 -48 -82 -11 -23 -21 -51 -21 -62 0 -11 10
-27 22 -35 12 -9 40 -16 62 -16 22 0 66 7 98 16 36 10 63 13 68 8 6 -6 3 -60
-7 -136 -14 -104 -14 -129 -4 -142 8 -9 24 -16 37 -16 12 0 25 4 28 9 3 4 -1
17 -9 27 -8 11 -15 42 -15 71 0 29 5 76 10 105 6 29 13 63 16 75 2 13 16 30
31 40 16 11 55 19 102 23 46 3 74 9 71 15 -3 6 -45 10 -95 10 l-90 0 4 73 c3
68 2 74 -15 70 -13 -2 -20 -13 -21 -33 0 -17 -7 -50 -14 -75 -6 -25 -16 -50
-20 -56 -5 -6 -43 -19 -84 -29 -41 -9 -86 -14 -100 -11 -17 4 -25 13 -25 28 0
11 16 50 36 86 20 36 67 97 105 136 37 39 79 85 93 101 14 17 26 38 26 48 0 9
-6 17 -14 17z"/>
</g>
</svg>
