<?xml version="1.0" standalone="no"?>
<!DOCTYPE svg PUBLIC "-//W3C//DTD SVG 20010904//EN"
 "http://www.w3.org/TR/2001/REC-SVG-20010904/DTD/svg10.dtd">
<svg version="1.0" xmlns="http://www.w3.org/2000/svg"
 width="151.000000pt" height="167.000000pt" viewBox="0 0 151.000000 167.000000"
 preserveAspectRatio="xMidYMid meet">
<metadata>
Created by potrace 1.16, written by Peter Selinger 2001-2019
</metadata>
<g transform="translate(0.000000,167.000000) scale(0.100000,-0.100000)"
fill="#000000" stroke="none">
<path d="M616 920 c-8 0 -20 -17 -27 -37 -6 -21 -11 -69 -11 -108 1 -38 6 -93
12 -122 6 -28 20 -63 31 -77 16 -20 30 -26 58 -26 28 0 47 8 76 33 30 26 43
49 65 117 15 46 34 88 41 92 8 4 39 12 69 18 30 6 64 17 74 25 11 8 17 18 13
21 -3 4 -36 0 -73 -7 -65 -13 -67 -13 -85 10 -11 13 -25 21 -32 18 -8 -3 -21
-43 -31 -94 -9 -48 -26 -107 -37 -130 -11 -23 -31 -49 -45 -58 -24 -15 -27
-15 -44 0 -10 9 -23 37 -30 62 -6 26 -11 87 -10 137 1 50 1 99 1 109 -1 9 -7
17 -15 17z"/>
</g>
</svg>
