<?xml version="1.0" standalone="no"?>
<!DOCTYPE svg PUBLIC "-//W3C//DTD SVG 20010904//EN"
 "http://www.w3.org/TR/2001/REC-SVG-20010904/DTD/svg10.dtd">
<svg version="1.0" xmlns="http://www.w3.org/2000/svg"
 width="154.000000pt" height="167.000000pt" viewBox="0 0 154.000000 167.000000"
 preserveAspectRatio="xMidYMid meet">
<metadata>
Created by potrace 1.16, written by Peter Selinger 2001-2019
</metadata>
<g transform="translate(0.000000,167.000000) scale(0.100000,-0.100000)"
fill="#000000" stroke="none">
<path d="M1044 1374 c-9 4 -34 -12 -63 -39 -26 -25 -50 -43 -52 -40 -3 2 -34
6 -69 8 -36 3 -90 0 -121 -4 -31 -5 -78 -18 -103 -30 -28 -12 -55 -33 -67 -52
-15 -25 -19 -43 -15 -79 3 -26 12 -60 20 -76 8 -16 32 -47 52 -68 34 -34 36
-39 20 -48 -10 -6 -38 -24 -62 -40 -25 -15 -52 -42 -60 -59 -11 -20 -14 -43
-10 -69 4 -22 17 -61 31 -87 13 -26 41 -63 61 -81 21 -18 62 -44 92 -58 44
-20 65 -23 114 -20 52 4 65 9 86 33 23 27 24 34 19 110 -3 50 -13 99 -27 130
-11 28 -39 68 -60 90 -22 23 -36 45 -32 51 4 6 26 21 48 32 23 12 55 33 72 47
16 14 44 48 62 75 30 47 35 50 74 50 22 0 58 5 79 11 26 7 37 15 37 29 0 18
-7 20 -65 20 -45 0 -65 4 -65 13 0 6 7 36 14 65 8 30 12 60 10 67 -3 7 -12 16
-20 19z m-232 -115 c48 1 71 -3 82 -15 9 -8 16 -19 16 -24 0 -5 -4 -12 -10
-15 -5 -3 -10 -13 -10 -21 0 -9 11 -14 30 -14 19 0 30 -5 30 -14 0 -8 -15 -34
-32 -57 -19 -24 -59 -57 -93 -75 -33 -19 -71 -34 -85 -34 -17 0 -39 13 -62 38
-20 20 -41 47 -47 59 -6 12 -11 40 -11 62 0 28 6 46 22 60 11 11 40 27 62 35
23 8 71 15 108 15z m-100 -349 c10 0 36 -17 59 -37 22 -20 49 -53 58 -72 10
-20 24 -60 30 -89 6 -29 11 -62 11 -72 0 -11 -9 -29 -20 -40 -13 -13 -33 -20
-60 -20 -23 0 -62 11 -89 25 -27 13 -62 40 -79 60 -16 20 -34 53 -41 74 -6 21
-11 48 -11 59 0 12 10 32 23 46 12 14 40 35 62 46 22 10 48 19 57 20z"/>
</g>
</svg>
