<?xml version="1.0" standalone="no"?>
<!DOCTYPE svg PUBLIC "-//W3C//DTD SVG 20010904//EN"
 "http://www.w3.org/TR/2001/REC-SVG-20010904/DTD/svg10.dtd">
<svg version="1.0" xmlns="http://www.w3.org/2000/svg"
 width="156.000000pt" height="173.000000pt" viewBox="0 0 156.000000 173.000000"
 preserveAspectRatio="xMidYMid meet">
<metadata>
Created by potrace 1.16, written by Peter Selinger 2001-2019
</metadata>
<g transform="translate(0.000000,173.000000) scale(0.100000,-0.100000)"
fill="#000000" stroke="none">
<path d="M770 900 c-8 0 -46 -11 -85 -25 -38 -13 -94 -41 -124 -62 -30 -21
-76 -64 -103 -96 -32 -39 -48 -67 -48 -86 0 -15 10 -43 22 -61 13 -19 45 -47
72 -64 48 -29 53 -30 170 -29 74 0 152 7 201 18 44 9 99 25 123 35 23 10 42
23 42 29 0 5 -4 12 -9 16 -6 3 -45 -4 -88 -15 -42 -11 -118 -25 -168 -31 -49
-6 -116 -9 -148 -5 -32 3 -71 12 -86 21 -16 8 -39 28 -51 45 -14 20 -20 39
-16 54 3 13 27 47 52 75 26 29 68 63 93 75 25 13 70 31 100 40 30 9 59 16 65
16 6 0 18 -5 26 -10 12 -7 11 -13 -10 -35 -18 -19 -21 -28 -12 -37 8 -8 22 -4
54 18 24 16 46 33 50 39 4 5 -3 20 -14 32 -12 13 -38 27 -57 33 -20 5 -43 10
-51 10z"/>
</g>
</svg>
