<?xml version="1.0" standalone="no"?>
<!DOCTYPE svg PUBLIC "-//W3C//DTD SVG 20010904//EN"
 "http://www.w3.org/TR/2001/REC-SVG-20010904/DTD/svg10.dtd">
<svg version="1.0" xmlns="http://www.w3.org/2000/svg"
 width="155.000000pt" height="168.000000pt" viewBox="0 0 155.000000 168.000000"
 preserveAspectRatio="xMidYMid meet">
<metadata>
Created by potrace 1.16, written by Peter Selinger 2001-2019
</metadata>
<g transform="translate(0.000000,168.000000) scale(0.100000,-0.100000)"
fill="#000000" stroke="none">
<path d="M810 1440 c-15 0 -30 -3 -33 -7 -4 -3 -7 -14 -7 -23 0 -11 16 -23 45
-34 24 -10 58 -33 74 -51 17 -19 39 -64 50 -100 11 -36 25 -101 30 -145 7 -51
7 -122 1 -202 -5 -68 -16 -161 -23 -208 -8 -47 -24 -128 -37 -180 -12 -52 -33
-135 -47 -185 -13 -50 -35 -109 -49 -132 -25 -42 -25 -42 -4 -63 11 -11 24
-20 28 -20 5 0 17 8 26 19 9 10 18 29 18 42 1 13 23 110 49 214 27 105 58 251
71 325 17 103 22 176 22 310 1 157 -2 182 -22 240 -13 36 -34 81 -47 101 -13
20 -45 50 -71 67 -26 18 -59 32 -74 32z"/>
</g>
</svg>
