<?xml version="1.0" standalone="no"?>
<!DOCTYPE svg PUBLIC "-//W3C//DTD SVG 20010904//EN"
 "http://www.w3.org/TR/2001/REC-SVG-20010904/DTD/svg10.dtd">
<svg version="1.0" xmlns="http://www.w3.org/2000/svg"
 width="152.000000pt" height="167.000000pt" viewBox="0 0 152.000000 167.000000"
 preserveAspectRatio="xMidYMid meet">
<metadata>
Created by potrace 1.16, written by Peter Selinger 2001-2019
</metadata>
<g transform="translate(0.000000,167.000000) scale(0.100000,-0.100000)"
fill="#000000" stroke="none">
<path d="M727 999 c-7 0 -25 -5 -42 -10 -16 -4 -48 -23 -69 -41 -21 -17 -52
-52 -67 -77 -16 -25 -29 -55 -29 -67 0 -13 4 -25 9 -28 4 -3 17 14 27 37 10
23 42 66 72 95 35 34 61 52 77 52 18 0 26 -7 31 -24 3 -14 0 -42 -6 -63 -7
-21 -23 -57 -36 -80 -13 -23 -34 -45 -47 -49 -12 -4 -44 -8 -72 -8 -39 -1 -51
-5 -53 -19 -3 -14 4 -17 46 -17 27 0 52 -3 55 -6 4 -4 -5 -28 -19 -54 -14 -26
-24 -58 -22 -71 1 -13 14 -29 28 -37 17 -8 43 -11 80 -6 30 3 82 16 114 28 33
13 62 28 64 34 2 7 -5 12 -16 12 -11 0 -39 -8 -63 -19 -24 -10 -67 -22 -96
-25 -33 -4 -54 -3 -58 4 -4 6 -4 26 -1 45 4 18 23 52 44 74 31 35 46 43 92 51
30 5 72 12 93 15 23 4 37 11 37 20 0 10 -11 15 -32 15 -18 0 -51 -5 -73 -10
-22 -5 -44 -5 -49 0 -4 4 1 33 13 64 12 31 21 69 21 85 0 16 -9 40 -21 55 -11
14 -26 26 -32 25z"/>
</g>
</svg>
