<?xml version="1.0" standalone="no"?>
<!DOCTYPE svg PUBLIC "-//W3C//DTD SVG 20010904//EN"
 "http://www.w3.org/TR/2001/REC-SVG-20010904/DTD/svg10.dtd">
<svg version="1.0" xmlns="http://www.w3.org/2000/svg"
 width="152.000000pt" height="167.000000pt" viewBox="0 0 152.000000 167.000000"
 preserveAspectRatio="xMidYMid meet">
<metadata>
Created by potrace 1.16, written by Peter Selinger 2001-2019
</metadata>
<g transform="translate(0.000000,167.000000) scale(0.100000,-0.100000)"
fill="#000000" stroke="none">
<path d="M757 714 c-187 1 -244 -2 -254 -12 -7 -7 -13 -17 -13 -21 0 -4 8 -15
18 -24 16 -14 44 -17 173 -18 85 0 186 -4 224 -8 54 -7 75 -5 93 5 13 9 22 24
22 39 0 13 -5 27 -11 31 -7 4 -120 7 -252 8z"/>
</g>
</svg>
