<?xml version="1.0" standalone="no"?>
<!DOCTYPE svg PUBLIC "-//W3C//DTD SVG 20010904//EN"
 "http://www.w3.org/TR/2001/REC-SVG-20010904/DTD/svg10.dtd">
<svg version="1.0" xmlns="http://www.w3.org/2000/svg"
 width="153.000000pt" height="167.000000pt" viewBox="0 0 153.000000 167.000000"
 preserveAspectRatio="xMidYMid meet">
<metadata>
Created by potrace 1.16, written by Peter Selinger 2001-2019
</metadata>
<g transform="translate(0.000000,167.000000) scale(0.100000,-0.100000)"
fill="#000000" stroke="none">
<path d="M884 1390 c-8 0 -18 -10 -23 -22 -5 -13 -13 -36 -17 -53 -7 -23 -16
-31 -38 -33 -27 -3 -28 -2 -26 35 2 21 2 44 1 51 0 6 -5 12 -10 12 -5 0 -13
-10 -16 -22 -4 -13 -15 -41 -26 -64 -13 -28 -36 -51 -77 -78 -32 -21 -67 -51
-77 -68 -11 -20 -18 -51 -18 -85 0 -42 8 -70 34 -121 28 -54 33 -74 28 -102
-3 -19 -18 -78 -32 -130 -15 -52 -33 -138 -42 -190 -9 -52 -21 -99 -26 -104
-5 -6 -22 -4 -43 7 -20 9 -53 33 -76 53 -22 20 -40 45 -40 55 0 10 -5 21 -11
25 -6 3 -15 2 -21 -4 -5 -5 -7 -20 -3 -31 3 -12 26 -41 50 -64 23 -23 66 -53
95 -67 l52 -24 -5 -41 c-4 -22 -9 -59 -13 -83 -5 -34 -4 -42 9 -42 9 0 27 15
41 33 22 29 30 33 62 29 24 -3 39 0 45 9 5 8 9 22 9 32 0 12 -8 17 -26 17 -21
0 -24 3 -15 14 6 7 36 16 66 19 30 3 79 17 109 30 38 18 60 35 72 58 13 27 15
49 11 112 -5 58 -13 91 -34 128 -14 27 -41 64 -60 82 -18 18 -33 40 -33 51 0
10 12 57 26 105 14 47 37 124 50 171 14 47 31 101 38 120 8 24 19 36 34 38 13
2 30 -2 38 -9 12 -10 17 -10 27 0 9 10 7 17 -12 32 -13 10 -29 19 -37 19 -9 0
-14 12 -14 34 0 19 -3 41 -6 50 -3 9 -13 16 -20 16z m-82 -150 c10 0 18 -6 18
-14 0 -8 -11 -63 -25 -123 -14 -59 -36 -138 -47 -175 -13 -39 -28 -68 -35 -68
-7 0 -18 11 -24 24 -9 19 -7 39 9 93 11 37 28 104 37 148 9 44 23 88 32 97 9
10 24 18 35 18z m-114 -70 c2 -14 -4 -61 -13 -106 -9 -44 -21 -87 -26 -95 -6
-11 -11 -11 -21 -1 -7 7 -14 44 -16 82 -4 70 -4 70 34 107 l39 38 3 -25z m-2
-361 c8 -6 14 -19 14 -29 0 -10 -16 -62 -36 -116 -19 -55 -44 -134 -54 -178
-11 -43 -22 -81 -25 -84 -3 -3 -7 -3 -10 0 -3 3 2 52 11 109 9 57 27 145 41
194 13 50 29 96 35 103 8 9 14 9 24 1z m59 -69 c8 0 25 -15 39 -32 13 -18 31
-50 40 -72 9 -21 16 -66 16 -101 0 -47 -5 -68 -20 -88 -11 -14 -39 -32 -63
-41 -23 -8 -59 -17 -79 -21 -37 -6 -38 -5 -38 27 0 18 11 74 24 123 13 50 34
116 46 148 12 31 28 57 35 57z"/>
</g>
</svg>
