<?xml version="1.0" standalone="no"?>
<!DOCTYPE svg PUBLIC "-//W3C//DTD SVG 20010904//EN"
 "http://www.w3.org/TR/2001/REC-SVG-20010904/DTD/svg10.dtd">
<svg version="1.0" xmlns="http://www.w3.org/2000/svg"
 width="165.000000pt" height="181.000000pt" viewBox="0 0 165.000000 181.000000"
 preserveAspectRatio="xMidYMid meet">
<metadata>
Created by potrace 1.16, written by Peter Selinger 2001-2019
</metadata>
<g transform="translate(0.000000,181.000000) scale(0.100000,-0.100000)"
fill="#000000" stroke="none">
<path d="M707 889 c-18 0 -48 -8 -67 -17 -20 -9 -56 -32 -80 -50 -25 -18 -57
-51 -72 -74 -17 -24 -28 -55 -28 -74 0 -18 4 -44 9 -57 5 -13 17 -27 27 -31 9
-4 22 -2 28 4 6 6 9 25 8 43 -1 19 7 48 20 72 13 21 41 51 63 67 22 15 49 28
60 30 16 2 21 -3 23 -29 2 -21 -6 -48 -24 -79 -15 -26 -27 -60 -26 -77 0 -18
6 -51 13 -75 8 -30 19 -46 35 -53 13 -4 31 -6 39 -3 9 4 15 20 15 43 1 20 7
63 14 97 7 33 16 66 20 73 4 6 24 20 44 30 20 10 70 26 111 36 51 12 93 16
140 12 37 -3 74 -1 82 3 11 7 11 14 3 27 -6 10 -22 24 -35 30 -13 7 -40 13
-59 13 -19 0 -78 -7 -130 -15 -52 -8 -110 -17 -127 -21 -26 -5 -33 -3 -33 8 0
9 -9 27 -21 42 -15 19 -29 26 -52 25z"/>
</g>
</svg>
