<?xml version="1.0" standalone="no"?>
<!DOCTYPE svg PUBLIC "-//W3C//DTD SVG 20010904//EN"
 "http://www.w3.org/TR/2001/REC-SVG-20010904/DTD/svg10.dtd">
<svg version="1.0" xmlns="http://www.w3.org/2000/svg"
 width="165.000000pt" height="180.000000pt" viewBox="0 0 165.000000 180.000000"
 preserveAspectRatio="xMidYMid meet">
<metadata>
Created by potrace 1.16, written by Peter Selinger 2001-2019
</metadata>
<g transform="translate(0.000000,180.000000) scale(0.100000,-0.100000)"
fill="#000000" stroke="none">
<path d="M912 1538 c-4 0 -27 -4 -51 -7 -43 -6 -44 -7 -58 -56 -7 -27 -21 -84
-30 -125 -13 -62 -28 -94 -89 -186 -48 -73 -99 -135 -149 -182 -43 -40 -83
-72 -91 -72 -8 0 -14 10 -14 23 1 12 9 56 19 97 17 74 18 75 72 107 30 18 71
52 92 75 21 24 49 65 63 92 14 27 28 73 31 102 4 40 2 60 -11 79 -13 20 -25
25 -57 25 -36 0 -47 -6 -92 -53 -29 -29 -66 -82 -84 -118 -17 -36 -39 -91 -48
-122 -15 -53 -19 -57 -46 -57 -18 0 -32 -6 -36 -17 -4 -11 3 -23 21 -38 27
-21 27 -21 17 -124 -5 -56 -14 -108 -20 -115 -6 -8 -31 -21 -56 -31 -25 -9
-45 -20 -45 -25 0 -5 11 -30 24 -57 13 -26 35 -86 49 -133 14 -47 30 -108 37
-136 6 -29 22 -61 34 -73 14 -13 29 -19 39 -15 12 4 17 18 17 43 0 20 -7 58
-15 85 -10 32 -15 91 -15 167 0 117 0 117 54 148 30 16 93 69 140 118 47 48
89 95 92 105 3 10 10 18 15 18 5 0 9 -36 9 -80 0 -80 0 -80 -37 -99 -21 -10
-54 -22 -73 -26 -19 -4 -41 -12 -47 -17 -7 -6 -13 -18 -13 -27 0 -9 29 -72 64
-141 34 -69 76 -147 91 -175 16 -27 40 -65 53 -82 16 -21 33 -33 49 -33 13 0
26 7 30 17 4 9 1 57 -6 107 -7 50 -22 143 -32 206 -10 63 -17 122 -14 130 3 8
51 49 107 90 56 41 105 77 110 78 4 2 8 -12 8 -31 0 -20 9 -46 21 -61 17 -22
28 -27 58 -24 29 2 37 7 39 26 2 15 -5 32 -17 43 -14 14 -21 32 -21 57 1 20 5
57 10 82 5 29 5 49 -2 58 -6 6 -21 12 -33 12 -16 0 -30 -11 -44 -34 -12 -18
-67 -68 -122 -110 -56 -42 -105 -73 -110 -70 -5 3 -7 29 -3 57 3 29 15 95 26
147 16 72 34 118 75 190 29 52 53 105 53 117 0 12 -7 29 -16 37 -8 9 -18 15
-22 14z m-286 -108 c12 0 14 -7 9 -32 -4 -18 -14 -49 -23 -68 -9 -19 -39 -57
-66 -85 -28 -29 -50 -45 -53 -38 -2 7 9 41 26 75 16 35 44 82 60 106 17 23 38
42 47 42z m95 -609 c3 -3 11 -42 18 -86 6 -44 14 -93 17 -110 6 -27 5 -29 -9
-15 -9 8 -34 52 -56 97 -23 46 -41 85 -41 88 0 3 15 11 33 19 17 7 35 11 38 7z
M1091 1380 c-10 0 -23 -6 -29 -12 -5 -7 -13 -27 -16 -44 -5 -22 -2 -35 9 -44
8 -7 26 -12 40 -12 14 0 29 3 33 6 3 4 1 16 -6 26 -7 11 -12 33 -12 50 0 23
-5 30 -19 30z"/>
</g>
</svg>
