<?xml version="1.0" standalone="no"?>
<!DOCTYPE svg PUBLIC "-//W3C//DTD SVG 20010904//EN"
 "http://www.w3.org/TR/2001/REC-SVG-20010904/DTD/svg10.dtd">
<svg version="1.0" xmlns="http://www.w3.org/2000/svg"
 width="157.000000pt" height="171.000000pt" viewBox="0 0 157.000000 171.000000"
 preserveAspectRatio="xMidYMid meet">
<metadata>
Created by potrace 1.16, written by Peter Selinger 2001-2019
</metadata>
<g transform="translate(0.000000,171.000000) scale(0.100000,-0.100000)"
fill="#000000" stroke="none">
<path d="M797 1237 c-40 2 -90 -3 -112 -10 -22 -8 -53 -21 -70 -29 -16 -9 -47
-33 -68 -54 -21 -21 -51 -66 -68 -100 -18 -39 -33 -93 -40 -146 -9 -63 -9
-102 1 -163 6 -44 23 -106 36 -139 13 -32 35 -74 49 -92 14 -19 40 -41 57 -50
24 -12 50 -15 107 -12 62 4 89 11 148 41 39 20 99 62 133 93 34 32 75 77 92
102 17 24 37 67 44 96 8 28 14 81 14 118 0 43 -7 87 -20 121 -11 30 -36 68
-57 89 -21 20 -54 44 -73 53 -19 9 -50 31 -68 48 -30 29 -39 32 -105 34z m-29
-48 c23 1 42 -1 42 -4 0 -3 -25 -17 -57 -30 -31 -14 -78 -42 -105 -62 -26 -21
-48 -43 -48 -50 0 -7 4 -13 10 -13 5 0 30 15 55 34 24 19 70 44 101 56 32 11
71 20 88 18 29 -3 31 -6 34 -44 3 -36 -1 -45 -25 -64 -21 -17 -38 -21 -75 -18
-27 2 -48 -1 -49 -7 -1 -5 9 -16 22 -22 13 -7 37 -13 52 -13 15 0 43 6 62 14
19 8 44 30 55 48 11 18 20 43 20 56 0 12 6 22 14 22 8 0 28 -17 46 -37 18 -20
39 -53 48 -72 9 -22 15 -66 15 -111 0 -53 -7 -92 -22 -132 -16 -42 -41 -77
-89 -126 -47 -49 -89 -80 -141 -105 -63 -32 -83 -37 -142 -37 -64 0 -70 2
-101 33 -18 19 -43 60 -55 93 -13 33 -28 97 -35 143 -9 65 -9 97 1 145 7 33
24 86 37 116 14 30 39 70 57 88 18 19 45 41 62 49 16 9 41 19 55 24 14 4 44 8
68 8z"/>
</g>
</svg>
