<?xml version="1.0" standalone="no"?>
<!DOCTYPE svg PUBLIC "-//W3C//DTD SVG 20010904//EN"
 "http://www.w3.org/TR/2001/REC-SVG-20010904/DTD/svg10.dtd">
<svg version="1.0" xmlns="http://www.w3.org/2000/svg"
 width="153.000000pt" height="168.000000pt" viewBox="0 0 153.000000 168.000000"
 preserveAspectRatio="xMidYMid meet">
<metadata>
Created by potrace 1.16, written by Peter Selinger 2001-2019
</metadata>
<g transform="translate(0.000000,168.000000) scale(0.100000,-0.100000)"
fill="#000000" stroke="none">
<path d="M873 649 c-4 0 -20 -5 -36 -11 -16 -6 -30 -20 -33 -34 -4 -14 -1 -31
6 -39 7 -8 25 -15 41 -15 16 0 38 9 49 20 11 11 20 29 20 40 0 10 -9 24 -19
30 -11 5 -23 10 -28 9z M866 390 c-24 0 -48 -6 -55 -13 -6 -8 -14 -28 -17 -45
-6 -31 -6 -32 31 -32 38 0 38 0 32 -37 -4 -21 -15 -49 -25 -63 -11 -14 -31
-29 -46 -35 -19 -6 -33 -6 -46 3 -11 7 -26 12 -34 12 -7 0 -19 -6 -25 -14 -6
-7 -9 -20 -5 -29 3 -8 18 -21 34 -27 18 -8 48 -9 79 -5 41 6 57 14 85 45 19
21 39 56 45 77 6 21 11 57 11 81 0 24 -5 52 -10 63 -8 14 -21 19 -54 19z"/>
</g>
</svg>
