<?xml version="1.0" standalone="no"?>
<!DOCTYPE svg PUBLIC "-//W3C//DTD SVG 20010904//EN"
 "http://www.w3.org/TR/2001/REC-SVG-20010904/DTD/svg10.dtd">
<svg version="1.0" xmlns="http://www.w3.org/2000/svg"
 width="156.000000pt" height="170.000000pt" viewBox="0 0 156.000000 170.000000"
 preserveAspectRatio="xMidYMid meet">
<metadata>
Created by potrace 1.16, written by Peter Selinger 2001-2019
</metadata>
<g transform="translate(0.000000,170.000000) scale(0.100000,-0.100000)"
fill="#000000" stroke="none">
<path d="M1113 1330 c-4 0 -15 -5 -24 -10 -9 -5 -39 -43 -67 -84 -29 -41 -61
-96 -73 -123 -12 -26 -37 -86 -55 -133 -19 -47 -34 -90 -34 -97 0 -7 -12 -48
-26 -90 -14 -43 -30 -86 -35 -95 -6 -10 -18 -18 -29 -18 -10 0 -32 16 -48 36
-22 27 -34 57 -47 121 -9 47 -20 157 -24 245 -8 146 -10 161 -31 183 -13 14
-33 25 -46 25 -12 0 -26 -6 -31 -12 -6 -7 -13 -39 -16 -70 -3 -31 -13 -90 -22
-130 -10 -40 -37 -153 -61 -250 -24 -98 -44 -186 -44 -197 0 -11 8 -22 19 -26
10 -3 25 -3 34 1 9 3 25 25 36 47 10 23 34 102 52 174 19 73 37 133 40 133 4
0 9 -14 13 -31 3 -17 6 -46 6 -63 0 -18 10 -61 21 -97 12 -35 32 -78 45 -95
12 -17 38 -39 57 -48 19 -9 44 -16 55 -16 11 0 34 12 52 26 17 15 37 42 45 60
8 19 24 71 36 117 12 45 40 129 62 187 23 58 57 131 76 163 20 32 47 76 59 98
13 22 21 46 18 54 -3 8 -9 15 -13 15z"/>
</g>
</svg>
