<?xml version="1.0" standalone="no"?>
<!DOCTYPE svg PUBLIC "-//W3C//DTD SVG 20010904//EN"
 "http://www.w3.org/TR/2001/REC-SVG-20010904/DTD/svg10.dtd">
<svg version="1.0" xmlns="http://www.w3.org/2000/svg"
 width="152.000000pt" height="167.000000pt" viewBox="0 0 152.000000 167.000000"
 preserveAspectRatio="xMidYMid meet">
<metadata>
Created by potrace 1.16, written by Peter Selinger 2001-2019
</metadata>
<g transform="translate(0.000000,167.000000) scale(0.100000,-0.100000)"
fill="#000000" stroke="none">
<path d="M922 1109 c-13 7 -25 6 -43 -4 -13 -8 -38 -21 -54 -29 -17 -8 -62
-34 -101 -58 -38 -24 -92 -59 -119 -79 -28 -21 -84 -55 -125 -78 -53 -29 -87
-41 -116 -41 -24 0 -47 -6 -54 -15 -6 -8 -13 -29 -13 -47 -2 -33 -2 -33 63
-38 56 -4 77 -12 150 -56 47 -29 105 -62 130 -74 25 -12 79 -43 120 -68 41
-25 84 -54 96 -64 11 -10 31 -18 45 -18 14 0 30 5 37 12 7 7 12 21 12 33 0 12
-5 26 -12 33 -7 7 -22 12 -34 12 -11 0 -45 13 -75 28 -30 16 -90 48 -134 72
-44 24 -111 64 -149 89 -39 25 -70 51 -70 56 0 6 61 52 135 103 74 51 157 104
186 118 38 19 64 25 99 23 33 -2 50 1 56 11 6 9 6 25 -1 42 -5 15 -18 31 -29
37z"/>
</g>
</svg>
