<?xml version="1.0" standalone="no"?>
<!DOCTYPE svg PUBLIC "-//W3C//DTD SVG 20010904//EN"
 "http://www.w3.org/TR/2001/REC-SVG-20010904/DTD/svg10.dtd">
<svg version="1.0" xmlns="http://www.w3.org/2000/svg"
 width="152.000000pt" height="167.000000pt" viewBox="0 0 152.000000 167.000000"
 preserveAspectRatio="xMidYMid meet">
<metadata>
Created by potrace 1.16, written by Peter Selinger 2001-2019
</metadata>
<g transform="translate(0.000000,167.000000) scale(0.100000,-0.100000)"
fill="#000000" stroke="none">
<path d="M1038 835 c-2 11 -19 -1 -60 -43 -31 -33 -75 -69 -98 -80 -25 -12
-50 -18 -60 -14 -10 4 -35 29 -55 56 -21 26 -52 54 -71 62 -25 10 -45 11 -84
4 -28 -5 -65 -19 -81 -31 -16 -11 -40 -35 -54 -53 -14 -19 -25 -46 -25 -64 0
-17 5 -34 11 -38 6 -3 16 -1 22 5 6 6 16 25 21 43 6 17 27 44 46 59 19 15 52
31 73 35 37 6 40 5 106 -65 48 -50 75 -71 92 -71 13 0 43 9 66 19 23 11 62 38
86 60 25 23 50 55 57 70 6 16 10 37 8 46z"/>
</g>
</svg>
