<?xml version="1.0" standalone="no"?>
<!DOCTYPE svg PUBLIC "-//W3C//DTD SVG 20010904//EN"
 "http://www.w3.org/TR/2001/REC-SVG-20010904/DTD/svg10.dtd">
<svg version="1.0" xmlns="http://www.w3.org/2000/svg"
 width="166.000000pt" height="180.000000pt" viewBox="0 0 166.000000 180.000000"
 preserveAspectRatio="xMidYMid meet">
<metadata>
Created by potrace 1.16, written by Peter Selinger 2001-2019
</metadata>
<g transform="translate(0.000000,180.000000) scale(0.100000,-0.100000)"
fill="#000000" stroke="none">
<path d="M593 871 c-24 14 -33 15 -66 3 -20 -7 -71 -38 -111 -69 -41 -31 -88
-71 -105 -90 -16 -19 -35 -53 -42 -74 -9 -32 -9 -46 1 -71 7 -18 24 -36 38
-41 17 -6 29 -6 36 1 7 7 6 14 -2 22 -7 7 -12 24 -12 38 0 15 12 45 27 67 16
22 44 53 63 69 19 16 53 42 76 57 22 15 45 27 52 27 6 0 16 -9 22 -19 5 -11
10 -33 10 -50 0 -17 -9 -55 -21 -86 -12 -31 -32 -75 -45 -98 -13 -23 -24 -54
-24 -69 0 -18 7 -29 20 -33 10 -3 27 -2 37 3 10 6 38 48 62 95 34 68 56 97
104 138 34 28 72 55 86 60 16 7 28 5 38 -3 12 -10 14 -27 9 -83 -4 -38 -9 -91
-12 -116 -5 -42 -3 -48 26 -72 22 -19 43 -27 70 -27 22 0 45 7 55 16 11 11 13
20 7 26 -6 6 -25 13 -44 17 -32 7 -33 9 -32 51 1 25 5 80 9 122 8 78 8 78 -29
113 -24 22 -47 35 -64 35 -15 0 -46 -9 -70 -20 -24 -11 -55 -29 -69 -40 -14
-11 -30 -20 -34 -20 -5 0 -9 11 -9 25 0 15 -6 38 -14 53 -8 15 -27 34 -43 43z"/>
</g>
</svg>
