<?xml version="1.0" standalone="no"?>
<!DOCTYPE svg PUBLIC "-//W3C//DTD SVG 20010904//EN"
 "http://www.w3.org/TR/2001/REC-SVG-20010904/DTD/svg10.dtd">
<svg version="1.0" xmlns="http://www.w3.org/2000/svg"
 width="157.000000pt" height="171.000000pt" viewBox="0 0 157.000000 171.000000"
 preserveAspectRatio="xMidYMid meet">
<metadata>
Created by potrace 1.16, written by Peter Selinger 2001-2019
</metadata>
<g transform="translate(0.000000,171.000000) scale(0.100000,-0.100000)"
fill="#000000" stroke="none">
<path d="M444 1270 c-22 0 -24 -4 -24 -55 0 -30 9 -88 20 -129 11 -40 27 -111
35 -157 7 -46 25 -136 38 -199 14 -63 30 -127 35 -141 6 -15 23 -36 38 -48 15
-11 37 -21 50 -21 12 0 30 10 39 23 9 12 23 47 31 77 8 30 18 62 21 70 3 8 13
-10 23 -43 10 -32 24 -64 30 -72 7 -8 25 -15 40 -15 20 0 35 10 54 35 17 22
56 123 107 277 44 134 91 260 106 282 21 32 24 44 16 70 -6 21 -16 32 -32 34
-13 2 -28 -1 -33 -6 -5 -5 -49 -129 -98 -276 -49 -146 -95 -276 -101 -289 -12
-22 -12 -22 -20 5 -4 15 -10 74 -14 131 -4 58 -10 109 -14 114 -3 6 -16 15
-29 22 -18 10 -27 10 -38 0 -8 -6 -14 -22 -14 -34 0 -13 -16 -85 -36 -161 -19
-77 -39 -143 -44 -148 -5 -5 -13 1 -20 15 -5 13 -19 67 -30 119 -11 52 -32
163 -45 245 -13 83 -29 172 -35 199 -6 27 -15 56 -22 63 -6 7 -21 13 -34 13z"/>
</g>
</svg>
