<?xml version="1.0" standalone="no"?>
<!DOCTYPE svg PUBLIC "-//W3C//DTD SVG 20010904//EN"
 "http://www.w3.org/TR/2001/REC-SVG-20010904/DTD/svg10.dtd">
<svg version="1.0" xmlns="http://www.w3.org/2000/svg"
 width="153.000000pt" height="167.000000pt" viewBox="0 0 153.000000 167.000000"
 preserveAspectRatio="xMidYMid meet">
<metadata>
Created by potrace 1.16, written by Peter Selinger 2001-2019
</metadata>
<g transform="translate(0.000000,167.000000) scale(0.100000,-0.100000)"
fill="#000000" stroke="none">
<path d="M753 1118 c-13 2 -25 -4 -31 -15 -5 -10 -19 -67 -32 -128 -12 -60
-26 -118 -31 -127 -6 -10 -14 -18 -19 -18 -5 0 -14 -9 -20 -20 -8 -15 -6 -23
9 -37 17 -15 21 -34 23 -108 3 -89 3 -89 37 -112 24 -17 48 -23 85 -23 28 0
62 6 76 13 14 7 26 20 28 30 3 16 -3 17 -60 12 -48 -4 -68 -2 -82 9 -12 10
-21 32 -24 65 -2 27 -1 66 2 85 6 29 12 37 34 41 15 3 38 9 52 13 14 4 26 15
28 25 3 14 -4 17 -36 17 -27 0 -42 5 -46 15 -3 9 2 48 11 88 9 40 17 95 17
122 1 44 -2 50 -21 53z"/>
</g>
</svg>
