<?xml version="1.0" standalone="no"?>
<!DOCTYPE svg PUBLIC "-//W3C//DTD SVG 20010904//EN"
 "http://www.w3.org/TR/2001/REC-SVG-20010904/DTD/svg10.dtd">
<svg version="1.0" xmlns="http://www.w3.org/2000/svg"
 width="155.000000pt" height="172.000000pt" viewBox="0 0 155.000000 172.000000"
 preserveAspectRatio="xMidYMid meet">
<metadata>
Created by potrace 1.16, written by Peter Selinger 2001-2019
</metadata>
<g transform="translate(0.000000,172.000000) scale(0.100000,-0.100000)"
fill="#000000" stroke="none">
<path d="M600 1230 c-5 0 -16 -10 -24 -22 -8 -13 -19 -74 -25 -143 -6 -66 -16
-183 -22 -260 -6 -77 -13 -142 -15 -144 -2 -2 -11 2 -19 9 -13 11 -19 11 -32
-3 -14 -14 -15 -20 -4 -39 7 -13 36 -43 64 -67 29 -24 81 -57 117 -74 52 -25
77 -31 135 -31 60 -1 77 3 108 24 20 14 44 42 53 62 11 25 15 53 12 87 -3 27
-18 76 -34 108 -19 37 -45 70 -72 90 -31 24 -54 33 -81 33 -21 0 -53 -5 -72
-11 -19 -7 -44 -21 -56 -31 -12 -11 -26 -18 -31 -14 -5 3 -5 28 -1 58 4 29 12
87 18 128 5 41 12 105 15 142 5 53 3 69 -10 82 -8 9 -20 16 -24 16z m155 -436
c17 -4 42 -15 57 -25 14 -11 36 -39 47 -62 13 -27 21 -63 21 -94 0 -43 -4 -55
-25 -71 -14 -11 -40 -23 -60 -26 -21 -4 -56 0 -92 10 -32 9 -70 23 -86 31 -23
11 -26 17 -17 33 5 10 10 37 10 60 0 23 5 50 10 61 6 11 32 35 58 54 38 28 53
34 77 29z"/>
</g>
</svg>
