<?xml version="1.0" standalone="no"?>
<!DOCTYPE svg PUBLIC "-//W3C//DTD SVG 20010904//EN"
 "http://www.w3.org/TR/2001/REC-SVG-20010904/DTD/svg10.dtd">
<svg version="1.0" xmlns="http://www.w3.org/2000/svg"
 width="157.000000pt" height="172.000000pt" viewBox="0 0 157.000000 172.000000"
 preserveAspectRatio="xMidYMid meet">
<metadata>
Created by potrace 1.16, written by Peter Selinger 2001-2019
</metadata>
<g transform="translate(0.000000,172.000000) scale(0.100000,-0.100000)"
fill="#000000" stroke="none">
<path d="M705 944 c-16 2 -43 2 -58 -1 -16 -2 -55 -30 -93 -66 -36 -33 -75
-79 -86 -101 -15 -29 -21 -60 -21 -106 -1 -41 5 -76 15 -95 9 -16 30 -43 46
-59 19 -18 48 -32 77 -37 26 -5 59 -6 74 -2 14 3 44 15 66 25 22 11 54 34 71
50 32 30 32 30 80 -5 27 -19 69 -40 92 -47 24 -6 58 -8 75 -4 18 3 38 11 45
16 6 6 12 19 12 29 0 17 -8 19 -69 19 -62 0 -72 3 -100 29 -18 17 -31 39 -31
54 0 13 14 57 30 98 20 46 30 87 28 109 -3 30 -7 35 -31 38 -16 2 -35 -2 -43
-9 -9 -7 -24 -30 -35 -51 -11 -21 -22 -65 -26 -98 -5 -48 -13 -70 -39 -104
-21 -28 -50 -50 -83 -64 -27 -12 -65 -22 -83 -22 -18 0 -40 6 -49 13 -9 7 -26
28 -38 47 -11 19 -21 50 -21 69 0 19 12 59 28 89 17 36 43 67 72 88 25 19 54
34 66 34 11 0 30 -10 42 -23 12 -13 22 -27 22 -32 0 -5 -10 -19 -21 -31 -12
-13 -19 -30 -16 -38 4 -9 14 -16 24 -16 10 0 33 9 51 20 28 17 32 25 32 60 0
33 -7 48 -37 80 -24 25 -49 41 -68 44z"/>
</g>
</svg>
