<?xml version="1.0" standalone="no"?>
<!DOCTYPE svg PUBLIC "-//W3C//DTD SVG 20010904//EN"
 "http://www.w3.org/TR/2001/REC-SVG-20010904/DTD/svg10.dtd">
<svg version="1.0" xmlns="http://www.w3.org/2000/svg"
 width="155.000000pt" height="168.000000pt" viewBox="0 0 155.000000 168.000000"
 preserveAspectRatio="xMidYMid meet">
<metadata>
Created by potrace 1.16, written by Peter Selinger 2001-2019
</metadata>
<g transform="translate(0.000000,168.000000) scale(0.100000,-0.100000)"
fill="#000000" stroke="none">
<path d="M1163 1300 c-4 0 -13 -4 -19 -8 -6 -4 -22 -32 -36 -62 -14 -30 -60
-100 -102 -155 -42 -55 -109 -145 -147 -200 -39 -55 -96 -143 -126 -195 -31
-52 -69 -115 -85 -140 -16 -25 -58 -105 -94 -177 -35 -73 -66 -144 -70 -158
-5 -21 -3 -25 15 -25 11 0 27 10 35 22 8 13 26 55 41 93 14 39 40 99 57 135
16 36 66 126 110 200 45 74 104 169 131 210 28 41 88 120 132 175 45 55 91
117 104 138 12 20 26 37 31 37 4 0 22 14 39 32 17 17 31 38 31 45 0 7 -9 17
-19 23 -11 5 -23 10 -28 10z"/>
</g>
</svg>
