<?xml version="1.0" standalone="no"?>
<!DOCTYPE svg PUBLIC "-//W3C//DTD SVG 20010904//EN"
 "http://www.w3.org/TR/2001/REC-SVG-20010904/DTD/svg10.dtd">
<svg version="1.0" xmlns="http://www.w3.org/2000/svg"
 width="157.000000pt" height="169.000000pt" viewBox="0 0 157.000000 169.000000"
 preserveAspectRatio="xMidYMid meet">
<metadata>
Created by potrace 1.16, written by Peter Selinger 2001-2019
</metadata>
<g transform="translate(0.000000,169.000000) scale(0.100000,-0.100000)"
fill="#000000" stroke="none">
<path d="M1479 1690 c-24 0 -38 -4 -34 -10 3 -5 12 -10 20 -10 7 0 15 -7 17
-17 2 -10 13 -17 31 -17 23 -1 27 2 27 24 0 20 -2 22 -10 10 -5 -8 -10 -10
-11 -5 -1 6 -1 13 0 18 0 4 -17 7 -40 7z M938 1620 c-5 0 -8 -9 -8 -19 0 -11
-5 -21 -11 -23 -7 -2 -7 -13 1 -33 12 -30 12 -30 22 -5 9 23 11 24 17 6 4 -11
10 -15 14 -10 3 6 -2 27 -11 47 -9 20 -20 36 -24 37z M409 1489 c-10 13 -20
17 -24 11 -3 -5 -1 -10 4 -10 6 0 11 -8 11 -17 0 -9 10 -28 23 -41 21 -23 21
-24 2 -21 -11 1 -27 -1 -35 -4 -8 -3 -22 -8 -30 -10 -8 -3 4 -6 28 -6 39 -1
42 -3 37 -23 -3 -13 1 -31 9 -41 8 -10 30 -21 50 -24 22 -3 36 -2 36 5 0 5 -7
13 -16 16 -8 3 -13 10 -9 16 3 5 20 7 38 3 31 -6 32 -6 15 14 -10 11 -18 29
-18 41 0 11 -4 24 -10 27 -6 4 -10 -8 -10 -28 0 -31 -2 -34 -26 -29 -24 4 -25
3 -14 -17 11 -21 10 -22 -10 -11 -18 10 -21 18 -16 43 3 18 12 37 19 42 7 6
16 17 19 25 4 11 -2 15 -25 16 -18 1 -38 10 -48 23z M1300 1430 c-5 0 -10 -4
-10 -9 0 -5 7 -16 15 -25 8 -8 15 -22 15 -31 0 -8 8 -19 18 -22 9 -4 20 -11
24 -16 3 -6 5 2 5 16 -1 15 -6 27 -11 27 -4 0 -6 7 -2 15 3 10 -1 15 -13 15
-10 0 -21 7 -25 15 -3 8 -10 15 -16 15z M816 1340 c-3 0 -6 -5 -6 -11 0 -5 -4
-7 -10 -4 -5 3 -10 -3 -10 -14 0 -15 -6 -21 -21 -21 -15 0 -19 -5 -15 -15 4
-11 -2 -15 -24 -15 -16 0 -32 5 -36 12 -5 8 -11 2 -15 -17 -5 -15 -6 -32 -3
-37 3 -5 11 -4 18 2 7 5 27 7 45 4 24 -5 31 -3 31 10 0 9 7 16 15 16 8 0 17
12 21 28 3 15 8 35 11 45 2 9 2 17 -1 17z M521 1280 c-5 0 -14 -6 -20 -14 -10
-12 -6 -18 23 -31 21 -10 36 -25 36 -35 0 -9 9 -25 19 -34 12 -11 21 -14 25
-7 4 6 2 20 -4 31 -6 11 -15 20 -20 20 -5 0 -12 9 -15 20 -3 11 -13 20 -21 20
-8 0 -14 7 -14 15 0 8 -4 15 -9 15z M95 1230 c-7 0 -16 -8 -19 -17 -3 -10 -6
-22 -6 -28 0 -5 14 -8 30 -7 17 2 30 -1 30 -7 0 -6 -11 -11 -25 -11 -16 0 -25
-6 -25 -15 0 -8 9 -15 19 -15 11 0 32 5 46 10 20 8 25 15 20 29 -3 11 -1 22 5
26 5 3 10 13 10 21 0 8 -4 14 -10 14 -5 0 -10 -7 -10 -15 0 -10 -10 -15 -31
-15 -24 0 -30 4 -25 15 3 9 0 15 -9 15z M1030 1170 c-5 0 -10 -7 -10 -15 0 -9
-9 -15 -23 -15 -13 0 -32 -9 -41 -19 -11 -12 -14 -21 -7 -26 6 -3 11 0 11 8 0
8 6 17 14 20 8 3 31 -3 51 -14 21 -11 41 -17 45 -12 4 4 10 21 14 37 7 27 5
28 -19 22 -14 -4 -25 -2 -25 4 0 5 -4 10 -10 10z M384 1160 c-8 0 -14 -4 -14
-10 0 -5 5 -10 11 -10 5 0 7 -5 4 -10 -4 -6 7 -13 25 -16 28 -6 30 -9 24 -39
-3 -20 -1 -35 6 -40 6 -4 17 -1 25 5 8 7 15 16 15 21 0 5 -8 5 -17 2 -13 -5
-15 -2 -10 12 4 9 2 24 -4 32 -7 7 -9 16 -6 20 4 3 -5 12 -19 20 -15 7 -33 13
-40 13z M1531 1160 c-6 0 -12 -4 -15 -9 -4 -5 -2 -21 3 -34 8 -20 6 -29 -9
-42 -11 -10 -17 -22 -14 -26 3 -5 14 -14 25 -19 18 -10 19 -7 19 60 0 38 -4
70 -9 70z M510 1120 c-5 0 -12 -4 -15 -10 -3 -5 -2 -26 4 -45 7 -27 6 -35 -4
-35 -7 0 -18 -7 -25 -15 -7 -8 -21 -15 -31 -15 -11 0 -19 -4 -19 -9 0 -5 10
-15 22 -23 12 -8 18 -19 14 -26 -4 -7 -16 -12 -26 -12 -19 0 -18 -1 2 -37 22
-36 22 -36 -12 -30 -18 4 -31 4 -27 1 4 -4 1 -14 -6 -22 -10 -13 -8 -14 15 -9
17 5 30 3 34 -5 4 -6 2 -14 -4 -16 -7 -2 -12 -12 -12 -23 0 -10 6 -19 14 -19
7 0 18 6 23 13 5 6 9 29 8 50 -1 21 2 40 7 43 4 3 8 -2 8 -10 0 -9 11 -18 25
-22 24 -6 25 -8 11 -28 -7 -12 -17 -58 -20 -102 -4 -43 -14 -153 -23 -243 -8
-91 -13 -187 -10 -213 4 -28 2 -48 -3 -48 -6 0 -10 -4 -10 -8 0 -5 14 -9 30
-10 17 0 30 4 30 9 0 5 6 9 14 9 8 0 17 8 20 18 2 9 8 67 11 127 4 61 11 125
17 143 7 25 13 30 22 23 7 -6 16 -8 19 -4 4 3 7 2 7 -4 0 -6 9 -9 19 -6 12 3
28 -4 41 -17 21 -21 23 -21 39 -6 15 16 15 17 -3 10 -18 -7 -17 -5 2 14 12 12
29 22 37 22 8 0 12 6 9 14 -3 8 3 20 14 27 10 8 23 23 29 34 6 11 13 35 17 54
4 24 1 42 -14 66 -11 17 -16 36 -12 40 4 5 2 5 -5 1 -7 -3 -40 -2 -75 3 -51 9
-66 8 -86 -5 -13 -9 -30 -13 -38 -10 -8 3 -14 14 -14 24 0 11 -6 25 -14 31 -8
7 -13 24 -12 39 2 15 10 28 20 30 12 3 14 -1 9 -15 -4 -10 -11 -22 -17 -26 -8
-6 -7 -10 3 -14 7 -3 22 -14 32 -24 11 -11 23 -19 28 -19 5 0 11 7 15 15 3 8
1 15 -4 15 -6 0 -9 10 -9 23 1 18 2 19 6 4 3 -13 11 -17 23 -14 11 3 20 1 22
-4 2 -5 17 -10 33 -12 26 -3 31 0 33 20 1 12 -3 23 -8 23 -6 0 -10 -7 -10 -15
0 -8 -6 -15 -14 -15 -8 0 -17 4 -21 9 -3 5 -1 12 5 16 5 3 10 15 10 26 0 10 6
19 14 19 10 0 13 19 13 78 0 42 -3 84 -8 92 -7 12 -8 11 -9 -4 0 -19 -1 -19
-20 2 -12 12 -31 22 -43 22 -21 -1 -20 -2 6 -18 15 -9 27 -22 27 -28 0 -8 -9
-10 -25 -6 -13 4 -24 10 -22 13 1 3 -4 14 -12 23 -9 10 -18 13 -23 8 -6 -6
-18 -7 -29 -5 -10 3 -19 9 -19 14 0 5 -7 9 -15 9 -9 0 -18 7 -21 15 -4 8 -10
15 -14 15z m159 -110 c3 0 11 -8 18 -19 6 -10 9 -28 6 -40 -4 -15 -1 -21 11
-21 9 0 16 -7 16 -15 0 -8 -6 -12 -14 -9 -10 4 -16 -3 -18 -21 -2 -14 -7 -24
-13 -23 -5 1 -9 8 -7 15 2 7 -4 13 -12 13 -8 0 -23 12 -34 27 -17 23 -22 25
-35 14 -9 -7 -21 -10 -27 -6 -7 4 -14 -2 -17 -14 -3 -12 -9 -21 -14 -21 -5 0
-9 13 -9 29 0 16 7 34 15 41 8 7 15 9 15 4 0 -5 5 -2 11 6 8 11 12 12 16 3 2
-7 13 -13 23 -13 10 0 21 7 24 16 3 8 10 12 16 9 6 -3 13 1 16 9 3 9 9 16 13
16z m21 -337 c3 -3 -4 -11 -14 -19 -11 -7 -17 -16 -14 -20 4 -3 16 4 27 15 12
12 26 21 31 21 6 0 10 -6 10 -13 0 -8 -9 -22 -21 -33 -13 -11 -37 -19 -60 -20
-21 0 -39 2 -39 5 0 4 7 17 16 29 9 13 26 27 38 32 11 4 23 6 26 3z M195 1095
c-6 3 -20 -1 -30 -9 -16 -12 -17 -17 -8 -27 10 -10 15 -10 27 0 8 7 20 10 26
6 8 -5 6 -11 -5 -19 -10 -7 -15 -22 -13 -36 2 -16 10 -24 26 -25 12 -1 22 4
22 11 0 7 8 18 18 23 15 9 15 10 1 11 -9 0 -20 -8 -23 -17 -5 -12 -10 -13 -18
-5 -9 9 -7 16 5 30 9 10 17 23 17 29 0 6 -8 13 -17 17 -10 3 -23 8 -28 11z
M372 1040 c-4 0 -15 -9 -24 -19 -10 -12 -24 -18 -37 -14 -14 4 -23 -1 -28 -13
-3 -11 -11 -22 -17 -26 -6 -4 -5 -12 3 -21 10 -13 15 -13 41 0 17 8 30 17 30
20 0 3 -12 3 -27 0 -25 -5 -26 -4 -9 8 10 8 25 11 33 8 9 -4 22 2 29 12 8 10
14 25 14 32 0 7 -3 13 -8 13z M40 925 c-6 4 -10 -9 -10 -32 0 -22 5 -44 12
-51 7 -7 15 -12 20 -12 4 0 5 7 2 15 -4 9 1 18 11 21 9 4 21 2 28 -5 6 -6 21
-11 34 -11 14 0 23 -6 23 -15 0 -8 3 -15 8 -15 4 0 13 4 21 9 7 5 10 14 7 20
-4 6 -12 8 -18 5 -6 -4 -14 -1 -18 6 -4 7 -31 15 -59 18 -41 4 -51 8 -51 23 0
10 -4 21 -10 24z M1509 829 c-8 -1 -26 -8 -41 -16 -16 -8 -28 -18 -28 -23 0
-5 -8 -11 -17 -13 -15 -4 -15 -6 5 -12 12 -4 22 -10 22 -14 0 -4 -6 -13 -12
-21 -7 -7 1 -4 17 7 17 11 36 18 43 16 7 -3 20 -2 30 2 15 6 16 7 1 15 -11 6
-15 18 -11 35 3 17 0 25 -9 24z M325 804 c-18 5 -20 2 -19 -28 1 -19 5 -39 9
-45 3 -6 13 -11 21 -11 11 0 12 4 4 20 -8 16 -6 21 11 31 18 9 19 13 8 19 -8
4 -23 10 -34 14z M935 790 c-2 0 -7 -4 -10 -10 -3 -5 -3 -14 0 -20 3 -6 -5
-10 -19 -10 -13 0 -26 6 -29 13 -2 6 -4 -3 -5 -21 -1 -27 3 -32 15 -28 9 4 21
-1 28 -10 6 -10 17 -14 23 -10 7 4 12 14 12 22 0 8 -7 14 -17 14 -14 0 -14 2
2 20 10 11 22 17 26 14 5 -3 9 -1 9 4 0 6 -7 13 -16 16 -9 3 -17 6 -19 6z
M235 770 c-24 0 -35 -5 -35 -15 0 -8 -9 -15 -20 -15 -11 0 -20 -4 -20 -9 0 -6
5 -13 12 -17 6 -4 14 -2 16 4 2 7 8 12 13 12 5 0 9 -11 9 -24 0 -14 7 -26 18
-30 9 -3 25 -11 34 -18 9 -7 20 -9 25 -5 4 5 3 16 -3 25 -6 9 -22 19 -35 22
-21 5 -22 7 -6 13 10 4 28 7 40 8 20 0 20 1 4 8 -10 4 -18 10 -18 14 1 4 1 12
1 17 0 6 -16 10 -35 10z M1501 684 c-7 5 -11 -3 -11 -19 0 -20 -4 -26 -15 -21
-11 4 -15 -2 -15 -27 0 -18 5 -38 11 -44 8 -8 8 -13 0 -17 -6 -4 -11 -15 -11
-24 0 -12 3 -13 12 -4 7 7 20 12 29 12 11 0 20 -11 25 -32 8 -33 8 -33 14 9 3
23 4 57 2 76 -3 24 -10 37 -22 40 -13 3 -17 11 -13 25 2 11 0 23 -6 26z M1220
657 c-14 1 -19 0 -12 -3 6 -3 12 -12 12 -20 0 -8 -5 -14 -11 -14 -5 0 -7 -4
-4 -10 3 -5 17 -10 31 -10 13 0 24 -4 24 -10 0 -5 -3 -10 -8 -10 -4 0 -6 -18
-4 -40 2 -22 8 -40 12 -40 4 0 13 20 19 46 6 25 9 49 6 55 -4 5 3 9 14 9 12 0
21 6 21 14 0 7 -11 16 -24 18 -17 4 -23 1 -19 -9 3 -7 0 -13 -6 -13 -6 0 -14
1 -18 3 -5 1 -8 9 -8 17 0 9 -10 16 -25 17z M270 640 c-16 0 -30 -4 -30 -9 0
-4 -11 -6 -24 -4 -13 3 -27 0 -31 -7 -5 -9 4 -11 36 -8 42 3 44 2 44 -23 -1
-23 2 -25 17 -15 10 6 18 23 18 38 0 24 -4 28 -30 28z M67 580 c-10 0 -20 -7
-24 -16 -3 -9 -6 -32 -7 -52 -1 -33 2 -37 22 -34 12 2 22 -2 22 -7 0 -6 9 -11
20 -11 11 0 20 4 20 9 0 5 -16 12 -35 15 -19 4 -35 11 -35 16 0 6 5 10 11 10
7 0 9 10 5 27 -5 17 -3 29 6 34 10 7 8 9 -5 9z M231 570 c-6 0 -15 -9 -21 -20
-6 -11 -17 -20 -25 -20 -8 0 -15 -9 -15 -19 0 -11 -5 -21 -11 -23 -7 -2 -13
-17 -15 -33 -2 -15 -9 -32 -16 -36 -7 -5 -9 -9 -4 -9 5 0 3 -6 -3 -14 -8 -10
-9 -16 -1 -21 5 -3 19 -3 30 0 11 4 20 2 20 -4 0 -6 4 -11 10 -11 5 0 7 6 4
13 -3 8 2 20 10 27 9 7 25 10 35 7 12 -3 22 1 25 10 3 8 6 23 6 34 0 10 -4 19
-10 19 -5 0 -13 0 -17 0 -5 0 -8 -6 -8 -12 0 -7 -9 -13 -20 -14 -11 -1 -24 -2
-30 -3 -5 -1 -3 -6 5 -11 13 -9 13 -11 0 -20 -8 -5 -19 -10 -24 -10 -4 0 -5 7
-2 16 3 9 6 24 6 34 0 13 5 17 21 13 17 -5 19 -2 13 21 -4 19 -2 26 9 26 8 0
17 8 21 18 3 9 9 23 12 30 3 6 1 12 -5 12z M1230 499 c-8 -1 -23 -3 -32 -6
-16 -4 -16 -6 -4 -19 8 -8 25 -14 38 -14 21 -1 22 -2 6 -14 -10 -7 -18 -19
-18 -25 0 -9 9 -11 30 -6 22 5 30 3 28 -5 -2 -7 3 -15 10 -17 8 -3 12 8 12 36
0 32 -4 41 -17 43 -10 1 -25 2 -33 4 -8 1 -19 2 -25 3 -5 1 -3 6 5 11 13 9 13
10 0 9z M1478 499 c-18 0 -27 -3 -21 -6 8 -3 11 -14 7 -28 -5 -20 -3 -23 15
-18 12 3 21 1 21 -5 0 -6 -4 -14 -10 -17 -5 -3 -10 -14 -10 -25 0 -10 7 -21
16 -24 8 -3 12 -11 9 -17 -4 -6 -13 -8 -20 -5 -7 2 -27 -4 -44 -15 -17 -10
-36 -19 -41 -19 -6 0 -19 -9 -30 -20 -20 -20 -20 -20 30 -20 36 0 52 4 56 15
4 8 13 15 21 15 9 0 21 -7 28 -17 7 -9 17 -13 23 -9 7 4 12 22 11 39 0 27 -2
29 -9 12 -7 -16 -9 -13 -9 18 -1 20 4 37 9 37 6 0 10 13 10 29 0 16 -6 31 -15
35 -8 3 -15 15 -15 26 0 16 -6 20 -32 19z M1324 440 c-8 0 -14 -4 -14 -9 0 -6
4 -12 9 -15 5 -3 9 -17 10 -31 1 -14 2 -32 3 -40 1 -8 6 -11 12 -7 6 4 13 7
16 7 3 0 16 8 29 17 14 10 21 21 17 25 -4 4 -11 1 -16 -6 -4 -8 -15 -11 -24
-8 -9 4 -13 13 -10 22 4 8 1 22 -6 30 -7 8 -19 15 -26 15z M1064 330 c-8 0
-14 -4 -14 -8 0 -5 6 -17 14 -27 8 -11 12 -24 9 -31 -2 -6 3 -14 11 -17 8 -3
20 1 26 9 7 8 19 14 26 14 8 0 11 -6 8 -15 -4 -8 -1 -15 5 -15 6 0 11 -7 11
-15 0 -8 -9 -15 -20 -15 -11 0 -20 5 -20 10 0 6 -7 10 -15 10 -8 0 -15 -4 -15
-10 0 -5 -7 -10 -15 -10 -8 0 -15 -7 -15 -15 0 -8 5 -15 11 -15 6 0 19 5 31
11 17 9 19 8 14 -9 -4 -11 -2 -23 3 -26 5 -4 12 -2 16 4 3 5 1 10 -5 10 -6 0
-8 5 -4 11 3 6 16 8 28 5 15 -4 26 1 34 15 11 17 11 24 0 37 -7 9 -26 29 -41
44 -16 15 -35 24 -43 21 -8 -3 -17 2 -20 11 -3 9 -12 16 -20 16z M282 280 c-4
0 -19 -11 -34 -25 -15 -14 -34 -25 -43 -25 -8 0 -15 -4 -15 -10 0 -5 9 -10 19
-10 11 0 25 -2 33 -5 7 -3 18 -1 24 3 6 4 14 22 17 40 4 17 3 32 -1 32z M361
224 c-4 3 -16 -3 -26 -14 -9 -10 -22 -17 -29 -14 -6 2 -20 -2 -30 -9 -11 -8
-16 -19 -12 -25 4 -7 30 -12 59 -12 52 1 52 1 22 15 -19 8 -24 14 -13 14 10 1
22 10 28 20 5 11 6 22 1 25z M815 210 c-16 0 -25 -6 -25 -15 0 -9 -9 -15 -24
-15 -14 0 -28 -5 -32 -11 -4 -7 1 -16 10 -21 9 -5 16 -18 16 -28 0 -10 4 -21
9 -24 5 -3 14 0 20 8 9 10 8 15 -3 19 -9 4 -12 14 -9 26 3 12 9 21 14 21 5 0
9 7 9 15 0 8 4 15 8 15 5 0 12 -3 15 -7 4 -3 2 -12 -4 -19 -6 -8 -9 -21 -5
-29 3 -8 9 -15 13 -15 4 0 9 18 10 40 2 37 0 40 -22 40z M1192 180 c-5 0 -12
-3 -15 -7 -4 -3 -7 -15 -7 -25 0 -11 -7 -18 -20 -18 -11 0 -29 -9 -40 -20 -18
-18 -18 -20 -2 -29 14 -8 15 -13 4 -30 -11 -19 -10 -21 12 -21 14 0 28 5 32
12 4 6 -2 19 -14 29 -12 9 -22 22 -22 28 0 6 9 11 19 11 11 0 23 -4 26 -10 3
-5 10 -10 15 -10 5 0 12 15 16 33 4 17 9 26 11 20 3 -7 16 -13 29 -13 13 0 24
-5 24 -11 0 -5 5 -7 10 -4 6 3 10 18 10 32 0 22 -3 24 -26 19 -17 -5 -23 -3
-19 4 3 5 0 10 -7 10 -8 0 -20 -6 -27 -12 -11 -10 -13 -10 -7 0 4 6 3 12 -2
12z M189 150 c-5 0 -10 -3 -10 -7 -1 -5 -1 -12 0 -17 1 -5 -5 -6 -13 -3 -9 4
-16 -3 -19 -20 -3 -16 1 -32 9 -40 8 -8 14 -17 14 -19 0 -3 -4 -3 -9 0 -5 3
-11 -5 -13 -19 -4 -17 -1 -25 9 -25 8 0 11 5 8 10 -3 6 3 10 14 10 12 0 21 2
21 4 0 3 -4 16 -10 30 -7 18 -5 33 5 52 8 15 12 31 9 36 -3 4 -9 8 -15 8z
M711 115 c-6 3 -14 -2 -20 -12 -5 -10 -9 -22 -9 -28 1 -5 9 -16 20 -23 10 -7
15 -18 12 -24 -4 -6 -2 -8 4 -4 6 3 14 1 18 -5 5 -8 8 -8 14 1 4 7 17 9 33 4
15 -3 27 -10 27 -15 0 -5 9 -9 20 -9 11 0 20 4 20 8 0 5 -16 16 -35 25 -19 9
-41 14 -50 11 -9 -4 -15 0 -15 10 0 8 -9 20 -20 26 -11 6 -18 15 -15 20 3 5 1
11 -4 15z M1295 120 c-9 0 -15 -9 -15 -21 0 -17 -3 -19 -13 -10 -11 8 -18 6
-31 -8 -17 -18 -16 -19 11 -20 15 0 37 -1 47 -1 10 -1 24 4 30 11 8 8 8 13 -1
16 -7 3 -13 11 -13 19 0 8 -7 14 -15 14z"/>
</g>
</svg>
