<?xml version="1.0" standalone="no"?>
<!DOCTYPE svg PUBLIC "-//W3C//DTD SVG 20010904//EN"
 "http://www.w3.org/TR/2001/REC-SVG-20010904/DTD/svg10.dtd">
<svg version="1.0" xmlns="http://www.w3.org/2000/svg"
 width="156.000000pt" height="170.000000pt" viewBox="0 0 156.000000 170.000000"
 preserveAspectRatio="xMidYMid meet">
<metadata>
Created by potrace 1.16, written by Peter Selinger 2001-2019
</metadata>
<g transform="translate(0.000000,170.000000) scale(0.100000,-0.100000)"
fill="#000000" stroke="none">
<path d="M792 1336 c-37 2 -78 0 -92 -5 -14 -4 -39 -15 -55 -24 -17 -8 -42
-28 -57 -44 -15 -15 -35 -48 -44 -73 -9 -25 -18 -83 -21 -130 -4 -58 0 -109
11 -160 8 -41 31 -131 49 -200 18 -69 39 -136 47 -150 7 -14 18 -28 24 -32 6
-4 14 -8 18 -8 4 0 12 8 17 18 7 13 5 42 -5 91 -12 57 -13 96 -6 182 5 60 12
112 15 116 4 3 34 10 67 15 33 4 88 19 122 34 35 14 74 36 86 47 13 12 30 34
38 49 11 22 12 41 5 89 -7 39 -20 74 -36 95 -14 18 -46 46 -71 60 -34 20 -62
28 -112 30z m-26 -57 c17 1 51 -6 75 -14 24 -9 52 -23 62 -33 11 -9 29 -36 39
-60 19 -42 19 -44 1 -80 -14 -28 -34 -45 -83 -70 -36 -18 -88 -35 -116 -38
-51 -6 -51 -6 -48 137 2 129 4 144 20 150 11 4 33 8 50 8z m-144 -189 c4 -52
5 -103 2 -112 -3 -10 -11 -18 -19 -18 -7 0 -16 7 -19 16 -3 9 -6 35 -6 58 0
23 8 67 17 97 17 54 17 54 25 -41z"/>
</g>
</svg>
