<?xml version="1.0" standalone="no"?>
<!DOCTYPE svg PUBLIC "-//W3C//DTD SVG 20010904//EN"
 "http://www.w3.org/TR/2001/REC-SVG-20010904/DTD/svg10.dtd">
<svg version="1.0" xmlns="http://www.w3.org/2000/svg"
 width="152.000000pt" height="167.000000pt" viewBox="0 0 152.000000 167.000000"
 preserveAspectRatio="xMidYMid meet">
<metadata>
Created by potrace 1.16, written by Peter Selinger 2001-2019
</metadata>
<g transform="translate(0.000000,167.000000) scale(0.100000,-0.100000)"
fill="#000000" stroke="none">
<path d="M559 890 c-14 0 -19 -7 -19 -29 0 -17 6 -58 14 -93 8 -35 17 -80 20
-100 7 -36 4 -41 -59 -108 -36 -38 -65 -78 -65 -90 0 -11 3 -20 6 -20 4 0 33
29 66 65 37 41 68 65 81 65 11 0 32 -11 46 -24 15 -13 48 -31 74 -40 26 -9 69
-15 95 -15 26 1 60 4 76 8 16 3 31 11 33 17 3 8 -26 10 -94 6 -96 -4 -99 -3
-135 24 -21 16 -37 38 -37 49 -1 11 3 25 7 31 4 6 34 30 67 54 33 25 93 71
133 103 39 32 72 62 72 68 0 5 -6 9 -13 9 -8 0 -22 -10 -33 -21 -10 -12 -44
-40 -74 -63 -30 -22 -80 -58 -110 -78 -30 -21 -63 -38 -72 -38 -9 0 -19 8 -22
18 -3 9 -10 46 -16 82 -6 36 -13 77 -16 93 -4 18 -12 27 -25 27z"/>
</g>
</svg>
