<?xml version="1.0" standalone="no"?>
<!DOCTYPE svg PUBLIC "-//W3C//DTD SVG 20010904//EN"
 "http://www.w3.org/TR/2001/REC-SVG-20010904/DTD/svg10.dtd">
<svg version="1.0" xmlns="http://www.w3.org/2000/svg"
 width="155.000000pt" height="168.000000pt" viewBox="0 0 155.000000 168.000000"
 preserveAspectRatio="xMidYMid meet">
<metadata>
Created by potrace 1.16, written by Peter Selinger 2001-2019
</metadata>
<g transform="translate(0.000000,168.000000) scale(0.100000,-0.100000)"
fill="#000000" stroke="none">
<path d="M792 1270 c-5 0 -16 -8 -24 -17 -8 -10 -22 -67 -31 -128 -10 -60 -17
-153 -17 -206 0 -82 3 -100 21 -123 11 -14 30 -26 41 -26 18 0 19 4 14 43 -4
23 -9 66 -12 96 -4 29 2 116 11 192 10 76 15 145 11 154 -3 8 -9 15 -14 15z
M744 510 c-23 0 -37 -6 -44 -19 -5 -11 -10 -31 -10 -46 0 -19 7 -28 27 -36 22
-8 32 -6 52 9 15 10 27 29 29 41 2 12 -2 29 -8 37 -7 7 -27 14 -46 14z"/>
</g>
</svg>
