<?xml version="1.0" standalone="no"?>
<!DOCTYPE svg PUBLIC "-//W3C//DTD SVG 20010904//EN"
 "http://www.w3.org/TR/2001/REC-SVG-20010904/DTD/svg10.dtd">
<svg version="1.0" xmlns="http://www.w3.org/2000/svg"
 width="154.000000pt" height="167.000000pt" viewBox="0 0 154.000000 167.000000"
 preserveAspectRatio="xMidYMid meet">
<metadata>
Created by potrace 1.16, written by Peter Selinger 2001-2019
</metadata>
<g transform="translate(0.000000,167.000000) scale(0.100000,-0.100000)"
fill="#000000" stroke="none">
<path d="M1158 1300 c-8 0 -22 -8 -30 -17 -9 -10 -24 -39 -35 -64 -11 -25 -70
-111 -131 -192 -61 -81 -136 -184 -165 -229 -30 -46 -87 -139 -128 -208 -41
-69 -100 -179 -132 -245 -33 -66 -61 -135 -64 -152 -5 -28 -3 -33 15 -33 11 0
30 12 41 26 11 14 34 62 51 107 17 45 40 102 51 127 11 25 69 125 127 224 59
98 144 226 189 285 45 58 102 132 125 164 24 32 64 79 91 104 26 25 47 51 47
58 0 7 -8 19 -18 28 -10 10 -25 17 -34 17z"/>
</g>
</svg>
