<?xml version="1.0" standalone="no"?>
<!DOCTYPE svg PUBLIC "-//W3C//DTD SVG 20010904//EN"
 "http://www.w3.org/TR/2001/REC-SVG-20010904/DTD/svg10.dtd">
<svg version="1.0" xmlns="http://www.w3.org/2000/svg"
 width="165.000000pt" height="179.000000pt" viewBox="0 0 165.000000 179.000000"
 preserveAspectRatio="xMidYMid meet">
<metadata>
Created by potrace 1.16, written by Peter Selinger 2001-2019
</metadata>
<g transform="translate(0.000000,179.000000) scale(0.100000,-0.100000)"
fill="#000000" stroke="none">
<path d="M572 1025 c-30 6 -33 4 -47 -29 -13 -30 -22 -37 -72 -52 -32 -9 -64
-18 -71 -20 -7 -2 -15 -11 -19 -20 -3 -9 -2 -23 3 -31 5 -9 32 -24 59 -34 28
-10 57 -19 66 -19 8 0 26 -11 39 -25 13 -14 33 -25 44 -25 12 0 28 4 36 10 8
5 14 23 15 41 0 32 0 32 60 36 33 2 103 11 155 20 52 9 138 19 190 22 92 6 95
7 98 31 2 14 -3 33 -11 44 -13 18 -16 18 -63 3 -27 -9 -110 -25 -184 -36 -74
-11 -157 -22 -185 -25 -28 -3 -57 -1 -65 5 -13 8 -12 12 8 26 12 8 22 21 22
28 0 7 -10 19 -23 28 -12 8 -37 18 -55 22z"/>
</g>
</svg>
