<?xml version="1.0" standalone="no"?>
<!DOCTYPE svg PUBLIC "-//W3C//DTD SVG 20010904//EN"
 "http://www.w3.org/TR/2001/REC-SVG-20010904/DTD/svg10.dtd">
<svg version="1.0" xmlns="http://www.w3.org/2000/svg"
 width="157.000000pt" height="171.000000pt" viewBox="0 0 157.000000 171.000000"
 preserveAspectRatio="xMidYMid meet">
<metadata>
Created by potrace 1.16, written by Peter Selinger 2001-2019
</metadata>
<g transform="translate(0.000000,171.000000) scale(0.100000,-0.100000)"
fill="#000000" stroke="none">
<path d="M550 1307 c-8 2 -20 0 -26 -5 -6 -4 -21 -29 -33 -57 -12 -27 -31 -90
-41 -140 -10 -49 -22 -130 -25 -180 -5 -69 -3 -105 10 -155 9 -36 28 -80 42
-99 14 -18 44 -42 67 -52 22 -10 61 -19 86 -19 25 0 64 9 88 20 24 11 69 44
101 75 32 30 60 55 64 55 3 0 8 -13 12 -29 3 -15 26 -56 50 -89 24 -33 49 -63
55 -67 6 -4 22 -4 36 -1 13 4 24 13 24 21 0 8 -11 22 -24 31 -14 8 -34 31 -45
50 -11 19 -28 61 -36 94 -13 49 -14 75 -5 138 5 42 23 138 39 212 29 131 29
136 11 154 -10 11 -25 16 -34 13 -9 -4 -27 -32 -41 -62 -13 -31 -29 -93 -35
-138 -5 -45 -10 -106 -10 -137 0 -40 -7 -69 -26 -105 -15 -28 -40 -65 -58 -84
-17 -18 -51 -47 -75 -62 -33 -21 -57 -29 -92 -29 -42 0 -50 4 -87 44 -31 33
-43 57 -52 102 -7 35 -10 84 -6 124 4 37 18 111 31 166 14 54 35 112 46 128
17 23 20 35 13 55 -5 14 -16 27 -24 28z"/>
</g>
</svg>
