<?xml version="1.0" standalone="no"?>
<!DOCTYPE svg PUBLIC "-//W3C//DTD SVG 20010904//EN"
 "http://www.w3.org/TR/2001/REC-SVG-20010904/DTD/svg10.dtd">
<svg version="1.0" xmlns="http://www.w3.org/2000/svg"
 width="153.000000pt" height="167.000000pt" viewBox="0 0 153.000000 167.000000"
 preserveAspectRatio="xMidYMid meet">
<metadata>
Created by potrace 1.16, written by Peter Selinger 2001-2019
</metadata>
<g transform="translate(0.000000,167.000000) scale(0.100000,-0.100000)"
fill="#000000" stroke="none">
<path d="M754 1190 c-7 0 -15 -4 -19 -10 -3 -5 -3 -39 1 -75 5 -47 4 -65 -5
-65 -7 0 -38 17 -69 39 -31 21 -67 41 -80 45 -14 5 -29 3 -37 -4 -8 -7 -15
-16 -15 -20 0 -4 36 -31 80 -59 53 -35 80 -59 80 -71 0 -12 -11 -22 -32 -29
-18 -5 -62 -13 -96 -17 -43 -5 -66 -12 -69 -22 -4 -8 -2 -22 4 -31 6 -9 21
-17 34 -18 13 0 27 -1 32 -2 4 -1 1 -12 -8 -25 -8 -13 -13 -31 -9 -40 3 -9 14
-16 24 -16 10 0 44 27 76 60 37 39 65 60 80 60 18 0 24 -7 30 -35 3 -19 3 -50
0 -69 -5 -23 -2 -37 9 -46 8 -7 22 -10 30 -6 12 4 15 23 15 86 0 65 3 80 15
80 9 0 46 -17 83 -38 37 -21 75 -41 84 -44 9 -4 22 -1 28 7 6 8 10 24 8 37 -2
15 -16 29 -43 42 -36 17 -38 20 -20 27 11 5 33 13 48 19 16 6 27 16 24 23 -2
8 -22 11 -53 10 -27 0 -73 -4 -101 -8 -45 -6 -54 -5 -59 10 -5 12 12 35 61 85
42 43 66 74 63 85 -1 10 -11 23 -21 29 -15 9 -25 3 -65 -43 -27 -30 -51 -51
-54 -45 -3 5 -8 22 -12 39 -4 16 -12 36 -18 42 -6 7 -16 13 -24 13z"/>
</g>
</svg>
