<?xml version="1.0" standalone="no"?>
<!DOCTYPE svg PUBLIC "-//W3C//DTD SVG 20010904//EN"
 "http://www.w3.org/TR/2001/REC-SVG-20010904/DTD/svg10.dtd">
<svg version="1.0" xmlns="http://www.w3.org/2000/svg"
 width="165.000000pt" height="178.000000pt" viewBox="0 0 165.000000 178.000000"
 preserveAspectRatio="xMidYMid meet">
<metadata>
Created by potrace 1.16, written by Peter Selinger 2001-2019
</metadata>
<g transform="translate(0.000000,178.000000) scale(0.100000,-0.100000)"
fill="#000000" stroke="none">
<path d="M934 726 c-33 3 -58 -1 -76 -11 -15 -8 -32 -24 -38 -35 -5 -10 -10
-32 -10 -49 0 -16 7 -37 16 -45 8 -9 24 -16 35 -16 10 0 19 -4 19 -10 0 -5
-11 -39 -24 -75 -13 -37 -33 -76 -44 -88 -10 -12 -22 -32 -25 -45 -3 -15 0
-25 8 -29 8 -2 30 0 48 6 28 10 38 20 52 59 10 26 28 70 41 97 12 28 34 76 48
109 15 32 26 69 26 81 0 12 -6 28 -14 34 -8 6 -36 14 -62 17z"/>
</g>
</svg>
