<?xml version="1.0" standalone="no"?>
<!DOCTYPE svg PUBLIC "-//W3C//DTD SVG 20010904//EN"
 "http://www.w3.org/TR/2001/REC-SVG-20010904/DTD/svg10.dtd">
<svg version="1.0" xmlns="http://www.w3.org/2000/svg"
 width="153.000000pt" height="168.000000pt" viewBox="0 0 153.000000 168.000000"
 preserveAspectRatio="xMidYMid meet">
<metadata>
Created by potrace 1.16, written by Peter Selinger 2001-2019
</metadata>
<g transform="translate(0.000000,168.000000) scale(0.100000,-0.100000)"
fill="#000000" stroke="none">
<path d="M793 1328 c-13 2 -26 -4 -32 -16 -6 -12 -6 -33 0 -62 5 -24 8 -49 5
-56 -3 -8 -10 -78 -16 -156 -5 -79 -17 -244 -25 -368 -8 -124 -15 -298 -15
-387 0 -120 3 -162 13 -166 6 -2 20 0 30 5 15 8 17 27 17 181 0 95 4 246 10
337 6 91 14 242 19 336 8 141 13 181 31 222 22 50 22 52 4 89 -12 24 -27 39
-41 41z"/>
</g>
</svg>
