<?xml version="1.0" standalone="no"?>
<!DOCTYPE svg PUBLIC "-//W3C//DTD SVG 20010904//EN"
 "http://www.w3.org/TR/2001/REC-SVG-20010904/DTD/svg10.dtd">
<svg version="1.0" xmlns="http://www.w3.org/2000/svg"
 width="158.000000pt" height="172.000000pt" viewBox="0 0 158.000000 172.000000"
 preserveAspectRatio="xMidYMid meet">
<metadata>
Created by potrace 1.16, written by Peter Selinger 2001-2019
</metadata>
<g transform="translate(0.000000,172.000000) scale(0.100000,-0.100000)"
fill="#000000" stroke="none">
<path d="M715 1177 c-60 3 -78 0 -125 -22 -30 -14 -72 -43 -92 -63 -32 -31
-38 -42 -38 -79 0 -24 11 -75 24 -113 14 -39 28 -91 31 -117 3 -27 8 -58 11
-71 3 -17 -2 -25 -21 -32 -25 -9 -25 -11 -10 -40 8 -16 21 -56 28 -87 12 -53
16 -58 46 -64 18 -4 49 -20 69 -36 20 -16 47 -35 59 -41 12 -7 45 -12 73 -12
49 0 54 3 104 53 35 35 58 69 69 101 9 27 17 70 17 95 0 28 -8 59 -20 78 -10
18 -36 43 -57 55 -21 13 -51 30 -67 38 -16 8 -31 21 -33 27 -3 7 16 34 42 60
26 27 51 58 56 71 5 13 9 39 9 59 0 20 -9 51 -21 70 -11 18 -35 41 -52 50 -18
9 -63 18 -102 20z m-2 -47 c29 0 61 -7 78 -17 16 -10 34 -32 39 -49 6 -18 8
-44 4 -59 -3 -14 -33 -52 -65 -83 -33 -31 -59 -64 -59 -73 0 -9 7 -23 16 -30
9 -8 43 -28 77 -44 33 -17 70 -43 81 -58 15 -21 21 -43 21 -81 -1 -38 -8 -65
-28 -98 -15 -25 -41 -58 -58 -72 -19 -16 -43 -26 -63 -26 -20 0 -48 11 -72 29
-22 15 -52 43 -68 61 l-28 33 4 246 c2 135 -1 254 -6 264 -7 14 0 21 35 37 24
11 66 20 92 20z"/>
</g>
</svg>
