<?xml version="1.0" standalone="no"?>
<!DOCTYPE svg PUBLIC "-//W3C//DTD SVG 20010904//EN"
 "http://www.w3.org/TR/2001/REC-SVG-20010904/DTD/svg10.dtd">
<svg version="1.0" xmlns="http://www.w3.org/2000/svg"
 width="152.000000pt" height="168.000000pt" viewBox="0 0 152.000000 168.000000"
 preserveAspectRatio="xMidYMid meet">
<metadata>
Created by potrace 1.16, written by Peter Selinger 2001-2019
</metadata>
<g transform="translate(0.000000,168.000000) scale(0.100000,-0.100000)"
fill="#000000" stroke="none">
<path d="M568 1010 c-10 0 -21 -7 -24 -15 -3 -8 -3 -19 1 -26 4 -6 28 -21 54
-33 25 -12 112 -57 193 -101 81 -44 148 -85 148 -91 0 -5 -15 -24 -32 -41 -18
-17 -90 -75 -159 -129 -69 -55 -148 -115 -175 -134 -29 -21 -50 -44 -52 -58
-2 -13 3 -25 13 -28 10 -4 41 10 84 40 38 25 103 77 147 114 43 37 108 92 145
123 36 31 76 62 87 68 11 6 30 11 42 11 12 0 25 10 32 26 7 15 23 27 40 31 16
3 33 14 39 25 6 10 7 27 4 37 -3 10 -18 21 -33 24 -18 4 -35 -2 -54 -18 -15
-13 -37 -26 -48 -30 -13 -4 -51 9 -113 40 -50 25 -119 61 -152 81 -33 19 -84
46 -114 59 -29 14 -62 25 -73 25z"/>
</g>
</svg>
