<?xml version="1.0" standalone="no"?>
<!DOCTYPE svg PUBLIC "-//W3C//DTD SVG 20010904//EN"
 "http://www.w3.org/TR/2001/REC-SVG-20010904/DTD/svg10.dtd">
<svg version="1.0" xmlns="http://www.w3.org/2000/svg"
 width="157.000000pt" height="172.000000pt" viewBox="0 0 157.000000 172.000000"
 preserveAspectRatio="xMidYMid meet">
<metadata>
Created by potrace 1.16, written by Peter Selinger 2001-2019
</metadata>
<g transform="translate(0.000000,172.000000) scale(0.100000,-0.100000)"
fill="#000000" stroke="none">
<path d="M684 940 c-22 0 -52 -8 -69 -19 -16 -10 -47 -35 -68 -56 -21 -20 -49
-54 -62 -75 -14 -22 -27 -57 -31 -79 -4 -22 -3 -60 0 -85 5 -34 18 -57 50 -92
39 -43 46 -47 98 -52 41 -3 67 1 100 16 25 11 64 36 86 56 l41 37 45 -35 c26
-19 63 -40 84 -46 20 -5 53 -10 73 -10 22 0 42 7 52 18 9 9 13 22 9 27 -4 6
-34 10 -67 10 -47 0 -67 5 -92 23 -18 13 -36 35 -39 49 -5 17 3 50 24 102 17
42 33 88 36 102 3 15 0 34 -9 45 -13 18 -16 18 -42 4 -15 -8 -38 -35 -50 -60
-14 -28 -22 -64 -23 -96 0 -41 -6 -58 -32 -93 -22 -27 -55 -53 -95 -73 -49
-24 -70 -29 -97 -24 -24 5 -45 19 -66 44 -25 31 -30 45 -30 90 0 33 7 66 20
90 10 20 27 46 37 58 10 11 32 31 50 42 17 12 44 22 60 22 18 0 38 -9 51 -23
12 -13 22 -28 22 -34 0 -5 -9 -18 -20 -28 -11 -10 -20 -24 -20 -32 0 -7 11
-13 25 -13 14 0 37 11 50 25 14 13 25 36 25 51 0 18 -14 40 -44 70 -36 37 -50
44 -82 44z"/>
</g>
</svg>
