<?xml version="1.0" standalone="no"?>
<!DOCTYPE svg PUBLIC "-//W3C//DTD SVG 20010904//EN"
 "http://www.w3.org/TR/2001/REC-SVG-20010904/DTD/svg10.dtd">
<svg version="1.0" xmlns="http://www.w3.org/2000/svg"
 width="152.000000pt" height="166.000000pt" viewBox="0 0 152.000000 166.000000"
 preserveAspectRatio="xMidYMid meet">
<metadata>
Created by potrace 1.16, written by Peter Selinger 2001-2019
</metadata>
<g transform="translate(0.000000,166.000000) scale(0.100000,-0.100000)"
fill="#000000" stroke="none">
<path d="M735 1170 c-8 0 -17 -4 -20 -10 -3 -5 -8 -31 -12 -58 -4 -37 -2 -51
11 -61 10 -8 26 -11 42 -7 22 6 25 11 19 29 -4 12 -9 36 -10 54 -2 17 -6 36
-10 42 -3 6 -12 11 -20 11z M847 1160 c-8 0 -20 -7 -27 -15 -7 -8 -14 -34 -17
-58 -2 -23 0 -48 6 -56 5 -8 16 -11 25 -8 10 4 16 18 16 40 0 19 3 49 6 66 5
24 3 31 -9 31z M658 902 c-7 10 -18 14 -25 10 -7 -4 -26 -37 -43 -73 -17 -37
-40 -104 -51 -150 -16 -65 -18 -90 -10 -111 5 -15 21 -34 33 -42 19 -12 32
-13 61 -5 20 5 57 28 83 49 25 22 47 40 49 40 2 0 26 -12 52 -26 34 -18 57
-24 77 -20 16 4 38 14 48 22 9 9 15 21 12 26 -4 5 -21 7 -40 3 -19 -3 -43 -1
-54 5 -14 8 -20 21 -20 48 0 20 12 71 27 114 23 64 25 79 14 92 -7 9 -17 16
-22 16 -4 0 -14 -7 -22 -15 -9 -8 -25 -45 -38 -82 -12 -38 -31 -81 -42 -98
-11 -16 -34 -45 -51 -63 -17 -19 -44 -40 -59 -48 -15 -8 -32 -12 -37 -9 -6 3
-10 25 -10 47 0 26 12 67 34 112 19 39 37 87 41 106 4 22 1 41 -7 52z"/>
</g>
</svg>
