<?xml version="1.0" standalone="no"?>
<!DOCTYPE svg PUBLIC "-//W3C//DTD SVG 20010904//EN"
 "http://www.w3.org/TR/2001/REC-SVG-20010904/DTD/svg10.dtd">
<svg version="1.0" xmlns="http://www.w3.org/2000/svg"
 width="156.000000pt" height="171.000000pt" viewBox="0 0 156.000000 171.000000"
 preserveAspectRatio="xMidYMid meet">
<metadata>
Created by potrace 1.16, written by Peter Selinger 2001-2019
</metadata>
<g transform="translate(0.000000,171.000000) scale(0.100000,-0.100000)"
fill="#000000" stroke="none">
<path d="M886 1110 c-35 -1 -87 -10 -121 -21 -32 -11 -83 -36 -112 -56 -29
-19 -88 -69 -131 -111 -43 -43 -95 -104 -117 -136 -21 -32 -46 -81 -57 -108
-10 -26 -18 -61 -18 -77 0 -15 9 -40 20 -54 11 -14 46 -38 78 -54 53 -26 64
-28 177 -26 66 1 152 7 190 12 39 6 114 17 169 25 54 9 101 18 104 21 3 3 1
10 -4 15 -6 6 -66 3 -169 -11 -88 -11 -214 -21 -280 -22 -105 -1 -125 2 -162
21 -23 12 -49 32 -57 44 -9 12 -16 32 -16 43 0 11 13 48 30 83 16 34 49 87 73
117 25 29 70 77 102 107 31 29 74 64 94 79 20 14 64 36 99 48 34 11 79 21 100
21 21 0 43 -5 50 -12 7 -7 12 -25 12 -40 0 -21 -10 -35 -41 -57 -22 -17 -66
-35 -97 -42 -31 -7 -61 -16 -66 -20 -5 -5 -2 -11 9 -15 10 -4 45 -2 79 5 33 7
77 21 97 32 20 10 47 30 58 45 13 16 21 41 21 65 0 29 -6 42 -26 58 -21 16
-41 21 -88 21z"/>
</g>
</svg>
