<?xml version="1.0" standalone="no"?>
<!DOCTYPE svg PUBLIC "-//W3C//DTD SVG 20010904//EN"
 "http://www.w3.org/TR/2001/REC-SVG-20010904/DTD/svg10.dtd">
<svg version="1.0" xmlns="http://www.w3.org/2000/svg"
 width="156.000000pt" height="171.000000pt" viewBox="0 0 156.000000 171.000000"
 preserveAspectRatio="xMidYMid meet">
<metadata>
Created by potrace 1.16, written by Peter Selinger 2001-2019
</metadata>
<g transform="translate(0.000000,171.000000) scale(0.100000,-0.100000)"
fill="#000000" stroke="none">
<path d="M738 1204 c-23 2 -57 1 -74 -3 -17 -4 -49 -18 -71 -31 -23 -12 -52
-37 -65 -54 -20 -27 -23 -41 -22 -121 1 -72 6 -104 28 -159 14 -37 26 -72 26
-76 0 -4 -9 -10 -20 -13 -11 -3 -20 -12 -20 -21 0 -9 6 -32 14 -51 8 -19 32
-45 55 -61 32 -21 44 -36 52 -70 6 -23 19 -50 30 -60 10 -9 25 -14 34 -10 8 3
18 19 22 36 4 24 10 29 22 24 9 -3 48 -9 88 -11 60 -5 79 -2 117 17 25 12 64
43 87 68 23 26 51 67 62 91 15 35 18 56 13 99 -4 30 -18 78 -32 108 -14 30
-45 80 -69 111 -24 32 -66 77 -94 101 -28 23 -70 51 -95 61 -24 11 -64 22 -88
25z m-13 -65 c24 1 60 -9 92 -26 29 -14 79 -53 112 -85 34 -34 72 -87 92 -125
26 -50 34 -80 34 -118 0 -40 -7 -63 -30 -100 -16 -26 -46 -61 -66 -77 -31 -25
-45 -29 -100 -30 -35 -1 -83 4 -105 10 -33 10 -43 18 -49 40 -4 15 -8 125 -10
246 -2 127 -8 223 -14 229 -5 5 -16 7 -25 4 -8 -3 -20 -25 -26 -49 -7 -25 -9
-68 -6 -103 4 -33 9 -84 12 -112 4 -33 2 -53 -4 -53 -5 0 -19 22 -30 48 -12
27 -25 76 -31 110 -6 39 -6 73 0 96 5 20 22 44 38 56 16 11 39 24 52 29 13 5
42 10 64 10z"/>
</g>
</svg>
