<?xml version="1.0" standalone="no"?>
<!DOCTYPE svg PUBLIC "-//W3C//DTD SVG 20010904//EN"
 "http://www.w3.org/TR/2001/REC-SVG-20010904/DTD/svg10.dtd">
<svg version="1.0" xmlns="http://www.w3.org/2000/svg"
 width="153.000000pt" height="167.000000pt" viewBox="0 0 153.000000 167.000000"
 preserveAspectRatio="xMidYMid meet">
<metadata>
Created by potrace 1.16, written by Peter Selinger 2001-2019
</metadata>
<g transform="translate(0.000000,167.000000) scale(0.100000,-0.100000)"
fill="#000000" stroke="none">
<path d="M794 1010 c-7 0 -16 -5 -19 -10 -4 -6 -3 -40 0 -75 5 -46 4 -70 -5
-80 -9 -11 -33 -15 -90 -15 -59 0 -81 -4 -91 -16 -11 -14 -10 -18 6 -30 14
-10 36 -12 87 -7 58 5 68 3 74 -11 4 -10 7 -45 8 -79 1 -55 3 -62 22 -65 16
-2 24 4 32 25 5 16 7 52 5 80 -5 43 -2 53 14 62 11 5 57 15 101 20 56 7 91 7
109 0 14 -5 32 -8 40 -5 7 3 13 14 13 25 0 11 -6 26 -14 34 -12 12 -26 12 -93
0 -43 -7 -96 -12 -118 -11 l-40 3 -3 65 c-2 35 -8 70 -14 77 -6 7 -16 13 -24
13z"/>
</g>
</svg>
