<?xml version="1.0" standalone="no"?>
<!DOCTYPE svg PUBLIC "-//W3C//DTD SVG 20010904//EN"
 "http://www.w3.org/TR/2001/REC-SVG-20010904/DTD/svg10.dtd">
<svg version="1.0" xmlns="http://www.w3.org/2000/svg"
 width="152.000000pt" height="167.000000pt" viewBox="0 0 152.000000 167.000000"
 preserveAspectRatio="xMidYMid meet">
<metadata>
Created by potrace 1.16, written by Peter Selinger 2001-2019
</metadata>
<g transform="translate(0.000000,167.000000) scale(0.100000,-0.100000)"
fill="#000000" stroke="none">
<path d="M833 819 c-5 0 -32 -9 -61 -18 -29 -10 -60 -27 -68 -37 -8 -11 -19
-29 -24 -40 -5 -12 -6 -32 -3 -45 3 -13 10 -30 16 -36 5 -7 29 -13 54 -13 24
0 53 4 63 10 10 5 27 24 38 42 11 18 23 47 27 65 5 25 2 36 -14 52 -12 12 -24
21 -28 20z M757 480 c-8 0 -27 -10 -42 -22 -24 -18 -27 -26 -22 -61 3 -22 12
-47 21 -55 8 -8 34 -15 58 -16 30 -1 53 6 75 22 18 13 36 34 39 48 3 13 1 30
-5 38 -7 8 -34 21 -61 30 -27 9 -55 16 -63 16z"/>
</g>
</svg>
