<?xml version="1.0" standalone="no"?>
<!DOCTYPE svg PUBLIC "-//W3C//DTD SVG 20010904//EN"
 "http://www.w3.org/TR/2001/REC-SVG-20010904/DTD/svg10.dtd">
<svg version="1.0" xmlns="http://www.w3.org/2000/svg"
 width="156.000000pt" height="170.000000pt" viewBox="0 0 156.000000 170.000000"
 preserveAspectRatio="xMidYMid meet">
<metadata>
Created by potrace 1.16, written by Peter Selinger 2001-2019
</metadata>
<g transform="translate(0.000000,170.000000) scale(0.100000,-0.100000)"
fill="#000000" stroke="none">
<path d="M1057 1320 c-7 0 -20 -6 -29 -12 -9 -7 -26 -33 -37 -58 -12 -25 -44
-74 -72 -110 -27 -36 -69 -91 -92 -122 -23 -32 -45 -58 -49 -58 -4 0 -29 37
-56 83 -27 45 -62 107 -77 137 -16 30 -39 70 -52 88 -15 20 -33 32 -47 32 -13
0 -26 -7 -30 -15 -3 -8 1 -35 9 -61 8 -26 25 -58 38 -73 14 -14 54 -74 91
-132 36 -59 66 -113 66 -121 0 -8 -13 -33 -28 -54 -16 -21 -84 -99 -151 -172
-102 -111 -122 -137 -119 -160 2 -17 9 -27 19 -27 9 0 72 61 139 135 67 74
136 154 153 178 17 23 33 42 36 41 3 0 50 -71 105 -157 54 -86 107 -172 117
-190 10 -18 31 -37 46 -43 14 -5 32 -8 40 -5 7 3 13 16 13 30 0 13 -12 39 -27
57 -16 18 -39 49 -53 70 -14 20 -60 90 -104 155 -43 65 -80 124 -83 131 -3 6
10 34 28 60 18 26 64 86 102 133 38 47 83 113 99 148 17 34 27 69 24 77 -3 8
-11 15 -19 15z"/>
</g>
</svg>
