<?xml version="1.0" standalone="no"?>
<!DOCTYPE svg PUBLIC "-//W3C//DTD SVG 20010904//EN"
 "http://www.w3.org/TR/2001/REC-SVG-20010904/DTD/svg10.dtd">
<svg version="1.0" xmlns="http://www.w3.org/2000/svg"
 width="165.000000pt" height="181.000000pt" viewBox="0 0 165.000000 181.000000"
 preserveAspectRatio="xMidYMid meet">
<metadata>
Created by potrace 1.16, written by Peter Selinger 2001-2019
</metadata>
<g transform="translate(0.000000,181.000000) scale(0.100000,-0.100000)"
fill="#000000" stroke="none">
<path d="M765 465 c-140 0 -259 -1 -265 -3 -5 -2 -10 -15 -10 -28 0 -17 8 -28
26 -36 19 -9 65 -9 192 0 122 9 178 9 207 1 22 -6 52 -13 68 -16 15 -3 34 0
42 7 8 7 15 20 15 29 0 9 -5 23 -10 31 -8 13 -49 15 -265 15z"/>
</g>
</svg>
