<?xml version="1.0" standalone="no"?>
<!DOCTYPE svg PUBLIC "-//W3C//DTD SVG 20010904//EN"
 "http://www.w3.org/TR/2001/REC-SVG-20010904/DTD/svg10.dtd">
<svg version="1.0" xmlns="http://www.w3.org/2000/svg"
 width="154.000000pt" height="167.000000pt" viewBox="0 0 154.000000 167.000000"
 preserveAspectRatio="xMidYMid meet">
<metadata>
Created by potrace 1.16, written by Peter Selinger 2001-2019
</metadata>
<g transform="translate(0.000000,167.000000) scale(0.100000,-0.100000)"
fill="#000000" stroke="none">
<path d="M811 1330 c-12 0 -48 -31 -88 -76 -37 -41 -98 -121 -135 -176 -37
-56 -72 -116 -78 -134 -8 -23 -8 -39 -1 -52 6 -11 24 -25 41 -32 24 -10 44
-10 93 -2 34 7 75 15 91 18 28 7 28 7 20 -67 -5 -41 -9 -108 -9 -149 0 -64 3
-75 18 -78 10 -2 29 -1 43 2 13 4 24 12 24 20 0 7 -7 19 -15 26 -10 8 -15 30
-15 63 0 28 5 80 11 116 6 36 15 74 20 83 5 9 26 22 47 28 20 5 62 10 93 10
36 0 61 5 68 14 9 10 8 16 -4 26 -11 9 -40 11 -106 7 -90 -6 -90 -6 -83 61 5
54 3 70 -9 80 -12 10 -18 10 -31 -3 -8 -9 -12 -23 -9 -31 3 -9 1 -32 -5 -52
-6 -20 -13 -48 -16 -62 -5 -22 -15 -28 -74 -44 -38 -10 -82 -16 -98 -14 -16 2
-30 10 -32 19 -1 8 14 46 35 83 23 40 75 107 130 164 72 74 93 103 93 124 0
21 -5 28 -19 28z"/>
</g>
</svg>
