<?xml version="1.0" standalone="no"?>
<!DOCTYPE svg PUBLIC "-//W3C//DTD SVG 20010904//EN"
 "http://www.w3.org/TR/2001/REC-SVG-20010904/DTD/svg10.dtd">
<svg version="1.0" xmlns="http://www.w3.org/2000/svg"
 width="154.000000pt" height="167.000000pt" viewBox="0 0 154.000000 167.000000"
 preserveAspectRatio="xMidYMid meet">
<metadata>
Created by potrace 1.16, written by Peter Selinger 2001-2019
</metadata>
<g transform="translate(0.000000,167.000000) scale(0.100000,-0.100000)"
fill="#000000" stroke="none">
<path d="M867 1240 c-23 -1 -55 -8 -72 -17 -16 -8 -41 -25 -54 -37 -13 -11
-32 -39 -42 -61 -10 -22 -19 -55 -19 -73 0 -18 5 -43 12 -55 6 -12 18 -27 27
-34 9 -7 29 -13 44 -13 15 0 40 6 55 14 15 8 40 28 56 45 17 17 35 31 42 31 7
0 20 -23 29 -50 11 -33 17 -82 16 -139 0 -49 -3 -101 -7 -117 -4 -16 -16 -45
-27 -65 -11 -21 -29 -42 -41 -48 -11 -5 -40 -15 -63 -21 -23 -6 -67 -7 -98 -4
-48 6 -64 13 -96 44 -34 32 -39 43 -39 83 0 25 -3 52 -6 61 -3 9 -12 16 -20
16 -7 0 -17 -12 -20 -26 -4 -14 -4 -44 -1 -66 3 -23 18 -60 34 -82 21 -29 43
-46 78 -59 37 -14 70 -18 125 -15 55 2 88 10 125 28 40 20 55 35 74 74 14 28
28 82 34 131 8 62 7 104 -2 169 -9 58 -23 106 -42 142 -16 29 -29 67 -29 83 0
16 -7 37 -16 45 -9 10 -32 16 -57 16z m-16 -50 c9 0 21 -6 26 -12 6 -7 13 -25
17 -39 4 -21 -1 -36 -27 -67 -17 -22 -46 -48 -63 -58 -17 -9 -39 -14 -48 -11
-11 4 -16 18 -16 43 0 20 9 53 21 73 11 21 33 45 47 54 15 9 34 17 43 17z"/>
</g>
</svg>
