<?xml version="1.0" standalone="no"?>
<!DOCTYPE svg PUBLIC "-//W3C//DTD SVG 20010904//EN"
 "http://www.w3.org/TR/2001/REC-SVG-20010904/DTD/svg10.dtd">
<svg version="1.0" xmlns="http://www.w3.org/2000/svg"
 width="156.000000pt" height="171.000000pt" viewBox="0 0 156.000000 171.000000"
 preserveAspectRatio="xMidYMid meet">
<metadata>
Created by potrace 1.16, written by Peter Selinger 2001-2019
</metadata>
<g transform="translate(0.000000,171.000000) scale(0.100000,-0.100000)"
fill="#000000" stroke="none">
<path d="M845 1289 c-16 -1 -52 -8 -80 -18 -27 -9 -76 -33 -107 -54 -31 -21
-74 -62 -94 -90 -21 -29 -52 -81 -70 -117 -17 -36 -39 -100 -49 -143 -13 -58
-16 -98 -10 -150 4 -39 12 -85 19 -102 8 -17 34 -49 60 -72 38 -34 58 -43 109
-51 34 -6 82 -7 107 -3 25 4 62 14 83 22 38 13 39 13 60 -16 12 -17 35 -43 52
-58 16 -16 48 -39 70 -52 22 -12 57 -26 78 -29 21 -4 75 -2 120 5 45 6 86 15
91 20 5 5 7 12 3 15 -3 3 -56 6 -116 5 -68 -1 -119 3 -133 10 -13 6 -40 28
-61 48 -21 20 -45 48 -53 63 -8 15 -14 31 -14 35 0 5 18 28 41 52 22 24 51 65
63 90 13 25 34 82 46 126 18 65 21 96 17 165 -3 52 -13 107 -27 143 -12 32
-38 75 -58 96 -22 23 -53 43 -77 50 -22 6 -53 10 -70 10z m43 -59 c7 0 24 -11
37 -25 14 -13 25 -35 25 -49 0 -15 -13 -37 -32 -55 -18 -17 -49 -39 -68 -48
-19 -9 -69 -20 -110 -23 -70 -6 -73 -7 -47 -18 16 -7 52 -12 80 -12 34 0 70 9
105 25 29 13 67 36 86 50 18 14 38 25 43 25 6 0 13 -10 17 -22 3 -13 6 -62 6
-109 0 -50 -7 -108 -16 -140 -9 -30 -29 -79 -44 -109 -15 -30 -39 -66 -53 -79
-14 -13 -31 -21 -38 -19 -7 2 -25 38 -40 79 -21 57 -32 75 -48 77 -13 2 -21
-2 -21 -11 0 -8 12 -48 26 -88 14 -41 26 -83 27 -94 2 -16 -9 -24 -48 -37 -27
-9 -70 -17 -95 -17 -25 0 -63 8 -85 18 -22 10 -50 29 -62 42 -12 13 -26 36
-32 51 -5 14 -13 52 -16 85 -4 37 -1 83 8 129 9 39 27 95 42 124 15 30 43 78
64 108 23 37 56 69 95 94 33 21 67 38 78 38 10 0 18 -7 18 -15 0 -8 4 -15 10
-15 5 0 24 9 42 20 18 11 39 20 46 20z"/>
</g>
</svg>
