<?xml version="1.0" standalone="no"?>
<!DOCTYPE svg PUBLIC "-//W3C//DTD SVG 20010904//EN"
 "http://www.w3.org/TR/2001/REC-SVG-20010904/DTD/svg10.dtd">
<svg version="1.0" xmlns="http://www.w3.org/2000/svg"
 width="154.000000pt" height="166.000000pt" viewBox="0 0 154.000000 166.000000"
 preserveAspectRatio="xMidYMid meet">
<metadata>
Created by potrace 1.16, written by Peter Selinger 2001-2019
</metadata>
<g transform="translate(0.000000,166.000000) scale(0.100000,-0.100000)"
fill="#000000" stroke="none">
<path d="M927 1210 c-6 0 -17 -4 -23 -8 -6 -4 -23 -27 -39 -51 -15 -24 -66
-84 -113 -133 -47 -49 -113 -107 -146 -129 -54 -36 -66 -40 -103 -35 -32 4
-42 2 -47 -11 -4 -8 -1 -22 5 -29 6 -8 29 -14 51 -14 21 0 53 7 71 16 17 10
62 42 100 72 37 30 92 82 122 116 48 54 54 58 55 36 0 -14 -12 -79 -25 -145
-14 -66 -25 -145 -25 -176 0 -30 5 -60 12 -67 7 -7 23 -12 36 -12 23 0 24 2
16 53 -4 28 -6 68 -5 87 0 19 4 49 7 65 3 17 21 94 41 173 20 83 32 154 29
168 -4 13 -12 24 -19 24z"/>
</g>
</svg>
