<?xml version="1.0" standalone="no"?>
<!DOCTYPE svg PUBLIC "-//W3C//DTD SVG 20010904//EN"
 "http://www.w3.org/TR/2001/REC-SVG-20010904/DTD/svg10.dtd">
<svg version="1.0" xmlns="http://www.w3.org/2000/svg"
 width="158.000000pt" height="173.000000pt" viewBox="0 0 158.000000 173.000000"
 preserveAspectRatio="xMidYMid meet">
<metadata>
Created by potrace 1.16, written by Peter Selinger 2001-2019
</metadata>
<g transform="translate(0.000000,173.000000) scale(0.100000,-0.100000)"
fill="#000000" stroke="none">
<path d="M455 897 c-11 2 -37 -11 -57 -28 -21 -17 -60 -58 -86 -92 -27 -34
-58 -80 -69 -102 -11 -22 -18 -46 -16 -52 3 -7 11 -13 18 -13 8 0 41 35 73 78
33 42 69 86 81 96 21 19 21 19 21 -6 0 -14 -5 -72 -11 -129 -5 -57 -8 -113 -4
-126 4 -16 13 -23 29 -23 13 0 35 9 49 20 14 11 42 47 61 79 20 32 43 65 53
72 15 13 16 10 11 -36 -4 -27 -2 -58 3 -67 5 -10 20 -18 33 -18 16 0 39 16 68
47 23 26 72 78 107 115 35 37 70 68 78 68 10 0 13 -20 13 -77 1 -43 7 -107 14
-141 8 -35 19 -69 24 -74 6 -6 17 -8 25 -5 12 4 14 33 10 169 -2 90 -6 173 -9
185 -2 12 -13 24 -24 28 -11 3 -36 -2 -57 -12 -21 -9 -73 -52 -116 -95 -43
-43 -80 -78 -83 -78 -2 0 -4 24 -4 53 0 28 -4 57 -8 63 -4 6 -15 13 -25 17
-13 5 -32 -9 -72 -51 -30 -31 -62 -74 -71 -94 -9 -21 -22 -38 -29 -38 -8 0 -9
17 -4 58 3 31 9 80 13 107 4 33 2 58 -7 75 -7 14 -21 26 -32 27z"/>
</g>
</svg>
