<?xml version="1.0" standalone="no"?>
<!DOCTYPE svg PUBLIC "-//W3C//DTD SVG 20010904//EN"
 "http://www.w3.org/TR/2001/REC-SVG-20010904/DTD/svg10.dtd">
<svg version="1.0" xmlns="http://www.w3.org/2000/svg"
 width="162.000000pt" height="178.000000pt" viewBox="0 0 162.000000 178.000000"
 preserveAspectRatio="xMidYMid meet">
<metadata>
Created by potrace 1.16, written by Peter Selinger 2001-2019
</metadata>
<g transform="translate(0.000000,178.000000) scale(0.100000,-0.100000)"
fill="#000000" stroke="none">
<path d="M980 1060 c-10 0 -33 -19 -52 -42 -19 -24 -60 -84 -92 -134 -31 -50
-67 -101 -80 -113 l-23 -22 -41 45 c-22 24 -45 61 -51 82 -8 30 -7 41 3 53 8
9 16 25 20 37 4 14 0 26 -13 38 -15 13 -24 15 -38 7 -11 -5 -29 -29 -40 -53
-12 -24 -28 -59 -36 -80 -9 -20 -44 -69 -78 -110 -33 -40 -89 -98 -122 -129
-37 -34 -57 -60 -53 -67 4 -7 18 -12 30 -12 16 0 45 23 92 73 38 39 91 98 118
130 28 31 53 57 56 57 3 0 23 -22 44 -50 27 -35 37 -57 34 -77 -2 -19 -12 -32
-30 -41 -19 -9 -28 -21 -28 -37 0 -15 7 -26 21 -30 13 -4 31 1 52 16 18 12 65
59 106 104 41 45 85 100 98 123 14 23 29 42 33 42 5 0 13 -15 19 -32 7 -18 34
-60 61 -93 28 -33 50 -63 50 -67 0 -3 -10 -8 -22 -10 -13 -2 -24 -11 -26 -22
-3 -11 4 -26 14 -33 10 -7 34 -13 54 -13 20 0 41 5 48 12 7 7 12 25 12 41 0
19 -18 53 -56 103 -31 42 -63 92 -70 112 -7 20 -13 45 -14 54 0 10 10 38 22
62 18 37 19 47 8 60 -7 9 -20 16 -30 16z"/>
</g>
</svg>
