<?xml version="1.0" standalone="no"?>
<!DOCTYPE svg PUBLIC "-//W3C//DTD SVG 20010904//EN"
 "http://www.w3.org/TR/2001/REC-SVG-20010904/DTD/svg10.dtd">
<svg version="1.0" xmlns="http://www.w3.org/2000/svg"
 width="165.000000pt" height="180.000000pt" viewBox="0 0 165.000000 180.000000"
 preserveAspectRatio="xMidYMid meet">
<metadata>
Created by potrace 1.16, written by Peter Selinger 2001-2019
</metadata>
<g transform="translate(0.000000,180.000000) scale(0.100000,-0.100000)"
fill="#000000" stroke="none">
<path d="M926 1730 c-8 0 -23 -8 -35 -17 -11 -10 -47 -53 -78 -95 -32 -42 -73
-102 -92 -133 -19 -31 -37 -77 -41 -101 -5 -30 -2 -53 7 -71 7 -14 21 -32 31
-39 9 -7 24 -13 32 -14 8 0 34 19 58 41 33 32 42 48 42 75 0 22 -8 42 -22 56
-13 13 -21 29 -20 37 2 8 33 61 68 117 35 56 64 112 64 123 0 12 -6 21 -14 21z"/>
</g>
</svg>
