<?xml version="1.0" standalone="no"?>
<!DOCTYPE svg PUBLIC "-//W3C//DTD SVG 20010904//EN"
 "http://www.w3.org/TR/2001/REC-SVG-20010904/DTD/svg10.dtd">
<svg version="1.0" xmlns="http://www.w3.org/2000/svg"
 width="156.000000pt" height="168.000000pt" viewBox="0 0 156.000000 168.000000"
 preserveAspectRatio="xMidYMid meet">
<metadata>
Created by potrace 1.16, written by Peter Selinger 2001-2019
</metadata>
<g transform="translate(0.000000,168.000000) scale(0.100000,-0.100000)"
fill="#000000" stroke="none">
<path d="M813 1439 c-4 0 -14 -3 -20 -6 -7 -2 -13 -11 -13 -18 0 -7 24 -25 54
-38 40 -18 62 -37 81 -67 14 -22 35 -78 47 -123 17 -66 21 -110 20 -221 0 -76
-8 -186 -17 -245 -9 -58 -28 -155 -42 -216 -14 -60 -36 -150 -50 -200 -13 -50
-35 -109 -49 -132 -22 -38 -23 -43 -8 -57 8 -9 19 -16 24 -16 5 0 18 12 29 26
11 14 18 31 15 39 -3 7 8 64 25 126 17 63 40 152 51 199 12 47 31 144 42 215
14 88 21 182 22 290 1 129 -3 171 -17 220 -11 33 -28 77 -39 98 -11 22 -32 51
-46 64 -15 14 -44 34 -64 44 -21 10 -41 19 -45 18z"/>
</g>
</svg>
