<?xml version="1.0" standalone="no"?>
<!DOCTYPE svg PUBLIC "-//W3C//DTD SVG 20010904//EN"
 "http://www.w3.org/TR/2001/REC-SVG-20010904/DTD/svg10.dtd">
<svg version="1.0" xmlns="http://www.w3.org/2000/svg"
 width="156.000000pt" height="170.000000pt" viewBox="0 0 156.000000 170.000000"
 preserveAspectRatio="xMidYMid meet">
<metadata>
Created by potrace 1.16, written by Peter Selinger 2001-2019
</metadata>
<g transform="translate(0.000000,170.000000) scale(0.100000,-0.100000)"
fill="#000000" stroke="none">
<path d="M949 1299 c-24 -1 -61 -5 -83 -10 -21 -5 -69 -25 -107 -45 -38 -20
-83 -52 -99 -71 -18 -20 -30 -45 -30 -62 0 -15 13 -46 29 -67 16 -21 77 -86
136 -144 59 -58 120 -123 136 -144 16 -21 29 -48 29 -58 0 -12 -13 -25 -37
-36 -30 -13 -66 -16 -168 -15 -71 0 -165 6 -208 12 -43 6 -95 20 -117 31 -21
11 -46 17 -54 14 -9 -3 -16 -15 -16 -25 0 -11 13 -25 32 -35 18 -9 72 -23 122
-30 49 -7 146 -16 215 -20 86 -4 145 -3 186 6 32 7 74 19 92 28 24 12 33 22
33 41 0 13 -10 44 -21 69 -13 26 -74 96 -154 176 -73 72 -140 146 -149 165
-15 29 -16 35 -2 55 8 13 37 37 64 55 27 17 74 37 104 43 29 6 66 8 81 4 21
-5 27 -12 27 -32 0 -14 -12 -46 -26 -70 -20 -35 -24 -48 -15 -57 8 -8 16 -9
29 -1 9 6 32 35 50 64 17 30 32 66 32 82 0 19 -10 34 -33 52 -25 20 -45 26
-78 25z"/>
</g>
</svg>
