<?xml version="1.0" standalone="no"?>
<!DOCTYPE svg PUBLIC "-//W3C//DTD SVG 20010904//EN"
 "http://www.w3.org/TR/2001/REC-SVG-20010904/DTD/svg10.dtd">
<svg version="1.0" xmlns="http://www.w3.org/2000/svg"
 width="154.000000pt" height="168.000000pt" viewBox="0 0 154.000000 168.000000"
 preserveAspectRatio="xMidYMid meet">
<metadata>
Created by potrace 1.16, written by Peter Selinger 2001-2019
</metadata>
<g transform="translate(0.000000,168.000000) scale(0.100000,-0.100000)"
fill="#000000" stroke="none">
<path d="M766 1309 c-39 -1 -87 -6 -106 -12 -19 -5 -49 -20 -65 -32 -17 -13
-44 -47 -60 -76 -26 -48 -30 -65 -33 -160 -3 -78 0 -121 12 -162 9 -30 16 -64
16 -75 0 -10 -13 -36 -29 -56 -17 -21 -37 -60 -47 -89 -10 -29 -16 -78 -16
-116 1 -48 7 -72 21 -91 16 -21 26 -25 64 -23 31 1 77 16 143 47 53 25 105 46
114 46 10 0 38 -11 61 -25 24 -14 53 -25 65 -25 11 0 29 -9 39 -20 11 -12 28
-20 39 -18 12 2 22 11 24 21 2 10 -2 24 -8 32 -7 8 -23 15 -37 15 -13 0 -46
11 -73 25 -28 14 -50 30 -50 35 0 5 33 32 73 59 39 27 101 76 137 109 36 33
62 63 58 67 -4 4 -18 -1 -31 -11 -13 -11 -51 -41 -85 -68 -34 -27 -90 -66
-124 -87 -35 -22 -72 -39 -83 -39 -11 1 -41 20 -66 43 -26 23 -61 62 -78 86
-17 24 -31 54 -31 67 0 16 23 41 78 88 44 36 95 84 114 108 19 24 46 63 60 88
14 25 29 64 32 88 4 24 2 61 -4 83 -6 21 -20 48 -32 59 -18 16 -35 20 -92 19z
m-4 -40 c29 1 41 -5 58 -26 19 -24 21 -36 16 -85 -3 -31 -15 -74 -27 -95 -12
-21 -36 -57 -55 -80 -19 -22 -63 -64 -98 -92 -35 -28 -69 -51 -74 -51 -6 0
-16 17 -21 38 -6 20 -11 74 -11 118 0 50 7 102 17 135 10 29 31 67 49 85 18
17 50 36 71 42 21 5 55 10 75 11z m-198 -542 c6 -2 21 -19 34 -38 12 -19 46
-58 75 -88 l52 -53 -27 -21 c-16 -11 -61 -33 -102 -48 -61 -22 -78 -25 -92
-15 -10 8 -18 31 -21 62 -4 34 1 67 16 108 11 32 28 67 38 78 9 10 21 17 27
15z"/>
</g>
</svg>
