<?xml version="1.0" standalone="no"?>
<!DOCTYPE svg PUBLIC "-//W3C//DTD SVG 20010904//EN"
 "http://www.w3.org/TR/2001/REC-SVG-20010904/DTD/svg10.dtd">
<svg version="1.0" xmlns="http://www.w3.org/2000/svg"
 width="154.000000pt" height="168.000000pt" viewBox="0 0 154.000000 168.000000"
 preserveAspectRatio="xMidYMid meet">
<metadata>
Created by potrace 1.16, written by Peter Selinger 2001-2019
</metadata>
<g transform="translate(0.000000,168.000000) scale(0.100000,-0.100000)"
fill="#000000" stroke="none">
<path d="M523 1610 c-13 0 -25 -6 -28 -12 -2 -7 -7 -71 -12 -143 -4 -71 -7
-175 -6 -230 1 -56 -6 -162 -17 -240 -10 -77 -23 -252 -29 -390 -6 -137 -13
-292 -15 -343 -3 -81 -1 -94 15 -102 10 -6 53 -10 96 -9 43 0 114 6 158 12 69
10 80 15 80 32 0 16 -6 20 -30 19 -16 -1 -71 -5 -120 -9 -75 -6 -92 -5 -103 8
-7 8 -18 57 -24 108 -6 59 -8 179 -3 324 3 126 11 252 16 280 6 27 14 79 19
115 6 36 16 156 24 268 8 112 17 206 20 209 3 3 48 0 100 -6 52 -6 139 -11
194 -11 76 0 102 4 112 15 7 8 10 22 6 30 -4 12 -25 15 -103 15 -54 0 -134 6
-179 14 -44 7 -95 20 -114 29 -18 9 -44 17 -57 17z"/>
</g>
</svg>
