<?xml version="1.0" standalone="no"?>
<!DOCTYPE svg PUBLIC "-//W3C//DTD SVG 20010904//EN"
 "http://www.w3.org/TR/2001/REC-SVG-20010904/DTD/svg10.dtd">
<svg version="1.0" xmlns="http://www.w3.org/2000/svg"
 width="157.000000pt" height="169.000000pt" viewBox="0 0 157.000000 169.000000"
 preserveAspectRatio="xMidYMid meet">
<metadata>
Created by potrace 1.16, written by Peter Selinger 2001-2019
</metadata>
<g transform="translate(0.000000,169.000000) scale(0.100000,-0.100000)"
fill="#000000" stroke="none">
<path d="M541 810 c-4 0 -11 -4 -18 -8 -7 -4 -16 -61 -22 -143 -6 -75 -16
-169 -21 -210 -5 -41 -10 -100 -10 -131 0 -31 3 -63 6 -72 4 -9 18 -16 35 -16
24 0 29 5 33 33 3 17 7 77 10 132 3 55 8 109 11 120 5 17 15 20 73 20 49 0 76
5 101 20 19 11 43 32 54 47 12 16 21 44 21 69 1 34 -4 45 -26 62 -15 11 -48
22 -78 25 -41 4 -60 0 -89 -16 -21 -12 -41 -19 -45 -15 -3 3 -6 18 -6 33 0 14
-5 31 -12 38 -7 7 -14 12 -17 12z m167 -116 c8 -2 18 -4 23 -4 5 0 9 -11 9
-25 0 -15 -11 -36 -26 -50 -20 -18 -38 -25 -69 -25 -23 0 -44 3 -48 6 -3 4 0
18 7 33 8 14 22 33 32 42 11 10 28 19 39 22 11 2 26 3 33 1z"/>
</g>
</svg>
