<?xml version="1.0" standalone="no"?>
<!DOCTYPE svg PUBLIC "-//W3C//DTD SVG 20010904//EN"
 "http://www.w3.org/TR/2001/REC-SVG-20010904/DTD/svg10.dtd">
<svg version="1.0" xmlns="http://www.w3.org/2000/svg"
 width="164.000000pt" height="178.000000pt" viewBox="0 0 164.000000 178.000000"
 preserveAspectRatio="xMidYMid meet">
<metadata>
Created by potrace 1.16, written by Peter Selinger 2001-2019
</metadata>
<g transform="translate(0.000000,178.000000) scale(0.100000,-0.100000)"
fill="#000000" stroke="none">
<path d="M931 1189 c-3 0 -12 -3 -18 -6 -7 -2 -13 -18 -13 -34 0 -26 3 -29 30
-29 18 0 33 6 37 15 3 9 -3 25 -12 35 -10 11 -21 20 -24 19z M635 1050 c-18 0
-49 -12 -72 -27 -23 -16 -70 -53 -106 -83 -37 -31 -77 -77 -93 -105 -22 -39
-28 -63 -29 -112 0 -47 5 -68 21 -90 11 -15 35 -38 53 -50 18 -12 57 -25 87
-29 31 -3 78 -4 106 -1 27 4 74 17 103 31 30 14 75 45 99 71 l45 46 20 -46
c18 -41 24 -46 48 -43 18 2 32 12 40 30 7 14 11 32 8 40 -3 7 -15 18 -28 23
-20 9 -22 17 -22 95 0 68 -3 85 -15 85 -8 0 -20 -11 -27 -25 -7 -14 -16 -46
-19 -72 -4 -27 -10 -48 -15 -48 -5 0 -33 -22 -63 -49 -32 -29 -77 -58 -112
-71 -46 -17 -73 -21 -120 -17 -34 2 -74 11 -90 18 -16 8 -37 31 -48 53 -15 30
-17 46 -10 75 8 33 12 36 49 39 22 2 68 12 103 23 44 15 78 35 117 71 48 44
55 55 55 88 0 30 -6 43 -26 59 -15 12 -41 21 -59 21z m4 -52 c16 -2 27 -10 29
-21 2 -11 -11 -33 -35 -56 -22 -20 -65 -47 -97 -59 -32 -12 -64 -22 -72 -22
-8 0 -14 4 -14 9 0 4 10 21 22 36 12 15 49 48 82 72 41 30 68 43 85 41z"/>
</g>
</svg>
