<?xml version="1.0" standalone="no"?>
<!DOCTYPE svg PUBLIC "-//W3C//DTD SVG 20010904//EN"
 "http://www.w3.org/TR/2001/REC-SVG-20010904/DTD/svg10.dtd">
<svg version="1.0" xmlns="http://www.w3.org/2000/svg"
 width="158.000000pt" height="173.000000pt" viewBox="0 0 158.000000 173.000000"
 preserveAspectRatio="xMidYMid meet">
<metadata>
Created by potrace 1.16, written by Peter Selinger 2001-2019
</metadata>
<g transform="translate(0.000000,173.000000) scale(0.100000,-0.100000)"
fill="#000000" stroke="none">
<path d="M872 970 c-15 -1 -43 -7 -63 -14 -20 -7 -52 -23 -70 -37 -19 -13 -42
-33 -51 -44 -10 -11 -17 -30 -18 -41 0 -12 7 -27 16 -35 8 -7 52 -31 97 -54
48 -24 87 -51 93 -64 7 -12 9 -32 6 -43 -2 -11 -19 -28 -36 -39 -17 -10 -50
-21 -73 -25 -33 -5 -52 -1 -83 15 -22 12 -47 21 -55 21 -7 0 -17 -4 -20 -10
-3 -5 -1 -19 5 -31 7 -11 27 -27 45 -35 19 -8 63 -14 97 -14 40 0 78 7 105 20
25 11 51 33 63 52 11 18 20 50 20 70 0 24 -8 46 -25 66 -13 16 -58 46 -100 66
-42 20 -75 43 -75 51 0 8 18 24 41 36 29 14 55 19 88 17 41 -3 46 0 49 18 2
12 -4 29 -13 38 -9 9 -28 16 -43 16z"/>
</g>
</svg>
