<?xml version="1.0" standalone="no"?>
<!DOCTYPE svg PUBLIC "-//W3C//DTD SVG 20010904//EN"
 "http://www.w3.org/TR/2001/REC-SVG-20010904/DTD/svg10.dtd">
<svg version="1.0" xmlns="http://www.w3.org/2000/svg"
 width="155.000000pt" height="171.000000pt" viewBox="0 0 155.000000 171.000000"
 preserveAspectRatio="xMidYMid meet">
<metadata>
Created by potrace 1.16, written by Peter Selinger 2001-2019
</metadata>
<g transform="translate(0.000000,171.000000) scale(0.100000,-0.100000)"
fill="#000000" stroke="none">
<path d="M994 1308 c-16 2 -38 -25 -114 -140 -51 -79 -113 -180 -137 -226 -23
-45 -43 -90 -43 -100 0 -10 -16 -42 -36 -72 -19 -30 -45 -63 -57 -72 -12 -10
-34 -18 -49 -18 -21 0 -29 6 -34 26 -4 14 -4 58 0 98 4 40 11 88 16 107 6 19
17 88 26 154 8 66 13 134 9 151 -3 18 -12 35 -20 38 -8 3 -22 3 -30 0 -8 -4
-15 -16 -15 -28 0 -11 -5 -73 -10 -136 -6 -63 -17 -149 -24 -190 -8 -41 -17
-96 -21 -122 -3 -26 -1 -65 5 -86 6 -23 21 -47 35 -56 14 -9 45 -16 72 -16 44
0 50 3 106 60 56 58 60 61 90 51 18 -5 64 -13 102 -16 39 -4 95 -13 124 -22
30 -8 81 -28 113 -44 31 -16 65 -29 73 -29 11 0 15 7 13 23 -2 16 -22 32 -78
60 -41 20 -104 44 -140 52 -36 8 -92 21 -125 27 -48 10 -61 17 -63 33 -2 12
13 57 33 100 20 44 75 137 121 206 67 99 85 133 82 155 -2 20 -9 30 -24 32z"/>
</g>
</svg>
