<?xml version="1.0" standalone="no"?>
<!DOCTYPE svg PUBLIC "-//W3C//DTD SVG 20010904//EN"
 "http://www.w3.org/TR/2001/REC-SVG-20010904/DTD/svg10.dtd">
<svg version="1.0" xmlns="http://www.w3.org/2000/svg"
 width="153.000000pt" height="167.000000pt" viewBox="0 0 153.000000 167.000000"
 preserveAspectRatio="xMidYMid meet">
<metadata>
Created by potrace 1.16, written by Peter Selinger 2001-2019
</metadata>
<g transform="translate(0.000000,167.000000) scale(0.100000,-0.100000)"
fill="#000000" stroke="none">
<path d="M780 1260 c-3 0 -10 -3 -13 -7 -4 -3 -7 -17 -7 -30 0 -13 -6 -36 -14
-51 -7 -15 -23 -74 -35 -132 -12 -58 -26 -119 -32 -136 -9 -31 -11 -31 -87
-37 -42 -3 -99 -12 -127 -19 -39 -10 -51 -18 -53 -35 -3 -18 1 -23 20 -23 13
0 58 7 101 15 43 8 87 15 98 15 15 0 19 -7 19 -33 0 -18 -7 -43 -16 -55 -14
-21 -23 -22 -133 -22 -97 0 -121 -3 -132 -16 -11 -14 -10 -18 6 -30 16 -12 42
-13 129 -8 l109 7 -6 -44 c-3 -24 -13 -79 -21 -122 -8 -44 -12 -85 -9 -93 3
-8 15 -14 26 -12 12 2 30 18 41 37 15 27 17 37 8 52 -7 10 -12 40 -11 66 0 27
5 64 12 83 11 31 17 36 57 42 25 3 64 7 88 7 36 1 42 -2 42 -20 0 -11 -18 -94
-39 -182 -22 -89 -45 -188 -51 -219 -6 -32 -9 -62 -5 -68 3 -5 13 -10 20 -10
8 0 22 11 31 25 9 13 21 46 28 72 9 35 9 56 2 76 -9 22 -4 54 24 164 18 74 41
145 50 156 15 18 32 21 143 25 l127 5 0 30 0 30 -67 -7 c-38 -4 -95 -10 -127
-13 l-59 -6 7 43 c4 24 9 47 12 51 2 4 23 10 47 13 23 3 81 8 129 11 82 5 88
4 117 -21 17 -14 38 -24 45 -21 9 4 12 14 9 27 -3 11 -17 30 -32 41 -24 19
-36 21 -156 18 -125 -4 -130 -3 -128 16 1 11 8 47 16 80 9 33 30 94 47 135 17
41 34 83 37 93 4 12 0 17 -16 17 -14 0 -25 -9 -31 -25 -5 -14 -19 -38 -30 -53
-10 -15 -31 -74 -45 -131 -15 -56 -30 -114 -35 -127 -9 -23 -14 -24 -95 -24
-82 0 -85 1 -85 23 0 12 14 72 30 132 16 61 35 129 41 152 10 34 10 44 0 57
-8 9 -17 16 -21 16z m23 -430 l77 0 0 -33 c0 -18 -6 -40 -12 -49 -9 -11 -37
-17 -97 -21 l-83 -5 5 45 c3 25 11 49 18 54 8 5 49 9 92 9z"/>
</g>
</svg>
