<?xml version="1.0" standalone="no"?>
<!DOCTYPE svg PUBLIC "-//W3C//DTD SVG 20010904//EN"
 "http://www.w3.org/TR/2001/REC-SVG-20010904/DTD/svg10.dtd">
<svg version="1.0" xmlns="http://www.w3.org/2000/svg"
 width="153.000000pt" height="166.000000pt" viewBox="0 0 153.000000 166.000000"
 preserveAspectRatio="xMidYMid meet">
<metadata>
Created by potrace 1.16, written by Peter Selinger 2001-2019
</metadata>
<g transform="translate(0.000000,166.000000) scale(0.100000,-0.100000)"
fill="#000000" stroke="none">
<path d="M865 1155 c-25 3 -58 -1 -90 -13 -28 -9 -65 -27 -82 -40 -17 -12 -41
-38 -53 -57 -14 -23 -20 -47 -18 -71 2 -21 8 -39 15 -41 7 -3 17 14 25 39 7
23 28 58 48 78 20 20 54 41 76 48 23 6 51 12 62 12 11 0 28 -7 36 -16 11 -10
16 -34 16 -74 0 -35 -8 -82 -21 -114 -11 -30 -42 -88 -68 -129 -27 -40 -81
-105 -121 -144 -39 -40 -69 -76 -66 -81 3 -5 23 -12 44 -16 22 -3 95 1 163 9
68 7 168 17 221 21 54 4 105 12 114 19 10 7 14 17 10 23 -5 8 -30 10 -79 7
-40 -3 -124 -10 -188 -16 -64 -5 -128 -7 -143 -3 -14 3 -26 10 -26 15 0 4 24
37 54 72 30 35 68 85 85 113 18 27 41 78 51 113 11 35 20 92 20 126 0 52 -4
69 -22 89 -15 17 -37 28 -63 31z"/>
</g>
</svg>
