<?xml version="1.0" standalone="no"?>
<!DOCTYPE svg PUBLIC "-//W3C//DTD SVG 20010904//EN"
 "http://www.w3.org/TR/2001/REC-SVG-20010904/DTD/svg10.dtd">
<svg version="1.0" xmlns="http://www.w3.org/2000/svg"
 width="155.000000pt" height="172.000000pt" viewBox="0 0 155.000000 172.000000"
 preserveAspectRatio="xMidYMid meet">
<metadata>
Created by potrace 1.16, written by Peter Selinger 2001-2019
</metadata>
<g transform="translate(0.000000,172.000000) scale(0.100000,-0.100000)"
fill="#000000" stroke="none">
<path d="M601 1220 c-11 0 -22 -8 -25 -17 -2 -10 -7 -36 -11 -58 -3 -22 -12
-112 -20 -200 -8 -88 -15 -190 -15 -227 0 -38 -4 -68 -9 -68 -6 0 -13 5 -16
10 -3 6 -15 10 -26 10 -12 0 -19 -7 -19 -20 0 -12 10 -31 23 -43 12 -12 43
-39 68 -60 26 -20 74 -49 108 -62 39 -16 80 -25 116 -25 36 0 70 7 95 20 22
11 46 33 55 50 8 16 15 51 15 78 0 27 -7 69 -15 93 -9 25 -29 62 -46 82 -17
21 -48 47 -70 57 -29 15 -49 19 -79 14 -22 -4 -61 -20 -86 -36 -26 -16 -49
-26 -52 -23 -3 3 0 43 7 88 7 45 17 133 22 196 5 63 7 121 5 128 -3 7 -14 13
-25 13z m143 -420 c16 0 43 -9 62 -20 19 -12 43 -42 58 -72 16 -32 26 -69 26
-96 0 -35 -6 -49 -31 -74 -29 -29 -33 -30 -97 -26 -37 3 -90 15 -119 28 l-53
22 6 57 c4 31 13 71 22 89 8 18 33 46 56 62 22 16 54 29 70 30z"/>
</g>
</svg>
