<?xml version="1.0" standalone="no"?>
<!DOCTYPE svg PUBLIC "-//W3C//DTD SVG 20010904//EN"
 "http://www.w3.org/TR/2001/REC-SVG-20010904/DTD/svg10.dtd">
<svg version="1.0" xmlns="http://www.w3.org/2000/svg"
 width="151.000000pt" height="168.000000pt" viewBox="0 0 151.000000 168.000000"
 preserveAspectRatio="xMidYMid meet">
<metadata>
Created by potrace 1.16, written by Peter Selinger 2001-2019
</metadata>
<g transform="translate(0.000000,168.000000) scale(0.100000,-0.100000)"
fill="#000000" stroke="none">
<path d="M528 1330 c-10 0 -21 -7 -25 -16 -3 -9 -1 -24 5 -33 7 -9 30 -45 52
-81 23 -36 60 -94 82 -130 23 -36 63 -105 89 -155 26 -49 75 -137 108 -195 33
-58 82 -146 110 -196 28 -50 68 -144 90 -210 22 -65 43 -139 47 -164 4 -25 11
-51 17 -57 5 -7 17 -13 27 -13 10 0 24 7 31 16 11 14 10 22 -8 53 -11 20 -31
72 -43 116 -12 44 -37 117 -56 163 -19 46 -65 133 -102 195 -38 62 -95 162
-127 222 -32 61 -91 171 -133 245 -41 74 -90 159 -110 188 -21 32 -42 52 -54
52z"/>
</g>
</svg>
