<?xml version="1.0" standalone="no"?>
<!DOCTYPE svg PUBLIC "-//W3C//DTD SVG 20010904//EN"
 "http://www.w3.org/TR/2001/REC-SVG-20010904/DTD/svg10.dtd">
<svg version="1.0" xmlns="http://www.w3.org/2000/svg"
 width="165.000000pt" height="180.000000pt" viewBox="0 0 165.000000 180.000000"
 preserveAspectRatio="xMidYMid meet">
<metadata>
Created by potrace 1.16, written by Peter Selinger 2001-2019
</metadata>
<g transform="translate(0.000000,180.000000) scale(0.100000,-0.100000)"
fill="#000000" stroke="none">
<path d="M802 1557 c-79 3 -93 1 -147 -25 -33 -16 -81 -48 -107 -71 -27 -24
-48 -50 -48 -59 0 -10 16 -28 35 -41 20 -13 38 -21 41 -18 3 3 0 15 -6 27 -9
17 -8 25 5 40 8 9 44 31 78 48 34 17 71 33 83 37 20 5 21 1 27 -72 4 -54 2
-84 -8 -102 -7 -14 -31 -41 -54 -59 -23 -18 -50 -51 -61 -72 -11 -22 -20 -54
-20 -72 0 -18 9 -48 20 -66 12 -20 37 -40 64 -52 40 -17 45 -22 44 -50 -1 -18
5 -36 13 -41 8 -5 22 -9 31 -9 10 0 20 10 22 23 3 12 7 31 8 42 3 16 14 21 56
27 29 5 66 15 82 23 18 9 30 24 30 35 0 11 -6 20 -14 20 -7 0 -33 -7 -56 -15
-23 -8 -56 -15 -71 -15 l-29 0 5 113 c3 61 8 126 11 143 2 17 19 45 39 64 19
18 40 49 46 67 6 19 8 49 5 68 -4 18 -14 39 -22 46 -9 8 -51 14 -102 16z m-40
-317 c5 0 8 -12 8 -27 0 -16 -3 -58 -7 -95 -4 -47 -10 -68 -19 -68 -8 0 -23 9
-34 20 -13 13 -20 33 -20 58 1 27 9 47 33 75 17 20 35 37 39 37z M774 846
c-22 2 -37 -6 -66 -37 -20 -21 -42 -57 -48 -78 -7 -26 -7 -48 -1 -64 6 -14 20
-31 32 -37 11 -7 35 -9 53 -6 17 3 49 20 70 38 37 30 38 33 34 85 -3 37 -11
61 -25 75 -12 11 -34 22 -49 24z"/>
</g>
</svg>
