<?xml version="1.0" standalone="no"?>
<!DOCTYPE svg PUBLIC "-//W3C//DTD SVG 20010904//EN"
 "http://www.w3.org/TR/2001/REC-SVG-20010904/DTD/svg10.dtd">
<svg version="1.0" xmlns="http://www.w3.org/2000/svg"
 width="165.000000pt" height="181.000000pt" viewBox="0 0 165.000000 181.000000"
 preserveAspectRatio="xMidYMid meet">
<metadata>
Created by potrace 1.16, written by Peter Selinger 2001-2019
</metadata>
<g transform="translate(0.000000,181.000000) scale(0.100000,-0.100000)"
fill="#000000" stroke="none">
<path d="M917 1440 c-4 0 -19 -11 -32 -25 -14 -13 -25 -30 -25 -38 0 -8 -14
-17 -31 -21 -17 -3 -42 -6 -55 -6 -13 0 -36 -8 -51 -17 -16 -10 -50 -41 -76
-69 -39 -42 -49 -61 -58 -109 -6 -32 -8 -68 -5 -80 3 -13 21 -33 39 -44 26
-16 52 -20 124 -22 79 -1 92 -4 96 -19 3 -10 1 -96 -4 -192 -4 -95 -8 -208 -8
-250 -1 -49 3 -78 10 -78 5 0 7 5 4 10 -4 6 5 10 19 10 14 0 34 8 44 18 14 14
21 42 26 103 4 46 8 93 8 104 0 11 -5 40 -10 66 -7 27 -8 79 -3 132 6 62 14
93 26 107 10 11 21 20 24 20 3 0 6 -116 6 -258 0 -257 0 -257 29 -255 16 1 37
10 47 19 18 17 19 35 18 314 0 181 4 342 12 413 9 81 10 120 2 128 -7 7 -17 7
-34 -1 -13 -6 -35 -27 -49 -45 -14 -19 -28 -35 -31 -35 -4 0 -9 20 -12 46 -3
28 -12 50 -23 59 -11 8 -23 15 -27 15z m-114 -176 c9 -2 21 -5 26 -8 5 -3 12
-26 15 -50 4 -24 4 -55 0 -69 -4 -18 -16 -29 -37 -36 -18 -5 -52 -6 -77 -3
-43 7 -45 8 -48 45 -3 30 3 46 28 77 17 21 41 40 53 42 12 2 30 3 40 2z m185
-23 c2 -7 1 -37 -3 -67 -3 -30 -10 -54 -15 -54 -4 0 -10 11 -14 23 -3 13 -2
38 3 55 5 17 13 37 17 44 6 9 9 9 12 -1z"/>
</g>
</svg>
