<?xml version="1.0" standalone="no"?>
<!DOCTYPE svg PUBLIC "-//W3C//DTD SVG 20010904//EN"
 "http://www.w3.org/TR/2001/REC-SVG-20010904/DTD/svg10.dtd">
<svg version="1.0" xmlns="http://www.w3.org/2000/svg"
 width="154.000000pt" height="168.000000pt" viewBox="0 0 154.000000 168.000000"
 preserveAspectRatio="xMidYMid meet">
<metadata>
Created by potrace 1.16, written by Peter Selinger 2001-2019
</metadata>
<g transform="translate(0.000000,168.000000) scale(0.100000,-0.100000)"
fill="#000000" stroke="none">
<path d="M849 689 c-2 -1 -22 -5 -44 -10 -22 -4 -79 -8 -127 -8 -52 -1 -90 -5
-94 -12 -3 -6 1 -18 9 -27 13 -12 36 -15 114 -13 54 1 111 -3 127 -9 21 -8 32
-7 42 1 8 6 14 19 14 29 0 9 -8 24 -18 33 -10 10 -20 16 -23 16z"/>
</g>
</svg>
