<?xml version="1.0" standalone="no"?>
<!DOCTYPE svg PUBLIC "-//W3C//DTD SVG 20010904//EN"
 "http://www.w3.org/TR/2001/REC-SVG-20010904/DTD/svg10.dtd">
<svg version="1.0" xmlns="http://www.w3.org/2000/svg"
 width="156.000000pt" height="171.000000pt" viewBox="0 0 156.000000 171.000000"
 preserveAspectRatio="xMidYMid meet">
<metadata>
Created by potrace 1.16, written by Peter Selinger 2001-2019
</metadata>
<g transform="translate(0.000000,171.000000) scale(0.100000,-0.100000)"
fill="#000000" stroke="none">
<path d="M731 1195 c-25 3 -58 1 -73 -4 -14 -5 -45 -19 -68 -32 -22 -13 -50
-38 -62 -57 -18 -30 -20 -44 -15 -120 4 -67 13 -108 41 -180 20 -52 36 -97 36
-100 0 -4 -7 4 -16 16 -8 12 -22 22 -30 22 -8 0 -14 -9 -14 -19 0 -11 4 -31 9
-44 5 -14 30 -39 54 -57 35 -24 48 -42 57 -76 7 -24 19 -49 26 -55 8 -6 21 -9
29 -5 9 3 15 18 15 37 0 28 2 31 23 24 12 -4 52 -9 89 -12 38 -3 81 0 102 7
19 6 58 31 85 56 27 24 59 64 70 87 13 26 21 63 21 93 0 28 -10 73 -23 104
-13 31 -38 78 -57 105 -18 27 -59 73 -89 102 -31 29 -80 65 -110 79 -30 14
-75 27 -100 29z m7 -49 c31 -3 70 -15 95 -30 24 -13 69 -50 100 -82 34 -35 72
-86 92 -127 26 -51 35 -83 35 -119 0 -27 -7 -64 -14 -83 -8 -19 -37 -57 -65
-85 l-50 -50 -73 1 c-40 0 -91 6 -113 13 -40 12 -40 12 -47 71 -3 33 -9 128
-13 210 -4 93 -3 160 3 176 6 16 7 31 1 42 -6 9 -16 17 -24 17 -8 0 -19 -9
-26 -21 -7 -15 -9 -66 -4 -171 5 -102 4 -149 -3 -145 -5 4 -22 37 -37 74 -17
44 -29 95 -32 143 -5 67 -3 78 18 104 12 16 41 37 63 48 30 14 55 18 94 14z"/>
</g>
</svg>
