<?xml version="1.0" standalone="no"?>
<!DOCTYPE svg PUBLIC "-//W3C//DTD SVG 20010904//EN"
 "http://www.w3.org/TR/2001/REC-SVG-20010904/DTD/svg10.dtd">
<svg version="1.0" xmlns="http://www.w3.org/2000/svg"
 width="156.000000pt" height="172.000000pt" viewBox="0 0 156.000000 172.000000"
 preserveAspectRatio="xMidYMid meet">
<metadata>
Created by potrace 1.16, written by Peter Selinger 2001-2019
</metadata>
<g transform="translate(0.000000,172.000000) scale(0.100000,-0.100000)"
fill="#000000" stroke="none">
<path d="M585 1204 c-6 2 -16 1 -22 -2 -5 -4 -16 -18 -24 -32 -9 -18 -13 -67
-14 -165 0 -140 0 -140 -25 -136 -14 2 -33 4 -44 5 -10 0 -23 -7 -30 -16 -8
-14 -8 -22 2 -35 7 -10 21 -31 32 -48 11 -16 29 -57 40 -90 11 -33 24 -94 30
-135 6 -41 13 -83 16 -93 3 -9 13 -21 23 -27 13 -6 24 -5 37 4 17 13 18 19 5
87 -7 41 -17 99 -22 129 -5 30 -6 76 -3 102 6 47 6 47 63 64 31 9 110 27 176
41 65 13 130 30 142 39 13 8 23 23 23 33 0 11 -6 21 -12 24 -7 2 -35 -2 -63
-9 -27 -6 -75 -19 -105 -27 -30 -8 -88 -20 -128 -27 -40 -6 -76 -9 -79 -6 -3
3 -6 20 -6 38 -1 18 0 61 1 95 2 62 2 62 40 73 20 5 69 12 107 15 39 3 140 13
225 22 85 8 161 20 168 25 6 6 12 19 12 29 0 13 -7 19 -22 19 -13 0 -90 -7
-173 -15 -82 -8 -192 -18 -244 -23 -91 -8 -94 -7 -104 15 -5 12 -15 24 -22 27z"/>
</g>
</svg>
