<?xml version="1.0" standalone="no"?>
<!DOCTYPE svg PUBLIC "-//W3C//DTD SVG 20010904//EN"
 "http://www.w3.org/TR/2001/REC-SVG-20010904/DTD/svg10.dtd">
<svg version="1.0" xmlns="http://www.w3.org/2000/svg"
 width="157.000000pt" height="173.000000pt" viewBox="0 0 157.000000 173.000000"
 preserveAspectRatio="xMidYMid meet">
<metadata>
Created by potrace 1.16, written by Peter Selinger 2001-2019
</metadata>
<g transform="translate(0.000000,173.000000) scale(0.100000,-0.100000)"
fill="#000000" stroke="none">
<path d="M820 1120 c-5 0 -17 -11 -26 -25 -13 -20 -14 -30 -4 -60 9 -26 17
-35 34 -35 12 0 27 5 34 12 7 7 12 22 12 34 0 12 -9 33 -21 48 -11 14 -25 26
-29 26z M827 818 c-10 2 -20 -4 -23 -13 -4 -9 -2 -33 4 -53 6 -20 16 -72 23
-114 10 -61 10 -96 0 -170 -7 -57 -20 -108 -34 -132 -12 -22 -37 -51 -56 -63
-20 -13 -49 -23 -70 -23 -20 0 -51 9 -68 20 -19 11 -42 39 -54 65 -12 25 -28
45 -35 45 -8 0 -17 -7 -20 -15 -4 -8 -3 -27 1 -42 3 -15 28 -49 54 -75 42 -42
54 -48 92 -49 24 -1 55 0 69 1 14 1 34 7 45 12 11 6 37 27 58 47 27 26 43 54
58 100 11 36 22 103 25 150 4 49 1 118 -5 161 -7 41 -20 91 -30 110 -10 19
-25 36 -34 38z"/>
</g>
</svg>
