<?xml version="1.0" standalone="no"?>
<!DOCTYPE svg PUBLIC "-//W3C//DTD SVG 20010904//EN"
 "http://www.w3.org/TR/2001/REC-SVG-20010904/DTD/svg10.dtd">
<svg version="1.0" xmlns="http://www.w3.org/2000/svg"
 width="165.000000pt" height="181.000000pt" viewBox="0 0 165.000000 181.000000"
 preserveAspectRatio="xMidYMid meet">
<metadata>
Created by potrace 1.16, written by Peter Selinger 2001-2019
</metadata>
<g transform="translate(0.000000,181.000000) scale(0.100000,-0.100000)"
fill="#000000" stroke="none">
<path d="M815 970 c-22 -1 -56 -10 -76 -20 -20 -11 -48 -33 -63 -50 -14 -18
-26 -42 -26 -55 0 -12 7 -38 15 -58 8 -19 36 -52 64 -73 28 -22 62 -47 76 -57
14 -10 25 -26 25 -36 0 -10 -8 -25 -18 -34 -11 -10 -35 -17 -57 -17 -22 0 -59
7 -82 16 -34 13 -46 14 -58 4 -8 -7 -12 -16 -9 -21 3 -5 19 -16 36 -25 16 -8
53 -19 81 -24 34 -6 66 -5 90 2 21 7 49 25 63 41 13 15 24 37 24 48 0 11 -7
33 -15 49 -8 16 -42 48 -75 70 -32 22 -66 50 -74 62 -9 12 -16 34 -16 49 0 14
8 33 18 42 9 8 30 21 46 27 25 9 34 8 59 -10 26 -20 30 -20 53 -6 13 9 24 21
24 26 0 6 -15 19 -32 30 -19 11 -50 20 -73 20z"/>
</g>
</svg>
