<?xml version="1.0" standalone="no"?>
<!DOCTYPE svg PUBLIC "-//W3C//DTD SVG 20010904//EN"
 "http://www.w3.org/TR/2001/REC-SVG-20010904/DTD/svg10.dtd">
<svg version="1.0" xmlns="http://www.w3.org/2000/svg"
 width="157.000000pt" height="172.000000pt" viewBox="0 0 157.000000 172.000000"
 preserveAspectRatio="xMidYMid meet">
<metadata>
Created by potrace 1.16, written by Peter Selinger 2001-2019
</metadata>
<g transform="translate(0.000000,172.000000) scale(0.100000,-0.100000)"
fill="#000000" stroke="none">
<path d="M969 1270 c-9 0 -39 -27 -66 -60 -26 -33 -78 -117 -115 -187 -36 -70
-87 -181 -113 -247 -38 -96 -48 -131 -49 -185 0 -36 5 -79 12 -96 7 -16 29
-41 48 -55 26 -17 54 -25 98 -28 50 -3 74 1 126 23 36 15 97 48 135 73 39 25
89 61 113 79 23 19 42 41 42 49 0 8 -3 14 -6 14 -4 0 -54 -30 -113 -67 -58
-36 -131 -78 -161 -91 -42 -19 -70 -25 -118 -24 -39 0 -73 7 -87 16 -14 9 -29
34 -36 58 -9 35 -8 54 5 101 9 32 23 69 31 81 9 13 33 28 54 35 28 8 57 30 96
74 31 34 69 84 85 112 15 27 35 74 44 104 9 30 16 87 16 126 0 42 -5 76 -12
83 -7 7 -20 12 -29 12z m-21 -142 c2 -19 -6 -59 -18 -90 -11 -30 -34 -76 -51
-101 -17 -26 -43 -60 -59 -77 -15 -16 -33 -30 -39 -30 -6 0 -11 7 -11 16 0 9
23 61 52 117 28 56 61 116 72 132 11 17 28 38 36 49 14 17 15 16 18 -16z"/>
</g>
</svg>
