<?xml version="1.0" standalone="no"?>
<!DOCTYPE svg PUBLIC "-//W3C//DTD SVG 20010904//EN"
 "http://www.w3.org/TR/2001/REC-SVG-20010904/DTD/svg10.dtd">
<svg version="1.0" xmlns="http://www.w3.org/2000/svg"
 width="156.000000pt" height="168.000000pt" viewBox="0 0 156.000000 168.000000"
 preserveAspectRatio="xMidYMid meet">
<metadata>
Created by potrace 1.16, written by Peter Selinger 2001-2019
</metadata>
<g transform="translate(0.000000,168.000000) scale(0.100000,-0.100000)"
fill="#000000" stroke="none">
<path d="M859 1418 c-18 2 -31 -4 -41 -20 -9 -13 -46 -57 -82 -98 -37 -41 -84
-100 -105 -130 -20 -30 -50 -86 -65 -125 -16 -38 -37 -94 -47 -124 -11 -30
-24 -84 -30 -120 -5 -36 -10 -119 -10 -186 0 -67 7 -155 15 -196 8 -41 24 -99
35 -129 12 -30 34 -73 49 -95 15 -22 43 -50 61 -62 19 -13 49 -23 67 -23 23 0
34 5 34 15 0 8 -11 17 -24 21 -13 3 -35 18 -49 32 -14 15 -39 54 -56 87 -16
33 -40 101 -52 150 -18 78 -20 112 -17 250 4 152 6 164 37 245 18 47 42 110
54 140 11 29 47 89 79 131 32 43 81 98 109 123 28 25 55 46 61 46 5 0 8 15 6
33 -2 26 -8 33 -29 35z"/>
</g>
</svg>
