<?xml version="1.0" standalone="no"?>
<!DOCTYPE svg PUBLIC "-//W3C//DTD SVG 20010904//EN"
 "http://www.w3.org/TR/2001/REC-SVG-20010904/DTD/svg10.dtd">
<svg version="1.0" xmlns="http://www.w3.org/2000/svg"
 width="153.000000pt" height="166.000000pt" viewBox="0 0 153.000000 166.000000"
 preserveAspectRatio="xMidYMid meet">
<metadata>
Created by potrace 1.16, written by Peter Selinger 2001-2019
</metadata>
<g transform="translate(0.000000,166.000000) scale(0.100000,-0.100000)"
fill="#000000" stroke="none">
<path d="M788 1240 c-24 0 -52 -6 -63 -12 -11 -6 -39 -29 -62 -51 -23 -22 -45
-53 -48 -69 -5 -19 -1 -37 9 -53 9 -14 25 -25 36 -25 16 0 18 5 14 33 -3 21 2
42 15 64 11 18 35 39 52 49 21 11 46 14 72 11 21 -3 50 -16 63 -28 19 -17 24
-33 24 -68 0 -33 -9 -61 -30 -97 -16 -29 -40 -60 -54 -70 -13 -11 -38 -27 -55
-36 -17 -9 -31 -22 -31 -28 0 -6 10 -14 23 -19 12 -5 41 -17 65 -27 24 -10 54
-31 68 -47 18 -21 24 -40 24 -73 0 -34 -6 -51 -24 -68 -14 -15 -46 -29 -82
-36 -32 -7 -84 -10 -116 -7 -31 3 -70 13 -86 22 -16 10 -37 15 -46 12 -9 -4
-16 -13 -16 -21 0 -10 23 -22 66 -36 39 -12 94 -20 134 -20 37 0 91 8 119 17
31 9 62 28 76 45 13 16 27 45 31 64 4 20 1 53 -5 74 -7 25 -29 55 -63 85 -48
43 -51 48 -38 68 7 12 26 42 42 67 16 25 34 74 40 108 10 53 9 67 -4 96 -11
22 -31 40 -62 54 -25 12 -65 22 -88 22z"/>
</g>
</svg>
