<?xml version="1.0" standalone="no"?>
<!DOCTYPE svg PUBLIC "-//W3C//DTD SVG 20010904//EN"
 "http://www.w3.org/TR/2001/REC-SVG-20010904/DTD/svg10.dtd">
<svg version="1.0" xmlns="http://www.w3.org/2000/svg"
 width="155.000000pt" height="172.000000pt" viewBox="0 0 155.000000 172.000000"
 preserveAspectRatio="xMidYMid meet">
<metadata>
Created by potrace 1.16, written by Peter Selinger 2001-2019
</metadata>
<g transform="translate(0.000000,172.000000) scale(0.100000,-0.100000)"
fill="#000000" stroke="none">
<path d="M678 1130 c-9 0 -23 -11 -32 -25 -13 -20 -25 -25 -55 -25 -24 0 -41
-5 -44 -14 -3 -8 0 -19 6 -24 7 -5 20 -12 30 -15 9 -4 17 -12 17 -20 0 -7 -18
-56 -40 -107 -23 -51 -50 -127 -62 -168 -13 -50 -19 -94 -16 -129 3 -38 11
-60 29 -79 13 -14 38 -33 54 -42 22 -13 55 -17 130 -16 69 0 123 7 175 22 41
11 104 32 140 45 38 14 73 35 84 50 10 14 16 33 13 41 -4 9 -14 16 -23 16 -9
0 -28 -9 -44 -20 -15 -11 -48 -28 -72 -39 -24 -10 -82 -28 -128 -40 -46 -11
-107 -21 -134 -21 -28 0 -68 5 -88 10 -20 6 -46 22 -58 37 -12 15 -20 41 -20
63 0 21 11 72 25 115 14 42 32 89 40 105 8 16 24 31 35 35 13 4 24 24 36 65 9
33 23 65 30 71 9 7 76 14 170 17 138 4 159 7 177 25 16 16 17 21 5 33 -11 12
-40 12 -168 5 -146 -9 -156 -8 -176 10 -11 10 -27 19 -36 19z M872 819 c-9 -1
-33 -7 -52 -15 -19 -7 -60 -13 -90 -13 -37 -1 -71 -9 -100 -23 -30 -16 -46
-30 -48 -45 -3 -18 1 -23 20 -23 13 0 34 7 46 16 15 10 62 19 135 26 61 5 117
14 124 20 7 6 13 18 13 28 0 10 -7 21 -16 24 -9 3 -23 5 -32 5z"/>
</g>
</svg>
