<?xml version="1.0" standalone="no"?>
<!DOCTYPE svg PUBLIC "-//W3C//DTD SVG 20010904//EN"
 "http://www.w3.org/TR/2001/REC-SVG-20010904/DTD/svg10.dtd">
<svg version="1.0" xmlns="http://www.w3.org/2000/svg"
 width="153.000000pt" height="168.000000pt" viewBox="0 0 153.000000 168.000000"
 preserveAspectRatio="xMidYMid meet">
<metadata>
Created by potrace 1.16, written by Peter Selinger 2001-2019
</metadata>
<g transform="translate(0.000000,168.000000) scale(0.100000,-0.100000)"
fill="#000000" stroke="none">
<path d="M900 1488 c-43 2 -66 -3 -107 -23 -28 -15 -69 -43 -90 -63 -21 -21
-53 -68 -72 -104 -29 -58 -33 -75 -29 -118 4 -38 12 -58 34 -81 16 -17 56 -50
90 -74 33 -24 75 -60 92 -80 20 -22 32 -47 32 -64 0 -16 -10 -36 -22 -49 -13
-11 -36 -26 -52 -32 -16 -6 -44 -8 -62 -4 -19 3 -41 3 -50 0 -13 -5 -14 -9 -4
-21 8 -10 31 -15 72 -15 32 0 73 6 92 14 18 7 42 26 54 41 13 16 22 42 22 63
0 19 -9 49 -19 66 -11 17 -54 58 -97 91 -43 33 -89 70 -103 82 -23 18 -26 29
-25 76 1 44 9 67 37 114 20 32 54 73 76 91 22 18 52 37 68 43 16 6 49 7 76 4
47 -7 49 -6 45 16 -3 22 -9 24 -58 27z M735 947 c-22 2 -53 -4 -70 -11 -16 -8
-43 -31 -59 -51 -17 -23 -30 -54 -33 -79 -3 -25 2 -56 12 -81 11 -25 56 -78
121 -141 93 -91 104 -105 104 -136 0 -20 -8 -45 -17 -56 -10 -11 -40 -28 -68
-37 -37 -12 -76 -16 -150 -13 -84 2 -100 1 -100 -12 0 -12 22 -15 123 -18 67
-1 140 2 161 8 21 5 50 21 64 34 14 13 29 40 32 60 4 20 4 48 1 63 -4 17 -44
64 -100 118 -52 50 -101 104 -109 120 -8 17 -18 44 -21 62 -5 21 -2 42 9 62 8
17 27 38 41 48 14 9 42 19 62 22 23 4 37 12 37 21 0 10 -12 16 -40 17z"/>
</g>
</svg>
