<?xml version="1.0" standalone="no"?>
<!DOCTYPE svg PUBLIC "-//W3C//DTD SVG 20010904//EN"
 "http://www.w3.org/TR/2001/REC-SVG-20010904/DTD/svg10.dtd">
<svg version="1.0" xmlns="http://www.w3.org/2000/svg"
 width="156.000000pt" height="170.000000pt" viewBox="0 0 156.000000 170.000000"
 preserveAspectRatio="xMidYMid meet">
<metadata>
Created by potrace 1.16, written by Peter Selinger 2001-2019
</metadata>
<g transform="translate(0.000000,170.000000) scale(0.100000,-0.100000)"
fill="#000000" stroke="none">
<path d="M1051 1310 c-11 0 -27 -10 -35 -22 -9 -12 -16 -29 -16 -38 0 -8 -24
-46 -53 -85 -29 -38 -77 -101 -107 -140 -29 -38 -58 -70 -64 -70 -6 0 -33 36
-59 80 -26 44 -64 112 -84 150 -19 39 -42 78 -51 88 -8 9 -26 17 -39 17 -16 0
-23 -6 -23 -19 0 -10 5 -33 12 -52 6 -19 29 -54 50 -78 21 -24 38 -48 38 -53
0 -5 8 -21 18 -36 11 -15 35 -53 55 -84 21 -32 37 -63 37 -69 0 -6 -13 -29
-29 -52 -16 -23 -86 -104 -155 -180 -69 -76 -126 -141 -126 -145 0 -4 4 -13 9
-21 5 -7 13 -12 19 -10 6 2 66 65 132 139 67 74 134 152 149 172 14 21 32 37
40 35 8 -1 54 -63 102 -137 48 -74 98 -154 110 -178 12 -23 31 -49 42 -57 12
-8 29 -15 39 -15 13 0 18 8 18 27 0 16 -11 39 -27 55 -14 15 -36 43 -47 61
-12 19 -60 93 -108 166 -49 72 -88 134 -88 137 0 4 17 29 38 58 20 28 68 89
106 136 37 47 79 109 92 138 13 29 24 59 24 67 0 8 -9 15 -19 15z"/>
</g>
</svg>
