<?xml version="1.0" standalone="no"?>
<!DOCTYPE svg PUBLIC "-//W3C//DTD SVG 20010904//EN"
 "http://www.w3.org/TR/2001/REC-SVG-20010904/DTD/svg10.dtd">
<svg version="1.0" xmlns="http://www.w3.org/2000/svg"
 width="157.000000pt" height="173.000000pt" viewBox="0 0 157.000000 173.000000"
 preserveAspectRatio="xMidYMid meet">
<metadata>
Created by potrace 1.16, written by Peter Selinger 2001-2019
</metadata>
<g transform="translate(0.000000,173.000000) scale(0.100000,-0.100000)"
fill="#000000" stroke="none">
<path d="M905 1150 c-11 3 -43 3 -71 -1 -28 -3 -81 -21 -118 -38 -47 -23 -92
-57 -151 -114 -64 -63 -92 -99 -117 -152 -27 -59 -33 -82 -33 -142 0 -57 4
-77 21 -100 19 -25 27 -28 82 -28 57 0 64 3 150 63 53 36 101 62 116 62 20 0
30 -9 44 -37 11 -21 22 -54 26 -73 6 -34 2 -39 -74 -115 -43 -43 -96 -103
-116 -132 -27 -39 -38 -68 -42 -103 -3 -33 0 -55 8 -66 8 -8 33 -27 57 -41 36
-21 51 -24 87 -19 29 5 53 17 74 37 17 17 39 54 48 82 11 33 20 101 23 184 6
111 10 135 26 153 11 13 45 41 75 65 30 23 87 61 127 84 40 24 77 49 84 57 6
8 9 17 6 20 -3 4 -41 -13 -84 -36 -43 -24 -115 -68 -161 -98 -47 -31 -86 -51
-90 -46 -4 5 -14 27 -21 49 -7 22 -23 50 -34 63 -13 14 -32 22 -54 22 -19 0
-48 -7 -66 -17 -18 -9 -56 -34 -85 -55 -29 -22 -69 -46 -89 -55 -27 -11 -42
-12 -59 -4 -13 6 -26 22 -30 36 -4 15 -4 45 -2 69 3 23 18 70 33 104 21 47 48
81 109 140 52 50 103 88 139 105 31 14 68 26 84 27 15 1 34 2 41 1 7 -1 12
-15 12 -37 0 -24 4 -34 13 -32 6 3 21 21 32 41 15 28 17 41 10 53 -6 10 -20
20 -30 24z m-37 -730 c2 -48 -3 -98 -14 -138 -9 -35 -28 -77 -41 -93 -18 -21
-34 -29 -58 -29 -18 0 -44 9 -60 22 -24 19 -26 26 -21 61 5 26 25 65 57 108
27 37 69 84 92 105 l42 39 3 -75z"/>
</g>
</svg>
