<?xml version="1.0" standalone="no"?>
<!DOCTYPE svg PUBLIC "-//W3C//DTD SVG 20010904//EN"
 "http://www.w3.org/TR/2001/REC-SVG-20010904/DTD/svg10.dtd">
<svg version="1.0" xmlns="http://www.w3.org/2000/svg"
 width="156.000000pt" height="170.000000pt" viewBox="0 0 156.000000 170.000000"
 preserveAspectRatio="xMidYMid meet">
<metadata>
Created by potrace 1.16, written by Peter Selinger 2001-2019
</metadata>
<g transform="translate(0.000000,170.000000) scale(0.100000,-0.100000)"
fill="#000000" stroke="none">
<path d="M1105 1320 c-8 0 -35 -28 -61 -62 -25 -35 -60 -92 -78 -128 -19 -36
-47 -103 -64 -150 -17 -47 -45 -130 -62 -185 -18 -55 -36 -106 -42 -112 -6 -7
-18 -13 -27 -13 -10 0 -29 12 -43 28 -14 15 -30 36 -36 47 -6 11 -17 55 -26
97 -9 43 -16 117 -16 165 0 48 -5 121 -10 162 -6 43 -17 82 -26 93 -10 10 -28
18 -41 18 -16 0 -27 -8 -33 -26 -6 -14 -10 -41 -10 -59 0 -19 -15 -101 -34
-182 -19 -81 -48 -200 -64 -263 -16 -63 -27 -121 -25 -127 3 -7 15 -13 28 -13
13 0 29 10 38 23 8 12 25 58 37 102 12 44 30 114 40 156 9 42 21 82 25 89 6 9
9 9 16 -1 5 -8 9 -34 9 -58 0 -25 9 -79 21 -120 11 -42 30 -90 41 -107 12 -17
35 -41 53 -52 17 -12 45 -22 61 -22 17 0 40 9 53 21 12 12 31 41 41 64 10 24
30 86 44 139 14 52 45 142 69 198 24 57 64 134 90 172 26 37 47 77 47 87 0 11
-7 19 -15 19z"/>
</g>
</svg>
