<?xml version="1.0" standalone="no"?>
<!DOCTYPE svg PUBLIC "-//W3C//DTD SVG 20010904//EN"
 "http://www.w3.org/TR/2001/REC-SVG-20010904/DTD/svg10.dtd">
<svg version="1.0" xmlns="http://www.w3.org/2000/svg"
 width="158.000000pt" height="173.000000pt" viewBox="0 0 158.000000 173.000000"
 preserveAspectRatio="xMidYMid meet">
<metadata>
Created by potrace 1.16, written by Peter Selinger 2001-2019
</metadata>
<g transform="translate(0.000000,173.000000) scale(0.100000,-0.100000)"
fill="#000000" stroke="none">
<path d="M758 1500 c-5 0 -11 -8 -14 -17 -3 -10 -10 -28 -15 -41 -5 -13 -9
-54 -9 -92 0 -58 3 -72 22 -90 12 -11 29 -20 38 -20 9 0 21 5 28 12 8 8 14 5
21 -14 5 -14 17 -28 27 -32 9 -3 23 -1 31 5 9 8 13 29 11 68 -2 31 1 87 6 124
8 68 8 69 -16 65 -16 -2 -24 -11 -26 -28 -2 -13 -10 -33 -18 -44 -8 -11 -14
-37 -14 -58 0 -20 -5 -40 -10 -43 -6 -4 -18 11 -26 32 -11 26 -15 55 -11 95 3
34 1 60 -6 67 -6 6 -15 11 -19 11z M596 1300 c-20 0 -31 -13 -64 -73 -21 -40
-46 -95 -55 -123 -9 -27 -26 -96 -37 -153 -12 -57 -21 -138 -21 -180 0 -54 7
-99 26 -158 21 -69 32 -88 68 -118 41 -36 44 -37 109 -32 45 3 85 13 122 31
30 15 69 43 86 62 17 20 43 60 57 90 15 29 30 51 35 48 4 -3 8 -16 8 -29 0
-14 11 -32 26 -44 15 -12 36 -21 48 -21 12 0 27 5 34 12 7 7 12 21 12 31 0 10
-8 21 -19 24 -10 2 -24 16 -30 29 -6 14 -11 53 -11 87 0 34 7 103 15 152 8 50
15 120 15 156 0 51 -5 72 -19 90 -16 20 -23 22 -38 13 -14 -9 -19 -29 -24 -90
-3 -43 -12 -106 -18 -139 -7 -33 -26 -103 -43 -155 -16 -52 -42 -119 -56 -148
-14 -30 -39 -64 -54 -78 -16 -13 -52 -30 -80 -39 -29 -8 -64 -15 -79 -15 -20
0 -37 11 -62 40 -22 26 -37 58 -45 92 -6 29 -13 69 -16 89 -4 19 1 74 9 122 8
48 29 129 45 181 18 56 38 99 50 107 11 8 25 35 31 60 7 25 9 53 6 62 -4 10
-17 17 -31 17z"/>
</g>
</svg>
