<?xml version="1.0" standalone="no"?>
<!DOCTYPE svg PUBLIC "-//W3C//DTD SVG 20010904//EN"
 "http://www.w3.org/TR/2001/REC-SVG-20010904/DTD/svg10.dtd">
<svg version="1.0" xmlns="http://www.w3.org/2000/svg"
 width="157.000000pt" height="171.000000pt" viewBox="0 0 157.000000 171.000000"
 preserveAspectRatio="xMidYMid meet">
<metadata>
Created by potrace 1.16, written by Peter Selinger 2001-2019
</metadata>
<g transform="translate(0.000000,171.000000) scale(0.100000,-0.100000)"
fill="#000000" stroke="none">
<path d="M474 1300 c-20 0 -53 -14 -90 -39 -33 -22 -72 -53 -88 -70 -17 -18
-26 -36 -23 -45 4 -9 14 -16 24 -16 10 0 32 9 50 19 17 11 61 29 98 40 37 12
77 21 90 21 12 0 29 -8 38 -18 9 -10 36 -58 60 -107 24 -50 52 -115 61 -147
10 -36 16 -93 16 -160 0 -68 4 -108 12 -116 7 -7 24 -12 39 -12 15 0 29 7 33
15 3 8 8 37 12 63 4 35 0 72 -15 130 -16 62 -21 112 -21 211 0 99 3 131 14
140 10 8 84 14 218 18 127 4 206 10 210 17 4 6 2 16 -3 22 -5 6 -35 15 -65 19
-31 4 -162 1 -293 -6 -212 -11 -241 -10 -290 5 -30 9 -69 16 -87 16z m209 -92
c27 -3 32 -6 30 -28 -2 -14 -6 -36 -9 -50 -6 -24 -7 -23 -29 20 -13 25 -24 49
-25 53 0 5 15 7 33 5z"/>
</g>
</svg>
