<?xml version="1.0" standalone="no"?>
<!DOCTYPE svg PUBLIC "-//W3C//DTD SVG 20010904//EN"
 "http://www.w3.org/TR/2001/REC-SVG-20010904/DTD/svg10.dtd">
<svg version="1.0" xmlns="http://www.w3.org/2000/svg"
 width="164.000000pt" height="178.000000pt" viewBox="0 0 164.000000 178.000000"
 preserveAspectRatio="xMidYMid meet">
<metadata>
Created by potrace 1.16, written by Peter Selinger 2001-2019
</metadata>
<g transform="translate(0.000000,178.000000) scale(0.100000,-0.100000)"
fill="#000000" stroke="none">
<path d="M1014 1730 c-8 0 -36 -22 -62 -49 -29 -30 -66 -87 -96 -147 -32 -66
-46 -104 -42 -120 3 -12 15 -26 27 -29 12 -4 30 0 47 12 15 10 36 23 47 29 11
6 19 15 18 20 -1 5 -7 23 -14 40 -7 17 -9 43 -5 58 4 15 34 55 66 89 33 34 60
66 60 73 0 7 -7 15 -16 18 -9 3 -22 6 -30 6z M757 1720 c-12 0 -34 -11 -48
-24 -13 -12 -45 -56 -69 -97 -25 -41 -49 -76 -54 -78 -6 -2 -20 -14 -33 -27
-13 -13 -23 -32 -23 -43 0 -11 12 -34 27 -51 22 -27 31 -31 57 -26 17 4 35 11
40 16 5 5 10 35 11 67 1 44 9 70 31 108 17 28 41 55 54 62 13 6 28 19 33 28 5
9 6 27 3 41 -4 16 -13 24 -29 24z"/>
</g>
</svg>
