<?xml version="1.0" standalone="no"?>
<!DOCTYPE svg PUBLIC "-//W3C//DTD SVG 20010904//EN"
 "http://www.w3.org/TR/2001/REC-SVG-20010904/DTD/svg10.dtd">
<svg version="1.0" xmlns="http://www.w3.org/2000/svg"
 width="154.000000pt" height="168.000000pt" viewBox="0 0 154.000000 168.000000"
 preserveAspectRatio="xMidYMid meet">
<metadata>
Created by potrace 1.16, written by Peter Selinger 2001-2019
</metadata>
<g transform="translate(0.000000,168.000000) scale(0.100000,-0.100000)"
fill="#000000" stroke="none">
<path d="M889 1288 c-10 2 -45 -28 -87 -73 -39 -41 -90 -106 -115 -143 -24
-37 -57 -92 -72 -122 -15 -30 -34 -77 -41 -105 -8 -27 -14 -85 -14 -128 0 -74
2 -79 33 -113 23 -26 45 -39 73 -43 21 -4 63 -4 92 0 29 4 72 17 97 29 24 12
62 39 84 60 26 26 42 52 47 76 4 20 3 49 -2 63 -5 14 -27 38 -49 53 -22 15
-60 30 -84 34 -28 4 -58 2 -80 -6 -20 -7 -59 -30 -87 -51 -28 -22 -54 -39 -57
-39 -4 0 -7 7 -7 15 0 9 13 51 30 93 16 43 41 94 55 112 14 19 42 46 62 60 20
14 61 61 90 105 30 45 53 88 51 100 -2 11 -10 21 -19 23z m-69 -458 c26 0 56
-7 70 -17 14 -9 28 -22 32 -27 4 -6 8 -25 8 -42 0 -17 -9 -43 -20 -57 -11 -14
-43 -37 -72 -51 -38 -19 -68 -26 -110 -26 -49 0 -63 4 -83 25 -18 18 -25 35
-25 65 0 32 4 40 19 40 10 0 25 8 32 17 8 9 34 29 58 45 33 20 58 28 91 28z"/>
</g>
</svg>
