<?xml version="1.0" standalone="no"?>
<!DOCTYPE svg PUBLIC "-//W3C//DTD SVG 20010904//EN"
 "http://www.w3.org/TR/2001/REC-SVG-20010904/DTD/svg10.dtd">
<svg version="1.0" xmlns="http://www.w3.org/2000/svg"
 width="156.000000pt" height="171.000000pt" viewBox="0 0 156.000000 171.000000"
 preserveAspectRatio="xMidYMid meet">
<metadata>
Created by potrace 1.16, written by Peter Selinger 2001-2019
</metadata>
<g transform="translate(0.000000,171.000000) scale(0.100000,-0.100000)"
fill="#000000" stroke="none">
<path d="M866 1287 c-40 1 -90 -4 -114 -12 -23 -7 -68 -32 -100 -55 -32 -22
-76 -66 -99 -98 -22 -31 -52 -81 -67 -109 -14 -29 -33 -81 -41 -115 -8 -35
-15 -99 -15 -143 0 -44 5 -98 11 -120 7 -26 28 -57 59 -87 28 -27 65 -51 87
-57 21 -6 65 -11 98 -11 33 1 78 7 100 15 22 8 45 15 51 15 6 0 43 -31 81 -69
43 -42 85 -74 108 -81 27 -9 68 -11 132 -6 51 3 104 11 119 16 14 6 24 16 21
23 -3 8 -36 12 -118 12 -63 0 -125 5 -139 12 -14 6 -46 33 -73 61 -28 31 -47
60 -47 75 0 13 15 37 36 58 19 18 44 48 54 64 10 17 30 67 45 113 24 73 26 95
23 195 -3 101 -6 118 -34 178 -21 43 -45 76 -69 95 -33 25 -48 29 -109 31z
m19 -67 c12 0 30 -9 40 -20 9 -10 18 -32 18 -47 0 -17 -10 -35 -29 -51 -16
-13 -47 -32 -69 -43 -28 -13 -63 -19 -112 -19 -56 0 -73 -3 -73 -14 0 -8 6
-16 14 -19 7 -3 34 -8 59 -12 27 -4 67 -2 97 5 28 7 78 30 110 52 33 22 64 37
69 34 5 -4 12 -39 16 -79 5 -50 2 -91 -9 -137 -8 -36 -28 -94 -44 -130 -17
-36 -44 -78 -61 -94 -30 -29 -30 -29 -49 15 -11 24 -24 61 -31 81 -7 22 -21
40 -33 44 -11 3 -25 1 -30 -4 -7 -7 -6 -23 2 -49 7 -21 21 -62 32 -91 11 -29
18 -58 15 -65 -3 -7 -23 -19 -45 -25 -21 -7 -63 -12 -91 -12 -31 0 -67 8 -89
19 -20 10 -45 28 -55 39 -11 11 -25 38 -33 59 -7 21 -13 67 -13 103 -1 36 5
88 13 115 7 28 23 72 34 99 12 26 42 77 68 112 31 44 62 74 97 94 29 16 58 30
65 30 6 0 12 -9 12 -20 0 -11 4 -20 8 -20 4 0 23 11 42 25 19 14 44 25 55 25z"/>
</g>
</svg>
