<?xml version="1.0" standalone="no"?>
<!DOCTYPE svg PUBLIC "-//W3C//DTD SVG 20010904//EN"
 "http://www.w3.org/TR/2001/REC-SVG-20010904/DTD/svg10.dtd">
<svg version="1.0" xmlns="http://www.w3.org/2000/svg"
 width="165.000000pt" height="180.000000pt" viewBox="0 0 165.000000 180.000000"
 preserveAspectRatio="xMidYMid meet">
<metadata>
Created by potrace 1.16, written by Peter Selinger 2001-2019
</metadata>
<g transform="translate(0.000000,180.000000) scale(0.100000,-0.100000)"
fill="#000000" stroke="none">
<path d="M1031 1240 c-13 0 -35 -20 -60 -53 -22 -30 -65 -77 -97 -105 -32 -29
-62 -52 -66 -52 -4 0 -50 43 -102 95 -51 52 -99 95 -105 95 -6 0 -18 -11 -27
-25 -16 -24 -15 -27 7 -60 13 -19 54 -63 92 -97 37 -34 67 -67 67 -74 0 -6
-25 -31 -56 -54 -30 -23 -69 -56 -85 -72 -16 -17 -29 -40 -29 -52 0 -12 4 -26
8 -33 4 -6 14 -12 22 -13 8 -1 21 -2 27 -1 7 0 19 14 28 30 8 16 45 54 82 85
37 31 73 56 80 56 7 0 29 -17 50 -38 21 -22 50 -53 64 -70 17 -21 36 -32 53
-32 19 0 27 6 32 26 4 14 2 35 -3 47 -6 12 -38 45 -71 72 -34 28 -61 55 -61
60 -1 6 40 46 89 90 49 44 93 90 96 103 4 13 2 34 -5 48 -6 14 -19 24 -30 24z"/>
</g>
</svg>
