<?xml version="1.0" standalone="no"?>
<!DOCTYPE svg PUBLIC "-//W3C//DTD SVG 20010904//EN"
 "http://www.w3.org/TR/2001/REC-SVG-20010904/DTD/svg10.dtd">
<svg version="1.0" xmlns="http://www.w3.org/2000/svg"
 width="164.000000pt" height="180.000000pt" viewBox="0 0 164.000000 180.000000"
 preserveAspectRatio="xMidYMid meet">
<metadata>
Created by potrace 1.16, written by Peter Selinger 2001-2019
</metadata>
<g transform="translate(0.000000,180.000000) scale(0.100000,-0.100000)"
fill="#000000" stroke="none">
<path d="M1095 1620 c-13 0 -32 -15 -51 -40 -16 -23 -43 -60 -59 -83 -17 -23
-40 -61 -53 -84 -12 -23 -32 -68 -43 -100 -11 -32 -45 -96 -77 -143 -31 -46
-84 -113 -116 -148 -33 -35 -79 -77 -102 -93 -24 -16 -47 -29 -53 -29 -6 0
-11 20 -11 48 0 26 5 65 11 87 8 29 32 61 85 115 41 41 89 100 107 130 18 30
44 82 59 115 14 33 29 75 33 94 4 21 3 42 -6 57 -9 19 -21 24 -48 24 -20 0
-54 -9 -76 -19 -22 -10 -57 -36 -77 -59 -20 -22 -44 -55 -53 -72 -9 -17 -25
-61 -36 -97 -12 -37 -26 -96 -33 -132 -12 -66 -12 -66 -56 -71 -33 -4 -46 -10
-48 -23 -2 -10 2 -24 8 -32 7 -8 25 -15 41 -15 29 0 29 0 29 -80 0 -80 0 -80
-35 -94 -19 -8 -38 -22 -41 -31 -4 -10 3 -26 17 -41 23 -24 24 -32 22 -145 0
-65 -6 -157 -13 -205 -8 -65 -8 -89 1 -100 6 -8 19 -14 29 -14 10 0 23 6 29
14 6 7 16 37 21 67 5 30 11 128 12 219 3 165 3 165 63 195 33 16 89 58 125 92
36 35 66 59 68 53 2 -6 -1 -32 -8 -59 -11 -45 -15 -50 -73 -81 -34 -18 -77
-43 -94 -57 -18 -13 -33 -33 -33 -44 0 -11 19 -43 42 -72 22 -29 56 -85 75
-126 19 -41 43 -87 54 -103 13 -18 29 -28 45 -28 16 0 28 8 35 24 9 20 7 32
-16 71 -27 45 -28 50 -21 145 3 54 12 116 18 136 12 36 20 41 98 74 47 20 108
47 135 59 28 13 62 32 78 43 15 11 27 29 27 40 0 17 -5 20 -29 15 -15 -3 -62
-22 -102 -42 -41 -20 -94 -43 -119 -51 -25 -7 -49 -14 -53 -14 -5 0 -6 19 -2
43 3 23 16 67 27 97 12 30 44 98 72 150 27 52 73 129 102 170 28 41 66 104 84
139 28 56 30 67 19 87 -7 14 -22 24 -34 24z m-353 -120 c4 0 9 -4 12 -8 2 -4
-10 -42 -29 -84 -18 -42 -47 -96 -64 -120 -17 -23 -42 -56 -55 -73 -14 -16
-28 -26 -32 -22 -4 4 1 37 11 74 10 38 28 88 41 113 13 25 31 54 41 65 10 11
29 28 43 38 13 9 28 17 32 17z m-18 -720 c5 0 6 -21 2 -46 -3 -26 -6 -57 -6
-70 0 -13 -4 -24 -8 -24 -5 0 -22 20 -40 45 -31 45 -31 45 6 70 20 14 41 25
46 25z"/>
</g>
</svg>
