<?xml version="1.0" standalone="no"?>
<!DOCTYPE svg PUBLIC "-//W3C//DTD SVG 20010904//EN"
 "http://www.w3.org/TR/2001/REC-SVG-20010904/DTD/svg10.dtd">
<svg version="1.0" xmlns="http://www.w3.org/2000/svg"
 width="153.000000pt" height="168.000000pt" viewBox="0 0 153.000000 168.000000"
 preserveAspectRatio="xMidYMid meet">
<metadata>
Created by potrace 1.16, written by Peter Selinger 2001-2019
</metadata>
<g transform="translate(0.000000,168.000000) scale(0.100000,-0.100000)"
fill="#000000" stroke="none">
<path d="M850 430 c-28 0 -45 -7 -60 -22 -11 -13 -23 -33 -27 -45 -3 -13 1
-30 8 -39 8 -10 23 -14 42 -11 18 2 31 -1 34 -10 3 -7 2 -30 -2 -50 -4 -24
-20 -49 -42 -70 -22 -21 -44 -33 -63 -33 -15 0 -38 -8 -50 -18 -22 -17 -22
-19 -4 -36 14 -15 27 -17 63 -12 26 3 64 18 85 34 22 15 50 47 63 71 19 36 23
60 23 127 0 62 -4 87 -16 98 -9 9 -32 16 -54 16z"/>
</g>
</svg>
