<?xml version="1.0" standalone="no"?>
<!DOCTYPE svg PUBLIC "-//W3C//DTD SVG 20010904//EN"
 "http://www.w3.org/TR/2001/REC-SVG-20010904/DTD/svg10.dtd">
<svg version="1.0" xmlns="http://www.w3.org/2000/svg"
 width="156.000000pt" height="169.000000pt" viewBox="0 0 156.000000 169.000000"
 preserveAspectRatio="xMidYMid meet">
<metadata>
Created by potrace 1.16, written by Peter Selinger 2001-2019
</metadata>
<g transform="translate(0.000000,169.000000) scale(0.100000,-0.100000)"
fill="#000000" stroke="none">
<path d="M511 1310 c-16 8 -23 6 -35 -12 -10 -14 -16 -44 -16 -80 0 -31 -5
-92 -10 -135 -6 -43 -18 -115 -27 -160 -16 -83 -16 -83 -85 -83 -66 0 -69 -1
-66 -22 2 -19 14 -26 63 -39 60 -16 60 -16 65 -90 4 -56 12 -83 29 -107 16
-22 30 -32 49 -32 18 0 42 14 70 41 24 23 42 49 40 58 -2 8 -11 17 -22 19 -10
2 -29 -7 -42 -19 -20 -18 -29 -21 -42 -13 -11 7 -18 27 -20 58 -2 25 0 46 3
46 3 0 29 -12 58 -26 29 -15 93 -42 144 -59 81 -29 94 -31 112 -19 18 13 20
25 18 109 -1 72 2 98 13 109 8 7 49 18 90 25 41 6 112 14 158 17 58 5 82 11
82 20 0 8 -12 17 -26 20 -14 4 -78 4 -142 1 -65 -2 -125 -8 -134 -12 -16 -6
-18 -1 -18 46 0 30 5 112 11 182 11 110 10 130 -3 143 -8 8 -21 12 -30 9 -9
-4 -19 -30 -26 -68 -6 -34 -16 -116 -23 -182 -6 -66 -15 -127 -19 -135 -5 -8
-56 -26 -121 -42 -72 -17 -117 -24 -123 -18 -6 6 1 70 17 173 15 90 27 187 27
215 0 41 -4 53 -19 62z m194 -475 c6 -1 11 -29 13 -63 3 -60 2 -62 -21 -62
-13 0 -49 9 -78 21 -30 12 -64 26 -77 32 -12 6 -21 15 -19 21 2 6 41 20 88 32
46 12 89 20 94 19z"/>
</g>
</svg>
