<?xml version="1.0" standalone="no"?>
<!DOCTYPE svg PUBLIC "-//W3C//DTD SVG 20010904//EN"
 "http://www.w3.org/TR/2001/REC-SVG-20010904/DTD/svg10.dtd">
<svg version="1.0" xmlns="http://www.w3.org/2000/svg"
 width="153.000000pt" height="166.000000pt" viewBox="0 0 153.000000 166.000000"
 preserveAspectRatio="xMidYMid meet">
<metadata>
Created by potrace 1.16, written by Peter Selinger 2001-2019
</metadata>
<g transform="translate(0.000000,166.000000) scale(0.100000,-0.100000)"
fill="#000000" stroke="none">
<path d="M841 1140 c-38 0 -73 -8 -108 -24 -33 -16 -60 -38 -77 -62 -14 -21
-26 -51 -26 -66 0 -16 3 -28 8 -28 4 1 21 24 37 53 22 38 42 58 75 75 27 14
62 22 92 22 44 0 50 -3 59 -27 6 -16 9 -55 5 -89 -3 -34 -16 -85 -29 -115 -13
-30 -45 -84 -71 -121 -26 -37 -77 -97 -114 -133 -54 -54 -64 -68 -52 -76 9 -6
54 -8 114 -4 55 3 129 10 165 15 36 6 102 12 146 14 44 2 83 5 88 5 4 1 7 8 7
17 0 12 -7 14 -27 10 -16 -3 -77 -8 -138 -12 -60 -3 -143 -7 -183 -9 -55 -2
-75 1 -79 12 -3 7 7 28 21 46 14 17 46 57 70 87 24 30 55 78 69 105 14 28 30
70 37 93 6 24 12 70 12 103 1 49 -3 64 -22 84 -20 21 -33 25 -79 25z"/>
</g>
</svg>
