<?xml version="1.0" standalone="no"?>
<!DOCTYPE svg PUBLIC "-//W3C//DTD SVG 20010904//EN"
 "http://www.w3.org/TR/2001/REC-SVG-20010904/DTD/svg10.dtd">
<svg version="1.0" xmlns="http://www.w3.org/2000/svg"
 width="157.000000pt" height="173.000000pt" viewBox="0 0 157.000000 173.000000"
 preserveAspectRatio="xMidYMid meet">
<metadata>
Created by potrace 1.16, written by Peter Selinger 2001-2019
</metadata>
<g transform="translate(0.000000,173.000000) scale(0.100000,-0.100000)"
fill="#000000" stroke="none">
<path d="M747 920 c-27 0 -40 -9 -80 -59 -31 -39 -56 -84 -72 -132 -15 -44
-25 -95 -25 -130 0 -50 3 -60 26 -78 17 -14 41 -21 67 -21 37 0 46 6 92 55 28
30 53 55 56 55 4 0 12 -27 19 -60 8 -36 11 -90 7 -134 -3 -50 -15 -98 -37
-150 -18 -42 -40 -81 -50 -86 -10 -6 -32 -10 -47 -10 -16 0 -50 13 -75 29 -25
16 -57 44 -71 63 -15 19 -33 51 -42 71 -9 21 -22 40 -30 44 -9 3 -22 0 -30 -7
-8 -7 -15 -26 -15 -42 0 -17 13 -49 33 -76 17 -25 52 -64 76 -86 24 -23 55
-47 68 -55 17 -8 49 -12 94 -9 59 3 72 8 99 33 18 17 38 45 46 64 8 19 21 54
30 79 8 25 20 80 25 123 9 63 8 99 -5 179 -9 55 -23 112 -32 125 -10 15 -26
25 -40 25 -22 0 -23 3 -18 44 4 25 4 60 0 80 -4 19 -14 42 -22 51 -9 8 -30 15
-47 15z m-9 -124 c2 -15 -6 -43 -17 -62 -12 -19 -21 -44 -21 -54 0 -10 7 -23
15 -27 12 -7 10 -15 -14 -43 -16 -19 -33 -31 -38 -27 -4 5 -8 27 -7 50 0 23
14 69 29 102 15 33 33 66 39 74 9 12 12 9 14 -13z"/>
</g>
</svg>
