<?xml version="1.0" standalone="no"?>
<!DOCTYPE svg PUBLIC "-//W3C//DTD SVG 20010904//EN"
 "http://www.w3.org/TR/2001/REC-SVG-20010904/DTD/svg10.dtd">
<svg version="1.0" xmlns="http://www.w3.org/2000/svg"
 width="164.000000pt" height="177.000000pt" viewBox="0 0 164.000000 177.000000"
 preserveAspectRatio="xMidYMid meet">
<metadata>
Created by potrace 1.16, written by Peter Selinger 2001-2019
</metadata>
<g transform="translate(0.000000,177.000000) scale(0.100000,-0.100000)"
fill="#000000" stroke="none">
<path d="M650 1450 c-10 0 -68 -41 -130 -90 -61 -50 -126 -98 -143 -107 -18
-9 -45 -19 -62 -23 -20 -4 -31 -13 -33 -27 -2 -14 4 -22 18 -26 12 -3 41 1 64
9 24 8 83 46 130 85 48 38 91 69 96 69 6 0 10 -8 10 -18 0 -9 -9 -50 -20 -90
-11 -39 -20 -85 -20 -101 0 -16 7 -34 14 -41 8 -6 25 -10 38 -8 21 3 23 7 20
59 -2 36 4 78 17 120 11 35 23 83 26 106 4 23 4 51 0 63 -3 11 -15 20 -25 20z
M1021 1390 c-10 0 -44 -29 -75 -64 -31 -36 -153 -156 -271 -266 -139 -131
-212 -207 -208 -216 3 -8 10 -14 17 -14 6 1 52 35 101 76 50 41 162 146 250
232 88 86 173 166 189 177 24 17 28 25 22 48 -4 17 -13 27 -25 27z M969 1070
c-6 0 -24 -14 -39 -30 -16 -17 -48 -65 -71 -108 -23 -42 -51 -93 -61 -112 -10
-19 -18 -43 -18 -53 0 -11 13 -23 35 -33 19 -7 65 -14 103 -14 44 0 73 -5 79
-12 6 -8 7 -56 3 -117 -4 -58 -5 -113 -3 -122 3 -10 12 -20 20 -23 8 -3 18 -4
22 -1 4 2 11 59 14 125 4 67 11 129 16 139 8 15 29 19 113 25 56 3 106 10 112
16 5 5 6 16 2 26 -6 15 -18 16 -113 11 l-106 -7 8 53 c4 28 8 63 9 77 1 18 -5
26 -21 28 -13 2 -25 -4 -31 -15 -6 -10 -13 -45 -17 -78 -4 -33 -13 -63 -19
-67 -6 -4 -37 -8 -68 -8 -31 0 -63 3 -72 6 -9 3 -16 12 -16 19 0 8 14 40 31
72 18 32 49 85 71 117 21 33 37 65 34 73 -3 7 -10 13 -17 13z"/>
</g>
</svg>
