<?xml version="1.0" standalone="no"?>
<!DOCTYPE svg PUBLIC "-//W3C//DTD SVG 20010904//EN"
 "http://www.w3.org/TR/2001/REC-SVG-20010904/DTD/svg10.dtd">
<svg version="1.0" xmlns="http://www.w3.org/2000/svg"
 width="157.000000pt" height="171.000000pt" viewBox="0 0 157.000000 171.000000"
 preserveAspectRatio="xMidYMid meet">
<metadata>
Created by potrace 1.16, written by Peter Selinger 2001-2019
</metadata>
<g transform="translate(0.000000,171.000000) scale(0.100000,-0.100000)"
fill="#000000" stroke="none">
<path d="M542 1298 c-14 2 -24 -3 -29 -15 -3 -10 -14 -36 -24 -59 -10 -22 -27
-86 -38 -141 -12 -56 -21 -139 -21 -185 0 -45 5 -103 11 -128 5 -25 21 -62 35
-82 13 -21 42 -47 64 -58 24 -12 59 -20 90 -20 28 0 67 7 86 15 19 8 64 42 99
76 35 33 69 58 74 54 6 -3 11 -14 11 -24 0 -10 18 -45 39 -78 21 -33 49 -67
61 -76 12 -8 29 -13 36 -10 8 3 14 11 14 19 0 7 -11 21 -25 30 -13 9 -37 41
-51 71 -19 38 -28 76 -32 126 -3 56 4 111 33 251 32 158 34 181 21 194 -8 8
-21 12 -30 9 -8 -3 -23 -23 -32 -44 -9 -21 -20 -51 -25 -68 -6 -16 -14 -86
-20 -154 -6 -82 -16 -139 -28 -167 -11 -23 -38 -63 -61 -88 -23 -25 -65 -57
-93 -71 -28 -14 -66 -25 -84 -25 -25 0 -44 10 -77 40 -27 25 -47 55 -56 82 -7
24 -12 77 -12 118 1 41 8 107 17 145 8 39 20 90 27 115 6 25 20 55 30 66 12
14 18 33 16 50 -2 21 -9 30 -26 32z"/>
</g>
</svg>
