<?xml version="1.0" standalone="no"?>
<!DOCTYPE svg PUBLIC "-//W3C//DTD SVG 20010904//EN"
 "http://www.w3.org/TR/2001/REC-SVG-20010904/DTD/svg10.dtd">
<svg version="1.0" xmlns="http://www.w3.org/2000/svg"
 width="166.000000pt" height="181.000000pt" viewBox="0 0 166.000000 181.000000"
 preserveAspectRatio="xMidYMid meet">
<metadata>
Created by potrace 1.16, written by Peter Selinger 2001-2019
</metadata>
<g transform="translate(0.000000,181.000000) scale(0.100000,-0.100000)"
fill="#000000" stroke="none">
<path d="M840 1509 c-14 -1 -34 -3 -45 -6 -11 -2 -33 -9 -50 -16 -16 -6 -53
-25 -80 -43 -28 -18 -79 -62 -114 -100 -37 -39 -76 -94 -93 -129 -15 -34 -36
-95 -44 -136 -10 -48 -14 -98 -10 -144 3 -38 10 -87 16 -107 6 -21 25 -57 43
-80 18 -24 52 -53 74 -66 23 -12 70 -28 104 -34 46 -8 80 -8 133 1 39 7 87 17
106 22 19 6 53 18 75 27 22 9 69 35 105 58 36 23 81 59 102 80 20 22 45 57 57
79 14 26 21 58 21 95 0 31 -7 83 -15 115 -9 33 -27 77 -40 97 -17 26 -25 52
-25 82 0 35 -6 50 -28 73 -16 15 -64 47 -108 71 -43 24 -97 47 -119 52 -22 5
-51 9 -65 9z m-6 -69 c16 0 45 -5 63 -12 18 -7 35 -20 38 -29 3 -10 20 -21 37
-24 17 -4 44 -21 60 -38 15 -17 28 -40 28 -50 0 -11 11 -27 23 -38 13 -10 36
-46 52 -81 18 -40 30 -86 33 -128 3 -48 0 -75 -11 -96 -8 -16 -35 -50 -60 -75
-26 -28 -75 -61 -118 -83 -41 -20 -112 -46 -158 -57 -62 -16 -101 -20 -143
-15 -32 3 -76 15 -98 26 -29 15 -48 35 -67 73 -26 48 -28 61 -28 168 0 113 1
117 37 191 23 46 63 103 103 146 48 51 79 75 113 88 26 9 51 21 57 26 5 4 22
8 39 8z M808 1304 c-7 3 -24 0 -38 -5 -13 -6 -32 -17 -42 -25 -12 -11 -22 -13
-34 -6 -9 5 -25 7 -36 4 -10 -2 -20 -14 -23 -26 -2 -11 -6 -41 -9 -66 -3 -25
-10 -89 -17 -143 -12 -90 -11 -104 5 -150 10 -29 25 -60 34 -69 8 -10 23 -18
33 -18 10 0 24 7 33 15 11 11 13 29 9 70 -3 30 -2 55 2 55 4 0 28 -18 52 -40
24 -23 64 -50 89 -60 25 -11 58 -20 74 -20 16 0 40 4 53 9 13 5 27 17 30 25 4
9 4 23 0 32 -4 11 -15 15 -37 11 -17 -2 -49 2 -72 10 -23 8 -50 23 -59 33 -17
19 -17 20 1 26 11 3 30 11 43 17 13 7 30 22 38 34 8 12 17 47 20 77 4 40 1 68
-11 100 -10 25 -33 59 -52 76 -19 16 -43 30 -54 30 -10 0 -24 2 -32 4z m2 -74
c8 0 20 -4 27 -8 7 -4 19 -24 28 -45 8 -20 15 -52 15 -72 0 -21 -8 -43 -19
-54 -11 -11 -35 -23 -54 -26 -19 -4 -43 -5 -54 -3 -15 3 -18 14 -21 76 -3 71
-2 73 30 102 18 17 39 30 48 30z"/>
</g>
</svg>
