<?xml version="1.0" standalone="no"?>
<!DOCTYPE svg PUBLIC "-//W3C//DTD SVG 20010904//EN"
 "http://www.w3.org/TR/2001/REC-SVG-20010904/DTD/svg10.dtd">
<svg version="1.0" xmlns="http://www.w3.org/2000/svg"
 width="157.000000pt" height="171.000000pt" viewBox="0 0 157.000000 171.000000"
 preserveAspectRatio="xMidYMid meet">
<metadata>
Created by potrace 1.16, written by Peter Selinger 2001-2019
</metadata>
<g transform="translate(0.000000,171.000000) scale(0.100000,-0.100000)"
fill="#000000" stroke="none">
<path d="M444 1270 c-23 0 -24 -4 -24 -57 0 -32 7 -80 15 -108 9 -27 24 -97
35 -155 10 -58 30 -157 44 -220 13 -63 29 -127 34 -141 6 -15 23 -36 38 -48
15 -11 37 -21 50 -21 12 0 30 10 39 23 9 12 23 47 31 77 8 30 18 62 21 70 3 8
13 -10 23 -43 10 -32 24 -64 30 -72 7 -8 25 -15 40 -15 20 0 35 10 54 35 17
22 56 123 107 277 44 134 91 260 106 282 21 32 24 44 16 70 -7 25 -15 32 -39
34 -30 3 -30 3 -113 -250 -46 -139 -93 -273 -104 -298 -19 -45 -20 -45 -27
-18 -5 15 -11 75 -15 133 -7 96 -10 107 -32 125 -19 15 -30 17 -44 9 -10 -5
-19 -20 -19 -33 0 -13 -16 -86 -36 -162 -19 -77 -39 -143 -44 -148 -4 -4 -13
0 -18 10 -5 11 -20 66 -32 124 -12 58 -37 191 -54 297 -18 106 -39 199 -46
208 -7 8 -23 15 -36 15z"/>
</g>
</svg>
