<?xml version="1.0" standalone="no"?>
<!DOCTYPE svg PUBLIC "-//W3C//DTD SVG 20010904//EN"
 "http://www.w3.org/TR/2001/REC-SVG-20010904/DTD/svg10.dtd">
<svg version="1.0" xmlns="http://www.w3.org/2000/svg"
 width="157.000000pt" height="170.000000pt" viewBox="0 0 157.000000 170.000000"
 preserveAspectRatio="xMidYMid meet">
<metadata>
Created by potrace 1.16, written by Peter Selinger 2001-2019
</metadata>
<g transform="translate(0.000000,170.000000) scale(0.100000,-0.100000)"
fill="#000000" stroke="none">
<path d="M749 1440 c-6 0 -9 -12 -7 -27 3 -26 6 -28 46 -27 29 0 42 -3 42 -13
0 -8 11 -13 28 -13 15 0 37 3 48 6 14 4 20 12 17 22 -3 14 -15 17 -59 16 -38
-1 -57 3 -61 12 -2 7 -11 10 -18 8 -7 -3 -16 -1 -20 5 -3 6 -11 11 -16 11z
M1535 1430 c-3 0 -5 -5 -5 -11 0 -5 -4 -8 -8 -5 -4 2 -6 -11 -4 -30 3 -21 0
-34 -7 -34 -6 0 -11 -11 -11 -25 0 -16 6 -25 15 -25 13 0 14 -4 4 -21 -6 -13
-7 -19 -1 -15 6 3 13 0 15 -6 3 -7 6 4 6 24 1 20 -4 39 -11 41 -9 4 -10 8 -2
14 6 4 11 27 13 51 1 23 -1 42 -4 42z M714 1340 c-9 0 -12 -5 -8 -12 4 -6 -1
-17 -10 -24 -17 -12 -16 -13 3 -24 12 -6 21 -15 21 -20 0 -6 9 -19 20 -30 11
-11 24 -20 30 -20 5 0 13 -6 17 -14 7 -12 12 -10 30 10 12 13 18 24 13 24 -4
0 -11 17 -15 38 -4 20 -10 31 -12 25 -3 -7 -9 -13 -14 -13 -5 0 -9 12 -9 26 0
20 -4 24 -19 19 -11 -3 -22 -1 -26 5 -3 5 -13 10 -21 10z M873 1267 c-22 15
-23 14 -23 -10 0 -14 5 -29 11 -33 8 -4 4 -13 -12 -25 -18 -13 -21 -21 -13
-29 8 -8 14 -9 18 -1 4 6 19 11 34 11 20 0 30 8 40 27 8 18 9 30 2 37 -5 5
-12 7 -15 4 -4 -3 -7 -15 -8 -27 -1 -11 -5 -21 -10 -21 -4 0 -6 12 -5 26 2 18
-4 31 -19 41z M980 1270 c-6 0 -8 -10 -4 -26 5 -19 3 -25 -8 -22 -7 2 -15 0
-16 -4 -1 -5 -2 -21 -2 -38 0 -19 7 -33 20 -40 14 -7 26 -8 38 -1 14 9 13 10
-10 11 -15 0 -30 5 -33 10 -3 6 1 13 9 16 9 3 16 14 16 24 0 10 4 20 9 22 5 2
5 13 0 26 -5 12 -13 22 -19 22z M1540 1189 c-5 43 -5 43 -23 23 -12 -13 -14
-22 -8 -26 7 -5 7 -13 -1 -26 -12 -18 -12 -18 -26 1 -7 10 -10 24 -7 29 3 6 0
10 -7 10 -9 0 -13 -12 -13 -36 1 -22 -4 -38 -12 -41 -7 -3 -20 0 -28 7 -8 6
-23 9 -35 5 -11 -3 -20 -11 -20 -16 0 -5 11 -7 24 -3 14 3 30 3 36 -1 9 -6 9
-9 0 -15 -10 -6 -7 -14 9 -31 11 -12 21 -29 21 -36 0 -7 8 -13 17 -13 14 0 15
-2 4 -12 -11 -10 -14 -10 -18 0 -3 6 -13 12 -24 12 -12 0 -19 -7 -19 -19 0
-10 6 -21 13 -24 7 -2 36 -2 65 1 46 4 52 7 52 27 0 18 -4 21 -25 17 -20 -3
-24 -1 -19 12 3 9 11 17 18 17 6 1 14 1 19 0 4 0 7 4 7 9 0 6 -4 10 -10 10 -5
0 -10 12 -9 28 0 23 1 24 8 7 7 -17 9 -16 12 10 2 17 2 50 -1 74z M1128 1208
c-10 8 -23 2 -50 -23 -20 -19 -39 -43 -43 -54 -6 -19 -2 -21 29 -21 19 0 38 5
42 12 4 6 2 14 -4 16 -7 2 -12 10 -12 18 0 8 6 14 14 14 7 0 19 6 25 14 8 10
8 16 -1 24z M708 1208 c-13 2 -16 -1 -12 -12 5 -12 -1 -16 -24 -16 -21 0 -31
-6 -35 -20 -3 -12 0 -20 8 -20 7 0 18 -6 24 -14 7 -8 31 -24 54 -35 24 -12 43
-17 45 -11 2 6 14 10 27 10 13 0 26 4 30 9 3 5 0 22 -7 38 -7 15 -17 31 -23
35 -5 4 -18 8 -27 8 -11 0 -18 -8 -18 -19 0 -11 -9 -22 -20 -26 -10 -3 -32 1
-47 9 -28 15 -28 15 4 16 17 0 34 -6 37 -12 3 -7 4 3 3 22 -1 24 -7 36 -19 38z
M618 1101 c-2 17 -5 20 -11 11 -5 -7 -17 -10 -28 -7 -13 4 -19 2 -19 -9 0 -9
5 -16 11 -16 6 0 9 -10 7 -22 -2 -15 -11 -24 -27 -26 -13 -2 -26 -12 -28 -23
-3 -10 -9 -19 -14 -19 -5 0 -8 -6 -7 -12 2 -7 -7 -14 -19 -16 -13 -2 -23 -8
-23 -14 0 -5 -10 -18 -22 -29 -13 -10 -37 -18 -55 -19 -17 0 -34 -4 -38 -9 -3
-5 -1 -12 4 -16 6 -3 8 -12 4 -20 -3 -9 1 -15 11 -15 8 0 20 9 26 21 7 11 14
19 16 16 3 -2 0 -16 -5 -31 -9 -21 -8 -26 4 -26 8 0 15 7 15 16 0 9 7 14 17
12 10 -2 26 -20 36 -41 9 -20 22 -37 28 -37 7 0 9 10 5 25 -5 20 -2 26 19 31
14 3 25 13 25 21 0 8 5 11 12 7 8 -5 9 -2 5 10 -4 10 -7 20 -7 22 0 2 -7 4
-15 4 -9 0 -18 7 -21 15 -4 8 -10 12 -15 9 -6 -3 -7 -14 -4 -25 3 -10 8 -28
11 -39 4 -15 1 -20 -15 -20 -14 0 -19 5 -14 15 3 9 -3 25 -12 35 -17 19 -17
21 5 40 16 14 27 17 34 10 5 -5 16 -10 23 -10 7 0 13 7 13 15 0 8 2 15 4 15 3
0 16 -4 30 -10 19 -7 25 -16 24 -37 -1 -15 2 -36 6 -45 6 -14 3 -18 -14 -18
-15 0 -20 -4 -17 -15 4 -8 2 -17 -3 -20 -6 -4 -10 -2 -10 2 0 5 -9 9 -20 10
-15 1 -20 -5 -21 -23 -1 -13 -2 -30 -3 -36 -1 -7 -5 -16 -11 -20 -6 -5 -6 -8
2 -8 6 0 21 12 32 26 15 19 26 24 41 19 17 -5 20 -2 20 19 0 14 5 26 11 26 6
0 16 6 22 13 7 6 21 29 32 49 15 29 17 40 8 49 -7 7 -26 12 -43 11 -23 0 -30
4 -30 19 0 10 7 19 15 19 8 0 15 -4 15 -10 0 -5 6 -7 13 -4 7 2 23 -7 35 -21
13 -14 27 -23 32 -20 5 3 7 0 4 -8 -4 -11 1 -13 20 -10 15 3 26 1 26 -5 0 -6
-4 -14 -10 -17 -5 -3 -10 -1 -10 6 0 7 -15 -5 -32 -26 -18 -21 -55 -63 -83
-93 -27 -30 -53 -64 -57 -76 -3 -11 -6 -36 -7 -55 -1 -26 7 -41 35 -67 25 -24
45 -34 67 -34 22 0 28 -3 18 -9 -9 -6 1 -9 29 -9 23 -1 45 -3 48 -6 3 -3 -12
-6 -34 -6 -28 0 -35 -3 -24 -9 8 -6 17 -8 20 -6 4 2 23 5 43 7 33 2 37 5 37
28 0 14 7 35 15 46 13 17 14 12 15 -57 0 -42 5 -101 10 -130 6 -30 11 -87 11
-127 0 -56 5 -84 22 -115 15 -30 23 -37 25 -25 2 10 8 18 13 18 5 0 9 -4 9
-10 0 -5 7 -10 16 -10 13 0 14 3 4 15 -10 12 -9 20 5 41 15 23 16 35 7 83 -6
31 -16 91 -23 134 -8 49 -9 115 -5 180 4 56 15 140 25 188 12 60 15 91 8 107
-6 12 -14 22 -18 22 -5 0 -6 8 -3 18 4 12 0 11 -15 -6 -19 -22 -22 -22 -50 -8
-17 9 -44 16 -60 16 -17 0 -40 8 -51 17 -13 12 -16 20 -9 29 7 8 7 14 -1 19
-5 3 -14 3 -20 0 -5 -3 -10 -14 -10 -23 0 -10 -3 -13 -10 -6 -5 5 -11 19 -13
31 -2 13 -6 26 -10 29 -4 4 -7 0 -7 -9 0 -10 -8 -17 -20 -17 -10 0 -25 10 -32
23 -7 12 -11 25 -10 30 1 4 -5 7 -13 7 -8 0 -15 4 -15 8 0 4 5 13 11 19 6 6 9
21 7 34z m105 -374 c5 -1 11 -11 13 -21 1 -10 5 -25 8 -33 5 -13 11 -11 33 11
14 14 30 26 34 26 5 0 9 -4 9 -8 0 -5 -20 -22 -44 -39 -24 -17 -52 -34 -63
-37 -11 -3 -27 1 -39 10 -13 11 -15 17 -6 20 6 3 12 11 12 18 0 6 7 22 16 34
9 13 21 21 27 19z M1282 1070 c-4 0 -1 -4 7 -9 11 -7 9 -10 -8 -16 -15 -4 -21
-15 -21 -34 0 -15 -5 -32 -12 -39 -6 -6 -9 -15 -5 -18 3 -4 11 5 18 19 7 15
17 23 25 20 9 -3 14 2 14 16 0 12 5 21 10 21 6 0 10 6 10 14 0 8 -7 17 -16 20
-9 3 -19 6 -22 6z M1117 1043 c-2 6 -2 2 0 -11 2 -13 -2 -29 -10 -36 -7 -8
-22 -16 -33 -19 -10 -3 7 -3 38 -1 32 2 67 9 78 16 11 7 20 16 20 21 0 4 -5 5
-12 1 -7 -5 -9 -2 -5 9 3 9 0 18 -8 21 -8 3 -17 1 -20 -4 -4 -6 -15 -10 -25
-10 -10 0 -20 6 -23 13z M1374 989 c-5 5 -21 4 -36 -1 -16 -5 -28 -16 -28 -23
0 -8 5 -17 12 -21 8 -5 6 -11 -6 -19 -9 -7 -14 -19 -10 -29 3 -9 9 -16 13 -16
3 0 15 13 25 29 13 19 25 27 38 23 12 -3 18 1 18 13 0 13 -6 16 -27 12 -26 -5
-26 -4 -8 9 11 9 15 17 9 23z M825 980 c-8 0 -19 -9 -25 -21 -7 -11 -10 -22
-8 -24 2 -1 27 -6 56 -10 35 -5 52 -3 52 4 0 6 -12 11 -27 12 -25 0 -26 1 -8
9 19 8 19 9 -2 9 -13 1 -23 6 -23 11 0 6 -7 10 -15 10z M126 956 c-18 8 -27 7
-45 -7 -18 -15 -20 -24 -15 -61 4 -24 13 -55 20 -69 7 -15 10 -29 7 -33 -4 -3
0 -6 9 -6 8 0 20 11 26 24 9 21 8 26 -8 31 -16 5 -18 10 -10 26 6 11 8 24 5
29 -3 6 -13 10 -21 10 -8 0 -14 9 -14 21 0 11 4 18 8 15 5 -3 21 -2 35 2 26 7
26 7 3 18z M1464 950 c-8 0 -14 -3 -14 -6 0 -4 8 -13 18 -20 14 -11 15 -16 5
-33 -7 -12 -13 -25 -13 -31 0 -5 6 -7 14 -4 8 3 16 14 19 25 3 11 14 19 26 19
14 0 21 6 21 19 0 13 -10 20 -31 25 -17 3 -38 6 -45 6z M1276 910 c-2 0 1 -19
6 -42 6 -24 11 -49 11 -55 0 -7 6 -13 14 -13 7 0 16 -7 19 -15 4 -8 12 -15 19
-15 7 0 15 -7 19 -15 3 -8 9 -15 14 -15 5 0 8 26 6 58 -1 31 -2 60 -3 65 -1 4
-19 4 -41 1 -36 -6 -40 -4 -50 20 -5 14 -11 26 -14 26z M1447 823 c-2 12 -5
16 -6 10 0 -7 -8 -13 -16 -13 -10 0 -15 -10 -15 -30 0 -16 5 -30 10 -30 6 0
10 9 10 21 0 11 4 18 9 15 4 -3 11 -23 15 -45 3 -22 11 -43 17 -47 6 -3 15 0
20 7 7 11 11 10 22 -5 14 -20 15 -20 20 0 3 10 5 38 5 62 0 23 -4 42 -9 42 -4
0 -13 -13 -21 -30 -7 -16 -19 -30 -27 -30 -9 0 -11 7 -7 25 5 18 2 25 -8 25
-8 0 -17 10 -19 23z M1140 808 c-5 22 -5 22 -32 -8 -15 -17 -25 -37 -21 -45 3
-8 9 -15 14 -15 5 0 9 -7 9 -15 0 -8 -9 -19 -20 -25 -11 -6 -20 -15 -20 -20 0
-6 8 -10 18 -10 13 0 14 -2 3 -9 -11 -7 -10 -11 6 -20 11 -5 23 -8 26 -5 3 3
2 18 -2 32 -5 15 -6 33 -4 40 3 6 11 12 19 12 8 0 13 3 13 8 -1 4 -1 13 0 20
1 9 8 11 21 7 14 -4 20 -2 20 9 0 8 -10 16 -22 18 -13 2 -24 12 -28 26z M265
818 c-2 2 -6 -1 -9 -7 -4 -6 -13 -8 -20 -5 -7 3 -21 -2 -30 -11 -10 -10 -24
-14 -36 -10 -12 4 -20 2 -20 -5 0 -7 9 -14 20 -17 11 -3 20 -12 20 -20 0 -10
6 -13 16 -9 9 3 17 6 19 6 2 0 1 8 -2 19 -3 10 0 22 7 26 7 4 14 -1 17 -14 3
-12 11 -21 19 -21 10 0 12 9 7 33 -3 17 -7 33 -8 35z M1291 770 c-13 0 -13 -2
-2 -9 8 -5 11 -16 8 -26 -5 -11 2 -21 22 -32 20 -12 31 -28 37 -57 9 -41 9
-41 54 -39 25 0 55 4 66 8 15 5 23 2 28 -10 3 -10 1 -24 -5 -32 -7 -7 -10 -16
-7 -18 3 -3 12 -3 21 1 10 4 15 16 14 35 -1 16 -5 29 -9 29 -5 0 -8 8 -8 18 0
14 2 15 10 2 5 -8 10 -11 10 -6 0 5 -7 17 -16 27 -16 17 -17 17 -35 -4 -11
-13 -22 -18 -26 -12 -5 6 -16 11 -27 13 -13 3 -17 -1 -13 -12 3 -8 2 -18 -4
-22 -6 -3 -13 3 -16 15 -3 12 -10 21 -15 21 -6 0 -8 14 -5 34 4 24 1 39 -9 46
-7 7 -21 10 -29 6 -9 -3 -18 1 -21 9 -4 8 -14 15 -23 15z M489 730 c-4 16 -7
19 -8 8 -1 -10 -7 -18 -15 -18 -8 0 -17 -7 -20 -16 -3 -9 -6 -24 -6 -34 0 -10
-9 -22 -20 -25 -11 -3 -20 -13 -20 -21 0 -8 -6 -14 -14 -14 -8 0 -16 7 -20 15
-3 9 -18 15 -34 15 -16 0 -35 7 -42 15 -6 8 -9 19 -5 24 3 6 16 11 28 10 12 0
40 2 62 3 32 2 40 7 40 23 0 11 -8 21 -18 23 -10 2 -26 -3 -35 -11 -9 -8 -39
-19 -67 -23 -27 -4 -52 -8 -55 -9 -3 0 -15 -6 -28 -13 -18 -11 -20 -16 -12
-32 8 -15 21 -20 49 -20 25 0 44 -7 56 -20 13 -14 31 -20 61 -20 32 0 43 4 46
17 2 11 13 18 28 18 20 0 25 5 23 23 -2 12 3 23 10 23 6 1 15 1 19 0 4 0 20 4
35 11 28 11 28 11 -2 17 -20 4 -31 14 -36 31z M553 536 c-18 5 -25 1 -33 -20
-5 -14 -16 -26 -25 -26 -8 0 -15 -5 -15 -11 0 -7 -10 -5 -25 5 -13 9 -27 16
-31 16 -4 0 1 -9 11 -20 10 -11 26 -20 35 -20 10 0 23 -7 30 -15 7 -8 18 -15
25 -15 8 0 15 -5 17 -11 2 -5 11 -7 21 -4 9 4 17 11 17 16 0 5 -9 9 -19 9 -11
0 -22 4 -25 9 -4 5 -2 21 4 35 7 18 17 26 34 26 14 0 28 5 31 10 3 6 -2 10
-12 10 -10 0 -28 3 -40 6z M274 499 c-5 0 -18 -9 -28 -20 -11 -10 -30 -19 -43
-19 -13 0 -23 -4 -23 -10 0 -5 7 -10 16 -10 8 0 22 -7 30 -15 14 -13 18 -13
39 3 15 11 20 21 14 28 -5 6 -7 19 -3 28 3 9 2 16 -2 15z M1489 450 c-19 0
-29 -5 -29 -15 0 -9 -9 -15 -24 -15 -14 0 -28 -5 -32 -11 -3 -6 -1 -16 5 -22
7 -7 12 -6 17 6 3 9 13 17 21 17 9 0 13 -6 9 -15 -3 -8 -1 -15 5 -15 6 0 23
10 38 23 15 12 26 28 23 35 -2 7 -17 12 -33 12z M41 400 c-4 0 -9 -27 -10 -60
0 -33 -2 -65 -4 -71 -1 -7 3 -13 8 -15 6 -2 16 10 24 27 10 24 11 36 2 55 -6
14 -11 34 -11 44 0 11 -4 20 -9 20z M540 398 c-21 2 -30 -2 -30 -13 0 -9 9
-15 25 -15 14 0 25 -4 25 -9 0 -5 -5 -11 -12 -13 -8 -3 -4 -12 10 -26 12 -12
24 -22 27 -22 3 0 5 9 5 20 0 12 7 20 18 21 14 0 13 2 -5 11 -13 6 -25 18 -28
27 -3 10 -17 18 -35 19z M291 337 c-24 2 -30 -3 -36 -24 -3 -14 -3 -28 0 -31
3 -3 15 0 28 6 12 6 35 13 51 14 16 2 31 9 34 16 3 9 -3 11 -22 6 -14 -3 -26
-2 -26 2 0 5 -13 10 -29 11z M1346 288 c-14 3 -17 0 -13 -12 4 -9 2 -16 -3
-16 -6 0 -10 -6 -10 -14 0 -8 -5 -16 -12 -18 -7 -3 -8 -9 -3 -18 6 -10 11 -9
22 5 10 15 16 16 25 7 7 -7 16 -12 21 -12 5 0 6 8 2 18 -4 9 -8 26 -9 37 0 11
-10 21 -20 23z M73 260 c-6 0 -18 -9 -27 -19 -10 -11 -17 -30 -15 -43 1 -13
-2 -31 -6 -42 -5 -11 -4 -26 2 -35 6 -9 18 -17 27 -19 9 -2 19 4 23 14 3 9 1
25 -5 35 -8 12 -8 20 -1 24 5 4 16 2 24 -5 11 -9 12 -7 8 10 -3 12 -12 24 -19
27 -9 3 -12 14 -8 29 3 13 2 24 -3 24z M403 183 c-8 16 -10 16 -21 -8 -6 -14
-16 -25 -22 -25 -5 0 -10 6 -10 14 0 8 -7 17 -16 20 -9 3 -29 6 -45 6 -26 0
-29 -3 -29 -34 0 -19 -4 -38 -10 -41 -5 -3 -10 -11 -10 -16 0 -6 8 -5 21 1 11
6 25 9 32 6 8 -3 7 -5 -2 -5 -11 -1 -10 -6 4 -21 18 -20 18 -21 0 -34 -18 -13
-18 -14 0 -32 13 -13 20 -15 23 -6 2 7 21 12 44 12 40 0 40 0 34 31 -3 18 -1
38 5 45 9 11 7 15 -5 20 -13 5 -14 9 -5 20 7 9 20 12 33 8 19 -5 19 -5 5 7 -9
8 -21 22 -26 32z M551 183 c-11 3 -25 -1 -32 -9 -6 -8 -9 -23 -6 -34 3 -11 1
-23 -4 -26 -5 -3 -7 -10 -4 -15 4 -5 14 -5 26 1 13 7 19 7 19 0 0 -5 5 -10 11
-10 5 0 7 5 4 10 -3 6 5 10 18 10 16 0 31 -10 43 -27 10 -16 17 -32 16 -36 -1
-5 7 -7 19 -5 13 2 24 8 26 14 2 6 -8 16 -22 24 -14 7 -25 18 -25 24 0 6 -12
16 -27 22 -16 7 -36 14 -45 18 -10 3 -18 11 -18 18 0 9 3 9 10 -2 5 -8 12 -11
15 -8 4 4 4 11 1 16 -3 5 -15 12 -25 15z M778 170 c-4 0 -10 -4 -13 -10 -3 -5
-17 -10 -31 -10 -13 0 -24 -4 -24 -9 0 -6 5 -13 10 -16 6 -3 10 -10 10 -16 0
-5 -4 -9 -10 -9 -5 0 -10 7 -10 15 0 8 -9 15 -20 15 -11 0 -20 -6 -20 -14 0
-8 13 -19 30 -24 18 -7 32 -7 35 -1 4 5 13 9 22 9 9 0 21 -7 27 -16 10 -13 14
-13 23 -2 8 9 7 23 -5 51 -9 20 -20 37 -24 37z"/>
</g>
</svg>
