<?xml version="1.0" standalone="no"?>
<!DOCTYPE svg PUBLIC "-//W3C//DTD SVG 20010904//EN"
 "http://www.w3.org/TR/2001/REC-SVG-20010904/DTD/svg10.dtd">
<svg version="1.0" xmlns="http://www.w3.org/2000/svg"
 width="158.000000pt" height="173.000000pt" viewBox="0 0 158.000000 173.000000"
 preserveAspectRatio="xMidYMid meet">
<metadata>
Created by potrace 1.16, written by Peter Selinger 2001-2019
</metadata>
<g transform="translate(0.000000,173.000000) scale(0.100000,-0.100000)"
fill="#000000" stroke="none">
<path d="M450 920 c-10 0 -53 -37 -97 -83 -43 -46 -93 -111 -111 -144 -17 -33
-32 -68 -32 -76 0 -9 4 -18 9 -21 5 -4 18 -3 29 1 11 5 43 39 70 76 27 38 60
76 72 84 23 16 23 16 16 -38 -4 -30 -8 -67 -11 -84 -2 -16 -4 -48 -6 -70 -1
-22 1 -51 5 -64 7 -20 13 -22 39 -17 17 4 46 21 65 39 18 17 44 51 58 74 14
24 28 43 32 43 4 0 7 -23 8 -50 1 -29 -3 -50 -9 -50 -7 0 -7 -4 1 -12 8 -8 22
-7 54 5 33 13 61 37 113 100 39 46 82 93 97 106 15 12 33 19 38 16 7 -4 11
-43 10 -93 0 -48 5 -113 12 -144 9 -49 15 -58 32 -58 12 0 29 7 39 14 10 8 18
22 18 33 -1 10 -4 95 -9 188 -4 94 -11 176 -15 183 -5 6 -17 12 -28 12 -11 0
-41 -14 -67 -31 -26 -18 -77 -61 -114 -98 -68 -65 -68 -65 -68 -15 0 38 -5 55
-19 68 -12 11 -27 15 -39 12 -11 -4 -44 -34 -73 -68 -30 -34 -60 -71 -67 -82
-10 -18 -11 -8 -5 59 4 44 6 95 5 114 -1 19 -10 43 -19 53 -9 10 -24 18 -33
18z M1577 30 c-2 0 -7 -3 -10 -7 -4 -3 -57 -9 -119 -13 -113 -7 -113 -7 10 -8
102 -2 122 0 122 13 0 8 -1 15 -3 15z"/>
</g>
</svg>
