<?xml version="1.0" standalone="no"?>
<!DOCTYPE svg PUBLIC "-//W3C//DTD SVG 20010904//EN"
 "http://www.w3.org/TR/2001/REC-SVG-20010904/DTD/svg10.dtd">
<svg version="1.0" xmlns="http://www.w3.org/2000/svg"
 width="165.000000pt" height="180.000000pt" viewBox="0 0 165.000000 180.000000"
 preserveAspectRatio="xMidYMid meet">
<metadata>
Created by potrace 1.16, written by Peter Selinger 2001-2019
</metadata>
<g transform="translate(0.000000,180.000000) scale(0.100000,-0.100000)"
fill="#000000" stroke="none">
<path d="M775 1042 c-11 3 -30 3 -41 -1 -12 -3 -36 -18 -53 -32 -17 -14 -42
-50 -55 -80 -14 -30 -30 -85 -36 -124 -6 -38 -8 -86 -5 -107 4 -23 16 -46 32
-58 13 -10 34 -22 45 -25 10 -4 30 -4 43 -1 13 3 37 17 54 31 30 26 30 26 75
-6 33 -24 59 -33 100 -37 38 -3 72 2 118 17 35 12 81 33 101 47 21 14 36 31
34 37 -2 7 -13 13 -25 15 -12 2 -47 -8 -78 -22 -36 -17 -74 -26 -106 -26 -27
0 -62 7 -78 15 -16 9 -32 26 -36 39 -3 15 3 40 16 67 12 23 33 71 46 106 13
35 24 72 24 83 0 10 -7 26 -16 34 -8 9 -20 16 -25 16 -5 0 -18 -9 -29 -20 -11
-11 -24 -20 -30 -20 -5 0 -10 4 -10 9 0 5 -10 15 -22 23 -13 8 -32 18 -43 20z
m-13 -72 c11 0 23 -11 29 -27 7 -19 7 -39 1 -63 -6 -19 -13 -58 -17 -86 -5
-38 -14 -59 -34 -78 -14 -14 -38 -27 -51 -28 -25 -3 -25 -2 -25 72 1 48 7 91
19 120 10 25 27 55 39 68 11 12 29 22 39 22z"/>
</g>
</svg>
