<?xml version="1.0" standalone="no"?>
<!DOCTYPE svg PUBLIC "-//W3C//DTD SVG 20010904//EN"
 "http://www.w3.org/TR/2001/REC-SVG-20010904/DTD/svg10.dtd">
<svg version="1.0" xmlns="http://www.w3.org/2000/svg"
 width="166.000000pt" height="180.000000pt" viewBox="0 0 166.000000 180.000000"
 preserveAspectRatio="xMidYMid meet">
<metadata>
Created by potrace 1.16, written by Peter Selinger 2001-2019
</metadata>
<g transform="translate(0.000000,180.000000) scale(0.100000,-0.100000)"
fill="#000000" stroke="none">
<path d="M788 924 c-7 2 -27 0 -45 -5 -17 -5 -48 -28 -68 -52 -20 -23 -45 -62
-56 -86 -10 -23 -23 -60 -29 -80 -6 -24 -6 -49 0 -71 5 -18 20 -48 32 -66 13
-19 35 -39 51 -45 15 -6 51 -9 81 -7 38 3 68 14 105 37 l51 33 26 -21 c19 -15
41 -21 78 -21 41 0 63 7 99 30 32 20 45 34 41 45 -3 8 -10 15 -14 15 -5 0 -31
-11 -58 -25 -40 -20 -56 -23 -76 -16 -14 6 -32 21 -41 35 -16 24 -16 29 -1 73
9 27 20 76 23 111 5 51 3 66 -12 82 -10 11 -23 20 -28 20 -6 0 -21 -9 -33 -21
l-22 -20 -25 25 c-15 14 -35 26 -46 26 -11 0 -25 2 -33 4z m2 -44 c4 0 15 -6
26 -14 14 -11 16 -19 9 -29 -5 -8 -18 -26 -29 -41 -10 -15 -16 -30 -12 -33 4
-4 22 -1 42 6 20 7 37 11 39 9 1 -1 4 -37 6 -78 l4 -75 -49 -33 c-40 -26 -58
-32 -90 -30 -33 2 -44 9 -63 37 -15 22 -23 49 -23 77 0 28 11 63 33 105 22 43
42 67 67 80 19 11 37 19 40 19z"/>
</g>
</svg>
