<?xml version="1.0" standalone="no"?>
<!DOCTYPE svg PUBLIC "-//W3C//DTD SVG 20010904//EN"
 "http://www.w3.org/TR/2001/REC-SVG-20010904/DTD/svg10.dtd">
<svg version="1.0" xmlns="http://www.w3.org/2000/svg"
 width="154.000000pt" height="168.000000pt" viewBox="0 0 154.000000 168.000000"
 preserveAspectRatio="xMidYMid meet">
<metadata>
Created by potrace 1.16, written by Peter Selinger 2001-2019
</metadata>
<g transform="translate(0.000000,168.000000) scale(0.100000,-0.100000)"
fill="#000000" stroke="none">
<path d="M635 914 c-10 4 -22 -5 -35 -26 -10 -17 -25 -54 -32 -82 -7 -28 -12
-95 -13 -149 0 -96 1 -99 28 -123 21 -18 40 -24 77 -24 45 0 51 3 84 42 36 42
36 42 66 20 16 -12 39 -22 50 -22 12 0 30 5 41 10 10 6 19 20 19 31 0 18 -5
21 -31 17 -23 -4 -33 0 -41 15 -6 12 -8 45 -3 86 3 36 7 86 8 111 2 39 -1 45
-20 48 -19 3 -24 -4 -38 -55 -9 -32 -25 -85 -37 -118 -11 -33 -31 -76 -44 -97
-13 -20 -33 -39 -44 -43 -12 -4 -27 -1 -35 5 -8 7 -20 30 -26 53 -6 22 -8 62
-4 91 4 28 16 74 26 101 11 28 19 62 19 76 0 15 -7 29 -15 33z"/>
</g>
</svg>
