<?xml version="1.0" standalone="no"?>
<!DOCTYPE svg PUBLIC "-//W3C//DTD SVG 20010904//EN"
 "http://www.w3.org/TR/2001/REC-SVG-20010904/DTD/svg10.dtd">
<svg version="1.0" xmlns="http://www.w3.org/2000/svg"
 width="155.000000pt" height="168.000000pt" viewBox="0 0 155.000000 168.000000"
 preserveAspectRatio="xMidYMid meet">
<metadata>
Created by potrace 1.16, written by Peter Selinger 2001-2019
</metadata>
<g transform="translate(0.000000,168.000000) scale(0.100000,-0.100000)"
fill="#000000" stroke="none">
<path d="M794 1305 c-27 2 -60 1 -74 -1 -14 -3 -41 -10 -60 -16 -19 -6 -49
-21 -66 -34 -17 -12 -44 -49 -60 -81 -27 -55 -29 -65 -28 -178 0 -82 6 -133
16 -160 10 -27 12 -48 7 -64 -5 -13 -20 -37 -34 -53 -13 -16 -31 -52 -40 -80
-8 -29 -15 -76 -15 -105 0 -30 7 -69 14 -88 14 -33 17 -35 66 -35 40 0 73 10
156 50 l106 49 59 -29 c32 -17 67 -30 77 -30 10 0 27 -9 37 -20 10 -11 24 -20
30 -20 7 0 18 6 24 14 9 11 10 20 1 35 -6 13 -21 21 -38 22 -15 0 -47 10 -72
22 -25 12 -46 29 -48 37 -1 9 23 32 60 57 35 24 97 74 138 112 41 38 72 72 68
76 -4 4 -28 -10 -54 -31 -25 -21 -65 -54 -88 -71 -22 -18 -71 -51 -107 -73
-36 -22 -72 -40 -81 -40 -9 0 -38 20 -66 45 -27 25 -64 67 -81 93 -17 27 -31
56 -31 64 0 9 32 42 70 73 39 32 91 81 117 109 25 28 59 78 74 111 18 37 29
76 29 103 0 23 -6 57 -13 75 -8 18 -21 38 -29 45 -9 7 -38 14 -64 17z m-32
-46 c38 1 50 -3 62 -21 10 -13 16 -43 16 -73 0 -28 -9 -69 -20 -94 -11 -24
-38 -65 -61 -92 -22 -26 -70 -72 -106 -101 -61 -48 -66 -50 -79 -34 -7 10 -16
43 -20 73 -4 31 -4 82 0 115 3 34 11 79 18 101 7 22 27 55 45 74 18 18 48 37
66 42 17 5 53 10 79 10z m-196 -539 c7 0 25 -20 40 -45 14 -25 46 -62 70 -84
24 -21 44 -43 44 -49 0 -6 -12 -19 -27 -30 -16 -10 -59 -29 -96 -42 -51 -18
-72 -21 -85 -14 -12 8 -18 28 -20 75 -2 42 3 79 14 109 9 25 24 53 32 63 8 9
21 17 28 17z"/>
</g>
</svg>
