<?xml version="1.0" standalone="no"?>
<!DOCTYPE svg PUBLIC "-//W3C//DTD SVG 20010904//EN"
 "http://www.w3.org/TR/2001/REC-SVG-20010904/DTD/svg10.dtd">
<svg version="1.0" xmlns="http://www.w3.org/2000/svg"
 width="158.000000pt" height="173.000000pt" viewBox="0 0 158.000000 173.000000"
 preserveAspectRatio="xMidYMid meet">
<metadata>
Created by potrace 1.16, written by Peter Selinger 2001-2019
</metadata>
<g transform="translate(0.000000,173.000000) scale(0.100000,-0.100000)"
fill="#000000" stroke="none">
<path d="M768 1480 c-7 0 -19 -12 -25 -27 -7 -15 -13 -59 -13 -98 0 -57 4 -75
18 -88 10 -10 26 -17 34 -17 9 0 18 6 21 13 3 7 -1 24 -9 38 -8 14 -13 56 -14
102 0 55 -4 77 -12 77z M890 1464 c-6 6 -12 2 -16 -10 -3 -10 -12 -35 -19 -54
-8 -19 -16 -58 -19 -86 -4 -29 -2 -64 4 -79 7 -17 16 -25 28 -23 15 3 18 20
24 123 4 70 3 124 -2 129z M595 1290 c-18 0 -30 -15 -63 -82 -22 -46 -48 -106
-56 -134 -9 -28 -21 -77 -27 -110 -5 -32 -14 -88 -20 -124 -7 -44 -6 -87 1
-135 6 -38 22 -94 35 -123 14 -30 39 -67 56 -83 26 -24 39 -29 83 -29 29 0 76
7 106 16 39 12 66 29 104 67 33 33 60 73 75 110 13 31 27 57 31 57 4 0 11 -19
16 -41 6 -28 19 -49 37 -63 21 -16 32 -18 45 -10 9 6 18 20 20 31 2 13 -4 22
-17 26 -13 3 -24 19 -32 48 -9 35 -9 64 1 139 7 52 15 142 17 200 4 84 1 109
-11 125 -12 16 -18 18 -33 9 -14 -9 -18 -25 -19 -80 0 -38 -7 -96 -14 -129 -7
-33 -28 -109 -47 -170 -19 -60 -46 -131 -59 -157 -14 -27 -42 -61 -64 -77 -22
-16 -66 -34 -100 -41 -57 -12 -63 -12 -87 7 -15 10 -35 30 -45 44 -10 14 -25
49 -33 79 -8 30 -15 87 -15 125 0 39 7 99 15 135 9 36 27 101 41 145 14 44 35
88 45 97 11 9 26 35 34 57 8 23 12 48 9 56 -4 8 -16 15 -29 15z"/>
</g>
</svg>
