<?xml version="1.0" standalone="no"?>
<!DOCTYPE svg PUBLIC "-//W3C//DTD SVG 20010904//EN"
 "http://www.w3.org/TR/2001/REC-SVG-20010904/DTD/svg10.dtd">
<svg version="1.0" xmlns="http://www.w3.org/2000/svg"
 width="159.000000pt" height="172.000000pt" viewBox="0 0 159.000000 172.000000"
 preserveAspectRatio="xMidYMid meet">
<metadata>
Created by potrace 1.16, written by Peter Selinger 2001-2019
</metadata>
<g transform="translate(0.000000,172.000000) scale(0.100000,-0.100000)"
fill="#000000" stroke="none">
<path d="M932 1564 c-5 3 -14 0 -20 -7 -5 -6 -12 -31 -16 -54 -3 -24 -9 -60
-12 -82 -5 -31 -3 -39 12 -45 9 -4 22 -2 27 3 5 5 11 47 14 94 3 49 1 87 -5
91z M768 1548 c-9 2 -18 -1 -21 -5 -3 -5 -8 -40 -12 -79 -6 -56 -4 -72 8 -82
8 -7 21 -10 29 -7 12 5 15 24 14 88 -1 68 -4 82 -18 85z M841 1300 c-20 -1
-59 -8 -86 -18 -28 -10 -71 -29 -96 -44 -25 -15 -69 -48 -97 -73 -30 -27 -62
-69 -79 -103 -26 -53 -28 -65 -28 -182 0 -104 4 -137 23 -193 12 -38 34 -86
49 -108 14 -21 40 -48 57 -58 17 -11 52 -25 78 -30 32 -7 72 -7 130 0 45 5
113 21 149 33 37 13 83 35 102 50 19 15 46 48 58 74 20 41 23 61 23 162 -1 75
-7 135 -17 171 -9 30 -28 73 -43 94 -22 33 -25 45 -19 82 6 40 4 46 -27 77
-21 21 -55 40 -88 50 -29 9 -70 16 -89 16z m-8 -51 c16 1 48 -4 72 -10 24 -6
52 -20 61 -30 9 -11 15 -22 12 -25 -3 -3 -32 2 -64 12 -40 11 -79 15 -126 12
-48 -4 -68 -2 -65 6 2 6 21 16 43 23 21 6 52 12 67 12z m-28 -83 c59 -2 91 -8
123 -25 36 -18 42 -26 40 -49 -3 -22 1 -27 18 -25 12 1 29 -6 37 -15 9 -10 24
-47 33 -82 9 -37 16 -105 17 -161 0 -79 -4 -105 -22 -141 -16 -34 -34 -52 -71
-72 -28 -15 -65 -32 -83 -37 -18 -5 -63 -14 -102 -19 -45 -6 -87 -5 -118 2
-26 5 -61 21 -77 34 -18 16 -40 54 -59 104 -17 44 -34 109 -37 148 -5 49 -2
92 11 147 14 64 24 85 57 121 22 24 54 47 71 53 18 5 43 12 57 15 14 2 61 3
105 2z"/>
</g>
</svg>
