<?xml version="1.0" standalone="no"?>
<!DOCTYPE svg PUBLIC "-//W3C//DTD SVG 20010904//EN"
 "http://www.w3.org/TR/2001/REC-SVG-20010904/DTD/svg10.dtd">
<svg version="1.0" xmlns="http://www.w3.org/2000/svg"
 width="152.000000pt" height="168.000000pt" viewBox="0 0 152.000000 168.000000"
 preserveAspectRatio="xMidYMid meet">
<metadata>
Created by potrace 1.16, written by Peter Selinger 2001-2019
</metadata>
<g transform="translate(0.000000,168.000000) scale(0.100000,-0.100000)"
fill="#000000" stroke="none">
<path d="M956 1239 c-17 -1 -62 -8 -101 -15 -38 -8 -107 -14 -152 -15 -73 -1
-83 -3 -83 -19 0 -10 7 -21 16 -24 9 -3 43 -6 77 -6 34 0 100 7 147 15 53 9
88 11 94 5 5 -5 8 -30 8 -55 -1 -25 -21 -98 -45 -163 -42 -117 -42 -117 -114
-123 -39 -4 -76 -10 -82 -13 -6 -4 -11 -16 -11 -26 0 -10 6 -20 13 -23 6 -2
36 -2 65 1 48 4 52 3 52 -17 0 -12 -16 -61 -36 -109 -20 -48 -42 -107 -50
-132 -8 -25 -14 -53 -14 -62 0 -12 8 -18 23 -18 18 0 28 10 45 47 11 27 23 64
27 84 3 19 20 73 39 118 19 46 38 87 44 93 6 6 68 20 139 33 70 12 136 26 146
30 9 4 17 16 17 26 0 13 -7 19 -22 19 -13 0 -39 -4 -58 -10 -19 -5 -68 -13
-108 -18 -53 -6 -75 -5 -78 3 -3 6 12 60 31 119 22 64 37 130 38 162 1 39 -4
58 -18 73 -11 14 -29 21 -49 20z"/>
</g>
</svg>
