<?xml version="1.0" standalone="no"?>
<!DOCTYPE svg PUBLIC "-//W3C//DTD SVG 20010904//EN"
 "http://www.w3.org/TR/2001/REC-SVG-20010904/DTD/svg10.dtd">
<svg version="1.0" xmlns="http://www.w3.org/2000/svg"
 width="157.000000pt" height="171.000000pt" viewBox="0 0 157.000000 171.000000"
 preserveAspectRatio="xMidYMid meet">
<metadata>
Created by potrace 1.16, written by Peter Selinger 2001-2019
</metadata>
<g transform="translate(0.000000,171.000000) scale(0.100000,-0.100000)"
fill="#000000" stroke="none">
<path d="M550 1307 c-8 2 -20 0 -26 -5 -6 -4 -21 -29 -33 -57 -12 -27 -31 -90
-41 -140 -11 -49 -22 -130 -26 -180 -5 -69 -2 -105 11 -155 9 -36 28 -80 42
-99 14 -18 44 -42 67 -52 22 -10 56 -19 74 -19 18 0 53 5 78 11 32 8 63 29
113 75 38 35 71 64 74 64 3 0 8 -13 12 -29 3 -15 26 -56 50 -89 24 -33 49 -63
55 -67 6 -4 22 -4 36 -1 13 4 24 13 24 21 0 8 -11 22 -24 31 -14 8 -34 31 -45
50 -11 19 -28 61 -36 94 -10 39 -13 79 -10 113 4 28 16 97 27 152 11 55 26
127 34 160 12 56 12 61 -5 79 -11 11 -26 16 -35 13 -9 -4 -27 -31 -40 -62 -14
-30 -30 -89 -35 -131 -6 -41 -11 -103 -11 -137 0 -48 -6 -74 -26 -112 -15 -28
-40 -65 -58 -84 -17 -18 -51 -47 -75 -62 -33 -21 -57 -29 -92 -29 -42 0 -50 4
-86 43 -28 30 -44 59 -53 96 -8 34 -10 79 -6 125 4 39 17 115 30 169 13 56 34
112 46 129 18 25 21 36 14 57 -5 14 -16 27 -24 28z"/>
</g>
</svg>
