<?xml version="1.0" standalone="no"?>
<!DOCTYPE svg PUBLIC "-//W3C//DTD SVG 20010904//EN"
 "http://www.w3.org/TR/2001/REC-SVG-20010904/DTD/svg10.dtd">
<svg version="1.0" xmlns="http://www.w3.org/2000/svg"
 width="153.000000pt" height="168.000000pt" viewBox="0 0 153.000000 168.000000"
 preserveAspectRatio="xMidYMid meet">
<metadata>
Created by potrace 1.16, written by Peter Selinger 2001-2019
</metadata>
<g transform="translate(0.000000,168.000000) scale(0.100000,-0.100000)"
fill="#000000" stroke="none">
<path d="M848 428 c-44 3 -48 1 -72 -35 -14 -21 -26 -43 -26 -50 0 -7 9 -17
20 -23 12 -6 31 -10 43 -8 17 2 23 -3 25 -22 2 -13 -1 -41 -7 -61 -6 -20 -23
-45 -37 -54 -15 -9 -47 -22 -73 -29 -29 -7 -47 -17 -49 -28 -2 -9 7 -22 19
-29 17 -9 34 -9 74 0 37 9 61 22 88 49 20 20 43 54 52 74 8 21 15 66 15 100 0
35 -6 74 -13 88 -10 20 -21 26 -59 28z"/>
</g>
</svg>
