<?xml version="1.0" standalone="no"?>
<!DOCTYPE svg PUBLIC "-//W3C//DTD SVG 20010904//EN"
 "http://www.w3.org/TR/2001/REC-SVG-20010904/DTD/svg10.dtd">
<svg version="1.0" xmlns="http://www.w3.org/2000/svg"
 width="157.000000pt" height="170.000000pt" viewBox="0 0 157.000000 170.000000"
 preserveAspectRatio="xMidYMid meet">
<metadata>
Created by potrace 1.16, written by Peter Selinger 2001-2019
</metadata>
<g transform="translate(0.000000,170.000000) scale(0.100000,-0.100000)"
fill="#000000" stroke="none">
<path d="M828 899 c-2 -1 -18 -6 -37 -12 -19 -6 -60 -35 -92 -64 -32 -30 -72
-75 -88 -100 -19 -29 -31 -59 -31 -80 0 -19 8 -41 19 -52 11 -11 39 -25 63
-31 31 -9 52 -9 80 -1 20 6 50 23 66 36 17 14 32 25 35 25 2 0 7 -55 11 -122
4 -68 9 -166 12 -218 3 -52 11 -101 16 -107 6 -7 18 -13 28 -13 10 0 26 12 35
27 16 23 17 34 7 87 -6 34 -16 94 -23 135 -7 44 -8 107 -4 160 4 47 13 122 21
166 8 44 14 92 14 108 0 23 -4 27 -29 27 -16 0 -45 7 -64 15 -20 8 -38 15 -39
14z m-12 -79 c7 0 15 -25 19 -56 6 -53 5 -58 -22 -86 -15 -16 -45 -39 -66 -49
-21 -11 -46 -17 -57 -14 -10 3 -23 12 -30 20 -9 10 -8 21 5 44 8 17 30 47 48
68 17 20 45 45 62 55 16 10 35 18 41 18z"/>
</g>
</svg>
