<?xml version="1.0" standalone="no"?>
<!DOCTYPE svg PUBLIC "-//W3C//DTD SVG 20010904//EN"
 "http://www.w3.org/TR/2001/REC-SVG-20010904/DTD/svg10.dtd">
<svg version="1.0" xmlns="http://www.w3.org/2000/svg"
 width="152.000000pt" height="167.000000pt" viewBox="0 0 152.000000 167.000000"
 preserveAspectRatio="xMidYMid meet">
<metadata>
Created by potrace 1.16, written by Peter Selinger 2001-2019
</metadata>
<g transform="translate(0.000000,167.000000) scale(0.100000,-0.100000)"
fill="#000000" stroke="none">
<path d="M901 1119 c-9 0 -47 -18 -86 -40 -38 -22 -122 -76 -186 -119 -64 -43
-143 -91 -175 -108 -43 -21 -69 -28 -95 -25 -23 3 -39 0 -48 -10 -6 -8 -14
-31 -18 -50 -5 -30 -2 -35 20 -41 14 -3 39 -3 56 0 25 5 53 -7 173 -76 79 -46
177 -103 218 -127 41 -24 87 -53 101 -65 22 -16 32 -19 55 -11 22 7 30 17 32
38 3 19 -2 33 -14 42 -10 7 -29 13 -43 13 -14 0 -51 14 -81 32 -30 17 -89 49
-130 71 -41 22 -105 60 -142 84 -38 25 -65 49 -62 56 2 7 73 58 157 114 83 56
167 109 186 118 25 13 47 15 83 11 35 -5 48 -3 49 6 1 7 0 22 -1 33 -1 11 -9
28 -17 38 -9 9 -23 17 -32 16z"/>
</g>
</svg>
