<?xml version="1.0" standalone="no"?>
<!DOCTYPE svg PUBLIC "-//W3C//DTD SVG 20010904//EN"
 "http://www.w3.org/TR/2001/REC-SVG-20010904/DTD/svg10.dtd">
<svg version="1.0" xmlns="http://www.w3.org/2000/svg"
 width="163.000000pt" height="178.000000pt" viewBox="0 0 163.000000 178.000000"
 preserveAspectRatio="xMidYMid meet">
<metadata>
Created by potrace 1.16, written by Peter Selinger 2001-2019
</metadata>
<g transform="translate(0.000000,178.000000) scale(0.100000,-0.100000)"
fill="#000000" stroke="none">
<path d="M717 1360 c-12 0 -38 -10 -57 -22 -19 -13 -68 -49 -109 -81 -40 -32
-95 -69 -122 -82 -27 -14 -57 -25 -68 -25 -11 0 -26 -3 -35 -6 -9 -3 -16 -14
-16 -25 0 -10 9 -23 19 -29 11 -5 34 -7 53 -3 18 3 55 17 83 31 27 14 86 54
130 89 44 35 81 59 83 54 2 -6 -9 -63 -24 -127 -27 -115 -27 -115 3 -145 20
-21 35 -28 47 -23 16 6 18 15 13 55 -4 34 1 77 19 145 13 53 24 110 24 126 0
16 -5 38 -10 49 -6 10 -21 19 -33 19z M1095 1348 c-13 1 -39 -16 -73 -49 -29
-28 -106 -114 -171 -192 -64 -78 -153 -175 -197 -216 -43 -41 -96 -86 -118
-100 -21 -14 -49 -33 -62 -41 -15 -9 -23 -23 -22 -35 2 -13 12 -21 29 -23 19
-2 47 13 106 57 43 33 124 106 179 163 55 57 125 137 157 178 31 41 72 92 91
113 19 20 51 44 71 53 33 14 36 18 33 52 -2 28 -8 38 -23 40z M1049 939 c-8
-1 -23 -3 -34 -6 -11 -2 -35 -9 -53 -15 -19 -5 -49 -24 -68 -40 -24 -21 -34
-39 -34 -59 0 -21 5 -29 18 -29 10 0 29 12 43 26 13 15 38 33 56 40 18 8 37
14 43 14 5 0 10 -10 9 -22 0 -13 -12 -44 -27 -70 -15 -26 -64 -93 -109 -148
-46 -55 -83 -104 -83 -110 0 -5 11 -17 25 -26 23 -15 36 -15 167 -1 79 9 173
19 211 22 40 4 73 13 83 22 11 12 12 19 4 27 -7 7 -59 10 -158 8 -81 -2 -164
-7 -184 -12 -25 -5 -38 -4 -38 2 0 6 32 48 70 94 39 46 80 103 90 126 11 24
20 61 20 84 0 27 -6 46 -18 57 -10 10 -25 16 -33 16z"/>
</g>
</svg>
