<?xml version="1.0" standalone="no"?>
<!DOCTYPE svg PUBLIC "-//W3C//DTD SVG 20010904//EN"
 "http://www.w3.org/TR/2001/REC-SVG-20010904/DTD/svg10.dtd">
<svg version="1.0" xmlns="http://www.w3.org/2000/svg"
 width="155.000000pt" height="172.000000pt" viewBox="0 0 155.000000 172.000000"
 preserveAspectRatio="xMidYMid meet">
<metadata>
Created by potrace 1.16, written by Peter Selinger 2001-2019
</metadata>
<g transform="translate(0.000000,172.000000) scale(0.100000,-0.100000)"
fill="#000000" stroke="none">
<path d="M602 1230 c-4 0 -12 -4 -19 -8 -6 -4 -14 -18 -17 -32 -3 -14 -12 -97
-20 -185 -8 -88 -18 -202 -22 -252 -3 -51 -10 -93 -13 -93 -4 0 -12 5 -19 12
-10 9 -16 9 -28 -4 -14 -13 -14 -19 -2 -41 7 -14 40 -48 74 -74 33 -27 85 -60
115 -73 39 -17 74 -24 125 -24 59 -1 76 3 107 24 20 14 44 42 53 62 11 25 15
53 12 87 -3 27 -18 76 -34 108 -19 37 -45 70 -72 90 -31 24 -54 33 -81 33 -21
0 -53 -5 -72 -11 -19 -7 -44 -21 -56 -31 -12 -11 -26 -18 -31 -14 -5 3 -5 28
-1 58 4 29 12 87 18 128 5 41 12 105 15 142 4 52 2 71 -10 83 -9 8 -18 15 -22
15z m148 -436 c14 -3 38 -13 54 -22 16 -10 40 -37 53 -61 16 -30 23 -61 23
-97 0 -44 -4 -56 -25 -72 -14 -11 -41 -23 -60 -26 -23 -5 -58 0 -103 13 -37
11 -76 27 -87 35 -16 12 -18 17 -7 27 6 7 12 33 12 57 0 24 5 52 10 63 6 11
32 35 58 54 35 26 53 34 72 29z"/>
</g>
</svg>
