<?xml version="1.0" standalone="no"?>
<!DOCTYPE svg PUBLIC "-//W3C//DTD SVG 20010904//EN"
 "http://www.w3.org/TR/2001/REC-SVG-20010904/DTD/svg10.dtd">
<svg version="1.0" xmlns="http://www.w3.org/2000/svg"
 width="151.000000pt" height="168.000000pt" viewBox="0 0 151.000000 168.000000"
 preserveAspectRatio="xMidYMid meet">
<metadata>
Created by potrace 1.16, written by Peter Selinger 2001-2019
</metadata>
<g transform="translate(0.000000,168.000000) scale(0.100000,-0.100000)"
fill="#000000" stroke="none">
<path d="M532 1340 c-10 0 -23 -5 -30 -12 -7 -7 -12 -20 -12 -29 0 -10 4 -20
9 -24 6 -3 43 -58 84 -123 42 -65 90 -145 107 -177 18 -33 47 -87 65 -120 18
-33 52 -96 77 -140 24 -44 56 -98 70 -121 14 -22 44 -76 66 -120 22 -43 56
-130 76 -191 20 -62 36 -128 36 -148 0 -26 6 -39 24 -50 19 -13 29 -14 45 -5
12 6 21 20 21 31 0 11 -7 34 -17 52 -9 18 -26 68 -39 112 -12 44 -37 116 -56
160 -18 44 -64 132 -102 195 -38 63 -83 142 -101 175 -18 33 -62 114 -97 180
-36 66 -83 152 -105 190 -21 39 -54 92 -72 118 -17 26 -40 47 -49 47z"/>
</g>
</svg>
