<?xml version="1.0" standalone="no"?>
<!DOCTYPE svg PUBLIC "-//W3C//DTD SVG 20010904//EN"
 "http://www.w3.org/TR/2001/REC-SVG-20010904/DTD/svg10.dtd">
<svg version="1.0" xmlns="http://www.w3.org/2000/svg"
 width="157.000000pt" height="169.000000pt" viewBox="0 0 157.000000 169.000000"
 preserveAspectRatio="xMidYMid meet">
<metadata>
Created by potrace 1.16, written by Peter Selinger 2001-2019
</metadata>
<g transform="translate(0.000000,169.000000) scale(0.100000,-0.100000)"
fill="#000000" stroke="none">
<path d="M421 1690 c-16 0 -33 -4 -36 -10 -3 -5 -3 -15 0 -20 3 -6 -1 -13 -9
-16 -9 -3 -16 -9 -16 -13 0 -3 10 -11 23 -16 12 -6 30 -9 40 -7 9 2 17 8 17
13 0 5 -9 9 -20 9 -11 0 -20 4 -20 9 0 6 6 13 13 18 6 4 16 8 21 8 5 0 11 6
14 13 2 8 -7 12 -27 12z M1505 1659 c-5 -1 -18 -3 -27 -6 -10 -2 -18 -9 -18
-15 0 -6 10 -8 25 -4 14 4 25 3 25 -2 0 -4 -7 -17 -15 -28 -12 -18 -12 -26 -2
-48 7 -14 15 -26 19 -26 4 0 10 5 14 11 3 6 1 16 -5 22 -6 6 -11 19 -11 29 0
10 7 21 15 24 11 5 12 10 2 25 -6 10 -16 18 -22 18z M501 1636 c-17 1 -32 -1
-35 -3 -2 -3 -2 -11 1 -19 3 -8 0 -14 -6 -14 -6 0 -11 -7 -11 -15 0 -8 -4 -15
-10 -15 -5 0 -10 -15 -10 -32 1 -33 1 -33 18 -3 11 20 23 30 35 27 9 -2 17
-11 17 -20 0 -12 7 -9 28 13 24 27 26 33 15 55 -9 17 -21 25 -42 26z M231
1500 c-33 0 -33 -1 -27 -35 6 -31 4 -35 -19 -41 -14 -3 -25 -10 -25 -14 0 -4
7 -11 16 -14 9 -3 22 -6 30 -6 8 0 14 10 14 25 0 14 6 25 13 25 8 0 7 4 -3 10
-13 9 -11 13 10 30 25 20 25 20 -9 20z M221 1290 c-6 0 -13 -4 -16 -10 -3 -5
-2 -10 4 -10 5 0 16 -13 25 -30 13 -27 13 -30 -2 -30 -15 0 -15 -2 -2 -10 8
-5 23 -10 34 -10 13 0 17 5 13 18 -2 9 -6 23 -8 31 -2 8 4 17 14 19 10 2 17
-2 17 -12 0 -8 5 -18 10 -21 6 -4 10 5 10 19 0 24 -3 26 -45 26 -25 0 -45 5
-45 10 0 6 -4 10 -9 10z M60 1267 c-10 7 -21 9 -24 6 -3 -4 -6 -14 -6 -24 0
-9 9 -19 19 -22 11 -3 18 -12 17 -22 -1 -9 -8 -20 -15 -25 -10 -5 -10 -12 -2
-28 8 -16 7 -21 -4 -26 -8 -3 -15 -17 -15 -31 0 -20 5 -25 28 -26 16 -1 20 -3
10 -6 -10 -2 -18 -9 -18 -14 0 -6 10 -9 23 -7 18 2 22 10 25 48 2 25 7 49 13
55 5 5 9 13 9 18 0 5 -9 7 -21 4 -16 -4 -19 -2 -15 10 4 9 4 30 0 47 -3 18
-14 37 -24 43z M713 1263 c-10 20 -12 20 -18 5 -4 -10 -13 -18 -21 -18 -8 0
-14 -9 -14 -20 0 -13 7 -20 19 -20 11 0 23 5 27 11 3 6 17 8 29 5 13 -3 27 -2
30 4 3 6 -4 10 -18 10 -15 0 -28 8 -34 23z M765 1180 c-9 7 -15 8 -20 1 -3 -6
2 -22 12 -36 10 -13 21 -25 26 -25 4 0 7 6 7 13 0 9 2 9 9 -1 6 -9 19 -11 45
-7 20 4 36 10 36 14 0 4 -5 12 -11 18 -6 6 -18 9 -25 6 -8 -3 -21 0 -29 7 -8
6 -19 9 -25 5 -6 -4 -17 -2 -25 5z M436 1170 c-3 0 -8 -5 -12 -11 -3 -6 -1
-15 6 -19 9 -5 6 -12 -10 -23 -21 -15 -21 -16 -4 -42 17 -25 16 -26 -4 -32
-12 -3 -22 -12 -22 -19 0 -8 10 -14 25 -14 16 0 25 6 25 16 0 12 7 15 24 12
16 -3 27 0 30 9 4 8 -4 17 -20 23 -16 7 -24 16 -22 27 2 10 16 21 33 24 17 4
22 7 13 8 -10 0 -27 10 -38 21 -11 11 -22 20 -24 20z M946 1170 c-3 0 -6 -6
-6 -13 0 -7 5 -18 11 -24 6 -6 9 -19 7 -28 -3 -15 -6 -15 -30 4 -27 21 -27 21
-33 0 -5 -16 -9 -18 -15 -9 -4 7 -13 10 -18 6 -6 -4 -9 -13 -5 -22 4 -12 -2
-15 -33 -13 -22 1 -49 -1 -61 -5 -14 -4 -20 -12 -16 -22 3 -8 11 -13 18 -10 7
2 16 2 20 -2 4 -4 12 -7 18 -7 5 0 12 -5 14 -12 2 -6 -12 -16 -31 -23 -31 -10
-35 -14 -26 -31 6 -10 15 -19 19 -19 5 0 12 11 15 25 6 22 9 23 25 13 15 -9
23 -9 33 0 8 6 13 25 12 42 -1 16 2 30 7 30 5 0 9 7 9 15 0 9 9 15 22 15 12 0
32 -12 44 -27 23 -28 23 -28 18 5 -4 23 -1 34 10 38 9 3 16 11 16 18 -1 6 -9
21 -19 34 -11 12 -22 22 -25 22z M244 1100 c-13 0 -24 -4 -24 -9 0 -6 5 -13
10 -16 6 -4 8 -11 5 -16 -4 -5 1 -12 9 -15 9 -3 16 -10 16 -16 0 -5 7 -16 15
-25 9 -8 19 -13 22 -9 3 3 0 12 -6 20 -9 11 -9 16 0 21 6 4 15 1 20 -6 7 -11
9 -12 9 -1 0 8 -9 16 -20 19 -11 3 -23 16 -26 29 -4 17 -13 24 -30 24z M657
1060 c-4 0 -6 -4 -3 -8 3 -5 -5 -15 -18 -22 -14 -7 -27 -22 -30 -33 -3 -12 0
-27 6 -34 7 -9 7 -18 -3 -30 -7 -10 -15 -20 -16 -22 -1 -2 -9 2 -18 9 -12 10
-15 10 -15 -4 0 -9 4 -16 10 -16 5 0 7 -7 4 -15 -4 -8 -10 -12 -15 -9 -5 3 -9
-2 -9 -11 0 -13 4 -14 20 -5 11 6 18 15 15 19 -2 5 10 20 29 34 21 16 49 27
77 29 40 3 44 6 46 31 1 21 -2 27 -19 27 -16 0 -18 -3 -9 -14 8 -10 9 -16 1
-21 -5 -3 -15 -3 -21 1 -6 3 -15 1 -19 -7 -7 -10 -11 -10 -24 0 -9 8 -16 21
-16 31 0 9 3 19 6 23 3 3 17 2 30 -3 20 -8 24 -6 24 8 0 10 -5 23 -12 30 -7 7
-16 12 -21 12z M408 1000 c-3 0 -8 -7 -11 -14 -4 -10 -1 -13 9 -9 9 3 14 -1
14 -12 0 -11 7 -15 22 -13 11 2 23 -3 25 -9 3 -9 -7 -13 -31 -13 -20 0 -36 -4
-36 -10 0 -5 -7 -7 -15 -4 -10 4 -15 0 -15 -15 0 -12 4 -21 9 -21 5 0 17 -7
26 -17 13 -12 19 -13 25 -4 4 7 16 12 26 11 11 -1 25 -2 32 -1 6 0 12 5 12 10
0 5 -10 11 -21 14 -20 5 -20 7 -5 22 9 9 16 20 16 24 0 5 -17 20 -38 35 -21
14 -41 26 -44 26z M1416 960 c-14 0 -27 -3 -29 -7 -2 -5 -3 -15 -3 -23 1 -9
11 -15 26 -15 18 0 26 -6 28 -23 2 -12 7 -22 12 -22 4 0 7 7 6 15 -1 8 -5 18
-9 21 -4 4 -7 18 -7 31 0 18 -6 23 -24 23z M730 920 c-19 -1 -49 -7 -66 -14
-17 -8 -40 -26 -52 -41 -12 -15 -29 -51 -38 -79 -9 -28 -17 -87 -19 -131 -3
-64 -6 -79 -18 -77 -11 2 -14 -4 -10 -17 3 -12 15 -21 32 -23 14 -2 26 -8 26
-15 0 -6 3 -14 6 -18 4 -3 24 1 44 9 21 9 39 16 42 16 2 0 2 -9 -2 -19 -5 -15
-1 -19 20 -17 14 0 25 4 25 7 0 4 -7 9 -15 13 -8 3 -12 12 -9 21 3 8 15 15 25
15 11 0 40 20 64 45 31 30 49 59 57 91 7 26 19 49 26 52 7 2 24 -1 38 -8 20
-11 27 -11 41 2 10 8 24 13 31 11 7 -3 20 3 27 13 8 11 15 29 15 40 0 17 -10
25 -49 38 -28 9 -58 16 -69 16 -10 0 -29 11 -42 25 -13 14 -40 29 -59 35 -20
5 -52 10 -71 10z m-20 -100 c6 0 9 -4 6 -9 -3 -5 1 -14 9 -21 8 -6 23 -9 33
-6 18 6 19 3 11 -39 -5 -25 -13 -54 -19 -65 -6 -11 -24 -27 -40 -35 -16 -8
-36 -15 -44 -15 -8 0 -18 4 -21 10 -3 5 -3 38 1 72 5 45 13 68 30 85 13 13 28
23 34 23z M490 760 c-4 6 -10 6 -18 -2 -7 -7 -12 -20 -12 -30 0 -11 -7 -18
-19 -18 -10 0 -22 7 -25 17 -6 14 -8 14 -21 -3 -8 -10 -15 -36 -15 -57 0 -24
5 -40 15 -43 8 -4 15 -12 15 -19 0 -7 -7 -15 -15 -19 -8 -3 -15 -10 -15 -15 0
-6 14 -17 30 -26 17 -9 30 -11 30 -6 0 5 -4 13 -10 16 -6 4 -4 14 5 28 8 12
11 27 7 33 -4 6 -15 13 -24 17 -10 3 -18 13 -18 21 0 7 11 21 25 30 14 9 30
14 36 10 8 -4 7 -10 0 -17 -6 -6 -11 -15 -11 -19 0 -4 6 -8 14 -8 8 0 20 -13
28 -30 7 -16 15 -30 18 -30 3 0 5 21 5 46 -1 34 -7 50 -21 61 -16 12 -17 15
-4 23 8 6 22 8 30 5 9 -3 7 1 -4 10 -11 8 -23 19 -26 25z M1376 597 c-15 17
-25 22 -30 15 -4 -6 -2 -21 4 -32 6 -12 21 -20 36 -20 17 0 28 -7 31 -20 3
-11 12 -20 19 -20 8 0 14 -6 14 -14 0 -8 -4 -18 -10 -21 -5 -3 -10 -10 -10
-14 0 -4 16 -7 35 -7 26 0 35 4 35 17 0 9 7 22 15 29 12 10 13 16 4 26 -8 10
-9 18 0 27 6 8 8 17 5 20 -4 3 -22 -6 -41 -20 -33 -25 -36 -26 -48 -10 -7 9
-18 17 -24 17 -7 0 -22 12 -35 27z M1147 558 c-25 -1 -41 -7 -45 -17 -3 -9
-10 -19 -16 -23 -6 -4 -7 -10 -3 -14 4 -4 13 -2 19 4 7 7 16 12 21 12 4 0 6
-8 2 -19 -3 -12 0 -21 10 -25 8 -3 15 -12 15 -21 0 -8 7 -15 15 -15 8 0 15 6
15 14 0 7 7 19 15 26 12 10 15 9 16 -6 1 -11 1 -26 0 -34 -1 -11 2 -11 13 3
10 13 21 17 35 12 15 -5 21 -2 21 9 0 9 -8 16 -19 16 -11 0 -23 5 -26 10 -3 6
-22 10 -41 10 -19 0 -34 5 -34 11 0 7 9 9 21 6 13 -3 22 0 26 10 3 8 0 19 -8
24 -8 5 -31 8 -52 7z M935 430 c-8 0 -15 -3 -15 -6 0 -4 8 -13 18 -20 15 -12
13 -13 -21 -14 -35 0 -38 -2 -35 -26 2 -15 14 -32 30 -42 15 -9 30 -13 34 -9
4 3 -4 16 -17 27 -20 16 -21 21 -10 29 8 5 20 7 28 4 7 -3 13 -12 13 -20 0
-10 6 -12 20 -8 11 4 29 0 42 -9 12 -9 33 -16 45 -16 13 0 23 6 23 14 0 8 10
16 23 18 12 2 22 10 22 18 0 10 -8 14 -25 12 -14 -2 -32 -10 -40 -17 -12 -11
-23 -10 -62 2 -34 11 -48 22 -52 39 -4 13 -13 24 -21 24z M1250 416 c-29 -1
-36 -4 -28 -13 6 -7 16 -13 23 -13 8 0 26 -8 43 -17 27 -15 30 -15 53 1 24 18
24 18 -19 13 -39 -5 -43 -3 -39 13 4 15 -1 18 -33 16z M1528 410 c-4 0 -8 -9
-8 -21 0 -14 -5 -19 -15 -16 -8 4 -17 1 -21 -5 -4 -6 -21 -8 -40 -5 -19 3 -36
1 -40 -4 -3 -5 -21 -7 -41 -3 -33 6 -36 5 -31 -14 4 -13 -1 -27 -13 -37 -10
-10 -24 -15 -31 -12 -7 2 -21 0 -31 -5 -10 -5 -15 -13 -12 -18 3 -5 12 -7 20
-3 9 3 15 -1 15 -8 0 -7 7 -3 16 9 11 15 25 22 50 22 19 0 34 4 34 9 0 5 -6
11 -12 14 -7 2 -9 8 -5 13 4 4 17 3 28 -4 16 -10 24 -10 35 -1 7 6 21 9 29 5
9 -3 13 -2 10 4 -3 6 5 10 18 10 14 0 27 -6 30 -14 3 -8 0 -26 -6 -40 -7 -14
-16 -24 -22 -23 -5 2 -11 9 -11 15 -1 7 -2 15 -3 18 0 4 -8 1 -16 -6 -10 -9
-12 -17 -6 -23 5 -5 7 -17 3 -26 -3 -9 -12 -21 -20 -27 -12 -8 -11 -12 2 -23
12 -10 16 -11 16 -1 0 9 4 9 13 3 6 -6 24 -13 39 -17 24 -5 28 -3 34 19 3 14
3 40 0 58 -4 17 -7 37 -7 42 0 6 2 34 3 63 2 28 0 52 -4 52z M727 393 c-7 2
-22 1 -34 -4 -13 -5 -23 -14 -23 -21 0 -7 4 -19 9 -27 6 -8 16 -11 31 -6 14 5
20 3 16 -3 -3 -6 0 -13 6 -16 9 -4 10 -8 2 -11 -6 -3 -20 -13 -30 -21 -18 -14
-16 -15 19 -9 33 5 37 4 37 -15 0 -13 7 -20 20 -20 17 0 18 3 8 26 -9 20 -9
27 1 34 10 6 8 9 -8 15 -11 3 -21 13 -21 21 0 8 6 14 14 14 8 0 18 5 22 11 5
9 -4 10 -31 5 -31 -6 -37 -5 -32 7 3 9 0 17 -6 20z M300 360 c-11 0 -20 -6
-21 -12 -1 -7 0 -23 1 -35 1 -14 -4 -23 -12 -23 -7 0 -21 9 -31 20 -9 11 -13
20 -9 21 4 0 -2 4 -13 8 -15 6 -22 3 -30 -13 -9 -16 -8 -24 4 -32 8 -7 11 -16
6 -24 -6 -10 -1 -12 22 -7 17 3 35 1 42 -6 8 -8 14 -8 23 1 7 7 22 12 35 12
13 0 23 -6 23 -12 0 -7 12 -13 28 -13 15 -1 30 4 34 10 4 5 8 16 8 23 0 8 -8
10 -25 6 -15 -4 -32 -1 -41 7 -13 10 -17 10 -26 -2 -8 -11 -9 -11 -4 3 3 11
-2 21 -12 27 -16 9 -16 10 1 16 9 4 17 11 17 16 0 5 -9 9 -20 9z M1143 299
c-24 -2 -25 -2 -5 -6 14 -3 22 -12 22 -24 0 -17 -5 -20 -28 -14 -20 4 -36 0
-55 -15 -15 -12 -25 -26 -22 -31 4 -5 6 -36 6 -69 1 -61 1 -61 35 -58 19 1 40
8 46 15 6 7 19 13 29 13 12 0 19 7 19 19 0 11 3 27 6 36 6 14 1 16 -32 11 -22
-3 -33 -3 -26 0 6 3 12 9 12 14 0 4 -9 10 -20 13 -11 3 -20 4 -20 2 0 -2 5
-16 12 -30 8 -19 16 -24 31 -19 14 4 18 2 15 -7 -3 -8 -12 -14 -22 -14 -9 0
-21 -6 -25 -14 -5 -8 -16 -11 -25 -8 -11 5 -16 19 -16 51 0 28 6 51 16 61 13
12 19 13 24 4 6 -9 16 -7 41 8 19 11 41 19 49 16 8 -2 3 3 -12 12 -16 9 -28
20 -28 25 0 6 -12 9 -27 9z M665 259 c-5 0 -1 -4 10 -9 18 -7 18 -9 4 -15 -10
-3 -22 -27 -29 -52 -9 -37 -8 -48 2 -54 7 -5 23 -9 35 -9 12 0 29 -3 38 -7 14
-5 16 -2 11 15 -4 11 -2 23 4 27 8 5 6 14 -4 31 -9 13 -16 32 -16 42 0 12 -9
22 -22 26 -13 3 -27 5 -33 5z M86 216 c-15 14 -17 14 -22 -1 -5 -12 -9 -13
-20 -4 -11 9 -14 7 -14 -10 0 -17 4 -21 19 -16 12 3 21 0 24 -9 4 -9 2 -18 -3
-21 -6 -4 -10 -13 -10 -22 0 -9 -8 -25 -17 -35 -10 -11 -13 -22 -7 -27 5 -5
27 -11 48 -13 25 -2 41 2 43 10 3 6 -3 12 -13 12 -16 0 -16 1 0 19 10 11 15
25 11 31 -4 6 -15 8 -26 5 -10 -4 -19 -2 -19 3 0 4 11 18 25 30 14 12 31 22
39 22 8 0 16 -7 20 -15 3 -8 16 -15 28 -14 22 0 22 1 3 9 -17 7 -15 9 13 9 17
1 32 5 32 10 0 5 -7 11 -15 14 -8 4 -17 2 -20 -3 -4 -6 -15 -10 -27 -10 -13 0
-18 5 -15 14 5 12 0 12 -26 5 -18 -5 -33 -9 -34 -9 -1 0 -9 7 -17 16z M1270
230 c-6 0 -10 -13 -10 -30 0 -26 -4 -30 -27 -30 -16 0 -23 -4 -17 -8 6 -4 13
-14 16 -23 4 -9 21 -19 39 -23 23 -4 30 -9 22 -17 -8 -8 -17 -8 -30 -1 -11 6
-25 7 -33 2 -7 -4 -19 -6 -27 -3 -7 3 -13 -2 -13 -11 0 -13 4 -15 19 -6 11 5
27 7 35 4 9 -3 16 -12 16 -18 0 -7 -9 -22 -20 -34 -11 -12 -20 -23 -20 -26 0
-3 18 -4 40 -4 41 0 41 0 24 25 -11 18 -12 24 -2 19 7 -3 21 -9 31 -12 9 -4
17 -11 17 -16 0 -6 6 -8 14 -5 8 3 16 1 18 -5 3 -7 12 -9 21 -5 9 3 17 15 17
26 0 11 -8 25 -19 30 -10 6 -21 7 -25 4 -3 -4 -3 8 0 25 6 30 5 32 -21 32 -23
0 -26 2 -15 15 7 8 19 15 26 15 8 0 14 5 14 10 0 6 -6 10 -12 10 -8 0 -5 7 6
15 11 8 28 15 38 15 10 0 18 4 18 8 0 5 -2 11 -6 14 -3 3 -27 -3 -54 -13 -49
-18 -50 -18 -60 1 -6 11 -15 20 -20 20z M841 216 c-24 1 -42 -3 -45 -11 -3 -9
2 -11 16 -7 18 4 20 2 14 -21 -3 -15 -1 -29 5 -33 6 -3 17 0 24 7 8 8 16 25
20 39 5 23 3 25 -34 26z M264 170 c-11 0 -29 -9 -38 -19 -11 -12 -13 -21 -7
-25 6 -4 8 -20 4 -36 -3 -18 -1 -30 5 -30 6 0 13 6 15 13 4 7 8 3 12 -10 4
-13 11 -23 15 -23 4 0 10 7 14 15 3 8 12 12 19 9 8 -3 17 2 21 12 4 9 4 19 1
22 -2 3 -10 0 -18 -6 -7 -6 -23 -9 -36 -5 -19 5 -21 10 -15 37 3 17 12 34 18
38 6 5 3 8 -10 8z M423 160 c-3 0 -3 -11 -1 -25 3 -14 0 -29 -6 -32 -6 -4 -2
-9 12 -13 21 -5 21 -6 7 -34 -8 -15 -15 -35 -15 -43 0 -10 6 -13 16 -9 9 3 18
6 20 6 2 0 4 13 4 30 0 20 5 30 15 30 8 0 15 7 15 15 0 8 6 15 14 15 8 0 17
-7 20 -16 3 -9 13 -14 21 -10 8 3 17 1 20 -4 4 -6 17 -10 31 -10 13 0 24 -4
24 -10 0 -5 -19 -10 -42 -11 -43 -1 -43 -1 -15 -13 15 -7 25 -14 23 -17 -3 -3
7 -5 22 -4 17 0 26 6 24 14 -1 7 5 19 15 26 17 13 16 14 -10 24 -16 6 -25 16
-22 21 4 6 -4 19 -17 30 -13 11 -28 19 -34 20 -7 0 -14 -7 -18 -15 -4 -11 -13
-14 -30 -9 -13 3 -34 0 -46 -6 -21 -11 -22 -10 -16 13 4 18 1 27 -10 31 -9 3
-18 6 -21 6z M1395 140 c-4 0 -4 -11 -1 -25 5 -20 3 -25 -11 -25 -15 0 -16 -2
-3 -10 8 -5 30 -10 48 -10 17 0 32 3 32 6 0 3 -13 19 -29 35 -16 16 -33 29
-36 29z M1014 70 c-6 0 -19 -11 -27 -24 -12 -17 -13 -26 -4 -35 6 -6 24 -11
39 -11 16 0 38 10 51 22 22 23 22 23 -3 26 -14 2 -29 8 -34 13 -6 5 -15 9 -22
9z"/>
</g>
</svg>
