<?xml version="1.0" standalone="no"?>
<!DOCTYPE svg PUBLIC "-//W3C//DTD SVG 20010904//EN"
 "http://www.w3.org/TR/2001/REC-SVG-20010904/DTD/svg10.dtd">
<svg version="1.0" xmlns="http://www.w3.org/2000/svg"
 width="164.000000pt" height="180.000000pt" viewBox="0 0 164.000000 180.000000"
 preserveAspectRatio="xMidYMid meet">
<metadata>
Created by potrace 1.16, written by Peter Selinger 2001-2019
</metadata>
<g transform="translate(0.000000,180.000000) scale(0.100000,-0.100000)"
fill="#000000" stroke="none">
<path d="M709 1250 c-8 0 -22 -5 -31 -11 -12 -7 -18 -22 -18 -47 0 -21 5 -43
12 -50 7 -7 19 -12 29 -12 9 0 28 9 43 21 14 11 26 28 26 38 0 10 -10 27 -23
39 -13 12 -30 22 -38 22z M1085 1067 c-16 1 -41 -2 -55 -8 -14 -6 -90 -21
-170 -35 -109 -18 -184 -24 -302 -25 -87 0 -162 2 -168 6 -6 3 -19 3 -30 0
-11 -4 -20 -15 -20 -25 0 -11 9 -24 21 -30 12 -7 83 -11 182 -11 116 0 200 6
297 22 74 11 163 23 197 26 34 3 67 11 73 19 7 7 10 23 8 36 -2 18 -10 23 -33
25z M712 838 c-32 2 -44 -1 -48 -13 -4 -9 -1 -28 7 -41 7 -14 20 -29 29 -34 8
-4 25 -4 38 1 20 7 23 15 20 46 -3 37 -4 38 -46 41z"/>
</g>
</svg>
