<?xml version="1.0" standalone="no"?>
<!DOCTYPE svg PUBLIC "-//W3C//DTD SVG 20010904//EN"
 "http://www.w3.org/TR/2001/REC-SVG-20010904/DTD/svg10.dtd">
<svg version="1.0" xmlns="http://www.w3.org/2000/svg"
 width="153.000000pt" height="166.000000pt" viewBox="0 0 153.000000 166.000000"
 preserveAspectRatio="xMidYMid meet">
<metadata>
Created by potrace 1.16, written by Peter Selinger 2001-2019
</metadata>
<g transform="translate(0.000000,166.000000) scale(0.100000,-0.100000)"
fill="#000000" stroke="none">
<path d="M790 1239 c-19 0 -46 -5 -60 -10 -14 -6 -44 -29 -67 -51 -23 -23 -45
-54 -48 -69 -4 -16 -4 -37 -1 -47 4 -11 17 -24 30 -30 13 -6 26 -8 29 -5 3 2
3 20 0 38 -4 25 0 42 17 65 13 18 39 39 58 47 22 9 48 12 73 8 24 -4 46 -16
59 -32 13 -16 20 -41 20 -67 0 -27 -10 -58 -29 -91 -16 -27 -38 -58 -49 -68
-11 -11 -36 -26 -54 -35 -18 -10 -34 -25 -36 -34 -2 -12 5 -19 25 -23 15 -4
40 -11 55 -17 15 -6 44 -28 63 -49 27 -30 35 -48 35 -77 0 -21 -7 -47 -15 -59
-9 -13 -39 -29 -67 -38 -28 -8 -81 -15 -116 -15 -47 0 -77 6 -109 22 -32 16
-46 19 -54 11 -7 -7 -9 -18 -6 -26 3 -8 32 -21 64 -30 33 -10 93 -17 134 -17
41 0 91 5 112 11 21 5 52 22 68 37 20 18 33 42 38 67 4 22 4 56 0 75 -5 25
-24 51 -64 88 -56 52 -56 52 -25 91 17 22 40 60 51 86 12 27 21 71 22 105 2
45 -2 63 -18 80 -11 13 -38 31 -60 41 -22 10 -56 18 -75 18z"/>
</g>
</svg>
