<?xml version="1.0" standalone="no"?>
<!DOCTYPE svg PUBLIC "-//W3C//DTD SVG 20010904//EN"
 "http://www.w3.org/TR/2001/REC-SVG-20010904/DTD/svg10.dtd">
<svg version="1.0" xmlns="http://www.w3.org/2000/svg"
 width="164.000000pt" height="179.000000pt" viewBox="0 0 164.000000 179.000000"
 preserveAspectRatio="xMidYMid meet">
<metadata>
Created by potrace 1.16, written by Peter Selinger 2001-2019
</metadata>
<g transform="translate(0.000000,179.000000) scale(0.100000,-0.100000)"
fill="#000000" stroke="none">
<path d="M924 1170 c-7 0 -18 -9 -24 -19 -5 -11 -10 -36 -10 -56 0 -22 8 -47
20 -63 l21 -26 -32 -25 c-20 -15 -47 -56 -70 -105 -21 -45 -53 -97 -71 -117
-18 -20 -63 -61 -99 -90 -37 -30 -79 -63 -95 -75 -17 -12 -25 -25 -20 -32 4
-7 17 -12 29 -12 12 0 53 25 91 55 38 30 73 55 78 55 4 0 6 -11 2 -24 -3 -14
1 -37 10 -55 9 -17 25 -35 35 -41 11 -5 41 -10 68 -10 26 0 64 5 83 10 20 5
65 30 100 55 36 24 82 54 103 65 25 14 37 27 35 38 -2 9 -12 18 -22 20 -10 2
-49 -18 -90 -46 -39 -27 -85 -56 -101 -65 -17 -8 -44 -16 -60 -17 -17 -1 -40
-2 -52 -1 -12 1 -27 9 -32 19 -6 11 -6 36 0 65 4 25 18 66 29 89 11 24 33 66
48 93 15 28 35 61 44 74 13 18 14 29 7 43 -7 13 -4 25 12 47 13 18 22 45 23
71 0 33 -4 46 -23 61 -13 10 -29 19 -37 19z"/>
</g>
</svg>
