<?xml version="1.0" standalone="no"?>
<!DOCTYPE svg PUBLIC "-//W3C//DTD SVG 20010904//EN"
 "http://www.w3.org/TR/2001/REC-SVG-20010904/DTD/svg10.dtd">
<svg version="1.0" xmlns="http://www.w3.org/2000/svg"
 width="156.000000pt" height="173.000000pt" viewBox="0 0 156.000000 173.000000"
 preserveAspectRatio="xMidYMid meet">
<metadata>
Created by potrace 1.16, written by Peter Selinger 2001-2019
</metadata>
<g transform="translate(0.000000,173.000000) scale(0.100000,-0.100000)"
fill="#000000" stroke="none">
<path d="M779 900 c-34 0 -76 -9 -113 -25 -33 -13 -84 -41 -114 -62 -30 -20
-74 -61 -98 -91 -24 -30 -47 -65 -50 -78 -4 -13 -1 -38 6 -54 7 -17 27 -42 44
-57 17 -14 49 -34 71 -44 31 -14 65 -19 150 -18 76 0 143 7 216 22 58 13 118
31 133 41 15 9 25 23 23 29 -2 7 -21 12 -43 11 -21 0 -81 -11 -133 -22 -62
-14 -128 -22 -190 -22 -72 0 -105 4 -130 18 -19 9 -43 29 -54 44 -14 18 -18
34 -13 53 4 15 28 50 54 77 31 33 69 61 111 80 35 16 85 32 112 35 27 3 49 2
49 -2 0 -5 -9 -19 -21 -31 -12 -12 -18 -27 -14 -33 3 -6 15 -11 25 -11 10 0
37 12 59 27 26 17 41 34 41 47 0 12 -14 30 -33 44 -25 16 -47 22 -88 22z"/>
</g>
</svg>
