<?xml version="1.0" standalone="no"?>
<!DOCTYPE svg PUBLIC "-//W3C//DTD SVG 20010904//EN"
 "http://www.w3.org/TR/2001/REC-SVG-20010904/DTD/svg10.dtd">
<svg version="1.0" xmlns="http://www.w3.org/2000/svg"
 width="157.000000pt" height="173.000000pt" viewBox="0 0 157.000000 173.000000"
 preserveAspectRatio="xMidYMid meet">
<metadata>
Created by potrace 1.16, written by Peter Selinger 2001-2019
</metadata>
<g transform="translate(0.000000,173.000000) scale(0.100000,-0.100000)"
fill="#000000" stroke="none">
<path d="M746 920 c-26 0 -39 -10 -78 -58 -29 -37 -56 -84 -72 -132 -16 -46
-26 -95 -26 -131 0 -50 3 -60 26 -78 17 -14 41 -21 67 -21 37 0 46 6 93 57 29
31 55 55 57 53 1 -3 8 -26 15 -53 7 -26 12 -73 12 -105 0 -32 -7 -84 -15 -117
-9 -32 -28 -80 -42 -107 -15 -28 -36 -51 -48 -54 -12 -3 -32 -4 -46 -2 -13 2
-35 10 -49 17 -14 7 -42 31 -64 54 -21 23 -47 61 -57 84 -11 23 -24 45 -29 48
-5 3 -19 1 -30 -5 -13 -7 -20 -21 -20 -40 0 -17 14 -49 33 -76 17 -26 51 -65
75 -87 24 -22 55 -47 70 -55 18 -9 49 -13 95 -10 62 3 70 7 101 38 18 19 43
60 55 90 12 30 29 97 38 148 14 86 14 103 -1 198 -8 57 -23 115 -32 129 -9 14
-26 25 -38 25 -20 0 -21 5 -21 74 0 59 -4 78 -19 95 -12 13 -31 21 -50 21z
m-8 -124 c2 -15 -6 -43 -17 -62 -12 -19 -21 -42 -21 -51 0 -9 7 -21 15 -27 14
-10 12 -16 -14 -46 -16 -19 -33 -31 -37 -27 -5 5 -8 28 -7 52 1 23 14 69 29
101 15 33 32 65 38 73 9 12 12 9 14 -13z"/>
</g>
</svg>
