<?xml version="1.0" standalone="no"?>
<!DOCTYPE svg PUBLIC "-//W3C//DTD SVG 20010904//EN"
 "http://www.w3.org/TR/2001/REC-SVG-20010904/DTD/svg10.dtd">
<svg version="1.0" xmlns="http://www.w3.org/2000/svg"
 width="153.000000pt" height="168.000000pt" viewBox="0 0 153.000000 168.000000"
 preserveAspectRatio="xMidYMid meet">
<metadata>
Created by potrace 1.16, written by Peter Selinger 2001-2019
</metadata>
<g transform="translate(0.000000,168.000000) scale(0.100000,-0.100000)"
fill="#000000" stroke="none">
<path d="M922 1499 c-15 -1 -48 -5 -73 -8 -26 -4 -64 -18 -85 -33 -22 -14 -53
-40 -70 -57 -17 -16 -45 -57 -62 -89 -17 -32 -34 -76 -38 -98 -4 -26 -1 -52 9
-75 10 -24 47 -61 113 -115 54 -43 107 -94 117 -112 17 -29 18 -37 7 -57 -7
-13 -29 -32 -48 -41 -25 -11 -48 -15 -80 -10 -28 4 -50 2 -59 -5 -11 -10 -11
-15 3 -30 13 -14 31 -19 73 -19 33 0 73 8 98 19 23 11 50 32 59 47 10 15 19
44 19 65 0 20 -7 49 -15 63 -7 15 -50 54 -94 89 -44 34 -93 74 -108 89 -21 20
-28 36 -28 65 0 21 11 61 24 88 12 28 35 65 51 83 15 18 47 44 71 58 39 23 51
25 99 19 44 -5 56 -3 61 8 3 9 1 25 -6 36 -7 14 -20 21 -38 20z M748 960 c-18
-1 -51 -7 -73 -15 -22 -8 -40 -15 -41 -15 0 0 -15 -20 -33 -45 -25 -36 -32
-55 -33 -94 0 -27 8 -63 17 -82 10 -19 59 -74 110 -124 51 -49 98 -100 104
-112 6 -12 11 -29 11 -38 0 -9 -11 -27 -24 -40 -13 -13 -43 -29 -66 -35 -24
-6 -89 -11 -146 -11 -68 1 -105 -3 -110 -11 -4 -6 2 -18 12 -25 15 -12 46 -14
149 -11 95 3 139 9 162 21 17 9 41 29 52 43 16 20 21 41 21 83 0 56 0 56 -100
151 -58 56 -106 111 -115 132 -8 21 -15 51 -15 69 0 22 10 41 34 65 23 23 43
34 63 34 16 0 38 6 48 14 11 8 16 19 12 30 -4 10 -18 16 -39 16z"/>
</g>
</svg>
