<?xml version="1.0" standalone="no"?>
<!DOCTYPE svg PUBLIC "-//W3C//DTD SVG 20010904//EN"
 "http://www.w3.org/TR/2001/REC-SVG-20010904/DTD/svg10.dtd">
<svg version="1.0" xmlns="http://www.w3.org/2000/svg"
 width="156.000000pt" height="170.000000pt" viewBox="0 0 156.000000 170.000000"
 preserveAspectRatio="xMidYMid meet">
<metadata>
Created by potrace 1.16, written by Peter Selinger 2001-2019
</metadata>
<g transform="translate(0.000000,170.000000) scale(0.100000,-0.100000)"
fill="#000000" stroke="none">
<path d="M936 1290 c-34 -1 -81 -9 -108 -19 -26 -10 -64 -29 -85 -41 -21 -13
-53 -37 -70 -54 -25 -23 -33 -38 -33 -66 0 -26 10 -47 38 -80 20 -25 92 -99
159 -165 76 -76 124 -131 129 -149 5 -22 3 -32 -12 -43 -10 -7 -37 -18 -59
-24 -26 -8 -94 -9 -195 -5 -85 3 -181 12 -213 20 -33 7 -64 19 -70 25 -6 6
-19 11 -29 11 -11 0 -18 -7 -18 -20 0 -10 9 -24 20 -30 12 -6 53 -18 93 -26
40 -8 149 -17 242 -21 142 -5 179 -3 227 11 31 9 63 23 72 31 11 12 12 23 4
52 -5 21 -27 61 -48 88 -22 28 -78 88 -127 135 -48 47 -102 103 -120 125 -18
22 -33 52 -33 66 0 14 10 35 23 46 12 11 43 32 68 47 25 14 71 31 102 37 48
10 60 9 82 -5 14 -9 25 -22 25 -29 0 -6 -12 -35 -27 -64 -14 -29 -23 -56 -20
-59 3 -4 13 -4 21 -1 8 3 27 25 42 48 14 23 29 59 31 79 4 31 1 40 -22 58 -22
17 -41 22 -89 22z"/>
</g>
</svg>
