<?xml version="1.0" standalone="no"?>
<!DOCTYPE svg PUBLIC "-//W3C//DTD SVG 20010904//EN"
 "http://www.w3.org/TR/2001/REC-SVG-20010904/DTD/svg10.dtd">
<svg version="1.0" xmlns="http://www.w3.org/2000/svg"
 width="157.000000pt" height="171.000000pt" viewBox="0 0 157.000000 171.000000"
 preserveAspectRatio="xMidYMid meet">
<metadata>
Created by potrace 1.16, written by Peter Selinger 2001-2019
</metadata>
<g transform="translate(0.000000,171.000000) scale(0.100000,-0.100000)"
fill="#000000" stroke="none">
<path d="M801 1237 c-36 1 -83 -2 -104 -7 -20 -6 -54 -18 -75 -29 -21 -11 -57
-40 -81 -66 -23 -25 -54 -71 -67 -101 -13 -29 -29 -93 -35 -141 -9 -72 -9
-103 4 -174 8 -48 27 -114 42 -148 16 -34 43 -75 62 -91 18 -16 45 -33 59 -36
14 -4 56 -4 93 -2 51 4 85 14 136 39 37 19 96 60 131 93 36 32 79 79 96 103
16 25 37 68 44 97 8 28 14 81 14 118 0 43 -7 87 -20 121 -11 30 -36 68 -57 89
-21 20 -53 43 -70 52 -18 9 -49 31 -69 48 -33 29 -44 33 -103 35z m-33 -48
c23 1 42 -1 42 -4 0 -3 -24 -16 -54 -29 -29 -13 -77 -41 -105 -62 -28 -21 -51
-44 -51 -51 0 -7 4 -13 10 -13 5 0 30 15 55 34 24 19 70 44 101 56 32 11 71
20 88 18 29 -3 31 -6 34 -44 3 -36 -1 -45 -25 -64 -21 -17 -38 -21 -75 -18
-27 2 -48 -1 -49 -7 -1 -5 9 -16 22 -22 13 -7 37 -13 52 -13 15 0 43 6 62 14
19 8 44 30 55 48 11 18 20 43 20 56 0 12 6 22 14 22 8 0 28 -17 46 -37 18 -20
39 -53 48 -72 9 -22 15 -66 15 -111 0 -53 -7 -92 -22 -132 -16 -42 -41 -77
-89 -126 -47 -49 -89 -80 -141 -105 -63 -32 -83 -37 -142 -37 -64 0 -70 2
-101 33 -18 19 -43 60 -55 93 -13 33 -28 97 -35 143 -9 65 -9 97 1 145 7 33
24 86 37 116 14 30 39 70 57 88 18 19 45 41 62 49 16 9 41 19 55 24 14 4 44 8
68 8z"/>
</g>
</svg>
