<?xml version="1.0" standalone="no"?>
<!DOCTYPE svg PUBLIC "-//W3C//DTD SVG 20010904//EN"
 "http://www.w3.org/TR/2001/REC-SVG-20010904/DTD/svg10.dtd">
<svg version="1.0" xmlns="http://www.w3.org/2000/svg"
 width="158.000000pt" height="170.000000pt" viewBox="0 0 158.000000 170.000000"
 preserveAspectRatio="xMidYMid meet">
<metadata>
Created by potrace 1.16, written by Peter Selinger 2001-2019
</metadata>
<g transform="translate(0.000000,170.000000) scale(0.100000,-0.100000)"
fill="#000000" stroke="none">
<path d="M64 1407 c-16 17 -17 16 -12 -9 3 -18 0 -29 -10 -33 -10 -4 -12 -13
-7 -32 3 -15 15 -33 26 -41 11 -7 17 -17 14 -22 -3 -5 -12 -7 -20 -3 -11 4
-15 -3 -15 -26 0 -21 5 -31 15 -31 8 0 19 -9 26 -21 6 -12 8 -30 6 -41 -4 -14
-1 -18 11 -16 13 3 16 12 14 36 -3 26 1 34 20 41 13 5 26 7 30 4 4 -2 5 3 2
11 -4 11 -19 16 -42 16 -26 0 -33 3 -25 11 8 8 7 19 -5 39 -15 26 -15 30 1 48
9 10 17 22 17 25 0 4 -9 7 -21 7 -11 0 -17 5 -14 10 3 6 -1 18 -11 27z M648
1340 c-3 0 -8 -3 -11 -7 -4 -3 -7 -16 -7 -29 0 -12 -13 -36 -30 -54 -16 -18
-30 -34 -30 -36 0 -2 9 -4 20 -4 10 0 24 9 30 20 6 11 16 17 25 14 8 -4 15 -1
15 5 0 6 7 11 16 11 9 0 14 -7 12 -17 -1 -10 2 -19 7 -20 6 -2 10 3 10 11 0 7
6 20 13 29 8 9 12 26 10 39 -2 15 -11 24 -25 26 -13 2 -23 -1 -23 -7 0 -6 5
-11 11 -11 8 0 7 -5 -2 -16 -8 -10 -15 -12 -17 -5 -2 6 -8 11 -13 11 -4 0 -6
-6 -3 -14 3 -8 0 -17 -6 -21 -9 -6 -10 3 -5 34 4 22 5 41 3 41z M791 1180 c-6
0 -13 -5 -16 -11 -4 -5 -17 -9 -30 -7 -12 1 -30 -3 -38 -11 -9 -7 -23 -11 -31
-8 -7 3 -19 0 -25 -6 -6 -6 -11 -16 -11 -21 0 -6 4 -5 9 3 5 8 16 11 25 8 9
-4 16 -13 16 -22 0 -9 -17 -23 -37 -32 -21 -8 -41 -19 -44 -24 -3 -5 -15 0
-27 11 -11 11 -28 20 -37 20 -8 0 -15 -4 -15 -10 0 -5 9 -10 19 -10 10 0 21
-6 24 -14 3 -7 0 -19 -6 -26 -10 -10 -7 -10 12 0 17 9 26 9 35 0 8 -8 7 -15
-7 -25 -13 -9 -15 -15 -6 -21 7 -4 18 1 26 11 7 11 13 13 13 6 0 -7 5 -9 11
-5 7 4 7 10 1 16 -7 7 -1 18 18 34 15 13 33 24 40 24 10 0 10 3 0 15 -6 8 -9
19 -5 25 3 5 13 10 21 10 8 0 14 6 14 14 0 7 9 16 21 19 19 5 20 4 5 -12 -9
-10 -16 -23 -16 -29 0 -7 -7 -12 -15 -12 -8 0 -15 -4 -15 -10 0 -5 4 -10 9
-10 5 0 -4 -13 -20 -29 -16 -16 -29 -34 -29 -40 0 -6 15 -17 34 -25 19 -8 44
-12 54 -9 11 2 19 12 18 21 -2 9 -7 17 -13 19 -6 2 -18 -3 -26 -12 -9 -8 -18
-15 -21 -15 -3 0 -6 5 -6 10 0 6 9 18 20 27 11 10 20 23 20 30 0 7 5 13 10 13
6 0 10 9 10 19 0 11 6 21 13 24 6 2 22 -7 35 -20 12 -13 22 -28 22 -34 0 -5 5
-9 11 -9 6 0 8 7 5 16 -3 9 -3 20 0 25 3 5 14 -1 24 -13 15 -17 19 -19 20 -8
0 9 -5 21 -12 28 -9 9 -6 17 12 37 13 14 21 28 17 31 -3 4 -14 4 -23 0 -9 -4
-14 -9 -11 -12 3 -4 0 -13 -8 -20 -7 -8 -18 -14 -24 -14 -5 0 -21 11 -35 24
-15 13 -26 28 -26 35 0 6 -4 11 -9 11z M70 1040 c-5 0 -10 -4 -10 -10 0 -5 5
-10 10 -10 6 0 10 -4 10 -9 0 -5 -10 -12 -22 -16 -23 -8 -23 -8 1 -12 19 -4
21 -7 10 -14 -12 -8 -12 -10 1 -19 8 -5 23 -10 33 -10 9 0 18 8 18 18 1 9 1
23 0 30 -1 8 4 21 11 29 12 15 9 16 -19 10 -19 -4 -33 -2 -33 3 0 6 -4 10 -10
10z M1116 1000 c-6 0 -25 -12 -42 -27 -17 -16 -49 -42 -71 -60 -22 -17 -55
-34 -74 -37 -30 -6 -36 -3 -54 26 -14 22 -29 34 -48 36 -19 2 -33 -3 -42 -14
-12 -17 -15 -16 -45 9 -22 19 -43 27 -70 27 -30 0 -43 -6 -59 -26 -12 -15 -21
-34 -21 -44 0 -9 18 -33 40 -53 35 -31 41 -33 49 -19 4 9 6 23 3 31 -3 8 1 12
9 9 7 -2 16 -16 20 -30 4 -15 0 -85 -9 -158 -15 -131 -15 -131 8 -154 13 -15
31 -23 46 -22 13 2 27 6 31 10 4 3 6 28 4 54 -1 26 3 81 9 122 6 41 17 81 25
89 11 11 17 12 28 3 9 -8 17 -8 24 -1 6 6 24 7 54 0 28 -6 45 -7 47 -1 2 6 12
10 22 10 11 0 20 10 24 25 4 16 11 22 21 19 9 -4 15 0 15 8 0 7 10 15 22 15
13 1 24 7 26 13 2 5 8 7 14 4 5 -3 15 2 23 12 7 11 10 23 7 29 -3 5 -5 22 -4
38 2 16 -3 36 -9 43 -6 8 -17 14 -23 14z M403 813 c-11 9 -22 14 -26 11 -3 -4
-2 -15 4 -25 5 -11 16 -19 24 -19 8 0 15 -4 15 -9 0 -6 -12 -9 -26 -8 -15 1
-29 -3 -31 -10 -2 -7 8 -13 24 -15 16 -2 27 -8 26 -15 -2 -7 1 -13 6 -13 5 0
13 6 18 13 7 8 6 22 -2 42 -7 17 -22 38 -32 48z M205 510 c-9 0 -12 -6 -8 -16
4 -10 -1 -17 -16 -21 -11 -3 -21 -9 -21 -13 0 -4 7 -11 16 -14 8 -3 13 -9 10
-14 -2 -4 -2 -13 2 -19 4 -6 18 -14 32 -18 25 -7 25 -7 2 17 -21 23 -21 27 -8
53 8 16 13 32 10 37 -3 4 -12 8 -19 8z M131 360 c-6 0 -14 -11 -17 -26 -6 -22
-10 -24 -35 -19 -16 4 -29 2 -29 -3 0 -5 8 -16 19 -26 17 -16 19 -15 34 6 14
21 16 22 29 6 7 -9 20 -18 28 -20 8 -2 21 -9 28 -15 7 -7 20 -13 29 -13 12 0
13 8 8 43 -4 23 -12 47 -18 53 -8 7 -20 9 -32 4 -11 -5 -14 -9 -7 -9 6 -1 12
-5 12 -10 0 -5 -11 -8 -25 -8 -20 0 -24 3 -20 18 4 11 2 19 -4 19z M110 190
c-5 0 -16 -7 -24 -16 -9 -8 -16 -22 -16 -30 0 -8 5 -12 11 -9 6 4 16 -1 24
-11 11 -15 16 -17 26 -7 10 10 9 16 -6 26 -13 10 -15 16 -6 21 6 4 9 12 6 17
-4 5 -10 9 -15 9z M132 99 c-27 -1 -27 -1 -2 -9 23 -7 23 -8 6 -15 -10 -5 -26
-4 -35 2 -13 8 -19 6 -27 -12 -6 -13 -9 -27 -5 -32 3 -4 20 -9 37 -10 17 -1
37 -3 44 -5 8 -2 16 5 18 15 2 10 1 29 -2 43 -5 18 -13 24 -34 23z"/>
</g>
</svg>
