<?xml version="1.0" standalone="no"?>
<!DOCTYPE svg PUBLIC "-//W3C//DTD SVG 20010904//EN"
 "http://www.w3.org/TR/2001/REC-SVG-20010904/DTD/svg10.dtd">
<svg version="1.0" xmlns="http://www.w3.org/2000/svg"
 width="156.000000pt" height="169.000000pt" viewBox="0 0 156.000000 169.000000"
 preserveAspectRatio="xMidYMid meet">
<metadata>
Created by potrace 1.16, written by Peter Selinger 2001-2019
</metadata>
<g transform="translate(0.000000,169.000000) scale(0.100000,-0.100000)"
fill="#000000" stroke="none">
<path d="M511 1310 c-16 8 -23 6 -35 -12 -10 -14 -16 -44 -16 -80 0 -31 -5
-92 -10 -135 -6 -43 -18 -115 -27 -160 -16 -83 -16 -83 -84 -83 -62 0 -69 -2
-69 -20 0 -10 8 -23 18 -28 9 -6 36 -13 60 -17 32 -5 43 -12 47 -28 2 -12 6
-47 8 -78 2 -37 11 -66 26 -87 16 -23 30 -32 49 -32 18 0 42 14 70 41 24 23
42 49 40 58 -2 9 -12 17 -24 19 -11 2 -28 -6 -39 -18 -10 -11 -24 -20 -31 -20
-7 0 -18 9 -24 19 -5 11 -10 36 -10 55 0 20 2 36 5 36 3 0 32 -14 65 -30 33
-17 98 -43 145 -59 74 -25 87 -27 104 -15 17 13 20 26 19 110 -1 70 2 99 13
108 8 7 48 18 89 25 41 6 112 14 158 17 58 5 82 11 82 20 0 8 -12 17 -26 20
-14 4 -78 4 -142 1 -65 -2 -125 -8 -134 -12 -16 -6 -18 -1 -18 46 0 30 5 111
12 182 10 114 10 129 -4 144 -9 8 -23 13 -31 10 -10 -4 -20 -40 -31 -114 -9
-59 -19 -145 -22 -190 -4 -46 -12 -87 -18 -92 -6 -5 -60 -20 -121 -35 -101
-24 -111 -25 -122 -10 -7 10 -10 21 -7 25 3 5 16 75 29 156 14 81 25 171 25
200 0 42 -4 54 -19 63z m194 -474 c6 -2 11 -30 13 -64 3 -59 2 -62 -20 -62
-12 0 -47 10 -78 21 -30 12 -65 26 -78 32 -12 6 -21 15 -19 21 2 6 41 20 88
32 46 12 89 21 94 20z"/>
</g>
</svg>
