<?xml version="1.0" standalone="no"?>
<!DOCTYPE svg PUBLIC "-//W3C//DTD SVG 20010904//EN"
 "http://www.w3.org/TR/2001/REC-SVG-20010904/DTD/svg10.dtd">
<svg version="1.0" xmlns="http://www.w3.org/2000/svg"
 width="152.000000pt" height="166.000000pt" viewBox="0 0 152.000000 166.000000"
 preserveAspectRatio="xMidYMid meet">
<metadata>
Created by potrace 1.16, written by Peter Selinger 2001-2019
</metadata>
<g transform="translate(0.000000,166.000000) scale(0.100000,-0.100000)"
fill="#000000" stroke="none">
<path d="M900 1244 c-25 3 -66 0 -93 -8 -33 -9 -63 -28 -94 -57 -24 -24 -53
-61 -64 -81 -10 -20 -28 -61 -38 -90 -11 -29 -22 -78 -26 -108 -3 -30 -9 -60
-13 -66 -4 -6 -21 -18 -38 -27 -18 -9 -43 -30 -58 -47 -14 -18 -26 -36 -26
-41 0 -5 7 -12 16 -16 9 -3 28 6 48 26 17 17 37 31 44 31 9 0 12 -33 11 -122
0 -68 -4 -163 -8 -213 -4 -49 -5 -96 -3 -102 2 -7 12 -13 22 -13 10 0 22 6 27
13 6 6 15 102 22 212 6 110 13 245 15 300 3 68 11 122 27 169 17 52 35 83 75
125 51 55 52 55 110 56 54 0 59 -2 62 -23 2 -12 -8 -42 -22 -67 -14 -24 -26
-50 -26 -57 0 -7 16 -35 35 -62 21 -30 35 -61 35 -79 0 -16 -9 -44 -20 -62
-11 -18 -41 -50 -66 -70 -27 -22 -44 -44 -42 -54 2 -9 11 -15 22 -13 11 2 39
20 63 40 24 20 57 57 74 81 16 26 29 58 29 76 0 17 -13 52 -30 78 -16 26 -30
57 -30 67 0 11 9 37 20 57 11 21 20 54 20 74 0 22 -7 42 -17 52 -10 8 -38 18
-63 21z"/>
</g>
</svg>
