<?xml version="1.0" standalone="no"?>
<!DOCTYPE svg PUBLIC "-//W3C//DTD SVG 20010904//EN"
 "http://www.w3.org/TR/2001/REC-SVG-20010904/DTD/svg10.dtd">
<svg version="1.0" xmlns="http://www.w3.org/2000/svg"
 width="164.000000pt" height="181.000000pt" viewBox="0 0 164.000000 181.000000"
 preserveAspectRatio="xMidYMid meet">
<metadata>
Created by potrace 1.16, written by Peter Selinger 2001-2019
</metadata>
<g transform="translate(0.000000,181.000000) scale(0.100000,-0.100000)"
fill="#000000" stroke="none">
<path d="M961 1189 c-20 -1 -53 -5 -73 -10 -21 -5 -68 -24 -105 -43 -38 -19
-99 -60 -138 -90 -38 -31 -82 -72 -97 -90 -15 -19 -40 -58 -55 -88 -25 -47
-28 -64 -28 -148 0 -89 2 -98 30 -140 19 -28 47 -54 75 -67 32 -17 62 -23 110
-23 36 0 93 7 125 15 33 9 90 30 126 46 37 17 85 50 107 72 22 23 51 67 63 97
18 44 23 75 23 160 1 90 -2 112 -21 150 -13 25 -34 65 -48 90 -14 25 -33 51
-42 58 -9 6 -33 12 -52 11z m-61 -84 c8 -2 34 -6 56 -10 23 -4 51 -16 62 -28
12 -12 29 -40 38 -62 11 -26 17 -66 16 -115 0 -51 -7 -93 -22 -133 -12 -31
-32 -70 -45 -86 -13 -15 -52 -42 -87 -58 -35 -17 -96 -39 -135 -48 -42 -10
-93 -16 -121 -13 -27 3 -61 13 -75 24 -14 10 -32 34 -41 52 -9 18 -16 58 -16
92 0 34 8 81 19 109 10 28 40 75 66 106 26 30 79 76 117 101 38 26 88 52 111
60 23 7 49 11 57 9z M855 989 c-24 0 -53 -9 -72 -22 -18 -12 -48 -40 -66 -62
-18 -22 -43 -54 -55 -72 -12 -17 -22 -45 -22 -61 0 -21 8 -37 28 -52 24 -19
36 -22 102 -17 51 3 93 12 130 29 35 16 61 36 71 54 9 16 14 35 12 42 -3 6
-14 12 -26 12 -12 0 -35 -13 -52 -29 -19 -19 -49 -33 -83 -40 -29 -6 -64 -11
-77 -11 -20 0 -25 5 -25 25 0 17 17 43 53 80 29 30 61 55 70 55 9 0 17 -7 17
-15 0 -8 7 -15 15 -15 9 0 27 7 40 16 14 9 25 25 25 35 0 10 -10 25 -22 33
-12 9 -41 16 -63 15z"/>
</g>
</svg>
