<?xml version="1.0" standalone="no"?>
<!DOCTYPE svg PUBLIC "-//W3C//DTD SVG 20010904//EN"
 "http://www.w3.org/TR/2001/REC-SVG-20010904/DTD/svg10.dtd">
<svg version="1.0" xmlns="http://www.w3.org/2000/svg"
 width="165.000000pt" height="181.000000pt" viewBox="0 0 165.000000 181.000000"
 preserveAspectRatio="xMidYMid meet">
<metadata>
Created by potrace 1.16, written by Peter Selinger 2001-2019
</metadata>
<g transform="translate(0.000000,181.000000) scale(0.100000,-0.100000)"
fill="#000000" stroke="none">
<path d="M1131 1019 c-3 -1 -44 -5 -91 -9 -47 -4 -141 -22 -210 -41 -114 -30
-138 -34 -265 -34 -140 0 -140 0 -143 -26 -2 -20 4 -29 31 -44 30 -16 49 -17
143 -12 74 4 142 15 214 35 58 16 126 35 152 41 26 6 63 11 82 11 35 0 36 -1
36 -39 0 -21 -6 -72 -14 -112 -8 -41 -20 -116 -27 -166 -9 -74 -9 -96 1 -108
7 -8 25 -15 41 -15 15 0 31 5 34 10 4 6 8 50 9 98 1 48 15 151 31 230 30 144
30 144 6 163 -13 10 -26 18 -30 18z"/>
</g>
</svg>
