<?xml version="1.0" standalone="no"?>
<!DOCTYPE svg PUBLIC "-//W3C//DTD SVG 20010904//EN"
 "http://www.w3.org/TR/2001/REC-SVG-20010904/DTD/svg10.dtd">
<svg version="1.0" xmlns="http://www.w3.org/2000/svg"
 width="163.000000pt" height="179.000000pt" viewBox="0 0 163.000000 179.000000"
 preserveAspectRatio="xMidYMid meet">
<metadata>
Created by potrace 1.16, written by Peter Selinger 2001-2019
</metadata>
<g transform="translate(0.000000,179.000000) scale(0.100000,-0.100000)"
fill="#000000" stroke="none">
<path d="M898 1450 c-13 0 -49 -11 -82 -25 -32 -13 -84 -40 -115 -61 -31 -20
-75 -53 -99 -72 -23 -19 -68 -74 -100 -121 -31 -47 -66 -105 -76 -128 -19 -43
-19 -43 -92 -43 -63 0 -75 -3 -88 -21 -8 -12 -12 -28 -9 -35 3 -10 22 -14 58
-14 29 0 60 -2 68 -5 10 -4 12 -16 8 -43 -6 -37 -6 -37 -90 -49 -46 -6 -88
-16 -93 -21 -6 -6 -8 -18 -6 -28 3 -17 13 -19 94 -16 91 3 91 3 97 -48 4 -29
14 -66 24 -83 11 -17 34 -40 53 -51 24 -15 58 -21 122 -24 62 -3 133 2 231 18
78 12 160 25 182 29 31 5 41 11 43 29 3 20 -1 22 -40 22 -24 0 -88 -7 -143
-14 -55 -8 -139 -17 -187 -21 -56 -5 -104 -3 -136 4 -35 9 -53 20 -64 39 -9
15 -19 43 -23 63 -4 24 -2 39 7 47 7 6 110 23 228 37 154 19 220 32 233 43 13
11 16 24 12 42 -3 14 -15 34 -26 45 -20 20 -20 20 -43 -9 -16 -19 -38 -31 -67
-37 -24 -4 -103 -15 -176 -24 -73 -8 -138 -16 -145 -17 -9 -2 -12 8 -11 31 1
18 7 37 14 42 7 4 54 15 104 24 49 9 122 23 162 31 40 7 97 14 128 14 43 0 60
5 76 21 19 19 20 23 6 37 -15 14 -29 14 -149 -1 -73 -9 -168 -22 -210 -29 -43
-6 -80 -9 -83 -6 -4 3 3 23 14 45 11 21 40 66 65 100 25 33 60 72 78 86 18 14
63 44 100 66 54 33 72 39 101 34 22 -3 47 1 71 12 26 13 36 24 36 41 0 13 -9
28 -19 34 -11 5 -30 10 -43 10z"/>
</g>
</svg>
