<?xml version="1.0" standalone="no"?>
<!DOCTYPE svg PUBLIC "-//W3C//DTD SVG 20010904//EN"
 "http://www.w3.org/TR/2001/REC-SVG-20010904/DTD/svg10.dtd">
<svg version="1.0" xmlns="http://www.w3.org/2000/svg"
 width="157.000000pt" height="169.000000pt" viewBox="0 0 157.000000 169.000000"
 preserveAspectRatio="xMidYMid meet">
<metadata>
Created by potrace 1.16, written by Peter Selinger 2001-2019
</metadata>
<g transform="translate(0.000000,169.000000) scale(0.100000,-0.100000)"
fill="#000000" stroke="none">
<path d="M725 910 c-17 0 -46 -8 -65 -19 -19 -10 -43 -32 -53 -50 -11 -17 -25
-55 -33 -83 -7 -29 -14 -76 -14 -105 0 -44 4 -55 27 -72 14 -12 37 -24 51 -28
13 -3 43 0 65 7 24 7 59 30 83 54 26 26 46 57 53 83 6 23 21 49 34 58 12 9 43
15 74 15 28 0 55 5 59 11 3 6 0 17 -7 23 -8 7 -38 18 -68 25 -33 7 -63 21 -76
35 -13 14 -40 29 -61 35 -22 6 -53 11 -69 11z m-16 -72 c3 -2 23 -14 43 -27
32 -19 37 -27 32 -49 -3 -15 -10 -41 -15 -58 -5 -17 -20 -41 -34 -54 -16 -15
-38 -23 -62 -24 l-38 -1 2 50 c1 27 4 64 8 81 3 18 17 44 32 58 14 15 29 25
32 24z"/>
</g>
</svg>
