<?xml version="1.0" standalone="no"?>
<!DOCTYPE svg PUBLIC "-//W3C//DTD SVG 20010904//EN"
 "http://www.w3.org/TR/2001/REC-SVG-20010904/DTD/svg10.dtd">
<svg version="1.0" xmlns="http://www.w3.org/2000/svg"
 width="155.000000pt" height="168.000000pt" viewBox="0 0 155.000000 168.000000"
 preserveAspectRatio="xMidYMid meet">
<metadata>
Created by potrace 1.16, written by Peter Selinger 2001-2019
</metadata>
<g transform="translate(0.000000,168.000000) scale(0.100000,-0.100000)"
fill="#000000" stroke="none">
<path d="M1163 1310 c-4 0 -14 -4 -20 -8 -7 -5 -27 -37 -44 -72 -17 -35 -73
-118 -123 -185 -51 -66 -120 -161 -153 -210 -33 -50 -96 -149 -138 -220 -43
-72 -110 -194 -148 -272 -38 -79 -67 -150 -63 -158 3 -8 15 -15 26 -15 12 0
28 13 40 33 11 17 32 64 47 102 14 39 40 100 58 136 17 36 75 138 129 227 53
89 131 206 172 260 41 53 97 126 124 162 28 36 70 85 95 110 26 26 45 54 45
67 0 12 -9 27 -19 33 -11 5 -23 10 -28 10z"/>
</g>
</svg>
