<?xml version="1.0" standalone="no"?>
<!DOCTYPE svg PUBLIC "-//W3C//DTD SVG 20010904//EN"
 "http://www.w3.org/TR/2001/REC-SVG-20010904/DTD/svg10.dtd">
<svg version="1.0" xmlns="http://www.w3.org/2000/svg"
 width="156.000000pt" height="171.000000pt" viewBox="0 0 156.000000 171.000000"
 preserveAspectRatio="xMidYMid meet">
<metadata>
Created by potrace 1.16, written by Peter Selinger 2001-2019
</metadata>
<g transform="translate(0.000000,171.000000) scale(0.100000,-0.100000)"
fill="#000000" stroke="none">
<path d="M732 1196 c-27 2 -63 -2 -85 -10 -21 -8 -53 -24 -72 -37 -19 -13 -42
-39 -51 -58 -13 -27 -15 -53 -11 -115 3 -60 14 -105 41 -175 20 -51 36 -96 36
-99 0 -4 -7 4 -16 16 -8 12 -22 22 -30 22 -8 0 -14 -9 -14 -19 0 -11 4 -31 10
-45 5 -14 28 -39 52 -56 29 -21 46 -43 56 -73 8 -23 20 -48 27 -56 7 -7 21
-11 29 -8 10 4 16 18 16 38 0 28 2 31 23 24 12 -4 52 -9 89 -12 38 -3 81 0
102 7 19 6 58 31 85 56 27 24 59 64 70 87 13 27 21 62 21 93 -1 27 -7 66 -14
87 -8 20 -29 63 -47 93 -19 31 -63 85 -98 120 -37 36 -88 75 -118 90 -30 14
-75 27 -101 30z m-6 -46 c23 0 61 -10 91 -25 27 -14 78 -53 112 -87 38 -39 74
-88 96 -131 26 -52 35 -83 35 -120 0 -31 -8 -68 -21 -94 -11 -23 -41 -61 -66
-83 -45 -39 -48 -40 -117 -39 -39 0 -89 6 -111 13 -40 12 -40 12 -47 71 -3 33
-9 128 -13 210 -4 93 -3 160 3 176 6 16 7 31 1 42 -6 9 -17 17 -25 17 -8 0
-19 -12 -25 -27 -6 -17 -7 -79 -3 -170 4 -79 4 -143 0 -143 -4 0 -17 21 -28
47 -12 27 -27 70 -34 98 -8 27 -14 73 -14 101 0 38 6 59 22 79 12 15 40 36 62
46 23 10 59 19 82 19z"/>
</g>
</svg>
