<?xml version="1.0" standalone="no"?>
<!DOCTYPE svg PUBLIC "-//W3C//DTD SVG 20010904//EN"
 "http://www.w3.org/TR/2001/REC-SVG-20010904/DTD/svg10.dtd">
<svg version="1.0" xmlns="http://www.w3.org/2000/svg"
 width="153.000000pt" height="167.000000pt" viewBox="0 0 153.000000 167.000000"
 preserveAspectRatio="xMidYMid meet">
<metadata>
Created by potrace 1.16, written by Peter Selinger 2001-2019
</metadata>
<g transform="translate(0.000000,167.000000) scale(0.100000,-0.100000)"
fill="#000000" stroke="none">
<path d="M575 1010 c-8 0 -19 -8 -24 -18 -5 -10 -7 -23 -3 -29 4 -5 30 -21 57
-35 28 -13 91 -46 140 -72 50 -27 114 -62 143 -78 28 -16 52 -35 52 -42 0 -7
-15 -26 -32 -42 -18 -17 -79 -68 -135 -113 -57 -45 -130 -100 -163 -122 -33
-22 -67 -51 -76 -64 -9 -13 -13 -29 -9 -35 3 -5 15 -10 27 -10 11 0 50 21 87
47 36 26 100 76 141 113 41 36 109 94 151 128 50 41 85 62 102 62 19 0 31 8
42 30 10 20 23 30 38 30 13 0 28 5 35 12 7 7 12 21 12 33 0 12 -5 26 -12 33
-7 7 -22 12 -34 12 -12 0 -27 -7 -35 -16 -7 -8 -25 -22 -41 -30 -27 -14 -33
-13 -111 25 -45 23 -102 53 -127 67 -25 15 -82 47 -128 70 -45 24 -89 44 -97
44z"/>
</g>
</svg>
