<?xml version="1.0" standalone="no"?>
<!DOCTYPE svg PUBLIC "-//W3C//DTD SVG 20010904//EN"
 "http://www.w3.org/TR/2001/REC-SVG-20010904/DTD/svg10.dtd">
<svg version="1.0" xmlns="http://www.w3.org/2000/svg"
 width="153.000000pt" height="167.000000pt" viewBox="0 0 153.000000 167.000000"
 preserveAspectRatio="xMidYMid meet">
<metadata>
Created by potrace 1.16, written by Peter Selinger 2001-2019
</metadata>
<g transform="translate(0.000000,167.000000) scale(0.100000,-0.100000)"
fill="#000000" stroke="none">
<path d="M754 1180 c-14 0 -15 -10 -9 -75 6 -65 5 -75 -9 -75 -8 0 -46 20 -83
45 -37 25 -77 44 -87 43 -11 -2 -21 -7 -22 -13 -2 -5 32 -34 76 -63 44 -28 80
-58 80 -66 0 -7 -8 -20 -18 -30 -11 -9 -50 -20 -93 -26 -41 -5 -78 -10 -82
-10 -5 0 -7 -10 -5 -22 3 -20 8 -23 41 -21 20 1 37 -2 37 -8 0 -5 -7 -21 -16
-34 -13 -20 -14 -28 -4 -40 11 -13 22 -7 80 50 39 37 77 65 88 65 12 0 24 -5
28 -11 3 -6 6 -40 6 -75 0 -50 3 -67 15 -71 8 -3 18 -1 22 6 4 6 6 40 5 75 -3
46 1 67 11 76 12 10 31 3 100 -35 47 -25 90 -43 95 -40 6 3 10 17 10 31 0 20
-9 29 -46 44 -25 11 -43 24 -40 29 3 5 26 14 51 20 25 6 45 15 45 21 0 5 -4
12 -10 15 -5 3 -39 -1 -74 -10 -36 -9 -77 -15 -92 -13 -15 2 -32 11 -38 20 -8
14 2 30 63 93 61 63 71 78 61 90 -7 8 -18 15 -25 15 -6 0 -31 -22 -54 -50 -23
-27 -46 -50 -51 -50 -5 0 -12 12 -16 28 -3 15 -9 37 -14 50 -5 12 -17 22 -26
22z"/>
</g>
</svg>
