<?xml version="1.0" standalone="no"?>
<!DOCTYPE svg PUBLIC "-//W3C//DTD SVG 20010904//EN"
 "http://www.w3.org/TR/2001/REC-SVG-20010904/DTD/svg10.dtd">
<svg version="1.0" xmlns="http://www.w3.org/2000/svg"
 width="152.000000pt" height="168.000000pt" viewBox="0 0 152.000000 168.000000"
 preserveAspectRatio="xMidYMid meet">
<metadata>
Created by potrace 1.16, written by Peter Selinger 2001-2019
</metadata>
<g transform="translate(0.000000,168.000000) scale(0.100000,-0.100000)"
fill="#000000" stroke="none">
<path d="M936 840 c-11 0 -26 -19 -41 -52 -13 -29 -41 -70 -62 -91 -25 -24
-53 -40 -76 -44 -33 -5 -38 -2 -56 28 -12 20 -21 51 -21 76 0 23 -4 44 -9 48
-6 3 -13 -16 -17 -41 -5 -35 -3 -54 9 -73 8 -14 30 -34 48 -43 19 -10 48 -18
65 -18 16 0 45 11 64 25 19 14 38 25 43 25 6 0 7 -25 3 -62 -4 -35 -16 -99
-26 -144 -11 -45 -33 -123 -49 -175 -17 -52 -44 -112 -60 -135 -16 -22 -40
-45 -53 -51 -13 -6 -34 -15 -48 -21 l-25 -11 30 0 c17 0 48 9 70 22 22 12 54
43 71 68 20 31 44 95 72 195 22 82 48 185 57 229 9 44 19 117 22 163 5 73 4
82 -11 82z"/>
</g>
</svg>
