<?xml version="1.0" standalone="no"?>
<!DOCTYPE svg PUBLIC "-//W3C//DTD SVG 20010904//EN"
 "http://www.w3.org/TR/2001/REC-SVG-20010904/DTD/svg10.dtd">
<svg version="1.0" xmlns="http://www.w3.org/2000/svg"
 width="165.000000pt" height="181.000000pt" viewBox="0 0 165.000000 181.000000"
 preserveAspectRatio="xMidYMid meet">
<metadata>
Created by potrace 1.16, written by Peter Selinger 2001-2019
</metadata>
<g transform="translate(0.000000,181.000000) scale(0.100000,-0.100000)"
fill="#000000" stroke="none">
<path d="M771 474 c-139 1 -261 -2 -272 -6 -15 -6 -19 -15 -17 -35 2 -17 13
-33 28 -41 19 -10 49 -11 125 -6 55 5 144 8 197 9 65 0 101 -4 110 -12 6 -7
24 -13 38 -13 14 0 36 7 48 16 12 8 22 23 22 33 0 9 -6 26 -14 36 -12 17 -31
19 -265 19z"/>
</g>
</svg>
