<?xml version="1.0" standalone="no"?>
<!DOCTYPE svg PUBLIC "-//W3C//DTD SVG 20010904//EN"
 "http://www.w3.org/TR/2001/REC-SVG-20010904/DTD/svg10.dtd">
<svg version="1.0" xmlns="http://www.w3.org/2000/svg"
 width="155.000000pt" height="168.000000pt" viewBox="0 0 155.000000 168.000000"
 preserveAspectRatio="xMidYMid meet">
<metadata>
Created by potrace 1.16, written by Peter Selinger 2001-2019
</metadata>
<g transform="translate(0.000000,168.000000) scale(0.100000,-0.100000)"
fill="#000000" stroke="none">
<path d="M814 1430 c-27 0 -34 -4 -34 -20 0 -13 9 -22 28 -26 15 -4 42 -18 61
-32 18 -14 44 -48 57 -76 13 -28 30 -84 39 -124 8 -42 15 -124 15 -191 0 -65
-6 -156 -14 -202 -8 -46 -17 -106 -21 -134 -3 -27 -13 -72 -20 -100 -8 -27
-28 -106 -45 -174 -17 -68 -42 -145 -57 -172 -21 -40 -24 -51 -13 -64 7 -8 18
-15 25 -15 6 0 19 8 27 18 9 9 18 37 20 62 3 25 26 126 51 225 25 99 55 243
68 320 13 87 22 187 22 265 1 69 -5 152 -12 185 -7 33 -26 87 -41 121 -20 45
-40 71 -75 98 -33 25 -58 36 -81 36z"/>
</g>
</svg>
