<?xml version="1.0" standalone="no"?>
<!DOCTYPE svg PUBLIC "-//W3C//DTD SVG 20010904//EN"
 "http://www.w3.org/TR/2001/REC-SVG-20010904/DTD/svg10.dtd">
<svg version="1.0" xmlns="http://www.w3.org/2000/svg"
 width="152.000000pt" height="167.000000pt" viewBox="0 0 152.000000 167.000000"
 preserveAspectRatio="xMidYMid meet">
<metadata>
Created by potrace 1.16, written by Peter Selinger 2001-2019
</metadata>
<g transform="translate(0.000000,167.000000) scale(0.100000,-0.100000)"
fill="#000000" stroke="none">
<path d="M824 809 c-5 -1 -31 -8 -57 -16 -35 -10 -54 -23 -68 -46 -10 -18 -19
-41 -19 -53 0 -11 8 -28 18 -36 9 -8 28 -18 41 -21 13 -3 39 0 57 8 21 9 40
28 53 54 12 22 21 49 21 59 0 10 -8 26 -18 35 -10 10 -23 17 -28 16z M755 470
c-6 0 -21 -7 -33 -16 -15 -10 -22 -25 -22 -49 0 -18 7 -40 15 -48 8 -9 28 -18
43 -22 16 -3 42 -1 58 5 16 6 37 19 46 27 10 9 18 26 18 39 0 13 -6 26 -12 31
-7 4 -33 13 -58 20 -25 7 -50 12 -55 13z"/>
</g>
</svg>
