<?xml version="1.0" standalone="no"?>
<!DOCTYPE svg PUBLIC "-//W3C//DTD SVG 20010904//EN"
 "http://www.w3.org/TR/2001/REC-SVG-20010904/DTD/svg10.dtd">
<svg version="1.0" xmlns="http://www.w3.org/2000/svg"
 width="156.000000pt" height="173.000000pt" viewBox="0 0 156.000000 173.000000"
 preserveAspectRatio="xMidYMid meet">
<metadata>
Created by potrace 1.16, written by Peter Selinger 2001-2019
</metadata>
<g transform="translate(0.000000,173.000000) scale(0.100000,-0.100000)"
fill="#000000" stroke="none">
<path d="M770 900 c-8 0 -46 -11 -85 -25 -38 -13 -94 -41 -124 -62 -30 -21
-76 -64 -103 -96 -31 -38 -48 -67 -48 -85 0 -15 9 -41 20 -59 10 -18 38 -44
61 -59 30 -18 65 -29 118 -36 50 -6 105 -5 165 2 50 6 118 18 151 26 32 9 72
22 87 30 15 8 28 19 28 24 0 5 -4 11 -9 15 -6 3 -45 -4 -88 -15 -43 -11 -121
-25 -174 -32 -53 -6 -121 -8 -151 -4 -30 4 -68 16 -86 26 -17 11 -38 33 -47
51 -13 25 -15 37 -6 55 6 13 30 45 53 70 23 25 63 56 88 69 25 12 69 30 99 39
30 9 59 16 65 16 6 0 18 -5 26 -10 12 -7 11 -13 -10 -35 -17 -18 -21 -28 -13
-36 9 -9 21 -6 48 11 19 12 42 29 51 37 14 14 13 18 -7 39 -12 13 -39 28 -58
34 -20 5 -43 10 -51 10z"/>
</g>
</svg>
