<?xml version="1.0" standalone="no"?>
<!DOCTYPE svg PUBLIC "-//W3C//DTD SVG 20010904//EN"
 "http://www.w3.org/TR/2001/REC-SVG-20010904/DTD/svg10.dtd">
<svg version="1.0" xmlns="http://www.w3.org/2000/svg"
 width="158.000000pt" height="171.000000pt" viewBox="0 0 158.000000 171.000000"
 preserveAspectRatio="xMidYMid meet">
<metadata>
Created by potrace 1.16, written by Peter Selinger 2001-2019
</metadata>
<g transform="translate(0.000000,171.000000) scale(0.100000,-0.100000)"
fill="#000000" stroke="none">
<path d="M1075 1186 c-5 1 -19 -1 -30 -6 -11 -4 -46 -33 -77 -65 -31 -31 -84
-96 -118 -145 -33 -49 -84 -142 -113 -206 -29 -65 -57 -119 -63 -121 -6 -2
-25 27 -42 64 -17 37 -39 102 -50 143 -11 41 -30 120 -43 175 -12 55 -28 110
-35 123 -8 12 -23 22 -33 22 -10 0 -23 -6 -29 -13 -7 -9 1 -52 29 -152 22 -77
51 -180 66 -230 15 -49 41 -119 59 -155 17 -36 41 -74 53 -84 17 -15 26 -17
44 -9 14 7 37 39 58 84 20 41 48 106 62 144 15 39 38 88 52 110 13 22 36 62
50 88 14 27 60 83 101 125 41 41 73 82 72 90 -2 9 -7 17 -13 18z"/>
</g>
</svg>
