<?xml version="1.0" standalone="no"?>
<!DOCTYPE svg PUBLIC "-//W3C//DTD SVG 20010904//EN"
 "http://www.w3.org/TR/2001/REC-SVG-20010904/DTD/svg10.dtd">
<svg version="1.0" xmlns="http://www.w3.org/2000/svg"
 width="156.000000pt" height="171.000000pt" viewBox="0 0 156.000000 171.000000"
 preserveAspectRatio="xMidYMid meet">
<metadata>
Created by potrace 1.16, written by Peter Selinger 2001-2019
</metadata>
<g transform="translate(0.000000,171.000000) scale(0.100000,-0.100000)"
fill="#000000" stroke="none">
<path d="M850 1289 c-14 0 -50 -8 -80 -17 -30 -9 -81 -34 -112 -55 -31 -21
-74 -62 -94 -90 -21 -29 -52 -81 -70 -117 -17 -36 -39 -97 -48 -137 -9 -40
-16 -86 -16 -104 0 -18 5 -62 11 -97 10 -54 19 -73 51 -108 21 -23 55 -50 75
-59 23 -11 62 -17 108 -18 46 0 90 6 124 19 l53 19 21 -30 c12 -17 35 -43 52
-58 16 -16 48 -39 70 -52 22 -12 57 -26 78 -29 21 -4 75 -2 120 5 45 6 86 15
91 20 5 5 7 12 3 15 -3 3 -56 6 -116 5 -68 -1 -119 3 -133 10 -13 6 -40 28
-61 48 -21 20 -45 48 -53 63 -8 15 -14 31 -14 35 0 5 18 28 41 52 22 24 51 65
63 90 13 25 34 82 46 126 18 65 21 96 17 165 -3 53 -13 108 -27 145 -13 34
-39 76 -59 96 -20 20 -54 42 -76 48 -22 6 -51 11 -65 10z m38 -59 c7 0 24 -11
37 -25 14 -13 25 -35 25 -49 0 -15 -13 -37 -32 -55 -18 -17 -49 -39 -68 -48
-19 -9 -69 -20 -110 -23 -70 -6 -73 -7 -47 -18 16 -7 52 -12 80 -12 34 0 70 9
105 25 29 13 67 36 86 50 18 14 38 25 43 25 6 0 13 -10 17 -22 3 -13 6 -62 6
-109 0 -50 -7 -108 -16 -140 -9 -30 -29 -79 -44 -109 -15 -30 -39 -66 -53 -79
-14 -13 -31 -21 -38 -19 -6 2 -24 37 -39 78 -21 58 -32 76 -49 78 -13 2 -21
-2 -21 -11 0 -8 12 -48 26 -88 14 -41 26 -83 27 -94 2 -14 -9 -23 -43 -36 -25
-10 -63 -18 -85 -18 -22 -1 -57 4 -77 9 -21 6 -51 22 -68 37 -17 14 -38 42
-47 62 -9 22 -16 68 -17 116 0 44 5 103 13 130 8 28 25 72 39 99 13 27 40 74
61 104 23 37 56 69 95 94 33 21 67 38 78 38 10 0 18 -7 18 -15 0 -8 4 -15 10
-15 5 0 24 9 42 20 18 11 39 20 46 20z"/>
</g>
</svg>
