<?xml version="1.0" standalone="no"?>
<!DOCTYPE svg PUBLIC "-//W3C//DTD SVG 20010904//EN"
 "http://www.w3.org/TR/2001/REC-SVG-20010904/DTD/svg10.dtd">
<svg version="1.0" xmlns="http://www.w3.org/2000/svg"
 width="151.000000pt" height="168.000000pt" viewBox="0 0 151.000000 168.000000"
 preserveAspectRatio="xMidYMid meet">
<metadata>
Created by potrace 1.16, written by Peter Selinger 2001-2019
</metadata>
<g transform="translate(0.000000,168.000000) scale(0.100000,-0.100000)"
fill="#000000" stroke="none">
<path d="M528 1330 c-10 0 -21 -7 -25 -16 -3 -9 -1 -24 5 -33 6 -9 47 -72 91
-141 43 -69 98 -161 121 -205 23 -44 65 -120 93 -170 27 -49 67 -117 87 -150
21 -33 53 -92 72 -130 20 -39 52 -118 72 -176 20 -58 39 -128 42 -155 4 -27
11 -55 17 -61 5 -7 17 -13 27 -13 10 0 23 7 30 15 11 13 8 25 -13 68 -14 29
-31 77 -38 107 -7 30 -27 93 -46 140 -19 47 -59 128 -90 180 -31 52 -66 111
-78 130 -13 19 -46 80 -75 135 -29 55 -68 129 -88 165 -19 36 -53 97 -75 135
-22 39 -56 94 -75 123 -22 32 -43 52 -54 52z"/>
</g>
</svg>
