<?xml version="1.0" standalone="no"?>
<!DOCTYPE svg PUBLIC "-//W3C//DTD SVG 20010904//EN"
 "http://www.w3.org/TR/2001/REC-SVG-20010904/DTD/svg10.dtd">
<svg version="1.0" xmlns="http://www.w3.org/2000/svg"
 width="157.000000pt" height="173.000000pt" viewBox="0 0 157.000000 173.000000"
 preserveAspectRatio="xMidYMid meet">
<metadata>
Created by potrace 1.16, written by Peter Selinger 2001-2019
</metadata>
<g transform="translate(0.000000,173.000000) scale(0.100000,-0.100000)"
fill="#000000" stroke="none">
<path d="M820 1120 c-5 0 -17 -11 -26 -25 -13 -20 -14 -30 -4 -60 9 -26 17
-35 34 -35 12 0 27 5 34 12 7 7 12 21 12 31 0 10 -9 32 -21 48 -11 16 -24 29
-29 29z M827 818 c-10 2 -20 -4 -23 -13 -4 -9 -2 -33 4 -53 6 -20 16 -71 23
-113 10 -59 10 -98 1 -168 -7 -60 -19 -107 -34 -134 -13 -23 -38 -52 -57 -64
-20 -13 -49 -23 -70 -23 -20 0 -51 9 -69 20 -20 13 -40 37 -52 65 -11 26 -26
45 -35 45 -9 0 -18 -7 -21 -15 -4 -8 -3 -27 1 -42 3 -15 28 -49 54 -75 38 -37
56 -48 82 -49 19 -1 50 0 69 1 19 1 44 7 55 12 11 6 37 27 58 47 27 26 43 54
58 100 11 36 22 103 25 150 4 49 1 118 -5 161 -7 41 -20 91 -30 110 -10 19
-25 36 -34 38z"/>
</g>
</svg>
