<?xml version="1.0" standalone="no"?>
<!DOCTYPE svg PUBLIC "-//W3C//DTD SVG 20010904//EN"
 "http://www.w3.org/TR/2001/REC-SVG-20010904/DTD/svg10.dtd">
<svg version="1.0" xmlns="http://www.w3.org/2000/svg"
 width="155.000000pt" height="168.000000pt" viewBox="0 0 155.000000 168.000000"
 preserveAspectRatio="xMidYMid meet">
<metadata>
Created by potrace 1.16, written by Peter Selinger 2001-2019
</metadata>
<g transform="translate(0.000000,168.000000) scale(0.100000,-0.100000)"
fill="#000000" stroke="none">
<path d="M766 1530 c-13 0 -38 -10 -57 -23 -19 -12 -38 -35 -43 -50 -5 -14 -7
-30 -3 -34 4 -3 22 7 40 24 17 17 41 34 53 37 14 4 30 -1 49 -16 l28 -22 -6
-100 c-4 -56 -13 -137 -20 -181 -9 -51 -12 -100 -7 -135 6 -49 12 -59 59 -101
l53 -47 -35 -60 c-22 -38 -39 -84 -47 -129 -9 -49 -10 -104 -5 -179 4 -60 7
-144 7 -187 -1 -53 -7 -85 -18 -102 -9 -14 -31 -34 -50 -46 -21 -13 -43 -19
-57 -15 -12 3 -41 21 -63 40 -23 20 -44 32 -48 29 -3 -3 -6 -10 -6 -14 0 -4
14 -21 31 -39 17 -17 47 -37 66 -45 20 -8 47 -15 62 -15 17 0 43 15 73 43 25
23 51 57 57 76 6 19 11 66 11 106 0 39 -5 97 -10 127 -8 40 -8 83 0 145 6 48
16 104 22 123 6 19 22 50 36 69 13 18 40 42 58 53 17 10 35 26 38 35 4 9 1 23
-7 30 -11 11 -19 12 -40 2 -22 -10 -31 -8 -62 11 -21 13 -46 37 -56 54 -11 18
-19 49 -19 76 0 25 7 90 15 144 8 55 15 133 15 175 -1 59 -5 81 -19 98 -11 13
-31 27 -46 33 -14 5 -37 10 -49 10z"/>
</g>
</svg>
