<?xml version="1.0" standalone="no"?>
<!DOCTYPE svg PUBLIC "-//W3C//DTD SVG 20010904//EN"
 "http://www.w3.org/TR/2001/REC-SVG-20010904/DTD/svg10.dtd">
<svg version="1.0" xmlns="http://www.w3.org/2000/svg"
 width="156.000000pt" height="171.000000pt" viewBox="0 0 156.000000 171.000000"
 preserveAspectRatio="xMidYMid meet">
<metadata>
Created by potrace 1.16, written by Peter Selinger 2001-2019
</metadata>
<g transform="translate(0.000000,171.000000) scale(0.100000,-0.100000)"
fill="#000000" stroke="none">
<path d="M886 1109 c-33 0 -79 -6 -101 -13 -22 -7 -60 -23 -85 -36 -25 -12
-56 -31 -69 -42 -13 -10 -51 -42 -84 -71 -33 -28 -86 -87 -118 -129 -32 -43
-67 -103 -78 -133 -12 -31 -21 -68 -21 -83 0 -15 7 -37 15 -50 9 -12 36 -33
59 -47 24 -14 70 -30 102 -35 38 -7 103 -6 183 0 68 5 167 17 220 25 53 9 111
18 129 21 17 3 32 9 32 13 0 5 -6 11 -14 14 -7 3 -83 -4 -167 -15 -85 -11
-208 -20 -274 -21 -105 -1 -125 2 -162 21 -23 12 -49 32 -57 44 -9 12 -16 34
-16 48 0 14 14 52 31 85 18 33 48 80 67 104 20 25 45 54 57 65 11 12 47 46 80
75 33 30 89 68 125 84 37 17 90 32 123 35 44 4 61 1 68 -9 5 -8 9 -26 9 -41 0
-21 -10 -35 -40 -57 -22 -16 -64 -35 -93 -41 -28 -7 -59 -16 -67 -21 -13 -6
-12 -9 4 -15 11 -4 46 -2 80 5 33 7 77 21 97 32 20 10 47 30 58 45 13 16 21
41 21 65 0 29 -6 42 -26 58 -21 16 -40 21 -88 20z"/>
</g>
</svg>
