<?xml version="1.0" standalone="no"?>
<!DOCTYPE svg PUBLIC "-//W3C//DTD SVG 20010904//EN"
 "http://www.w3.org/TR/2001/REC-SVG-20010904/DTD/svg10.dtd">
<svg version="1.0" xmlns="http://www.w3.org/2000/svg"
 width="157.000000pt" height="172.000000pt" viewBox="0 0 157.000000 172.000000"
 preserveAspectRatio="xMidYMid meet">
<metadata>
Created by potrace 1.16, written by Peter Selinger 2001-2019
</metadata>
<g transform="translate(0.000000,172.000000) scale(0.100000,-0.100000)"
fill="#000000" stroke="none">
<path d="M731 1170 c-5 0 -14 -7 -21 -15 -6 -8 -16 -43 -20 -77 -5 -35 -18
-133 -29 -218 -11 -85 -21 -196 -21 -246 0 -69 4 -95 15 -104 9 -7 28 -10 48
-6 21 4 50 24 82 56 27 28 52 50 56 50 4 0 10 -11 13 -24 3 -14 18 -38 32 -56
15 -17 40 -38 57 -46 20 -11 43 -14 70 -10 21 4 52 13 68 22 18 9 29 22 29 35
0 18 -4 20 -27 14 -16 -4 -50 -8 -77 -9 -42 -1 -51 3 -69 26 -11 15 -22 49
-25 76 -3 34 3 71 18 121 22 68 22 73 6 89 -12 12 -21 14 -32 7 -9 -6 -23 -28
-32 -50 -8 -22 -35 -71 -60 -110 -24 -38 -56 -82 -70 -97 -14 -15 -29 -25 -34
-22 -4 3 -8 39 -8 80 0 42 11 144 24 227 14 84 27 173 31 199 4 28 2 56 -5 68
-6 11 -14 20 -19 20z"/>
</g>
</svg>
