<?xml version="1.0" standalone="no"?>
<!DOCTYPE svg PUBLIC "-//W3C//DTD SVG 20010904//EN"
 "http://www.w3.org/TR/2001/REC-SVG-20010904/DTD/svg10.dtd">
<svg version="1.0" xmlns="http://www.w3.org/2000/svg"
 width="152.000000pt" height="167.000000pt" viewBox="0 0 152.000000 167.000000"
 preserveAspectRatio="xMidYMid meet">
<metadata>
Created by potrace 1.16, written by Peter Selinger 2001-2019
</metadata>
<g transform="translate(0.000000,167.000000) scale(0.100000,-0.100000)"
fill="#000000" stroke="none">
<path d="M754 1118 c-11 2 -26 -3 -31 -10 -6 -7 -14 -31 -18 -53 -4 -22 -16
-79 -27 -127 -15 -68 -24 -90 -44 -103 -13 -8 -24 -19 -24 -24 0 -4 8 -18 18
-29 15 -17 19 -39 20 -104 2 -80 3 -84 34 -110 27 -23 42 -28 88 -28 30 0 66
6 80 13 14 7 25 19 25 27 0 12 -12 14 -60 12 -50 -3 -64 1 -83 18 -19 18 -22
31 -22 90 0 49 4 73 16 84 8 9 28 16 43 16 15 0 35 6 46 13 10 8 15 19 11 25
-4 7 -23 12 -42 12 -22 0 -37 6 -40 15 -4 9 3 58 16 110 12 52 20 107 18 122
-2 19 -9 29 -24 31z"/>
</g>
</svg>
