<?xml version="1.0" standalone="no"?>
<!DOCTYPE svg PUBLIC "-//W3C//DTD SVG 20010904//EN"
 "http://www.w3.org/TR/2001/REC-SVG-20010904/DTD/svg10.dtd">
<svg version="1.0" xmlns="http://www.w3.org/2000/svg"
 width="153.000000pt" height="166.000000pt" viewBox="0 0 153.000000 166.000000"
 preserveAspectRatio="xMidYMid meet">
<metadata>
Created by potrace 1.16, written by Peter Selinger 2001-2019
</metadata>
<g transform="translate(0.000000,166.000000) scale(0.100000,-0.100000)"
fill="#000000" stroke="none">
<path d="M740 1170 c-4 0 -12 -6 -17 -12 -6 -7 -13 -30 -17 -50 -4 -22 -2 -46
4 -58 6 -11 20 -20 32 -20 12 0 29 7 39 16 16 14 18 14 29 -5 6 -12 17 -21 24
-21 8 0 17 7 20 16 3 9 6 40 6 71 0 46 -3 54 -17 51 -11 -2 -24 -21 -33 -46
-8 -23 -19 -41 -25 -39 -5 2 -11 19 -13 38 -2 19 -8 40 -14 46 -6 7 -14 13
-18 13z M657 908 c-11 10 -16 10 -24 0 -6 -7 -22 -36 -37 -65 -14 -28 -35 -84
-46 -124 -11 -41 -20 -91 -20 -112 0 -27 7 -45 25 -62 13 -14 32 -25 42 -25
10 0 36 9 58 21 22 12 54 34 70 50 17 16 35 29 39 29 4 0 19 -9 33 -20 14 -11
40 -22 58 -26 21 -4 44 0 64 10 17 9 31 24 31 32 0 13 -8 15 -44 10 -33 -5
-48 -3 -60 9 -9 9 -16 30 -16 45 0 16 11 59 25 96 14 36 25 77 25 89 0 13 -7
26 -16 29 -9 4 -22 2 -29 -4 -8 -6 -26 -46 -41 -88 -15 -42 -42 -97 -61 -122
-19 -25 -53 -57 -75 -73 -23 -15 -46 -26 -52 -24 -6 2 -12 20 -14 41 -2 27 7
58 33 112 19 41 38 94 41 117 5 31 2 46 -9 55z"/>
</g>
</svg>
