<?xml version="1.0" standalone="no"?>
<!DOCTYPE svg PUBLIC "-//W3C//DTD SVG 20010904//EN"
 "http://www.w3.org/TR/2001/REC-SVG-20010904/DTD/svg10.dtd">
<svg version="1.0" xmlns="http://www.w3.org/2000/svg"
 width="163.000000pt" height="181.000000pt" viewBox="0 0 163.000000 181.000000"
 preserveAspectRatio="xMidYMid meet">
<metadata>
Created by potrace 1.16, written by Peter Selinger 2001-2019
</metadata>
<g transform="translate(0.000000,181.000000) scale(0.100000,-0.100000)"
fill="#000000" stroke="none">
<path d="M758 1590 c-7 0 -41 -42 -75 -93 -33 -50 -96 -140 -138 -199 -42 -59
-88 -116 -102 -128 -15 -12 -23 -26 -19 -35 3 -8 16 -15 29 -15 13 0 36 14 54
33 16 17 60 75 96 127 36 52 81 116 99 142 18 26 38 48 45 48 7 0 16 -8 21
-17 5 -10 24 -67 41 -128 17 -60 35 -121 39 -135 6 -19 14 -25 37 -25 24 0 31
5 33 23 2 13 -8 55 -21 95 -14 40 -35 108 -46 152 -12 44 -27 93 -33 108 -6
15 -19 32 -29 37 -10 6 -24 10 -31 10z"/>
</g>
</svg>
