<?xml version="1.0" standalone="no"?>
<!DOCTYPE svg PUBLIC "-//W3C//DTD SVG 20010904//EN"
 "http://www.w3.org/TR/2001/REC-SVG-20010904/DTD/svg10.dtd">
<svg version="1.0" xmlns="http://www.w3.org/2000/svg"
 width="166.000000pt" height="181.000000pt" viewBox="0 0 166.000000 181.000000"
 preserveAspectRatio="xMidYMid meet">
<metadata>
Created by potrace 1.16, written by Peter Selinger 2001-2019
</metadata>
<g transform="translate(0.000000,181.000000) scale(0.100000,-0.100000)"
fill="#000000" stroke="none">
<path d="M818 1620 c-2 -1 -16 -7 -33 -14 -16 -7 -39 -24 -51 -37 -11 -13 -30
-51 -42 -84 -11 -33 -30 -98 -41 -144 -12 -46 -21 -94 -21 -108 0 -16 -11 -30
-32 -43 -18 -11 -50 -26 -71 -32 -30 -9 -43 -9 -58 0 -14 9 -25 9 -39 2 -10
-5 -21 -19 -25 -30 -3 -11 -3 -24 0 -30 3 -5 29 -10 56 -10 27 0 66 7 85 15
20 8 40 12 46 9 5 -3 7 -22 4 -43 -3 -20 -8 -66 -11 -103 l-7 -68 -31 0 c-18
0 -45 7 -61 15 -15 8 -37 15 -47 15 -11 0 -23 -8 -26 -17 -4 -9 2 -30 12 -47
10 -17 31 -55 47 -83 16 -29 38 -83 49 -120 11 -38 22 -105 26 -150 3 -45 9
-86 12 -92 4 -6 18 -12 31 -13 25 -3 25 -2 23 72 -1 41 -2 133 -3 203 -2 110
0 130 15 147 10 11 24 20 31 20 7 0 28 6 46 14 18 8 62 26 98 42 36 15 89 42
118 61 29 18 59 33 67 33 9 0 15 -10 15 -25 0 -14 8 -29 20 -35 12 -6 33 -10
47 -8 14 2 31 11 37 20 8 13 6 22 -8 37 -15 16 -17 30 -11 85 5 47 4 70 -5 81
-7 8 -20 15 -29 15 -9 0 -27 -20 -40 -45 -13 -24 -39 -56 -57 -70 -18 -14 -67
-44 -108 -66 -41 -22 -104 -49 -141 -59 -55 -16 -67 -17 -71 -5 -3 8 1 54 9
102 9 48 21 101 27 117 6 16 42 63 81 104 52 56 82 100 115 168 24 51 44 102
44 114 0 12 -5 30 -11 42 -6 11 -26 26 -44 34 -19 8 -36 14 -37 14z m6 -72
c17 -2 21 -9 20 -34 -1 -18 -16 -61 -33 -95 -18 -35 -49 -84 -71 -109 -21 -25
-41 -43 -43 -40 -3 3 3 34 13 70 10 36 25 84 34 108 9 24 25 57 37 73 14 20
28 29 43 27z M1065 1350 c-20 0 -25 -5 -25 -26 0 -14 5 -34 10 -45 6 -11 21
-19 35 -19 13 0 27 5 30 11 4 5 -1 26 -10 45 -12 25 -22 34 -40 34z"/>
</g>
</svg>
