<?xml version="1.0" standalone="no"?>
<!DOCTYPE svg PUBLIC "-//W3C//DTD SVG 20010904//EN"
 "http://www.w3.org/TR/2001/REC-SVG-20010904/DTD/svg10.dtd">
<svg version="1.0" xmlns="http://www.w3.org/2000/svg"
 width="156.000000pt" height="172.000000pt" viewBox="0 0 156.000000 172.000000"
 preserveAspectRatio="xMidYMid meet">
<metadata>
Created by potrace 1.16, written by Peter Selinger 2001-2019
</metadata>
<g transform="translate(0.000000,172.000000) scale(0.100000,-0.100000)"
fill="#000000" stroke="none">
<path d="M585 1204 c-6 2 -17 1 -23 -3 -6 -3 -16 -20 -23 -36 -8 -18 -13 -83
-13 -165 -1 -134 -1 -135 -23 -132 -13 1 -33 3 -44 5 -12 1 -26 -6 -33 -15 -8
-14 -8 -22 2 -35 7 -10 21 -31 32 -48 11 -16 29 -57 40 -90 11 -33 25 -96 31
-140 6 -44 15 -87 20 -97 5 -10 21 -18 34 -18 18 0 26 7 31 25 3 13 -1 57 -10
97 -8 40 -16 96 -17 123 -1 28 -1 67 -1 87 2 36 4 37 60 54 31 9 111 27 177
41 65 13 130 30 142 39 13 8 23 23 23 34 0 16 -7 20 -35 20 -19 0 -54 -6 -77
-14 -24 -7 -63 -18 -88 -24 -25 -6 -76 -16 -113 -23 -37 -6 -71 -9 -74 -6 -3
4 -6 21 -6 39 -1 18 0 61 1 95 2 62 2 62 40 72 20 6 71 13 112 16 41 4 143 13
225 22 83 8 156 20 163 25 6 6 12 19 12 29 0 13 -7 19 -22 19 -13 0 -88 -6
-168 -15 -80 -8 -189 -18 -244 -22 -96 -8 -99 -8 -109 14 -5 12 -15 24 -22 27z"/>
</g>
</svg>
