<?xml version="1.0" standalone="no"?>
<!DOCTYPE svg PUBLIC "-//W3C//DTD SVG 20010904//EN"
 "http://www.w3.org/TR/2001/REC-SVG-20010904/DTD/svg10.dtd">
<svg version="1.0" xmlns="http://www.w3.org/2000/svg"
 width="152.000000pt" height="167.000000pt" viewBox="0 0 152.000000 167.000000"
 preserveAspectRatio="xMidYMid meet">
<metadata>
Created by potrace 1.16, written by Peter Selinger 2001-2019
</metadata>
<g transform="translate(0.000000,167.000000) scale(0.100000,-0.100000)"
fill="#000000" stroke="none">
<path d="M943 1558 c-10 5 -37 5 -61 1 -23 -5 -61 -21 -85 -36 -23 -16 -58
-52 -78 -81 -23 -32 -45 -82 -58 -130 -12 -43 -21 -101 -21 -128 0 -28 7 -92
16 -142 8 -50 14 -104 12 -119 -2 -23 -10 -30 -43 -40 -22 -7 -69 -21 -105
-31 -57 -17 -65 -22 -68 -45 -3 -22 1 -27 20 -27 13 0 44 7 71 15 26 8 68 15
93 16 31 2 49 -2 55 -12 6 -8 8 -43 5 -79 -3 -36 -10 -101 -15 -145 -6 -44
-10 -126 -10 -183 -1 -89 2 -109 23 -150 13 -26 33 -55 44 -65 11 -11 38 -25
59 -33 21 -7 74 -13 118 -13 44 -1 102 6 129 14 28 8 60 22 73 30 13 9 23 22
23 29 0 8 -6 16 -12 19 -7 2 -35 -7 -63 -20 -37 -17 -67 -23 -115 -22 -36 0
-87 8 -114 17 -39 14 -53 26 -75 62 -25 43 -26 51 -23 169 1 76 10 162 22 220
11 53 18 109 14 126 -3 17 -15 45 -25 63 -14 24 -17 44 -13 71 3 21 -1 74 -11
121 -12 57 -16 115 -13 180 3 77 9 106 30 150 15 30 41 70 58 88 17 19 43 40
58 48 25 13 28 12 49 -13 18 -23 24 -25 37 -14 9 8 16 28 16 47 0 22 -6 36
-17 42z"/>
</g>
</svg>
