<?xml version="1.0" standalone="no"?>
<!DOCTYPE svg PUBLIC "-//W3C//DTD SVG 20010904//EN"
 "http://www.w3.org/TR/2001/REC-SVG-20010904/DTD/svg10.dtd">
<svg version="1.0" xmlns="http://www.w3.org/2000/svg"
 width="165.000000pt" height="178.000000pt" viewBox="0 0 165.000000 178.000000"
 preserveAspectRatio="xMidYMid meet">
<metadata>
Created by potrace 1.16, written by Peter Selinger 2001-2019
</metadata>
<g transform="translate(0.000000,178.000000) scale(0.100000,-0.100000)"
fill="#000000" stroke="none">
<path d="M945 718 c-24 5 -51 5 -65 0 -14 -5 -32 -16 -42 -25 -9 -8 -20 -28
-23 -45 -5 -21 -2 -35 11 -49 9 -10 25 -19 35 -19 10 0 20 -4 23 -9 3 -4 -4
-35 -15 -67 -11 -32 -27 -70 -34 -84 -8 -15 -21 -32 -29 -39 -9 -8 -16 -22
-16 -32 0 -14 7 -19 28 -19 16 0 35 6 44 13 8 6 21 28 28 47 8 19 27 64 43
100 16 36 40 93 54 128 22 54 24 66 12 77 -8 8 -32 18 -54 23z"/>
</g>
</svg>
