<?xml version="1.0" standalone="no"?>
<!DOCTYPE svg PUBLIC "-//W3C//DTD SVG 20010904//EN"
 "http://www.w3.org/TR/2001/REC-SVG-20010904/DTD/svg10.dtd">
<svg version="1.0" xmlns="http://www.w3.org/2000/svg"
 width="151.000000pt" height="167.000000pt" viewBox="0 0 151.000000 167.000000"
 preserveAspectRatio="xMidYMid meet">
<metadata>
Created by potrace 1.16, written by Peter Selinger 2001-2019
</metadata>
<g transform="translate(0.000000,167.000000) scale(0.100000,-0.100000)"
fill="#000000" stroke="none">
<path d="M618 928 c-12 2 -22 -6 -30 -25 -8 -17 -12 -70 -12 -133 0 -58 6
-123 13 -145 8 -22 23 -50 34 -62 14 -16 32 -23 57 -23 22 0 50 9 69 23 20 14
41 43 56 77 13 30 29 75 37 100 13 44 13 44 74 55 34 6 73 19 88 28 14 10 26
24 26 32 0 7 -4 16 -9 19 -5 3 -39 -2 -76 -12 -67 -17 -67 -17 -82 6 -9 12
-24 22 -34 22 -10 0 -20 -8 -23 -17 -2 -10 -8 -38 -11 -63 -4 -25 -16 -72 -26
-105 -10 -34 -28 -71 -39 -83 -11 -12 -30 -22 -41 -22 -14 0 -25 12 -36 38
-12 27 -16 72 -17 162 -1 110 -3 125 -18 128z"/>
</g>
</svg>
