<?xml version="1.0" standalone="no"?>
<!DOCTYPE svg PUBLIC "-//W3C//DTD SVG 20010904//EN"
 "http://www.w3.org/TR/2001/REC-SVG-20010904/DTD/svg10.dtd">
<svg version="1.0" xmlns="http://www.w3.org/2000/svg"
 width="157.000000pt" height="173.000000pt" viewBox="0 0 157.000000 173.000000"
 preserveAspectRatio="xMidYMid meet">
<metadata>
Created by potrace 1.16, written by Peter Selinger 2001-2019
</metadata>
<g transform="translate(0.000000,173.000000) scale(0.100000,-0.100000)"
fill="#000000" stroke="none">
<path d="M747 910 c-26 -1 -39 -10 -74 -54 -24 -29 -54 -83 -68 -120 -16 -44
-25 -87 -25 -126 0 -48 4 -63 22 -80 14 -13 35 -20 61 -20 31 0 46 7 71 33 17
17 42 46 54 62 17 23 24 27 31 16 5 -7 14 -46 21 -86 9 -55 10 -92 2 -142 -5
-37 -20 -93 -31 -124 -12 -32 -33 -69 -48 -83 -18 -19 -36 -26 -63 -26 -25 0
-50 9 -76 28 -21 16 -53 44 -69 63 -17 19 -37 51 -45 70 -8 18 -18 37 -24 41
-5 3 -15 4 -23 1 -7 -3 -13 -16 -13 -29 0 -13 16 -48 35 -77 19 -29 54 -69 78
-88 23 -19 49 -39 57 -44 8 -5 34 -12 59 -16 25 -3 59 -2 77 3 18 4 45 23 61
41 16 19 42 70 57 118 18 51 31 115 34 163 2 43 -1 111 -8 150 -7 39 -19 86
-28 104 -13 29 -19 33 -42 28 l-27 -5 5 74 c4 58 1 80 -12 100 -12 18 -25 25
-49 25z m-6 -86 c5 -3 9 -15 9 -27 0 -13 -9 -40 -20 -62 -11 -22 -20 -45 -20
-52 0 -8 10 -17 22 -22 20 -7 20 -9 -17 -49 -20 -23 -44 -42 -53 -42 -12 0
-14 11 -9 68 3 40 14 85 28 112 12 25 29 53 37 62 8 10 19 15 23 12z"/>
</g>
</svg>
