<?xml version="1.0" standalone="no"?>
<!DOCTYPE svg PUBLIC "-//W3C//DTD SVG 20010904//EN"
 "http://www.w3.org/TR/2001/REC-SVG-20010904/DTD/svg10.dtd">
<svg version="1.0" xmlns="http://www.w3.org/2000/svg"
 width="156.000000pt" height="172.000000pt" viewBox="0 0 156.000000 172.000000"
 preserveAspectRatio="xMidYMid meet">
<metadata>
Created by potrace 1.16, written by Peter Selinger 2001-2019
</metadata>
<g transform="translate(0.000000,172.000000) scale(0.100000,-0.100000)"
fill="#000000" stroke="none">
<path d="M585 1190 c-12 10 -18 6 -33 -20 -17 -28 -19 -46 -15 -158 4 -97 2
-131 -9 -145 -11 -14 -19 -15 -47 -7 -19 5 -38 7 -42 4 -5 -3 -9 -13 -9 -23 0
-10 7 -24 16 -32 8 -7 21 -24 29 -38 7 -14 22 -53 33 -86 11 -34 23 -90 27
-125 4 -36 12 -76 17 -90 5 -13 14 -28 20 -31 6 -4 17 -5 25 -2 7 3 13 20 13
42 0 20 -7 61 -15 91 -8 30 -15 91 -15 136 0 65 3 84 18 96 9 8 49 22 87 31
39 9 93 21 120 27 28 6 74 16 104 23 30 7 59 20 65 30 7 11 7 20 0 27 -7 7
-27 5 -64 -5 -30 -8 -84 -21 -120 -29 -36 -8 -89 -20 -118 -25 -30 -6 -60 -11
-68 -11 -11 0 -14 21 -14 105 0 93 2 105 19 115 11 5 75 15 143 20 68 6 150
15 183 20 33 5 78 10 101 10 23 0 55 5 73 11 17 6 31 17 31 25 0 9 -11 14 -27
14 -16 0 -84 -7 -153 -14 -69 -8 -178 -17 -242 -21 -99 -5 -118 -4 -118 8 0 8
-7 20 -15 27z"/>
</g>
</svg>
