<?xml version="1.0" standalone="no"?>
<!DOCTYPE svg PUBLIC "-//W3C//DTD SVG 20010904//EN"
 "http://www.w3.org/TR/2001/REC-SVG-20010904/DTD/svg10.dtd">
<svg version="1.0" xmlns="http://www.w3.org/2000/svg"
 width="152.000000pt" height="166.000000pt" viewBox="0 0 152.000000 166.000000"
 preserveAspectRatio="xMidYMid meet">
<metadata>
Created by potrace 1.16, written by Peter Selinger 2001-2019
</metadata>
<g transform="translate(0.000000,166.000000) scale(0.100000,-0.100000)"
fill="#000000" stroke="none">
<path d="M669 1130 c-13 0 -25 -11 -35 -35 -7 -19 -14 -41 -14 -48 0 -8 6 -19
13 -25 6 -5 41 -9 77 -8 65 2 65 2 68 38 2 23 -3 41 -13 52 -12 12 -21 13 -35
6 -10 -6 -23 -10 -29 -10 -6 0 -11 7 -11 15 0 8 -9 15 -21 15z M671 880 c-20
-1 -48 -7 -62 -15 -15 -8 -37 -31 -49 -52 -13 -21 -29 -60 -36 -88 -8 -27 -14
-71 -14 -97 0 -38 5 -50 26 -67 15 -12 37 -21 49 -21 12 0 37 3 56 7 22 4 52
25 89 62 30 31 63 71 72 89 12 22 24 32 40 32 13 0 46 9 73 19 35 13 50 24 50
37 0 14 -7 19 -25 18 -14 -1 -41 -5 -60 -9 -32 -6 -37 -3 -51 23 -14 24 -22
29 -42 25 -17 -3 -35 2 -53 16 -16 13 -41 21 -63 21z m-6 -50 c6 0 16 -4 23
-8 8 -6 12 -25 10 -53 -3 -43 -2 -44 25 -41 17 2 27 -2 27 -10 0 -7 -18 -34
-40 -60 -23 -27 -55 -51 -76 -58 -27 -9 -38 -9 -51 1 -12 10 -14 25 -10 65 3
28 15 71 28 95 12 24 29 49 38 56 9 7 21 12 26 13z"/>
</g>
</svg>
