<?xml version="1.0" standalone="no"?>
<!DOCTYPE svg PUBLIC "-//W3C//DTD SVG 20010904//EN"
 "http://www.w3.org/TR/2001/REC-SVG-20010904/DTD/svg10.dtd">
<svg version="1.0" xmlns="http://www.w3.org/2000/svg"
 width="156.000000pt" height="170.000000pt" viewBox="0 0 156.000000 170.000000"
 preserveAspectRatio="xMidYMid meet">
<metadata>
Created by potrace 1.16, written by Peter Selinger 2001-2019
</metadata>
<g transform="translate(0.000000,170.000000) scale(0.100000,-0.100000)"
fill="#000000" stroke="none">
<path d="M908 1379 c-18 -1 -44 -3 -58 -5 -14 -2 -48 -9 -77 -15 -29 -5 -78
-23 -110 -38 -32 -15 -79 -36 -105 -46 -26 -10 -53 -24 -59 -32 -10 -11 -9
-17 2 -29 13 -13 22 -12 70 5 30 10 81 31 112 46 31 14 93 34 136 43 65 13 84
14 106 4 26 -12 27 -15 23 -69 -4 -44 -18 -82 -65 -172 -59 -116 -59 -116 -99
-119 -21 -1 -45 -5 -52 -7 -10 -4 -8 -12 8 -35 21 -30 21 -30 -27 -97 -26 -38
-96 -117 -156 -177 -65 -66 -107 -115 -105 -125 2 -9 21 -22 43 -29 22 -8 65
-18 95 -23 35 -6 111 -5 210 2 85 6 213 14 285 18 113 5 130 8 133 23 2 11 -5
21 -20 27 -13 5 -108 6 -213 2 -104 -3 -240 -6 -302 -6 -61 0 -115 3 -119 7
-3 4 33 53 82 109 49 56 112 131 139 168 50 66 50 66 124 78 41 7 89 17 107
23 18 6 35 18 38 26 3 9 4 20 0 25 -3 5 -13 9 -22 9 -10 0 -44 -7 -76 -15 -33
-9 -61 -13 -64 -11 -2 3 5 20 16 38 11 18 36 65 55 103 20 39 41 100 47 138 9
51 9 74 1 95 -7 16 -25 36 -40 45 -16 9 -44 16 -63 16z"/>
</g>
</svg>
