<?xml version="1.0" standalone="no"?>
<!DOCTYPE svg PUBLIC "-//W3C//DTD SVG 20010904//EN"
 "http://www.w3.org/TR/2001/REC-SVG-20010904/DTD/svg10.dtd">
<svg version="1.0" xmlns="http://www.w3.org/2000/svg"
 width="156.000000pt" height="171.000000pt" viewBox="0 0 156.000000 171.000000"
 preserveAspectRatio="xMidYMid meet">
<metadata>
Created by potrace 1.16, written by Peter Selinger 2001-2019
</metadata>
<g transform="translate(0.000000,171.000000) scale(0.100000,-0.100000)"
fill="#000000" stroke="none">
<path d="M740 1203 c-25 3 -57 3 -71 0 -15 -2 -50 -18 -79 -36 -31 -19 -61
-47 -72 -67 -16 -29 -19 -49 -15 -115 3 -54 14 -105 33 -154 15 -41 24 -76 18
-78 -5 -2 -15 -7 -23 -12 -12 -8 -13 -16 -2 -51 9 -30 24 -49 57 -73 35 -24
47 -41 55 -74 6 -23 19 -49 30 -59 10 -9 25 -14 33 -11 8 3 17 20 21 37 5 24
11 30 23 25 10 -4 47 -9 83 -12 40 -3 80 -1 102 6 20 7 59 32 86 57 27 24 61
68 75 96 14 29 26 66 26 83 0 17 -7 56 -16 86 -9 30 -32 81 -52 114 -20 33
-66 89 -102 124 -36 36 -87 74 -115 87 -27 12 -70 25 -95 27z m-14 -63 c24 0
61 -10 92 -26 29 -14 78 -52 110 -85 33 -32 73 -88 91 -122 18 -35 35 -83 38
-105 4 -32 0 -54 -21 -97 -15 -30 -45 -70 -67 -88 -28 -25 -52 -36 -87 -40
-26 -3 -73 1 -106 8 -32 8 -61 16 -64 19 -3 4 -10 64 -15 134 -5 70 -7 178 -4
239 3 87 1 115 -9 124 -8 6 -20 9 -28 6 -8 -3 -20 -25 -26 -49 -7 -25 -9 -68
-6 -103 4 -33 9 -84 12 -112 4 -32 2 -53 -3 -53 -6 0 -17 17 -27 38 -9 20 -23
69 -31 107 -10 50 -12 80 -5 106 6 20 16 42 24 48 8 7 31 20 52 31 22 11 57
19 80 20z"/>
</g>
</svg>
