<?xml version="1.0" standalone="no"?>
<!DOCTYPE svg PUBLIC "-//W3C//DTD SVG 20010904//EN"
 "http://www.w3.org/TR/2001/REC-SVG-20010904/DTD/svg10.dtd">
<svg version="1.0" xmlns="http://www.w3.org/2000/svg"
 width="158.000000pt" height="172.000000pt" viewBox="0 0 158.000000 172.000000"
 preserveAspectRatio="xMidYMid meet">
<metadata>
Created by potrace 1.16, written by Peter Selinger 2001-2019
</metadata>
<g transform="translate(0.000000,172.000000) scale(0.100000,-0.100000)"
fill="#000000" stroke="none">
<path d="M1097 1560 c-23 0 -71 -11 -107 -24 -36 -12 -88 -34 -116 -49 -27
-14 -77 -43 -110 -65 -32 -22 -75 -57 -95 -79 -20 -21 -53 -64 -74 -96 -21
-32 -51 -90 -66 -129 -16 -39 -38 -105 -49 -147 -10 -42 -22 -96 -25 -121 -2
-25 -12 -101 -21 -170 -13 -106 -14 -136 -3 -193 11 -61 16 -71 48 -93 20 -13
41 -24 48 -24 6 0 14 4 17 8 3 5 -6 24 -20 44 -17 23 -27 54 -31 92 -3 32 0
104 6 159 7 56 21 145 31 198 10 53 30 129 45 170 14 40 43 103 64 139 22 36
58 86 80 112 23 25 69 64 104 85 34 21 92 54 129 72 39 18 86 33 110 34 43 2
43 2 42 -60 -1 -45 -8 -76 -28 -117 -15 -30 -39 -65 -54 -78 -16 -13 -31 -29
-35 -35 -5 -8 18 -43 60 -91 46 -54 76 -100 92 -142 17 -46 22 -75 19 -113 -3
-29 -18 -78 -33 -110 -19 -40 -41 -67 -70 -87 -24 -16 -65 -35 -91 -42 -27 -7
-55 -16 -61 -21 -7 -5 -13 -20 -13 -33 0 -20 5 -24 31 -24 17 0 63 15 102 33
48 23 87 50 115 81 24 26 53 69 65 94 16 36 22 67 22 127 0 58 -5 93 -19 125
-11 25 -41 74 -66 110 -25 36 -49 70 -53 76 -3 6 10 32 29 59 19 27 41 72 49
99 8 27 15 76 15 109 0 44 -5 66 -21 88 -17 24 -27 29 -62 29z"/>
</g>
</svg>
