<?xml version="1.0" standalone="no"?>
<!DOCTYPE svg PUBLIC "-//W3C//DTD SVG 20010904//EN"
 "http://www.w3.org/TR/2001/REC-SVG-20010904/DTD/svg10.dtd">
<svg version="1.0" xmlns="http://www.w3.org/2000/svg"
 width="155.000000pt" height="168.000000pt" viewBox="0 0 155.000000 168.000000"
 preserveAspectRatio="xMidYMid meet">
<metadata>
Created by potrace 1.16, written by Peter Selinger 2001-2019
</metadata>
<g transform="translate(0.000000,168.000000) scale(0.100000,-0.100000)"
fill="#000000" stroke="none">
<path d="M1247 959 c-17 0 -42 -4 -54 -9 -12 -5 -91 -20 -175 -34 -84 -13
-207 -28 -273 -31 -66 -4 -126 -12 -132 -17 -7 -6 -13 -16 -13 -24 0 -7 9 -18
21 -24 15 -9 49 -9 127 0 59 7 188 25 287 41 99 16 195 29 212 29 18 0 35 5
38 11 4 5 4 21 1 35 -5 19 -13 24 -39 23z M1198 828 c-7 -1 -65 -4 -128 -8
-63 -4 -137 -12 -164 -19 -27 -6 -105 -20 -173 -30 -69 -10 -129 -23 -135 -29
-8 -8 -7 -16 2 -27 7 -8 26 -15 42 -15 16 0 95 14 176 30 81 17 186 33 234 37
67 5 95 2 127 -10 22 -9 47 -14 56 -11 8 3 15 15 15 25 0 10 -9 28 -20 39 -11
11 -26 19 -32 18z"/>
</g>
</svg>
