<?xml version="1.0" standalone="no"?>
<!DOCTYPE svg PUBLIC "-//W3C//DTD SVG 20010904//EN"
 "http://www.w3.org/TR/2001/REC-SVG-20010904/DTD/svg10.dtd">
<svg version="1.0" xmlns="http://www.w3.org/2000/svg"
 width="152.000000pt" height="167.000000pt" viewBox="0 0 152.000000 167.000000"
 preserveAspectRatio="xMidYMid meet">
<metadata>
Created by potrace 1.16, written by Peter Selinger 2001-2019
</metadata>
<g transform="translate(0.000000,167.000000) scale(0.100000,-0.100000)"
fill="#000000" stroke="none">
<path d="M907 1109 c-6 0 -52 -23 -102 -51 -49 -28 -130 -79 -180 -113 -49
-34 -123 -79 -164 -100 -51 -25 -82 -35 -101 -32 -14 3 -32 2 -38 -2 -7 -4
-15 -24 -19 -44 l-6 -37 58 0 c54 0 67 -5 174 -68 64 -38 125 -71 135 -75 11
-4 56 -30 101 -57 45 -27 88 -57 95 -65 7 -8 25 -15 40 -15 15 0 33 6 39 14 9
11 10 20 1 35 -6 12 -21 21 -35 21 -13 0 -52 15 -87 34 -35 18 -94 50 -133 71
-38 21 -103 60 -142 87 -40 27 -73 54 -73 61 0 7 55 52 123 99 67 47 153 102
189 123 56 30 76 36 115 34 39 -3 48 0 51 14 2 10 -4 29 -12 42 -9 14 -22 25
-29 24z"/>
</g>
</svg>
