<?xml version="1.0" standalone="no"?>
<!DOCTYPE svg PUBLIC "-//W3C//DTD SVG 20010904//EN"
 "http://www.w3.org/TR/2001/REC-SVG-20010904/DTD/svg10.dtd">
<svg version="1.0" xmlns="http://www.w3.org/2000/svg"
 width="153.000000pt" height="165.000000pt" viewBox="0 0 153.000000 165.000000"
 preserveAspectRatio="xMidYMid meet">
<metadata>
Created by potrace 1.16, written by Peter Selinger 2001-2019
</metadata>
<g transform="translate(0.000000,165.000000) scale(0.100000,-0.100000)"
fill="#000000" stroke="none">
<path d="M658 1080 c-2 0 -11 -6 -20 -13 -9 -7 -19 -24 -23 -38 -4 -17 0 -33
12 -48 12 -15 24 -20 35 -16 16 6 16 9 2 37 -9 17 -13 41 -10 54 4 13 5 24 4
24z M773 1057 c-6 2 -14 -8 -17 -22 -4 -15 -1 -38 6 -53 7 -15 20 -28 29 -30
15 -3 15 3 5 49 -7 29 -17 54 -23 56z M673 860 c-4 0 -26 -9 -48 -20 -22 -10
-52 -29 -66 -42 -15 -13 -34 -39 -44 -58 -10 -19 -20 -61 -22 -95 -2 -38 1
-69 9 -85 7 -13 25 -31 39 -39 16 -9 37 -12 61 -7 19 3 56 20 82 37 31 21 54
29 69 26 12 -3 41 -11 64 -18 34 -10 44 -10 58 1 14 12 10 15 -32 29 -35 12
-49 22 -51 38 -2 12 8 40 22 62 14 22 28 58 32 79 4 26 2 42 -6 47 -7 4 -23
-5 -40 -24 -16 -17 -34 -31 -40 -31 -5 0 -17 18 -26 40 -9 22 -25 45 -35 50
-10 6 -21 10 -26 10z m-25 -40 c11 0 26 -8 34 -17 8 -10 24 -35 36 -56 17 -30
21 -47 16 -79 -4 -24 -19 -55 -36 -74 -18 -20 -46 -38 -70 -45 -36 -9 -45 -8
-67 9 -21 15 -27 29 -29 68 -2 27 1 65 7 85 6 21 29 53 51 73 22 20 48 36 58
36z"/>
</g>
</svg>
