<?xml version="1.0" standalone="no"?>
<!DOCTYPE svg PUBLIC "-//W3C//DTD SVG 20010904//EN"
 "http://www.w3.org/TR/2001/REC-SVG-20010904/DTD/svg10.dtd">
<svg version="1.0" xmlns="http://www.w3.org/2000/svg"
 width="153.000000pt" height="167.000000pt" viewBox="0 0 153.000000 167.000000"
 preserveAspectRatio="xMidYMid meet">
<metadata>
Created by potrace 1.16, written by Peter Selinger 2001-2019
</metadata>
<g transform="translate(0.000000,167.000000) scale(0.100000,-0.100000)"
fill="#000000" stroke="none">
<path d="M781 1270 c-4 0 -11 -3 -14 -7 -4 -3 -7 -18 -7 -32 0 -15 -6 -35 -14
-46 -7 -11 -21 -53 -30 -92 -9 -40 -23 -104 -32 -143 -16 -70 -16 -70 -55 -70
-21 0 -76 -7 -121 -16 -46 -9 -89 -21 -95 -27 -7 -5 -13 -18 -13 -28 0 -10 9
-21 20 -24 11 -3 56 1 100 10 44 9 90 15 103 13 18 -2 21 -8 19 -33 -2 -16 -9
-36 -14 -42 -7 -8 -36 -13 -78 -13 -37 0 -94 -3 -128 -6 -40 -5 -63 -12 -67
-22 -3 -8 0 -21 6 -28 8 -10 41 -14 125 -14 102 0 114 -2 114 -17 0 -10 -7
-63 -17 -118 -9 -56 -14 -109 -10 -119 4 -11 15 -16 29 -14 14 2 31 17 43 40
17 32 18 41 7 72 -11 28 -11 48 -1 97 7 33 17 63 23 65 6 2 43 8 81 13 39 5
73 6 77 2 4 -4 -12 -90 -37 -191 -24 -102 -49 -206 -55 -231 -6 -25 -8 -53 -4
-63 4 -10 15 -16 28 -14 12 2 30 20 43 43 12 22 25 59 29 83 4 25 2 48 -3 53
-7 7 -6 33 2 77 8 37 22 99 33 138 11 40 25 81 31 92 7 13 26 23 53 27 24 4
84 8 133 9 90 1 90 1 93 34 2 23 -2 34 -13 38 -9 4 -65 0 -123 -8 -70 -10
-109 -12 -113 -5 -4 5 -3 23 2 40 5 16 11 32 14 35 3 3 62 10 131 16 125 9
125 9 152 -17 16 -15 36 -27 45 -27 11 0 17 8 17 21 0 11 -5 29 -10 40 -6 10
-25 26 -43 35 -26 14 -50 16 -144 10 -61 -3 -114 -3 -117 2 -2 4 0 28 6 52 6
25 20 72 31 105 11 33 31 81 44 107 12 26 20 54 17 62 -3 9 -15 16 -25 16 -11
0 -25 -13 -35 -32 -9 -18 -22 -40 -30 -48 -7 -8 -22 -51 -34 -95 -12 -44 -28
-103 -36 -131 -14 -52 -14 -52 -86 -56 -50 -4 -77 -1 -86 7 -12 10 -11 21 2
66 9 30 29 101 46 158 28 96 29 106 15 128 -9 13 -19 23 -24 23z m86 -448 c8
-3 10 -15 6 -35 -3 -18 -8 -35 -12 -38 -3 -4 -43 -9 -88 -13 -46 -4 -83 -3
-83 1 0 5 5 25 10 45 11 37 11 37 83 40 40 2 77 1 84 0z"/>
</g>
</svg>
