<?xml version="1.0" standalone="no"?>
<!DOCTYPE svg PUBLIC "-//W3C//DTD SVG 20010904//EN"
 "http://www.w3.org/TR/2001/REC-SVG-20010904/DTD/svg10.dtd">
<svg version="1.0" xmlns="http://www.w3.org/2000/svg"
 width="165.000000pt" height="181.000000pt" viewBox="0 0 165.000000 181.000000"
 preserveAspectRatio="xMidYMid meet">
<metadata>
Created by potrace 1.16, written by Peter Selinger 2001-2019
</metadata>
<g transform="translate(0.000000,181.000000) scale(0.100000,-0.100000)"
fill="#000000" stroke="none">
<path d="M900 1284 c-30 3 -71 1 -90 -3 -19 -4 -60 -20 -90 -35 -30 -15 -79
-51 -108 -79 -30 -29 -80 -91 -112 -139 -32 -48 -73 -118 -91 -155 -23 -48
-34 -87 -37 -131 -4 -55 -1 -66 22 -97 15 -19 48 -47 74 -62 46 -27 52 -28
192 -28 137 0 151 2 250 34 58 18 123 42 145 53 22 11 77 41 123 66 45 25 82
52 82 59 0 7 -4 13 -8 13 -5 0 -53 -23 -108 -50 -54 -28 -100 -47 -102 -41 -2
5 11 31 28 57 17 27 37 71 45 98 8 27 15 82 15 121 0 39 -7 94 -15 123 -9 28
-30 70 -48 94 -18 23 -50 55 -72 70 -28 19 -56 29 -95 32z m-42 -44 c29 0 67
-6 85 -14 18 -7 44 -26 59 -42 15 -16 37 -51 49 -79 17 -38 23 -69 23 -130 0
-49 -7 -100 -18 -131 -9 -28 -32 -69 -51 -92 -19 -22 -54 -50 -78 -61 -24 -12
-52 -21 -62 -21 -10 0 -29 10 -42 22 -13 12 -23 32 -23 44 0 12 18 59 41 104
24 49 41 98 42 122 2 31 -3 43 -18 51 -11 6 -36 22 -56 34 -19 13 -49 23 -65
23 -16 0 -50 -10 -74 -22 -25 -13 -55 -38 -67 -57 -18 -27 -23 -48 -23 -100 0
-43 6 -78 18 -101 9 -19 28 -40 42 -47 14 -7 37 -13 52 -13 20 0 32 -9 49 -37
12 -21 31 -48 42 -60 20 -22 20 -23 1 -30 -10 -5 -68 -8 -129 -8 -102 0 -113
2 -157 28 -27 15 -55 42 -64 59 -12 23 -15 46 -11 81 4 30 23 81 51 133 25 46
73 120 106 164 34 43 77 90 95 104 19 15 55 37 82 51 33 17 65 25 101 25z
m-119 -232 c33 -3 36 -6 39 -38 2 -19 -4 -62 -14 -95 -9 -33 -24 -66 -33 -72
-8 -7 -25 -13 -38 -13 -13 0 -29 10 -39 25 -12 19 -15 41 -12 87 4 52 9 65 32
85 21 18 38 23 65 21z"/>
</g>
</svg>
