<?xml version="1.0" standalone="no"?>
<!DOCTYPE svg PUBLIC "-//W3C//DTD SVG 20010904//EN"
 "http://www.w3.org/TR/2001/REC-SVG-20010904/DTD/svg10.dtd">
<svg version="1.0" xmlns="http://www.w3.org/2000/svg"
 width="158.000000pt" height="173.000000pt" viewBox="0 0 158.000000 173.000000"
 preserveAspectRatio="xMidYMid meet">
<metadata>
Created by potrace 1.16, written by Peter Selinger 2001-2019
</metadata>
<g transform="translate(0.000000,173.000000) scale(0.100000,-0.100000)"
fill="#000000" stroke="none">
<path d="M991 1359 c-13 7 -23 6 -33 -2 -8 -7 -25 -30 -37 -52 -13 -22 -31
-67 -41 -100 -10 -33 -28 -105 -40 -160 -12 -55 -25 -108 -29 -118 -6 -16 -9
-16 -41 8 -30 23 -41 25 -80 20 -25 -4 -57 -13 -72 -21 -15 -8 -44 -31 -64
-51 -20 -20 -45 -54 -55 -77 -12 -27 -19 -64 -19 -111 0 -38 5 -86 10 -107 6
-20 24 -50 41 -66 17 -17 44 -36 60 -42 17 -8 44 -9 66 -5 30 5 54 24 114 87
76 79 76 79 123 50 26 -17 69 -33 95 -37 28 -4 84 0 139 10 50 8 112 24 137
35 26 11 45 26 45 35 0 9 -6 18 -14 21 -8 3 -48 -4 -88 -15 -48 -14 -104 -21
-158 -21 -74 0 -87 3 -117 26 -20 15 -33 34 -33 48 0 12 4 26 9 32 6 5 23 36
39 69 17 33 40 93 52 133 15 54 23 113 27 216 4 99 2 148 -6 164 -6 12 -20 26
-30 31z m-25 -129 c4 0 4 -44 0 -97 -3 -54 -11 -116 -17 -138 -6 -22 -25 -75
-41 -117 -17 -43 -35 -78 -41 -78 -6 0 -7 22 -2 58 4 31 22 116 40 187 18 72
38 142 44 158 6 15 13 27 17 27z m-269 -330 c1 0 13 -4 27 -10 18 -6 28 -21
36 -51 7 -23 9 -58 5 -76 -4 -25 -16 -40 -41 -55 -19 -11 -34 -28 -34 -39 0
-12 10 -21 32 -27 32 -8 32 -8 -13 -55 -35 -36 -53 -47 -76 -47 -18 0 -38 9
-51 23 -12 13 -28 49 -34 80 -11 50 -10 64 7 113 11 31 28 68 39 82 11 13 38
33 60 43 23 10 42 19 43 19z"/>
</g>
</svg>
