<?xml version="1.0" standalone="no"?>
<!DOCTYPE svg PUBLIC "-//W3C//DTD SVG 20010904//EN"
 "http://www.w3.org/TR/2001/REC-SVG-20010904/DTD/svg10.dtd">
<svg version="1.0" xmlns="http://www.w3.org/2000/svg"
 width="153.000000pt" height="168.000000pt" viewBox="0 0 153.000000 168.000000"
 preserveAspectRatio="xMidYMid meet">
<metadata>
Created by potrace 1.16, written by Peter Selinger 2001-2019
</metadata>
<g transform="translate(0.000000,168.000000) scale(0.100000,-0.100000)"
fill="#000000" stroke="none">
<path d="M765 719 c-162 -1 -247 -5 -254 -12 -6 -6 -11 -16 -11 -22 0 -7 8
-19 18 -27 14 -13 51 -16 207 -16 105 0 205 -5 223 -11 25 -7 39 -7 53 2 11 7
22 22 25 35 4 12 1 29 -6 37 -10 12 -54 14 -255 14z"/>
</g>
</svg>
