<?xml version="1.0" standalone="no"?>
<!DOCTYPE svg PUBLIC "-//W3C//DTD SVG 20010904//EN"
 "http://www.w3.org/TR/2001/REC-SVG-20010904/DTD/svg10.dtd">
<svg version="1.0" xmlns="http://www.w3.org/2000/svg"
 width="166.000000pt" height="182.000000pt" viewBox="0 0 166.000000 182.000000"
 preserveAspectRatio="xMidYMid meet">
<metadata>
Created by potrace 1.16, written by Peter Selinger 2001-2019
</metadata>
<g transform="translate(0.000000,182.000000) scale(0.100000,-0.100000)"
fill="#000000" stroke="none">
<path d="M774 1470 c-7 0 -14 -6 -17 -12 -2 -7 1 -26 6 -42 5 -16 7 -67 4
-115 -3 -49 -1 -94 4 -104 7 -12 22 -17 49 -17 26 0 40 5 40 13 0 7 -5 18 -11
24 -5 5 -14 56 -18 111 -6 76 -12 107 -26 122 -10 11 -24 20 -31 20z"/>
</g>
</svg>
