<?xml version="1.0" standalone="no"?>
<!DOCTYPE svg PUBLIC "-//W3C//DTD SVG 20010904//EN"
 "http://www.w3.org/TR/2001/REC-SVG-20010904/DTD/svg10.dtd">
<svg version="1.0" xmlns="http://www.w3.org/2000/svg"
 width="156.000000pt" height="170.000000pt" viewBox="0 0 156.000000 170.000000"
 preserveAspectRatio="xMidYMid meet">
<metadata>
Created by potrace 1.16, written by Peter Selinger 2001-2019
</metadata>
<g transform="translate(0.000000,170.000000) scale(0.100000,-0.100000)"
fill="#000000" stroke="none">
<path d="M946 1299 c-23 -1 -58 -5 -80 -10 -21 -5 -69 -25 -107 -45 -38 -20
-83 -52 -99 -71 -18 -20 -30 -45 -30 -62 0 -15 13 -46 29 -67 16 -21 77 -86
136 -144 59 -58 120 -123 136 -144 16 -21 29 -48 29 -58 0 -12 -13 -25 -37
-36 -30 -13 -66 -16 -168 -15 -71 0 -165 6 -208 12 -43 6 -95 20 -117 31 -21
11 -46 17 -54 14 -9 -3 -16 -15 -16 -26 0 -13 14 -25 43 -38 27 -12 97 -25
190 -35 80 -8 179 -15 219 -15 40 0 97 7 126 14 29 8 64 22 78 30 13 9 24 26
24 38 0 12 -10 42 -21 66 -13 26 -74 96 -154 175 -73 73 -140 147 -149 165
-15 30 -16 36 -2 56 8 13 37 37 64 55 27 17 74 37 104 43 29 6 66 8 81 4 21
-5 27 -12 27 -32 0 -14 -12 -46 -26 -70 -20 -35 -24 -48 -15 -57 8 -8 16 -9
29 -1 9 6 32 35 50 65 22 36 32 64 30 84 -2 21 -13 36 -37 52 -23 15 -48 23
-75 22z"/>
</g>
</svg>
