<?xml version="1.0" standalone="no"?>
<!DOCTYPE svg PUBLIC "-//W3C//DTD SVG 20010904//EN"
 "http://www.w3.org/TR/2001/REC-SVG-20010904/DTD/svg10.dtd">
<svg version="1.0" xmlns="http://www.w3.org/2000/svg"
 width="153.000000pt" height="166.000000pt" viewBox="0 0 153.000000 166.000000"
 preserveAspectRatio="xMidYMid meet">
<metadata>
Created by potrace 1.16, written by Peter Selinger 2001-2019
</metadata>
<g transform="translate(0.000000,166.000000) scale(0.100000,-0.100000)"
fill="#000000" stroke="none">
<path d="M859 1145 c-19 3 -56 -3 -84 -11 -27 -9 -62 -25 -77 -35 -14 -11 -36
-34 -47 -53 -12 -18 -21 -45 -21 -60 0 -14 3 -26 8 -26 4 0 18 21 31 46 14 25
39 56 55 69 17 13 53 29 79 36 36 9 55 9 72 1 14 -6 27 -23 31 -38 4 -14 4
-51 1 -82 -2 -32 -17 -83 -31 -116 -14 -32 -43 -81 -63 -110 -20 -28 -70 -85
-110 -127 -65 -67 -72 -78 -58 -89 14 -11 39 -11 148 -1 73 8 183 19 246 25
81 8 116 15 119 25 4 11 -4 13 -34 8 -22 -3 -119 -9 -216 -13 -155 -6 -178 -5
-178 8 0 8 17 35 38 59 21 24 52 62 69 84 17 22 44 67 61 100 16 34 36 89 42
122 7 34 10 77 6 96 -3 19 -17 44 -30 56 -13 12 -38 24 -57 26z"/>
</g>
</svg>
