<?xml version="1.0" standalone="no"?>
<!DOCTYPE svg PUBLIC "-//W3C//DTD SVG 20010904//EN"
 "http://www.w3.org/TR/2001/REC-SVG-20010904/DTD/svg10.dtd">
<svg version="1.0" xmlns="http://www.w3.org/2000/svg"
 width="157.000000pt" height="171.000000pt" viewBox="0 0 157.000000 171.000000"
 preserveAspectRatio="xMidYMid meet">
<metadata>
Created by potrace 1.16, written by Peter Selinger 2001-2019
</metadata>
<g transform="translate(0.000000,171.000000) scale(0.100000,-0.100000)"
fill="#000000" stroke="none">
<path d="M500 1284 c-60 7 -68 5 -105 -20 -22 -15 -57 -43 -77 -62 -21 -20
-38 -42 -38 -49 0 -7 10 -13 23 -13 12 0 31 7 42 16 11 8 48 24 83 34 35 11
81 20 102 20 23 0 43 -7 52 -17 9 -10 32 -50 51 -89 20 -39 45 -99 57 -134 16
-47 22 -93 24 -182 2 -90 6 -122 17 -129 8 -5 19 -9 26 -9 6 0 19 7 27 16 11
11 16 34 16 77 0 34 -8 94 -18 132 -14 56 -16 97 -12 205 l5 134 35 8 c19 4
114 10 210 12 96 3 178 5 183 6 4 0 7 6 7 14 0 10 -15 17 -43 21 -23 4 -168 5
-322 4 -154 -1 -309 1 -345 5z m174 -64 c19 0 37 -4 40 -8 3 -5 2 -34 -1 -65
-3 -31 -9 -54 -14 -51 -5 2 -20 27 -34 55 -14 28 -25 55 -25 60 0 5 15 9 34 9z"/>
</g>
</svg>
