<?xml version="1.0" standalone="no"?>
<!DOCTYPE svg PUBLIC "-//W3C//DTD SVG 20010904//EN"
 "http://www.w3.org/TR/2001/REC-SVG-20010904/DTD/svg10.dtd">
<svg version="1.0" xmlns="http://www.w3.org/2000/svg"
 width="153.000000pt" height="168.000000pt" viewBox="0 0 153.000000 168.000000"
 preserveAspectRatio="xMidYMid meet">
<metadata>
Created by potrace 1.16, written by Peter Selinger 2001-2019
</metadata>
<g transform="translate(0.000000,168.000000) scale(0.100000,-0.100000)"
fill="#000000" stroke="none">
<path d="M880 637 c-14 1 -35 -2 -47 -7 -15 -6 -23 -18 -23 -34 0 -15 8 -30
20 -36 15 -8 27 -8 48 2 20 10 27 20 27 43 0 25 -4 30 -25 32z M868 386 c-29
5 -38 2 -52 -17 -9 -13 -16 -31 -16 -41 0 -13 8 -18 29 -18 17 0 32 -4 35 -8
3 -4 0 -28 -5 -53 -6 -24 -20 -55 -32 -68 -20 -21 -28 -22 -79 -17 -38 4 -59
2 -64 -6 -4 -6 3 -19 16 -30 14 -11 38 -18 67 -18 28 0 58 8 79 20 18 12 42
40 54 65 14 28 22 67 23 104 1 33 -3 65 -9 71 -6 6 -27 13 -46 16z"/>
</g>
</svg>
