<?xml version="1.0" standalone="no"?>
<!DOCTYPE svg PUBLIC "-//W3C//DTD SVG 20010904//EN"
 "http://www.w3.org/TR/2001/REC-SVG-20010904/DTD/svg10.dtd">
<svg version="1.0" xmlns="http://www.w3.org/2000/svg"
 width="158.000000pt" height="171.000000pt" viewBox="0 0 158.000000 171.000000"
 preserveAspectRatio="xMidYMid meet">
<metadata>
Created by potrace 1.16, written by Peter Selinger 2001-2019
</metadata>
<g transform="translate(0.000000,171.000000) scale(0.100000,-0.100000)"
fill="#000000" stroke="none">
<path d="M1066 1180 c-7 0 -34 -17 -60 -37 -26 -20 -77 -75 -112 -122 -36 -48
-89 -138 -120 -201 -30 -63 -63 -131 -73 -150 -11 -19 -25 -35 -32 -35 -8 0
-28 34 -46 75 -18 41 -49 145 -69 230 -20 85 -42 170 -50 188 -9 20 -21 32
-33 32 -11 0 -22 -4 -25 -9 -4 -5 23 -111 59 -236 36 -125 79 -255 96 -289 17
-33 38 -69 47 -79 9 -10 25 -17 36 -15 15 2 31 23 53 68 18 36 41 88 52 117
11 28 33 78 49 110 16 32 46 87 68 123 21 35 71 98 111 139 39 41 70 79 67 83
-3 4 -11 8 -18 8z"/>
</g>
</svg>
