<?xml version="1.0" standalone="no"?>
<!DOCTYPE svg PUBLIC "-//W3C//DTD SVG 20010904//EN"
 "http://www.w3.org/TR/2001/REC-SVG-20010904/DTD/svg10.dtd">
<svg version="1.0" xmlns="http://www.w3.org/2000/svg"
 width="165.000000pt" height="180.000000pt" viewBox="0 0 165.000000 180.000000"
 preserveAspectRatio="xMidYMid meet">
<metadata>
Created by potrace 1.16, written by Peter Selinger 2001-2019
</metadata>
<g transform="translate(0.000000,180.000000) scale(0.100000,-0.100000)"
fill="#000000" stroke="none">
<path d="M604 860 c-8 0 -66 -46 -131 -101 -65 -56 -124 -109 -130 -117 -7 -9
-13 -22 -13 -29 0 -7 11 -13 24 -13 15 0 58 31 126 91 65 57 106 87 112 81 6
-6 2 -53 -12 -127 -11 -65 -19 -124 -16 -132 3 -7 14 -13 25 -13 10 0 32 15
48 33 16 18 44 54 63 80 18 26 38 47 43 47 5 0 6 -31 2 -74 -6 -65 -5 -75 11
-84 11 -6 25 -6 38 0 12 5 34 26 50 48 15 21 52 62 82 91 43 42 56 51 66 41 7
-7 15 -51 19 -97 4 -47 12 -92 19 -100 7 -8 24 -15 38 -15 23 0 24 2 17 38 -4
20 -8 69 -9 107 -2 39 -9 84 -17 100 -8 16 -25 35 -38 42 -18 8 -30 9 -44 1
-11 -6 -50 -38 -86 -72 l-66 -61 -5 52 c-3 29 -13 60 -22 69 -10 10 -24 14
-36 10 -11 -4 -41 -29 -67 -57 -26 -28 -49 -49 -50 -47 -2 2 1 24 6 48 6 25 8
62 6 83 -3 21 -13 47 -23 58 -9 10 -23 19 -30 19z"/>
</g>
</svg>
