<?xml version="1.0" standalone="no"?>
<!DOCTYPE svg PUBLIC "-//W3C//DTD SVG 20010904//EN"
 "http://www.w3.org/TR/2001/REC-SVG-20010904/DTD/svg10.dtd">
<svg version="1.0" xmlns="http://www.w3.org/2000/svg"
 width="165.000000pt" height="181.000000pt" viewBox="0 0 165.000000 181.000000"
 preserveAspectRatio="xMidYMid meet">
<metadata>
Created by potrace 1.16, written by Peter Selinger 2001-2019
</metadata>
<g transform="translate(0.000000,181.000000) scale(0.100000,-0.100000)"
fill="#000000" stroke="none">
<path d="M705 890 c-6 0 -38 -14 -71 -30 -33 -17 -76 -44 -95 -59 -19 -16 -45
-50 -58 -76 -23 -46 -23 -50 -9 -89 10 -28 21 -41 34 -41 15 0 18 6 16 32 -2
18 6 49 18 72 11 23 39 55 62 71 23 17 53 33 66 37 15 3 27 1 32 -7 5 -7 6
-29 2 -49 -3 -19 -16 -51 -29 -70 -20 -29 -23 -44 -19 -76 4 -22 11 -55 17
-73 7 -21 19 -34 34 -38 13 -3 29 -3 34 1 6 3 11 26 11 50 0 24 5 68 11 97 6
29 16 59 23 67 6 7 29 22 51 31 22 10 74 25 114 34 53 12 93 15 142 10 59 -6
69 -4 69 9 0 9 -10 23 -22 31 -14 10 -44 16 -83 16 -33 0 -96 -6 -140 -14 -44
-8 -92 -17 -106 -21 -22 -5 -28 -2 -39 25 -7 17 -22 37 -34 45 -11 8 -25 15
-31 15z"/>
</g>
</svg>
