<?xml version="1.0" standalone="no"?>
<!DOCTYPE svg PUBLIC "-//W3C//DTD SVG 20010904//EN"
 "http://www.w3.org/TR/2001/REC-SVG-20010904/DTD/svg10.dtd">
<svg version="1.0" xmlns="http://www.w3.org/2000/svg"
 width="157.000000pt" height="172.000000pt" viewBox="0 0 157.000000 172.000000"
 preserveAspectRatio="xMidYMid meet">
<metadata>
Created by potrace 1.16, written by Peter Selinger 2001-2019
</metadata>
<g transform="translate(0.000000,172.000000) scale(0.100000,-0.100000)"
fill="#000000" stroke="none">
<path d="M935 1314 c-16 5 -32 -6 -67 -42 -29 -29 -58 -75 -79 -122 -18 -41
-48 -131 -67 -200 -19 -69 -34 -141 -33 -160 0 -19 -2 -72 -5 -117 l-6 -82
-47 -30 c-26 -17 -57 -42 -70 -55 -13 -13 -21 -32 -19 -42 1 -10 30 -36 62
-58 33 -23 68 -52 78 -66 10 -14 22 -47 27 -74 5 -26 16 -55 24 -64 14 -14 18
-13 41 2 16 10 26 26 26 40 0 13 -7 43 -16 67 -9 24 -18 90 -21 147 -6 96 -5
104 16 126 13 13 50 38 84 54 34 17 79 37 100 46 23 9 37 21 35 28 -3 7 -12
15 -22 16 -9 2 -47 -9 -84 -24 -37 -16 -77 -34 -89 -42 -13 -8 -30 -11 -39 -8
-13 5 -15 15 -10 47 5 32 21 57 66 106 41 45 68 87 90 140 17 41 40 109 51
150 10 42 19 99 19 128 0 28 -6 58 -12 67 -7 9 -22 19 -33 22z m-17 -106 c2
-15 -6 -63 -18 -105 -12 -43 -38 -114 -59 -159 -21 -45 -44 -85 -50 -89 -7 -4
-15 -4 -18 -1 -4 3 1 42 11 86 9 44 31 113 48 153 16 39 42 88 57 107 l26 35
3 -27z m-240 -698 c7 0 12 -14 12 -35 0 -19 -5 -35 -11 -35 -6 0 -19 5 -30 10
-10 6 -19 17 -19 25 0 8 8 19 18 24 9 6 23 11 30 11z"/>
</g>
</svg>
