<?xml version="1.0" standalone="no"?>
<!DOCTYPE svg PUBLIC "-//W3C//DTD SVG 20010904//EN"
 "http://www.w3.org/TR/2001/REC-SVG-20010904/DTD/svg10.dtd">
<svg version="1.0" xmlns="http://www.w3.org/2000/svg"
 width="165.000000pt" height="181.000000pt" viewBox="0 0 165.000000 181.000000"
 preserveAspectRatio="xMidYMid meet">
<metadata>
Created by potrace 1.16, written by Peter Selinger 2001-2019
</metadata>
<g transform="translate(0.000000,181.000000) scale(0.100000,-0.100000)"
fill="#000000" stroke="none">
<path d="M878 1299 c-7 -1 -33 -5 -58 -8 -25 -4 -70 -19 -100 -33 -30 -15 -79
-51 -109 -80 -29 -29 -72 -80 -96 -113 -23 -33 -61 -93 -84 -133 -22 -41 -48
-99 -57 -129 -9 -32 -14 -73 -11 -95 3 -21 16 -53 30 -71 13 -18 49 -46 78
-62 53 -29 57 -30 194 -30 123 1 151 4 230 28 50 16 135 50 190 77 55 27 121
63 148 79 26 17 47 37 47 45 0 7 -6 16 -14 19 -8 3 -32 -4 -53 -15 -21 -12
-63 -34 -93 -49 -30 -15 -56 -26 -58 -24 -2 2 8 23 22 47 14 24 33 73 42 108
12 47 15 86 11 142 -5 58 -14 92 -36 136 -17 33 -50 77 -76 100 -27 23 -63 44
-90 51 -24 6 -50 10 -57 10z m-18 -70 c47 1 74 -4 96 -18 18 -11 44 -35 59
-55 15 -20 33 -53 41 -73 7 -21 13 -68 14 -104 0 -41 -8 -88 -21 -128 -15 -45
-34 -76 -63 -104 -22 -22 -55 -46 -73 -53 -18 -8 -40 -14 -49 -14 -10 0 -26 7
-36 17 -10 9 -18 28 -18 42 0 15 15 56 34 91 19 36 39 84 46 108 9 37 9 48 -5
68 -8 13 -22 24 -30 24 -8 0 -31 11 -51 25 -20 14 -44 25 -53 25 -9 0 -33 -5
-53 -10 -21 -6 -51 -22 -68 -37 -17 -14 -37 -38 -45 -54 -9 -16 -15 -55 -15
-91 0 -47 6 -73 23 -103 13 -22 33 -43 47 -47 14 -4 36 -10 50 -12 16 -4 37
-24 58 -57 18 -28 30 -54 27 -57 -4 -4 -59 -7 -123 -7 -105 0 -121 3 -155 23
-20 13 -44 33 -52 45 -8 12 -15 42 -15 68 0 28 10 69 25 103 14 31 37 75 52
99 15 23 54 77 86 119 37 48 79 90 111 110 28 18 60 38 71 45 11 6 49 12 85
12z m-128 -229 c20 0 32 -7 39 -22 7 -18 4 -41 -14 -98 -21 -67 -26 -75 -51
-78 -15 -2 -33 2 -41 8 -7 6 -16 29 -20 50 -4 23 -2 55 5 75 6 19 21 42 33 50
12 8 34 15 49 15z"/>
</g>
</svg>
