<?xml version="1.0" standalone="no"?>
<!DOCTYPE svg PUBLIC "-//W3C//DTD SVG 20010904//EN"
 "http://www.w3.org/TR/2001/REC-SVG-20010904/DTD/svg10.dtd">
<svg version="1.0" xmlns="http://www.w3.org/2000/svg"
 width="154.000000pt" height="168.000000pt" viewBox="0 0 154.000000 168.000000"
 preserveAspectRatio="xMidYMid meet">
<metadata>
Created by potrace 1.16, written by Peter Selinger 2001-2019
</metadata>
<g transform="translate(0.000000,168.000000) scale(0.100000,-0.100000)"
fill="#000000" stroke="none">
<path d="M771 1530 c-28 0 -59 -8 -78 -20 -20 -12 -36 -32 -41 -52 -5 -19 -5
-37 -1 -43 6 -5 23 5 45 28 25 26 45 37 65 37 20 0 34 -8 45 -25 14 -21 16
-40 10 -101 -3 -42 -13 -121 -22 -178 -11 -66 -14 -119 -10 -151 7 -43 15 -57
59 -98 47 -45 50 -50 37 -70 -8 -12 -24 -43 -37 -68 -17 -34 -26 -75 -33 -150
-6 -68 -5 -131 2 -182 5 -43 8 -110 6 -149 -4 -66 -6 -72 -41 -104 -20 -19
-47 -34 -60 -34 -12 0 -39 11 -60 25 -20 14 -37 30 -37 35 0 6 -9 10 -19 10
-11 0 -22 -4 -25 -9 -4 -5 6 -23 20 -41 15 -17 47 -41 73 -54 31 -16 57 -22
79 -19 20 4 49 21 75 47 29 28 47 57 56 89 10 35 12 72 6 140 -5 50 -8 128 -8
172 0 44 6 106 12 137 7 32 25 75 42 98 17 23 45 50 64 61 18 11 36 26 39 34
3 8 3 22 -1 31 -5 12 -15 15 -47 10 -36 -6 -47 -3 -78 21 -20 15 -41 38 -47
51 -6 13 -11 49 -11 80 0 31 7 98 15 147 8 50 15 119 15 155 0 44 -5 74 -16
90 -10 14 -24 31 -32 38 -9 6 -36 12 -61 12z"/>
</g>
</svg>
