<?xml version="1.0" standalone="no"?>
<!DOCTYPE svg PUBLIC "-//W3C//DTD SVG 20010904//EN"
 "http://www.w3.org/TR/2001/REC-SVG-20010904/DTD/svg10.dtd">
<svg version="1.0" xmlns="http://www.w3.org/2000/svg"
 width="165.000000pt" height="179.000000pt" viewBox="0 0 165.000000 179.000000"
 preserveAspectRatio="xMidYMid meet">
<metadata>
Created by potrace 1.16, written by Peter Selinger 2001-2019
</metadata>
<g transform="translate(0.000000,179.000000) scale(0.100000,-0.100000)"
fill="#000000" stroke="none">
<path d="M595 1330 c-12 0 -29 -8 -38 -18 -9 -10 -21 -49 -26 -88 -5 -38 -13
-149 -17 -246 -7 -178 -7 -178 -55 -178 -29 0 -64 8 -87 20 -22 11 -46 18 -55
14 -9 -3 -19 -15 -23 -27 -5 -15 0 -26 19 -41 14 -12 36 -28 49 -37 13 -9 47
-59 76 -112 34 -61 60 -123 72 -173 11 -46 25 -83 36 -91 10 -7 24 -13 31 -13
7 0 18 11 23 25 6 17 4 42 -7 82 -8 32 -19 76 -25 98 -5 22 -6 77 -3 122 7 81
7 81 72 113 41 20 85 53 121 92 31 32 63 70 70 84 7 13 17 24 21 24 5 0 7 -37
4 -82 -2 -46 -6 -89 -8 -95 -2 -7 -25 -22 -50 -34 -25 -12 -59 -34 -75 -49
-17 -16 -30 -32 -30 -37 0 -5 28 -35 63 -65 35 -31 72 -75 84 -99 12 -24 26
-57 32 -72 9 -23 16 -28 39 -25 22 2 28 8 30 35 2 18 -6 54 -18 80 -12 26 -23
68 -26 93 -3 25 -1 59 4 75 7 27 17 33 89 56 45 15 110 40 145 57 35 16 71 39
81 50 11 12 16 26 12 32 -4 7 -19 10 -36 6 -16 -3 -63 -22 -106 -41 -42 -20
-99 -39 -126 -42 -50 -6 -50 -6 -44 78 4 46 16 143 27 215 10 71 22 138 26
147 3 10 -1 28 -10 42 -9 14 -25 25 -36 25 -13 0 -21 -9 -25 -27 -3 -16 -12
-54 -21 -86 -8 -32 -34 -97 -58 -145 -24 -48 -63 -109 -87 -136 -24 -27 -64
-62 -88 -78 -25 -15 -49 -28 -53 -28 -4 0 -8 30 -8 68 0 37 7 126 15 197 7 72
18 144 24 162 5 18 7 41 4 53 -3 12 -14 20 -28 20z"/>
</g>
</svg>
