<?xml version="1.0" standalone="no"?>
<!DOCTYPE svg PUBLIC "-//W3C//DTD SVG 20010904//EN"
 "http://www.w3.org/TR/2001/REC-SVG-20010904/DTD/svg10.dtd">
<svg version="1.0" xmlns="http://www.w3.org/2000/svg"
 width="158.000000pt" height="171.000000pt" viewBox="0 0 158.000000 171.000000"
 preserveAspectRatio="xMidYMid meet">
<metadata>
Created by potrace 1.16, written by Peter Selinger 2001-2019
</metadata>
<g transform="translate(0.000000,171.000000) scale(0.100000,-0.100000)"
fill="#000000" stroke="none">
<path d="M934 1310 c-8 0 -18 -10 -23 -22 -5 -13 -12 -48 -15 -78 -4 -30 -21
-104 -37 -165 -16 -60 -35 -128 -43 -150 -8 -21 -19 -41 -26 -43 -7 -3 -32 18
-56 46 -25 28 -54 54 -65 57 -11 4 -26 1 -34 -5 -10 -8 -15 -31 -15 -62 0 -27
6 -63 14 -81 7 -18 32 -49 55 -70 22 -21 41 -43 41 -50 0 -7 -14 -35 -30 -64
-16 -28 -43 -61 -59 -72 -20 -15 -44 -21 -79 -21 -38 0 -55 5 -75 24 -14 13
-29 36 -33 50 -3 14 -3 59 0 99 3 39 8 92 12 117 4 32 1 51 -10 65 -12 16 -18
18 -33 9 -10 -6 -21 -29 -25 -50 -4 -21 -7 -73 -7 -115 -1 -41 6 -100 15 -130
9 -30 25 -64 37 -77 11 -12 37 -27 58 -33 22 -7 59 -9 92 -5 42 6 64 15 94 41
22 18 54 61 72 94 22 41 38 61 51 61 10 0 47 -32 84 -72 57 -62 67 -70 81 -58
13 11 15 25 10 71 l-7 58 44 27 c23 15 82 48 130 72 48 25 85 49 82 54 -3 4
-14 8 -25 8 -10 0 -66 -24 -124 -54 -86 -44 -107 -51 -116 -40 -6 8 -16 51
-21 96 -5 46 -7 140 -4 210 3 70 11 150 17 178 8 39 8 54 -1 65 -7 8 -19 15
-26 15z m-55 -420 c5 0 11 -14 15 -31 3 -17 6 -56 6 -85 0 -30 -3 -54 -8 -54
-4 0 -18 7 -30 16 -15 10 -22 25 -22 48 0 19 7 50 15 70 8 20 19 36 24 36z
m-192 -20 c5 0 24 -18 42 -41 21 -25 30 -46 26 -56 -5 -14 -10 -12 -35 13 -16
16 -32 41 -35 57 -4 15 -3 27 2 27z"/>
</g>
</svg>
