<?xml version="1.0" standalone="no"?>
<!DOCTYPE svg PUBLIC "-//W3C//DTD SVG 20010904//EN"
 "http://www.w3.org/TR/2001/REC-SVG-20010904/DTD/svg10.dtd">
<svg version="1.0" xmlns="http://www.w3.org/2000/svg"
 width="157.000000pt" height="171.000000pt" viewBox="0 0 157.000000 171.000000"
 preserveAspectRatio="xMidYMid meet">
<metadata>
Created by potrace 1.16, written by Peter Selinger 2001-2019
</metadata>
<g transform="translate(0.000000,171.000000) scale(0.100000,-0.100000)"
fill="#000000" stroke="none">
<path d="M658 1708 c-55 2 -68 -1 -68 -13 0 -8 5 -15 11 -15 6 0 19 5 31 11
11 6 22 8 25 5 3 -3 0 -12 -6 -20 -10 -12 -6 -15 20 -21 17 -4 35 -3 39 1 5 5
10 18 12 29 3 18 -3 20 -64 23z M983 1710 c-44 0 -54 -3 -45 -12 7 -7 12 -20
12 -30 0 -10 -4 -18 -10 -18 -5 0 -10 -9 -10 -20 0 -11 5 -20 10 -20 6 0 10 7
10 15 0 8 4 15 9 15 5 0 11 -9 14 -21 3 -12 10 -18 15 -15 6 3 5 19 -2 41 -6
19 -14 35 -18 35 -5 0 -8 5 -8 11 0 5 14 2 30 -8 27 -16 32 -16 40 -3 5 8 10
18 10 23 0 4 -26 7 -57 7z M1493 1589 c-5 -1 -19 -7 -33 -15 -14 -8 -33 -12
-42 -10 -11 2 -18 -2 -18 -9 0 -8 12 -15 28 -17 19 -2 28 -9 30 -25 2 -13 7
-23 12 -23 4 0 11 7 14 16 3 8 10 13 15 9 6 -3 8 -12 5 -19 -3 -8 0 -17 6 -21
7 -4 16 -1 21 6 4 8 7 21 6 29 -2 8 -6 21 -11 28 -5 9 -12 10 -19 3 -8 -6 -18
-5 -30 4 -16 12 -16 13 3 18 11 3 20 10 20 16 0 6 -3 11 -7 10z M161 1470
c-26 0 -41 -5 -45 -15 -3 -9 1 -18 10 -22 9 -3 20 0 25 8 6 10 10 5 15 -18 4
-18 10 -33 14 -33 4 0 10 14 14 31 3 17 6 35 6 40 0 5 -18 9 -39 9z M1484
1380 c-7 0 -16 -9 -19 -20 -3 -11 -11 -20 -16 -20 -5 0 -23 -10 -39 -22 -17
-12 -30 -25 -30 -30 0 -4 7 -8 15 -8 8 0 15 5 15 10 0 6 7 10 15 10 8 0 15 -3
15 -7 0 -4 -10 -17 -22 -30 -12 -13 -18 -26 -15 -30 4 -3 18 -1 31 5 21 10 26
8 31 -8 4 -11 15 -20 25 -20 12 0 20 -10 24 -35 4 -19 10 -35 14 -35 4 0 8 12
9 27 0 16 -4 31 -10 35 -9 6 -9 8 1 8 6 0 12 9 12 20 0 14 -6 20 -17 18 -11
-2 -19 7 -25 30 -7 26 -12 31 -22 23 -10 -8 -16 -8 -25 2 -6 8 -8 17 -4 20 3
4 14 7 22 7 9 0 22 9 28 19 7 10 9 22 6 25 -4 3 -12 6 -19 6z M1235 1370 c-3
0 -10 -12 -16 -27 -8 -22 -12 -25 -20 -13 -7 11 -8 7 -3 -12 5 -23 3 -26 -15
-21 -15 4 -21 1 -21 -11 0 -9 6 -16 13 -16 8 0 22 9 32 20 10 11 22 20 27 20
5 0 13 -12 18 -26 6 -14 15 -24 21 -22 6 2 10 7 10 11 -1 4 -1 16 -1 28 0 11
-4 18 -9 15 -5 -4 -17 -3 -26 0 -12 5 -15 14 -11 30 4 13 4 24 1 24z M1115
1270 c-7 0 -15 -3 -18 -7 -4 -3 -7 -10 -7 -15 0 -4 7 -8 16 -8 9 0 14 -6 11
-12 -2 -8 -17 -12 -37 -10 -26 3 -32 1 -27 -12 3 -8 2 -18 -3 -21 -6 -4 -10 3
-10 15 0 15 -5 20 -17 18 -11 -2 -18 -12 -18 -26 0 -12 -7 -27 -15 -32 -11 -7
-11 -10 -2 -10 7 0 10 -4 7 -10 -4 -6 -13 -5 -25 3 -11 6 -20 17 -20 23 0 7 7
14 15 18 8 3 12 12 9 20 -3 8 5 21 18 30 22 16 22 16 -5 16 -22 0 -27 -4 -27
-26 0 -16 -5 -24 -12 -21 -7 2 -13 9 -13 15 0 6 -5 16 -10 21 -7 7 -15 7 -25
0 -13 -8 -13 -11 1 -19 10 -6 15 -21 14 -40 -1 -16 1 -30 5 -30 4 0 13 -14 21
-32 7 -17 15 -26 17 -20 2 7 8 10 13 6 5 -3 9 -12 9 -20 0 -8 -9 -14 -21 -14
-11 0 -18 -4 -15 -9 4 -5 19 -5 36 2 19 7 30 18 30 30 0 13 5 17 16 13 9 -3
20 -6 25 -6 6 0 5 -8 -1 -20 -6 -11 -20 -20 -31 -20 -17 0 -20 -4 -15 -24 5
-19 0 -29 -16 -40 -12 -8 -25 -13 -29 -10 -5 2 -6 11 -3 18 3 9 -6 15 -27 20
-18 3 -35 3 -38 0 -3 -4 0 -9 7 -11 6 -3 12 -11 12 -19 0 -8 -5 -14 -10 -14
-6 0 -13 7 -16 15 -4 8 -12 15 -20 15 -9 0 -14 -11 -14 -29 0 -17 -4 -33 -10
-36 -5 -3 -10 -13 -10 -21 0 -8 10 -14 24 -14 14 0 28 -4 31 -10 3 -5 1 -10
-5 -10 -6 0 -40 -23 -75 -50 -65 -50 -65 -50 -65 -6 0 25 -5 57 -10 72 -10 24
-14 26 -50 20 -25 -4 -40 -2 -40 4 0 5 5 10 10 10 6 0 10 7 10 15 0 8 -6 15
-12 15 -7 0 -5 5 5 11 9 5 17 19 17 31 0 14 -5 18 -16 14 -9 -3 -18 -6 -20 -6
-2 0 -4 -7 -4 -16 0 -12 -6 -15 -23 -10 -15 3 -31 -1 -44 -11 -20 -17 -20 -17
3 -40 18 -18 22 -28 15 -41 -5 -9 -30 -32 -55 -51 -25 -19 -46 -37 -46 -41 0
-3 -20 -33 -44 -66 -24 -33 -46 -74 -50 -90 -3 -16 -1 -36 4 -44 7 -10 12 -11
18 -4 4 6 14 13 24 17 9 3 41 37 72 75 30 39 69 80 86 92 16 12 35 18 41 15 6
-4 8 -23 4 -49 -3 -22 -11 -63 -17 -91 -6 -27 -14 -54 -18 -60 -4 -5 -7 -19
-5 -30 1 -11 6 -30 10 -43 4 -12 11 -22 16 -22 4 0 11 5 14 10 4 6 10 8 15 5
5 -3 20 9 33 27 14 18 36 56 51 85 14 28 44 67 66 84 23 18 51 35 64 36 23 3
23 1 28 -89 3 -58 11 -105 21 -125 10 -18 17 -41 17 -51 0 -11 7 -22 15 -26 8
-3 24 4 36 17 17 18 19 29 14 62 -4 22 -9 100 -11 174 -3 79 -9 144 -17 160
-7 14 -17 26 -24 26 -6 0 -15 3 -18 7 -4 4 5 13 21 20 16 7 32 16 35 21 3 4
18 3 32 -2 23 -9 27 -8 28 7 1 9 2 29 3 43 1 15 8 34 15 43 7 9 21 16 30 16 9
0 22 5 29 12 7 7 12 18 12 25 0 7 -7 13 -16 13 -11 0 -15 -6 -11 -20 3 -13 0
-20 -9 -20 -8 0 -14 8 -14 18 0 10 -6 26 -13 36 -12 16 -10 22 10 42 18 18 31
22 49 18 20 -5 23 -3 18 10 -3 9 0 23 7 32 11 14 10 18 -6 30 -10 8 -24 14
-30 14z M872 1190 c-5 0 -12 -3 -15 -7 -4 -3 -2 -12 4 -20 9 -10 8 -13 -5 -13
-12 0 -16 -10 -16 -44 0 -25 4 -47 9 -50 5 -3 11 0 14 8 3 9 15 12 31 9 23 -5
26 -2 26 21 0 20 -5 26 -21 26 -13 0 -20 6 -18 18 1 9 1 25 0 35 0 9 -5 17 -9
17z M1506 1110 c-19 0 -37 -4 -40 -8 -3 -5 -2 -18 1 -30 3 -12 9 -22 14 -22 5
0 9 5 9 10 0 6 5 10 12 10 6 0 8 -3 5 -6 -3 -4 -2 -15 4 -25 5 -11 14 -19 19
-19 6 0 10 20 10 45 0 45 0 45 -34 45z M257 1085 c-13 16 -14 16 -30 0 -9 -9
-17 -19 -17 -21 0 -3 5 -2 11 2 6 3 24 -3 40 -15 16 -12 29 -17 29 -12 0 5 9
11 20 14 12 3 20 14 20 26 0 15 -4 19 -17 14 -10 -3 -24 -11 -31 -16 -9 -7
-16 -5 -25 8z M745 1079 c-5 0 -17 -3 -25 -7 -8 -4 -15 -16 -16 -27 0 -11 -4
-30 -8 -41 -4 -15 -1 -28 11 -39 11 -12 18 -14 21 -6 2 6 -1 18 -7 25 -6 7 -8
16 -4 19 3 4 17 4 29 1 15 -4 24 -2 24 5 0 6 -8 11 -18 11 -12 0 -18 8 -18 23
0 12 5 25 10 29 7 5 7 7 1 7z M1521 1000 c-9 0 -23 -5 -31 -10 -10 -6 -11 -10
-2 -10 6 0 12 -8 12 -18 0 -11 9 -27 19 -36 13 -12 20 -13 23 -6 2 7 2 27 0
46 -3 23 -9 34 -21 34z M1453 847 c-6 2 -14 -5 -17 -15 -4 -11 -4 -27 0 -36 4
-11 1 -16 -11 -16 -9 0 -15 -6 -12 -12 2 -7 17 -12 32 -11 16 1 36 9 44 18 14
14 14 16 -6 21 -15 4 -22 13 -20 26 1 12 -3 23 -10 25z M270 710 c-6 0 -10
-12 -10 -26 0 -21 -3 -24 -13 -16 -10 8 -13 6 -14 -9 -1 -14 3 -19 13 -15 8 3
20 -3 26 -14 7 -11 16 -20 20 -20 5 0 8 6 8 13 0 6 -5 29 -11 50 -5 20 -14 37
-19 37z M1443 707 c-6 2 -14 -1 -18 -8 -4 -6 -1 -15 6 -20 12 -7 12 -9 0 -9
-10 0 -11 -3 -2 -14 10 -11 8 -16 -7 -20 -11 -4 -22 -16 -25 -27 -4 -13 -1
-18 6 -15 7 3 20 9 30 12 11 4 18 18 19 40 0 19 1 39 2 46 1 6 -4 13 -11 15z
M1410 135 c-6 3 -15 -6 -22 -22 -6 -15 -11 -31 -10 -35 1 -3 -5 -12 -13 -18
-8 -7 -15 -16 -15 -21 0 -5 9 -9 19 -9 10 0 22 7 25 16 3 9 4 19 1 24 -3 4 2
13 10 20 8 7 15 18 15 26 0 7 -5 16 -10 19z"/>
</g>
</svg>
