<?xml version="1.0" standalone="no"?>
<!DOCTYPE svg PUBLIC "-//W3C//DTD SVG 20010904//EN"
 "http://www.w3.org/TR/2001/REC-SVG-20010904/DTD/svg10.dtd">
<svg version="1.0" xmlns="http://www.w3.org/2000/svg"
 width="155.000000pt" height="171.000000pt" viewBox="0 0 155.000000 171.000000"
 preserveAspectRatio="xMidYMid meet">
<metadata>
Created by potrace 1.16, written by Peter Selinger 2001-2019
</metadata>
<g transform="translate(0.000000,171.000000) scale(0.100000,-0.100000)"
fill="#000000" stroke="none">
<path d="M991 1300 c-11 0 -43 -39 -91 -112 -40 -62 -94 -147 -118 -188 -25
-41 -54 -100 -64 -130 -11 -30 -26 -67 -35 -83 -8 -16 -33 -49 -55 -73 -25
-28 -49 -44 -64 -44 -12 0 -30 7 -38 16 -9 8 -16 31 -16 49 0 19 13 112 30
208 16 96 30 198 30 225 0 28 -3 57 -6 66 -3 9 -15 16 -25 16 -11 0 -20 -9
-23 -22 -3 -13 -7 -66 -10 -118 -3 -52 -15 -151 -27 -220 -12 -70 -19 -147
-16 -174 3 -36 11 -55 27 -68 12 -10 33 -21 46 -24 13 -3 36 -3 52 1 15 3 53
34 85 67 54 56 60 60 83 50 13 -7 66 -17 117 -23 50 -6 119 -20 152 -31 33
-11 79 -31 103 -44 23 -14 47 -22 52 -19 6 3 10 10 10 15 0 4 -21 21 -47 37
-27 17 -74 39 -106 51 -32 12 -96 29 -143 37 -46 8 -94 19 -104 25 -11 6 -20
20 -20 31 0 11 9 37 19 57 11 20 29 57 41 82 12 25 60 102 107 171 65 97 83
132 78 148 -3 12 -14 21 -24 21z"/>
</g>
</svg>
