<?xml version="1.0" standalone="no"?>
<!DOCTYPE svg PUBLIC "-//W3C//DTD SVG 20010904//EN"
 "http://www.w3.org/TR/2001/REC-SVG-20010904/DTD/svg10.dtd">
<svg version="1.0" xmlns="http://www.w3.org/2000/svg"
 width="155.000000pt" height="172.000000pt" viewBox="0 0 155.000000 172.000000"
 preserveAspectRatio="xMidYMid meet">
<metadata>
Created by potrace 1.16, written by Peter Selinger 2001-2019
</metadata>
<g transform="translate(0.000000,172.000000) scale(0.100000,-0.100000)"
fill="#000000" stroke="none">
<path d="M609 1218 c-9 1 -20 -3 -26 -10 -6 -7 -13 -33 -17 -58 -3 -25 -13
-115 -21 -200 -8 -85 -15 -188 -15 -229 0 -66 -2 -72 -17 -66 -10 4 -26 10
-35 12 -13 4 -18 0 -18 -16 0 -12 12 -34 28 -48 15 -14 46 -41 68 -59 23 -19
69 -46 103 -59 39 -16 80 -25 116 -25 36 0 70 7 95 20 22 11 46 33 55 50 8 16
15 51 15 78 0 27 -7 69 -15 93 -9 25 -29 62 -46 82 -17 21 -48 46 -69 57 -31
16 -47 18 -84 11 -26 -5 -64 -20 -86 -35 -22 -14 -42 -26 -45 -26 -3 0 -5 15
-5 33 0 17 6 66 14 107 8 41 16 122 18 180 3 89 1 105 -13 108z m135 -418 c16
0 43 -9 60 -20 18 -10 42 -37 55 -60 12 -22 25 -64 28 -93 5 -46 2 -57 -19
-81 -18 -21 -36 -29 -70 -33 -29 -3 -71 1 -110 12 -35 9 -71 22 -81 30 -15 11
-16 20 -8 78 5 37 17 77 25 89 9 13 33 35 54 50 20 15 50 27 66 28z"/>
</g>
</svg>
