<?xml version="1.0" standalone="no"?>
<!DOCTYPE svg PUBLIC "-//W3C//DTD SVG 20010904//EN"
 "http://www.w3.org/TR/2001/REC-SVG-20010904/DTD/svg10.dtd">
<svg version="1.0" xmlns="http://www.w3.org/2000/svg"
 width="166.000000pt" height="179.000000pt" viewBox="0 0 166.000000 179.000000"
 preserveAspectRatio="xMidYMid meet">
<metadata>
Created by potrace 1.16, written by Peter Selinger 2001-2019
</metadata>
<g transform="translate(0.000000,179.000000) scale(0.100000,-0.100000)"
fill="#000000" stroke="none">
<path d="M961 1690 c-10 0 -30 -17 -45 -37 -14 -21 -46 -63 -71 -93 -25 -30
-72 -101 -105 -157 -33 -56 -60 -107 -60 -115 0 -7 16 -25 34 -40 19 -16 42
-28 51 -28 9 0 31 7 50 15 20 8 38 21 41 29 3 9 -8 35 -26 60 l-32 44 31 59
c18 32 47 79 66 105 19 26 53 59 75 73 22 14 40 32 40 39 0 8 -7 22 -16 30 -8
9 -24 16 -33 16z"/>
</g>
</svg>
