<?xml version="1.0" standalone="no"?>
<!DOCTYPE svg PUBLIC "-//W3C//DTD SVG 20010904//EN"
 "http://www.w3.org/TR/2001/REC-SVG-20010904/DTD/svg10.dtd">
<svg version="1.0" xmlns="http://www.w3.org/2000/svg"
 width="156.000000pt" height="168.000000pt" viewBox="0 0 156.000000 168.000000"
 preserveAspectRatio="xMidYMid meet">
<metadata>
Created by potrace 1.16, written by Peter Selinger 2001-2019
</metadata>
<g transform="translate(0.000000,168.000000) scale(0.100000,-0.100000)"
fill="#000000" stroke="none">
<path d="M871 1420 c-16 8 -25 5 -45 -12 -14 -13 -66 -72 -116 -133 -53 -63
-106 -140 -125 -180 -19 -38 -47 -110 -64 -160 -20 -59 -34 -130 -42 -205 -6
-63 -8 -144 -5 -180 4 -36 11 -92 17 -125 6 -33 22 -89 35 -125 14 -36 37 -83
52 -104 15 -22 39 -48 54 -59 14 -11 43 -20 64 -21 21 0 39 4 41 11 3 7 -8 18
-24 24 -15 6 -36 18 -45 26 -10 9 -33 44 -52 77 -18 34 -44 102 -56 151 -18
73 -22 117 -21 232 0 78 5 163 11 188 6 26 21 72 34 103 13 32 31 80 40 108 9
29 36 80 60 114 24 34 72 91 107 127 35 36 72 69 81 74 10 5 18 21 18 34 0 14
-8 29 -19 35z"/>
</g>
</svg>
