<?xml version="1.0" standalone="no"?>
<!DOCTYPE svg PUBLIC "-//W3C//DTD SVG 20010904//EN"
 "http://www.w3.org/TR/2001/REC-SVG-20010904/DTD/svg10.dtd">
<svg version="1.0" xmlns="http://www.w3.org/2000/svg"
 width="155.000000pt" height="168.000000pt" viewBox="0 0 155.000000 168.000000"
 preserveAspectRatio="xMidYMid meet">
<metadata>
Created by potrace 1.16, written by Peter Selinger 2001-2019
</metadata>
<g transform="translate(0.000000,168.000000) scale(0.100000,-0.100000)"
fill="#000000" stroke="none">
<path d="M1161 1529 c-9 -1 -65 -12 -126 -25 -60 -13 -165 -27 -233 -31 -83
-4 -126 -10 -133 -20 -9 -10 -8 -17 1 -28 8 -10 31 -15 69 -15 31 0 127 12
214 26 87 15 161 24 164 21 3 -4 -2 -21 -10 -40 -9 -18 -23 -86 -32 -151 -8
-64 -15 -159 -15 -210 0 -51 -7 -212 -15 -357 -9 -145 -23 -313 -31 -374 -9
-60 -20 -118 -25 -127 -5 -9 -25 -20 -45 -24 -20 -4 -76 -4 -124 0 -48 4 -124
13 -168 21 -45 8 -93 21 -107 31 -19 12 -37 15 -72 10 -26 -3 -50 -12 -54 -18
-4 -7 -3 -18 3 -25 6 -7 27 -13 47 -13 20 0 99 -13 177 -29 98 -20 177 -30
263 -32 99 -3 124 -1 131 11 6 8 10 40 10 71 0 31 4 79 10 107 5 27 16 155 24
283 9 129 20 320 25 424 6 105 17 224 25 265 8 41 25 109 39 150 17 52 22 79
15 88 -6 6 -18 11 -27 11z"/>
</g>
</svg>
