<?xml version="1.0" standalone="no"?>
<!DOCTYPE svg PUBLIC "-//W3C//DTD SVG 20010904//EN"
 "http://www.w3.org/TR/2001/REC-SVG-20010904/DTD/svg10.dtd">
<svg version="1.0" xmlns="http://www.w3.org/2000/svg"
 width="154.000000pt" height="168.000000pt" viewBox="0 0 154.000000 168.000000"
 preserveAspectRatio="xMidYMid meet">
<metadata>
Created by potrace 1.16, written by Peter Selinger 2001-2019
</metadata>
<g transform="translate(0.000000,168.000000) scale(0.100000,-0.100000)"
fill="#000000" stroke="none">
<path d="M703 1359 c-32 -1 -72 -4 -89 -8 -17 -5 -57 -25 -88 -46 -34 -22 -64
-52 -73 -71 -9 -18 -13 -39 -10 -48 4 -9 13 -16 22 -16 8 0 15 4 15 10 0 5 16
28 36 50 23 25 56 47 91 60 31 12 73 20 92 18 29 -2 37 -8 39 -27 2 -13 -10
-51 -27 -85 -17 -33 -67 -106 -111 -161 -45 -55 -99 -126 -121 -159 -21 -32
-39 -63 -39 -70 0 -6 9 -25 19 -42 11 -18 40 -42 68 -55 42 -21 62 -24 159
-24 96 0 115 3 133 19 12 11 19 21 16 24 -3 3 -55 6 -117 7 -77 1 -124 6 -148
17 -19 8 -41 22 -49 31 -8 10 -11 27 -7 41 3 14 29 56 58 93 28 37 68 86 87
108 20 22 58 73 84 112 38 57 50 84 54 127 5 46 2 57 -16 75 -17 17 -32 21
-78 20z M660 460 c-15 0 -33 -7 -40 -15 -10 -12 -10 -21 -2 -40 6 -13 29 -33
51 -45 22 -11 47 -17 55 -14 10 4 16 19 16 39 0 24 -7 39 -26 54 -15 12 -39
21 -54 21z"/>
</g>
</svg>
