<?xml version="1.0" standalone="no"?>
<!DOCTYPE svg PUBLIC "-//W3C//DTD SVG 20010904//EN"
 "http://www.w3.org/TR/2001/REC-SVG-20010904/DTD/svg10.dtd">
<svg version="1.0" xmlns="http://www.w3.org/2000/svg"
 width="153.000000pt" height="168.000000pt" viewBox="0 0 153.000000 168.000000"
 preserveAspectRatio="xMidYMid meet">
<metadata>
Created by potrace 1.16, written by Peter Selinger 2001-2019
</metadata>
<g transform="translate(0.000000,168.000000) scale(0.100000,-0.100000)"
fill="#000000" stroke="none">
<path d="M849 418 c-43 3 -46 1 -67 -36 -16 -29 -19 -41 -10 -50 7 -7 26 -12
44 -12 20 0 34 -6 38 -16 3 -8 1 -35 -5 -60 -7 -28 -23 -54 -41 -69 -16 -14
-47 -28 -69 -31 -21 -4 -44 -13 -51 -21 -9 -11 -9 -17 3 -24 8 -6 36 -8 62 -6
34 3 58 13 84 34 20 16 46 47 57 69 13 24 22 63 24 104 2 40 -2 75 -10 90 -11
20 -22 26 -59 28z"/>
</g>
</svg>
