<?xml version="1.0" standalone="no"?>
<!DOCTYPE svg PUBLIC "-//W3C//DTD SVG 20010904//EN"
 "http://www.w3.org/TR/2001/REC-SVG-20010904/DTD/svg10.dtd">
<svg version="1.0" xmlns="http://www.w3.org/2000/svg"
 width="153.000000pt" height="166.000000pt" viewBox="0 0 153.000000 166.000000"
 preserveAspectRatio="xMidYMid meet">
<metadata>
Created by potrace 1.16, written by Peter Selinger 2001-2019
</metadata>
<g transform="translate(0.000000,166.000000) scale(0.100000,-0.100000)"
fill="#000000" stroke="none">
<path d="M842 1150 c-42 0 -72 -7 -110 -26 -31 -15 -64 -42 -82 -67 -24 -33
-30 -50 -28 -81 2 -22 8 -41 15 -43 6 -2 17 13 23 34 7 21 22 50 32 66 11 15
38 37 61 49 23 11 61 22 84 22 23 1 45 -3 49 -7 5 -4 10 -36 12 -70 3 -46 -2
-76 -18 -119 -11 -31 -43 -90 -69 -131 -27 -41 -81 -106 -120 -144 -39 -39
-71 -75 -71 -81 0 -5 7 -13 16 -16 9 -3 32 -6 52 -6 21 0 93 6 162 14 69 8
165 17 214 20 62 4 95 10 105 21 14 14 14 17 1 25 -8 5 -24 7 -35 5 -11 -3
-85 -9 -165 -15 -80 -5 -164 -10 -187 -10 -31 0 -43 4 -43 14 0 8 24 44 54 79
30 35 68 85 85 113 18 27 41 78 51 113 11 35 20 92 20 128 0 55 -4 67 -25 88
-20 21 -34 25 -83 25z"/>
</g>
</svg>
