<?xml version="1.0" standalone="no"?>
<!DOCTYPE svg PUBLIC "-//W3C//DTD SVG 20010904//EN"
 "http://www.w3.org/TR/2001/REC-SVG-20010904/DTD/svg10.dtd">
<svg version="1.0" xmlns="http://www.w3.org/2000/svg"
 width="154.000000pt" height="168.000000pt" viewBox="0 0 154.000000 168.000000"
 preserveAspectRatio="xMidYMid meet">
<metadata>
Created by potrace 1.16, written by Peter Selinger 2001-2019
</metadata>
<g transform="translate(0.000000,168.000000) scale(0.100000,-0.100000)"
fill="#000000" stroke="none">
<path d="M831 688 c-25 -1 -93 -4 -151 -7 -86 -5 -105 -9 -108 -22 -2 -9 4
-24 13 -33 13 -13 38 -16 120 -16 57 0 115 -4 129 -10 14 -5 32 -7 40 -4 8 3
16 15 19 26 3 11 1 31 -5 44 -10 21 -17 24 -57 22z"/>
</g>
</svg>
