<?xml version="1.0" standalone="no"?>
<!DOCTYPE svg PUBLIC "-//W3C//DTD SVG 20010904//EN"
 "http://www.w3.org/TR/2001/REC-SVG-20010904/DTD/svg10.dtd">
<svg version="1.0" xmlns="http://www.w3.org/2000/svg"
 width="153.000000pt" height="167.000000pt" viewBox="0 0 153.000000 167.000000"
 preserveAspectRatio="xMidYMid meet">
<metadata>
Created by potrace 1.16, written by Peter Selinger 2001-2019
</metadata>
<g transform="translate(0.000000,167.000000) scale(0.100000,-0.100000)"
fill="#000000" stroke="none">
<path d="M896 1479 c-28 0 -64 -5 -79 -9 -16 -5 -52 -26 -80 -48 -32 -23 -68
-65 -92 -103 -28 -46 -40 -77 -43 -116 -3 -30 1 -66 8 -83 7 -18 46 -55 101
-95 49 -36 100 -81 114 -99 14 -18 25 -44 25 -58 0 -13 -10 -34 -22 -46 -13
-11 -35 -25 -50 -31 -15 -6 -50 -7 -78 -4 -41 5 -50 3 -50 -10 0 -8 7 -18 16
-21 9 -3 40 -6 70 -6 35 0 69 7 94 20 22 11 47 34 56 52 10 20 14 43 10 66 -3
21 -19 50 -38 70 -18 19 -68 61 -110 93 -43 33 -82 68 -88 79 -5 10 -10 34
-10 52 0 18 11 56 24 84 13 29 41 70 61 92 20 23 56 50 80 62 35 17 53 20 94
14 33 -4 51 -3 51 4 0 6 -3 17 -6 26 -5 12 -19 16 -58 15z M735 937 c-22 2
-54 -3 -71 -11 -17 -7 -45 -33 -62 -57 -25 -33 -32 -53 -32 -88 0 -29 8 -58
24 -85 13 -23 65 -80 114 -127 52 -49 94 -97 98 -113 3 -14 1 -39 -5 -55 -7
-15 -29 -36 -49 -47 -30 -15 -60 -19 -157 -20 -97 0 -120 -3 -120 -15 0 -11
24 -15 120 -17 70 -2 137 2 162 9 23 6 52 23 66 38 13 14 28 43 31 64 5 25 2
48 -10 72 -9 19 -53 68 -99 110 -50 45 -92 93 -104 118 -12 24 -21 58 -21 75
0 23 10 43 33 69 26 28 44 38 78 42 30 4 44 11 44 21 0 10 -12 16 -40 17z"/>
</g>
</svg>
