<?xml version="1.0" standalone="no"?>
<!DOCTYPE svg PUBLIC "-//W3C//DTD SVG 20010904//EN"
 "http://www.w3.org/TR/2001/REC-SVG-20010904/DTD/svg10.dtd">
<svg version="1.0" xmlns="http://www.w3.org/2000/svg"
 width="154.000000pt" height="168.000000pt" viewBox="0 0 154.000000 168.000000"
 preserveAspectRatio="xMidYMid meet">
<metadata>
Created by potrace 1.16, written by Peter Selinger 2001-2019
</metadata>
<g transform="translate(0.000000,168.000000) scale(0.100000,-0.100000)"
fill="#000000" stroke="none">
<path d="M529 1606 c-9 3 -21 0 -25 -8 -5 -7 -10 -42 -11 -78 -1 -36 -4 -148
-6 -250 -3 -109 -14 -244 -26 -330 -16 -105 -23 -215 -27 -400 -2 -140 -6
-283 -9 -316 -4 -56 -2 -62 18 -71 14 -6 73 -7 162 -1 93 5 144 12 153 21 11
12 11 16 -1 25 -9 8 -24 9 -48 2 -18 -6 -70 -10 -115 -10 -55 0 -85 4 -92 13
-6 7 -16 71 -21 143 -7 86 -7 199 -1 339 5 119 18 262 30 330 11 66 24 199 29
295 5 96 12 183 16 193 7 17 15 18 64 12 30 -4 64 -9 76 -11 11 -2 67 -7 126
-11 72 -4 112 -2 127 6 12 6 22 18 22 26 0 8 -15 17 -36 21 -19 3 -51 4 -70 1
-20 -3 -75 -1 -122 4 -48 6 -112 20 -142 30 -30 11 -62 22 -71 25z"/>
</g>
</svg>
