<?xml version="1.0" standalone="no"?>
<!DOCTYPE svg PUBLIC "-//W3C//DTD SVG 20010904//EN"
 "http://www.w3.org/TR/2001/REC-SVG-20010904/DTD/svg10.dtd">
<svg version="1.0" xmlns="http://www.w3.org/2000/svg"
 width="156.000000pt" height="170.000000pt" viewBox="0 0 156.000000 170.000000"
 preserveAspectRatio="xMidYMid meet">
<metadata>
Created by potrace 1.16, written by Peter Selinger 2001-2019
</metadata>
<g transform="translate(0.000000,170.000000) scale(0.100000,-0.100000)"
fill="#000000" stroke="none">
<path d="M847 1119 c-7 -1 -37 -12 -67 -25 -35 -15 -66 -22 -84 -19 -16 3 -38
12 -47 21 -10 9 -26 14 -36 12 -10 -2 -19 -11 -21 -20 -2 -10 7 -28 20 -41 15
-15 42 -27 70 -31 30 -5 60 -2 88 8 24 8 46 13 50 11 3 -2 3 -41 -1 -86 -4
-45 -5 -88 -2 -95 3 -8 0 -94 -7 -191 -6 -98 -18 -216 -26 -263 -10 -57 -22
-92 -36 -107 -12 -13 -36 -25 -54 -29 -18 -3 -81 2 -141 11 -63 9 -118 24
-133 34 -14 9 -33 20 -42 24 -9 3 -22 -1 -28 -9 -10 -11 -9 -19 4 -39 10 -16
34 -30 69 -39 28 -9 97 -22 152 -31 59 -10 119 -13 145 -10 25 4 53 11 62 16
10 5 24 22 32 38 8 15 24 74 36 131 16 77 23 168 30 364 5 144 10 278 10 298
0 20 -7 44 -16 52 -8 9 -21 15 -27 15z"/>
</g>
</svg>
