<?xml version="1.0" standalone="no"?>
<!DOCTYPE svg PUBLIC "-//W3C//DTD SVG 20010904//EN"
 "http://www.w3.org/TR/2001/REC-SVG-20010904/DTD/svg10.dtd">
<svg version="1.0" xmlns="http://www.w3.org/2000/svg"
 width="156.000000pt" height="170.000000pt" viewBox="0 0 156.000000 170.000000"
 preserveAspectRatio="xMidYMid meet">
<metadata>
Created by potrace 1.16, written by Peter Selinger 2001-2019
</metadata>
<g transform="translate(0.000000,170.000000) scale(0.100000,-0.100000)"
fill="#000000" stroke="none">
<path d="M1115 1326 c-5 2 -17 -1 -26 -6 -9 -5 -39 -43 -67 -83 -28 -41 -69
-116 -92 -167 -23 -51 -55 -140 -71 -197 -17 -57 -39 -124 -49 -148 -14 -32
-25 -45 -39 -45 -11 0 -33 16 -49 36 -22 26 -34 57 -46 118 -9 46 -20 156 -25
245 -8 149 -11 164 -32 187 -12 13 -32 24 -44 24 -11 0 -26 -5 -33 -12 -7 -7
-12 -27 -12 -45 0 -18 -9 -75 -20 -126 -11 -50 -41 -178 -67 -283 -25 -106
-43 -199 -40 -208 4 -9 15 -16 26 -16 11 0 29 10 40 22 11 11 27 44 36 72 8
28 27 99 42 159 15 59 31 107 35 107 3 0 9 -26 13 -57 3 -32 15 -90 27 -130
15 -51 31 -82 57 -108 19 -21 46 -41 59 -46 13 -5 32 -9 42 -9 10 0 32 12 50
26 17 15 37 41 45 60 7 18 25 76 40 129 14 52 40 130 57 173 17 42 42 100 56
127 13 28 42 76 64 108 22 32 38 65 36 74 -2 9 -7 18 -13 19z"/>
</g>
</svg>
