<?xml version="1.0" standalone="no"?>
<!DOCTYPE svg PUBLIC "-//W3C//DTD SVG 20010904//EN"
 "http://www.w3.org/TR/2001/REC-SVG-20010904/DTD/svg10.dtd">
<svg version="1.0" xmlns="http://www.w3.org/2000/svg"
 width="152.000000pt" height="166.000000pt" viewBox="0 0 152.000000 166.000000"
 preserveAspectRatio="xMidYMid meet">
<metadata>
Created by potrace 1.16, written by Peter Selinger 2001-2019
</metadata>
<g transform="translate(0.000000,166.000000) scale(0.100000,-0.100000)"
fill="#000000" stroke="none">
<path d="M738 1158 c-12 2 -19 -5 -23 -25 -4 -15 -9 -34 -11 -41 -2 -7 1 -22
6 -33 6 -10 19 -19 30 -19 10 0 21 3 23 8 2 4 1 29 -2 57 -4 36 -11 51 -23 53z
M840 1150 c-5 0 -14 -9 -20 -21 -6 -11 -12 -34 -12 -50 -1 -17 4 -35 11 -42 9
-9 14 -8 21 3 5 8 10 36 10 63 0 26 -4 47 -10 47z M652 895 c-8 16 -13 13 -36
-21 -15 -21 -38 -75 -52 -118 -14 -44 -27 -99 -31 -121 -3 -24 0 -51 6 -64 7
-12 24 -26 37 -32 20 -7 36 -5 67 10 23 10 55 32 71 50 17 17 36 31 44 31 8 0
25 -9 39 -20 14 -11 40 -22 58 -26 18 -3 42 -1 54 5 12 7 21 16 21 22 0 7 -12
8 -30 4 -21 -5 -39 -2 -55 9 -19 12 -25 25 -25 51 0 19 11 64 25 101 14 36 25
75 25 85 0 10 -4 20 -9 23 -5 4 -15 4 -23 1 -7 -3 -23 -34 -36 -68 -13 -34
-29 -75 -36 -92 -8 -16 -31 -49 -51 -73 -20 -23 -54 -51 -75 -62 -28 -14 -40
-16 -49 -7 -6 6 -11 26 -11 45 0 19 16 69 35 112 19 43 38 91 41 108 3 16 2
38 -4 47z"/>
</g>
</svg>
