<?xml version="1.0" standalone="no"?>
<!DOCTYPE svg PUBLIC "-//W3C//DTD SVG 20010904//EN"
 "http://www.w3.org/TR/2001/REC-SVG-20010904/DTD/svg10.dtd">
<svg version="1.0" xmlns="http://www.w3.org/2000/svg"
 width="164.000000pt" height="178.000000pt" viewBox="0 0 164.000000 178.000000"
 preserveAspectRatio="xMidYMid meet">
<metadata>
Created by potrace 1.16, written by Peter Selinger 2001-2019
</metadata>
<g transform="translate(0.000000,178.000000) scale(0.100000,-0.100000)"
fill="#000000" stroke="none">
<path d="M756 1730 c-7 0 -25 -9 -40 -21 -14 -11 -46 -52 -71 -90 -25 -38 -45
-73 -45 -77 0 -4 -16 -20 -35 -35 -25 -20 -35 -36 -35 -56 0 -16 9 -40 20 -54
11 -14 29 -29 40 -32 11 -3 30 -1 42 6 13 7 26 17 30 23 4 6 8 34 8 61 0 35 9
65 28 100 15 28 39 56 55 63 16 8 33 24 39 37 9 19 7 30 -6 50 -9 14 -23 25
-30 25z M1028 1728 c-33 3 -42 -2 -83 -45 -28 -29 -66 -88 -97 -150 -49 -99
-50 -103 -34 -128 9 -14 24 -25 34 -25 9 0 38 10 64 22 30 15 47 30 48 41 0
10 -7 29 -16 43 -16 23 -16 27 1 64 10 21 42 62 72 91 31 29 53 59 51 68 -2
11 -16 17 -40 19z"/>
</g>
</svg>
