<?xml version="1.0" standalone="no"?>
<!DOCTYPE svg PUBLIC "-//W3C//DTD SVG 20010904//EN"
 "http://www.w3.org/TR/2001/REC-SVG-20010904/DTD/svg10.dtd">
<svg version="1.0" xmlns="http://www.w3.org/2000/svg"
 width="164.000000pt" height="177.000000pt" viewBox="0 0 164.000000 177.000000"
 preserveAspectRatio="xMidYMid meet">
<metadata>
Created by potrace 1.16, written by Peter Selinger 2001-2019
</metadata>
<g transform="translate(0.000000,177.000000) scale(0.100000,-0.100000)"
fill="#000000" stroke="none">
<path d="M866 1148 c-17 0 -94 -34 -171 -74 -77 -40 -183 -91 -235 -113 -52
-23 -105 -41 -116 -41 -12 0 -27 -6 -33 -14 -6 -7 -9 -20 -6 -28 4 -9 17 -20
31 -27 14 -6 33 -11 42 -11 9 0 37 -10 62 -21 25 -11 95 -51 156 -90 61 -38
120 -69 132 -69 15 0 24 8 28 24 3 14 3 29 0 35 -3 5 -34 25 -69 44 -34 20
-86 54 -115 77 -28 23 -52 45 -52 50 0 4 17 18 38 31 20 12 71 39 112 60 41
20 95 44 120 52 25 8 63 23 83 33 20 10 39 26 43 36 3 11 0 25 -6 33 -7 8 -27
14 -44 13z M1126 1090 c-11 -1 -48 -11 -82 -24 -33 -13 -80 -34 -105 -46 -24
-13 -62 -35 -84 -50 -23 -16 -60 -33 -83 -39 -37 -10 -42 -15 -42 -41 0 -23 9
-35 45 -60 25 -17 78 -47 119 -66 40 -19 89 -37 109 -41 29 -4 38 -2 43 12 4
10 3 25 -3 34 -6 9 -30 28 -55 42 -25 15 -59 30 -76 34 -17 3 -36 13 -43 21
-9 11 -9 17 0 28 6 8 49 32 94 55 45 23 111 47 146 54 41 8 68 19 75 30 9 15
6 22 -13 38 -13 10 -33 19 -45 19z"/>
</g>
</svg>
