<?xml version="1.0" standalone="no"?>
<!DOCTYPE svg PUBLIC "-//W3C//DTD SVG 20010904//EN"
 "http://www.w3.org/TR/2001/REC-SVG-20010904/DTD/svg10.dtd">
<svg version="1.0" xmlns="http://www.w3.org/2000/svg"
 width="152.000000pt" height="167.000000pt" viewBox="0 0 152.000000 167.000000"
 preserveAspectRatio="xMidYMid meet">
<metadata>
Created by potrace 1.16, written by Peter Selinger 2001-2019
</metadata>
<g transform="translate(0.000000,167.000000) scale(0.100000,-0.100000)"
fill="#000000" stroke="none">
<path d="M731 1010 c-9 -1 -33 -7 -55 -15 -21 -7 -54 -28 -73 -47 -19 -18 -48
-53 -64 -77 -24 -37 -29 -54 -28 -97 1 -28 -1 -56 -5 -62 -3 -6 -1 -14 6 -18
6 -4 31 -7 55 -5 26 1 43 -2 43 -9 0 -6 -9 -28 -20 -50 -11 -22 -20 -51 -20
-64 0 -18 9 -30 32 -42 27 -14 41 -15 99 -5 37 6 92 20 122 32 31 12 58 28 62
37 3 8 1 20 -5 26 -7 7 -27 3 -62 -12 -29 -12 -75 -26 -102 -31 -27 -5 -55 -7
-63 -4 -7 3 -13 14 -13 25 0 10 6 31 14 46 8 15 25 37 38 49 14 14 47 27 79
33 30 5 70 12 90 15 21 3 43 12 50 21 10 12 10 18 -2 28 -11 11 -28 12 -82 3
-37 -6 -69 -8 -72 -6 -2 3 5 34 16 69 12 38 18 77 15 94 -4 16 -14 38 -23 48
-9 10 -23 18 -32 18z m-22 -62 c9 -2 17 -15 19 -29 2 -14 -8 -50 -21 -80 -13
-30 -32 -62 -41 -72 -12 -12 -33 -17 -68 -17 -50 0 -50 0 -43 28 3 15 18 46
31 70 14 24 44 56 67 73 22 16 48 28 56 27z"/>
</g>
</svg>
