<?xml version="1.0" standalone="no"?>
<!DOCTYPE svg PUBLIC "-//W3C//DTD SVG 20010904//EN"
 "http://www.w3.org/TR/2001/REC-SVG-20010904/DTD/svg10.dtd">
<svg version="1.0" xmlns="http://www.w3.org/2000/svg"
 width="156.000000pt" height="171.000000pt" viewBox="0 0 156.000000 171.000000"
 preserveAspectRatio="xMidYMid meet">
<metadata>
Created by potrace 1.16, written by Peter Selinger 2001-2019
</metadata>
<g transform="translate(0.000000,171.000000) scale(0.100000,-0.100000)"
fill="#000000" stroke="none">
<path d="M888 1119 c-35 0 -84 -7 -110 -15 -27 -8 -76 -31 -110 -51 -33 -20
-102 -77 -153 -127 -56 -56 -107 -118 -132 -161 -23 -38 -46 -87 -53 -108 -7
-21 -9 -54 -6 -72 5 -23 19 -43 44 -63 20 -16 48 -35 62 -42 14 -8 71 -15 130
-18 64 -3 155 2 235 12 72 9 163 21 203 26 40 5 77 12 82 15 5 3 7 12 4 20 -3
7 -12 16 -20 19 -7 3 -85 -4 -171 -16 -87 -11 -215 -21 -285 -22 -125 -1 -127
-1 -170 29 -34 24 -44 38 -46 64 -2 21 6 53 25 89 15 31 48 82 73 112 25 31
72 81 105 111 33 30 74 64 90 75 17 12 58 31 93 43 34 11 79 21 100 21 21 0
43 -5 50 -12 7 -7 12 -20 12 -30 0 -10 -18 -31 -41 -47 -23 -17 -65 -35 -97
-41 -31 -7 -63 -15 -71 -19 -8 -4 -17 -13 -19 -19 -2 -6 8 -14 23 -18 14 -4
51 -2 80 4 30 6 74 20 97 31 24 10 53 30 65 43 12 13 25 42 29 65 6 38 3 45
-24 73 -28 27 -36 30 -94 29z"/>
</g>
</svg>
