<?xml version="1.0" standalone="no"?>
<!DOCTYPE svg PUBLIC "-//W3C//DTD SVG 20010904//EN"
 "http://www.w3.org/TR/2001/REC-SVG-20010904/DTD/svg10.dtd">
<svg version="1.0" xmlns="http://www.w3.org/2000/svg"
 width="165.000000pt" height="180.000000pt" viewBox="0 0 165.000000 180.000000"
 preserveAspectRatio="xMidYMid meet">
<metadata>
Created by potrace 1.16, written by Peter Selinger 2001-2019
</metadata>
<g transform="translate(0.000000,180.000000) scale(0.100000,-0.100000)"
fill="#000000" stroke="none">
<path d="M1061 1361 c-19 23 -19 23 -70 -28 -28 -28 -60 -73 -72 -100 -12 -26
-32 -86 -44 -133 -13 -47 -29 -129 -36 -183 -10 -84 -14 -97 -28 -91 -9 3 -28
11 -43 17 -19 8 -41 7 -82 -2 -47 -10 -62 -20 -104 -66 -27 -29 -57 -70 -67
-91 -10 -21 -20 -56 -22 -79 -3 -26 2 -52 14 -74 10 -19 30 -43 45 -54 14 -11
49 -22 76 -25 32 -3 69 2 103 13 42 14 68 33 116 82 62 64 62 64 95 46 24 -12
63 -18 139 -21 84 -3 112 -1 137 12 18 9 32 23 32 31 0 7 -8 16 -17 19 -10 3
-44 2 -77 -3 -32 -4 -77 -4 -100 0 -22 4 -53 12 -69 18 -15 6 -30 18 -33 26
-4 9 5 49 20 90 14 40 40 129 56 197 16 69 34 164 40 214 5 49 10 105 10 125
0 21 -8 47 -19 60z m-49 -111 c4 0 8 -10 8 -22 0 -12 -5 -49 -11 -82 -7 -34
-29 -126 -51 -206 -21 -80 -44 -149 -50 -155 -7 -7 -9 16 -4 80 3 50 15 127
25 173 10 45 31 112 46 147 16 36 32 65 37 65z m-280 -470 c28 0 41 -6 53 -23
11 -18 14 -42 10 -101 -2 -42 -7 -82 -11 -88 -4 -5 -25 -19 -48 -29 -22 -10
-62 -19 -88 -19 -37 0 -50 5 -62 22 -9 12 -16 37 -16 56 0 18 11 55 25 82 14
28 41 60 62 75 24 16 51 25 75 25z"/>
</g>
</svg>
