<?xml version="1.0" standalone="no"?>
<!DOCTYPE svg PUBLIC "-//W3C//DTD SVG 20010904//EN"
 "http://www.w3.org/TR/2001/REC-SVG-20010904/DTD/svg10.dtd">
<svg version="1.0" xmlns="http://www.w3.org/2000/svg"
 width="152.000000pt" height="166.000000pt" viewBox="0 0 152.000000 166.000000"
 preserveAspectRatio="xMidYMid meet">
<metadata>
Created by potrace 1.16, written by Peter Selinger 2001-2019
</metadata>
<g transform="translate(0.000000,166.000000) scale(0.100000,-0.100000)"
fill="#000000" stroke="none">
<path d="M887 1236 c-29 2 -68 -2 -87 -9 -20 -7 -50 -22 -68 -35 -17 -13 -45
-42 -60 -65 -16 -23 -41 -78 -55 -122 -15 -44 -29 -101 -32 -127 -6 -44 -10
-50 -63 -85 -37 -24 -58 -46 -60 -60 -2 -13 0 -23 3 -23 4 0 25 14 46 31 25
19 46 29 56 25 14 -6 15 -21 10 -134 -4 -70 -10 -169 -14 -220 l-6 -94 24 4
c21 3 25 10 31 58 3 30 9 150 13 265 3 116 13 245 21 289 8 43 25 99 37 124
11 26 38 63 59 84 22 22 50 43 64 48 14 6 45 10 69 10 35 0 45 -4 50 -21 4
-13 -3 -40 -19 -73 -14 -29 -26 -60 -26 -68 0 -8 14 -34 30 -57 17 -23 33 -54
36 -70 4 -16 0 -40 -9 -57 -8 -16 -38 -51 -66 -77 -28 -27 -51 -53 -51 -58 0
-5 6 -9 14 -9 7 0 32 15 56 34 23 18 56 53 71 76 17 25 29 56 29 75 0 17 -13
52 -30 78 -16 26 -30 58 -30 70 0 12 9 36 20 52 12 18 20 47 20 71 0 26 -6 47
-16 55 -8 7 -39 14 -67 15z"/>
</g>
</svg>
