<?xml version="1.0" standalone="no"?>
<!DOCTYPE svg PUBLIC "-//W3C//DTD SVG 20010904//EN"
 "http://www.w3.org/TR/2001/REC-SVG-20010904/DTD/svg10.dtd">
<svg version="1.0" xmlns="http://www.w3.org/2000/svg"
 width="158.000000pt" height="174.000000pt" viewBox="0 0 158.000000 174.000000"
 preserveAspectRatio="xMidYMid meet">
<metadata>
Created by potrace 1.16, written by Peter Selinger 2001-2019
</metadata>
<g transform="translate(0.000000,174.000000) scale(0.100000,-0.100000)"
fill="#000000" stroke="none">
<path d="M455 897 c-11 2 -37 -11 -57 -28 -21 -17 -60 -58 -87 -93 -27 -34
-57 -78 -67 -98 -9 -20 -14 -43 -11 -52 4 -9 11 -16 16 -16 6 0 37 35 69 78
33 42 69 86 81 96 21 19 21 19 21 -6 0 -14 -5 -72 -11 -129 -5 -57 -8 -113 -4
-126 4 -16 13 -23 29 -23 13 0 35 9 49 20 14 11 42 47 61 79 20 32 43 65 53
72 15 13 16 10 11 -36 -4 -27 -2 -58 3 -67 6 -10 21 -18 36 -18 20 0 39 14 72
52 25 29 77 84 116 123 l70 70 7 -110 c4 -60 11 -128 17 -149 5 -21 16 -43 23
-47 7 -5 16 -9 20 -9 4 0 11 7 16 17 6 10 6 29 1 47 -5 17 -9 90 -9 163 0 109
-3 134 -16 148 -12 11 -25 14 -43 10 -14 -4 -49 -24 -78 -45 -28 -22 -71 -62
-95 -90 -24 -27 -46 -50 -50 -50 -4 0 -8 25 -10 56 -2 45 -7 60 -25 71 -20 14
-25 11 -77 -44 -30 -32 -63 -75 -73 -95 -10 -21 -21 -38 -25 -38 -5 0 -8 16
-8 36 0 19 5 66 11 104 8 55 8 75 -3 97 -7 15 -22 29 -33 30z"/>
</g>
</svg>
