<?xml version="1.0" standalone="no"?>
<!DOCTYPE svg PUBLIC "-//W3C//DTD SVG 20010904//EN"
 "http://www.w3.org/TR/2001/REC-SVG-20010904/DTD/svg10.dtd">
<svg version="1.0" xmlns="http://www.w3.org/2000/svg"
 width="156.000000pt" height="171.000000pt" viewBox="0 0 156.000000 171.000000"
 preserveAspectRatio="xMidYMid meet">
<metadata>
Created by potrace 1.16, written by Peter Selinger 2001-2019
</metadata>
<g transform="translate(0.000000,171.000000) scale(0.100000,-0.100000)"
fill="#000000" stroke="none">
<path d="M866 1287 c-40 1 -90 -4 -114 -12 -23 -7 -68 -32 -100 -55 -32 -22
-76 -66 -99 -98 -22 -31 -52 -81 -67 -109 -14 -29 -33 -81 -41 -115 -8 -35
-15 -99 -15 -143 0 -44 5 -98 11 -120 7 -26 28 -57 59 -87 28 -27 65 -51 87
-57 21 -6 65 -11 98 -11 33 1 78 7 100 15 22 8 47 15 56 15 9 0 26 -15 39 -33
12 -17 41 -47 65 -65 23 -17 57 -39 75 -48 27 -14 51 -16 131 -10 54 3 110 11
124 16 15 6 25 16 22 23 -3 8 -36 12 -118 12 -63 0 -125 5 -139 12 -14 6 -46
33 -73 61 -28 30 -47 61 -47 74 0 13 14 36 31 52 17 17 42 46 54 65 13 20 36
73 50 119 24 73 26 95 23 195 -3 101 -6 118 -34 178 -21 43 -45 76 -69 95 -33
25 -48 29 -109 31z m18 -67 c12 0 26 -4 33 -8 6 -4 16 -19 22 -33 6 -18 6 -33
-2 -50 -7 -13 -34 -37 -61 -54 -41 -25 -62 -30 -125 -33 -42 -2 -80 -8 -86
-13 -6 -7 -5 -13 5 -19 8 -5 36 -12 62 -15 28 -4 70 -2 99 5 27 7 77 30 110
52 36 24 64 37 69 32 5 -5 12 -41 16 -79 4 -48 1 -90 -9 -135 -9 -36 -29 -94
-45 -130 -17 -36 -44 -78 -61 -94 -31 -29 -31 -29 -46 8 -9 21 -24 59 -33 84
-11 29 -25 48 -36 50 -10 2 -23 -1 -28 -6 -7 -7 -6 -23 2 -49 7 -21 21 -61 31
-88 10 -28 19 -56 19 -63 0 -6 -16 -19 -36 -27 -20 -8 -63 -15 -96 -15 -38 0
-72 7 -96 19 -20 10 -45 28 -55 39 -11 11 -25 38 -33 59 -7 21 -13 67 -13 103
-1 36 5 88 13 115 7 28 23 72 34 99 12 26 42 77 68 112 31 44 62 74 97 94 29
16 58 30 65 30 6 0 12 -9 12 -20 0 -11 4 -20 8 -20 4 0 23 11 42 25 19 14 43
25 54 25z"/>
</g>
</svg>
