<?xml version="1.0" standalone="no"?>
<!DOCTYPE svg PUBLIC "-//W3C//DTD SVG 20010904//EN"
 "http://www.w3.org/TR/2001/REC-SVG-20010904/DTD/svg10.dtd">
<svg version="1.0" xmlns="http://www.w3.org/2000/svg"
 width="157.000000pt" height="173.000000pt" viewBox="0 0 157.000000 173.000000"
 preserveAspectRatio="xMidYMid meet">
<metadata>
Created by potrace 1.16, written by Peter Selinger 2001-2019
</metadata>
<g transform="translate(0.000000,173.000000) scale(0.100000,-0.100000)"
fill="#000000" stroke="none">
<path d="M871 1159 c-25 0 -71 -8 -102 -18 -31 -10 -78 -33 -105 -51 -27 -19
-81 -66 -121 -105 -47 -47 -81 -91 -98 -127 -14 -30 -29 -79 -35 -109 -7 -38
-7 -70 0 -106 7 -34 19 -58 33 -68 12 -8 39 -15 60 -15 20 0 53 6 71 14 19 8
67 37 107 65 45 32 83 51 100 51 24 0 30 -7 48 -55 12 -31 21 -61 21 -68 0 -7
-27 -39 -61 -72 -33 -33 -81 -86 -105 -117 -25 -32 -52 -74 -60 -94 -8 -20
-14 -52 -12 -72 2 -29 11 -43 48 -70 41 -31 49 -34 102 -30 47 3 64 10 88 33
16 16 39 54 51 84 16 42 22 88 26 186 6 130 6 130 52 175 26 25 93 75 150 110
57 36 109 73 115 82 6 9 7 21 2 25 -4 4 -37 -8 -73 -27 -37 -19 -109 -63 -161
-98 -52 -35 -98 -60 -102 -55 -4 4 -15 30 -25 56 -10 27 -29 56 -42 64 -16 11
-36 14 -65 10 -27 -4 -66 -23 -114 -57 -41 -28 -89 -57 -109 -65 -19 -8 -39
-15 -44 -15 -5 0 -17 7 -25 16 -10 10 -16 33 -16 65 0 29 9 72 22 102 12 29
37 73 55 99 19 26 62 70 97 97 35 28 85 60 111 71 26 11 61 21 79 23 29 2 31
0 34 -35 2 -24 8 -38 17 -38 7 0 23 11 34 25 11 14 23 40 26 57 6 24 3 35 -11
45 -10 7 -38 13 -63 12z m-9 -685 c6 -4 7 -34 3 -78 -3 -39 -14 -97 -22 -129
-11 -39 -25 -65 -45 -82 -16 -14 -35 -25 -41 -25 -7 0 -27 9 -44 20 -27 16
-33 26 -33 53 0 21 12 52 32 82 18 26 56 74 86 107 30 32 59 55 64 52z"/>
</g>
</svg>
