<?xml version="1.0" standalone="no"?>
<!DOCTYPE svg PUBLIC "-//W3C//DTD SVG 20010904//EN"
 "http://www.w3.org/TR/2001/REC-SVG-20010904/DTD/svg10.dtd">
<svg version="1.0" xmlns="http://www.w3.org/2000/svg"
 width="165.000000pt" height="180.000000pt" viewBox="0 0 165.000000 180.000000"
 preserveAspectRatio="xMidYMid meet">
<metadata>
Created by potrace 1.16, written by Peter Selinger 2001-2019
</metadata>
<g transform="translate(0.000000,180.000000) scale(0.100000,-0.100000)"
fill="#000000" stroke="none">
<path d="M606 870 c-7 0 -64 -45 -128 -100 -64 -54 -125 -111 -136 -125 -12
-15 -18 -33 -15 -41 3 -8 14 -14 25 -14 12 0 66 40 124 90 56 50 105 90 108
90 3 0 6 -11 6 -24 0 -14 -5 -48 -11 -78 -5 -29 -15 -75 -21 -101 -9 -41 -8
-52 5 -65 13 -12 21 -13 41 -4 13 6 48 43 77 81 29 39 57 71 62 71 5 0 6 -13
2 -29 -3 -16 -6 -47 -7 -69 0 -22 3 -45 6 -51 4 -6 18 -11 31 -11 17 0 37 16
67 52 24 29 63 71 88 95 24 24 49 42 54 40 6 -2 13 -14 17 -28 4 -13 7 -50 8
-81 1 -31 6 -69 13 -83 9 -21 18 -25 42 -23 28 3 31 6 28 33 -1 17 -6 71 -10
121 -5 58 -14 101 -25 118 -10 14 -28 28 -41 32 -13 3 -35 0 -48 -7 -12 -7
-48 -36 -79 -66 -56 -54 -56 -54 -61 -8 -3 25 -14 55 -23 65 -10 11 -24 20
-32 20 -8 0 -38 -22 -66 -49 -52 -49 -52 -49 -49 23 3 61 0 76 -18 99 -12 15
-27 27 -34 27z"/>
</g>
</svg>
