<?xml version="1.0" standalone="no"?>
<!DOCTYPE svg PUBLIC "-//W3C//DTD SVG 20010904//EN"
 "http://www.w3.org/TR/2001/REC-SVG-20010904/DTD/svg10.dtd">
<svg version="1.0" xmlns="http://www.w3.org/2000/svg"
 width="155.000000pt" height="171.000000pt" viewBox="0 0 155.000000 171.000000"
 preserveAspectRatio="xMidYMid meet">
<metadata>
Created by potrace 1.16, written by Peter Selinger 2001-2019
</metadata>
<g transform="translate(0.000000,171.000000) scale(0.100000,-0.100000)"
fill="#000000" stroke="none">
<path d="M730 1389 c-19 0 -59 -7 -88 -15 -29 -7 -66 -21 -83 -30 -17 -8 -53
-38 -80 -66 -30 -31 -56 -70 -69 -106 -12 -31 -24 -83 -27 -116 -3 -34 0 -95
6 -136 6 -41 18 -95 26 -120 10 -27 37 -68 70 -104 46 -48 58 -56 70 -46 11 9
15 35 15 105 0 52 2 99 5 107 4 9 28 13 85 13 80 0 80 0 197 -116 65 -63 146
-139 179 -167 34 -29 71 -52 82 -52 12 0 24 5 27 10 3 6 4 18 1 28 -3 9 -23
28 -43 42 -20 14 -98 84 -172 157 -135 132 -135 132 -79 185 35 34 60 67 68
92 7 23 11 66 8 106 -4 48 -13 82 -34 120 -21 39 -41 59 -79 81 -30 17 -64 29
-85 28z m6 -60 c12 0 39 -12 61 -28 27 -20 47 -45 58 -75 12 -31 16 -63 13
-101 -3 -41 -13 -67 -34 -96 -16 -23 -41 -48 -55 -57 -27 -15 -28 -15 -76 35
-30 31 -60 52 -81 56 -32 7 -32 7 -32 96 0 49 4 101 9 114 5 13 22 29 38 35
15 6 39 13 53 15 14 2 34 5 46 6z m-208 -179 c2 -47 -2 -109 -8 -138 -6 -29
-9 -70 -6 -90 4 -20 3 -57 -2 -82 -8 -45 -8 -45 -24 -20 -9 14 -22 54 -27 90
-6 36 -11 87 -11 113 0 27 7 73 16 102 8 30 25 66 37 82 22 28 22 28 25 -57z
m104 -168 c17 -9 34 -25 39 -34 8 -16 5 -18 -25 -18 -19 0 -41 3 -50 6 -9 3
-16 14 -16 23 0 9 5 22 12 29 8 8 18 7 40 -6z"/>
</g>
</svg>
