<?xml version="1.0" standalone="no"?>
<!DOCTYPE svg PUBLIC "-//W3C//DTD SVG 20010904//EN"
 "http://www.w3.org/TR/2001/REC-SVG-20010904/DTD/svg10.dtd">
<svg version="1.0" xmlns="http://www.w3.org/2000/svg"
 width="163.000000pt" height="179.000000pt" viewBox="0 0 163.000000 179.000000"
 preserveAspectRatio="xMidYMid meet">
<metadata>
Created by potrace 1.16, written by Peter Selinger 2001-2019
</metadata>
<g transform="translate(0.000000,179.000000) scale(0.100000,-0.100000)"
fill="#000000" stroke="none">
<path d="M896 1440 c-27 0 -64 -12 -108 -34 -37 -18 -96 -54 -131 -79 -36 -26
-82 -68 -104 -94 -22 -26 -57 -78 -79 -114 -21 -37 -47 -81 -56 -98 -17 -30
-18 -31 -93 -31 -61 0 -77 -3 -82 -16 -4 -11 1 -22 12 -30 10 -8 43 -14 72
-14 l53 0 0 -32 c0 -18 -4 -39 -8 -45 -4 -7 -44 -18 -87 -24 -44 -7 -87 -18
-95 -25 -11 -11 -11 -17 -2 -26 7 -7 36 -11 69 -10 32 2 70 5 85 8 26 5 27 3
33 -51 4 -30 17 -70 29 -87 11 -18 37 -41 56 -52 28 -16 52 -20 130 -21 52 0
147 8 210 19 63 10 139 22 167 28 29 5 55 13 57 17 3 4 1 12 -3 19 -5 9 -44 7
-167 -8 -87 -11 -197 -19 -244 -19 -47 1 -96 4 -109 8 -13 3 -33 19 -44 34
-14 17 -21 43 -21 74 -1 44 1 47 31 55 17 4 118 19 223 32 105 13 197 30 205
36 8 7 15 18 15 26 0 7 -5 25 -12 39 -6 14 -19 25 -28 25 -9 0 -22 -11 -28
-24 -6 -14 -22 -26 -39 -30 -15 -3 -93 -13 -173 -22 -80 -9 -156 -17 -170 -18
-22 -1 -25 3 -22 29 2 16 8 35 13 41 6 7 42 19 82 28 40 8 125 25 189 36 64
11 134 20 155 20 22 0 44 5 51 12 7 7 12 17 12 24 0 6 -7 15 -15 18 -9 3 -51
1 -93 -4 -42 -6 -137 -20 -210 -31 -73 -12 -135 -19 -138 -16 -3 3 6 27 20 54
13 26 45 76 70 109 32 45 69 78 136 123 81 54 97 61 140 61 27 0 60 5 74 11
14 7 27 18 31 27 3 8 0 21 -6 28 -6 8 -30 14 -53 14z"/>
</g>
</svg>
