<?xml version="1.0" standalone="no"?>
<!DOCTYPE svg PUBLIC "-//W3C//DTD SVG 20010904//EN"
 "http://www.w3.org/TR/2001/REC-SVG-20010904/DTD/svg10.dtd">
<svg version="1.0" xmlns="http://www.w3.org/2000/svg"
 width="164.000000pt" height="178.000000pt" viewBox="0 0 164.000000 178.000000"
 preserveAspectRatio="xMidYMid meet">
<metadata>
Created by potrace 1.16, written by Peter Selinger 2001-2019
</metadata>
<g transform="translate(0.000000,178.000000) scale(0.100000,-0.100000)"
fill="#000000" stroke="none">
<path d="M620 1349 c-8 -1 -29 -4 -46 -9 -18 -4 -48 -17 -68 -29 -19 -12 -49
-39 -66 -61 -16 -21 -43 -67 -60 -102 -16 -34 -36 -90 -45 -123 -10 -40 -15
-106 -15 -202 0 -101 4 -154 14 -178 8 -18 26 -41 39 -50 16 -10 46 -16 79
-16 30 0 71 8 93 18 23 10 64 35 93 56 l52 39 47 -16 c27 -8 75 -20 107 -26
36 -8 91 -10 140 -6 l81 7 29 -56 c16 -32 40 -62 53 -68 16 -7 38 -7 76 2 40
9 69 25 127 74 41 35 76 70 78 80 2 12 -3 17 -17 17 -12 0 -38 -15 -58 -34
-21 -18 -56 -45 -77 -60 -22 -15 -53 -26 -71 -26 -30 0 -33 3 -39 35 -4 20 -4
46 0 58 3 12 17 34 31 48 13 15 29 44 34 65 4 22 9 60 9 85 0 25 -6 54 -14 65
-12 15 -19 17 -33 8 -10 -6 -23 -22 -30 -35 -6 -13 -20 -58 -31 -99 -11 -41
-24 -76 -30 -78 -6 -2 -14 7 -17 20 -3 13 -9 47 -13 77 -4 34 -13 58 -24 65
-11 7 -21 7 -26 1 -6 -6 -6 -44 0 -94 5 -46 6 -86 3 -90 -4 -3 -44 -6 -90 -6
-79 0 -85 2 -114 29 -22 21 -31 39 -31 62 0 17 11 56 24 85 13 30 33 99 45
154 12 55 26 138 31 184 6 54 6 91 -1 103 -5 10 -18 18 -29 18 -10 0 -32 -14
-49 -31 -17 -17 -31 -36 -31 -42 0 -6 -17 6 -38 26 -21 21 -54 42 -73 47 -18
6 -41 10 -49 9z m-4 -59 c30 0 48 -6 65 -24 14 -13 33 -47 43 -75 11 -32 15
-61 11 -80 -4 -17 -15 -33 -26 -36 -10 -4 -19 -12 -19 -19 0 -8 7 -19 15 -26
12 -10 15 -36 15 -116 0 -82 -3 -104 -14 -104 -7 0 -19 13 -26 30 -8 18 -11
61 -9 112 3 68 1 83 -11 86 -9 1 -24 -4 -34 -11 -15 -11 -20 -31 -23 -88 -5
-64 -2 -82 21 -133 14 -32 26 -64 26 -71 0 -6 -20 -26 -45 -44 -24 -17 -60
-38 -79 -46 -20 -8 -49 -15 -66 -15 -17 0 -40 4 -50 10 -11 6 -23 30 -29 60
-6 28 -11 92 -11 143 1 51 7 120 14 153 7 34 27 93 45 130 18 38 44 82 59 98
15 16 41 37 57 47 17 11 48 19 71 19z m216 -90 c5 0 6 -17 3 -37 -4 -21 -10
-49 -15 -63 -4 -14 -14 -52 -21 -85 -12 -52 -14 -55 -17 -28 -2 18 2 41 7 52
6 11 11 31 11 46 0 14 5 46 11 71 6 24 16 44 21 44z"/>
</g>
</svg>
