<?xml version="1.0" standalone="no"?>
<!DOCTYPE svg PUBLIC "-//W3C//DTD SVG 20010904//EN"
 "http://www.w3.org/TR/2001/REC-SVG-20010904/DTD/svg10.dtd">
<svg version="1.0" xmlns="http://www.w3.org/2000/svg"
 width="155.000000pt" height="168.000000pt" viewBox="0 0 155.000000 168.000000"
 preserveAspectRatio="xMidYMid meet">
<metadata>
Created by potrace 1.16, written by Peter Selinger 2001-2019
</metadata>
<g transform="translate(0.000000,168.000000) scale(0.100000,-0.100000)"
fill="#000000" stroke="none">
<path d="M791 1260 c-5 0 -13 -6 -19 -12 -5 -7 -18 -60 -27 -117 -10 -57 -18
-151 -19 -207 -1 -94 1 -105 21 -125 13 -14 28 -19 38 -15 13 4 15 12 10 29
-4 12 -11 43 -17 69 -8 36 -7 81 6 185 9 76 16 150 16 166 0 15 -4 27 -9 27z
M763 502 c-10 2 -25 2 -35 0 -9 -1 -22 -17 -29 -34 -11 -27 -10 -32 6 -44 10
-8 27 -14 36 -14 10 0 27 12 38 26 15 19 18 31 11 44 -5 10 -17 19 -27 22z"/>
</g>
</svg>
