<?xml version="1.0" standalone="no"?>
<!DOCTYPE svg PUBLIC "-//W3C//DTD SVG 20010904//EN"
 "http://www.w3.org/TR/2001/REC-SVG-20010904/DTD/svg10.dtd">
<svg version="1.0" xmlns="http://www.w3.org/2000/svg"
 width="153.000000pt" height="167.000000pt" viewBox="0 0 153.000000 167.000000"
 preserveAspectRatio="xMidYMid meet">
<metadata>
Created by potrace 1.16, written by Peter Selinger 2001-2019
</metadata>
<g transform="translate(0.000000,167.000000) scale(0.100000,-0.100000)"
fill="#000000" stroke="none">
<path d="M789 1020 c-10 0 -20 -6 -21 -12 -1 -7 -2 -47 -2 -88 -1 -75 -1 -75
-88 -78 -73 -2 -89 -6 -97 -21 -7 -13 -6 -24 3 -36 10 -15 28 -18 92 -19 79
-1 79 -1 76 -67 -3 -56 0 -68 18 -84 22 -20 22 -20 42 5 17 21 19 34 15 80 -4
30 -3 60 1 67 4 6 26 16 48 22 23 6 70 12 105 14 35 1 73 -1 84 -5 11 -4 26
-4 34 1 11 7 12 17 5 43 -9 31 -13 33 -49 32 -22 -1 -79 -5 -127 -9 -88 -8
-88 -8 -88 51 0 38 -6 68 -16 82 -8 12 -24 22 -35 22z"/>
</g>
</svg>
