<?xml version="1.0" standalone="no"?>
<!DOCTYPE svg PUBLIC "-//W3C//DTD SVG 20010904//EN"
 "http://www.w3.org/TR/2001/REC-SVG-20010904/DTD/svg10.dtd">
<svg version="1.0" xmlns="http://www.w3.org/2000/svg"
 width="158.000000pt" height="173.000000pt" viewBox="0 0 158.000000 173.000000"
 preserveAspectRatio="xMidYMid meet">
<metadata>
Created by potrace 1.16, written by Peter Selinger 2001-2019
</metadata>
<g transform="translate(0.000000,173.000000) scale(0.100000,-0.100000)"
fill="#000000" stroke="none">
<path d="M692 970 c-15 0 -46 -11 -70 -23 -23 -12 -66 -41 -95 -63 -29 -23
-66 -61 -82 -85 -22 -31 -30 -54 -30 -86 0 -40 5 -49 51 -93 41 -39 61 -50
105 -59 30 -5 114 -15 187 -21 72 -6 155 -8 182 -4 27 4 55 13 61 20 6 7 9 19
7 25 -3 9 -50 13 -169 14 -122 1 -181 6 -229 19 -36 10 -71 22 -77 28 -7 6
-13 14 -13 18 0 4 22 10 48 12 35 3 65 16 108 45 32 22 71 52 85 65 16 15 29
41 34 66 5 31 2 49 -11 71 -9 16 -28 34 -41 40 -13 6 -36 11 -51 11z m0 -61
c3 0 13 -2 22 -5 9 -4 16 -18 16 -33 0 -18 -13 -39 -37 -63 -21 -20 -58 -46
-83 -57 -25 -11 -62 -21 -82 -21 -21 0 -38 5 -38 10 0 6 12 28 26 50 15 22 50
55 78 74 28 18 60 36 71 39 11 2 23 5 27 6z"/>
</g>
</svg>
