<?xml version="1.0" standalone="no"?>
<!DOCTYPE svg PUBLIC "-//W3C//DTD SVG 20010904//EN"
 "http://www.w3.org/TR/2001/REC-SVG-20010904/DTD/svg10.dtd">
<svg version="1.0" xmlns="http://www.w3.org/2000/svg"
 width="164.000000pt" height="180.000000pt" viewBox="0 0 164.000000 180.000000"
 preserveAspectRatio="xMidYMid meet">
<metadata>
Created by potrace 1.16, written by Peter Selinger 2001-2019
</metadata>
<g transform="translate(0.000000,180.000000) scale(0.100000,-0.100000)"
fill="#000000" stroke="none">
<path d="M717 1269 c-1 0 -12 -4 -24 -9 -12 -5 -27 -18 -33 -29 -6 -11 -10
-43 -9 -72 2 -51 2 -51 38 -44 21 3 47 18 64 36 15 16 27 35 27 42 0 6 -14 27
-31 45 -16 17 -31 32 -32 31z M1086 1079 c-12 -1 -55 -9 -96 -20 -41 -10 -127
-25 -190 -34 -77 -11 -170 -16 -284 -14 -156 2 -170 1 -183 -17 -8 -10 -13
-30 -11 -43 3 -25 3 -25 178 -25 112 0 224 7 310 18 74 10 144 21 155 24 11 2
45 7 75 9 30 3 63 12 73 20 9 9 17 26 17 38 0 11 -5 26 -12 33 -7 7 -21 12
-32 11z M699 856 c-9 2 -23 -4 -32 -13 -8 -10 -19 -30 -22 -45 -6 -22 -4 -28
9 -28 10 0 16 -8 16 -21 0 -19 4 -21 37 -16 21 4 44 14 50 24 7 9 13 32 13 50
0 27 -4 34 -27 39 -16 3 -35 8 -44 10z"/>
</g>
</svg>
