<?xml version="1.0" standalone="no"?>
<!DOCTYPE svg PUBLIC "-//W3C//DTD SVG 20010904//EN"
 "http://www.w3.org/TR/2001/REC-SVG-20010904/DTD/svg10.dtd">
<svg version="1.0" xmlns="http://www.w3.org/2000/svg"
 width="158.000000pt" height="173.000000pt" viewBox="0 0 158.000000 173.000000"
 preserveAspectRatio="xMidYMid meet">
<metadata>
Created by potrace 1.16, written by Peter Selinger 2001-2019
</metadata>
<g transform="translate(0.000000,173.000000) scale(0.100000,-0.100000)"
fill="#000000" stroke="none">
<path d="M976 1360 c-7 0 -26 -21 -42 -47 -17 -27 -42 -91 -56 -143 -15 -52
-34 -131 -44 -175 -9 -44 -19 -83 -21 -87 -2 -5 -21 3 -41 17 -20 14 -48 25
-62 25 -14 0 -42 -5 -62 -10 -20 -6 -57 -30 -82 -54 -25 -25 -53 -62 -62 -83
-11 -24 -17 -66 -18 -113 0 -41 5 -92 13 -113 8 -24 28 -49 53 -68 26 -18 53
-29 75 -29 19 0 44 5 56 11 12 5 54 44 93 86 l71 76 34 -25 c19 -14 49 -30 68
-37 19 -6 57 -11 85 -11 28 0 84 7 123 15 40 8 89 23 108 32 19 9 35 23 35 30
0 8 -11 13 -27 13 -16 -1 -46 -8 -68 -16 -22 -8 -79 -17 -126 -21 -70 -5 -92
-3 -123 12 -21 10 -45 29 -53 42 -15 23 -14 28 26 108 23 46 51 112 62 147 14
45 22 106 26 215 5 132 4 155 -11 177 -9 15 -22 26 -30 26z m-5 -120 c6 -9 7
-53 3 -110 -4 -52 -15 -122 -24 -156 -10 -34 -30 -90 -45 -123 -15 -34 -34
-61 -41 -61 -8 0 -14 6 -14 13 0 6 7 51 15 98 8 47 28 133 44 190 16 57 35
117 41 134 9 24 13 26 21 15z m-271 -340 c28 0 41 -6 53 -23 8 -13 18 -44 21
-68 4 -28 2 -53 -7 -69 -7 -14 -25 -31 -40 -38 -16 -8 -27 -21 -27 -34 0 -18
4 -20 41 -14 l41 7 -46 -55 c-26 -29 -61 -60 -78 -67 -26 -10 -35 -10 -57 2
-14 8 -34 31 -44 52 -11 21 -19 60 -19 90 0 33 8 72 22 106 16 36 36 63 63 82
27 20 52 29 77 29z"/>
</g>
</svg>
