<?xml version="1.0" standalone="no"?>
<!DOCTYPE svg PUBLIC "-//W3C//DTD SVG 20010904//EN"
 "http://www.w3.org/TR/2001/REC-SVG-20010904/DTD/svg10.dtd">
<svg version="1.0" xmlns="http://www.w3.org/2000/svg"
 width="151.000000pt" height="167.000000pt" viewBox="0 0 151.000000 167.000000"
 preserveAspectRatio="xMidYMid meet">
<metadata>
Created by potrace 1.16, written by Peter Selinger 2001-2019
</metadata>
<g transform="translate(0.000000,167.000000) scale(0.100000,-0.100000)"
fill="#000000" stroke="none">
<path d="M474 897 c-7 2 -18 -3 -27 -11 -8 -8 -21 -46 -28 -83 -8 -37 -14
-118 -14 -180 0 -97 3 -115 21 -139 11 -16 36 -32 54 -37 19 -5 48 -6 66 -2
18 3 54 25 83 51 50 45 50 45 64 17 8 -15 24 -36 35 -46 14 -13 32 -17 58 -15
30 2 43 10 60 35 12 17 29 71 38 120 9 48 20 104 24 123 6 27 15 39 45 53 20
9 37 24 37 32 0 9 -10 19 -22 24 -13 5 -37 12 -54 15 -23 5 -36 2 -48 -9 -10
-11 -16 -34 -16 -66 0 -27 -7 -85 -16 -127 -9 -42 -22 -92 -29 -109 -8 -18
-19 -33 -25 -33 -6 0 -20 19 -30 43 -15 32 -20 65 -20 140 0 78 -3 99 -15 103
-8 4 -22 1 -29 -5 -8 -7 -17 -31 -21 -54 -3 -23 -13 -64 -22 -92 -8 -27 -25
-66 -36 -87 -12 -23 -34 -43 -59 -54 -29 -13 -44 -15 -56 -7 -10 5 -23 25 -30
44 -7 21 -10 58 -7 99 4 36 13 95 21 132 9 37 14 79 12 94 -2 15 -8 29 -14 31z"/>
</g>
</svg>
