<?xml version="1.0" standalone="no"?>
<!DOCTYPE svg PUBLIC "-//W3C//DTD SVG 20010904//EN"
 "http://www.w3.org/TR/2001/REC-SVG-20010904/DTD/svg10.dtd">
<svg version="1.0" xmlns="http://www.w3.org/2000/svg"
 width="157.000000pt" height="173.000000pt" viewBox="0 0 157.000000 173.000000"
 preserveAspectRatio="xMidYMid meet">
<metadata>
Created by potrace 1.16, written by Peter Selinger 2001-2019
</metadata>
<g transform="translate(0.000000,173.000000) scale(0.100000,-0.100000)"
fill="#000000" stroke="none">
<path d="M864 1147 c-44 2 -74 -4 -118 -22 -32 -14 -83 -44 -113 -66 -29 -23
-77 -67 -105 -98 -28 -31 -65 -85 -81 -119 -20 -44 -31 -85 -34 -130 -4 -59
-2 -71 19 -102 23 -33 27 -35 84 -35 57 0 65 3 153 63 51 34 103 62 116 62 18
0 29 -10 43 -37 11 -21 22 -54 26 -73 6 -34 2 -39 -74 -115 -43 -43 -96 -103
-116 -133 -29 -41 -39 -66 -42 -106 -4 -51 -3 -54 29 -79 19 -14 47 -31 64
-37 16 -6 46 -8 67 -5 23 4 50 19 67 36 16 16 37 53 47 81 11 34 20 101 23
185 6 111 10 135 26 153 11 13 45 41 75 65 30 23 87 61 127 84 40 24 77 49 84
57 6 8 9 17 6 21 -4 3 -52 -20 -107 -51 -56 -31 -126 -75 -156 -97 -31 -22
-61 -39 -67 -36 -7 3 -18 24 -25 48 -8 24 -23 54 -34 67 -14 14 -33 22 -55 22
-19 0 -44 -5 -56 -11 -12 -6 -58 -36 -102 -65 -44 -29 -92 -56 -107 -59 -19
-5 -32 -1 -48 15 -19 19 -22 31 -18 79 2 32 16 83 32 118 20 45 49 82 105 136
44 44 101 87 136 105 33 16 74 31 90 32 17 1 36 2 43 1 7 -1 12 -15 12 -37 0
-24 4 -34 13 -32 6 3 21 21 32 41 16 29 18 41 9 54 -8 13 -26 19 -70 20z m-8
-667 c11 0 14 -18 14 -74 0 -45 -8 -98 -19 -136 -11 -34 -30 -73 -42 -86 -15
-16 -34 -24 -54 -24 -18 0 -45 10 -60 22 -24 19 -26 26 -21 61 4 23 23 63 44
91 20 28 57 72 81 99 24 26 50 47 57 47z"/>
</g>
</svg>
