<?xml version="1.0" standalone="no"?>
<!DOCTYPE svg PUBLIC "-//W3C//DTD SVG 20010904//EN"
 "http://www.w3.org/TR/2001/REC-SVG-20010904/DTD/svg10.dtd">
<svg version="1.0" xmlns="http://www.w3.org/2000/svg"
 width="164.000000pt" height="177.000000pt" viewBox="0 0 164.000000 177.000000"
 preserveAspectRatio="xMidYMid meet">
<metadata>
Created by potrace 1.16, written by Peter Selinger 2001-2019
</metadata>
<g transform="translate(0.000000,177.000000) scale(0.100000,-0.100000)"
fill="#000000" stroke="none">
<path d="M827 1140 c-13 0 -27 -3 -30 -7 -4 -3 -7 -12 -7 -19 0 -7 14 -29 31
-49 21 -23 40 -35 58 -35 14 0 73 -16 131 -34 58 -19 109 -41 114 -49 6 -10 0
-26 -20 -53 -16 -21 -45 -57 -64 -79 -19 -21 -60 -63 -90 -93 -30 -29 -67 -60
-82 -68 -16 -8 -28 -22 -28 -32 0 -10 5 -23 12 -30 7 -7 22 -12 35 -12 16 0
59 36 141 119 66 65 142 150 171 187 30 40 50 77 49 89 -2 13 -18 25 -48 36
-25 9 -97 34 -160 54 -63 21 -132 46 -152 56 -21 11 -48 19 -61 19z M646 1030
c-8 0 -20 -9 -26 -20 -9 -18 -7 -25 18 -48 16 -15 60 -40 98 -56 38 -16 75
-34 81 -40 10 -9 -3 -23 -56 -64 -38 -28 -73 -52 -80 -52 -6 0 -11 -4 -11 -8
0 -5 -11 -14 -25 -20 -14 -7 -28 -19 -31 -27 -4 -9 2 -25 11 -35 10 -11 28
-20 39 -20 12 0 47 24 80 54 32 30 86 69 119 87 34 18 75 35 92 39 26 5 30 10
30 40 0 27 -5 35 -25 40 -14 4 -45 14 -70 21 -25 7 -74 26 -110 42 -36 16 -77
38 -92 48 -14 11 -33 19 -42 19z"/>
</g>
</svg>
