<?xml version="1.0" standalone="no"?>
<!DOCTYPE svg PUBLIC "-//W3C//DTD SVG 20010904//EN"
 "http://www.w3.org/TR/2001/REC-SVG-20010904/DTD/svg10.dtd">
<svg version="1.0" xmlns="http://www.w3.org/2000/svg"
 width="152.000000pt" height="167.000000pt" viewBox="0 0 152.000000 167.000000"
 preserveAspectRatio="xMidYMid meet">
<metadata>
Created by potrace 1.16, written by Peter Selinger 2001-2019
</metadata>
<g transform="translate(0.000000,167.000000) scale(0.100000,-0.100000)"
fill="#000000" stroke="none">
<path d="M724 999 c-5 0 -23 -5 -40 -10 -17 -5 -51 -27 -77 -49 -25 -22 -55
-60 -67 -85 -14 -28 -19 -52 -15 -66 6 -19 11 -15 36 32 16 30 50 73 75 97 26
24 56 42 69 42 13 0 26 -7 29 -16 3 -9 6 -24 6 -35 0 -10 -11 -42 -24 -71 -13
-29 -31 -62 -39 -73 -12 -15 -31 -21 -84 -25 -56 -4 -68 -8 -71 -24 -4 -17 1
-18 41 -14 25 3 50 1 56 -5 7 -7 2 -26 -15 -60 -16 -31 -23 -58 -20 -73 3 -12
16 -26 29 -30 12 -4 42 -6 67 -6 25 1 76 12 113 24 38 11 71 27 74 35 3 8 3
16 0 19 -3 3 -27 -4 -53 -16 -27 -11 -74 -24 -106 -29 -32 -4 -63 -4 -69 0 -7
4 -9 19 -5 41 3 19 22 53 41 75 25 29 47 44 79 52 25 6 60 11 79 11 18 0 42 7
53 15 15 11 16 17 6 23 -7 5 -41 3 -78 -3 -37 -7 -67 -9 -70 -4 -3 5 4 34 15
65 12 30 21 70 21 88 0 21 -8 40 -23 54 -13 12 -27 22 -33 21z"/>
</g>
</svg>
