<?xml version="1.0" standalone="no"?>
<!DOCTYPE svg PUBLIC "-//W3C//DTD SVG 20010904//EN"
 "http://www.w3.org/TR/2001/REC-SVG-20010904/DTD/svg10.dtd">
<svg version="1.0" xmlns="http://www.w3.org/2000/svg"
 width="164.000000pt" height="179.000000pt" viewBox="0 0 164.000000 179.000000"
 preserveAspectRatio="xMidYMid meet">
<metadata>
Created by potrace 1.16, written by Peter Selinger 2001-2019
</metadata>
<g transform="translate(0.000000,179.000000) scale(0.100000,-0.100000)"
fill="#000000" stroke="none">
<path d="M771 770 c-15 0 -38 -10 -53 -21 -19 -14 -28 -30 -28 -49 0 -15 6
-32 13 -38 6 -6 24 -13 40 -17 18 -5 35 -2 52 9 19 13 25 25 25 54 0 21 -5 43
-12 50 -7 7 -23 12 -37 12z M522 760 c-16 0 -41 -9 -56 -21 -14 -11 -26 -30
-26 -41 0 -11 10 -28 23 -39 12 -10 30 -18 40 -19 10 0 37 10 60 21 23 12 45
26 49 32 3 6 4 16 1 24 -3 8 -18 20 -34 28 -15 8 -41 15 -57 15z M1008 760
c-14 0 -33 -9 -43 -20 -13 -14 -16 -28 -11 -51 3 -18 11 -38 17 -46 6 -7 22
-13 35 -13 14 0 31 11 43 29 12 16 21 38 21 48 0 11 -8 27 -18 36 -10 10 -30
17 -44 17z"/>
</g>
</svg>
