<?xml version="1.0" standalone="no"?>
<!DOCTYPE svg PUBLIC "-//W3C//DTD SVG 20010904//EN"
 "http://www.w3.org/TR/2001/REC-SVG-20010904/DTD/svg10.dtd">
<svg version="1.0" xmlns="http://www.w3.org/2000/svg"
 width="152.000000pt" height="168.000000pt" viewBox="0 0 152.000000 168.000000"
 preserveAspectRatio="xMidYMid meet">
<metadata>
Created by potrace 1.16, written by Peter Selinger 2001-2019
</metadata>
<g transform="translate(0.000000,168.000000) scale(0.100000,-0.100000)"
fill="#000000" stroke="none">
<path d="M948 847 c-7 7 -19 9 -25 5 -6 -4 -22 -32 -35 -62 -14 -30 -40 -70
-58 -87 -24 -23 -43 -33 -65 -33 -20 0 -39 8 -51 21 -13 14 -21 42 -24 82 -3
33 -10 62 -16 64 -6 2 -14 -3 -17 -11 -3 -8 -9 -41 -13 -73 -6 -58 -5 -60 29
-96 31 -33 40 -37 84 -37 35 0 58 6 76 20 14 11 31 20 37 20 9 0 11 -16 6 -62
-4 -35 -20 -112 -36 -173 -16 -60 -36 -130 -44 -153 -9 -24 -25 -60 -36 -81
-12 -20 -37 -47 -56 -60 -22 -15 -49 -24 -74 -24 -22 0 -46 6 -55 13 -8 7 -22
10 -30 6 -8 -3 -15 -12 -15 -19 0 -8 20 -22 45 -32 31 -11 58 -15 85 -10 22 4
54 16 71 28 18 12 46 39 62 59 20 25 42 78 69 165 21 70 49 182 62 248 13 66
27 154 31 195 5 59 4 78 -7 87z"/>
</g>
</svg>
