<?xml version="1.0" standalone="no"?>
<!DOCTYPE svg PUBLIC "-//W3C//DTD SVG 20010904//EN"
 "http://www.w3.org/TR/2001/REC-SVG-20010904/DTD/svg10.dtd">
<svg version="1.0" xmlns="http://www.w3.org/2000/svg"
 width="157.000000pt" height="172.000000pt" viewBox="0 0 157.000000 172.000000"
 preserveAspectRatio="xMidYMid meet">
<metadata>
Created by potrace 1.16, written by Peter Selinger 2001-2019
</metadata>
<g transform="translate(0.000000,172.000000) scale(0.100000,-0.100000)"
fill="#000000" stroke="none">
<path d="M704 948 c-11 0 -34 -3 -52 -5 -22 -3 -51 -22 -93 -60 -33 -31 -72
-76 -86 -100 -21 -36 -26 -58 -26 -111 -1 -43 5 -78 15 -97 9 -16 30 -43 46
-59 18 -17 48 -32 74 -37 24 -4 58 -5 77 -2 19 3 51 15 70 26 20 11 50 34 68
50 31 29 31 29 77 -6 26 -19 69 -40 96 -47 27 -6 63 -9 79 -5 16 3 35 13 41
20 6 8 10 22 8 32 -3 16 -12 18 -69 15 -61 -3 -67 -2 -97 26 -19 18 -32 40
-32 55 0 13 14 57 30 98 20 46 30 87 28 109 -3 30 -7 35 -31 38 -18 2 -37 -4
-49 -15 -11 -9 -26 -33 -34 -52 -8 -20 -17 -62 -21 -94 -5 -44 -14 -68 -39
-101 -21 -28 -50 -50 -83 -64 -27 -12 -65 -22 -83 -22 -18 0 -40 6 -49 13 -9
7 -26 28 -38 47 -11 19 -21 50 -21 69 0 19 12 59 28 89 17 36 43 67 72 88 25
19 52 34 61 34 9 0 28 -9 43 -21 14 -11 26 -25 26 -32 0 -6 -10 -21 -21 -33
-12 -13 -19 -30 -16 -38 4 -9 14 -16 24 -16 10 0 33 9 51 20 28 17 32 25 32
61 0 36 -6 48 -44 85 -24 24 -52 43 -62 42z"/>
</g>
</svg>
