<?xml version="1.0" standalone="no"?>
<!DOCTYPE svg PUBLIC "-//W3C//DTD SVG 20010904//EN"
 "http://www.w3.org/TR/2001/REC-SVG-20010904/DTD/svg10.dtd">
<svg version="1.0" xmlns="http://www.w3.org/2000/svg"
 width="153.000000pt" height="168.000000pt" viewBox="0 0 153.000000 168.000000"
 preserveAspectRatio="xMidYMid meet">
<metadata>
Created by potrace 1.16, written by Peter Selinger 2001-2019
</metadata>
<g transform="translate(0.000000,168.000000) scale(0.100000,-0.100000)"
fill="#000000" stroke="none">
<path d="M1072 1260 c-11 0 -26 -8 -34 -17 -9 -10 -63 -90 -120 -178 -57 -88
-130 -198 -164 -245 -33 -47 -76 -112 -96 -145 -20 -33 -61 -104 -92 -158 -38
-66 -55 -105 -51 -118 4 -10 14 -19 24 -19 10 0 30 9 45 21 17 13 26 30 26 48
0 15 19 63 42 107 22 43 74 129 114 189 40 61 129 193 198 295 69 101 126 192
126 202 0 11 -7 18 -18 18z M690 1250 c-15 0 -39 -9 -53 -20 -14 -11 -41 -42
-60 -68 -19 -26 -42 -72 -51 -102 -9 -32 -14 -68 -10 -87 4 -20 17 -41 34 -53
16 -11 40 -20 54 -20 15 0 43 9 64 19 20 11 56 39 78 63 23 24 48 57 57 73 9
17 23 47 32 69 8 21 15 45 15 53 0 10 -9 13 -32 11 -29 -3 -34 -7 -42 -43 -4
-22 -13 -50 -19 -62 -5 -12 -27 -40 -49 -62 -21 -23 -52 -48 -69 -56 -24 -13
-34 -14 -45 -4 -8 6 -14 27 -14 46 0 18 11 55 24 81 13 26 36 58 52 72 24 22
26 22 19 5 -4 -11 -10 -28 -12 -37 -4 -13 0 -18 15 -18 12 0 33 10 48 23 17
15 27 33 27 50 0 15 -9 37 -18 47 -10 11 -30 20 -45 20z M1130 710 c-18 0 -20
-6 -19 -66 1 -57 -4 -76 -32 -133 -25 -48 -43 -71 -68 -83 -18 -9 -39 -14 -46
-12 -7 3 -18 17 -26 31 -8 14 -14 48 -13 75 0 32 7 58 21 76 11 15 32 28 47
30 25 3 26 2 24 -39 -2 -23 2 -44 7 -46 6 -2 21 6 34 18 19 18 22 28 16 58 -3
20 -15 44 -27 54 -12 10 -37 17 -59 17 -30 0 -47 -7 -75 -32 -22 -21 -38 -48
-44 -73 -5 -22 -10 -60 -10 -85 0 -27 8 -58 20 -77 10 -18 33 -39 49 -48 17
-8 43 -15 59 -15 18 0 43 12 68 34 21 18 52 59 67 89 15 31 33 82 39 114 7 41
7 66 -1 86 -7 17 -18 27 -31 27z"/>
</g>
</svg>
