<?xml version="1.0" standalone="no"?>
<!DOCTYPE svg PUBLIC "-//W3C//DTD SVG 20010904//EN"
 "http://www.w3.org/TR/2001/REC-SVG-20010904/DTD/svg10.dtd">
<svg version="1.0" xmlns="http://www.w3.org/2000/svg"
 width="154.000000pt" height="168.000000pt" viewBox="0 0 154.000000 168.000000"
 preserveAspectRatio="xMidYMid meet">
<metadata>
Created by potrace 1.16, written by Peter Selinger 2001-2019
</metadata>
<g transform="translate(0.000000,168.000000) scale(0.100000,-0.100000)"
fill="#000000" stroke="none">
<path d="M733 490 c-12 0 -38 -15 -57 -34 -23 -21 -36 -43 -36 -59 0 -15 9
-32 22 -41 12 -9 35 -16 51 -16 16 0 38 5 50 11 12 6 32 21 45 32 12 11 22 29
22 38 0 10 -17 30 -37 44 -21 14 -48 25 -60 25z"/>
</g>
</svg>
