<?xml version="1.0" standalone="no"?>
<!DOCTYPE svg PUBLIC "-//W3C//DTD SVG 20010904//EN"
 "http://www.w3.org/TR/2001/REC-SVG-20010904/DTD/svg10.dtd">
<svg version="1.0" xmlns="http://www.w3.org/2000/svg"
 width="156.000000pt" height="169.000000pt" viewBox="0 0 156.000000 169.000000"
 preserveAspectRatio="xMidYMid meet">
<metadata>
Created by potrace 1.16, written by Peter Selinger 2001-2019
</metadata>
<g transform="translate(0.000000,169.000000) scale(0.100000,-0.100000)"
fill="#000000" stroke="none">
<path d="M814 1188 c-11 2 -25 -3 -31 -10 -6 -7 -17 -42 -26 -78 -9 -36 -23
-112 -32 -170 -8 -58 -20 -147 -25 -199 -6 -52 -15 -111 -21 -132 -7 -20 -9
-49 -5 -63 5 -19 13 -26 30 -26 15 0 33 11 45 26 18 23 21 41 21 143 1 64 5
134 9 156 5 22 20 98 35 170 15 71 26 141 24 155 -2 17 -10 26 -24 28z"/>
</g>
</svg>
