<?xml version="1.0" standalone="no"?>
<!DOCTYPE svg PUBLIC "-//W3C//DTD SVG 20010904//EN"
 "http://www.w3.org/TR/2001/REC-SVG-20010904/DTD/svg10.dtd">
<svg version="1.0" xmlns="http://www.w3.org/2000/svg"
 width="157.000000pt" height="171.000000pt" viewBox="0 0 157.000000 171.000000"
 preserveAspectRatio="xMidYMid meet">
<metadata>
Created by potrace 1.16, written by Peter Selinger 2001-2019
</metadata>
<g transform="translate(0.000000,171.000000) scale(0.100000,-0.100000)"
fill="#000000" stroke="none">
<path d="M461 1259 c-12 7 -22 6 -29 -1 -7 -7 -12 -26 -12 -43 0 -17 6 -54 14
-81 8 -27 22 -87 31 -134 9 -47 28 -139 41 -205 14 -66 30 -140 36 -164 6 -24
22 -56 36 -72 16 -20 33 -29 53 -29 22 0 34 8 48 31 10 17 24 57 30 89 7 33
16 62 20 65 5 3 14 -17 21 -43 6 -27 20 -63 30 -80 11 -18 28 -32 39 -32 11 0
33 17 49 37 20 27 51 104 101 261 40 123 86 248 102 279 16 30 29 66 29 79 0
13 -9 28 -21 35 -17 8 -24 8 -34 -3 -7 -7 -51 -129 -99 -272 -48 -142 -94
-272 -102 -288 -8 -16 -19 -26 -24 -23 -4 3 -11 44 -14 93 -4 48 -9 106 -12
130 -4 31 -12 47 -31 59 -24 16 -26 16 -39 -2 -8 -10 -14 -33 -14 -49 0 -17
-15 -86 -34 -153 -19 -67 -37 -126 -41 -133 -5 -8 -10 -8 -20 0 -8 6 -19 37
-26 68 -6 31 -20 95 -31 142 -10 47 -28 146 -39 220 -11 74 -24 152 -30 172
-5 21 -18 42 -28 47z"/>
</g>
</svg>
