<?xml version="1.0" standalone="no"?>
<!DOCTYPE svg PUBLIC "-//W3C//DTD SVG 20010904//EN"
 "http://www.w3.org/TR/2001/REC-SVG-20010904/DTD/svg10.dtd">
<svg version="1.0" xmlns="http://www.w3.org/2000/svg"
 width="155.000000pt" height="170.000000pt" viewBox="0 0 155.000000 170.000000"
 preserveAspectRatio="xMidYMid meet">
<metadata>
Created by potrace 1.16, written by Peter Selinger 2001-2019
</metadata>
<g transform="translate(0.000000,170.000000) scale(0.100000,-0.100000)"
fill="#000000" stroke="none">
<path d="M698 1147 c-7 6 -19 8 -26 6 -7 -3 -22 -23 -34 -46 -11 -23 -38 -89
-60 -146 -22 -57 -48 -141 -58 -185 -16 -65 -18 -93 -10 -138 5 -32 14 -66 20
-78 6 -11 22 -28 36 -37 18 -11 44 -16 83 -15 32 1 125 15 209 32 83 17 163
35 177 42 14 6 25 17 25 25 0 7 -9 13 -20 13 -11 0 -95 -13 -187 -30 -91 -16
-185 -30 -208 -30 -29 0 -47 6 -60 20 -11 12 -19 42 -22 82 -4 47 0 82 17 138
12 41 46 129 76 195 30 65 54 125 54 131 0 6 -6 16 -12 21z"/>
</g>
</svg>
