<?xml version="1.0" standalone="no"?>
<!DOCTYPE svg PUBLIC "-//W3C//DTD SVG 20010904//EN"
 "http://www.w3.org/TR/2001/REC-SVG-20010904/DTD/svg10.dtd">
<svg version="1.0" xmlns="http://www.w3.org/2000/svg"
 width="165.000000pt" height="179.000000pt" viewBox="0 0 165.000000 179.000000"
 preserveAspectRatio="xMidYMid meet">
<metadata>
Created by potrace 1.16, written by Peter Selinger 2001-2019
</metadata>
<g transform="translate(0.000000,179.000000) scale(0.100000,-0.100000)"
fill="#000000" stroke="none">
<path d="M596 1330 c-7 0 -20 -8 -28 -17 -9 -10 -21 -36 -27 -58 -7 -22 -15
-133 -18 -247 l-6 -208 -33 -6 c-19 -3 -46 -3 -61 0 -16 4 -42 14 -59 23 -17
9 -39 13 -48 10 -11 -4 -16 -15 -14 -29 2 -12 22 -35 47 -52 27 -19 57 -54 78
-91 18 -33 43 -79 53 -103 11 -24 27 -73 35 -110 9 -36 20 -72 26 -79 7 -7 20
-13 31 -13 10 0 22 8 25 17 4 9 -3 55 -15 102 -15 59 -22 115 -22 177 0 74 3
93 18 105 9 8 43 28 75 44 38 19 78 52 111 90 29 33 62 76 72 95 l19 35 3 -66
c2 -37 -1 -89 -5 -115 -8 -46 -11 -50 -58 -72 -28 -13 -60 -33 -72 -45 -13
-11 -23 -25 -23 -30 0 -5 33 -42 73 -81 54 -52 77 -82 85 -113 7 -23 19 -49
28 -58 12 -11 20 -12 35 -5 10 6 19 19 19 29 0 10 -11 44 -25 75 -18 40 -25
74 -25 117 0 33 4 69 10 79 6 10 31 23 62 31 29 6 85 25 123 41 39 17 85 40
102 51 18 12 33 28 33 35 0 6 -11 12 -25 12 -13 0 -57 -16 -98 -35 -40 -19
-97 -39 -126 -45 -29 -5 -57 -7 -62 -4 -5 3 -7 35 -3 72 3 37 15 126 25 197
10 72 22 147 25 167 4 24 2 43 -6 53 -7 8 -21 15 -31 15 -13 0 -20 -10 -24
-37 -4 -21 -13 -63 -22 -93 -8 -30 -33 -89 -55 -130 -23 -41 -59 -97 -82 -124
-22 -27 -61 -62 -85 -78 -25 -15 -53 -28 -64 -28 -17 0 -18 6 -12 93 3 50 11
137 16 192 6 55 15 117 20 138 6 21 7 47 4 57 -4 11 -12 20 -19 20z m-101
-594 c6 -1 11 -19 13 -39 2 -22 -1 -37 -8 -37 -5 0 -19 15 -30 32 -18 31 -19
33 -2 40 9 3 22 5 27 4z"/>
</g>
</svg>
