<?xml version="1.0" standalone="no"?>
<!DOCTYPE svg PUBLIC "-//W3C//DTD SVG 20010904//EN"
 "http://www.w3.org/TR/2001/REC-SVG-20010904/DTD/svg10.dtd">
<svg version="1.0" xmlns="http://www.w3.org/2000/svg"
 width="157.000000pt" height="172.000000pt" viewBox="0 0 157.000000 172.000000"
 preserveAspectRatio="xMidYMid meet">
<metadata>
Created by potrace 1.16, written by Peter Selinger 2001-2019
</metadata>
<g transform="translate(0.000000,172.000000) scale(0.100000,-0.100000)"
fill="#000000" stroke="none">
<path d="M689 940 c-19 -1 -47 -7 -64 -14 -16 -8 -49 -33 -73 -56 -23 -22 -54
-59 -67 -80 -14 -21 -27 -57 -31 -79 -4 -22 -3 -60 0 -85 5 -34 18 -57 50 -92
39 -43 46 -47 98 -52 41 -3 67 1 100 16 25 11 64 36 86 56 l41 37 45 -35 c26
-19 63 -40 84 -46 20 -5 53 -10 73 -10 22 0 42 7 52 18 9 9 13 22 9 27 -4 6
-34 10 -67 10 -47 0 -67 5 -92 23 -18 13 -36 35 -39 49 -5 17 3 50 24 102 17
42 33 88 36 102 3 15 0 34 -9 45 -13 18 -16 18 -42 4 -15 -8 -38 -35 -50 -60
-13 -27 -22 -64 -23 -93 0 -38 -7 -58 -31 -92 -18 -24 -53 -55 -82 -70 -32
-18 -67 -29 -95 -29 -38 -1 -48 4 -78 36 -30 34 -34 44 -34 94 0 42 7 69 27
106 16 29 45 62 69 79 24 16 56 29 72 29 17 0 37 -9 50 -23 12 -13 22 -28 22
-34 0 -5 -9 -18 -20 -28 -11 -10 -20 -24 -20 -32 0 -7 11 -13 25 -13 14 0 37
11 50 25 14 13 25 36 25 51 0 18 -14 40 -44 70 -34 35 -50 44 -77 44z"/>
</g>
</svg>
