<?xml version="1.0" standalone="no"?>
<!DOCTYPE svg PUBLIC "-//W3C//DTD SVG 20010904//EN"
 "http://www.w3.org/TR/2001/REC-SVG-20010904/DTD/svg10.dtd">
<svg version="1.0" xmlns="http://www.w3.org/2000/svg"
 width="153.000000pt" height="167.000000pt" viewBox="0 0 153.000000 167.000000"
 preserveAspectRatio="xMidYMid meet">
<metadata>
Created by potrace 1.16, written by Peter Selinger 2001-2019
</metadata>
<g transform="translate(0.000000,167.000000) scale(0.100000,-0.100000)"
fill="#000000" stroke="none">
<path d="M922 1218 c-6 2 -26 -18 -44 -44 -18 -27 -62 -80 -98 -119 -36 -38
-90 -91 -120 -117 -30 -27 -70 -55 -88 -64 -18 -8 -48 -14 -67 -12 -19 1 -39
-2 -45 -8 -6 -6 -8 -18 -5 -27 4 -8 12 -18 18 -20 7 -3 33 -1 59 3 36 5 66 21
124 65 42 32 103 89 137 127 34 37 64 65 68 60 4 -4 -4 -54 -17 -112 -14 -58
-27 -144 -31 -191 -5 -81 -5 -87 17 -102 12 -8 28 -13 36 -10 11 4 12 21 7 78
-3 44 -1 100 6 137 7 35 26 121 44 191 22 93 28 133 21 145 -6 9 -16 18 -22
20z"/>
</g>
</svg>
