<?xml version="1.0" standalone="no"?>
<!DOCTYPE svg PUBLIC "-//W3C//DTD SVG 20010904//EN"
 "http://www.w3.org/TR/2001/REC-SVG-20010904/DTD/svg10.dtd">
<svg version="1.0" xmlns="http://www.w3.org/2000/svg"
 width="164.000000pt" height="178.000000pt" viewBox="0 0 164.000000 178.000000"
 preserveAspectRatio="xMidYMid meet">
<metadata>
Created by potrace 1.16, written by Peter Selinger 2001-2019
</metadata>
<g transform="translate(0.000000,178.000000) scale(0.100000,-0.100000)"
fill="#000000" stroke="none">
<path d="M617 1350 c-26 0 -63 -10 -93 -25 -28 -14 -60 -35 -72 -48 -11 -12
-36 -50 -55 -83 -19 -34 -45 -93 -58 -130 -22 -62 -24 -86 -24 -234 0 -139 3
-170 18 -197 9 -18 31 -39 47 -48 16 -8 49 -15 73 -15 25 0 66 10 93 21 27 12
70 39 96 59 47 37 47 37 105 17 45 -16 88 -21 188 -23 129 -3 129 -3 151 -46
12 -24 31 -51 43 -62 16 -15 31 -18 75 -14 38 3 66 13 93 31 21 15 62 49 91
75 39 35 52 52 47 65 -4 9 -13 17 -20 17 -8 0 -33 -16 -57 -35 -24 -19 -60
-46 -80 -60 -21 -14 -52 -26 -70 -27 -32 -3 -33 -2 -36 42 -2 39 2 53 30 90
30 41 33 52 36 131 3 68 1 88 -12 98 -13 11 -20 11 -41 -3 -16 -11 -31 -37
-43 -78 -11 -35 -23 -78 -27 -96 -3 -17 -10 -32 -15 -32 -4 0 -10 14 -14 31
-3 17 -6 46 -6 64 0 18 -8 43 -18 56 -13 15 -25 20 -37 15 -16 -6 -17 -16 -11
-101 7 -95 7 -95 -77 -95 -85 0 -85 0 -116 35 -17 20 -31 40 -31 45 0 5 13 42
29 82 16 40 32 93 36 118 4 25 13 69 21 99 8 30 17 96 20 146 6 76 4 93 -9
104 -9 7 -25 10 -36 6 -11 -3 -34 -22 -51 -41 -31 -36 -31 -36 -52 -9 -12 15
-36 34 -54 41 -19 8 -53 14 -77 14z m23 -67 c14 -2 31 -9 38 -15 7 -6 21 -31
32 -56 11 -24 20 -62 20 -84 0 -31 -4 -41 -19 -45 -11 -3 -22 -12 -26 -21 -3
-8 3 -24 14 -36 18 -19 19 -30 12 -121 -7 -100 -7 -100 -24 -61 -9 21 -17 60
-17 87 0 26 5 51 10 54 6 3 10 12 10 20 0 7 -7 20 -15 28 -8 9 -24 13 -35 10
-11 -3 -24 -13 -29 -22 -5 -9 -11 -44 -15 -78 -6 -53 -3 -72 19 -126 14 -35
25 -71 25 -80 0 -9 -25 -33 -55 -53 -30 -20 -75 -40 -101 -45 -29 -6 -53 -5
-65 1 -10 6 -24 29 -30 53 -6 23 -11 92 -10 152 0 64 7 135 16 170 9 33 30 88
48 123 18 34 48 79 68 98 21 20 52 40 71 44 18 5 44 6 58 3z"/>
</g>
</svg>
