<?xml version="1.0" standalone="no"?>
<!DOCTYPE svg PUBLIC "-//W3C//DTD SVG 20010904//EN"
 "http://www.w3.org/TR/2001/REC-SVG-20010904/DTD/svg10.dtd">
<svg version="1.0" xmlns="http://www.w3.org/2000/svg"
 width="154.000000pt" height="167.000000pt" viewBox="0 0 154.000000 167.000000"
 preserveAspectRatio="xMidYMid meet">
<metadata>
Created by potrace 1.16, written by Peter Selinger 2001-2019
</metadata>
<g transform="translate(0.000000,167.000000) scale(0.100000,-0.100000)"
fill="#000000" stroke="none">
<path d="M1155 1290 c-7 0 -17 -6 -22 -12 -6 -7 -20 -35 -33 -62 -13 -26 -52
-87 -88 -135 -36 -47 -79 -104 -97 -126 -18 -22 -55 -74 -82 -115 -28 -41 -91
-143 -141 -226 -50 -83 -118 -208 -152 -277 -33 -69 -60 -135 -60 -146 0 -12
6 -21 13 -21 8 0 21 8 29 18 9 9 32 60 53 112 21 52 50 120 65 150 15 30 69
125 120 210 51 85 123 196 161 245 37 50 96 126 129 170 33 44 70 89 80 100
11 11 31 31 45 44 14 13 25 32 25 42 0 9 -7 20 -16 23 -9 3 -21 6 -29 6z"/>
</g>
</svg>
