<?xml version="1.0" standalone="no"?>
<!DOCTYPE svg PUBLIC "-//W3C//DTD SVG 20010904//EN"
 "http://www.w3.org/TR/2001/REC-SVG-20010904/DTD/svg10.dtd">
<svg version="1.0" xmlns="http://www.w3.org/2000/svg"
 width="158.000000pt" height="173.000000pt" viewBox="0 0 158.000000 173.000000"
 preserveAspectRatio="xMidYMid meet">
<metadata>
Created by potrace 1.16, written by Peter Selinger 2001-2019
</metadata>
<g transform="translate(0.000000,173.000000) scale(0.100000,-0.100000)"
fill="#000000" stroke="none">
<path d="M776 1490 c-7 5 -16 6 -20 2 -4 -4 -14 -22 -22 -41 -8 -18 -14 -64
-14 -102 0 -57 3 -71 22 -89 12 -11 29 -20 38 -20 9 0 21 5 28 12 8 8 14 5 21
-16 6 -14 18 -29 26 -32 8 -4 22 -1 30 6 11 9 15 29 13 69 -2 31 1 87 6 124 8
68 8 69 -16 65 -16 -2 -24 -11 -26 -28 -2 -13 -10 -33 -18 -44 -8 -11 -14 -37
-14 -58 0 -20 -5 -40 -10 -43 -6 -4 -18 11 -26 32 -11 26 -15 55 -11 95 3 39
1 60 -7 68z M596 1300 c-20 0 -31 -13 -64 -73 -21 -40 -46 -95 -55 -123 -9
-27 -25 -95 -37 -151 -11 -55 -20 -137 -20 -182 0 -58 7 -102 25 -160 21 -67
33 -86 68 -116 41 -36 44 -37 109 -32 45 3 85 13 122 31 30 15 69 43 86 62 17
20 43 60 58 90 14 30 30 54 34 54 4 0 8 -13 8 -29 0 -20 9 -36 26 -50 15 -12
36 -21 48 -21 12 0 27 5 34 12 7 7 12 22 12 35 0 16 -6 23 -18 23 -11 0 -24
11 -30 25 -7 14 -12 52 -12 83 0 31 7 102 15 157 8 55 15 128 15 161 0 47 -5
68 -19 85 -16 20 -23 22 -38 13 -14 -9 -19 -29 -24 -90 -4 -43 -14 -113 -23
-154 -9 -41 -26 -109 -39 -150 -13 -41 -38 -103 -55 -136 -17 -34 -43 -71 -58
-83 -15 -12 -49 -28 -77 -36 -28 -8 -63 -15 -78 -15 -20 0 -37 11 -62 40 -25
29 -37 57 -45 98 -6 31 -13 72 -16 90 -3 17 1 70 9 117 8 47 29 128 45 180 18
55 39 100 50 108 10 7 25 34 31 59 7 25 9 52 6 61 -4 10 -17 17 -31 17z"/>
</g>
</svg>
