<?xml version="1.0" standalone="no"?>
<!DOCTYPE svg PUBLIC "-//W3C//DTD SVG 20010904//EN"
 "http://www.w3.org/TR/2001/REC-SVG-20010904/DTD/svg10.dtd">
<svg version="1.0" xmlns="http://www.w3.org/2000/svg"
 width="152.000000pt" height="167.000000pt" viewBox="0 0 152.000000 167.000000"
 preserveAspectRatio="xMidYMid meet">
<metadata>
Created by potrace 1.16, written by Peter Selinger 2001-2019
</metadata>
<g transform="translate(0.000000,167.000000) scale(0.100000,-0.100000)"
fill="#000000" stroke="none">
<path d="M911 1560 c-15 0 -48 -11 -76 -24 -27 -13 -62 -36 -76 -52 -14 -16
-35 -42 -46 -59 -12 -16 -30 -61 -42 -99 -14 -45 -21 -95 -21 -147 0 -43 7
-115 16 -159 9 -44 14 -90 10 -104 -3 -13 -18 -28 -33 -34 -16 -6 -59 -19 -96
-28 -38 -9 -75 -23 -83 -31 -11 -11 -12 -19 -4 -28 9 -11 23 -10 78 6 37 10
86 19 110 19 37 0 44 -3 53 -27 6 -16 8 -46 6 -68 -3 -22 -12 -98 -21 -170 -9
-72 -16 -157 -16 -190 0 -42 7 -75 24 -110 13 -28 37 -63 54 -77 19 -16 55
-31 89 -38 32 -7 85 -10 118 -7 34 3 83 14 109 24 27 10 54 26 60 35 5 9 7 20
4 24 -4 4 -29 -4 -55 -16 -37 -18 -66 -23 -123 -23 -41 0 -93 6 -115 14 -27
10 -48 28 -70 59 -30 45 -30 46 -29 175 1 72 7 159 14 195 7 36 15 89 17 118
4 41 0 60 -16 88 -15 25 -21 52 -21 97 0 34 -7 96 -16 137 -10 49 -14 101 -11
150 3 41 15 102 27 134 15 39 40 77 74 113 38 38 60 53 79 53 17 0 27 -5 27
-14 0 -8 5 -18 10 -21 6 -4 17 -1 25 5 8 7 15 22 15 34 0 12 -5 27 -12 34 -7
7 -23 12 -37 12z"/>
</g>
</svg>
