<?xml version="1.0" standalone="no"?>
<!DOCTYPE svg PUBLIC "-//W3C//DTD SVG 20010904//EN"
 "http://www.w3.org/TR/2001/REC-SVG-20010904/DTD/svg10.dtd">
<svg version="1.0" xmlns="http://www.w3.org/2000/svg"
 width="154.000000pt" height="167.000000pt" viewBox="0 0 154.000000 167.000000"
 preserveAspectRatio="xMidYMid meet">
<metadata>
Created by potrace 1.16, written by Peter Selinger 2001-2019
</metadata>
<g transform="translate(0.000000,167.000000) scale(0.100000,-0.100000)"
fill="#000000" stroke="none">
<path d="M765 1242 c-16 2 -39 3 -50 1 -11 -2 -38 -16 -60 -31 -22 -15 -58
-55 -81 -88 -26 -40 -45 -82 -54 -123 -10 -50 -11 -75 -1 -131 7 -38 22 -81
33 -95 11 -14 36 -32 55 -40 20 -8 52 -15 72 -15 20 0 64 13 97 29 34 16 80
46 103 66 22 20 51 53 63 73 19 30 24 56 28 137 l5 99 40 8 c22 5 50 13 63 20
12 6 22 18 22 26 0 10 -7 12 -22 8 -13 -3 -42 -9 -66 -12 -35 -6 -48 -2 -81
20 -28 20 -45 25 -64 21 -15 -4 -34 -1 -49 8 -12 8 -36 17 -53 19z m-10 -33
c6 1 24 -8 41 -18 22 -14 33 -30 38 -55 4 -20 11 -36 17 -36 5 0 14 11 19 25
5 14 16 25 24 25 7 0 19 -7 26 -15 7 -8 15 -43 17 -77 3 -35 0 -83 -7 -107 -7
-29 -27 -59 -58 -90 -26 -26 -72 -59 -101 -74 -34 -17 -71 -27 -98 -27 -24 0
-55 8 -70 17 -14 9 -32 32 -39 50 -8 18 -14 54 -14 81 0 27 7 72 16 102 9 29
26 69 39 89 12 20 36 49 52 64 17 15 43 32 59 37 16 4 34 9 39 9z"/>
</g>
</svg>
