<?xml version="1.0" standalone="no"?>
<!DOCTYPE svg PUBLIC "-//W3C//DTD SVG 20010904//EN"
 "http://www.w3.org/TR/2001/REC-SVG-20010904/DTD/svg10.dtd">
<svg version="1.0" xmlns="http://www.w3.org/2000/svg"
 width="157.000000pt" height="169.000000pt" viewBox="0 0 157.000000 169.000000"
 preserveAspectRatio="xMidYMid meet">
<metadata>
Created by potrace 1.16, written by Peter Selinger 2001-2019
</metadata>
<g transform="translate(0.000000,169.000000) scale(0.100000,-0.100000)"
fill="#000000" stroke="none">
<path d="M1476 1690 c-27 0 -36 -4 -36 -16 0 -13 3 -14 15 -4 8 6 19 9 24 6 6
-4 8 -13 4 -21 -3 -9 1 -15 8 -16 8 0 22 -2 32 -4 9 -2 17 2 17 8 0 7 -7 20
-14 30 -8 11 -27 17 -50 17z M1491 1550 c-5 0 -12 -4 -16 -9 -3 -5 -1 -12 5
-16 5 -3 10 -13 10 -22 0 -11 -3 -13 -13 -5 -8 7 -18 7 -27 2 -8 -6 -20 -10
-27 -10 -6 0 -13 10 -15 22 -2 12 -8 23 -14 25 -6 2 -8 -10 -6 -31 4 -32 6
-34 34 -31 23 3 28 0 24 -11 -3 -8 -1 -14 5 -14 5 0 9 -7 7 -16 -2 -12 6 -18
25 -21 15 -2 27 1 27 7 0 5 -7 10 -15 10 -8 0 -15 9 -15 20 0 14 5 18 18 13 9
-4 20 -11 24 -17 4 -6 10 -8 13 -4 4 3 -1 18 -11 32 -9 15 -14 29 -10 33 3 3
6 1 6 -5 0 -7 5 -12 10 -12 6 0 10 9 10 20 0 15 -7 20 -26 20 -14 0 -23 4 -19
10 3 6 2 10 -4 10z M1311 1430 c-6 0 -12 -4 -16 -9 -3 -5 0 -13 6 -17 6 -3 17
-22 25 -40 9 -21 21 -34 32 -34 15 0 18 6 14 33 -3 17 -7 27 -9 20 -3 -8 -10
-7 -24 5 -10 9 -19 22 -19 29 0 7 -4 13 -9 13z M452 1387 c-9 14 -11 14 -21
-6 -7 -12 -22 -26 -34 -31 -21 -8 -20 -9 6 -9 17 -1 27 -6 27 -16 0 -8 6 -15
13 -15 7 0 18 5 25 12 9 9 12 9 12 -1 0 -7 7 -19 16 -28 11 -11 12 -19 5 -26
-8 -8 -3 -16 17 -29 15 -10 30 -18 35 -18 4 0 7 7 7 15 0 8 -6 15 -14 15 -8 0
-17 15 -21 36 -4 22 -2 41 4 47 6 6 11 16 11 21 0 6 -5 5 -12 -2 -7 -7 -18
-12 -26 -12 -8 0 -12 6 -8 15 4 10 -1 15 -14 15 -10 0 -23 7 -28 17z M804
1288 c-5 5 -19 6 -31 4 -13 -2 -20 -8 -17 -16 3 -8 -4 -16 -15 -19 -12 -3 -21
-12 -21 -20 0 -10 7 -13 21 -10 12 3 33 17 47 30 14 13 22 27 16 31z M96 1230
c-9 0 -16 -6 -16 -14 0 -8 -10 -16 -22 -18 -12 -2 -23 -8 -25 -14 -2 -6 13 -9
41 -7 25 2 47 -1 51 -7 4 -6 -5 -10 -19 -10 -14 0 -26 -5 -26 -11 0 -7 14 -8
43 -4 23 4 43 8 44 9 1 1 0 12 -4 24 -4 16 -13 22 -34 22 -21 0 -27 4 -23 15
4 9 0 15 -10 15z M1037 1157 c-4 16 -6 16 -12 -3 -5 -16 -13 -20 -33 -17 -23
3 -24 2 -7 -6 11 -5 29 -18 41 -29 20 -19 22 -19 44 -2 16 12 19 19 11 24 -9
6 -9 11 -1 21 8 10 8 15 -1 21 -7 4 -17 0 -25 -10 -12 -16 -13 -16 -17 1z
M1537 1091 c-2 35 -4 58 -5 51 -1 -7 -6 -10 -12 -7 -5 3 -10 3 -10 0 0 -4 4
-14 9 -24 5 -9 7 -22 3 -27 -4 -6 -15 -13 -24 -17 -10 -3 -18 -11 -18 -17 0
-5 9 -10 19 -10 11 0 21 -6 24 -12 2 -7 7 -10 11 -7 4 4 5 35 3 70z M500 1120
c-5 0 -10 -6 -10 -14 0 -8 6 -16 13 -19 9 -3 9 -7 0 -19 -7 -8 -11 -17 -9 -19
2 -2 6 -22 9 -44 6 -39 6 -39 -8 -15 -8 14 -14 35 -15 48 0 12 -4 22 -9 22 -5
0 -18 3 -28 6 -17 5 -17 5 0 -9 9 -8 17 -20 17 -27 0 -8 -8 -22 -17 -33 -17
-18 -17 -19 0 -28 9 -6 17 -17 17 -24 0 -9 -10 -15 -25 -15 -14 0 -25 -4 -25
-9 0 -5 7 -11 15 -14 8 -4 17 -2 20 3 4 6 10 10 15 10 5 0 4 -11 -2 -25 -6
-14 -22 -28 -35 -31 -13 -4 -23 -10 -23 -14 0 -5 9 -11 20 -15 10 -3 27 -2 37
4 10 5 31 7 46 4 26 -5 27 -7 13 -27 -7 -12 -17 -58 -20 -102 -4 -43 -14 -153
-23 -243 -8 -91 -13 -187 -10 -213 4 -32 2 -48 -5 -48 -6 0 -8 -3 -4 -7 4 -4
17 -8 29 -10 13 -2 32 6 44 16 18 17 21 36 27 138 4 65 12 132 19 150 8 23 14
29 22 23 7 -6 26 -12 44 -14 17 -2 40 -11 50 -20 17 -15 19 -15 32 1 9 11 10
14 2 9 -8 -4 -13 -1 -13 9 0 9 12 18 30 21 16 4 27 11 24 16 -3 5 8 24 24 42
17 20 32 50 36 75 5 34 2 47 -14 68 -11 14 -17 30 -13 36 3 6 1 7 -5 3 -7 -4
-39 -2 -73 4 -52 10 -64 9 -86 -5 -13 -9 -31 -14 -39 -11 -8 3 -14 14 -14 24
0 11 -6 25 -14 31 -7 6 -13 23 -13 37 0 13 7 29 17 34 16 8 18 5 18 -25 0 -18
6 -43 14 -54 10 -14 18 -17 28 -10 13 8 13 10 0 20 -11 8 -5 9 28 7 34 -3 42
0 42 14 0 9 5 20 10 23 6 3 10 10 10 16 0 5 -7 9 -15 9 -8 0 -15 -7 -15 -15 0
-8 -7 -15 -15 -15 -8 0 -15 9 -15 20 0 14 7 20 23 20 13 0 31 6 39 13 9 6 18
26 20 42 2 17 -3 35 -10 40 -9 7 -10 18 -4 35 5 15 5 34 -2 52 -6 15 -14 28
-19 28 -4 0 -5 -4 -2 -10 3 -5 0 -20 -7 -32 -8 -13 -14 -30 -13 -38 0 -8 4
-21 8 -27 5 -7 5 -13 0 -13 -4 0 -1 -5 7 -11 12 -8 9 -9 -11 -5 -18 4 -31 0
-40 -11 -12 -15 -12 -16 5 -10 10 4 25 2 32 -4 8 -6 14 -15 14 -19 0 -4 -12
-12 -26 -19 -24 -11 -30 -9 -55 15 -27 26 -28 26 -53 8 -14 -11 -26 -22 -26
-26 0 -5 -5 -8 -11 -8 -6 0 -9 6 -6 14 3 7 1 18 -4 23 -5 5 -4 19 3 36 7 15
16 27 20 27 4 0 10 -4 13 -10 3 -5 1 -10 -4 -10 -6 0 -11 -7 -11 -16 0 -12 5
-14 18 -9 9 4 27 10 40 12 12 3 22 10 22 15 0 5 6 8 13 5 6 -2 17 3 23 11 8
12 7 22 -5 44 -14 25 -14 29 -1 38 11 7 8 8 -12 6 -15 -1 -33 -8 -41 -14 -11
-9 -18 -8 -32 8 -10 11 -24 20 -30 20 -7 0 -15 7 -19 15 -3 8 -10 15 -16 15z
m171 -450 c11 0 18 -4 14 -9 -3 -5 -1 -12 5 -16 5 -3 10 1 10 9 0 9 7 16 15
16 8 0 15 -6 15 -14 0 -8 -12 -24 -27 -36 -17 -13 -37 -19 -55 -17 -16 1 -28
6 -28 10 0 4 0 11 0 16 0 5 7 17 16 25 8 9 24 16 35 16z M197 1085 c-15 0 -33
-5 -39 -12 -6 -8 -8 -16 -5 -20 4 -3 13 -1 20 5 8 7 16 9 19 7 3 -3 3 -21 1
-40 -3 -27 1 -37 14 -42 10 -4 21 -11 24 -16 3 -4 9 8 12 29 4 22 1 48 -6 63
-8 17 -21 25 -40 26z M376 1039 c-11 9 -15 7 -19 -9 -3 -11 -12 -20 -21 -20
-9 0 -16 5 -16 12 0 7 -11 -3 -25 -22 -14 -19 -25 -40 -25 -47 0 -7 7 -13 15
-13 7 0 19 8 24 18 6 9 11 11 11 5 0 -7 7 -13 15 -13 9 0 12 6 9 15 -4 10 3
18 20 25 14 5 26 16 26 24 0 7 -6 19 -14 25z M788 1020 c-5 0 -8 -4 -8 -9 0
-5 6 -11 12 -13 9 -3 8 -9 -5 -22 -9 -10 -17 -23 -17 -31 0 -7 8 -15 18 -17 9
-2 33 -4 52 -4 23 1 36 6 38 16 2 12 -6 15 -38 12 -23 -2 -40 0 -40 6 0 6 5
12 11 14 8 3 8 10 -2 26 -8 12 -17 22 -21 22z M194 970 c-7 0 -15 -3 -17 -7
-2 -5 -7 -20 -11 -35 -4 -17 -13 -28 -24 -28 -9 0 -23 -4 -31 -9 -9 -6 -11
-18 -7 -35 6 -23 9 -24 31 -14 14 6 25 15 25 20 0 4 7 8 15 8 8 0 15 5 15 10
0 6 -6 10 -12 10 -9 1 -8 5 3 13 9 7 18 24 21 40 4 18 1 27 -8 27z M46 919
c-14 12 -16 10 -16 -18 0 -17 6 -40 13 -51 10 -17 9 -22 -1 -29 -8 -5 -12 -16
-10 -26 1 -10 8 -20 15 -22 6 -2 15 6 19 19 4 13 7 36 6 53 0 16 -8 35 -17 41
-11 8 -12 13 -4 16 7 2 6 8 -5 17z M1533 853 c-4 2 -17 -4 -28 -15 -11 -11
-19 -25 -17 -32 1 -7 -9 -18 -23 -24 -14 -6 -25 -17 -25 -23 0 -7 11 -9 30 -6
16 4 32 2 35 -3 4 -6 10 -8 15 -5 5 3 6 21 3 40 -3 20 -1 41 6 49 7 8 8 16 4
19z M309 810 c-6 0 -8 -7 -5 -16 3 -8 3 -26 0 -40 -3 -13 -9 -24 -14 -24 -4 0
-12 10 -18 23 -11 22 -11 22 -11 0 -1 -13 -5 -23 -11 -23 -5 0 -10 5 -10 10 0
6 -13 10 -30 10 -24 0 -30 -4 -30 -22 0 -13 4 -18 8 -12 4 7 32 8 75 4 49 -4
71 -2 79 7 8 10 6 13 -6 13 -9 0 -16 4 -16 9 0 5 7 11 15 15 8 3 15 10 15 16
0 5 -7 10 -15 10 -8 0 -15 5 -15 10 0 6 -5 10 -11 10z M245 700 c-14 0 -25 -2
-25 -5 0 -3 12 -17 27 -30 28 -23 28 -23 -10 -30 -20 -4 -37 -12 -37 -17 0 -6
14 -8 35 -4 31 6 35 5 35 -14 0 -13 5 -20 13 -17 6 2 11 12 11 21 -1 11 6 16
22 16 13 0 24 5 24 10 0 6 -10 10 -22 10 -19 0 -20 2 -8 10 13 9 13 10 0 10
-8 0 -21 9 -28 20 -7 11 -23 20 -37 20z M1501 680 c-6 0 -12 -3 -12 -7 -1 -5
-1 -12 0 -17 1 -5 -4 -6 -11 -4 -9 4 -13 -6 -15 -33 -1 -30 5 -46 28 -70 16
-17 29 -37 29 -45 0 -8 5 -14 10 -14 6 0 11 15 11 33 1 17 1 55 -1 82 -1 28
-4 52 -7 55 -3 3 -8 -1 -10 -7 -3 -7 -8 -13 -13 -13 -4 0 -6 9 -3 20 3 11 0
20 -6 20z M1245 647 c-30 0 -30 0 3 -4 19 -3 32 -10 32 -19 0 -8 -4 -14 -9
-14 -5 0 -12 -10 -16 -22 -4 -13 -8 -36 -9 -53 -1 -28 -4 -30 -49 -35 -48 -5
-48 -5 -16 -19 26 -11 33 -11 40 0 5 8 7 -2 6 -26 -1 -22 -6 -44 -12 -48 -5
-5 4 -6 20 -2 17 3 36 14 44 23 10 12 15 14 18 5 3 -7 11 -13 19 -13 9 0 12
-5 9 -11 -4 -5 -4 -21 -1 -33 4 -17 13 -23 31 -23 14 0 25 4 25 9 0 5 -4 7 -9
3 -6 -3 -11 12 -13 32 -2 31 -7 39 -25 41 -13 2 -23 10 -23 18 0 8 -5 14 -12
14 -6 0 -20 -8 -31 -17 -20 -17 -20 -17 -13 2 5 11 11 28 13 37 4 14 9 15 25
7 10 -6 27 -8 36 -6 13 3 10 7 -13 17 -16 8 -32 15 -34 17 -2 1 2 9 9 18 9 11
9 15 1 15 -8 0 -9 5 -2 19 6 10 7 21 4 25 -3 3 -3 6 2 6 4 0 14 -8 21 -17 11
-16 13 -15 11 12 -2 22 -9 31 -27 36 -14 4 -38 7 -55 6z M1471 550 c-4 0 -11
-3 -14 -7 -4 -3 -7 -14 -7 -24 0 -11 -6 -16 -17 -13 -10 2 -31 0 -48 -5 -27
-8 -23 -9 28 -10 31 -1 57 -5 57 -11 0 -5 6 -10 14 -10 8 0 18 -4 21 -10 3 -5
-1 -20 -10 -34 -10 -15 -14 -33 -9 -50 5 -20 2 -26 -10 -26 -8 0 -23 -11 -32
-25 -12 -19 -25 -25 -50 -25 -19 0 -34 -4 -34 -10 0 -5 15 -10 34 -10 19 0 41
-3 50 -6 12 -4 16 0 16 15 0 12 6 21 14 21 8 0 18 -4 21 -10 3 -5 15 -10 26
-10 16 0 19 7 19 41 0 24 -4 38 -10 34 -5 -3 -10 1 -10 9 0 9 5 16 10 16 6 0
9 18 8 43 -2 23 -7 45 -13 49 -5 4 -21 8 -34 8 -21 0 -23 3 -17 30 3 17 2 30
-3 30z M174 490 c-8 0 -14 -7 -14 -15 0 -11 11 -15 40 -15 22 0 40 -4 40 -10
0 -5 -8 -10 -17 -10 -10 0 -28 -12 -40 -27 -14 -17 -23 -22 -22 -13 1 8 1 24
0 35 -2 19 -3 19 -18 -2 -9 -13 -26 -23 -39 -23 -13 0 -24 -3 -24 -8 0 -4 15
-13 33 -20 17 -7 40 -18 49 -23 10 -5 20 -9 22 -9 3 0 6 12 8 28 2 20 9 28 28
30 14 2 31 9 38 14 6 6 12 21 12 35 0 22 -3 23 -34 18 -20 -4 -36 -2 -40 4 -4
6 -14 11 -22 11z M75 369 c-6 6 -17 6 -27 0 -12 -7 -18 -22 -18 -46 0 -20 3
-33 7 -30 3 4 12 2 20 -4 10 -9 13 -6 13 14 0 14 -6 28 -12 30 -7 3 -1 6 13 6
19 1 28 -5 33 -21 6 -22 7 -22 21 -4 12 16 12 21 0 32 -7 8 -20 14 -27 14 -8
0 -18 4 -23 9z M1073 320 c-13 0 -23 -4 -23 -10 0 -5 6 -13 14 -17 8 -4 15
-17 17 -27 2 -11 11 -21 19 -23 13 -4 13 -3 0 6 -12 9 -11 11 7 11 12 0 25 5
28 10 4 6 -4 19 -17 30 -13 11 -33 19 -45 20z M81 263 c-15 4 -20 -5 -30 -45
-6 -27 -11 -54 -11 -59 0 -5 8 -9 18 -9 9 0 23 4 30 9 11 6 10 11 -3 24 -14
15 -14 19 -1 46 14 27 14 29 -3 34z M281 264 c-4 3 -12 2 -17 -2 -6 -4 -14
-16 -19 -27 -8 -19 -9 -19 -12 3 -3 12 -10 22 -18 22 -7 0 -15 -10 -18 -22 -4
-12 -5 -23 -4 -24 1 -2 20 -4 41 -6 35 -3 40 0 47 24 4 16 4 30 0 32z M1164
270 c-9 0 -12 -11 -10 -35 2 -19 8 -40 13 -47 7 -8 7 -22 2 -35 -5 -14 -17
-23 -30 -23 -11 0 -19 -5 -17 -12 2 -6 21 -17 41 -24 33 -11 37 -11 37 3 0 9
8 22 17 29 13 9 22 9 30 2 7 -6 13 -15 13 -21 0 -5 -10 -18 -22 -28 -11 -11
-17 -19 -11 -19 5 0 18 9 28 20 14 15 22 17 37 9 10 -6 24 -8 31 -5 9 3 9 5 0
5 -7 1 -22 9 -33 18 -11 10 -20 28 -20 40 0 13 -4 23 -9 23 -6 0 -13 -4 -16
-10 -3 -5 -11 -10 -17 -10 -5 0 -7 7 -4 15 3 9 1 15 -7 14 -6 -1 -18 -1 -26 0
-9 1 -11 9 -8 23 4 12 4 33 1 45 -4 13 -12 23 -20 23z M813 208 c-13 2 -26 -4
-32 -16 -6 -11 -7 -23 -3 -28 4 -5 0 -3 -8 3 -9 7 -21 8 -29 3 -11 -6 -6 -16
22 -45 21 -21 38 -32 42 -25 3 5 -1 13 -9 16 -9 3 -16 12 -16 20 0 8 5 14 10
14 6 0 10 6 10 14 0 8 5 18 11 21 6 4 13 4 17 0 3 -3 0 -10 -8 -15 -13 -8 -12
-10 3 -10 13 0 18 6 15 23 -2 14 -11 23 -25 25z M292 188 c-16 2 -32 -1 -35
-5 -3 -5 -3 -14 1 -20 4 -6 27 -14 52 -18 44 -7 44 -7 28 16 -9 15 -27 25 -46
27z M192 149 c-4 0 -15 -9 -24 -20 -10 -10 -18 -23 -18 -29 0 -5 -8 -10 -17
-10 -17 -1 -17 -1 0 -11 11 -6 17 -22 17 -44 0 -19 4 -35 9 -35 6 0 13 5 16
10 3 6 16 10 28 11 22 0 22 0 1 11 -15 7 -20 16 -16 34 3 17 0 24 -12 24 -9 0
-16 5 -16 11 0 5 5 7 11 4 6 -4 16 1 24 11 7 11 11 22 9 26 -3 5 -8 8 -12 7z
M722 95 c-6 11 -12 14 -12 8 0 -7 -8 -13 -17 -14 -12 0 -13 -2 -5 -6 9 -4 10
-9 2 -18 -8 -10 -4 -14 16 -19 21 -6 24 -9 13 -22 -10 -12 -9 -13 5 -8 9 3 16
10 16 15 0 5 6 9 13 9 6 0 23 -9 37 -20 14 -11 34 -20 45 -19 18 0 18 1 -5 19
-14 11 -33 27 -42 36 -9 9 -21 14 -25 11 -5 -3 -14 -3 -19 1 -6 4 -16 16 -22
27z"/>
</g>
</svg>
