<?xml version="1.0" standalone="no"?>
<!DOCTYPE svg PUBLIC "-//W3C//DTD SVG 20010904//EN"
 "http://www.w3.org/TR/2001/REC-SVG-20010904/DTD/svg10.dtd">
<svg version="1.0" xmlns="http://www.w3.org/2000/svg"
 width="157.000000pt" height="171.000000pt" viewBox="0 0 157.000000 171.000000"
 preserveAspectRatio="xMidYMid meet">
<metadata>
Created by potrace 1.16, written by Peter Selinger 2001-2019
</metadata>
<g transform="translate(0.000000,171.000000) scale(0.100000,-0.100000)"
fill="#000000" stroke="none">
<path d="M481 1300 c-24 0 -54 -11 -83 -29 -25 -16 -65 -46 -87 -66 -23 -21
-41 -44 -41 -51 0 -8 7 -17 15 -21 9 -3 47 9 84 26 38 17 94 37 124 43 45 10
58 9 72 -2 9 -8 36 -53 60 -100 24 -47 53 -115 64 -150 16 -48 21 -89 21 -170
0 -69 4 -110 12 -118 7 -7 25 -12 40 -12 22 0 29 6 35 28 5 15 8 54 7 87 -1
33 -9 84 -18 114 -11 39 -16 93 -16 187 0 102 3 134 14 143 10 8 84 14 220 18
152 5 206 9 210 19 3 7 -2 18 -11 25 -10 9 -52 13 -132 14 -64 0 -195 -3 -291
-8 -147 -6 -183 -5 -219 8 -24 8 -60 15 -80 15z m202 -92 c27 -3 32 -6 30 -28
-2 -14 -6 -36 -9 -50 -6 -24 -7 -23 -29 20 -13 25 -24 49 -25 53 0 5 15 7 33
5z"/>
</g>
</svg>
