<?xml version="1.0" standalone="no"?>
<!DOCTYPE svg PUBLIC "-//W3C//DTD SVG 20010904//EN"
 "http://www.w3.org/TR/2001/REC-SVG-20010904/DTD/svg10.dtd">
<svg version="1.0" xmlns="http://www.w3.org/2000/svg"
 width="154.000000pt" height="168.000000pt" viewBox="0 0 154.000000 168.000000"
 preserveAspectRatio="xMidYMid meet">
<metadata>
Created by potrace 1.16, written by Peter Selinger 2001-2019
</metadata>
<g transform="translate(0.000000,168.000000) scale(0.100000,-0.100000)"
fill="#000000" stroke="none">
<path d="M520 1610 c-11 0 -22 -6 -24 -12 -3 -7 -8 -60 -12 -118 -4 -58 -8
-170 -9 -250 -1 -85 -11 -209 -24 -300 -15 -112 -24 -240 -30 -460 -7 -273 -6
-306 8 -319 12 -10 44 -12 141 -7 69 3 141 9 160 14 25 6 35 13 35 27 0 16 -6
20 -30 19 -16 -1 -70 -5 -120 -9 -49 -3 -96 -2 -103 3 -7 4 -17 35 -22 68 -6
32 -10 158 -10 279 0 121 4 256 10 300 5 44 17 125 26 180 9 55 20 172 24 260
4 88 11 175 15 193 4 17 13 32 19 32 6 0 65 -6 131 -14 66 -8 149 -13 184 -11
40 2 69 8 79 18 13 13 13 19 2 31 -10 13 -34 16 -109 16 -53 0 -133 7 -178 14
-45 8 -95 22 -112 30 -16 9 -39 16 -51 16z"/>
</g>
</svg>
