<?xml version="1.0" standalone="no"?>
<!DOCTYPE svg PUBLIC "-//W3C//DTD SVG 20010904//EN"
 "http://www.w3.org/TR/2001/REC-SVG-20010904/DTD/svg10.dtd">
<svg version="1.0" xmlns="http://www.w3.org/2000/svg"
 width="157.000000pt" height="171.000000pt" viewBox="0 0 157.000000 171.000000"
 preserveAspectRatio="xMidYMid meet">
<metadata>
Created by potrace 1.16, written by Peter Selinger 2001-2019
</metadata>
<g transform="translate(0.000000,171.000000) scale(0.100000,-0.100000)"
fill="#000000" stroke="none">
<path d="M684 919 c-5 0 -29 -8 -53 -18 -23 -9 -63 -34 -88 -54 -24 -20 -67
-65 -94 -101 -27 -36 -49 -74 -49 -86 0 -14 6 -20 24 -20 17 0 36 16 67 56 23
30 63 73 87 95 25 21 51 39 58 39 9 0 14 -12 14 -32 0 -18 -7 -64 -16 -103 -8
-38 -18 -86 -21 -106 -4 -31 -2 -38 14 -43 11 -4 27 -4 36 -1 8 4 29 33 47 66
18 34 46 76 63 95 16 20 49 48 73 65 23 16 45 29 47 29 2 0 7 -46 9 -102 4
-66 12 -121 24 -152 11 -27 24 -51 29 -53 6 -1 17 1 25 7 12 7 13 19 2 79 -7
39 -9 102 -6 143 4 49 1 86 -8 112 -7 21 -20 44 -29 49 -12 8 -30 3 -70 -18
-30 -15 -70 -40 -90 -56 -20 -16 -40 -29 -43 -29 -3 0 -6 24 -6 53 0 40 -5 58
-18 70 -10 10 -23 17 -28 16z"/>
</g>
</svg>
