<?xml version="1.0" standalone="no"?>
<!DOCTYPE svg PUBLIC "-//W3C//DTD SVG 20010904//EN"
 "http://www.w3.org/TR/2001/REC-SVG-20010904/DTD/svg10.dtd">
<svg version="1.0" xmlns="http://www.w3.org/2000/svg"
 width="166.000000pt" height="182.000000pt" viewBox="0 0 166.000000 182.000000"
 preserveAspectRatio="xMidYMid meet">
<metadata>
Created by potrace 1.16, written by Peter Selinger 2001-2019
</metadata>
<g transform="translate(0.000000,182.000000) scale(0.100000,-0.100000)"
fill="#000000" stroke="none">
<path d="M845 1526 c-18 3 -35 0 -42 -7 -7 -7 -13 -22 -13 -32 0 -11 14 -35
31 -55 29 -33 31 -38 24 -91 -3 -31 -11 -73 -17 -93 -6 -21 -19 -45 -29 -54
-17 -15 -20 -15 -44 0 -14 9 -31 28 -37 41 -6 13 -17 26 -25 29 -8 4 -19 4
-24 0 -5 -3 -9 -16 -9 -29 0 -13 14 -40 30 -59 17 -19 47 -40 66 -46 31 -11
39 -9 69 11 18 13 40 35 49 50 8 14 22 53 31 85 8 32 15 89 15 126 0 55 -4 71
-22 92 -13 15 -36 29 -53 32z M570 1520 c-11 0 -21 -3 -23 -7 -3 -5 -8 -30
-12 -57 -6 -45 -5 -51 20 -70 22 -18 25 -26 19 -56 -5 -25 -25 -52 -67 -92
-38 -38 -57 -63 -53 -73 3 -8 17 -15 31 -15 16 0 41 16 73 48 27 26 57 62 66
81 10 18 20 57 23 87 5 48 2 58 -27 104 -19 30 -39 50 -50 50z"/>
</g>
</svg>
