<?xml version="1.0" standalone="no"?>
<!DOCTYPE svg PUBLIC "-//W3C//DTD SVG 20010904//EN"
 "http://www.w3.org/TR/2001/REC-SVG-20010904/DTD/svg10.dtd">
<svg version="1.0" xmlns="http://www.w3.org/2000/svg"
 width="158.000000pt" height="172.000000pt" viewBox="0 0 158.000000 172.000000"
 preserveAspectRatio="xMidYMid meet">
<metadata>
Created by potrace 1.16, written by Peter Selinger 2001-2019
</metadata>
<g transform="translate(0.000000,172.000000) scale(0.100000,-0.100000)"
fill="#000000" stroke="none">
<path d="M727 1185 c-34 2 -75 1 -92 -4 -16 -4 -48 -17 -70 -29 -22 -11 -58
-37 -79 -56 -39 -36 -39 -36 -33 -97 4 -33 16 -81 26 -107 11 -26 24 -71 30
-100 6 -29 11 -62 11 -73 0 -13 -8 -23 -21 -26 -16 -5 -20 -12 -16 -32 3 -14
12 -46 20 -71 9 -25 19 -58 24 -75 7 -23 15 -31 38 -33 17 -2 49 -19 72 -38
22 -18 53 -38 68 -44 14 -5 47 -10 73 -10 43 0 50 4 103 59 45 46 62 72 74
116 12 39 15 71 10 108 -6 44 -14 59 -50 93 -24 23 -59 47 -78 53 -19 7 -38
18 -41 26 -3 8 16 35 44 64 38 39 50 60 55 95 4 24 4 55 0 67 -4 13 -17 37
-29 52 -12 16 -34 35 -49 43 -15 8 -56 17 -90 19z m-8 -56 c8 1 34 -8 58 -20
33 -16 44 -27 48 -52 4 -18 2 -43 -3 -57 -6 -14 -35 -50 -66 -80 -31 -30 -56
-62 -56 -71 0 -9 8 -23 18 -31 9 -9 45 -30 78 -47 34 -16 71 -42 83 -57 14
-17 21 -41 21 -68 0 -22 -11 -64 -24 -93 -16 -33 -38 -60 -62 -77 -21 -14 -50
-26 -64 -26 -14 0 -39 8 -55 18 -17 11 -44 33 -62 50 -25 26 -32 41 -35 84 -2
29 0 133 6 231 6 124 6 188 -2 213 -9 32 -8 36 14 51 14 8 39 19 57 23 17 5
38 8 46 9z"/>
</g>
</svg>
