<?xml version="1.0" standalone="no"?>
<!DOCTYPE svg PUBLIC "-//W3C//DTD SVG 20010904//EN"
 "http://www.w3.org/TR/2001/REC-SVG-20010904/DTD/svg10.dtd">
<svg version="1.0" xmlns="http://www.w3.org/2000/svg"
 width="153.000000pt" height="168.000000pt" viewBox="0 0 153.000000 168.000000"
 preserveAspectRatio="xMidYMid meet">
<metadata>
Created by potrace 1.16, written by Peter Selinger 2001-2019
</metadata>
<g transform="translate(0.000000,168.000000) scale(0.100000,-0.100000)"
fill="#000000" stroke="none">
<path d="M881 1288 c-8 3 -43 -26 -81 -66 -36 -39 -87 -101 -112 -139 -25 -37
-62 -100 -81 -139 -20 -39 -41 -102 -48 -139 -6 -36 -9 -91 -7 -122 4 -44 11
-60 35 -85 20 -19 46 -33 74 -38 25 -5 68 -4 99 2 30 5 77 22 104 36 26 15 63
44 82 66 28 33 34 48 34 86 0 36 -5 51 -22 66 -13 11 -35 28 -50 37 -16 10
-50 19 -76 21 -32 3 -61 -1 -88 -13 -22 -10 -56 -32 -76 -50 -20 -17 -39 -31
-43 -31 -4 0 -5 18 -2 40 3 22 19 69 36 106 17 36 40 77 51 92 12 14 34 32 49
38 16 7 49 45 85 97 36 55 56 94 54 108 -2 13 -9 24 -17 27z m-68 -458 c21 0
51 -7 67 -15 16 -8 34 -24 40 -34 5 -11 10 -29 10 -40 0 -11 -14 -36 -30 -55
-17 -19 -50 -44 -74 -55 -28 -14 -62 -21 -103 -21 -44 0 -67 5 -83 18 -17 14
-23 30 -24 63 -1 36 2 44 19 47 11 2 34 16 50 32 17 15 44 35 60 43 17 9 47
16 68 17z"/>
</g>
</svg>
