<?xml version="1.0" standalone="no"?>
<!DOCTYPE svg PUBLIC "-//W3C//DTD SVG 20010904//EN"
 "http://www.w3.org/TR/2001/REC-SVG-20010904/DTD/svg10.dtd">
<svg version="1.0" xmlns="http://www.w3.org/2000/svg"
 width="166.000000pt" height="181.000000pt" viewBox="0 0 166.000000 181.000000"
 preserveAspectRatio="xMidYMid meet">
<metadata>
Created by potrace 1.16, written by Peter Selinger 2001-2019
</metadata>
<g transform="translate(0.000000,181.000000) scale(0.100000,-0.100000)"
fill="#000000" stroke="none">
<path d="M852 1490 c-11 0 -45 -38 -88 -97 -39 -54 -76 -107 -81 -118 -6 -11
-25 -60 -43 -110 -17 -49 -39 -119 -48 -155 l-17 -65 -45 -8 c-25 -4 -55 -10
-68 -13 -17 -3 -22 -11 -20 -27 2 -18 12 -23 55 -30 28 -5 54 -14 56 -21 3 -8
2 -30 -3 -51 -5 -20 -11 -74 -15 -119 -4 -52 -1 -121 9 -192 8 -61 23 -129 33
-149 10 -21 25 -43 35 -49 12 -7 21 -6 32 3 9 8 16 22 16 33 0 10 -7 32 -15
48 -8 16 -22 75 -30 132 -10 67 -14 129 -10 178 4 41 9 83 11 93 3 10 15 17
29 17 20 0 25 6 30 38 4 20 11 51 16 68 8 25 18 33 52 43 23 7 52 16 65 21 12
6 33 15 47 22 14 6 25 20 25 30 0 10 -6 21 -14 24 -7 3 -41 -5 -75 -17 -34
-11 -65 -19 -68 -16 -2 3 3 41 12 84 11 53 38 123 86 220 60 120 69 145 59
162 -6 12 -19 21 -28 21z"/>
</g>
</svg>
