<?xml version="1.0" standalone="no"?>
<!DOCTYPE svg PUBLIC "-//W3C//DTD SVG 20010904//EN"
 "http://www.w3.org/TR/2001/REC-SVG-20010904/DTD/svg10.dtd">
<svg version="1.0" xmlns="http://www.w3.org/2000/svg"
 width="157.000000pt" height="169.000000pt" viewBox="0 0 157.000000 169.000000"
 preserveAspectRatio="xMidYMid meet">
<metadata>
Created by potrace 1.16, written by Peter Selinger 2001-2019
</metadata>
<g transform="translate(0.000000,169.000000) scale(0.100000,-0.100000)"
fill="#000000" stroke="none">
<path d="M534 810 c-7 0 -15 -3 -18 -8 -2 -4 -10 -70 -16 -147 -6 -77 -15
-171 -20 -210 -5 -38 -10 -96 -10 -127 0 -31 3 -63 6 -72 4 -9 18 -16 35 -16
24 0 29 5 33 33 3 17 7 77 10 132 3 55 8 109 11 120 5 17 15 20 73 20 49 0 76
5 101 20 19 11 43 32 54 47 12 16 21 44 21 69 1 34 -4 45 -26 62 -15 11 -48
22 -78 25 -41 4 -60 0 -89 -16 -21 -12 -41 -19 -45 -15 -3 3 -6 18 -6 33 0 14
-5 31 -12 38 -7 7 -18 12 -24 12z m189 -118 c10 -3 17 -14 17 -29 0 -13 -12
-35 -26 -48 -20 -18 -38 -25 -69 -25 -23 0 -44 3 -48 6 -3 4 0 18 7 33 8 14
22 34 32 43 11 9 30 18 44 20 14 2 33 2 43 0z"/>
</g>
</svg>
