<?xml version="1.0" standalone="no"?>
<!DOCTYPE svg PUBLIC "-//W3C//DTD SVG 20010904//EN"
 "http://www.w3.org/TR/2001/REC-SVG-20010904/DTD/svg10.dtd">
<svg version="1.0" xmlns="http://www.w3.org/2000/svg"
 width="153.000000pt" height="166.000000pt" viewBox="0 0 153.000000 166.000000"
 preserveAspectRatio="xMidYMid meet">
<metadata>
Created by potrace 1.16, written by Peter Selinger 2001-2019
</metadata>
<g transform="translate(0.000000,166.000000) scale(0.100000,-0.100000)"
fill="#000000" stroke="none">
<path d="M781 1229 c-20 0 -45 -4 -56 -9 -11 -4 -37 -25 -57 -47 -21 -21 -40
-52 -44 -69 -4 -21 -1 -34 10 -43 13 -11 17 -10 21 5 3 11 14 34 23 53 9 19
30 44 45 55 21 15 43 21 82 21 43 0 59 -5 79 -24 21 -20 26 -34 26 -73 0 -27
-7 -63 -16 -81 -9 -18 -30 -49 -47 -70 -16 -21 -47 -47 -68 -58 -22 -10 -39
-24 -39 -29 0 -5 12 -12 28 -15 15 -3 45 -15 67 -26 22 -10 50 -34 63 -52 13
-20 22 -48 22 -71 0 -20 -5 -46 -11 -58 -6 -11 -31 -29 -55 -40 -25 -10 -76
-22 -115 -25 -46 -4 -67 -9 -60 -16 5 -5 45 -8 93 -5 51 3 96 11 116 22 18 9
42 31 52 49 11 18 20 47 20 65 0 18 -6 45 -14 61 -8 15 -33 44 -55 64 -23 20
-46 37 -51 37 -6 0 -10 5 -10 11 0 6 11 25 26 41 14 17 36 53 50 81 14 27 28
74 31 104 5 50 4 56 -23 84 -16 17 -44 37 -63 45 -18 8 -50 14 -70 13z"/>
</g>
</svg>
