<?xml version="1.0" standalone="no"?>
<!DOCTYPE svg PUBLIC "-//W3C//DTD SVG 20010904//EN"
 "http://www.w3.org/TR/2001/REC-SVG-20010904/DTD/svg10.dtd">
<svg version="1.0" xmlns="http://www.w3.org/2000/svg"
 width="155.000000pt" height="170.000000pt" viewBox="0 0 155.000000 170.000000"
 preserveAspectRatio="xMidYMid meet">
<metadata>
Created by potrace 1.16, written by Peter Selinger 2001-2019
</metadata>
<g transform="translate(0.000000,170.000000) scale(0.100000,-0.100000)"
fill="#000000" stroke="none">
<path d="M680 1160 c-10 0 -27 -15 -38 -32 -11 -18 -37 -76 -57 -128 -20 -52
-48 -135 -61 -185 -19 -66 -24 -107 -21 -155 2 -36 11 -80 21 -97 9 -18 30
-39 46 -48 16 -8 45 -15 64 -15 20 0 78 7 128 16 51 9 96 18 99 19 3 2 36 9
72 15 37 6 83 18 102 27 22 11 34 23 32 33 -2 11 -14 14 -47 12 -25 -1 -92
-12 -149 -23 -57 -12 -136 -24 -175 -28 -39 -3 -78 -5 -88 -3 -9 2 -21 16 -28
31 -6 16 -12 53 -12 82 -1 30 9 88 21 129 13 41 48 130 78 198 45 100 53 125
43 137 -7 8 -21 15 -30 15z"/>
</g>
</svg>
