<?xml version="1.0" standalone="no"?>
<!DOCTYPE svg PUBLIC "-//W3C//DTD SVG 20010904//EN"
 "http://www.w3.org/TR/2001/REC-SVG-20010904/DTD/svg10.dtd">
<svg version="1.0" xmlns="http://www.w3.org/2000/svg"
 width="153.000000pt" height="168.000000pt" viewBox="0 0 153.000000 168.000000"
 preserveAspectRatio="xMidYMid meet">
<metadata>
Created by potrace 1.16, written by Peter Selinger 2001-2019
</metadata>
<g transform="translate(0.000000,168.000000) scale(0.100000,-0.100000)"
fill="#000000" stroke="none">
<path d="M789 1320 c-11 0 -20 -3 -20 -7 -1 -5 -2 -53 -3 -108 -2 -55 -8 -165
-14 -245 -6 -80 -16 -233 -22 -340 -5 -107 -12 -259 -14 -337 -4 -115 -2 -144
10 -153 11 -10 17 -10 30 1 13 11 15 40 13 198 -1 102 3 296 10 431 6 135 16
283 22 330 6 47 17 100 26 117 9 21 13 43 8 60 -3 16 -11 34 -17 40 -6 7 -19
13 -29 13z"/>
</g>
</svg>
