<?xml version="1.0" standalone="no"?>
<!DOCTYPE svg PUBLIC "-//W3C//DTD SVG 20010904//EN"
 "http://www.w3.org/TR/2001/REC-SVG-20010904/DTD/svg10.dtd">
<svg version="1.0" xmlns="http://www.w3.org/2000/svg"
 width="157.000000pt" height="172.000000pt" viewBox="0 0 157.000000 172.000000"
 preserveAspectRatio="xMidYMid meet">
<metadata>
Created by potrace 1.16, written by Peter Selinger 2001-2019
</metadata>
<g transform="translate(0.000000,172.000000) scale(0.100000,-0.100000)"
fill="#000000" stroke="none">
<path d="M969 1270 c-9 0 -40 -28 -68 -62 -31 -38 -83 -127 -131 -223 -44 -88
-94 -198 -111 -245 -21 -59 -31 -105 -32 -150 -1 -36 4 -78 11 -95 7 -16 29
-41 49 -55 31 -21 48 -25 112 -25 68 0 84 4 152 38 41 22 111 64 154 95 43 32
83 65 89 74 6 9 7 20 4 24 -4 3 -58 -26 -121 -65 -62 -39 -141 -82 -176 -96
-51 -21 -72 -24 -114 -19 -29 3 -62 13 -74 20 -13 8 -27 32 -34 56 -9 35 -8
54 5 101 9 32 23 69 31 81 9 13 33 28 54 35 28 8 57 30 96 74 31 34 69 84 85
112 15 27 35 74 44 104 9 30 16 87 16 126 0 42 -5 76 -12 83 -7 7 -20 12 -29
12z m-21 -142 c2 -19 -6 -59 -18 -90 -11 -30 -34 -76 -51 -101 -17 -26 -43
-60 -59 -77 -15 -16 -33 -30 -39 -30 -6 0 -11 7 -11 15 0 9 23 61 51 117 28
56 60 115 72 132 12 17 29 39 37 50 14 17 15 16 18 -16z"/>
</g>
</svg>
