<?xml version="1.0" standalone="no"?>
<!DOCTYPE svg PUBLIC "-//W3C//DTD SVG 20010904//EN"
 "http://www.w3.org/TR/2001/REC-SVG-20010904/DTD/svg10.dtd">
<svg version="1.0" xmlns="http://www.w3.org/2000/svg"
 width="159.000000pt" height="172.000000pt" viewBox="0 0 159.000000 172.000000"
 preserveAspectRatio="xMidYMid meet">
<metadata>
Created by potrace 1.16, written by Peter Selinger 2001-2019
</metadata>
<g transform="translate(0.000000,172.000000) scale(0.100000,-0.100000)"
fill="#000000" stroke="none">
<path d="M921 1570 c-15 0 -20 -10 -26 -42 -3 -24 -7 -68 -8 -98 -2 -52 -1
-55 23 -55 24 0 25 3 33 85 4 46 5 90 2 97 -2 7 -13 13 -24 13z M760 1560
c-10 0 -20 -7 -24 -15 -3 -8 -3 -22 1 -31 3 -8 0 -26 -6 -38 -7 -12 -11 -37
-9 -56 2 -19 11 -38 23 -46 12 -8 26 -10 34 -5 10 6 15 33 16 88 1 43 -3 84
-8 91 -5 6 -17 12 -27 12z M855 1297 c-73 4 -86 1 -142 -26 -34 -16 -86 -47
-115 -69 -29 -22 -62 -50 -74 -63 -11 -13 -30 -40 -41 -61 -12 -20 -27 -70
-34 -112 -6 -42 -9 -105 -6 -139 3 -34 12 -87 21 -118 8 -31 23 -74 34 -95 11
-22 31 -51 44 -65 14 -14 36 -34 51 -43 15 -11 55 -20 99 -23 47 -3 103 0 156
10 46 9 107 27 135 40 29 13 66 38 84 55 17 18 39 55 49 84 14 42 16 74 11
172 -3 72 -12 139 -21 165 -9 25 -27 59 -40 76 -20 26 -23 39 -19 78 5 38 2
52 -13 68 -11 12 -37 30 -59 42 -28 14 -65 22 -120 24z m10 -54 c17 -3 47 -12
68 -20 20 -8 37 -19 37 -24 0 -5 -3 -9 -6 -9 -3 0 -34 7 -67 16 -42 11 -79 14
-117 9 -30 -4 -52 -4 -48 1 4 4 29 13 55 20 27 7 62 10 78 7z m-54 -77 c31 -2
77 -13 103 -24 40 -18 46 -25 46 -51 0 -27 3 -31 29 -31 24 0 31 -6 44 -39 9
-22 21 -69 28 -106 6 -37 9 -100 7 -139 -3 -46 -13 -86 -27 -114 -18 -36 -32
-48 -85 -71 -34 -16 -86 -34 -115 -40 -28 -6 -74 -11 -100 -11 -26 0 -63 5
-82 11 -19 7 -44 21 -56 32 -12 11 -37 54 -55 96 -31 71 -33 83 -33 191 0 105
3 120 28 172 16 32 41 67 58 78 16 12 57 28 91 35 35 8 88 13 119 11z"/>
</g>
</svg>
