<?xml version="1.0" standalone="no"?>
<!DOCTYPE svg PUBLIC "-//W3C//DTD SVG 20010904//EN"
 "http://www.w3.org/TR/2001/REC-SVG-20010904/DTD/svg10.dtd">
<svg version="1.0" xmlns="http://www.w3.org/2000/svg"
 width="155.000000pt" height="168.000000pt" viewBox="0 0 155.000000 168.000000"
 preserveAspectRatio="xMidYMid meet">
<metadata>
Created by potrace 1.16, written by Peter Selinger 2001-2019
</metadata>
<g transform="translate(0.000000,168.000000) scale(0.100000,-0.100000)"
fill="#000000" stroke="none">
<path d="M1168 1522 c-7 3 -38 -1 -68 -8 -30 -7 -113 -22 -185 -34 -71 -12
-154 -20 -185 -18 -49 3 -55 1 -55 -17 0 -17 8 -20 59 -23 33 -2 131 9 219 23
87 15 161 24 165 21 3 -4 0 -21 -7 -39 -7 -18 -19 -66 -27 -107 -7 -41 -18
-183 -24 -315 -5 -132 -14 -316 -20 -410 -6 -93 -17 -219 -25 -280 -12 -88
-19 -113 -36 -128 -17 -14 -41 -17 -123 -17 -55 0 -141 7 -191 16 -49 9 -104
25 -122 36 -26 16 -40 18 -75 11 -27 -5 -44 -15 -46 -25 -2 -12 10 -17 65 -23
37 -4 104 -16 148 -26 46 -12 145 -24 235 -29 116 -6 157 -6 162 3 4 7 8 40 8
73 0 34 4 84 10 113 5 28 16 160 24 294 8 133 18 303 21 377 4 74 13 180 20
235 8 56 25 137 39 180 14 44 26 87 26 96 0 9 -6 19 -12 21z"/>
</g>
</svg>
