<?xml version="1.0" standalone="no"?>
<!DOCTYPE svg PUBLIC "-//W3C//DTD SVG 20010904//EN"
 "http://www.w3.org/TR/2001/REC-SVG-20010904/DTD/svg10.dtd">
<svg version="1.0" xmlns="http://www.w3.org/2000/svg"
 width="157.000000pt" height="174.000000pt" viewBox="0 0 157.000000 174.000000"
 preserveAspectRatio="xMidYMid meet">
<metadata>
Created by potrace 1.16, written by Peter Selinger 2001-2019
</metadata>
<g transform="translate(0.000000,174.000000) scale(0.100000,-0.100000)"
fill="#000000" stroke="none">
<path d="M570 1250 c-4 0 -13 -7 -20 -15 -7 -8 -10 -26 -7 -40 2 -14 -1 -83
-9 -153 -7 -70 -17 -160 -23 -199 -6 -40 -13 -123 -17 -185 -3 -62 -1 -126 4
-143 6 -22 15 -31 34 -33 18 -2 31 5 50 30 13 18 42 64 63 103 21 38 63 93 94
122 30 29 63 56 74 59 10 3 23 2 29 -4 5 -5 20 -59 33 -120 13 -61 28 -120 35
-131 6 -12 19 -21 30 -21 10 0 22 9 25 21 4 12 2 49 -5 83 -6 33 -18 92 -27
129 -9 40 -26 81 -40 98 -16 19 -34 29 -52 29 -16 0 -54 -18 -88 -41 -34 -22
-79 -62 -102 -89 -22 -26 -50 -64 -62 -84 -11 -20 -23 -36 -26 -36 -3 0 -2 42
2 93 4 50 13 128 21 171 7 44 17 132 20 198 6 106 5 120 -11 138 -10 11 -21
20 -25 20z"/>
</g>
</svg>
