<?xml version="1.0" standalone="no"?>
<!DOCTYPE svg PUBLIC "-//W3C//DTD SVG 20010904//EN"
 "http://www.w3.org/TR/2001/REC-SVG-20010904/DTD/svg10.dtd">
<svg version="1.0" xmlns="http://www.w3.org/2000/svg"
 width="165.000000pt" height="180.000000pt" viewBox="0 0 165.000000 180.000000"
 preserveAspectRatio="xMidYMid meet">
<metadata>
Created by potrace 1.16, written by Peter Selinger 2001-2019
</metadata>
<g transform="translate(0.000000,180.000000) scale(0.100000,-0.100000)"
fill="#000000" stroke="none">
<path d="M1033 1228 c-16 2 -29 -8 -51 -40 -16 -24 -54 -66 -84 -94 -29 -28
-64 -57 -77 -63 -22 -12 -29 -7 -118 85 -79 82 -97 96 -111 87 -9 -5 -18 -17
-20 -25 -1 -8 15 -37 37 -64 21 -27 64 -69 94 -93 31 -25 53 -50 50 -57 -3 -7
-30 -32 -61 -55 -32 -24 -69 -54 -84 -68 -16 -14 -28 -35 -28 -47 0 -12 7 -29
15 -38 9 -8 22 -13 30 -10 8 3 17 15 20 25 4 11 41 49 82 84 42 36 83 65 91
65 8 0 45 -32 82 -71 46 -48 74 -70 86 -67 13 2 20 13 22 35 3 28 -4 37 -67
89 -39 32 -71 64 -71 70 0 7 12 22 28 34 15 12 58 51 95 87 60 56 68 68 65 96
-2 24 -8 33 -25 35z"/>
</g>
</svg>
