<?xml version="1.0" standalone="no"?>
<!DOCTYPE svg PUBLIC "-//W3C//DTD SVG 20010904//EN"
 "http://www.w3.org/TR/2001/REC-SVG-20010904/DTD/svg10.dtd">
<svg version="1.0" xmlns="http://www.w3.org/2000/svg"
 width="156.000000pt" height="170.000000pt" viewBox="0 0 156.000000 170.000000"
 preserveAspectRatio="xMidYMid meet">
<metadata>
Created by potrace 1.16, written by Peter Selinger 2001-2019
</metadata>
<g transform="translate(0.000000,170.000000) scale(0.100000,-0.100000)"
fill="#000000" stroke="none">
<path d="M1057 1320 c-7 0 -20 -6 -29 -12 -9 -7 -26 -33 -37 -58 -12 -25 -44
-74 -71 -110 -28 -36 -69 -91 -93 -122 -23 -32 -45 -58 -49 -58 -4 0 -29 37
-56 83 -27 45 -62 107 -77 137 -16 30 -39 70 -52 88 -15 20 -33 32 -47 32 -13
0 -26 -7 -30 -15 -3 -8 1 -35 9 -61 8 -26 25 -58 38 -73 14 -14 55 -74 91
-133 36 -59 66 -114 66 -121 0 -8 -13 -32 -28 -53 -16 -21 -84 -99 -151 -172
-102 -111 -122 -137 -119 -160 2 -17 9 -27 19 -27 9 0 67 56 129 124 61 69
130 148 153 178 23 29 44 53 47 52 3 0 46 -64 95 -141 50 -78 100 -160 112
-183 12 -23 27 -46 35 -52 7 -6 25 -14 40 -18 23 -6 28 -3 34 19 4 17 1 34
-10 49 -9 12 -39 54 -67 92 -27 39 -80 115 -116 170 -36 55 -67 105 -70 112
-3 6 10 34 28 60 18 26 64 86 102 133 38 47 83 113 99 148 17 34 27 69 24 77
-3 8 -11 15 -19 15z"/>
</g>
</svg>
