<?xml version="1.0" standalone="no"?>
<!DOCTYPE svg PUBLIC "-//W3C//DTD SVG 20010904//EN"
 "http://www.w3.org/TR/2001/REC-SVG-20010904/DTD/svg10.dtd">
<svg version="1.0" xmlns="http://www.w3.org/2000/svg"
 width="154.000000pt" height="167.000000pt" viewBox="0 0 154.000000 167.000000"
 preserveAspectRatio="xMidYMid meet">
<metadata>
Created by potrace 1.16, written by Peter Selinger 2001-2019
</metadata>
<g transform="translate(0.000000,167.000000) scale(0.100000,-0.100000)"
fill="#000000" stroke="none">
<path d="M865 1230 c-45 0 -60 -5 -96 -32 -23 -18 -50 -49 -60 -68 -11 -20
-19 -55 -19 -82 0 -36 5 -52 22 -68 14 -12 35 -20 58 -20 22 0 48 9 66 23 16
12 40 32 53 45 12 13 27 22 33 20 7 -3 20 -26 29 -54 11 -31 18 -80 18 -134 0
-47 -4 -105 -10 -130 -5 -24 -22 -60 -36 -78 -14 -19 -41 -40 -59 -48 -19 -8
-67 -14 -109 -14 -61 0 -82 4 -109 22 -19 12 -40 31 -47 43 -7 11 -16 45 -19
75 -3 30 -9 54 -15 53 -5 -2 -11 -23 -13 -47 -2 -27 3 -57 13 -75 8 -17 25
-40 38 -51 12 -12 36 -28 54 -35 17 -7 56 -16 85 -20 40 -5 70 -1 120 15 46
14 74 30 92 50 14 17 30 47 36 68 6 20 15 72 19 115 6 55 5 100 -5 155 -7 42
-14 80 -14 83 0 3 -11 22 -24 41 -13 19 -26 52 -30 74 -4 21 -9 47 -12 57 -4
13 -17 17 -59 17z m-9 -30 c7 0 20 -7 28 -16 9 -8 16 -32 16 -53 0 -31 -8 -44
-47 -82 -27 -26 -56 -49 -66 -53 -10 -3 -27 -1 -38 4 -14 8 -19 21 -19 49 0
23 9 51 23 72 12 18 38 44 56 56 19 13 40 23 47 23z"/>
</g>
</svg>
