<?xml version="1.0" standalone="no"?>
<!DOCTYPE svg PUBLIC "-//W3C//DTD SVG 20010904//EN"
 "http://www.w3.org/TR/2001/REC-SVG-20010904/DTD/svg10.dtd">
<svg version="1.0" xmlns="http://www.w3.org/2000/svg"
 width="157.000000pt" height="173.000000pt" viewBox="0 0 157.000000 173.000000"
 preserveAspectRatio="xMidYMid meet">
<metadata>
Created by potrace 1.16, written by Peter Selinger 2001-2019
</metadata>
<g transform="translate(0.000000,173.000000) scale(0.100000,-0.100000)"
fill="#000000" stroke="none">
<path d="M749 1174 c-8 7 -22 11 -31 9 -10 -3 -20 -14 -22 -26 -3 -12 -7 -40
-10 -62 -3 -22 -14 -103 -26 -180 -11 -77 -23 -195 -26 -261 -7 -122 -7 -122
19 -139 18 -12 35 -15 58 -10 19 4 50 27 79 58 48 51 48 51 63 16 7 -19 31
-49 51 -67 32 -28 44 -32 94 -32 39 0 67 6 90 20 19 12 32 28 32 40 0 11 -7
23 -15 26 -8 3 -34 -2 -58 -11 -32 -12 -49 -14 -69 -6 -15 6 -34 24 -43 40 -8
17 -15 52 -15 79 0 26 9 76 21 111 20 60 21 63 3 82 -10 11 -27 19 -37 17 -13
-2 -25 -17 -33 -40 -7 -20 -36 -75 -64 -122 -29 -46 -63 -94 -75 -106 -24 -22
-24 -22 -30 14 -5 22 2 100 15 194 13 86 27 186 32 222 5 36 10 78 10 93 1 15
-5 34 -13 41z"/>
</g>
</svg>
