<?xml version="1.0" standalone="no"?>
<!DOCTYPE svg PUBLIC "-//W3C//DTD SVG 20010904//EN"
 "http://www.w3.org/TR/2001/REC-SVG-20010904/DTD/svg10.dtd">
<svg version="1.0" xmlns="http://www.w3.org/2000/svg"
 width="153.000000pt" height="167.000000pt" viewBox="0 0 153.000000 167.000000"
 preserveAspectRatio="xMidYMid meet">
<metadata>
Created by potrace 1.16, written by Peter Selinger 2001-2019
</metadata>
<g transform="translate(0.000000,167.000000) scale(0.100000,-0.100000)"
fill="#000000" stroke="none">
<path d="M748 1108 c-11 2 -19 -7 -27 -30 -5 -18 -19 -77 -30 -132 -13 -65
-27 -106 -40 -120 -12 -12 -21 -27 -21 -33 0 -6 6 -15 13 -21 9 -7 14 -39 15
-88 1 -42 4 -85 7 -95 4 -11 19 -26 35 -34 16 -8 49 -15 73 -15 24 0 52 7 63
15 18 13 15 14 -31 15 -27 0 -57 6 -66 13 -9 7 -21 22 -27 34 -7 12 -12 46
-12 75 0 29 6 64 13 78 9 17 26 28 55 35 24 6 40 14 36 18 -4 4 -20 7 -35 7
-18 0 -28 6 -32 20 -3 10 2 52 11 92 8 40 16 93 16 118 1 34 -3 45 -16 48z"/>
</g>
</svg>
