<?xml version="1.0" standalone="no"?>
<!DOCTYPE svg PUBLIC "-//W3C//DTD SVG 20010904//EN"
 "http://www.w3.org/TR/2001/REC-SVG-20010904/DTD/svg10.dtd">
<svg version="1.0" xmlns="http://www.w3.org/2000/svg"
 width="155.000000pt" height="168.000000pt" viewBox="0 0 155.000000 168.000000"
 preserveAspectRatio="xMidYMid meet">
<metadata>
Created by potrace 1.16, written by Peter Selinger 2001-2019
</metadata>
<g transform="translate(0.000000,168.000000) scale(0.100000,-0.100000)"
fill="#000000" stroke="none">
<path d="M786 1270 c-7 0 -18 -10 -24 -22 -6 -13 -18 -65 -26 -117 -9 -52 -16
-143 -16 -201 0 -93 3 -111 21 -134 11 -14 30 -26 41 -26 18 0 19 4 14 38 -4
20 -9 69 -12 109 -4 43 1 124 11 202 9 72 13 136 10 141 -3 6 -12 10 -19 10z
M743 510 c-28 0 -36 -5 -50 -35 -13 -28 -14 -37 -3 -50 7 -8 27 -15 45 -15 18
0 39 8 48 18 10 10 17 27 17 38 0 11 -5 25 -12 32 -7 7 -27 12 -45 12z"/>
</g>
</svg>
