<?xml version="1.0" standalone="no"?>
<!DOCTYPE svg PUBLIC "-//W3C//DTD SVG 20010904//EN"
 "http://www.w3.org/TR/2001/REC-SVG-20010904/DTD/svg10.dtd">
<svg version="1.0" xmlns="http://www.w3.org/2000/svg"
 width="153.000000pt" height="167.000000pt" viewBox="0 0 153.000000 167.000000"
 preserveAspectRatio="xMidYMid meet">
<metadata>
Created by potrace 1.16, written by Peter Selinger 2001-2019
</metadata>
<g transform="translate(0.000000,167.000000) scale(0.100000,-0.100000)"
fill="#000000" stroke="none">
<path d="M888 1388 c-9 2 -21 -6 -27 -17 -6 -11 -11 -28 -11 -39 0 -10 -8 -26
-18 -35 -10 -10 -27 -17 -36 -17 -15 0 -17 7 -14 47 2 29 -1 48 -9 50 -6 2
-14 -6 -18 -19 -4 -13 -16 -42 -27 -66 -14 -29 -32 -49 -59 -62 -21 -11 -54
-35 -72 -54 -22 -21 -36 -47 -40 -72 -4 -20 -2 -58 4 -83 5 -25 23 -69 38 -96
l29 -51 -38 -149 c-22 -83 -42 -172 -45 -200 -4 -27 -11 -65 -16 -82 -6 -18
-15 -33 -20 -33 -6 0 -24 7 -40 16 -17 8 -48 31 -70 51 -21 19 -39 44 -39 54
0 10 -5 21 -11 25 -6 3 -15 2 -21 -4 -5 -5 -7 -19 -4 -29 4 -11 27 -40 51 -65
25 -25 68 -55 95 -68 37 -17 50 -29 50 -45 0 -11 -6 -44 -14 -73 -11 -45 -11
-54 2 -64 12 -10 20 -7 43 22 25 29 34 34 65 31 23 -2 40 2 45 11 5 7 9 21 9
31 0 12 -8 17 -25 17 -14 0 -25 4 -25 10 0 5 10 12 23 14 12 3 42 7 67 11 25
3 69 17 98 31 34 17 58 36 68 57 13 24 15 48 11 110 -5 59 -13 91 -34 130 -16
28 -43 66 -60 85 -18 19 -33 44 -33 55 0 11 11 54 24 96 13 42 38 126 56 186
18 61 37 118 42 128 5 9 19 17 31 17 13 0 28 -5 35 -12 9 -9 15 -9 24 0 9 9 7
16 -7 32 -10 11 -26 20 -36 20 -14 0 -19 10 -21 47 -2 35 -7 49 -20 51z m-86
-148 c10 0 18 -6 18 -14 0 -8 -12 -63 -26 -123 -14 -59 -35 -136 -46 -171 -12
-34 -25 -65 -30 -68 -6 -4 -17 1 -26 9 -13 14 -14 23 -4 64 7 26 24 98 38 158
14 61 33 118 41 128 9 9 24 17 35 17z m-121 -50 c5 0 9 -13 9 -29 0 -17 -9
-67 -20 -112 -10 -45 -22 -84 -25 -87 -3 -3 -11 0 -17 6 -7 7 -14 43 -16 81
-4 65 -3 70 28 104 18 21 36 37 41 37z m-9 -372 c7 -3 16 -12 22 -21 8 -12 -1
-50 -36 -154 -25 -76 -51 -162 -58 -190 -7 -29 -16 -53 -21 -53 -5 0 -9 3 -9
8 0 4 9 59 19 123 11 64 31 156 46 204 15 50 31 85 37 83z m72 -78 c7 0 22
-10 34 -22 11 -13 30 -45 41 -71 14 -32 21 -70 21 -111 0 -53 -4 -67 -25 -90
-13 -14 -37 -31 -52 -37 -15 -6 -47 -14 -70 -18 -29 -6 -46 -5 -52 3 -6 7 1
52 19 121 15 61 38 136 50 168 12 31 27 57 34 57z"/>
</g>
</svg>
