<?xml version="1.0" standalone="no"?>
<!DOCTYPE svg PUBLIC "-//W3C//DTD SVG 20010904//EN"
 "http://www.w3.org/TR/2001/REC-SVG-20010904/DTD/svg10.dtd">
<svg version="1.0" xmlns="http://www.w3.org/2000/svg"
 width="152.000000pt" height="167.000000pt" viewBox="0 0 152.000000 167.000000"
 preserveAspectRatio="xMidYMid meet">
<metadata>
Created by potrace 1.16, written by Peter Selinger 2001-2019
</metadata>
<g transform="translate(0.000000,167.000000) scale(0.100000,-0.100000)"
fill="#000000" stroke="none">
<path d="M623 917 c-6 2 -18 -6 -25 -19 -8 -15 -13 -57 -12 -118 0 -52 6 -115
13 -140 7 -25 22 -55 34 -67 13 -14 32 -23 51 -23 17 0 46 9 64 20 22 14 41
39 57 74 13 29 27 69 30 89 4 20 14 42 23 50 10 8 42 20 73 26 31 7 65 18 75
26 11 7 15 17 11 21 -4 4 -28 3 -52 -4 -25 -7 -55 -12 -68 -12 -12 0 -28 9
-35 20 -7 11 -18 20 -26 20 -8 0 -17 -7 -20 -16 -3 -9 -6 -25 -6 -37 0 -11
-10 -57 -22 -101 -16 -61 -29 -89 -54 -114 -19 -19 -38 -30 -47 -26 -9 3 -23
24 -33 47 -13 31 -18 72 -18 161 -1 82 -5 121 -13 123z"/>
</g>
</svg>
