<?xml version="1.0" standalone="no"?>
<!DOCTYPE svg PUBLIC "-//W3C//DTD SVG 20010904//EN"
 "http://www.w3.org/TR/2001/REC-SVG-20010904/DTD/svg10.dtd">
<svg version="1.0" xmlns="http://www.w3.org/2000/svg"
 width="152.000000pt" height="167.000000pt" viewBox="0 0 152.000000 167.000000"
 preserveAspectRatio="xMidYMid meet">
<metadata>
Created by potrace 1.16, written by Peter Selinger 2001-2019
</metadata>
<g transform="translate(0.000000,167.000000) scale(0.100000,-0.100000)"
fill="#000000" stroke="none">
<path d="M562 898 c-13 2 -25 -3 -28 -12 -3 -9 4 -70 16 -136 23 -120 23 -120
-44 -190 -42 -45 -66 -79 -66 -94 0 -12 3 -26 7 -29 3 -4 39 28 79 71 72 77
72 77 106 47 18 -17 46 -38 62 -45 19 -10 61 -15 121 -15 63 0 97 4 108 14 10
7 17 19 17 26 0 9 -28 12 -102 11 -93 -1 -106 1 -135 22 -18 13 -33 32 -33 43
0 12 22 36 56 62 31 23 92 71 136 105 44 35 82 71 85 79 3 8 1 19 -5 25 -8 8
-25 -2 -61 -34 -27 -25 -91 -73 -141 -107 -50 -35 -97 -60 -104 -58 -8 3 -19
36 -26 79 -7 40 -16 87 -19 103 -5 21 -14 31 -29 33z"/>
</g>
</svg>
