<?xml version="1.0" standalone="no"?>
<!DOCTYPE svg PUBLIC "-//W3C//DTD SVG 20010904//EN"
 "http://www.w3.org/TR/2001/REC-SVG-20010904/DTD/svg10.dtd">
<svg version="1.0" xmlns="http://www.w3.org/2000/svg"
 width="154.000000pt" height="167.000000pt" viewBox="0 0 154.000000 167.000000"
 preserveAspectRatio="xMidYMid meet">
<metadata>
Created by potrace 1.16, written by Peter Selinger 2001-2019
</metadata>
<g transform="translate(0.000000,167.000000) scale(0.100000,-0.100000)"
fill="#000000" stroke="none">
<path d="M1031 1370 c-3 0 -23 -17 -43 -37 l-37 -37 -123 -1 c-107 0 -130 -3
-176 -24 -29 -13 -62 -35 -72 -49 -11 -14 -20 -40 -20 -60 0 -19 5 -52 12 -73
6 -22 28 -57 50 -78 21 -22 38 -47 38 -55 0 -9 -20 -25 -45 -37 -25 -12 -56
-35 -70 -51 -17 -21 -25 -42 -25 -69 0 -24 12 -63 29 -98 17 -32 44 -70 62
-85 17 -15 54 -38 80 -52 34 -17 65 -24 103 -24 30 0 67 5 81 12 17 7 29 24
36 50 5 22 7 60 3 86 -4 26 -16 71 -27 101 -11 30 -38 74 -59 98 -24 25 -38
49 -35 57 3 8 24 24 46 36 22 11 56 34 75 50 19 17 49 53 66 80 l32 50 58 0
c43 0 64 5 81 20 l24 19 -67 1 c-37 0 -69 4 -73 9 -3 6 2 37 11 70 14 49 15
63 4 76 -7 8 -15 15 -19 15z m-156 -108 c11 -2 25 -11 32 -19 9 -11 9 -21 2
-35 -5 -10 -7 -23 -4 -29 4 -5 15 -7 26 -4 12 4 21 1 25 -8 3 -9 -7 -34 -21
-56 -15 -22 -51 -56 -80 -76 -29 -19 -65 -39 -80 -45 -14 -5 -33 -10 -41 -10
-7 0 -33 17 -55 38 -23 20 -48 51 -56 69 -7 18 -13 47 -13 66 0 22 8 41 23 54
12 11 33 27 47 34 14 8 59 16 100 20 41 3 84 4 95 1z m-157 -343 c7 1 33 -18
59 -41 25 -24 55 -62 65 -86 11 -24 22 -77 25 -117 l6 -73 -31 -16 c-17 -9
-44 -16 -59 -16 -15 0 -46 9 -68 19 -22 10 -55 30 -73 46 -18 15 -42 45 -52
65 -11 21 -22 55 -26 77 -5 30 -1 44 17 67 12 16 45 39 73 52 28 12 57 23 64
23z"/>
</g>
</svg>
