<?xml version="1.0" standalone="no"?>
<!DOCTYPE svg PUBLIC "-//W3C//DTD SVG 20010904//EN"
 "http://www.w3.org/TR/2001/REC-SVG-20010904/DTD/svg10.dtd">
<svg version="1.0" xmlns="http://www.w3.org/2000/svg"
 width="155.000000pt" height="170.000000pt" viewBox="0 0 155.000000 170.000000"
 preserveAspectRatio="xMidYMid meet">
<metadata>
Created by potrace 1.16, written by Peter Selinger 2001-2019
</metadata>
<g transform="translate(0.000000,170.000000) scale(0.100000,-0.100000)"
fill="#000000" stroke="none">
<path d="M510 1330 c-11 0 -20 -6 -20 -14 0 -7 7 -29 15 -48 8 -20 31 -57 51
-84 20 -27 64 -78 98 -114 34 -36 79 -87 101 -113 37 -47 38 -49 26 -85 -7
-20 -60 -133 -118 -249 -57 -117 -103 -221 -101 -230 2 -10 11 -19 22 -21 10
-2 29 7 43 20 18 16 23 30 19 48 -3 18 30 97 121 290 70 146 137 282 150 303
13 21 42 78 63 128 22 49 40 100 40 113 0 13 -6 29 -13 35 -10 8 -18 7 -29 -2
-8 -6 -32 -57 -53 -112 -21 -55 -48 -124 -61 -152 -15 -36 -29 -53 -41 -53
-10 0 -55 39 -101 88 -46 48 -96 103 -111 122 -15 19 -40 56 -55 83 -17 31
-34 47 -46 47z"/>
</g>
</svg>
