<?xml version="1.0" standalone="no"?>
<!DOCTYPE svg PUBLIC "-//W3C//DTD SVG 20010904//EN"
 "http://www.w3.org/TR/2001/REC-SVG-20010904/DTD/svg10.dtd">
<svg version="1.0" xmlns="http://www.w3.org/2000/svg"
 width="166.000000pt" height="182.000000pt" viewBox="0 0 166.000000 182.000000"
 preserveAspectRatio="xMidYMid meet">
<metadata>
Created by potrace 1.16, written by Peter Selinger 2001-2019
</metadata>
<g transform="translate(0.000000,182.000000) scale(0.100000,-0.100000)"
fill="#000000" stroke="none">
<path d="M845 1535 c-16 3 -38 0 -47 -5 -10 -6 -18 -23 -18 -39 0 -18 11 -38
31 -57 30 -28 31 -31 26 -94 -4 -36 -12 -79 -18 -96 -7 -17 -21 -37 -31 -43
-15 -9 -22 -7 -41 12 -12 13 -26 31 -32 41 -5 9 -18 18 -29 19 -10 1 -23 -6
-29 -15 -9 -13 -7 -25 5 -51 9 -19 32 -47 51 -61 18 -14 47 -28 63 -31 23 -5
37 1 66 25 24 20 44 50 59 88 17 44 22 80 23 154 1 91 -1 99 -24 122 -14 14
-38 28 -55 31z M561 1530 c-11 0 -21 -6 -24 -14 -3 -7 -9 -35 -13 -62 -6 -44
-5 -49 21 -70 26 -20 27 -24 16 -57 -7 -20 -25 -49 -40 -64 -15 -15 -40 -36
-54 -46 -15 -10 -27 -26 -27 -35 0 -10 5 -23 12 -30 7 -7 23 -12 36 -12 14 0
44 20 79 53 31 28 61 66 68 82 7 17 16 51 20 77 6 38 3 56 -14 91 -11 24 -30
53 -41 65 -12 12 -29 22 -39 22z"/>
</g>
</svg>
