<?xml version="1.0" standalone="no"?>
<!DOCTYPE svg PUBLIC "-//W3C//DTD SVG 20010904//EN"
 "http://www.w3.org/TR/2001/REC-SVG-20010904/DTD/svg10.dtd">
<svg version="1.0" xmlns="http://www.w3.org/2000/svg"
 width="158.000000pt" height="172.000000pt" viewBox="0 0 158.000000 172.000000"
 preserveAspectRatio="xMidYMid meet">
<metadata>
Created by potrace 1.16, written by Peter Selinger 2001-2019
</metadata>
<g transform="translate(0.000000,172.000000) scale(0.100000,-0.100000)"
fill="#000000" stroke="none">
<path d="M720 1176 c-36 2 -76 0 -90 -5 -14 -4 -41 -16 -60 -26 -19 -9 -52
-33 -72 -53 -32 -31 -38 -42 -38 -79 0 -24 11 -76 25 -115 14 -40 29 -104 33
-141 8 -67 8 -69 -15 -78 -23 -8 -23 -10 -8 -39 8 -16 21 -56 28 -87 12 -53
16 -58 46 -64 18 -4 49 -20 69 -36 20 -16 47 -35 59 -41 12 -7 45 -12 73 -12
49 0 54 3 104 53 35 35 58 69 69 101 9 27 17 67 17 88 0 21 -6 53 -14 71 -7
18 -22 40 -33 50 -11 10 -44 30 -74 45 -29 15 -54 33 -57 39 -2 7 17 34 43 60
26 27 51 58 56 71 5 13 9 39 9 59 0 20 -9 51 -21 70 -11 18 -35 41 -52 50 -18
9 -61 17 -97 19z m-12 -46 c34 0 65 -6 83 -17 18 -11 34 -31 40 -53 7 -24 7
-43 0 -63 -6 -15 -36 -51 -66 -80 -30 -28 -55 -59 -55 -68 0 -9 7 -23 16 -30
9 -8 43 -27 77 -44 33 -16 70 -43 81 -58 15 -21 21 -43 21 -81 -1 -38 -8 -65
-28 -98 -15 -25 -41 -58 -58 -72 -18 -15 -43 -26 -60 -26 -17 0 -42 6 -58 14
-15 8 -46 35 -70 61 l-43 46 4 247 c2 136 -1 255 -5 264 -7 13 0 21 30 37 24
13 58 20 91 21z"/>
</g>
</svg>
