<?xml version="1.0" standalone="no"?>
<!DOCTYPE svg PUBLIC "-//W3C//DTD SVG 20010904//EN"
 "http://www.w3.org/TR/2001/REC-SVG-20010904/DTD/svg10.dtd">
<svg version="1.0" xmlns="http://www.w3.org/2000/svg"
 width="152.000000pt" height="167.000000pt" viewBox="0 0 152.000000 167.000000"
 preserveAspectRatio="xMidYMid meet">
<metadata>
Created by potrace 1.16, written by Peter Selinger 2001-2019
</metadata>
<g transform="translate(0.000000,167.000000) scale(0.100000,-0.100000)"
fill="#000000" stroke="none">
<path d="M560 890 c-10 0 -20 -6 -22 -12 -3 -7 3 -51 12 -98 10 -47 20 -100
24 -118 5 -30 0 -39 -59 -102 -36 -39 -65 -78 -65 -90 0 -11 2 -20 6 -20 3 0
30 27 61 60 31 34 64 65 74 71 14 7 25 3 51 -20 18 -16 55 -36 81 -45 26 -9
67 -16 90 -16 23 0 59 5 80 11 20 5 37 14 37 18 0 5 -43 6 -95 3 -91 -5 -97
-4 -135 23 -26 18 -40 35 -40 49 0 12 6 29 13 37 6 9 56 48 110 88 53 40 112
87 130 104 20 19 27 32 19 34 -6 3 -33 -13 -58 -36 -25 -22 -85 -67 -134 -100
-49 -34 -95 -61 -104 -61 -9 0 -19 14 -25 38 -5 20 -12 60 -16 87 -3 28 -9 60
-12 73 -3 13 -13 22 -23 22z"/>
</g>
</svg>
