<?xml version="1.0" standalone="no"?>
<!DOCTYPE svg PUBLIC "-//W3C//DTD SVG 20010904//EN"
 "http://www.w3.org/TR/2001/REC-SVG-20010904/DTD/svg10.dtd">
<svg version="1.0" xmlns="http://www.w3.org/2000/svg"
 width="154.000000pt" height="168.000000pt" viewBox="0 0 154.000000 168.000000"
 preserveAspectRatio="xMidYMid meet">
<metadata>
Created by potrace 1.16, written by Peter Selinger 2001-2019
</metadata>
<g transform="translate(0.000000,168.000000) scale(0.100000,-0.100000)"
fill="#000000" stroke="none">
<path d="M1035 1378 c-12 2 -34 -11 -56 -33 -36 -37 -36 -37 -160 -38 -107 -2
-131 -5 -176 -26 -34 -15 -60 -35 -73 -56 -11 -18 -20 -46 -20 -62 0 -17 5
-45 11 -64 7 -19 29 -55 50 -81 22 -26 39 -52 39 -58 0 -6 -10 -14 -22 -19
-13 -5 -39 -21 -58 -35 -19 -15 -40 -37 -47 -49 -7 -12 -12 -35 -13 -50 0 -16
10 -52 22 -80 11 -29 39 -71 61 -94 22 -23 64 -54 92 -68 37 -18 68 -25 109
-25 31 0 70 7 86 15 21 11 31 25 36 51 4 20 4 62 1 94 -3 33 -16 83 -30 113
-14 30 -41 73 -61 95 -37 41 -37 41 21 77 32 21 71 49 86 64 16 14 40 45 54
69 24 40 27 42 72 42 27 0 62 5 80 11 20 7 31 18 31 30 0 17 -8 19 -66 19 -66
0 -66 0 -58 38 4 20 8 55 8 77 1 33 -3 41 -19 43z m-209 -109 c39 1 55 -4 69
-19 14 -16 15 -22 5 -35 -7 -8 -10 -22 -6 -30 4 -11 13 -14 31 -9 18 4 25 2
25 -8 0 -8 -13 -33 -29 -55 -16 -22 -53 -55 -82 -72 -29 -18 -68 -35 -86 -38
-30 -5 -39 -1 -79 38 -28 28 -46 56 -51 79 -4 19 -6 44 -4 55 2 11 10 28 19
39 10 10 28 23 42 29 14 5 41 13 60 17 19 4 58 8 86 9z m-108 -350 c7 1 35
-21 62 -48 36 -36 53 -63 65 -103 8 -30 16 -76 17 -102 2 -37 -2 -51 -17 -62
-10 -8 -37 -14 -59 -14 -23 0 -59 9 -81 19 -22 10 -54 34 -72 52 -18 19 -39
51 -47 71 -9 21 -16 50 -16 65 0 16 7 39 16 52 9 13 40 34 68 47 28 12 57 23
64 23z"/>
</g>
</svg>
