<?xml version="1.0" standalone="no"?>
<!DOCTYPE svg PUBLIC "-//W3C//DTD SVG 20010904//EN"
 "http://www.w3.org/TR/2001/REC-SVG-20010904/DTD/svg10.dtd">
<svg version="1.0" xmlns="http://www.w3.org/2000/svg"
 width="154.000000pt" height="168.000000pt" viewBox="0 0 154.000000 168.000000"
 preserveAspectRatio="xMidYMid meet">
<metadata>
Created by potrace 1.16, written by Peter Selinger 2001-2019
</metadata>
<g transform="translate(0.000000,168.000000) scale(0.100000,-0.100000)"
fill="#000000" stroke="none">
<path d="M844 817 c-16 2 -47 -4 -69 -12 -22 -8 -50 -27 -62 -42 -13 -15 -23
-41 -23 -58 1 -16 7 -38 14 -48 10 -13 29 -19 61 -20 42 -2 50 2 80 35 19 21
37 53 41 74 4 21 2 44 -3 53 -6 9 -23 17 -39 18z M799 476 c-45 5 -59 3 -72
-11 -10 -9 -17 -32 -17 -53 0 -21 7 -48 16 -60 11 -17 25 -22 57 -22 24 0 54
7 67 16 14 10 31 24 38 32 6 9 12 26 12 39 0 12 -10 29 -23 37 -12 9 -47 18
-78 22z"/>
</g>
</svg>
