<?xml version="1.0" standalone="no"?>
<!DOCTYPE svg PUBLIC "-//W3C//DTD SVG 20010904//EN"
 "http://www.w3.org/TR/2001/REC-SVG-20010904/DTD/svg10.dtd">
<svg version="1.0" xmlns="http://www.w3.org/2000/svg"
 width="157.000000pt" height="172.000000pt" viewBox="0 0 157.000000 172.000000"
 preserveAspectRatio="xMidYMid meet">
<metadata>
Created by potrace 1.16, written by Peter Selinger 2001-2019
</metadata>
<g transform="translate(0.000000,172.000000) scale(0.100000,-0.100000)"
fill="#000000" stroke="none">
<path d="M934 1324 c-17 5 -32 -4 -68 -41 -27 -28 -62 -80 -83 -123 -19 -41
-48 -129 -65 -194 -16 -65 -35 -131 -42 -145 -8 -14 -10 -35 -7 -46 4 -11 6
-55 3 -98 -4 -78 -4 -78 -66 -124 -33 -26 -64 -52 -68 -58 -4 -5 -8 -21 -8
-35 0 -16 13 -36 37 -57 21 -18 48 -36 61 -39 12 -3 22 -10 22 -15 0 -4 9 -17
20 -27 11 -10 24 -40 29 -66 5 -27 16 -55 25 -64 15 -15 19 -15 43 -2 14 8 31
23 37 32 7 12 4 42 -12 110 -12 51 -24 123 -28 159 -6 63 -5 68 21 92 15 14
66 42 114 63 47 20 92 43 100 50 7 7 11 20 8 28 -4 9 -17 16 -29 16 -13 0 -63
-18 -113 -40 -49 -22 -93 -40 -98 -40 -5 0 -7 18 -4 40 4 31 18 54 59 99 30
32 65 80 78 107 12 27 31 74 42 104 10 30 26 86 33 123 8 38 15 86 15 107 0
22 -7 46 -17 58 -10 11 -28 23 -39 26z m-27 -121 c3 -7 -4 -48 -15 -91 -11
-44 -37 -116 -58 -161 -20 -44 -41 -81 -46 -81 -5 0 -6 17 -2 38 3 20 12 57
19 82 7 25 25 74 39 109 14 35 33 76 43 90 9 15 18 21 20 14z"/>
</g>
</svg>
