<?xml version="1.0" standalone="no"?>
<!DOCTYPE svg PUBLIC "-//W3C//DTD SVG 20010904//EN"
 "http://www.w3.org/TR/2001/REC-SVG-20010904/DTD/svg10.dtd">
<svg version="1.0" xmlns="http://www.w3.org/2000/svg"
 width="163.000000pt" height="178.000000pt" viewBox="0 0 163.000000 178.000000"
 preserveAspectRatio="xMidYMid meet">
<metadata>
Created by potrace 1.16, written by Peter Selinger 2001-2019
</metadata>
<g transform="translate(0.000000,178.000000) scale(0.100000,-0.100000)"
fill="#000000" stroke="none">
<path d="M702 960 c-33 0 -44 -8 -109 -75 -39 -42 -81 -95 -92 -118 -12 -24
-21 -57 -21 -73 0 -16 7 -39 15 -50 8 -12 38 -31 67 -44 46 -20 65 -22 158
-18 100 4 110 6 178 43 47 25 72 45 72 57 0 9 -5 20 -10 23 -6 4 -43 -10 -82
-31 -66 -34 -78 -37 -154 -36 -52 0 -95 7 -120 17 -39 16 -39 16 24 37 37 13
80 36 105 58 41 36 42 40 42 97 -1 40 -7 69 -18 86 -14 21 -25 27 -55 27z
m-11 -70 c6 0 9 -19 7 -42 -2 -35 -9 -46 -37 -65 -19 -13 -45 -23 -58 -23 -19
0 -22 3 -14 18 5 9 28 38 51 65 23 26 46 47 51 47z"/>
</g>
</svg>
