<?xml version="1.0" standalone="no"?>
<!DOCTYPE svg PUBLIC "-//W3C//DTD SVG 20010904//EN"
 "http://www.w3.org/TR/2001/REC-SVG-20010904/DTD/svg10.dtd">
<svg version="1.0" xmlns="http://www.w3.org/2000/svg"
 width="156.000000pt" height="170.000000pt" viewBox="0 0 156.000000 170.000000"
 preserveAspectRatio="xMidYMid meet">
<metadata>
Created by potrace 1.16, written by Peter Selinger 2001-2019
</metadata>
<g transform="translate(0.000000,170.000000) scale(0.100000,-0.100000)"
fill="#000000" stroke="none">
<path d="M1051 1310 c-11 0 -27 -10 -35 -22 -9 -12 -16 -29 -16 -38 -1 -8 -20
-40 -43 -71 -23 -30 -71 -93 -106 -140 -35 -46 -68 -84 -74 -84 -6 0 -33 36
-59 80 -27 44 -65 112 -85 150 -19 39 -42 78 -51 88 -8 9 -26 17 -39 17 -16 0
-23 -6 -23 -19 0 -10 5 -33 12 -52 6 -19 29 -54 50 -78 21 -24 38 -48 38 -52
0 -5 25 -48 55 -94 30 -47 55 -90 55 -96 0 -6 -13 -29 -29 -52 -16 -23 -86
-104 -155 -180 -69 -76 -126 -141 -126 -145 0 -4 4 -13 9 -21 5 -7 13 -12 19
-10 5 2 64 64 131 138 67 73 134 151 149 172 15 21 33 38 41 36 8 -1 54 -63
102 -137 48 -74 99 -156 113 -182 14 -26 35 -52 45 -58 11 -5 27 -10 35 -10
11 0 16 9 16 28 0 17 -9 37 -21 48 -12 10 -73 96 -135 191 -63 95 -114 175
-114 179 0 3 17 29 38 58 20 28 68 89 106 136 37 47 79 109 92 138 13 29 24
59 24 67 0 8 -9 15 -19 15z"/>
</g>
</svg>
