<?xml version="1.0" standalone="no"?>
<!DOCTYPE svg PUBLIC "-//W3C//DTD SVG 20010904//EN"
 "http://www.w3.org/TR/2001/REC-SVG-20010904/DTD/svg10.dtd">
<svg version="1.0" xmlns="http://www.w3.org/2000/svg"
 width="153.000000pt" height="167.000000pt" viewBox="0 0 153.000000 167.000000"
 preserveAspectRatio="xMidYMid meet">
<metadata>
Created by potrace 1.16, written by Peter Selinger 2001-2019
</metadata>
<g transform="translate(0.000000,167.000000) scale(0.100000,-0.100000)"
fill="#000000" stroke="none">
<path d="M888 1399 c-7 0 -19 -3 -25 -6 -7 -2 -13 -15 -13 -28 0 -13 -4 -35
-10 -49 -6 -16 -17 -26 -30 -26 -17 0 -20 6 -20 43 0 24 -3 46 -6 50 -3 3 -12
3 -20 0 -8 -3 -14 -11 -14 -18 0 -7 -9 -33 -20 -59 -16 -34 -34 -55 -73 -80
-29 -18 -63 -45 -76 -60 -19 -20 -26 -40 -29 -87 -4 -54 -1 -68 32 -135 37
-75 37 -75 -2 -232 -22 -86 -43 -182 -47 -213 -4 -31 -11 -62 -15 -69 -5 -8
-17 -10 -32 -7 -13 4 -43 23 -66 43 -23 20 -49 51 -57 70 -8 19 -18 34 -23 34
-5 0 -15 -6 -21 -14 -8 -9 -8 -21 -2 -39 6 -15 30 -45 53 -68 24 -23 67 -53
96 -66 44 -21 51 -28 47 -46 -3 -12 -9 -42 -15 -67 -5 -25 -10 -51 -10 -57 0
-7 11 -13 24 -13 16 0 32 11 46 29 17 26 25 29 54 24 29 -4 37 -1 51 20 9 14
15 33 13 43 -2 13 12 22 62 38 36 12 80 30 97 40 18 11 38 34 45 50 7 17 12
59 11 92 -1 34 -7 80 -13 102 -6 23 -29 65 -52 94 -23 29 -48 59 -55 66 -8 8
-11 24 -7 40 4 15 11 35 16 45 5 9 17 50 28 90 10 39 31 113 45 162 14 50 34
96 42 102 14 11 21 10 40 -2 13 -9 28 -13 33 -10 6 3 10 17 10 30 0 18 -8 26
-36 35 -31 11 -35 16 -31 38 3 14 1 36 -4 49 -5 13 -14 23 -21 22z m-93 -169
c9 0 15 -9 15 -22 0 -13 -15 -81 -34 -153 -19 -71 -39 -143 -45 -158 -6 -16
-17 -27 -24 -25 -6 3 -13 16 -15 31 -2 14 6 55 17 90 11 36 25 94 31 129 6 34
18 73 26 86 8 12 21 22 29 22z m-112 -50 c5 0 6 -15 2 -32 -4 -18 -14 -64 -22
-101 -9 -41 -19 -67 -26 -64 -6 2 -15 19 -19 38 -4 19 -5 50 -2 69 3 19 17 47
32 63 14 15 30 27 35 27z m-2 -375 c5 -4 9 -17 9 -29 0 -13 -15 -66 -34 -117
-18 -52 -39 -119 -46 -149 -7 -30 -15 -49 -18 -41 -2 7 1 48 8 90 6 42 21 108
32 146 11 39 24 78 30 88 5 10 13 15 19 12z m69 -75 c5 0 20 -15 33 -32 13
-18 32 -55 41 -82 9 -27 16 -65 16 -83 0 -19 -7 -47 -15 -63 -9 -17 -32 -38
-53 -49 -20 -10 -56 -22 -78 -26 -25 -4 -44 -2 -48 3 -3 6 1 39 9 75 8 35 24
95 36 133 12 38 28 81 35 97 8 15 19 27 24 27z"/>
</g>
</svg>
