<?xml version="1.0" standalone="no"?>
<!DOCTYPE svg PUBLIC "-//W3C//DTD SVG 20010904//EN"
 "http://www.w3.org/TR/2001/REC-SVG-20010904/DTD/svg10.dtd">
<svg version="1.0" xmlns="http://www.w3.org/2000/svg"
 width="154.000000pt" height="167.000000pt" viewBox="0 0 154.000000 167.000000"
 preserveAspectRatio="xMidYMid meet">
<metadata>
Created by potrace 1.16, written by Peter Selinger 2001-2019
</metadata>
<g transform="translate(0.000000,167.000000) scale(0.100000,-0.100000)"
fill="#000000" stroke="none">
<path d="M806 1320 c-7 0 -42 -33 -78 -72 -35 -40 -77 -91 -93 -112 -17 -22
-51 -76 -77 -120 -27 -45 -48 -91 -48 -103 0 -12 10 -29 22 -37 12 -9 41 -16
63 -16 22 0 67 7 100 15 33 9 62 12 67 7 5 -5 2 -63 -7 -136 -13 -100 -14
-130 -5 -141 7 -8 22 -15 35 -15 12 0 24 3 28 6 3 4 0 19 -8 35 -8 15 -15 45
-15 66 0 21 7 73 15 116 8 44 18 83 21 89 3 5 18 14 32 20 15 6 59 14 97 17
42 4 68 10 65 16 -3 6 -45 10 -95 10 l-90 0 3 71 c3 42 0 74 -6 78 -6 3 -14 1
-17 -5 -4 -6 -8 -25 -10 -42 -2 -18 -7 -49 -13 -70 -6 -21 -15 -44 -21 -51 -7
-8 -43 -22 -80 -31 -38 -9 -79 -15 -91 -13 -13 2 -28 11 -34 21 -9 14 -4 30
24 83 22 42 71 103 132 167 64 67 98 110 98 125 0 12 -6 22 -14 22z"/>
</g>
</svg>
