<?xml version="1.0" standalone="no"?>
<!DOCTYPE svg PUBLIC "-//W3C//DTD SVG 20010904//EN"
 "http://www.w3.org/TR/2001/REC-SVG-20010904/DTD/svg10.dtd">
<svg version="1.0" xmlns="http://www.w3.org/2000/svg"
 width="165.000000pt" height="179.000000pt" viewBox="0 0 165.000000 179.000000"
 preserveAspectRatio="xMidYMid meet">
<metadata>
Created by potrace 1.16, written by Peter Selinger 2001-2019
</metadata>
<g transform="translate(0.000000,179.000000) scale(0.100000,-0.100000)"
fill="#000000" stroke="none">
<path d="M909 1320 c-14 0 -26 -13 -39 -42 -11 -24 -20 -56 -20 -73 0 -16 -7
-59 -15 -94 -9 -36 -25 -81 -37 -100 -12 -20 -48 -77 -80 -127 -43 -67 -71
-100 -110 -127 -29 -20 -73 -45 -98 -56 -25 -11 -64 -21 -87 -21 -35 0 -46 5
-59 25 -12 18 -15 39 -12 75 3 27 12 60 21 74 10 14 44 44 77 66 42 29 75 43
109 47 44 5 50 3 61 -18 11 -20 10 -25 -15 -45 -15 -12 -24 -27 -21 -33 4 -6
24 -11 44 -11 20 0 42 4 48 8 6 4 17 23 24 43 12 33 11 40 -6 70 -11 19 -31
40 -45 46 -13 7 -44 13 -69 12 -25 0 -61 -6 -80 -13 -20 -6 -60 -31 -90 -53
-30 -22 -69 -56 -86 -74 -18 -19 -37 -51 -43 -71 -8 -23 -10 -56 -5 -85 3 -26
13 -60 20 -75 8 -15 28 -35 46 -44 22 -11 49 -15 93 -12 40 2 80 13 115 31 30
15 89 54 130 87 41 33 79 69 85 80 6 11 14 17 18 14 4 -4 7 -22 7 -40 0 -22 6
-37 18 -43 12 -6 28 -4 52 5 19 8 42 22 51 30 14 13 19 11 40 -20 13 -19 40
-44 60 -55 27 -16 55 -21 107 -21 39 0 85 7 106 15 23 10 36 22 36 34 0 10 -7
21 -15 24 -8 4 -41 1 -73 -4 -41 -7 -71 -7 -98 0 -27 7 -45 20 -57 41 -11 17
-16 39 -12 50 3 11 24 42 46 70 21 27 39 58 39 69 0 11 -9 25 -21 31 -16 9
-26 8 -44 -4 -13 -9 -32 -28 -42 -42 -10 -15 -38 -48 -62 -75 -24 -27 -48 -49
-54 -49 -5 0 -7 19 -2 48 4 26 15 77 25 113 10 37 23 77 30 88 6 12 16 50 21
84 5 34 12 74 15 88 3 17 -1 32 -11 43 -9 9 -25 16 -36 16z"/>
</g>
</svg>
