<?xml version="1.0" standalone="no"?>
<!DOCTYPE svg PUBLIC "-//W3C//DTD SVG 20010904//EN"
 "http://www.w3.org/TR/2001/REC-SVG-20010904/DTD/svg10.dtd">
<svg version="1.0" xmlns="http://www.w3.org/2000/svg"
 width="157.000000pt" height="173.000000pt" viewBox="0 0 157.000000 173.000000"
 preserveAspectRatio="xMidYMid meet">
<metadata>
Created by potrace 1.16, written by Peter Selinger 2001-2019
</metadata>
<g transform="translate(0.000000,173.000000) scale(0.100000,-0.100000)"
fill="#000000" stroke="none">
<path d="M814 1130 c-7 0 -18 -9 -24 -19 -5 -11 -10 -34 -10 -51 0 -17 5 -40
10 -51 6 -10 21 -19 34 -19 13 0 31 9 41 20 12 14 15 27 10 47 -3 15 -16 38
-27 51 -12 12 -27 22 -34 22z M829 828 c-9 2 -22 -4 -29 -13 -11 -13 -9 -31 8
-105 13 -53 22 -122 22 -167 0 -43 -6 -100 -14 -128 -7 -27 -21 -65 -30 -83
-9 -18 -31 -42 -49 -53 -24 -15 -44 -19 -79 -16 -26 2 -55 10 -63 17 -9 8 -28
35 -41 62 -13 26 -30 48 -38 48 -7 0 -19 -7 -26 -15 -10 -12 -10 -24 -1 -55 7
-25 29 -54 62 -84 48 -44 54 -46 109 -46 32 0 71 5 87 11 15 5 43 25 62 42 18
18 44 55 57 83 13 31 27 89 33 143 7 61 7 121 0 179 -6 52 -18 105 -32 132
-12 25 -29 46 -38 48z"/>
</g>
</svg>
