<?xml version="1.0" standalone="no"?>
<!DOCTYPE svg PUBLIC "-//W3C//DTD SVG 20010904//EN"
 "http://www.w3.org/TR/2001/REC-SVG-20010904/DTD/svg10.dtd">
<svg version="1.0" xmlns="http://www.w3.org/2000/svg"
 width="154.000000pt" height="167.000000pt" viewBox="0 0 154.000000 167.000000"
 preserveAspectRatio="xMidYMid meet">
<metadata>
Created by potrace 1.16, written by Peter Selinger 2001-2019
</metadata>
<g transform="translate(0.000000,167.000000) scale(0.100000,-0.100000)"
fill="#000000" stroke="none">
<path d="M745 1259 c-16 0 -41 -5 -54 -10 -14 -5 -43 -25 -65 -43 -23 -19 -55
-58 -73 -87 -17 -30 -37 -82 -44 -117 -10 -48 -10 -77 -2 -129 7 -37 20 -78
31 -92 10 -14 34 -34 53 -43 19 -9 56 -17 83 -18 37 0 63 8 105 31 31 17 75
47 98 66 24 19 55 55 70 81 25 42 28 57 28 137 1 89 1 89 48 100 26 5 56 18
68 28 11 10 18 23 16 30 -3 7 -11 10 -18 8 -8 -2 -40 -6 -71 -9 -47 -4 -61 -1
-84 17 -16 13 -41 21 -64 21 -21 0 -51 7 -66 15 -16 8 -42 15 -59 14z m15 -55
c14 -3 33 -13 43 -21 9 -9 17 -26 17 -39 0 -12 3 -29 6 -38 3 -9 12 -16 20
-16 7 0 21 14 29 30 9 17 20 28 25 25 5 -3 14 -22 20 -43 5 -20 10 -52 10 -71
0 -18 -5 -51 -12 -72 -6 -22 -26 -56 -43 -77 -18 -20 -57 -52 -87 -70 -34 -20
-74 -35 -106 -39 -49 -5 -53 -4 -87 30 -34 34 -35 36 -35 118 0 72 4 93 29
144 15 33 41 73 57 89 16 16 43 35 59 42 17 8 41 11 55 8z"/>
</g>
</svg>
