<?xml version="1.0" standalone="no"?>
<!DOCTYPE svg PUBLIC "-//W3C//DTD SVG 20010904//EN"
 "http://www.w3.org/TR/2001/REC-SVG-20010904/DTD/svg10.dtd">
<svg version="1.0" xmlns="http://www.w3.org/2000/svg"
 width="158.000000pt" height="173.000000pt" viewBox="0 0 158.000000 173.000000"
 preserveAspectRatio="xMidYMid meet">
<metadata>
Created by potrace 1.16, written by Peter Selinger 2001-2019
</metadata>
<g transform="translate(0.000000,173.000000) scale(0.100000,-0.100000)"
fill="#000000" stroke="none">
<path d="M571 1230 c-4 0 -11 -3 -14 -7 -4 -3 -7 -31 -7 -62 0 -31 -5 -94 -10
-141 -5 -47 -16 -141 -25 -210 -8 -69 -15 -162 -16 -207 0 -45 5 -91 11 -103
7 -14 19 -20 33 -18 15 2 40 33 84 108 35 58 83 122 106 143 23 21 55 44 70
53 15 8 32 12 38 8 6 -3 14 -17 19 -30 6 -14 14 -55 20 -92 6 -37 17 -86 26
-109 9 -24 22 -43 30 -43 8 0 17 7 21 16 3 9 -2 58 -11 109 -9 52 -23 113 -32
136 -8 24 -22 51 -31 61 -9 10 -28 18 -43 18 -16 0 -54 -18 -87 -40 -32 -21
-77 -61 -99 -87 -22 -26 -51 -67 -64 -90 -13 -24 -27 -43 -32 -43 -4 0 -8 10
-8 23 0 13 11 113 24 223 14 109 28 229 31 266 6 55 4 73 -9 93 -9 14 -20 25
-25 25z"/>
</g>
</svg>
