<?xml version="1.0" standalone="no"?>
<!DOCTYPE svg PUBLIC "-//W3C//DTD SVG 20010904//EN"
 "http://www.w3.org/TR/2001/REC-SVG-20010904/DTD/svg10.dtd">
<svg version="1.0" xmlns="http://www.w3.org/2000/svg"
 width="155.000000pt" height="170.000000pt" viewBox="0 0 155.000000 170.000000"
 preserveAspectRatio="xMidYMid meet">
<metadata>
Created by potrace 1.16, written by Peter Selinger 2001-2019
</metadata>
<g transform="translate(0.000000,170.000000) scale(0.100000,-0.100000)"
fill="#000000" stroke="none">
<path d="M508 1340 c-10 0 -21 -7 -25 -16 -3 -8 3 -34 13 -57 11 -23 36 -64
58 -92 21 -27 67 -79 101 -115 34 -36 78 -85 98 -110 36 -46 36 -46 -2 -130
-21 -47 -53 -116 -71 -155 -18 -38 -52 -104 -76 -146 -24 -42 -46 -88 -50
-103 -4 -16 -1 -32 6 -41 7 -8 20 -15 29 -15 10 0 30 13 45 29 20 21 26 34 21
53 -4 17 4 47 26 94 17 38 100 208 184 379 84 171 156 320 160 333 4 13 4 34
1 48 -5 17 -13 24 -32 24 -20 0 -29 -9 -45 -47 -12 -27 -29 -72 -40 -101 -10
-29 -30 -79 -45 -112 -18 -41 -32 -60 -45 -60 -9 0 -30 14 -46 31 -15 17 -45
47 -67 68 -21 20 -58 62 -82 93 -24 31 -44 60 -44 64 0 4 -12 25 -26 46 -15
21 -35 38 -46 38z"/>
</g>
</svg>
