<?xml version="1.0" standalone="no"?>
<!DOCTYPE svg PUBLIC "-//W3C//DTD SVG 20010904//EN"
 "http://www.w3.org/TR/2001/REC-SVG-20010904/DTD/svg10.dtd">
<svg version="1.0" xmlns="http://www.w3.org/2000/svg"
 width="156.000000pt" height="168.000000pt" viewBox="0 0 156.000000 168.000000"
 preserveAspectRatio="xMidYMid meet">
<metadata>
Created by potrace 1.16, written by Peter Selinger 2001-2019
</metadata>
<g transform="translate(0.000000,168.000000) scale(0.100000,-0.100000)"
fill="#000000" stroke="none">
<path d="M869 1410 c-18 10 -25 7 -52 -25 -18 -21 -59 -67 -91 -104 -33 -36
-76 -92 -97 -124 -21 -32 -52 -95 -69 -140 -17 -45 -40 -112 -50 -150 -10 -37
-22 -120 -25 -185 -5 -87 -3 -143 9 -217 9 -55 24 -122 32 -148 9 -27 26 -66
38 -86 11 -20 30 -49 42 -63 11 -15 38 -34 59 -42 22 -9 45 -14 52 -12 7 3 13
10 13 16 0 5 -7 10 -17 10 -9 0 -32 17 -52 38 -20 21 -48 63 -63 93 -15 30
-36 96 -47 146 -15 64 -21 128 -21 206 0 62 5 140 10 173 6 32 24 93 39 134
16 41 36 95 46 119 9 25 33 69 53 100 20 30 76 94 124 143 48 49 88 93 88 98
0 5 -9 14 -21 20z"/>
</g>
</svg>
