<?xml version="1.0" standalone="no"?>
<!DOCTYPE svg PUBLIC "-//W3C//DTD SVG 20010904//EN"
 "http://www.w3.org/TR/2001/REC-SVG-20010904/DTD/svg10.dtd">
<svg version="1.0" xmlns="http://www.w3.org/2000/svg"
 width="157.000000pt" height="173.000000pt" viewBox="0 0 157.000000 173.000000"
 preserveAspectRatio="xMidYMid meet">
<metadata>
Created by potrace 1.16, written by Peter Selinger 2001-2019
</metadata>
<g transform="translate(0.000000,173.000000) scale(0.100000,-0.100000)"
fill="#000000" stroke="none">
<path d="M819 1150 c-14 0 -29 -3 -32 -7 -4 -3 -7 -23 -7 -44 0 -32 6 -42 40
-69 23 -18 47 -29 55 -26 9 3 15 19 15 41 0 20 -10 51 -22 70 -17 25 -30 35
-49 35z M804 910 c-22 0 -30 -11 -64 -82 -21 -46 -44 -110 -50 -143 -9 -44 -9
-67 -1 -87 6 -16 25 -37 43 -48 23 -14 42 -18 63 -14 17 3 52 18 78 32 26 14
66 45 88 69 22 24 39 52 37 61 -2 9 -13 18 -24 20 -13 2 -39 -13 -70 -41 -27
-24 -64 -49 -83 -55 -19 -7 -36 -12 -39 -12 -3 0 -2 21 2 48 3 26 18 81 32
123 17 50 24 86 20 103 -5 19 -13 26 -32 26z"/>
</g>
</svg>
