<?xml version="1.0" standalone="no"?>
<!DOCTYPE svg PUBLIC "-//W3C//DTD SVG 20010904//EN"
 "http://www.w3.org/TR/2001/REC-SVG-20010904/DTD/svg10.dtd">
<svg version="1.0" xmlns="http://www.w3.org/2000/svg"
 width="164.000000pt" height="179.000000pt" viewBox="0 0 164.000000 179.000000"
 preserveAspectRatio="xMidYMid meet">
<metadata>
Created by potrace 1.16, written by Peter Selinger 2001-2019
</metadata>
<g transform="translate(0.000000,179.000000) scale(0.100000,-0.100000)"
fill="#000000" stroke="none">
<path d="M790 978 c-17 7 -38 6 -61 -2 -19 -7 -56 -27 -81 -44 -26 -18 -69
-58 -95 -89 -26 -31 -61 -69 -76 -84 -24 -24 -27 -33 -22 -62 4 -19 16 -49 26
-67 12 -19 38 -40 67 -52 35 -16 67 -22 127 -21 44 0 114 5 155 13 41 7 96 23
123 36 26 14 47 28 47 34 0 5 -4 11 -9 14 -4 3 -32 -3 -62 -13 -30 -11 -97
-24 -149 -30 -52 -6 -113 -8 -135 -4 -22 3 -52 12 -67 20 -15 7 -32 23 -39 34
-6 12 -7 24 -2 28 4 4 40 17 79 29 39 12 99 40 132 62 34 21 68 52 76 69 9 16
16 39 16 50 0 11 -5 31 -11 45 -7 14 -24 29 -39 34z m-27 -48 c4 0 7 -13 7
-30 0 -19 -9 -38 -27 -55 -16 -14 -48 -35 -73 -46 -25 -12 -57 -25 -72 -30
-19 -5 -28 -4 -28 4 0 7 23 36 51 66 29 29 70 62 93 72 23 10 44 19 49 19z"/>
</g>
</svg>
