<?xml version="1.0" standalone="no"?>
<!DOCTYPE svg PUBLIC "-//W3C//DTD SVG 20010904//EN"
 "http://www.w3.org/TR/2001/REC-SVG-20010904/DTD/svg10.dtd">
<svg version="1.0" xmlns="http://www.w3.org/2000/svg"
 width="156.000000pt" height="170.000000pt" viewBox="0 0 156.000000 170.000000"
 preserveAspectRatio="xMidYMid meet">
<metadata>
Created by potrace 1.16, written by Peter Selinger 2001-2019
</metadata>
<g transform="translate(0.000000,170.000000) scale(0.100000,-0.100000)"
fill="#000000" stroke="none">
<path d="M616 1110 c-3 0 -8 -5 -11 -11 -4 -5 -4 -21 -1 -34 4 -16 18 -27 42
-35 20 -7 55 -10 78 -6 22 3 55 9 72 12 l31 6 -4 -149 c-2 -81 -8 -218 -14
-303 -5 -85 -16 -184 -23 -220 -11 -47 -22 -71 -41 -87 -20 -18 -38 -23 -83
-23 -31 0 -96 6 -144 14 -57 10 -97 22 -117 37 -23 17 -34 20 -42 12 -7 -7 -9
-18 -6 -27 3 -8 20 -22 36 -31 17 -8 66 -23 108 -32 43 -9 122 -17 176 -17 95
-1 99 0 122 26 14 16 30 57 40 100 9 40 20 111 25 158 5 47 14 192 19 323 6
148 7 247 1 262 -5 14 -18 25 -28 25 -11 0 -34 -7 -52 -16 -18 -9 -53 -19 -77
-22 -35 -4 -51 0 -73 17 -16 11 -31 21 -34 21z"/>
</g>
</svg>
