<?xml version="1.0" standalone="no"?>
<!DOCTYPE svg PUBLIC "-//W3C//DTD SVG 20010904//EN"
 "http://www.w3.org/TR/2001/REC-SVG-20010904/DTD/svg10.dtd">
<svg version="1.0" xmlns="http://www.w3.org/2000/svg"
 width="166.000000pt" height="180.000000pt" viewBox="0 0 166.000000 180.000000"
 preserveAspectRatio="xMidYMid meet">
<metadata>
Created by potrace 1.16, written by Peter Selinger 2001-2019
</metadata>
<g transform="translate(0.000000,180.000000) scale(0.100000,-0.100000)"
fill="#000000" stroke="none">
<path d="M791 930 c-25 -1 -57 -7 -71 -14 -14 -8 -39 -32 -56 -53 -18 -21 -41
-60 -53 -86 -12 -26 -24 -66 -27 -91 -4 -24 -1 -59 5 -78 6 -19 27 -50 47 -69
32 -31 40 -34 98 -34 54 0 71 5 116 33 52 33 52 33 97 11 32 -16 56 -20 87
-17 26 3 62 18 89 37 31 21 44 36 41 46 -4 8 -13 15 -22 15 -9 0 -35 -9 -59
-21 -30 -15 -52 -19 -74 -14 -18 4 -35 16 -41 30 -8 18 -6 39 6 87 10 36 16
88 14 122 -2 46 -7 62 -24 73 -18 12 -24 11 -47 -7 -26 -20 -26 -20 -53 5 -21
19 -37 25 -73 25z m-5 -60 c5 0 18 -6 28 -13 18 -13 17 -15 -13 -46 -17 -17
-31 -39 -31 -48 0 -11 6 -14 23 -9 12 3 32 9 43 12 20 5 22 1 29 -61 6 -61 5
-69 -16 -91 -13 -13 -39 -29 -59 -35 -19 -6 -48 -9 -64 -7 -17 2 -37 14 -48
28 -10 14 -21 42 -24 61 -5 28 1 52 26 103 21 45 42 74 63 87 18 10 37 19 43
19z"/>
</g>
</svg>
