<?xml version="1.0" standalone="no"?>
<!DOCTYPE svg PUBLIC "-//W3C//DTD SVG 20010904//EN"
 "http://www.w3.org/TR/2001/REC-SVG-20010904/DTD/svg10.dtd">
<svg version="1.0" xmlns="http://www.w3.org/2000/svg"
 width="152.000000pt" height="167.000000pt" viewBox="0 0 152.000000 167.000000"
 preserveAspectRatio="xMidYMid meet">
<metadata>
Created by potrace 1.16, written by Peter Selinger 2001-2019
</metadata>
<g transform="translate(0.000000,167.000000) scale(0.100000,-0.100000)"
fill="#000000" stroke="none">
<path d="M765 1260 c-1 0 -5 -15 -8 -32 -3 -18 -14 -60 -25 -93 -11 -33 -28
-98 -38 -145 -9 -47 -21 -93 -26 -102 -6 -13 -21 -18 -47 -18 -22 0 -74 -7
-117 -16 -44 -9 -85 -22 -93 -29 -7 -7 -10 -18 -7 -24 4 -6 19 -11 33 -11 15
0 65 7 111 16 70 13 86 13 93 2 4 -7 5 -24 2 -38 -3 -14 -10 -33 -15 -42 -7
-15 -22 -18 -77 -18 -37 0 -96 -3 -130 -6 -50 -6 -61 -10 -61 -25 0 -10 10
-21 21 -24 12 -4 64 -4 117 0 69 5 97 4 102 -5 4 -6 2 -39 -5 -73 -7 -34 -16
-86 -20 -115 -5 -35 -3 -57 5 -67 6 -7 18 -11 26 -8 8 3 22 19 30 36 14 25 14
36 4 68 -10 31 -10 50 0 98 7 34 18 65 24 70 6 5 48 12 94 16 61 6 82 5 82 -4
0 -7 -16 -78 -36 -159 -20 -81 -44 -185 -54 -232 -15 -71 -16 -87 -5 -99 7 -7
18 -10 24 -7 6 4 20 24 30 45 11 20 22 54 26 74 5 23 3 42 -4 51 -8 10 -7 32
4 87 9 41 25 108 36 149 12 41 29 83 38 93 15 15 41 20 142 25 124 7 124 7
124 32 0 19 -6 26 -25 28 -14 1 -66 -3 -117 -11 -51 -7 -97 -11 -102 -7 -6 3
-8 22 -4 43 3 20 12 42 20 49 10 8 62 14 140 16 l124 4 30 -28 c22 -21 32 -25
41 -16 8 8 8 18 -1 41 -7 16 -26 35 -42 42 -22 8 -64 10 -149 5 -91 -5 -119
-4 -122 6 -3 7 1 27 9 45 7 18 13 41 13 52 0 11 6 35 14 53 8 18 26 62 40 98
14 36 26 71 26 78 0 8 -7 12 -17 10 -9 -2 -27 -21 -40 -43 -13 -22 -28 -51
-34 -65 -6 -14 -22 -70 -35 -125 -14 -55 -31 -105 -37 -112 -7 -7 -44 -13 -90
-14 -43 -1 -81 1 -84 5 -4 3 6 57 22 119 15 61 34 127 41 146 8 18 14 48 14
66 0 21 -6 35 -16 39 -9 3 -17 6 -19 6z m30 -430 c41 0 77 -4 80 -10 3 -5 1
-27 -5 -48 l-10 -39 -87 -6 c-48 -4 -89 -4 -91 -2 -3 2 -1 20 2 39 4 20 14 42
22 51 11 11 36 15 89 15z"/>
</g>
</svg>
