<?xml version="1.0" standalone="no"?>
<!DOCTYPE svg PUBLIC "-//W3C//DTD SVG 20010904//EN"
 "http://www.w3.org/TR/2001/REC-SVG-20010904/DTD/svg10.dtd">
<svg version="1.0" xmlns="http://www.w3.org/2000/svg"
 width="165.000000pt" height="179.000000pt" viewBox="0 0 165.000000 179.000000"
 preserveAspectRatio="xMidYMid meet">
<metadata>
Created by potrace 1.16, written by Peter Selinger 2001-2019
</metadata>
<g transform="translate(0.000000,179.000000) scale(0.100000,-0.100000)"
fill="#000000" stroke="none">
<path d="M570 1033 c-14 3 -30 3 -36 -1 -6 -4 -14 -18 -17 -32 -5 -20 -18 -30
-54 -43 -26 -9 -58 -17 -70 -17 -12 0 -27 -9 -33 -19 -5 -11 -10 -28 -10 -39
0 -11 7 -25 15 -32 8 -6 31 -16 52 -22 21 -5 50 -12 65 -15 14 -3 37 -16 49
-29 12 -13 31 -24 41 -24 11 0 28 5 39 10 13 7 19 21 19 44 0 33 0 33 102 40
56 4 134 14 174 22 41 9 108 16 151 17 78 2 78 2 77 40 -1 21 -8 46 -17 54
-13 14 -20 14 -63 -1 -27 -8 -107 -24 -179 -35 -71 -11 -155 -22 -187 -25 -31
-2 -59 -2 -62 1 -3 3 4 13 15 22 13 11 18 22 13 34 -3 10 -18 24 -33 31 -14 7
-37 16 -51 19z"/>
</g>
</svg>
