<?xml version="1.0" standalone="no"?>
<!DOCTYPE svg PUBLIC "-//W3C//DTD SVG 20010904//EN"
 "http://www.w3.org/TR/2001/REC-SVG-20010904/DTD/svg10.dtd">
<svg version="1.0" xmlns="http://www.w3.org/2000/svg"
 width="153.000000pt" height="167.000000pt" viewBox="0 0 153.000000 167.000000"
 preserveAspectRatio="xMidYMid meet">
<metadata>
Created by potrace 1.16, written by Peter Selinger 2001-2019
</metadata>
<g transform="translate(0.000000,167.000000) scale(0.100000,-0.100000)"
fill="#000000" stroke="none">
<path d="M1084 1240 c-5 5 -16 5 -25 0 -9 -6 -47 -56 -84 -112 -37 -57 -100
-150 -139 -208 -38 -58 -95 -143 -126 -190 -31 -47 -87 -138 -124 -203 -38
-66 -66 -124 -62 -132 3 -8 12 -15 21 -15 9 0 27 11 40 25 14 13 25 36 25 51
0 15 20 64 45 109 25 46 86 143 135 216 50 74 139 205 197 292 63 94 102 161
97 167z M694 1240 c-5 0 -20 -6 -33 -13 -14 -6 -44 -36 -68 -65 -26 -31 -49
-74 -59 -108 -9 -34 -13 -69 -10 -90 5 -24 16 -38 36 -49 16 -8 42 -15 57 -15
16 0 51 16 80 36 29 20 68 59 86 88 19 28 41 73 50 99 14 42 14 49 2 54 -8 3
-22 3 -30 -1 -8 -3 -17 -17 -20 -31 -3 -14 -7 -37 -10 -51 -3 -14 -31 -52 -63
-84 -31 -32 -69 -62 -85 -65 -16 -5 -33 -2 -42 5 -8 7 -15 25 -15 40 0 15 13
54 30 86 16 33 41 71 55 84 14 13 28 20 32 16 4 -4 2 -16 -5 -26 -7 -11 -12
-24 -12 -30 0 -5 6 -10 14 -10 7 0 25 9 40 21 14 11 26 31 26 43 0 12 -10 32
-23 44 -13 12 -27 22 -33 22z M1130 700 c-4 0 -10 -33 -12 -72 -2 -52 -11 -87
-28 -122 -14 -27 -38 -62 -53 -78 -16 -15 -39 -28 -51 -28 -13 0 -31 9 -42 21
-14 16 -19 36 -19 84 0 49 5 70 21 92 15 19 30 28 50 28 27 0 29 -2 27 -38 -2
-34 0 -38 20 -35 18 2 23 11 25 40 3 30 -2 43 -23 64 -22 22 -32 25 -63 19
-20 -4 -48 -16 -61 -28 -13 -12 -30 -36 -37 -54 -8 -18 -14 -55 -14 -83 0 -28
7 -64 15 -80 8 -15 27 -38 41 -49 15 -12 41 -21 60 -21 25 0 45 10 73 35 21
20 50 62 66 97 17 37 31 87 33 121 3 37 0 62 -8 72 -7 8 -16 15 -20 15z"/>
</g>
</svg>
