<?xml version="1.0" standalone="no"?>
<!DOCTYPE svg PUBLIC "-//W3C//DTD SVG 20010904//EN"
 "http://www.w3.org/TR/2001/REC-SVG-20010904/DTD/svg10.dtd">
<svg version="1.0" xmlns="http://www.w3.org/2000/svg"
 width="164.000000pt" height="179.000000pt" viewBox="0 0 164.000000 179.000000"
 preserveAspectRatio="xMidYMid meet">
<metadata>
Created by potrace 1.16, written by Peter Selinger 2001-2019
</metadata>
<g transform="translate(0.000000,179.000000) scale(0.100000,-0.100000)"
fill="#000000" stroke="none">
<path d="M785 835 c-73 5 -84 4 -115 -17 -18 -13 -45 -45 -59 -72 -17 -32 -26
-70 -29 -110 -2 -34 3 -81 10 -106 10 -31 24 -52 47 -67 19 -13 51 -28 70 -34
27 -8 48 -8 79 1 26 6 58 26 80 48 21 21 49 60 62 87 18 36 24 66 24 107 -1
36 -8 68 -20 89 -10 17 -30 40 -44 50 -16 11 -53 19 -105 24z m44 -65 c10 0
26 -9 36 -20 10 -11 20 -41 23 -69 3 -38 -1 -60 -19 -96 -13 -26 -36 -58 -52
-71 -18 -15 -41 -24 -63 -24 -20 0 -44 5 -56 11 -11 6 -26 26 -34 44 -8 19
-14 48 -14 64 0 20 7 34 20 41 11 6 31 22 46 35 15 14 33 25 40 25 7 0 22 14
34 30 12 17 29 30 39 30z"/>
</g>
</svg>
