<?xml version="1.0" standalone="no"?>
<!DOCTYPE svg PUBLIC "-//W3C//DTD SVG 20010904//EN"
 "http://www.w3.org/TR/2001/REC-SVG-20010904/DTD/svg10.dtd">
<svg version="1.0" xmlns="http://www.w3.org/2000/svg"
 width="163.000000pt" height="178.000000pt" viewBox="0 0 163.000000 178.000000"
 preserveAspectRatio="xMidYMid meet">
<metadata>
Created by potrace 1.16, written by Peter Selinger 2001-2019
</metadata>
<g transform="translate(0.000000,178.000000) scale(0.100000,-0.100000)"
fill="#000000" stroke="none">
<path d="M710 959 c-8 0 -22 -3 -31 -7 -9 -4 -29 -18 -45 -32 -16 -14 -48 -48
-70 -75 -23 -28 -51 -69 -63 -93 -15 -30 -20 -53 -16 -73 4 -16 18 -38 32 -49
15 -11 51 -28 82 -36 41 -12 75 -15 135 -10 65 5 95 14 153 43 40 20 74 42 77
50 3 7 -1 16 -9 19 -8 3 -40 -9 -72 -28 -56 -32 -62 -33 -158 -32 -55 0 -112
6 -127 12 -16 6 -28 18 -28 27 0 9 9 15 23 15 13 0 52 14 86 31 39 20 67 41
76 59 8 16 15 50 15 75 0 26 -5 56 -11 68 -7 12 -17 25 -23 29 -6 4 -18 7 -26
7z m-10 -64 c6 -3 10 -23 10 -44 0 -24 -7 -44 -18 -54 -10 -9 -34 -23 -55 -32
-20 -8 -44 -15 -52 -15 -14 0 -14 4 2 31 10 17 37 51 61 76 23 24 47 41 52 38z"/>
</g>
</svg>
