<?xml version="1.0" standalone="no"?>
<!DOCTYPE svg PUBLIC "-//W3C//DTD SVG 20010904//EN"
 "http://www.w3.org/TR/2001/REC-SVG-20010904/DTD/svg10.dtd">
<svg version="1.0" xmlns="http://www.w3.org/2000/svg"
 width="164.000000pt" height="178.000000pt" viewBox="0 0 164.000000 178.000000"
 preserveAspectRatio="xMidYMid meet">
<metadata>
Created by potrace 1.16, written by Peter Selinger 2001-2019
</metadata>
<g transform="translate(0.000000,178.000000) scale(0.100000,-0.100000)"
fill="#000000" stroke="none">
<path d="M934 1188 c-11 2 -26 -4 -33 -12 -8 -9 -11 -26 -7 -41 5 -19 13 -25
35 -25 16 0 33 6 39 13 8 9 7 20 -1 37 -7 14 -22 26 -33 28z M641 1060 c-15 0
-49 -14 -77 -31 -27 -17 -80 -59 -118 -93 -49 -43 -77 -77 -94 -114 -20 -44
-23 -65 -20 -119 4 -63 6 -68 47 -104 30 -27 56 -40 86 -45 24 -3 79 -5 122
-3 57 3 90 10 123 27 25 13 65 44 90 68 46 44 46 44 68 -1 15 -31 28 -45 42
-45 11 0 29 9 40 20 11 11 20 33 20 50 0 24 -6 33 -26 40 -26 10 -26 12 -23
93 4 78 3 82 -18 85 -13 2 -26 -4 -32 -16 -6 -11 -15 -41 -21 -67 -9 -38 -22
-58 -67 -101 -35 -34 -75 -61 -110 -74 -32 -12 -78 -20 -114 -20 -33 0 -75 6
-94 14 -18 8 -41 26 -50 39 -10 16 -15 41 -13 68 3 43 3 43 72 56 38 7 93 24
122 38 28 14 70 45 93 70 30 32 41 53 41 76 0 22 -9 40 -31 60 -18 17 -42 29
-58 29z m4 -63 c5 -2 11 -13 13 -24 2 -13 -10 -31 -34 -53 -20 -17 -57 -41
-81 -51 -25 -10 -53 -19 -64 -19 -10 0 -19 4 -19 8 0 4 21 29 48 54 26 25 65
56 87 67 22 12 44 20 50 18z"/>
</g>
</svg>
