<?xml version="1.0" standalone="no"?>
<!DOCTYPE svg PUBLIC "-//W3C//DTD SVG 20010904//EN"
 "http://www.w3.org/TR/2001/REC-SVG-20010904/DTD/svg10.dtd">
<svg version="1.0" xmlns="http://www.w3.org/2000/svg"
 width="154.000000pt" height="168.000000pt" viewBox="0 0 154.000000 168.000000"
 preserveAspectRatio="xMidYMid meet">
<metadata>
Created by potrace 1.16, written by Peter Selinger 2001-2019
</metadata>
<g transform="translate(0.000000,168.000000) scale(0.100000,-0.100000)"
fill="#000000" stroke="none">
<path d="M723 1355 c-21 3 -60 -1 -88 -8 -27 -8 -68 -25 -90 -39 -22 -14 -50
-36 -61 -49 -12 -13 -25 -34 -28 -46 -4 -12 -3 -24 2 -27 5 -3 34 19 63 48 42
42 67 58 111 71 32 9 70 15 85 13 26 -3 28 -7 27 -43 0 -22 -8 -57 -18 -77
-10 -20 -36 -61 -59 -91 -23 -30 -76 -99 -118 -153 -42 -55 -81 -109 -87 -121
-8 -14 -9 -30 -3 -45 5 -13 20 -33 33 -45 13 -12 43 -29 67 -38 27 -9 79 -15
138 -15 52 0 103 5 114 10 10 6 19 15 19 21 0 7 -19 8 -53 4 -29 -4 -87 -2
-130 4 -43 6 -89 19 -103 28 -13 10 -27 28 -30 39 -3 13 3 38 14 60 11 22 46
71 79 109 32 39 80 98 106 132 26 34 56 82 67 105 11 24 20 59 20 79 0 23 -7
42 -19 53 -11 10 -37 19 -58 21z M659 450 c-15 0 -31 -5 -34 -10 -3 -6 -3 -19
0 -30 4 -11 25 -30 47 -41 22 -11 46 -18 54 -15 8 3 14 16 14 30 0 15 -11 33
-26 45 -15 12 -39 21 -55 21z"/>
</g>
</svg>
