<?xml version="1.0" standalone="no"?>
<!DOCTYPE svg PUBLIC "-//W3C//DTD SVG 20010904//EN"
 "http://www.w3.org/TR/2001/REC-SVG-20010904/DTD/svg10.dtd">
<svg version="1.0" xmlns="http://www.w3.org/2000/svg"
 width="164.000000pt" height="181.000000pt" viewBox="0 0 164.000000 181.000000"
 preserveAspectRatio="xMidYMid meet">
<metadata>
Created by potrace 1.16, written by Peter Selinger 2001-2019
</metadata>
<g transform="translate(0.000000,181.000000) scale(0.100000,-0.100000)"
fill="#000000" stroke="none">
<path d="M954 1189 c-32 0 -78 -6 -101 -14 -23 -7 -64 -25 -90 -40 -26 -16
-73 -47 -103 -70 -30 -23 -77 -66 -103 -94 -27 -28 -59 -76 -73 -105 -14 -30
-27 -83 -30 -118 -4 -35 -1 -81 5 -104 6 -22 24 -59 40 -81 16 -22 46 -48 67
-59 30 -14 59 -18 124 -17 54 0 110 8 153 21 38 12 89 33 114 48 25 14 63 42
83 60 24 22 47 58 63 97 14 34 28 92 32 128 4 40 2 88 -4 121 -7 31 -27 82
-46 113 -19 32 -35 63 -35 70 0 6 -8 19 -18 28 -13 12 -36 17 -78 16z m-30
-95 c53 -5 65 -10 93 -41 22 -24 36 -53 44 -91 6 -31 8 -80 5 -109 -3 -29 -15
-77 -26 -106 -11 -29 -32 -65 -48 -80 -15 -14 -56 -39 -92 -55 -36 -16 -86
-34 -112 -41 -26 -6 -71 -12 -101 -12 -31 -1 -65 5 -83 14 -16 8 -38 32 -49
53 -14 27 -20 56 -20 103 0 50 6 78 25 116 13 28 54 79 90 115 42 42 91 78
139 103 69 35 79 37 135 31z M873 996 c-21 2 -51 -2 -68 -9 -16 -8 -54 -38
-82 -68 -29 -30 -63 -72 -74 -95 -15 -28 -20 -49 -15 -67 3 -15 18 -35 33 -44
20 -14 46 -18 103 -17 60 1 87 7 133 28 37 18 63 38 72 56 8 16 15 35 15 43 0
8 -6 17 -14 20 -8 3 -24 3 -35 0 -12 -3 -21 -9 -21 -13 0 -5 -15 -18 -34 -29
-21 -13 -60 -24 -100 -28 -49 -4 -66 -3 -66 6 0 7 12 29 26 49 15 21 43 50 62
65 35 27 36 27 44 7 4 -11 13 -20 20 -20 7 0 28 9 46 20 17 11 32 28 32 38 0
11 -9 27 -19 36 -11 10 -37 20 -58 22z"/>
</g>
</svg>
