<?xml version="1.0" standalone="no"?>
<!DOCTYPE svg PUBLIC "-//W3C//DTD SVG 20010904//EN"
 "http://www.w3.org/TR/2001/REC-SVG-20010904/DTD/svg10.dtd">
<svg version="1.0" xmlns="http://www.w3.org/2000/svg"
 width="152.000000pt" height="167.000000pt" viewBox="0 0 152.000000 167.000000"
 preserveAspectRatio="xMidYMid meet">
<metadata>
Created by potrace 1.16, written by Peter Selinger 2001-2019
</metadata>
<g transform="translate(0.000000,167.000000) scale(0.100000,-0.100000)"
fill="#000000" stroke="none">
<path d="M1038 841 c-2 6 -23 -10 -46 -35 -24 -26 -61 -60 -84 -76 -23 -17
-53 -30 -67 -30 -14 0 -30 4 -36 8 -5 4 -27 28 -47 53 -20 25 -50 52 -67 58
-23 10 -42 10 -88 1 -49 -10 -65 -20 -105 -61 -39 -39 -48 -56 -48 -83 0 -19
5 -38 10 -41 6 -4 17 -1 25 5 8 7 15 22 15 33 0 11 18 37 39 57 24 23 54 40
76 44 26 5 44 3 61 -8 13 -9 38 -36 56 -60 18 -25 43 -49 56 -55 17 -8 35 -8
64 0 23 6 57 21 77 34 20 12 51 39 69 59 17 20 34 47 38 61 3 13 4 29 2 36z"/>
</g>
</svg>
