<?xml version="1.0" standalone="no"?>
<!DOCTYPE svg PUBLIC "-//W3C//DTD SVG 20010904//EN"
 "http://www.w3.org/TR/2001/REC-SVG-20010904/DTD/svg10.dtd">
<svg version="1.0" xmlns="http://www.w3.org/2000/svg"
 width="154.000000pt" height="168.000000pt" viewBox="0 0 154.000000 168.000000"
 preserveAspectRatio="xMidYMid meet">
<metadata>
Created by potrace 1.16, written by Peter Selinger 2001-2019
</metadata>
<g transform="translate(0.000000,168.000000) scale(0.100000,-0.100000)"
fill="#000000" stroke="none">
<path d="M756 1170 c-7 0 -26 -15 -42 -32 -17 -18 -45 -57 -62 -86 -22 -36
-32 -65 -32 -93 0 -22 6 -52 14 -68 8 -15 32 -39 53 -53 21 -14 59 -37 85 -52
26 -14 54 -36 63 -48 8 -13 15 -42 15 -65 0 -33 -7 -50 -30 -77 -17 -19 -47
-40 -66 -46 -19 -7 -50 -9 -67 -6 -18 3 -49 20 -70 37 -21 17 -45 45 -53 61
-9 17 -16 47 -16 67 0 20 -2 39 -4 43 -3 4 -11 5 -19 1 -9 -3 -15 -18 -15 -38
0 -18 7 -48 15 -68 8 -19 33 -51 56 -70 22 -20 56 -43 74 -51 18 -9 47 -16 63
-16 17 0 50 8 74 19 24 10 53 29 65 42 11 13 26 42 33 64 9 31 9 51 1 82 -10
38 -21 48 -113 110 -91 60 -103 72 -111 106 -6 25 -5 47 3 66 6 16 21 38 33
48 15 13 55 25 122 36 55 9 134 19 175 23 41 3 85 10 98 15 13 5 20 13 17 19
-3 5 -33 10 -66 10 -33 0 -103 -5 -157 -11 -93 -10 -97 -10 -111 10 -7 12 -19
21 -25 21z"/>
</g>
</svg>
