<?xml version="1.0" standalone="no"?>
<!DOCTYPE svg PUBLIC "-//W3C//DTD SVG 20010904//EN"
 "http://www.w3.org/TR/2001/REC-SVG-20010904/DTD/svg10.dtd">
<svg version="1.0" xmlns="http://www.w3.org/2000/svg"
 width="158.000000pt" height="173.000000pt" viewBox="0 0 158.000000 173.000000"
 preserveAspectRatio="xMidYMid meet">
<metadata>
Created by potrace 1.16, written by Peter Selinger 2001-2019
</metadata>
<g transform="translate(0.000000,173.000000) scale(0.100000,-0.100000)"
fill="#000000" stroke="none">
<path d="M702 960 c-21 0 -62 -12 -92 -27 -30 -15 -82 -55 -117 -89 -44 -45
-64 -73 -69 -98 -3 -20 -4 -47 0 -60 3 -13 23 -41 45 -64 30 -31 51 -43 92
-52 30 -6 90 -15 134 -21 44 -5 118 -8 165 -8 47 1 96 4 110 8 14 4 26 15 28
25 4 17 -2 18 -76 12 -45 -4 -126 -2 -184 4 -56 6 -125 18 -152 25 -27 8 -55
20 -62 26 -8 6 -14 15 -14 20 0 5 12 9 28 9 15 1 43 7 64 14 20 7 66 35 102
61 41 30 69 59 76 78 5 17 10 43 10 59 0 17 -10 39 -25 53 -17 18 -35 25 -63
25z m-17 -50 c17 0 36 -5 43 -12 7 -7 12 -21 12 -32 0 -11 -19 -38 -43 -61
-24 -22 -64 -51 -90 -63 -26 -12 -65 -22 -87 -22 -32 0 -40 4 -40 19 0 10 19
40 42 66 24 27 63 61 87 77 25 15 59 28 76 28z"/>
</g>
</svg>
