<?xml version="1.0" standalone="no"?>
<!DOCTYPE svg PUBLIC "-//W3C//DTD SVG 20010904//EN"
 "http://www.w3.org/TR/2001/REC-SVG-20010904/DTD/svg10.dtd">
<svg version="1.0" xmlns="http://www.w3.org/2000/svg"
 width="154.000000pt" height="166.000000pt" viewBox="0 0 154.000000 166.000000"
 preserveAspectRatio="xMidYMid meet">
<metadata>
Created by potrace 1.16, written by Peter Selinger 2001-2019
</metadata>
<g transform="translate(0.000000,166.000000) scale(0.100000,-0.100000)"
fill="#000000" stroke="none">
<path d="M919 1198 c-11 2 -26 -14 -45 -45 -15 -26 -73 -93 -128 -148 -56 -56
-121 -114 -145 -130 -30 -20 -57 -30 -89 -31 -26 -1 -48 -7 -50 -12 -2 -6 5
-15 15 -20 11 -6 36 -7 61 -2 29 5 66 26 118 65 42 32 103 89 137 127 34 37
65 68 70 68 5 0 7 -19 4 -42 -3 -24 -15 -86 -26 -138 -12 -52 -21 -125 -21
-162 0 -55 3 -69 18 -77 13 -7 22 -7 30 1 7 7 7 19 0 40 -6 17 -8 59 -5 97 3
36 22 130 42 209 20 79 35 155 33 170 -2 15 -10 28 -19 30z"/>
</g>
</svg>
