<?xml version="1.0" standalone="no"?>
<!DOCTYPE svg PUBLIC "-//W3C//DTD SVG 20010904//EN"
 "http://www.w3.org/TR/2001/REC-SVG-20010904/DTD/svg10.dtd">
<svg version="1.0" xmlns="http://www.w3.org/2000/svg"
 width="155.000000pt" height="171.000000pt" viewBox="0 0 155.000000 171.000000"
 preserveAspectRatio="xMidYMid meet">
<metadata>
Created by potrace 1.16, written by Peter Selinger 2001-2019
</metadata>
<g transform="translate(0.000000,171.000000) scale(0.100000,-0.100000)"
fill="#000000" stroke="none">
<path d="M994 1308 c-16 2 -38 -25 -114 -140 -51 -79 -113 -180 -137 -226 -23
-45 -43 -90 -43 -100 0 -10 -16 -42 -36 -72 -19 -30 -45 -63 -57 -72 -12 -10
-34 -18 -49 -18 -21 0 -29 6 -34 26 -4 14 -4 58 0 98 4 39 11 87 16 107 6 21
17 88 25 150 8 62 15 125 15 140 0 15 -7 35 -16 43 -8 9 -18 16 -22 16 -4 0
-12 -4 -18 -8 -7 -4 -16 -63 -23 -137 -6 -71 -20 -184 -31 -250 -13 -73 -18
-135 -14 -159 4 -23 17 -49 32 -63 19 -18 36 -23 75 -23 49 0 53 2 110 60 56
58 60 61 90 51 18 -5 64 -13 102 -16 39 -4 95 -13 124 -22 30 -8 81 -28 113
-44 31 -16 65 -29 73 -29 11 0 15 7 13 23 -2 16 -22 32 -78 60 -41 20 -104 44
-140 52 -36 8 -92 21 -125 27 -48 10 -61 17 -63 33 -2 12 13 56 33 100 20 43
75 136 121 206 66 99 85 133 82 155 -2 20 -9 30 -24 32z"/>
</g>
</svg>
