<?xml version="1.0" standalone="no"?>
<!DOCTYPE svg PUBLIC "-//W3C//DTD SVG 20010904//EN"
 "http://www.w3.org/TR/2001/REC-SVG-20010904/DTD/svg10.dtd">
<svg version="1.0" xmlns="http://www.w3.org/2000/svg"
 width="156.000000pt" height="170.000000pt" viewBox="0 0 156.000000 170.000000"
 preserveAspectRatio="xMidYMid meet">
<metadata>
Created by potrace 1.16, written by Peter Selinger 2001-2019
</metadata>
<g transform="translate(0.000000,170.000000) scale(0.100000,-0.100000)"
fill="#000000" stroke="none">
<path d="M891 1369 c-36 -1 -88 -7 -116 -14 -27 -7 -97 -33 -153 -58 -57 -25
-109 -50 -115 -56 -8 -8 -8 -14 1 -23 8 -8 28 -5 79 15 37 14 97 38 132 52 39
17 91 29 135 32 61 5 75 3 90 -12 15 -15 17 -28 11 -69 -4 -33 -28 -93 -68
-171 l-62 -120 -37 0 c-20 0 -40 -3 -44 -7 -3 -4 1 -19 10 -33 17 -26 17 -27
-40 -103 -32 -42 -102 -121 -156 -175 -63 -62 -98 -104 -96 -115 2 -11 24 -23
68 -35 60 -17 82 -18 290 -8 124 6 255 11 292 11 36 0 73 3 82 6 9 3 16 12 16
19 0 7 -7 16 -16 19 -9 3 -59 6 -112 6 -53 0 -178 -5 -277 -10 -120 -6 -192
-6 -217 1 -21 5 -38 12 -38 16 0 3 24 32 54 64 30 32 85 97 123 145 37 48 77
98 88 111 16 19 38 28 99 38 44 8 92 19 108 26 15 6 28 18 28 25 0 8 -7 14
-16 14 -9 0 -45 -5 -80 -12 -35 -6 -66 -9 -70 -6 -3 3 8 28 25 55 16 27 44 79
62 117 22 47 33 88 37 134 4 63 3 69 -23 95 -25 24 -34 27 -94 26z"/>
</g>
</svg>
