<?xml version="1.0" standalone="no"?>
<!DOCTYPE svg PUBLIC "-//W3C//DTD SVG 20010904//EN"
 "http://www.w3.org/TR/2001/REC-SVG-20010904/DTD/svg10.dtd">
<svg version="1.0" xmlns="http://www.w3.org/2000/svg"
 width="155.000000pt" height="171.000000pt" viewBox="0 0 155.000000 171.000000"
 preserveAspectRatio="xMidYMid meet">
<metadata>
Created by potrace 1.16, written by Peter Selinger 2001-2019
</metadata>
<g transform="translate(0.000000,171.000000) scale(0.100000,-0.100000)"
fill="#000000" stroke="none">
<path d="M723 1379 c-26 0 -70 -7 -97 -16 -28 -8 -69 -28 -92 -44 -23 -16 -56
-46 -74 -66 -17 -21 -39 -67 -50 -102 -13 -41 -20 -91 -20 -145 0 -44 7 -109
15 -144 8 -35 22 -75 30 -90 8 -15 35 -49 60 -77 36 -39 47 -47 57 -37 8 8 13
48 14 113 1 55 3 101 5 104 2 2 41 5 86 6 l81 3 149 -144 c82 -80 168 -158
190 -173 23 -16 47 -26 52 -22 6 3 11 14 11 23 0 9 -22 33 -47 52 -26 19 -102
89 -170 156 -68 66 -123 127 -123 135 0 8 22 33 50 57 38 33 53 54 65 94 8 28
15 64 15 80 0 16 -9 53 -19 83 -11 30 -29 68 -41 85 -12 17 -39 39 -60 50 -24
12 -58 20 -87 19z m-2 -49 c53 0 60 -3 97 -39 23 -23 45 -56 51 -78 6 -21 11
-52 11 -69 0 -17 -5 -46 -12 -65 -6 -19 -21 -47 -32 -62 -11 -16 -35 -37 -54
-49 l-32 -20 -48 51 c-31 33 -59 53 -80 57 l-32 7 0 113 0 114 38 19 c24 13
57 20 93 21z m-190 -80 c7 0 9 -34 5 -102 -3 -57 -8 -155 -11 -218 -3 -63 -8
-121 -11 -129 -4 -11 -8 -10 -24 4 -10 9 -24 40 -29 69 -6 28 -13 78 -17 111
-4 40 -1 79 9 118 8 31 27 77 41 102 15 25 32 45 37 45z m75 -250 c7 0 26 -12
43 -26 17 -14 31 -32 31 -40 0 -9 -11 -14 -31 -14 -17 0 -39 5 -50 10 -10 6
-19 21 -19 34 0 12 3 26 7 29 3 4 12 7 19 7z"/>
</g>
</svg>
