<?xml version="1.0" standalone="no"?>
<!DOCTYPE svg PUBLIC "-//W3C//DTD SVG 20010904//EN"
 "http://www.w3.org/TR/2001/REC-SVG-20010904/DTD/svg10.dtd">
<svg version="1.0" xmlns="http://www.w3.org/2000/svg"
 width="157.000000pt" height="171.000000pt" viewBox="0 0 157.000000 171.000000"
 preserveAspectRatio="xMidYMid meet">
<metadata>
Created by potrace 1.16, written by Peter Selinger 2001-2019
</metadata>
<g transform="translate(0.000000,171.000000) scale(0.100000,-0.100000)"
fill="#000000" stroke="none">
<path d="M815 1244 c-33 3 -80 1 -104 -4 -24 -5 -63 -19 -87 -31 -25 -11 -63
-40 -86 -62 -22 -23 -51 -65 -64 -93 -13 -28 -28 -74 -34 -104 -5 -29 -10 -90
-10 -135 0 -49 8 -113 20 -158 10 -43 31 -97 45 -122 15 -24 40 -56 56 -69 16
-14 49 -28 74 -32 25 -3 74 -1 109 6 35 6 88 26 119 43 31 18 88 60 126 94 38
35 83 87 99 115 16 29 35 77 42 107 7 29 10 81 8 115 -3 34 -15 84 -27 112
-12 27 -34 62 -49 77 -15 16 -47 40 -72 55 -25 14 -59 38 -75 54 -25 22 -42
29 -90 32z m-66 -65 c33 1 32 0 -25 -29 -32 -17 -77 -45 -98 -64 -27 -23 -37
-39 -33 -50 4 -9 10 -16 15 -16 5 0 33 18 63 40 31 24 82 49 122 61 56 18 70
19 83 8 11 -9 14 -22 10 -43 -4 -16 -14 -38 -23 -48 -12 -13 -31 -18 -74 -18
-32 0 -60 -4 -63 -9 -3 -4 3 -16 13 -25 10 -9 33 -17 52 -17 19 -1 46 -1 61 0
17 1 41 15 63 36 19 20 35 43 35 53 0 9 5 24 10 32 7 12 13 11 35 -10 15 -14
36 -43 48 -65 16 -31 21 -59 22 -125 0 -72 -4 -94 -27 -142 -16 -34 -52 -82
-90 -120 -41 -42 -87 -75 -131 -96 -37 -18 -90 -36 -117 -39 -30 -3 -61 -1
-80 7 -17 7 -39 25 -50 40 -10 14 -30 57 -44 95 -16 41 -29 100 -32 150 -4 53
-2 101 6 136 7 30 26 80 41 111 16 31 46 71 68 89 21 18 54 39 72 45 19 7 49
13 68 13z"/>
</g>
</svg>
