<?xml version="1.0" standalone="no"?>
<!DOCTYPE svg PUBLIC "-//W3C//DTD SVG 20010904//EN"
 "http://www.w3.org/TR/2001/REC-SVG-20010904/DTD/svg10.dtd">
<svg version="1.0" xmlns="http://www.w3.org/2000/svg"
 width="155.000000pt" height="172.000000pt" viewBox="0 0 155.000000 172.000000"
 preserveAspectRatio="xMidYMid meet">
<metadata>
Created by potrace 1.16, written by Peter Selinger 2001-2019
</metadata>
<g transform="translate(0.000000,172.000000) scale(0.100000,-0.100000)"
fill="#000000" stroke="none">
<path d="M678 1120 c-9 0 -23 -11 -32 -25 -9 -14 -22 -25 -29 -24 -7 1 -22 1
-34 0 -13 0 -23 -7 -23 -16 0 -8 11 -17 25 -21 14 -3 25 -12 25 -19 0 -7 -22
-65 -49 -128 -27 -64 -54 -139 -61 -167 -7 -28 -13 -74 -13 -101 -1 -35 5 -57
20 -77 11 -15 37 -37 59 -49 32 -18 55 -23 121 -23 45 0 111 7 147 15 36 9
103 30 148 47 46 17 91 38 101 46 9 8 17 23 17 33 0 10 -4 20 -8 23 -5 3 -28
-8 -53 -25 -24 -16 -71 -38 -104 -48 -33 -11 -85 -25 -115 -32 -30 -7 -89 -13
-132 -13 -55 0 -83 5 -103 18 -15 10 -33 34 -42 53 -13 32 -13 43 1 107 9 39
28 96 42 126 14 30 36 64 49 75 13 11 30 43 40 72 9 28 22 57 30 63 8 6 73 13
157 16 78 3 153 7 166 10 12 2 22 11 22 19 0 7 -4 16 -9 19 -5 4 -76 2 -158
-3 -139 -9 -149 -8 -169 10 -11 10 -27 19 -36 19z M873 810 c-15 0 -34 -4 -42
-9 -8 -5 -48 -12 -90 -16 -42 -4 -92 -14 -111 -23 -22 -11 -36 -25 -38 -40 -2
-12 -1 -22 3 -22 3 0 22 8 43 19 23 12 77 23 146 29 60 6 113 15 119 21 5 5 7
17 4 25 -4 9 -18 16 -34 16z"/>
</g>
</svg>
