<?xml version="1.0" standalone="no"?>
<!DOCTYPE svg PUBLIC "-//W3C//DTD SVG 20010904//EN"
 "http://www.w3.org/TR/2001/REC-SVG-20010904/DTD/svg10.dtd">
<svg version="1.0" xmlns="http://www.w3.org/2000/svg"
 width="156.000000pt" height="170.000000pt" viewBox="0 0 156.000000 170.000000"
 preserveAspectRatio="xMidYMid meet">
<metadata>
Created by potrace 1.16, written by Peter Selinger 2001-2019
</metadata>
<g transform="translate(0.000000,170.000000) scale(0.100000,-0.100000)"
fill="#000000" stroke="none">
<path d="M1105 1320 c-8 0 -35 -28 -61 -62 -25 -35 -60 -92 -78 -128 -19 -36
-47 -103 -64 -150 -17 -47 -45 -130 -62 -185 -18 -55 -36 -106 -42 -112 -6 -7
-18 -13 -27 -13 -10 0 -29 12 -43 28 -14 15 -30 36 -36 47 -6 11 -17 55 -26
97 -9 43 -16 114 -17 160 0 46 -4 118 -8 161 -6 51 -14 84 -26 97 -10 11 -29
20 -42 20 -16 0 -27 -8 -33 -26 -6 -14 -10 -40 -10 -58 0 -18 -11 -82 -25
-142 -13 -60 -42 -179 -63 -264 -22 -85 -37 -161 -35 -167 3 -7 15 -13 28 -13
13 0 29 10 38 23 8 12 25 58 37 102 12 44 31 115 41 159 11 43 22 83 25 88 4
6 10 5 15 -3 5 -8 9 -34 9 -59 0 -25 9 -79 21 -120 11 -41 30 -89 41 -106 12
-17 35 -41 53 -52 17 -12 45 -22 61 -22 20 0 39 9 56 28 14 15 33 44 42 64 8
21 26 80 40 131 14 52 43 137 65 190 22 53 62 131 90 175 28 43 51 86 51 95 0
10 -7 17 -15 17z"/>
</g>
</svg>
