<?xml version="1.0" standalone="no"?>
<!DOCTYPE svg PUBLIC "-//W3C//DTD SVG 20010904//EN"
 "http://www.w3.org/TR/2001/REC-SVG-20010904/DTD/svg10.dtd">
<svg version="1.0" xmlns="http://www.w3.org/2000/svg"
 width="153.000000pt" height="168.000000pt" viewBox="0 0 153.000000 168.000000"
 preserveAspectRatio="xMidYMid meet">
<metadata>
Created by potrace 1.16, written by Peter Selinger 2001-2019
</metadata>
<g transform="translate(0.000000,168.000000) scale(0.100000,-0.100000)"
fill="#000000" stroke="none">
<path d="M749 1170 c-8 0 -29 -15 -45 -32 -17 -18 -45 -56 -62 -84 -25 -40
-32 -62 -32 -102 0 -47 4 -56 40 -92 21 -21 58 -49 82 -61 24 -11 58 -35 76
-52 27 -26 32 -38 32 -75 0 -38 -5 -50 -36 -78 -19 -19 -46 -37 -60 -40 -13
-3 -41 -3 -61 1 -26 5 -52 22 -85 54 -44 45 -48 52 -48 98 0 27 -3 53 -6 56
-4 3 -15 2 -25 -4 -13 -6 -19 -21 -19 -44 0 -19 7 -53 17 -76 11 -29 33 -54
75 -85 33 -24 74 -46 92 -49 18 -4 52 -2 75 5 23 6 60 27 81 46 21 20 44 51
50 70 7 21 9 54 5 80 -5 35 -14 50 -48 77 -23 19 -63 46 -88 60 -25 15 -55 37
-66 49 -11 13 -24 37 -27 53 -4 21 1 42 17 70 22 39 24 40 112 57 50 9 128 19
175 23 47 4 100 11 118 17 17 5 32 16 32 24 0 8 -8 18 -17 21 -9 4 -81 1 -160
-6 -130 -12 -146 -11 -162 3 -10 9 -24 16 -32 16z"/>
</g>
</svg>
