<?xml version="1.0" standalone="no"?>
<!DOCTYPE svg PUBLIC "-//W3C//DTD SVG 20010904//EN"
 "http://www.w3.org/TR/2001/REC-SVG-20010904/DTD/svg10.dtd">
<svg version="1.0" xmlns="http://www.w3.org/2000/svg"
 width="153.000000pt" height="165.000000pt" viewBox="0 0 153.000000 165.000000"
 preserveAspectRatio="xMidYMid meet">
<metadata>
Created by potrace 1.16, written by Peter Selinger 2001-2019
</metadata>
<g transform="translate(0.000000,165.000000) scale(0.100000,-0.100000)"
fill="#000000" stroke="none">
<path d="M670 1140 c-4 0 -12 -6 -17 -12 -5 -7 -19 -32 -32 -56 -16 -30 -21
-51 -16 -72 4 -17 15 -35 25 -40 10 -6 26 -10 35 -10 8 0 18 7 22 15 3 9 -3
25 -13 36 -16 18 -17 23 -3 67 9 26 14 53 11 60 -2 6 -7 12 -12 12z M774 1068
c-13 2 -24 -4 -28 -14 -3 -9 -4 -31 0 -49 3 -19 16 -43 29 -55 13 -12 29 -19
35 -15 6 4 8 16 4 28 -4 12 -10 40 -13 62 -5 31 -11 41 -27 43z M668 869 c-2
0 -17 -6 -34 -12 -17 -7 -48 -25 -69 -42 -21 -16 -48 -52 -61 -80 -14 -30 -24
-69 -24 -96 0 -25 5 -60 11 -77 6 -17 22 -38 36 -47 18 -12 39 -16 71 -12 28
3 61 17 90 37 29 21 52 30 66 26 12 -2 40 -10 63 -17 32 -10 48 -10 67 -1 14
6 26 18 26 25 0 10 -16 16 -47 20 -27 3 -52 12 -59 22 -10 14 -7 25 18 65 16
26 32 65 35 87 4 29 1 42 -11 52 -15 12 -21 10 -49 -17 -18 -18 -36 -32 -39
-32 -4 0 -12 16 -18 35 -7 22 -23 41 -40 50 -16 8 -30 15 -32 14z m-16 -61
c14 -2 33 -22 50 -52 25 -41 28 -56 22 -90 -4 -23 -18 -51 -34 -67 -14 -15
-46 -33 -70 -40 -41 -13 -43 -12 -66 15 -13 15 -24 39 -24 53 0 14 6 44 12 67
7 22 30 58 51 79 25 25 46 37 59 35z"/>
</g>
</svg>
