<?xml version="1.0" standalone="no"?>
<!DOCTYPE svg PUBLIC "-//W3C//DTD SVG 20010904//EN"
 "http://www.w3.org/TR/2001/REC-SVG-20010904/DTD/svg10.dtd">
<svg version="1.0" xmlns="http://www.w3.org/2000/svg"
 width="155.000000pt" height="172.000000pt" viewBox="0 0 155.000000 172.000000"
 preserveAspectRatio="xMidYMid meet">
<metadata>
Created by potrace 1.16, written by Peter Selinger 2001-2019
</metadata>
<g transform="translate(0.000000,172.000000) scale(0.100000,-0.100000)"
fill="#000000" stroke="none">
<path d="M708 1117 c-27 26 -27 26 -55 -6 -21 -24 -36 -31 -64 -31 -23 0 -39
-5 -42 -14 -3 -8 0 -19 6 -24 7 -5 20 -12 30 -15 9 -4 17 -12 17 -20 0 -7 -18
-56 -40 -107 -23 -51 -50 -127 -62 -168 -13 -51 -19 -94 -16 -130 4 -48 10
-60 41 -88 19 -18 55 -38 79 -45 27 -7 73 -9 123 -5 44 3 112 15 150 25 39 11
99 31 134 44 36 13 73 34 83 47 10 12 18 28 18 36 0 7 -5 16 -11 20 -6 3 -48
-12 -92 -34 -45 -22 -120 -50 -166 -61 -47 -12 -108 -21 -135 -21 -28 0 -68 5
-88 10 -20 6 -46 22 -58 37 -12 15 -20 40 -20 62 0 20 9 63 19 96 10 33 26 78
35 101 9 23 29 50 44 61 19 14 32 37 41 71 7 28 19 56 27 63 8 7 72 13 166 16
84 3 161 10 171 15 9 5 17 17 17 28 0 10 -4 21 -9 24 -5 3 -78 2 -163 -3 -153
-9 -153 -9 -180 16z M872 820 c-9 0 -25 -5 -34 -10 -9 -6 -55 -14 -102 -19
-52 -5 -97 -16 -118 -28 -18 -10 -34 -29 -36 -41 -3 -17 2 -22 20 -22 13 0 33
7 45 15 14 10 65 20 135 26 62 6 119 15 125 21 7 6 13 18 13 28 0 10 -7 21
-16 24 -9 3 -23 6 -32 6z"/>
</g>
</svg>
