<?xml version="1.0" standalone="no"?>
<!DOCTYPE svg PUBLIC "-//W3C//DTD SVG 20010904//EN"
 "http://www.w3.org/TR/2001/REC-SVG-20010904/DTD/svg10.dtd">
<svg version="1.0" xmlns="http://www.w3.org/2000/svg"
 width="154.000000pt" height="168.000000pt" viewBox="0 0 154.000000 168.000000"
 preserveAspectRatio="xMidYMid meet">
<metadata>
Created by potrace 1.16, written by Peter Selinger 2001-2019
</metadata>
<g transform="translate(0.000000,168.000000) scale(0.100000,-0.100000)"
fill="#000000" stroke="none">
<path d="M883 1280 c-9 0 -34 -18 -55 -41 -22 -23 -57 -64 -80 -93 -22 -28
-56 -74 -74 -103 -18 -29 -47 -81 -63 -116 -18 -38 -34 -95 -41 -145 -8 -58
-8 -93 0 -121 6 -22 23 -50 40 -64 18 -15 48 -27 77 -31 31 -4 69 -1 106 9 32
8 78 29 102 45 24 17 53 43 64 59 14 19 21 45 21 75 0 42 -3 48 -41 75 -23 17
-60 33 -86 37 -26 4 -61 2 -83 -5 -21 -6 -62 -29 -89 -51 -28 -22 -51 -45 -51
-50 0 -6 9 -10 19 -10 11 0 21 4 23 8 2 4 21 22 43 39 23 19 58 35 82 39 23 3
53 4 66 0 13 -3 36 -17 50 -30 19 -18 27 -35 27 -60 0 -27 -8 -43 -36 -70 -19
-19 -52 -42 -72 -52 -20 -10 -59 -19 -87 -22 -27 -2 -62 1 -77 7 -15 5 -34 22
-44 36 -14 22 -15 37 -7 119 8 74 18 110 45 168 19 40 48 87 65 103 16 17 42
38 56 47 14 10 46 49 71 87 25 38 46 78 46 90 0 13 -6 21 -17 21z"/>
</g>
</svg>
