<?xml version="1.0" standalone="no"?>
<!DOCTYPE svg PUBLIC "-//W3C//DTD SVG 20010904//EN"
 "http://www.w3.org/TR/2001/REC-SVG-20010904/DTD/svg10.dtd">
<svg version="1.0" xmlns="http://www.w3.org/2000/svg"
 width="156.000000pt" height="168.000000pt" viewBox="0 0 156.000000 168.000000"
 preserveAspectRatio="xMidYMid meet">
<metadata>
Created by potrace 1.16, written by Peter Selinger 2001-2019
</metadata>
<g transform="translate(0.000000,168.000000) scale(0.100000,-0.100000)"
fill="#000000" stroke="none">
<path d="M812 1440 c-18 0 -32 -6 -36 -16 -4 -9 -1 -23 5 -30 6 -8 19 -14 28
-14 9 0 33 -11 54 -25 20 -14 46 -44 58 -66 11 -22 29 -80 39 -127 13 -58 19
-124 19 -197 0 -60 -4 -132 -9 -160 -4 -27 -13 -86 -20 -130 -6 -44 -29 -154
-51 -245 -22 -91 -53 -193 -69 -226 -17 -34 -30 -66 -30 -72 0 -6 10 -18 22
-26 20 -15 24 -14 45 6 14 13 23 33 23 50 0 16 20 108 45 204 24 96 56 243 69
327 14 83 28 193 31 242 4 50 2 128 -4 175 -6 47 -21 114 -32 149 -14 42 -36
80 -62 109 -23 24 -53 50 -68 58 -16 8 -41 14 -57 14z"/>
</g>
</svg>
