<?xml version="1.0" standalone="no"?>
<!DOCTYPE svg PUBLIC "-//W3C//DTD SVG 20010904//EN"
 "http://www.w3.org/TR/2001/REC-SVG-20010904/DTD/svg10.dtd">
<svg version="1.0" xmlns="http://www.w3.org/2000/svg"
 width="152.000000pt" height="168.000000pt" viewBox="0 0 152.000000 168.000000"
 preserveAspectRatio="xMidYMid meet">
<metadata>
Created by potrace 1.16, written by Peter Selinger 2001-2019
</metadata>
<g transform="translate(0.000000,168.000000) scale(0.100000,-0.100000)"
fill="#000000" stroke="none">
<path d="M570 1010 c-3 0 -10 -3 -13 -7 -4 -3 -7 -14 -7 -22 0 -10 23 -27 58
-43 31 -15 119 -60 195 -101 75 -41 140 -76 143 -79 3 -4 0 -16 -6 -28 -6 -12
-78 -74 -160 -138 -81 -64 -170 -133 -196 -152 -29 -21 -50 -44 -52 -58 -2
-14 2 -22 11 -22 8 0 40 17 73 38 32 21 111 83 174 138 63 54 136 116 161 137
25 20 56 37 68 37 12 0 34 13 49 28 15 15 39 33 55 40 15 7 27 19 27 30 0 10
-5 23 -12 30 -7 7 -18 12 -26 12 -7 0 -33 -14 -57 -31 -32 -23 -49 -29 -67
-24 -12 4 -35 16 -50 26 -14 11 -32 19 -39 19 -7 0 -45 19 -83 42 -39 22 -87
51 -106 63 -19 12 -57 32 -84 43 -27 12 -52 22 -56 22z"/>
</g>
</svg>
