<?xml version="1.0" standalone="no"?>
<!DOCTYPE svg PUBLIC "-//W3C//DTD SVG 20010904//EN"
 "http://www.w3.org/TR/2001/REC-SVG-20010904/DTD/svg10.dtd">
<svg version="1.0" xmlns="http://www.w3.org/2000/svg"
 width="154.000000pt" height="167.000000pt" viewBox="0 0 154.000000 167.000000"
 preserveAspectRatio="xMidYMid meet">
<metadata>
Created by potrace 1.16, written by Peter Selinger 2001-2019
</metadata>
<g transform="translate(0.000000,167.000000) scale(0.100000,-0.100000)"
fill="#000000" stroke="none">
<path d="M809 1328 c-8 1 -40 -23 -70 -55 -30 -32 -75 -85 -100 -118 -24 -33
-56 -78 -70 -100 -15 -22 -36 -59 -48 -82 -11 -23 -21 -51 -21 -63 0 -12 13
-28 33 -41 26 -16 42 -19 87 -14 30 3 72 11 93 17 20 6 40 9 43 6 3 -4 -1 -63
-10 -133 -11 -89 -13 -133 -5 -146 6 -12 20 -19 38 -19 16 0 34 6 41 14 9 12
7 21 -10 44 -22 30 -22 30 -4 144 19 113 19 113 54 130 23 12 58 18 103 18 53
0 69 4 74 16 3 9 0 20 -8 26 -8 5 -53 7 -102 4 -88 -5 -88 -5 -85 67 3 68 2
72 -19 75 -13 2 -24 -1 -24 -7 -1 -6 -3 -23 -4 -38 -2 -16 -8 -47 -13 -71 -5
-24 -14 -48 -18 -52 -5 -5 -36 -16 -69 -24 -32 -9 -74 -16 -92 -16 -27 0 -33
4 -33 22 0 11 17 51 37 87 20 36 62 91 93 121 30 30 73 76 94 102 21 26 36 55
34 65 -2 10 -10 19 -19 21z"/>
</g>
</svg>
