<?xml version="1.0" standalone="no"?>
<!DOCTYPE svg PUBLIC "-//W3C//DTD SVG 20010904//EN"
 "http://www.w3.org/TR/2001/REC-SVG-20010904/DTD/svg10.dtd">
<svg version="1.0" xmlns="http://www.w3.org/2000/svg"
 width="152.000000pt" height="167.000000pt" viewBox="0 0 152.000000 167.000000"
 preserveAspectRatio="xMidYMid meet">
<metadata>
Created by potrace 1.16, written by Peter Selinger 2001-2019
</metadata>
<g transform="translate(0.000000,167.000000) scale(0.100000,-0.100000)"
fill="#000000" stroke="none">
<path d="M946 1219 c-22 0 -75 -7 -116 -15 -41 -8 -103 -13 -137 -12 -34 1
-65 -1 -69 -5 -4 -4 -2 -13 5 -20 7 -7 37 -11 79 -10 37 1 105 8 152 17 60 10
88 11 97 4 7 -6 13 -29 13 -52 0 -22 -18 -92 -39 -155 -22 -62 -48 -122 -57
-132 -13 -14 -31 -19 -70 -19 -29 0 -59 -3 -68 -6 -9 -3 -16 -12 -16 -20 0 -8
6 -15 13 -15 6 -1 33 -1 59 1 37 1 49 -2 54 -15 4 -9 -6 -47 -21 -83 -15 -37
-38 -96 -51 -132 -13 -36 -24 -75 -24 -88 0 -17 5 -23 17 -20 10 2 25 19 35
38 9 19 19 51 22 70 4 19 21 73 38 120 17 47 39 93 48 103 9 9 43 22 75 28 33
5 88 14 123 20 35 5 72 14 83 19 10 6 19 16 19 21 0 7 -14 9 -37 6 -21 -3 -80
-10 -131 -17 -50 -7 -95 -10 -99 -7 -3 4 11 60 33 124 25 75 39 136 39 169 0
28 -6 58 -14 67 -9 11 -28 17 -55 16z"/>
</g>
</svg>
