<?xml version="1.0" standalone="no"?>
<!DOCTYPE svg PUBLIC "-//W3C//DTD SVG 20010904//EN"
 "http://www.w3.org/TR/2001/REC-SVG-20010904/DTD/svg10.dtd">
<svg version="1.0" xmlns="http://www.w3.org/2000/svg"
 width="165.000000pt" height="177.000000pt" viewBox="0 0 165.000000 177.000000"
 preserveAspectRatio="xMidYMid meet">
<metadata>
Created by potrace 1.16, written by Peter Selinger 2001-2019
</metadata>
<g transform="translate(0.000000,177.000000) scale(0.100000,-0.100000)"
fill="#000000" stroke="none">
<path d="M613 802 c-10 2 -27 2 -38 0 -11 -2 -28 -14 -37 -25 -10 -12 -18 -33
-18 -45 0 -15 14 -36 35 -55 19 -17 35 -40 35 -51 0 -10 -23 -66 -51 -122 -28
-56 -49 -111 -47 -121 2 -11 13 -19 28 -21 23 -3 29 6 72 100 25 57 53 125 62
151 9 26 16 67 16 91 0 28 -7 52 -20 68 -11 14 -28 27 -37 30z M804 810 c-14
0 -26 -6 -28 -12 -2 -7 -9 -31 -15 -53 -9 -35 -8 -43 10 -68 19 -26 20 -33 8
-80 -6 -29 -19 -68 -29 -87 -9 -19 -23 -56 -30 -82 -7 -26 -10 -54 -7 -63 4
-8 18 -15 32 -15 14 0 25 6 25 13 0 6 9 23 20 37 11 14 20 39 20 56 0 16 11
58 24 93 14 34 28 93 32 131 6 61 4 72 -15 99 -15 20 -31 31 -47 31z"/>
</g>
</svg>
