<?xml version="1.0" standalone="no"?>
<!DOCTYPE svg PUBLIC "-//W3C//DTD SVG 20010904//EN"
 "http://www.w3.org/TR/2001/REC-SVG-20010904/DTD/svg10.dtd">
<svg version="1.0" xmlns="http://www.w3.org/2000/svg"
 width="165.000000pt" height="177.000000pt" viewBox="0 0 165.000000 177.000000"
 preserveAspectRatio="xMidYMid meet">
<metadata>
Created by potrace 1.16, written by Peter Selinger 2001-2019
</metadata>
<g transform="translate(0.000000,177.000000) scale(0.100000,-0.100000)"
fill="#000000" stroke="none">
<path d="M802 820 c-11 0 -24 -6 -30 -12 -5 -7 -13 -35 -16 -61 -6 -37 -4 -54
10 -74 14 -23 15 -33 4 -82 -7 -31 -16 -61 -21 -67 -5 -6 -18 -37 -29 -69 -11
-32 -20 -66 -20 -76 0 -10 9 -23 20 -29 12 -6 30 -8 40 -5 11 4 20 12 20 18 0
7 9 23 20 37 11 14 20 39 20 55 0 17 11 62 25 100 17 49 25 91 25 141 0 62 -3
75 -25 98 -13 14 -33 26 -43 26z M580 810 c-23 0 -35 -7 -50 -32 -11 -18 -20
-40 -20 -49 0 -10 16 -31 35 -48 19 -17 35 -39 35 -49 0 -11 -10 -44 -22 -73
-12 -30 -32 -70 -45 -89 -14 -20 -23 -50 -23 -72 0 -20 5 -40 11 -43 5 -4 21
-4 34 -1 13 3 27 16 31 29 4 12 21 54 39 92 18 39 40 88 48 110 9 22 19 61 23
88 4 29 2 58 -6 77 -7 16 -23 36 -36 45 -13 8 -37 15 -54 15z"/>
</g>
</svg>
