<?xml version="1.0" standalone="no"?>
<!DOCTYPE svg PUBLIC "-//W3C//DTD SVG 20010904//EN"
 "http://www.w3.org/TR/2001/REC-SVG-20010904/DTD/svg10.dtd">
<svg version="1.0" xmlns="http://www.w3.org/2000/svg"
 width="153.000000pt" height="166.000000pt" viewBox="0 0 153.000000 166.000000"
 preserveAspectRatio="xMidYMid meet">
<metadata>
Created by potrace 1.16, written by Peter Selinger 2001-2019
</metadata>
<g transform="translate(0.000000,166.000000) scale(0.100000,-0.100000)"
fill="#000000" stroke="none">
<path d="M672 1120 c-5 0 -14 -6 -20 -12 -5 -7 -12 -22 -16 -34 -4 -12 -4 -28
-1 -36 4 -11 22 -14 70 -14 l65 1 0 37 c0 20 -4 40 -10 43 -5 3 -23 -1 -39 -9
-27 -14 -29 -14 -34 4 -3 11 -9 20 -15 20z M685 876 c-22 4 -40 -1 -65 -18
-21 -14 -46 -45 -63 -78 -15 -31 -30 -79 -34 -107 -3 -28 -3 -62 0 -75 4 -14
18 -30 32 -36 14 -7 34 -12 43 -12 9 0 33 5 52 10 20 5 54 27 77 47 22 21 50
57 62 80 15 31 29 44 49 48 15 3 47 14 71 23 24 9 46 23 49 31 4 11 -1 12 -19
7 -13 -4 -39 -9 -56 -13 -29 -5 -35 -2 -50 26 -14 25 -23 30 -41 26 -14 -3
-33 2 -50 15 -15 11 -40 22 -57 26z m-14 -37 c3 1 13 -5 24 -13 14 -10 17 -21
12 -50 -6 -35 -5 -36 24 -36 22 0 29 -5 29 -19 0 -11 -12 -34 -27 -53 -16 -18
-37 -41 -48 -50 -11 -10 -35 -23 -54 -29 -31 -11 -36 -10 -53 11 -15 19 -18
33 -13 64 4 23 18 66 32 97 13 31 34 61 46 67 12 6 25 11 28 11z"/>
</g>
</svg>
