<?xml version="1.0" standalone="no"?>
<!DOCTYPE svg PUBLIC "-//W3C//DTD SVG 20010904//EN"
 "http://www.w3.org/TR/2001/REC-SVG-20010904/DTD/svg10.dtd">
<svg version="1.0" xmlns="http://www.w3.org/2000/svg"
 width="151.000000pt" height="167.000000pt" viewBox="0 0 151.000000 167.000000"
 preserveAspectRatio="xMidYMid meet">
<metadata>
Created by potrace 1.16, written by Peter Selinger 2001-2019
</metadata>
<g transform="translate(0.000000,167.000000) scale(0.100000,-0.100000)"
fill="#000000" stroke="none">
<path d="M460 890 c-6 0 -15 -10 -20 -22 -5 -13 -13 -45 -19 -73 -5 -27 -13
-84 -17 -126 -4 -50 -2 -95 6 -128 8 -33 20 -57 34 -66 11 -7 36 -16 55 -19
20 -3 50 2 70 10 19 8 50 31 68 51 27 29 35 33 48 23 8 -7 15 -18 15 -25 0 -8
12 -23 26 -34 15 -12 40 -21 55 -21 16 0 38 9 48 19 10 10 26 43 35 73 8 30
20 87 26 127 6 40 15 81 20 91 5 10 21 21 35 24 14 4 25 13 25 20 0 8 -19 19
-46 25 -25 6 -49 9 -55 6 -5 -4 -9 -23 -9 -45 0 -21 -8 -80 -19 -132 -10 -51
-26 -110 -35 -131 -9 -22 -21 -37 -28 -35 -7 2 -23 24 -35 48 -19 37 -23 60
-23 142 0 77 -3 98 -14 98 -7 0 -18 -6 -24 -12 -6 -7 -15 -38 -20 -69 -6 -30
-18 -75 -28 -100 -10 -24 -24 -54 -32 -67 -8 -13 -32 -32 -52 -42 -20 -10 -46
-16 -58 -13 -11 2 -26 19 -34 36 -7 18 -13 57 -12 87 1 31 9 99 19 152 10 52
15 103 12 112 -4 9 -11 16 -17 16z"/>
</g>
</svg>
