<?xml version="1.0" standalone="no"?>
<!DOCTYPE svg PUBLIC "-//W3C//DTD SVG 20010904//EN"
 "http://www.w3.org/TR/2001/REC-SVG-20010904/DTD/svg10.dtd">
<svg version="1.0" xmlns="http://www.w3.org/2000/svg"
 width="158.000000pt" height="173.000000pt" viewBox="0 0 158.000000 173.000000"
 preserveAspectRatio="xMidYMid meet">
<metadata>
Created by potrace 1.16, written by Peter Selinger 2001-2019
</metadata>
<g transform="translate(0.000000,173.000000) scale(0.100000,-0.100000)"
fill="#000000" stroke="none">
<path d="M873 979 c-16 -1 -42 -4 -59 -8 -17 -4 -51 -22 -76 -39 -25 -17 -52
-42 -61 -56 -10 -14 -17 -34 -17 -44 0 -10 10 -28 23 -39 12 -12 57 -38 100
-58 42 -20 81 -45 87 -54 5 -10 6 -28 3 -40 -3 -12 -18 -28 -34 -37 -16 -8
-49 -17 -73 -20 -35 -5 -52 -2 -79 15 -19 11 -43 21 -55 21 -11 0 -22 -6 -25
-12 -2 -7 -1 -23 4 -34 4 -12 23 -31 43 -43 28 -18 53 -23 115 -24 71 -1 82 1
118 26 22 15 48 43 58 61 13 24 16 45 12 76 -3 24 -15 52 -28 66 -13 13 -42
35 -65 49 -23 14 -49 25 -57 25 -8 0 -22 8 -31 19 -16 18 -15 19 18 39 27 16
46 19 90 16 56 -5 56 -5 56 25 0 18 -9 40 -20 51 -11 11 -32 20 -47 19z"/>
</g>
</svg>
