<?xml version="1.0" standalone="no"?>
<!DOCTYPE svg PUBLIC "-//W3C//DTD SVG 20010904//EN"
 "http://www.w3.org/TR/2001/REC-SVG-20010904/DTD/svg10.dtd">
<svg version="1.0" xmlns="http://www.w3.org/2000/svg"
 width="153.000000pt" height="167.000000pt" viewBox="0 0 153.000000 167.000000"
 preserveAspectRatio="xMidYMid meet">
<metadata>
Created by potrace 1.16, written by Peter Selinger 2001-2019
</metadata>
<g transform="translate(0.000000,167.000000) scale(0.100000,-0.100000)"
fill="#000000" stroke="none">
<path d="M886 650 c-6 -1 -26 -7 -44 -15 -29 -13 -33 -19 -30 -47 3 -29 7 -33
36 -36 22 -2 41 3 53 14 10 9 19 27 19 39 0 11 -5 26 -12 33 -7 7 -17 12 -22
12z M863 390 c-41 0 -45 -3 -59 -35 -7 -19 -14 -39 -14 -45 0 -5 16 -10 35
-10 33 0 35 -2 35 -32 0 -18 -9 -48 -20 -65 -11 -18 -31 -35 -45 -39 -14 -3
-39 -1 -55 6 -16 7 -36 10 -45 6 -8 -3 -15 -14 -15 -25 0 -12 11 -28 25 -37
20 -13 38 -15 78 -11 28 4 63 15 77 25 14 10 35 39 48 64 16 31 24 67 25 106
1 37 -3 65 -12 75 -9 11 -29 17 -58 17z"/>
</g>
</svg>
