<?xml version="1.0" standalone="no"?>
<!DOCTYPE svg PUBLIC "-//W3C//DTD SVG 20010904//EN"
 "http://www.w3.org/TR/2001/REC-SVG-20010904/DTD/svg10.dtd">
<svg version="1.0" xmlns="http://www.w3.org/2000/svg"
 width="164.000000pt" height="177.000000pt" viewBox="0 0 164.000000 177.000000"
 preserveAspectRatio="xMidYMid meet">
<metadata>
Created by potrace 1.16, written by Peter Selinger 2001-2019
</metadata>
<g transform="translate(0.000000,177.000000) scale(0.100000,-0.100000)"
fill="#000000" stroke="none">
<path d="M858 1128 c-13 5 -31 7 -40 4 -10 -2 -18 -12 -18 -23 0 -11 11 -31
25 -44 13 -14 34 -25 47 -25 13 0 74 -17 137 -38 63 -20 119 -44 124 -54 9
-13 2 -28 -34 -74 -24 -32 -76 -90 -116 -130 -39 -39 -85 -80 -102 -90 -17
-10 -31 -26 -31 -36 0 -9 9 -22 19 -28 11 -5 22 -10 25 -10 2 0 64 59 136 132
73 72 139 143 148 157 9 14 30 43 46 63 24 31 27 40 16 53 -7 8 -51 27 -99 41
-47 14 -113 35 -146 46 -33 11 -72 27 -87 35 -16 7 -38 17 -50 21z M646 1020
c-8 0 -17 -7 -20 -16 -4 -10 1 -25 9 -35 9 -9 46 -31 81 -48 36 -17 71 -31 78
-31 7 0 20 -8 30 -19 16 -17 14 -20 -41 -62 -32 -24 -72 -54 -89 -65 -18 -12
-42 -25 -54 -29 -16 -5 -20 -13 -18 -33 2 -22 9 -28 34 -30 26 -3 40 6 88 51
31 30 87 71 125 91 38 20 78 36 89 36 11 0 22 7 26 15 3 8 3 22 0 30 -3 8 -25
19 -48 25 -22 6 -66 20 -96 31 -30 12 -83 37 -118 55 -34 19 -69 34 -76 34z"/>
</g>
</svg>
