<?xml version="1.0" standalone="no"?>
<!DOCTYPE svg PUBLIC "-//W3C//DTD SVG 20010904//EN"
 "http://www.w3.org/TR/2001/REC-SVG-20010904/DTD/svg10.dtd">
<svg version="1.0" xmlns="http://www.w3.org/2000/svg"
 width="156.000000pt" height="169.000000pt" viewBox="0 0 156.000000 169.000000"
 preserveAspectRatio="xMidYMid meet">
<metadata>
Created by potrace 1.16, written by Peter Selinger 2001-2019
</metadata>
<g transform="translate(0.000000,169.000000) scale(0.100000,-0.100000)"
fill="#000000" stroke="none">
<path d="M501 1300 c-11 0 -22 -4 -25 -8 -2 -4 -10 -71 -16 -147 -6 -77 -19
-178 -28 -225 l-17 -85 -65 0 c-53 0 -65 -3 -68 -17 -2 -12 7 -20 35 -27 21
-6 43 -11 50 -11 6 0 19 -7 27 -16 11 -11 16 -34 16 -77 0 -44 6 -71 20 -94
15 -25 27 -33 48 -33 19 0 39 12 65 38 20 21 37 43 37 50 0 7 -8 12 -18 12
-11 0 -27 -9 -37 -20 -10 -11 -26 -20 -36 -20 -10 0 -21 12 -28 31 -6 18 -11
45 -11 60 0 15 4 30 9 34 5 3 41 -11 80 -30 39 -20 105 -47 146 -61 60 -20 79
-23 91 -14 10 9 14 37 14 111 0 91 2 100 23 113 12 8 63 19 112 25 50 6 112
12 138 15 26 2 51 6 54 10 4 3 3 9 -1 14 -4 4 -31 7 -59 7 -29 0 -97 -4 -151
-9 l-99 -8 6 88 c4 49 9 132 13 185 5 74 4 98 -6 104 -8 5 -18 2 -25 -9 -7 -9
-16 -40 -20 -69 -3 -28 -13 -110 -20 -181 -8 -70 -16 -130 -19 -133 -2 -2 -51
-15 -108 -29 -56 -13 -115 -24 -130 -24 -21 0 -28 5 -28 20 0 11 11 84 25 162
14 78 25 171 25 205 0 56 -2 63 -19 63z m197 -461 l32 1 0 -65 c0 -52 -3 -67
-17 -72 -9 -4 -39 2 -67 11 -28 10 -72 27 -98 38 -27 11 -48 26 -48 33 0 8 33
21 83 33 45 11 97 20 115 21z"/>
</g>
</svg>
