<?xml version="1.0" standalone="no"?>
<!DOCTYPE svg PUBLIC "-//W3C//DTD SVG 20010904//EN"
 "http://www.w3.org/TR/2001/REC-SVG-20010904/DTD/svg10.dtd">
<svg version="1.0" xmlns="http://www.w3.org/2000/svg"
 width="154.000000pt" height="167.000000pt" viewBox="0 0 154.000000 167.000000"
 preserveAspectRatio="xMidYMid meet">
<metadata>
Created by potrace 1.16, written by Peter Selinger 2001-2019
</metadata>
<g transform="translate(0.000000,167.000000) scale(0.100000,-0.100000)"
fill="#000000" stroke="none">
<path d="M859 1240 c-25 0 -52 -10 -85 -32 -32 -22 -57 -49 -71 -78 -13 -25
-23 -63 -23 -86 0 -27 7 -51 21 -68 16 -21 29 -26 64 -26 38 0 51 6 95 45 28
25 55 43 60 40 5 -3 16 -28 25 -56 14 -40 16 -75 13 -154 -4 -78 -10 -112 -27
-147 -15 -32 -33 -52 -59 -64 -26 -13 -60 -19 -112 -19 -52 0 -85 6 -107 18
-18 10 -40 28 -48 40 -8 13 -18 46 -21 73 -3 27 -7 55 -9 61 -3 7 -11 10 -20
7 -11 -4 -15 -20 -15 -55 0 -27 6 -64 14 -82 7 -18 26 -44 42 -58 16 -15 47
-32 69 -40 22 -7 67 -13 100 -13 36 0 81 7 114 19 29 11 64 32 77 48 13 16 30
52 38 80 8 29 17 84 21 122 4 45 0 100 -9 153 -9 46 -25 99 -37 119 -12 19
-26 56 -31 82 -4 25 -16 52 -25 59 -9 6 -33 12 -54 12z m-2 -51 c7 1 17 -8 23
-18 5 -11 10 -32 10 -47 0 -15 -13 -41 -32 -63 -17 -20 -41 -41 -52 -48 -12
-7 -29 -12 -38 -13 -10 0 -22 9 -28 20 -8 16 -8 31 1 58 6 20 23 50 38 66 14
15 35 32 46 36 11 5 25 9 32 9z"/>
</g>
</svg>
