<?xml version="1.0" standalone="no"?>
<!DOCTYPE svg PUBLIC "-//W3C//DTD SVG 20010904//EN"
 "http://www.w3.org/TR/2001/REC-SVG-20010904/DTD/svg10.dtd">
<svg version="1.0" xmlns="http://www.w3.org/2000/svg"
 width="152.000000pt" height="167.000000pt" viewBox="0 0 152.000000 167.000000"
 preserveAspectRatio="xMidYMid meet">
<metadata>
Created by potrace 1.16, written by Peter Selinger 2001-2019
</metadata>
<g transform="translate(0.000000,167.000000) scale(0.100000,-0.100000)"
fill="#000000" stroke="none">
<path d="M1037 860 c-7 0 -34 -25 -61 -55 -26 -30 -67 -66 -91 -81 -28 -16
-52 -23 -64 -19 -11 3 -30 22 -41 41 -12 19 -37 46 -54 59 -25 19 -45 25 -85
25 -28 0 -66 -6 -84 -14 -18 -7 -51 -34 -74 -59 -33 -36 -43 -54 -43 -81 0
-18 7 -39 15 -46 8 -7 22 -10 30 -6 9 3 18 19 21 36 4 17 23 45 44 64 21 19
52 37 70 41 19 4 41 2 54 -4 12 -7 35 -32 51 -56 17 -25 44 -51 60 -59 21 -10
41 -12 65 -7 19 5 52 17 72 29 20 11 49 31 63 44 15 13 38 45 52 72 13 26 22
54 19 62 -3 8 -11 14 -19 14z"/>
</g>
</svg>
