<?xml version="1.0" standalone="no"?>
<!DOCTYPE svg PUBLIC "-//W3C//DTD SVG 20010904//EN"
 "http://www.w3.org/TR/2001/REC-SVG-20010904/DTD/svg10.dtd">
<svg version="1.0" xmlns="http://www.w3.org/2000/svg"
 width="165.000000pt" height="180.000000pt" viewBox="0 0 165.000000 180.000000"
 preserveAspectRatio="xMidYMid meet">
<metadata>
Created by potrace 1.16, written by Peter Selinger 2001-2019
</metadata>
<g transform="translate(0.000000,180.000000) scale(0.100000,-0.100000)"
fill="#000000" stroke="none">
<path d="M785 1569 c-34 0 -80 -8 -106 -18 -25 -10 -66 -32 -91 -49 -25 -17
-57 -45 -72 -62 -14 -18 -26 -38 -26 -45 0 -8 16 -26 35 -40 18 -15 42 -28 52
-30 10 -1 24 2 31 8 6 5 12 16 12 23 0 8 -9 14 -19 14 -11 0 -23 5 -27 12 -4
6 3 20 17 31 13 11 53 33 88 49 35 16 66 27 69 24 3 -3 7 -39 10 -79 4 -74 4
-74 -62 -141 -43 -44 -70 -81 -77 -107 -9 -30 -9 -48 0 -79 7 -24 24 -49 44
-64 18 -13 41 -26 52 -28 15 -2 21 -13 25 -43 4 -32 10 -41 33 -50 24 -8 31
-6 43 10 8 10 14 31 14 46 0 24 4 27 44 31 24 3 61 14 82 24 29 14 40 26 42
47 3 21 -1 27 -16 27 -11 0 -39 -7 -62 -15 -23 -8 -54 -15 -67 -15 -25 0 -25
0 -18 133 7 132 7 132 47 173 23 25 43 57 48 79 6 25 4 50 -3 74 -9 28 -20 39
-47 48 -19 7 -62 12 -95 12z m-24 -345 c4 -2 5 -30 3 -62 -3 -31 -7 -67 -10
-79 -2 -13 -11 -23 -19 -23 -8 0 -21 13 -30 30 -8 16 -15 35 -15 43 0 7 14 32
32 55 17 22 35 39 39 36z M773 854 c-27 4 -36 0 -64 -31 -17 -20 -38 -51 -45
-69 -8 -19 -14 -48 -14 -67 0 -18 6 -42 14 -53 11 -14 26 -19 59 -18 35 1 54
8 86 33 23 18 44 44 47 57 3 13 3 40 0 59 -4 19 -17 46 -29 59 -12 13 -36 26
-54 30z"/>
</g>
</svg>
