<?xml version="1.0" standalone="no"?>
<!DOCTYPE svg PUBLIC "-//W3C//DTD SVG 20010904//EN"
 "http://www.w3.org/TR/2001/REC-SVG-20010904/DTD/svg10.dtd">
<svg version="1.0" xmlns="http://www.w3.org/2000/svg"
 width="155.000000pt" height="170.000000pt" viewBox="0 0 155.000000 170.000000"
 preserveAspectRatio="xMidYMid meet">
<metadata>
Created by potrace 1.16, written by Peter Selinger 2001-2019
</metadata>
<g transform="translate(0.000000,170.000000) scale(0.100000,-0.100000)"
fill="#000000" stroke="none">
<path d="M482 1240 c-4 0 -12 -4 -19 -8 -6 -4 -16 -20 -22 -35 -7 -17 -18 -27
-30 -27 -11 0 -22 -4 -25 -9 -3 -5 -11 -130 -17 -277 -8 -196 -9 -276 -1 -297
7 -17 19 -27 32 -27 13 0 24 10 30 26 6 14 10 52 10 84 0 32 7 95 16 141 9 46
18 86 20 88 2 3 22 -13 44 -34 35 -34 46 -39 97 -43 53 -4 65 0 137 37 43 23
112 67 152 97 41 31 76 60 80 65 3 5 12 9 20 9 13 0 14 -15 9 -97 -4 -55 -2
-135 4 -182 7 -55 22 -108 43 -153 17 -38 40 -74 51 -80 13 -7 22 -7 29 0 7 7
1 26 -19 59 -16 26 -38 81 -48 122 -15 61 -17 96 -11 200 3 69 12 153 20 186
7 33 10 69 6 79 -4 11 -12 22 -18 24 -5 1 -19 -9 -29 -24 -10 -15 -45 -56 -77
-91 -33 -35 -85 -80 -115 -100 -31 -21 -85 -52 -121 -70 -38 -19 -80 -33 -101
-33 -22 0 -47 8 -63 21 -16 12 -32 40 -41 72 -8 29 -17 98 -19 154 -2 56 -7
107 -11 112 -3 6 -9 11 -13 11z"/>
</g>
</svg>
