<?xml version="1.0" standalone="no"?>
<!DOCTYPE svg PUBLIC "-//W3C//DTD SVG 20010904//EN"
 "http://www.w3.org/TR/2001/REC-SVG-20010904/DTD/svg10.dtd">
<svg version="1.0" xmlns="http://www.w3.org/2000/svg"
 width="157.000000pt" height="171.000000pt" viewBox="0 0 157.000000 171.000000"
 preserveAspectRatio="xMidYMid meet">
<metadata>
Created by potrace 1.16, written by Peter Selinger 2001-2019
</metadata>
<g transform="translate(0.000000,171.000000) scale(0.100000,-0.100000)"
fill="#000000" stroke="none">
<path d="M1244 1578 c-11 2 -23 0 -27 -4 -4 -4 -7 -17 -7 -30 0 -12 -7 -35
-15 -50 -9 -17 -15 -56 -15 -95 0 -46 4 -70 15 -79 8 -6 22 -10 32 -8 14 2 20
17 25 63 3 33 12 84 19 113 10 38 10 58 3 70 -6 9 -20 18 -30 20z M873 1550
c-7 0 -20 -11 -29 -25 -9 -13 -18 -51 -21 -84 -3 -32 -3 -75 1 -96 6 -32 10
-36 34 -33 25 3 27 7 28 54 1 28 7 77 14 109 10 47 10 59 -2 66 -7 5 -19 9
-25 9z M1005 1436 c-5 1 -16 0 -23 -3 -7 -3 -19 -18 -28 -35 -9 -17 -23 -53
-31 -81 -8 -28 -40 -114 -70 -191 -30 -78 -64 -158 -74 -178 -10 -20 -23 -39
-29 -43 -5 -3 -20 1 -32 9 -12 9 -32 16 -44 16 -12 0 -27 -7 -34 -15 -10 -12
-10 -22 1 -47 7 -18 24 -48 37 -65 24 -32 24 -32 -24 -135 -26 -57 -56 -115
-66 -131 -11 -15 -37 -36 -58 -47 -22 -11 -50 -20 -62 -20 -13 1 -33 9 -45 19
-13 11 -27 40 -33 67 -6 27 -8 70 -5 96 4 26 4 52 0 59 -5 7 -17 0 -36 -22
-24 -29 -29 -43 -29 -89 0 -30 5 -72 10 -92 6 -20 26 -50 46 -67 30 -27 43
-31 90 -31 35 0 69 7 95 20 21 11 53 40 70 63 17 23 51 83 75 133 24 51 44 97
44 103 0 6 7 11 15 11 8 0 24 -10 36 -22 12 -13 51 -68 88 -123 37 -55 73
-115 80 -133 10 -23 20 -32 36 -32 18 0 26 8 34 33 9 27 8 41 -5 73 -9 21 -20
62 -23 91 -7 52 -7 52 39 58 25 3 50 5 56 4 5 -2 28 0 50 4 23 4 47 14 54 22
9 11 9 19 2 28 -9 10 -28 11 -85 3 -41 -5 -86 -6 -101 -2 -26 6 -26 6 -26 149
0 85 8 210 21 313 19 148 20 175 8 199 -8 16 -18 30 -24 31z m-61 -267 c2 -2
-1 -38 -5 -79 -4 -41 -8 -133 -8 -203 -1 -128 -1 -128 -23 -122 -13 3 -40 13
-61 22 -22 10 -40 25 -43 38 -3 13 8 49 30 94 19 39 40 88 47 108 6 20 23 61
36 91 13 30 25 53 27 51z"/>
</g>
</svg>
