<?xml version="1.0" standalone="no"?>
<!DOCTYPE svg PUBLIC "-//W3C//DTD SVG 20010904//EN"
 "http://www.w3.org/TR/2001/REC-SVG-20010904/DTD/svg10.dtd">
<svg version="1.0" xmlns="http://www.w3.org/2000/svg"
 width="158.000000pt" height="173.000000pt" viewBox="0 0 158.000000 173.000000"
 preserveAspectRatio="xMidYMid meet">
<metadata>
Created by potrace 1.16, written by Peter Selinger 2001-2019
</metadata>
<g transform="translate(0.000000,173.000000) scale(0.100000,-0.100000)"
fill="#000000" stroke="none">
<path d="M872 970 c-15 -1 -43 -7 -63 -14 -20 -7 -52 -23 -70 -37 -19 -13 -42
-33 -51 -44 -10 -11 -17 -29 -18 -41 0 -11 8 -28 18 -37 10 -9 44 -28 77 -43
33 -15 72 -36 88 -46 20 -15 27 -28 27 -54 0 -28 -6 -38 -32 -54 -18 -11 -52
-22 -75 -26 -33 -5 -52 -1 -83 15 -22 12 -47 21 -55 21 -7 0 -17 -4 -20 -10
-3 -5 -1 -19 5 -31 7 -11 27 -27 45 -35 19 -8 62 -14 97 -14 43 0 75 7 106 21
24 12 52 36 63 53 10 17 19 48 19 68 0 24 -8 46 -25 66 -13 16 -59 46 -100 66
-56 27 -75 42 -73 54 2 9 19 25 38 34 22 12 53 17 85 15 44 -2 50 0 53 19 2
12 -4 29 -13 38 -9 9 -28 16 -43 16z"/>
</g>
</svg>
