<?xml version="1.0" standalone="no"?>
<!DOCTYPE svg PUBLIC "-//W3C//DTD SVG 20010904//EN"
 "http://www.w3.org/TR/2001/REC-SVG-20010904/DTD/svg10.dtd">
<svg version="1.0" xmlns="http://www.w3.org/2000/svg"
 width="155.000000pt" height="170.000000pt" viewBox="0 0 155.000000 170.000000"
 preserveAspectRatio="xMidYMid meet">
<metadata>
Created by potrace 1.16, written by Peter Selinger 2001-2019
</metadata>
<g transform="translate(0.000000,170.000000) scale(0.100000,-0.100000)"
fill="#000000" stroke="none">
<path d="M476 1240 c-18 0 -27 -8 -34 -29 -7 -19 -19 -31 -33 -33 -19 -2 -25
-11 -30 -43 -4 -22 -11 -112 -15 -200 -5 -88 -9 -204 -8 -257 0 -63 5 -102 14
-112 7 -9 18 -16 26 -16 7 0 19 6 27 14 8 9 17 45 21 88 3 40 11 110 18 156 6
45 15 82 19 82 4 0 14 -8 21 -18 7 -10 24 -26 38 -35 17 -12 45 -17 90 -17 51
0 76 6 115 26 28 15 77 45 110 67 33 22 78 55 99 74 22 18 43 33 47 33 4 0 9
-75 11 -167 4 -142 8 -176 26 -222 11 -29 31 -68 44 -87 14 -21 31 -34 45 -34
12 0 25 5 28 11 4 5 -5 27 -20 48 -14 22 -36 67 -47 102 -17 52 -21 88 -20
189 0 77 6 151 16 193 9 38 16 81 16 96 0 15 -5 32 -12 39 -7 7 -15 12 -20 12
-4 0 -26 -25 -49 -56 -23 -31 -58 -73 -78 -93 -20 -20 -62 -53 -93 -74 -32
-21 -85 -51 -117 -67 -39 -20 -75 -30 -104 -30 -29 0 -49 6 -60 18 -9 10 -24
35 -33 57 -10 24 -18 79 -21 140 -2 55 -6 110 -9 123 -3 15 -12 22 -28 22z"/>
</g>
</svg>
