<?xml version="1.0" standalone="no"?>
<!DOCTYPE svg PUBLIC "-//W3C//DTD SVG 20010904//EN"
 "http://www.w3.org/TR/2001/REC-SVG-20010904/DTD/svg10.dtd">
<svg version="1.0" xmlns="http://www.w3.org/2000/svg"
 width="163.000000pt" height="178.000000pt" viewBox="0 0 163.000000 178.000000"
 preserveAspectRatio="xMidYMid meet">
<metadata>
Created by potrace 1.16, written by Peter Selinger 2001-2019
</metadata>
<g transform="translate(0.000000,178.000000) scale(0.100000,-0.100000)"
fill="#000000" stroke="none">
<path d="M737 1348 c-9 8 -24 6 -54 -8 -22 -10 -74 -45 -115 -77 -41 -33 -91
-69 -110 -81 -20 -13 -59 -28 -87 -35 -36 -8 -51 -17 -51 -28 0 -9 7 -20 16
-23 9 -3 25 -6 35 -6 11 0 44 11 72 24 29 13 93 56 144 95 51 39 95 66 98 61
3 -5 -6 -59 -21 -119 -15 -63 -24 -121 -20 -135 3 -14 15 -30 25 -36 11 -5 27
-7 35 -4 13 5 15 17 10 58 -4 35 1 76 15 130 12 44 21 100 21 126 0 26 -6 52
-13 58z M1093 1347 c-6 2 -30 -13 -53 -33 -23 -21 -97 -106 -165 -189 -68 -84
-158 -184 -199 -223 -41 -39 -104 -91 -138 -116 -35 -25 -69 -50 -76 -57 -12
-10 -11 -14 2 -27 13 -14 21 -12 73 19 34 20 115 91 194 169 74 74 155 162
179 195 24 33 68 85 98 117 29 31 65 59 78 62 22 6 25 11 22 43 -2 20 -8 38
-15 40z M1045 927 c-17 1 -51 -4 -76 -12 -29 -9 -59 -28 -78 -50 -17 -20 -31
-42 -31 -50 0 -8 8 -15 18 -15 11 0 27 10 38 21 10 12 38 30 62 41 23 10 47
16 52 13 6 -3 10 -12 10 -18 0 -7 -11 -35 -24 -63 -13 -28 -62 -97 -110 -154
-47 -56 -86 -108 -86 -114 0 -7 5 -17 12 -24 7 -7 26 -12 43 -12 16 0 102 7
190 16 88 8 177 20 198 25 22 6 37 15 34 22 -3 9 -41 11 -133 10 -71 -1 -157
-4 -191 -8 -39 -3 -63 -2 -63 4 0 6 24 38 53 72 28 34 64 78 79 98 14 20 34
60 44 90 15 48 15 58 3 80 -10 18 -24 27 -44 28z"/>
</g>
</svg>
