<?xml version="1.0" standalone="no"?>
<!DOCTYPE svg PUBLIC "-//W3C//DTD SVG 20010904//EN"
 "http://www.w3.org/TR/2001/REC-SVG-20010904/DTD/svg10.dtd">
<svg version="1.0" xmlns="http://www.w3.org/2000/svg"
 width="153.000000pt" height="167.000000pt" viewBox="0 0 153.000000 167.000000"
 preserveAspectRatio="xMidYMid meet">
<metadata>
Created by potrace 1.16, written by Peter Selinger 2001-2019
</metadata>
<g transform="translate(0.000000,167.000000) scale(0.100000,-0.100000)"
fill="#000000" stroke="none">
<path d="M754 1190 c-7 0 -15 -8 -18 -17 -3 -10 -2 -41 3 -70 4 -29 5 -57 1
-63 -4 -7 -24 1 -56 23 -27 19 -64 42 -82 51 -19 10 -40 15 -48 12 -8 -3 -14
-13 -14 -23 0 -11 29 -36 75 -67 42 -27 78 -52 80 -56 2 -4 -2 -15 -9 -25 -10
-14 -36 -22 -96 -29 -58 -8 -86 -16 -93 -28 -8 -12 -7 -21 2 -32 8 -9 27 -16
43 -16 25 0 27 -2 18 -19 -5 -11 -10 -28 -10 -39 0 -11 7 -23 16 -26 12 -5 35
13 79 59 37 38 71 65 83 65 11 0 23 -7 26 -16 3 -9 6 -42 6 -75 0 -45 4 -61
16 -66 8 -3 21 0 27 6 7 7 10 37 8 80 -1 43 1 71 8 76 6 3 50 -14 97 -39 46
-25 91 -43 99 -39 9 3 15 18 15 35 0 25 -6 32 -40 46 -22 9 -40 20 -40 23 0 4
20 12 45 19 33 9 45 17 43 29 -2 9 -15 17 -32 19 -16 2 -56 -4 -88 -13 -43
-12 -63 -13 -78 -5 -11 6 -20 17 -20 24 0 7 31 42 70 77 55 51 68 69 64 86 -3
12 -12 24 -20 27 -8 3 -20 3 -28 0 -7 -3 -28 -25 -46 -50 -17 -25 -37 -43 -43
-41 -6 2 -14 18 -18 35 -4 18 -12 39 -19 47 -7 8 -18 15 -26 15z"/>
</g>
</svg>
