<?xml version="1.0" standalone="no"?>
<!DOCTYPE svg PUBLIC "-//W3C//DTD SVG 20010904//EN"
 "http://www.w3.org/TR/2001/REC-SVG-20010904/DTD/svg10.dtd">
<svg version="1.0" xmlns="http://www.w3.org/2000/svg"
 width="164.000000pt" height="177.000000pt" viewBox="0 0 164.000000 177.000000"
 preserveAspectRatio="xMidYMid meet">
<metadata>
Created by potrace 1.16, written by Peter Selinger 2001-2019
</metadata>
<g transform="translate(0.000000,177.000000) scale(0.100000,-0.100000)"
fill="#000000" stroke="none">
<path d="M590 1459 c-25 0 -68 -6 -97 -13 -28 -7 -63 -20 -77 -30 -18 -12 -26
-25 -26 -47 0 -17 6 -32 16 -36 8 -3 25 4 37 15 12 11 33 25 47 30 14 5 46 12
72 16 30 5 49 3 53 -4 4 -7 -9 -35 -29 -64 -20 -29 -36 -64 -36 -78 0 -16 9
-32 24 -41 13 -9 31 -23 40 -32 11 -11 14 -25 10 -43 -4 -15 -13 -33 -22 -39
-9 -7 -29 -13 -44 -13 -16 0 -31 7 -34 15 -4 8 -16 15 -29 15 -12 0 -28 -7
-35 -14 -6 -8 -10 -25 -8 -37 2 -18 14 -27 49 -37 30 -10 60 -12 85 -8 25 5
51 21 76 46 28 28 38 47 39 71 1 19 1 41 0 49 -1 8 -17 29 -36 45 -19 17 -35
34 -35 39 0 6 9 20 21 32 11 12 27 39 34 60 7 21 10 47 5 59 -4 11 -18 26 -31
32 -13 7 -44 12 -69 12z M1107 1393 c-8 3 -25 -2 -38 -11 -13 -8 -75 -63 -138
-121 -63 -58 -147 -138 -185 -177 -39 -39 -102 -99 -141 -134 -38 -35 -95 -81
-125 -103 -30 -22 -61 -47 -67 -55 -9 -11 -10 -19 -2 -29 6 -7 19 -13 29 -13
9 0 47 23 84 51 37 28 149 129 249 224 100 95 218 201 262 237 65 52 81 69 83
94 2 20 -2 33 -11 37z M1039 1058 c-8 1 -33 -10 -55 -26 -26 -19 -60 -64 -101
-133 -33 -57 -71 -123 -82 -146 -12 -23 -21 -49 -21 -57 0 -9 15 -23 33 -33
23 -12 57 -17 126 -17 93 -1 93 -1 92 -116 -1 -63 -4 -116 -6 -119 -2 -2 0
-12 6 -23 6 -12 19 -18 32 -16 21 3 22 9 28 128 4 69 11 137 17 151 8 19 20
28 44 32 18 3 68 15 111 26 44 11 90 27 103 36 13 8 24 24 24 36 0 11 -7 22
-14 25 -8 3 -28 -1 -43 -9 -15 -8 -68 -24 -117 -36 -49 -12 -91 -19 -94 -16
-3 2 1 32 7 65 7 33 9 65 6 70 -3 6 -17 10 -30 10 -13 0 -28 -8 -34 -17 -5
-10 -12 -46 -16 -81 -4 -34 -10 -64 -13 -66 -4 -2 -44 -7 -89 -10 -80 -7 -83
-7 -83 14 0 11 21 58 47 103 26 45 69 105 96 134 30 31 47 59 45 70 -2 10 -10
19 -19 21z"/>
</g>
</svg>
