<?xml version="1.0" standalone="no"?>
<!DOCTYPE svg PUBLIC "-//W3C//DTD SVG 20010904//EN"
 "http://www.w3.org/TR/2001/REC-SVG-20010904/DTD/svg10.dtd">
<svg version="1.0" xmlns="http://www.w3.org/2000/svg"
 width="157.000000pt" height="172.000000pt" viewBox="0 0 157.000000 172.000000"
 preserveAspectRatio="xMidYMid meet">
<metadata>
Created by potrace 1.16, written by Peter Selinger 2001-2019
</metadata>
<g transform="translate(0.000000,172.000000) scale(0.100000,-0.100000)"
fill="#000000" stroke="none">
<path d="M972 1280 c-13 0 -40 -23 -74 -64 -29 -36 -81 -118 -114 -183 -34
-65 -74 -147 -89 -183 -15 -36 -38 -94 -51 -130 -17 -46 -24 -86 -24 -139 0
-56 5 -81 20 -106 11 -18 37 -41 58 -51 20 -10 62 -20 93 -22 46 -3 69 1 129
27 40 16 118 61 174 98 55 37 107 75 113 83 7 8 12 22 10 30 -1 8 -10 16 -20
18 -10 2 -26 -3 -35 -11 -9 -8 -66 -44 -125 -80 -60 -36 -131 -73 -159 -83
-36 -11 -65 -14 -104 -9 -44 5 -58 12 -72 33 -11 17 -17 45 -16 77 0 28 10 72
23 101 19 43 28 53 60 63 24 7 58 31 89 64 28 28 59 63 70 77 11 14 29 43 40
66 11 22 28 68 36 101 9 34 16 89 16 124 -1 37 -6 71 -14 82 -7 9 -22 17 -34
17z m-39 -150 c5 0 6 -19 2 -42 -4 -24 -19 -66 -32 -95 -14 -28 -45 -73 -68
-100 -24 -26 -46 -45 -50 -41 -3 3 6 30 20 60 15 29 48 90 73 135 26 46 51 83
55 83z"/>
</g>
</svg>
