<?xml version="1.0" standalone="no"?>
<!DOCTYPE svg PUBLIC "-//W3C//DTD SVG 20010904//EN"
 "http://www.w3.org/TR/2001/REC-SVG-20010904/DTD/svg10.dtd">
<svg version="1.0" xmlns="http://www.w3.org/2000/svg"
 width="154.000000pt" height="168.000000pt" viewBox="0 0 154.000000 168.000000"
 preserveAspectRatio="xMidYMid meet">
<metadata>
Created by potrace 1.16, written by Peter Selinger 2001-2019
</metadata>
<g transform="translate(0.000000,168.000000) scale(0.100000,-0.100000)"
fill="#000000" stroke="none">
<path d="M768 1319 c-29 0 -75 -7 -101 -14 -26 -7 -62 -24 -80 -38 -18 -14
-42 -44 -54 -68 -12 -24 -27 -62 -32 -84 -6 -22 -11 -72 -11 -110 0 -39 7 -97
15 -128 8 -32 15 -68 15 -81 0 -12 -14 -41 -31 -64 -17 -24 -37 -63 -45 -89
-8 -25 -14 -73 -14 -106 0 -33 7 -74 16 -92 9 -19 23 -35 32 -37 10 -2 38 -1
64 3 26 4 90 28 143 54 96 46 96 46 149 15 30 -16 62 -30 73 -30 11 0 28 -9
38 -20 10 -11 26 -20 35 -20 10 0 23 7 30 15 7 8 10 25 6 39 -4 18 -15 25 -47
30 -22 4 -58 16 -80 26 -21 11 -39 24 -39 29 0 5 24 25 53 44 28 19 89 67 135
107 45 39 82 78 82 86 0 7 -6 14 -13 14 -7 0 -40 -23 -72 -51 -33 -28 -96 -75
-140 -103 -44 -29 -88 -55 -98 -59 -11 -4 -33 7 -68 36 -28 23 -68 69 -88 101
-36 59 -36 59 24 110 33 28 85 77 116 108 30 32 70 85 87 119 24 46 32 75 32
114 0 29 -5 65 -10 82 -6 16 -24 37 -39 46 -18 11 -49 17 -83 16z m-19 -60
c29 1 51 -5 63 -16 13 -11 18 -30 18 -67 0 -33 -9 -69 -24 -101 -13 -27 -42
-71 -64 -96 -22 -25 -66 -65 -97 -89 -55 -42 -58 -43 -71 -25 -8 10 -15 42
-16 69 -1 28 0 76 1 106 2 30 12 79 23 108 12 32 31 61 51 76 18 13 41 26 52
29 11 2 40 5 64 6z m-188 -539 c4 0 22 -21 40 -47 17 -27 49 -63 70 -81 22
-19 39 -39 39 -45 0 -7 -12 -18 -28 -25 -15 -7 -56 -25 -91 -39 -47 -19 -69
-23 -80 -16 -11 7 -17 29 -19 69 -2 37 3 75 14 104 9 25 24 53 32 63 8 9 19
17 23 17z"/>
</g>
</svg>
