<?xml version="1.0" standalone="no"?>
<!DOCTYPE svg PUBLIC "-//W3C//DTD SVG 20010904//EN"
 "http://www.w3.org/TR/2001/REC-SVG-20010904/DTD/svg10.dtd">
<svg version="1.0" xmlns="http://www.w3.org/2000/svg"
 width="158.000000pt" height="171.000000pt" viewBox="0 0 158.000000 171.000000"
 preserveAspectRatio="xMidYMid meet">
<metadata>
Created by potrace 1.16, written by Peter Selinger 2001-2019
</metadata>
<g transform="translate(0.000000,171.000000) scale(0.100000,-0.100000)"
fill="#000000" stroke="none">
<path d="M941 1320 c-10 0 -23 -6 -29 -13 -6 -7 -18 -55 -26 -107 -9 -52 -27
-133 -40 -180 -14 -47 -32 -102 -41 -123 -8 -20 -17 -37 -20 -37 -2 0 -29 25
-59 56 -45 47 -58 55 -78 49 -12 -4 -26 -13 -30 -19 -4 -6 -8 -31 -8 -56 0
-25 9 -64 19 -86 10 -23 35 -54 55 -70 20 -16 36 -36 36 -44 0 -8 -13 -38 -29
-66 -16 -28 -42 -59 -56 -68 -15 -10 -46 -18 -70 -18 -23 0 -52 6 -64 13 -11
8 -26 27 -33 44 -8 18 -12 57 -9 95 1 36 4 96 5 134 1 56 -2 71 -16 80 -13 8
-23 8 -35 0 -14 -9 -20 -32 -26 -105 -6 -63 -5 -116 3 -161 7 -37 22 -82 34
-100 13 -19 40 -40 67 -52 37 -15 58 -17 104 -11 50 6 64 13 104 50 26 25 58
67 71 95 14 31 30 50 40 50 10 0 46 -31 82 -70 36 -38 70 -70 77 -70 6 0 16
11 23 24 8 18 8 37 0 67 -6 24 -9 46 -6 50 2 4 55 35 117 69 61 33 119 64 127
69 8 4 15 14 15 22 0 8 -12 15 -27 17 -16 2 -59 -13 -110 -38 -46 -23 -87 -46
-93 -51 -5 -5 -17 -9 -27 -9 -11 0 -21 11 -25 28 -5 15 -8 110 -8 212 0 121 5
203 13 237 10 38 11 57 2 72 -6 12 -19 21 -29 21z m-61 -467 c4 -4 10 -32 12
-61 3 -29 1 -55 -3 -58 -5 -2 -17 4 -28 15 -15 15 -18 26 -11 54 4 19 11 40
15 47 4 6 11 8 15 3z"/>
</g>
</svg>
