<?xml version="1.0" standalone="no"?>
<!DOCTYPE svg PUBLIC "-//W3C//DTD SVG 20010904//EN"
 "http://www.w3.org/TR/2001/REC-SVG-20010904/DTD/svg10.dtd">
<svg version="1.0" xmlns="http://www.w3.org/2000/svg"
 width="153.000000pt" height="168.000000pt" viewBox="0 0 153.000000 168.000000"
 preserveAspectRatio="xMidYMid meet">
<metadata>
Created by potrace 1.16, written by Peter Selinger 2001-2019
</metadata>
<g transform="translate(0.000000,168.000000) scale(0.100000,-0.100000)"
fill="#000000" stroke="none">
<path d="M789 1330 c-10 0 -23 -8 -28 -19 -7 -12 -7 -30 0 -52 6 -23 6 -61 0
-114 -6 -44 -18 -197 -27 -340 -9 -143 -17 -354 -18 -470 -1 -197 0 -210 18
-213 10 -2 23 1 29 7 8 8 11 58 8 154 -1 78 2 225 8 327 7 102 16 262 20 355
7 119 14 183 27 215 9 25 17 60 17 77 0 18 -8 42 -18 53 -10 11 -26 20 -36 20z"/>
</g>
</svg>
